%TF.GenerationSoftware,KiCad,Pcbnew,8.0.5*%
%TF.CreationDate,2025-01-04T21:14:34-06:00*%
%TF.ProjectId,button_transmitter,62757474-6f6e-45f7-9472-616e736d6974,rev?*%
%TF.SameCoordinates,PX481dea0PY631a57d*%
%TF.FileFunction,Drillmap*%
%TF.FilePolarity,Positive*%
%FSLAX45Y45*%
G04 Gerber Fmt 4.5, Leading zero omitted, Abs format (unit mm)*
G04 Created by KiCad (PCBNEW 8.0.5) date 2025-01-04 21:14:34*
%MOMM*%
%LPD*%
G01*
G04 APERTURE LIST*
%ADD10C,0.200000*%
%ADD11C,0.100000*%
%ADD12C,0.120000*%
G04 APERTURE END LIST*
D10*
X1250000Y0D02*
G75*
G02*
X-1250000Y0I-1250000J0D01*
G01*
X-1250000Y0D02*
G75*
G02*
X1250000Y0I1250000J0D01*
G01*
D11*
X-1014000Y312693D02*
X-994000Y292693D01*
X-994000Y312693D02*
X-1014000Y292693D01*
X-972000Y-393307D02*
X-952000Y-413307D01*
X-952000Y-393307D02*
X-972000Y-413307D01*
X-905000Y-458307D02*
X-885000Y-478307D01*
X-885000Y-458307D02*
X-905000Y-478307D01*
X-901000Y587693D02*
X-881000Y567693D01*
X-881000Y587693D02*
X-901000Y567693D01*
X-883000Y-17308D02*
X-863000Y-37308D01*
X-863000Y-17308D02*
X-883000Y-37308D01*
X-851372Y-172496D02*
X-831372Y-192496D01*
X-831372Y-172496D02*
X-851372Y-192496D01*
X-763000Y-668308D02*
X-743000Y-688308D01*
X-743000Y-668308D02*
X-763000Y-688308D01*
X-735000Y335693D02*
X-715000Y315693D01*
X-715000Y335693D02*
X-735000Y315693D01*
X-681000Y-751307D02*
X-661000Y-771307D01*
X-661000Y-751307D02*
X-681000Y-771307D01*
X-637000Y130692D02*
X-617000Y110692D01*
X-617000Y130692D02*
X-637000Y110692D01*
X-534000Y576693D02*
X-514000Y556693D01*
X-514000Y576693D02*
X-534000Y556693D01*
X-533000Y-695308D02*
X-513000Y-715307D01*
X-513000Y-695308D02*
X-533000Y-715307D01*
X-506000Y92692D02*
X-486000Y72693D01*
X-486000Y92692D02*
X-506000Y72693D01*
X-448000Y-329308D02*
X-428000Y-349308D01*
X-428000Y-329308D02*
X-448000Y-349308D01*
X-444000Y472692D02*
X-424000Y452692D01*
X-424000Y472692D02*
X-444000Y452692D01*
X-418000Y50692D02*
X-398000Y30692D01*
X-398000Y50692D02*
X-418000Y30692D01*
X-412000Y718692D02*
X-392000Y698693D01*
X-392000Y718692D02*
X-412000Y698693D01*
X-352000Y-674308D02*
X-332000Y-694308D01*
X-332000Y-674308D02*
X-352000Y-694308D01*
X-343000Y-526308D02*
X-323000Y-546308D01*
X-323000Y-526308D02*
X-343000Y-546308D01*
X-265000Y492692D02*
X-245000Y472692D01*
X-245000Y492692D02*
X-265000Y472692D01*
X-219000Y-1018307D02*
X-199000Y-1038307D01*
X-199000Y-1018307D02*
X-219000Y-1038307D01*
X-184155Y718692D02*
X-164155Y698693D01*
X-164155Y718692D02*
X-184155Y698693D01*
X-148000Y-262308D02*
X-128000Y-282308D01*
X-128000Y-262308D02*
X-148000Y-282308D01*
X-2000Y492692D02*
X18000Y472692D01*
X18000Y492692D02*
X-2000Y472692D01*
X43690Y720603D02*
X63690Y700603D01*
X63690Y720603D02*
X43690Y700603D01*
X163000Y830692D02*
X183000Y810692D01*
X183000Y830692D02*
X163000Y810692D01*
X223000Y-200307D02*
X243000Y-220307D01*
X243000Y-200307D02*
X223000Y-220307D01*
X260000Y-542308D02*
X280000Y-562308D01*
X280000Y-542308D02*
X260000Y-562308D01*
X263000Y487692D02*
X283000Y467692D01*
X283000Y487692D02*
X263000Y467692D01*
X380000Y753224D02*
X400000Y733224D01*
X400000Y753224D02*
X380000Y733224D01*
X402000Y-942307D02*
X422000Y-962307D01*
X422000Y-942307D02*
X402000Y-962307D01*
X439000Y387692D02*
X459000Y367692D01*
X459000Y387692D02*
X439000Y367692D01*
X467000Y-586308D02*
X487000Y-606308D01*
X487000Y-586308D02*
X467000Y-606308D01*
X574886Y616613D02*
X594886Y596613D01*
X594886Y616613D02*
X574886Y596613D01*
X638000Y-741307D02*
X658000Y-761307D01*
X658000Y-741307D02*
X638000Y-761307D01*
X731000Y-444307D02*
X751000Y-464307D01*
X751000Y-444307D02*
X731000Y-464307D01*
X762000Y633693D02*
X782000Y613693D01*
X782000Y633693D02*
X762000Y613693D01*
X807000Y262693D02*
X827000Y242692D01*
X827000Y262693D02*
X807000Y242692D01*
X819000Y-157308D02*
X839000Y-177307D01*
X839000Y-157308D02*
X819000Y-177307D01*
X941000Y-230307D02*
X961000Y-250307D01*
X961000Y-230307D02*
X941000Y-250307D01*
X-89000Y-1175808D02*
G75*
G02*
X-119000Y-1175808I-15000J0D01*
G01*
X-119000Y-1175808D02*
G75*
G02*
X-89000Y-1175808I15000J0D01*
G01*
X165000Y-1048808D02*
G75*
G02*
X135000Y-1048808I-15000J0D01*
G01*
X135000Y-1048808D02*
G75*
G02*
X165000Y-1048808I15000J0D01*
G01*
X-300000Y1120193D02*
X-300000Y1065193D01*
X-327500Y1092693D02*
X-272500Y1092693D01*
X300000Y1120193D02*
X300000Y1065193D01*
X272500Y1092693D02*
X327500Y1092693D01*
D12*
X-620573Y873266D02*
X-620573Y958119D01*
X-705427Y958119D01*
X-705427Y873266D01*
X-620573Y873266D01*
X703427Y873266D02*
X703427Y958119D01*
X618573Y958119D01*
X618573Y873266D01*
X703427Y873266D01*
D10*
X-999223Y-1571484D02*
X-999223Y-1371484D01*
X-999223Y-1371484D02*
X-951604Y-1371484D01*
X-951604Y-1371484D02*
X-923033Y-1381008D01*
X-923033Y-1381008D02*
X-903985Y-1400055D01*
X-903985Y-1400055D02*
X-894461Y-1419103D01*
X-894461Y-1419103D02*
X-884937Y-1457198D01*
X-884937Y-1457198D02*
X-884937Y-1485769D01*
X-884937Y-1485769D02*
X-894461Y-1523865D01*
X-894461Y-1523865D02*
X-903985Y-1542912D01*
X-903985Y-1542912D02*
X-923033Y-1561960D01*
X-923033Y-1561960D02*
X-951604Y-1571484D01*
X-951604Y-1571484D02*
X-999223Y-1571484D01*
X-799223Y-1571484D02*
X-799223Y-1438150D01*
X-799223Y-1476246D02*
X-789699Y-1457198D01*
X-789699Y-1457198D02*
X-780176Y-1447674D01*
X-780176Y-1447674D02*
X-761128Y-1438150D01*
X-761128Y-1438150D02*
X-742080Y-1438150D01*
X-675414Y-1571484D02*
X-675414Y-1438150D01*
X-675414Y-1371484D02*
X-684938Y-1381008D01*
X-684938Y-1381008D02*
X-675414Y-1390531D01*
X-675414Y-1390531D02*
X-665890Y-1381008D01*
X-665890Y-1381008D02*
X-675414Y-1371484D01*
X-675414Y-1371484D02*
X-675414Y-1390531D01*
X-551604Y-1571484D02*
X-570652Y-1561960D01*
X-570652Y-1561960D02*
X-580176Y-1542912D01*
X-580176Y-1542912D02*
X-580176Y-1371484D01*
X-446842Y-1571484D02*
X-465890Y-1561960D01*
X-465890Y-1561960D02*
X-475414Y-1542912D01*
X-475414Y-1542912D02*
X-475414Y-1371484D01*
X-218271Y-1571484D02*
X-218271Y-1371484D01*
X-218271Y-1371484D02*
X-151604Y-1514341D01*
X-151604Y-1514341D02*
X-84938Y-1371484D01*
X-84938Y-1371484D02*
X-84938Y-1571484D01*
X96015Y-1571484D02*
X96015Y-1466722D01*
X96015Y-1466722D02*
X86491Y-1447674D01*
X86491Y-1447674D02*
X67444Y-1438150D01*
X67444Y-1438150D02*
X29348Y-1438150D01*
X29348Y-1438150D02*
X10301Y-1447674D01*
X96015Y-1561960D02*
X76967Y-1571484D01*
X76967Y-1571484D02*
X29348Y-1571484D01*
X29348Y-1571484D02*
X10301Y-1561960D01*
X10301Y-1561960D02*
X777Y-1542912D01*
X777Y-1542912D02*
X777Y-1523865D01*
X777Y-1523865D02*
X10301Y-1504817D01*
X10301Y-1504817D02*
X29348Y-1495293D01*
X29348Y-1495293D02*
X76967Y-1495293D01*
X76967Y-1495293D02*
X96015Y-1485769D01*
X191253Y-1438150D02*
X191253Y-1638150D01*
X191253Y-1447674D02*
X210301Y-1438150D01*
X210301Y-1438150D02*
X248396Y-1438150D01*
X248396Y-1438150D02*
X267444Y-1447674D01*
X267444Y-1447674D02*
X276967Y-1457198D01*
X276967Y-1457198D02*
X286491Y-1476246D01*
X286491Y-1476246D02*
X286491Y-1533388D01*
X286491Y-1533388D02*
X276967Y-1552436D01*
X276967Y-1552436D02*
X267444Y-1561960D01*
X267444Y-1561960D02*
X248396Y-1571484D01*
X248396Y-1571484D02*
X210301Y-1571484D01*
X210301Y-1571484D02*
X191253Y-1561960D01*
X372205Y-1552436D02*
X381729Y-1561960D01*
X381729Y-1561960D02*
X372205Y-1571484D01*
X372205Y-1571484D02*
X362682Y-1561960D01*
X362682Y-1561960D02*
X372205Y-1552436D01*
X372205Y-1552436D02*
X372205Y-1571484D01*
X372205Y-1447674D02*
X381729Y-1457198D01*
X381729Y-1457198D02*
X372205Y-1466722D01*
X372205Y-1466722D02*
X362682Y-1457198D01*
X362682Y-1457198D02*
X372205Y-1447674D01*
X372205Y-1447674D02*
X372205Y-1466722D01*
D11*
X-1280000Y-1890000D02*
X-1260000Y-1910000D01*
X-1260000Y-1890000D02*
X-1280000Y-1910000D01*
D10*
X-961128Y-1791484D02*
X-942080Y-1791484D01*
X-942080Y-1791484D02*
X-923033Y-1801008D01*
X-923033Y-1801008D02*
X-913509Y-1810531D01*
X-913509Y-1810531D02*
X-903985Y-1829579D01*
X-903985Y-1829579D02*
X-894461Y-1867674D01*
X-894461Y-1867674D02*
X-894461Y-1915293D01*
X-894461Y-1915293D02*
X-903985Y-1953388D01*
X-903985Y-1953388D02*
X-913509Y-1972436D01*
X-913509Y-1972436D02*
X-923033Y-1981960D01*
X-923033Y-1981960D02*
X-942080Y-1991484D01*
X-942080Y-1991484D02*
X-961128Y-1991484D01*
X-961128Y-1991484D02*
X-980176Y-1981960D01*
X-980176Y-1981960D02*
X-989699Y-1972436D01*
X-989699Y-1972436D02*
X-999223Y-1953388D01*
X-999223Y-1953388D02*
X-1008747Y-1915293D01*
X-1008747Y-1915293D02*
X-1008747Y-1867674D01*
X-1008747Y-1867674D02*
X-999223Y-1829579D01*
X-999223Y-1829579D02*
X-989699Y-1810531D01*
X-989699Y-1810531D02*
X-980176Y-1801008D01*
X-980176Y-1801008D02*
X-961128Y-1791484D01*
X-808747Y-1972436D02*
X-799223Y-1981960D01*
X-799223Y-1981960D02*
X-808747Y-1991484D01*
X-808747Y-1991484D02*
X-818271Y-1981960D01*
X-818271Y-1981960D02*
X-808747Y-1972436D01*
X-808747Y-1972436D02*
X-808747Y-1991484D01*
X-723033Y-1810531D02*
X-713509Y-1801008D01*
X-713509Y-1801008D02*
X-694461Y-1791484D01*
X-694461Y-1791484D02*
X-646842Y-1791484D01*
X-646842Y-1791484D02*
X-627795Y-1801008D01*
X-627795Y-1801008D02*
X-618271Y-1810531D01*
X-618271Y-1810531D02*
X-608747Y-1829579D01*
X-608747Y-1829579D02*
X-608747Y-1848627D01*
X-608747Y-1848627D02*
X-618271Y-1877198D01*
X-618271Y-1877198D02*
X-732556Y-1991484D01*
X-732556Y-1991484D02*
X-608747Y-1991484D01*
X-484937Y-1791484D02*
X-465890Y-1791484D01*
X-465890Y-1791484D02*
X-446842Y-1801008D01*
X-446842Y-1801008D02*
X-437318Y-1810531D01*
X-437318Y-1810531D02*
X-427795Y-1829579D01*
X-427795Y-1829579D02*
X-418271Y-1867674D01*
X-418271Y-1867674D02*
X-418271Y-1915293D01*
X-418271Y-1915293D02*
X-427795Y-1953388D01*
X-427795Y-1953388D02*
X-437318Y-1972436D01*
X-437318Y-1972436D02*
X-446842Y-1981960D01*
X-446842Y-1981960D02*
X-465890Y-1991484D01*
X-465890Y-1991484D02*
X-484937Y-1991484D01*
X-484937Y-1991484D02*
X-503985Y-1981960D01*
X-503985Y-1981960D02*
X-513509Y-1972436D01*
X-513509Y-1972436D02*
X-523033Y-1953388D01*
X-523033Y-1953388D02*
X-532557Y-1915293D01*
X-532557Y-1915293D02*
X-532557Y-1867674D01*
X-532557Y-1867674D02*
X-523033Y-1829579D01*
X-523033Y-1829579D02*
X-513509Y-1810531D01*
X-513509Y-1810531D02*
X-503985Y-1801008D01*
X-503985Y-1801008D02*
X-484937Y-1791484D01*
X-294461Y-1791484D02*
X-275414Y-1791484D01*
X-275414Y-1791484D02*
X-256366Y-1801008D01*
X-256366Y-1801008D02*
X-246842Y-1810531D01*
X-246842Y-1810531D02*
X-237318Y-1829579D01*
X-237318Y-1829579D02*
X-227795Y-1867674D01*
X-227795Y-1867674D02*
X-227795Y-1915293D01*
X-227795Y-1915293D02*
X-237318Y-1953388D01*
X-237318Y-1953388D02*
X-246842Y-1972436D01*
X-246842Y-1972436D02*
X-256366Y-1981960D01*
X-256366Y-1981960D02*
X-275414Y-1991484D01*
X-275414Y-1991484D02*
X-294461Y-1991484D01*
X-294461Y-1991484D02*
X-313509Y-1981960D01*
X-313509Y-1981960D02*
X-323033Y-1972436D01*
X-323033Y-1972436D02*
X-332557Y-1953388D01*
X-332557Y-1953388D02*
X-342080Y-1915293D01*
X-342080Y-1915293D02*
X-342080Y-1867674D01*
X-342080Y-1867674D02*
X-332557Y-1829579D01*
X-332557Y-1829579D02*
X-323033Y-1810531D01*
X-323033Y-1810531D02*
X-313509Y-1801008D01*
X-313509Y-1801008D02*
X-294461Y-1791484D01*
X-142080Y-1991484D02*
X-142080Y-1858150D01*
X-142080Y-1877198D02*
X-132557Y-1867674D01*
X-132557Y-1867674D02*
X-113509Y-1858150D01*
X-113509Y-1858150D02*
X-84937Y-1858150D01*
X-84937Y-1858150D02*
X-65890Y-1867674D01*
X-65890Y-1867674D02*
X-56366Y-1886722D01*
X-56366Y-1886722D02*
X-56366Y-1991484D01*
X-56366Y-1886722D02*
X-46842Y-1867674D01*
X-46842Y-1867674D02*
X-27795Y-1858150D01*
X-27795Y-1858150D02*
X777Y-1858150D01*
X777Y-1858150D02*
X19825Y-1867674D01*
X19825Y-1867674D02*
X29348Y-1886722D01*
X29348Y-1886722D02*
X29348Y-1991484D01*
X124586Y-1991484D02*
X124586Y-1858150D01*
X124586Y-1877198D02*
X134110Y-1867674D01*
X134110Y-1867674D02*
X153158Y-1858150D01*
X153158Y-1858150D02*
X181729Y-1858150D01*
X181729Y-1858150D02*
X200777Y-1867674D01*
X200777Y-1867674D02*
X210301Y-1886722D01*
X210301Y-1886722D02*
X210301Y-1991484D01*
X210301Y-1886722D02*
X219824Y-1867674D01*
X219824Y-1867674D02*
X238872Y-1858150D01*
X238872Y-1858150D02*
X267444Y-1858150D01*
X267444Y-1858150D02*
X286491Y-1867674D01*
X286491Y-1867674D02*
X296015Y-1886722D01*
X296015Y-1886722D02*
X296015Y-1991484D01*
X686491Y-1781960D02*
X515063Y-2039103D01*
X943634Y-1791484D02*
X962682Y-1791484D01*
X962682Y-1791484D02*
X981729Y-1801008D01*
X981729Y-1801008D02*
X991253Y-1810531D01*
X991253Y-1810531D02*
X1000777Y-1829579D01*
X1000777Y-1829579D02*
X1010301Y-1867674D01*
X1010301Y-1867674D02*
X1010301Y-1915293D01*
X1010301Y-1915293D02*
X1000777Y-1953388D01*
X1000777Y-1953388D02*
X991253Y-1972436D01*
X991253Y-1972436D02*
X981729Y-1981960D01*
X981729Y-1981960D02*
X962682Y-1991484D01*
X962682Y-1991484D02*
X943634Y-1991484D01*
X943634Y-1991484D02*
X924586Y-1981960D01*
X924586Y-1981960D02*
X915063Y-1972436D01*
X915063Y-1972436D02*
X905539Y-1953388D01*
X905539Y-1953388D02*
X896015Y-1915293D01*
X896015Y-1915293D02*
X896015Y-1867674D01*
X896015Y-1867674D02*
X905539Y-1829579D01*
X905539Y-1829579D02*
X915063Y-1810531D01*
X915063Y-1810531D02*
X924586Y-1801008D01*
X924586Y-1801008D02*
X943634Y-1791484D01*
X1096015Y-1972436D02*
X1105539Y-1981960D01*
X1105539Y-1981960D02*
X1096015Y-1991484D01*
X1096015Y-1991484D02*
X1086491Y-1981960D01*
X1086491Y-1981960D02*
X1096015Y-1972436D01*
X1096015Y-1972436D02*
X1096015Y-1991484D01*
X1229348Y-1791484D02*
X1248396Y-1791484D01*
X1248396Y-1791484D02*
X1267444Y-1801008D01*
X1267444Y-1801008D02*
X1276968Y-1810531D01*
X1276968Y-1810531D02*
X1286491Y-1829579D01*
X1286491Y-1829579D02*
X1296015Y-1867674D01*
X1296015Y-1867674D02*
X1296015Y-1915293D01*
X1296015Y-1915293D02*
X1286491Y-1953388D01*
X1286491Y-1953388D02*
X1276968Y-1972436D01*
X1276968Y-1972436D02*
X1267444Y-1981960D01*
X1267444Y-1981960D02*
X1248396Y-1991484D01*
X1248396Y-1991484D02*
X1229348Y-1991484D01*
X1229348Y-1991484D02*
X1210301Y-1981960D01*
X1210301Y-1981960D02*
X1200777Y-1972436D01*
X1200777Y-1972436D02*
X1191253Y-1953388D01*
X1191253Y-1953388D02*
X1181729Y-1915293D01*
X1181729Y-1915293D02*
X1181729Y-1867674D01*
X1181729Y-1867674D02*
X1191253Y-1829579D01*
X1191253Y-1829579D02*
X1200777Y-1810531D01*
X1200777Y-1810531D02*
X1210301Y-1801008D01*
X1210301Y-1801008D02*
X1229348Y-1791484D01*
X1419825Y-1791484D02*
X1438872Y-1791484D01*
X1438872Y-1791484D02*
X1457920Y-1801008D01*
X1457920Y-1801008D02*
X1467444Y-1810531D01*
X1467444Y-1810531D02*
X1476967Y-1829579D01*
X1476967Y-1829579D02*
X1486491Y-1867674D01*
X1486491Y-1867674D02*
X1486491Y-1915293D01*
X1486491Y-1915293D02*
X1476967Y-1953388D01*
X1476967Y-1953388D02*
X1467444Y-1972436D01*
X1467444Y-1972436D02*
X1457920Y-1981960D01*
X1457920Y-1981960D02*
X1438872Y-1991484D01*
X1438872Y-1991484D02*
X1419825Y-1991484D01*
X1419825Y-1991484D02*
X1400777Y-1981960D01*
X1400777Y-1981960D02*
X1391253Y-1972436D01*
X1391253Y-1972436D02*
X1381729Y-1953388D01*
X1381729Y-1953388D02*
X1372206Y-1915293D01*
X1372206Y-1915293D02*
X1372206Y-1867674D01*
X1372206Y-1867674D02*
X1381729Y-1829579D01*
X1381729Y-1829579D02*
X1391253Y-1810531D01*
X1391253Y-1810531D02*
X1400777Y-1801008D01*
X1400777Y-1801008D02*
X1419825Y-1791484D01*
X1553158Y-1791484D02*
X1686491Y-1791484D01*
X1686491Y-1791484D02*
X1600777Y-1991484D01*
X1772206Y-1991484D02*
X1810301Y-1991484D01*
X1810301Y-1991484D02*
X1829348Y-1981960D01*
X1829348Y-1981960D02*
X1838872Y-1972436D01*
X1838872Y-1972436D02*
X1857920Y-1943865D01*
X1857920Y-1943865D02*
X1867444Y-1905769D01*
X1867444Y-1905769D02*
X1867444Y-1829579D01*
X1867444Y-1829579D02*
X1857920Y-1810531D01*
X1857920Y-1810531D02*
X1848396Y-1801008D01*
X1848396Y-1801008D02*
X1829348Y-1791484D01*
X1829348Y-1791484D02*
X1791253Y-1791484D01*
X1791253Y-1791484D02*
X1772206Y-1801008D01*
X1772206Y-1801008D02*
X1762682Y-1810531D01*
X1762682Y-1810531D02*
X1753158Y-1829579D01*
X1753158Y-1829579D02*
X1753158Y-1877198D01*
X1753158Y-1877198D02*
X1762682Y-1896246D01*
X1762682Y-1896246D02*
X1772206Y-1905769D01*
X1772206Y-1905769D02*
X1791253Y-1915293D01*
X1791253Y-1915293D02*
X1829348Y-1915293D01*
X1829348Y-1915293D02*
X1848396Y-1905769D01*
X1848396Y-1905769D02*
X1857920Y-1896246D01*
X1857920Y-1896246D02*
X1867444Y-1877198D01*
X1943634Y-1791484D02*
X1943634Y-1829579D01*
X2019825Y-1791484D02*
X2019825Y-1829579D01*
X2315063Y-2067674D02*
X2305539Y-2058150D01*
X2305539Y-2058150D02*
X2286491Y-2029579D01*
X2286491Y-2029579D02*
X2276968Y-2010531D01*
X2276968Y-2010531D02*
X2267444Y-1981960D01*
X2267444Y-1981960D02*
X2257920Y-1934341D01*
X2257920Y-1934341D02*
X2257920Y-1896246D01*
X2257920Y-1896246D02*
X2267444Y-1848627D01*
X2267444Y-1848627D02*
X2276968Y-1820055D01*
X2276968Y-1820055D02*
X2286491Y-1801008D01*
X2286491Y-1801008D02*
X2305539Y-1772436D01*
X2305539Y-1772436D02*
X2315063Y-1762912D01*
X2476968Y-1858150D02*
X2476968Y-1991484D01*
X2429349Y-1781960D02*
X2381730Y-1924817D01*
X2381730Y-1924817D02*
X2505539Y-1924817D01*
X2619825Y-1791484D02*
X2638872Y-1791484D01*
X2638872Y-1791484D02*
X2657920Y-1801008D01*
X2657920Y-1801008D02*
X2667444Y-1810531D01*
X2667444Y-1810531D02*
X2676968Y-1829579D01*
X2676968Y-1829579D02*
X2686491Y-1867674D01*
X2686491Y-1867674D02*
X2686491Y-1915293D01*
X2686491Y-1915293D02*
X2676968Y-1953388D01*
X2676968Y-1953388D02*
X2667444Y-1972436D01*
X2667444Y-1972436D02*
X2657920Y-1981960D01*
X2657920Y-1981960D02*
X2638872Y-1991484D01*
X2638872Y-1991484D02*
X2619825Y-1991484D01*
X2619825Y-1991484D02*
X2600777Y-1981960D01*
X2600777Y-1981960D02*
X2591253Y-1972436D01*
X2591253Y-1972436D02*
X2581730Y-1953388D01*
X2581730Y-1953388D02*
X2572206Y-1915293D01*
X2572206Y-1915293D02*
X2572206Y-1867674D01*
X2572206Y-1867674D02*
X2581730Y-1829579D01*
X2581730Y-1829579D02*
X2591253Y-1810531D01*
X2591253Y-1810531D02*
X2600777Y-1801008D01*
X2600777Y-1801008D02*
X2619825Y-1791484D01*
X2924587Y-1991484D02*
X2924587Y-1791484D01*
X3010301Y-1991484D02*
X3010301Y-1886722D01*
X3010301Y-1886722D02*
X3000777Y-1867674D01*
X3000777Y-1867674D02*
X2981730Y-1858150D01*
X2981730Y-1858150D02*
X2953158Y-1858150D01*
X2953158Y-1858150D02*
X2934110Y-1867674D01*
X2934110Y-1867674D02*
X2924587Y-1877198D01*
X3134110Y-1991484D02*
X3115063Y-1981960D01*
X3115063Y-1981960D02*
X3105539Y-1972436D01*
X3105539Y-1972436D02*
X3096015Y-1953388D01*
X3096015Y-1953388D02*
X3096015Y-1896246D01*
X3096015Y-1896246D02*
X3105539Y-1877198D01*
X3105539Y-1877198D02*
X3115063Y-1867674D01*
X3115063Y-1867674D02*
X3134110Y-1858150D01*
X3134110Y-1858150D02*
X3162682Y-1858150D01*
X3162682Y-1858150D02*
X3181730Y-1867674D01*
X3181730Y-1867674D02*
X3191253Y-1877198D01*
X3191253Y-1877198D02*
X3200777Y-1896246D01*
X3200777Y-1896246D02*
X3200777Y-1953388D01*
X3200777Y-1953388D02*
X3191253Y-1972436D01*
X3191253Y-1972436D02*
X3181730Y-1981960D01*
X3181730Y-1981960D02*
X3162682Y-1991484D01*
X3162682Y-1991484D02*
X3134110Y-1991484D01*
X3315063Y-1991484D02*
X3296015Y-1981960D01*
X3296015Y-1981960D02*
X3286491Y-1962912D01*
X3286491Y-1962912D02*
X3286491Y-1791484D01*
X3467444Y-1981960D02*
X3448396Y-1991484D01*
X3448396Y-1991484D02*
X3410301Y-1991484D01*
X3410301Y-1991484D02*
X3391253Y-1981960D01*
X3391253Y-1981960D02*
X3381730Y-1962912D01*
X3381730Y-1962912D02*
X3381730Y-1886722D01*
X3381730Y-1886722D02*
X3391253Y-1867674D01*
X3391253Y-1867674D02*
X3410301Y-1858150D01*
X3410301Y-1858150D02*
X3448396Y-1858150D01*
X3448396Y-1858150D02*
X3467444Y-1867674D01*
X3467444Y-1867674D02*
X3476968Y-1886722D01*
X3476968Y-1886722D02*
X3476968Y-1905769D01*
X3476968Y-1905769D02*
X3381730Y-1924817D01*
X3553158Y-1981960D02*
X3572206Y-1991484D01*
X3572206Y-1991484D02*
X3610301Y-1991484D01*
X3610301Y-1991484D02*
X3629349Y-1981960D01*
X3629349Y-1981960D02*
X3638872Y-1962912D01*
X3638872Y-1962912D02*
X3638872Y-1953388D01*
X3638872Y-1953388D02*
X3629349Y-1934341D01*
X3629349Y-1934341D02*
X3610301Y-1924817D01*
X3610301Y-1924817D02*
X3581730Y-1924817D01*
X3581730Y-1924817D02*
X3562682Y-1915293D01*
X3562682Y-1915293D02*
X3553158Y-1896246D01*
X3553158Y-1896246D02*
X3553158Y-1886722D01*
X3553158Y-1886722D02*
X3562682Y-1867674D01*
X3562682Y-1867674D02*
X3581730Y-1858150D01*
X3581730Y-1858150D02*
X3610301Y-1858150D01*
X3610301Y-1858150D02*
X3629349Y-1867674D01*
X3705539Y-2067674D02*
X3715063Y-2058150D01*
X3715063Y-2058150D02*
X3734111Y-2029579D01*
X3734111Y-2029579D02*
X3743634Y-2010531D01*
X3743634Y-2010531D02*
X3753158Y-1981960D01*
X3753158Y-1981960D02*
X3762682Y-1934341D01*
X3762682Y-1934341D02*
X3762682Y-1896246D01*
X3762682Y-1896246D02*
X3753158Y-1848627D01*
X3753158Y-1848627D02*
X3743634Y-1820055D01*
X3743634Y-1820055D02*
X3734111Y-1801008D01*
X3734111Y-1801008D02*
X3715063Y-1772436D01*
X3715063Y-1772436D02*
X3705539Y-1762912D01*
D11*
X-1260000Y-2164000D02*
G75*
G02*
X-1290000Y-2164000I-15000J0D01*
G01*
X-1290000Y-2164000D02*
G75*
G02*
X-1260000Y-2164000I15000J0D01*
G01*
D10*
X-961128Y-2055484D02*
X-942080Y-2055484D01*
X-942080Y-2055484D02*
X-923033Y-2065008D01*
X-923033Y-2065008D02*
X-913509Y-2074531D01*
X-913509Y-2074531D02*
X-903985Y-2093579D01*
X-903985Y-2093579D02*
X-894461Y-2131674D01*
X-894461Y-2131674D02*
X-894461Y-2179293D01*
X-894461Y-2179293D02*
X-903985Y-2217389D01*
X-903985Y-2217389D02*
X-913509Y-2236436D01*
X-913509Y-2236436D02*
X-923033Y-2245960D01*
X-923033Y-2245960D02*
X-942080Y-2255484D01*
X-942080Y-2255484D02*
X-961128Y-2255484D01*
X-961128Y-2255484D02*
X-980176Y-2245960D01*
X-980176Y-2245960D02*
X-989699Y-2236436D01*
X-989699Y-2236436D02*
X-999223Y-2217389D01*
X-999223Y-2217389D02*
X-1008747Y-2179293D01*
X-1008747Y-2179293D02*
X-1008747Y-2131674D01*
X-1008747Y-2131674D02*
X-999223Y-2093579D01*
X-999223Y-2093579D02*
X-989699Y-2074531D01*
X-989699Y-2074531D02*
X-980176Y-2065008D01*
X-980176Y-2065008D02*
X-961128Y-2055484D01*
X-808747Y-2236436D02*
X-799223Y-2245960D01*
X-799223Y-2245960D02*
X-808747Y-2255484D01*
X-808747Y-2255484D02*
X-818271Y-2245960D01*
X-818271Y-2245960D02*
X-808747Y-2236436D01*
X-808747Y-2236436D02*
X-808747Y-2255484D01*
X-732556Y-2055484D02*
X-608747Y-2055484D01*
X-608747Y-2055484D02*
X-675414Y-2131674D01*
X-675414Y-2131674D02*
X-646842Y-2131674D01*
X-646842Y-2131674D02*
X-627795Y-2141198D01*
X-627795Y-2141198D02*
X-618271Y-2150722D01*
X-618271Y-2150722D02*
X-608747Y-2169770D01*
X-608747Y-2169770D02*
X-608747Y-2217389D01*
X-608747Y-2217389D02*
X-618271Y-2236436D01*
X-618271Y-2236436D02*
X-627795Y-2245960D01*
X-627795Y-2245960D02*
X-646842Y-2255484D01*
X-646842Y-2255484D02*
X-703985Y-2255484D01*
X-703985Y-2255484D02*
X-723033Y-2245960D01*
X-723033Y-2245960D02*
X-732556Y-2236436D01*
X-484937Y-2055484D02*
X-465890Y-2055484D01*
X-465890Y-2055484D02*
X-446842Y-2065008D01*
X-446842Y-2065008D02*
X-437318Y-2074531D01*
X-437318Y-2074531D02*
X-427795Y-2093579D01*
X-427795Y-2093579D02*
X-418271Y-2131674D01*
X-418271Y-2131674D02*
X-418271Y-2179293D01*
X-418271Y-2179293D02*
X-427795Y-2217389D01*
X-427795Y-2217389D02*
X-437318Y-2236436D01*
X-437318Y-2236436D02*
X-446842Y-2245960D01*
X-446842Y-2245960D02*
X-465890Y-2255484D01*
X-465890Y-2255484D02*
X-484937Y-2255484D01*
X-484937Y-2255484D02*
X-503985Y-2245960D01*
X-503985Y-2245960D02*
X-513509Y-2236436D01*
X-513509Y-2236436D02*
X-523033Y-2217389D01*
X-523033Y-2217389D02*
X-532557Y-2179293D01*
X-532557Y-2179293D02*
X-532557Y-2131674D01*
X-532557Y-2131674D02*
X-523033Y-2093579D01*
X-523033Y-2093579D02*
X-513509Y-2074531D01*
X-513509Y-2074531D02*
X-503985Y-2065008D01*
X-503985Y-2065008D02*
X-484937Y-2055484D01*
X-294461Y-2055484D02*
X-275414Y-2055484D01*
X-275414Y-2055484D02*
X-256366Y-2065008D01*
X-256366Y-2065008D02*
X-246842Y-2074531D01*
X-246842Y-2074531D02*
X-237318Y-2093579D01*
X-237318Y-2093579D02*
X-227795Y-2131674D01*
X-227795Y-2131674D02*
X-227795Y-2179293D01*
X-227795Y-2179293D02*
X-237318Y-2217389D01*
X-237318Y-2217389D02*
X-246842Y-2236436D01*
X-246842Y-2236436D02*
X-256366Y-2245960D01*
X-256366Y-2245960D02*
X-275414Y-2255484D01*
X-275414Y-2255484D02*
X-294461Y-2255484D01*
X-294461Y-2255484D02*
X-313509Y-2245960D01*
X-313509Y-2245960D02*
X-323033Y-2236436D01*
X-323033Y-2236436D02*
X-332557Y-2217389D01*
X-332557Y-2217389D02*
X-342080Y-2179293D01*
X-342080Y-2179293D02*
X-342080Y-2131674D01*
X-342080Y-2131674D02*
X-332557Y-2093579D01*
X-332557Y-2093579D02*
X-323033Y-2074531D01*
X-323033Y-2074531D02*
X-313509Y-2065008D01*
X-313509Y-2065008D02*
X-294461Y-2055484D01*
X-142080Y-2255484D02*
X-142080Y-2122150D01*
X-142080Y-2141198D02*
X-132557Y-2131674D01*
X-132557Y-2131674D02*
X-113509Y-2122150D01*
X-113509Y-2122150D02*
X-84937Y-2122150D01*
X-84937Y-2122150D02*
X-65890Y-2131674D01*
X-65890Y-2131674D02*
X-56366Y-2150722D01*
X-56366Y-2150722D02*
X-56366Y-2255484D01*
X-56366Y-2150722D02*
X-46842Y-2131674D01*
X-46842Y-2131674D02*
X-27795Y-2122150D01*
X-27795Y-2122150D02*
X777Y-2122150D01*
X777Y-2122150D02*
X19825Y-2131674D01*
X19825Y-2131674D02*
X29348Y-2150722D01*
X29348Y-2150722D02*
X29348Y-2255484D01*
X124586Y-2255484D02*
X124586Y-2122150D01*
X124586Y-2141198D02*
X134110Y-2131674D01*
X134110Y-2131674D02*
X153158Y-2122150D01*
X153158Y-2122150D02*
X181729Y-2122150D01*
X181729Y-2122150D02*
X200777Y-2131674D01*
X200777Y-2131674D02*
X210301Y-2150722D01*
X210301Y-2150722D02*
X210301Y-2255484D01*
X210301Y-2150722D02*
X219824Y-2131674D01*
X219824Y-2131674D02*
X238872Y-2122150D01*
X238872Y-2122150D02*
X267444Y-2122150D01*
X267444Y-2122150D02*
X286491Y-2131674D01*
X286491Y-2131674D02*
X296015Y-2150722D01*
X296015Y-2150722D02*
X296015Y-2255484D01*
X686491Y-2045960D02*
X515063Y-2303103D01*
X943634Y-2055484D02*
X962682Y-2055484D01*
X962682Y-2055484D02*
X981729Y-2065008D01*
X981729Y-2065008D02*
X991253Y-2074531D01*
X991253Y-2074531D02*
X1000777Y-2093579D01*
X1000777Y-2093579D02*
X1010301Y-2131674D01*
X1010301Y-2131674D02*
X1010301Y-2179293D01*
X1010301Y-2179293D02*
X1000777Y-2217389D01*
X1000777Y-2217389D02*
X991253Y-2236436D01*
X991253Y-2236436D02*
X981729Y-2245960D01*
X981729Y-2245960D02*
X962682Y-2255484D01*
X962682Y-2255484D02*
X943634Y-2255484D01*
X943634Y-2255484D02*
X924586Y-2245960D01*
X924586Y-2245960D02*
X915063Y-2236436D01*
X915063Y-2236436D02*
X905539Y-2217389D01*
X905539Y-2217389D02*
X896015Y-2179293D01*
X896015Y-2179293D02*
X896015Y-2131674D01*
X896015Y-2131674D02*
X905539Y-2093579D01*
X905539Y-2093579D02*
X915063Y-2074531D01*
X915063Y-2074531D02*
X924586Y-2065008D01*
X924586Y-2065008D02*
X943634Y-2055484D01*
X1096015Y-2236436D02*
X1105539Y-2245960D01*
X1105539Y-2245960D02*
X1096015Y-2255484D01*
X1096015Y-2255484D02*
X1086491Y-2245960D01*
X1086491Y-2245960D02*
X1096015Y-2236436D01*
X1096015Y-2236436D02*
X1096015Y-2255484D01*
X1229348Y-2055484D02*
X1248396Y-2055484D01*
X1248396Y-2055484D02*
X1267444Y-2065008D01*
X1267444Y-2065008D02*
X1276968Y-2074531D01*
X1276968Y-2074531D02*
X1286491Y-2093579D01*
X1286491Y-2093579D02*
X1296015Y-2131674D01*
X1296015Y-2131674D02*
X1296015Y-2179293D01*
X1296015Y-2179293D02*
X1286491Y-2217389D01*
X1286491Y-2217389D02*
X1276968Y-2236436D01*
X1276968Y-2236436D02*
X1267444Y-2245960D01*
X1267444Y-2245960D02*
X1248396Y-2255484D01*
X1248396Y-2255484D02*
X1229348Y-2255484D01*
X1229348Y-2255484D02*
X1210301Y-2245960D01*
X1210301Y-2245960D02*
X1200777Y-2236436D01*
X1200777Y-2236436D02*
X1191253Y-2217389D01*
X1191253Y-2217389D02*
X1181729Y-2179293D01*
X1181729Y-2179293D02*
X1181729Y-2131674D01*
X1181729Y-2131674D02*
X1191253Y-2093579D01*
X1191253Y-2093579D02*
X1200777Y-2074531D01*
X1200777Y-2074531D02*
X1210301Y-2065008D01*
X1210301Y-2065008D02*
X1229348Y-2055484D01*
X1486491Y-2255484D02*
X1372206Y-2255484D01*
X1429348Y-2255484D02*
X1429348Y-2055484D01*
X1429348Y-2055484D02*
X1410301Y-2084055D01*
X1410301Y-2084055D02*
X1391253Y-2103103D01*
X1391253Y-2103103D02*
X1372206Y-2112627D01*
X1676967Y-2255484D02*
X1562682Y-2255484D01*
X1619825Y-2255484D02*
X1619825Y-2055484D01*
X1619825Y-2055484D02*
X1600777Y-2084055D01*
X1600777Y-2084055D02*
X1581729Y-2103103D01*
X1581729Y-2103103D02*
X1562682Y-2112627D01*
X1791253Y-2141198D02*
X1772206Y-2131674D01*
X1772206Y-2131674D02*
X1762682Y-2122150D01*
X1762682Y-2122150D02*
X1753158Y-2103103D01*
X1753158Y-2103103D02*
X1753158Y-2093579D01*
X1753158Y-2093579D02*
X1762682Y-2074531D01*
X1762682Y-2074531D02*
X1772206Y-2065008D01*
X1772206Y-2065008D02*
X1791253Y-2055484D01*
X1791253Y-2055484D02*
X1829348Y-2055484D01*
X1829348Y-2055484D02*
X1848396Y-2065008D01*
X1848396Y-2065008D02*
X1857920Y-2074531D01*
X1857920Y-2074531D02*
X1867444Y-2093579D01*
X1867444Y-2093579D02*
X1867444Y-2103103D01*
X1867444Y-2103103D02*
X1857920Y-2122150D01*
X1857920Y-2122150D02*
X1848396Y-2131674D01*
X1848396Y-2131674D02*
X1829348Y-2141198D01*
X1829348Y-2141198D02*
X1791253Y-2141198D01*
X1791253Y-2141198D02*
X1772206Y-2150722D01*
X1772206Y-2150722D02*
X1762682Y-2160246D01*
X1762682Y-2160246D02*
X1753158Y-2179293D01*
X1753158Y-2179293D02*
X1753158Y-2217389D01*
X1753158Y-2217389D02*
X1762682Y-2236436D01*
X1762682Y-2236436D02*
X1772206Y-2245960D01*
X1772206Y-2245960D02*
X1791253Y-2255484D01*
X1791253Y-2255484D02*
X1829348Y-2255484D01*
X1829348Y-2255484D02*
X1848396Y-2245960D01*
X1848396Y-2245960D02*
X1857920Y-2236436D01*
X1857920Y-2236436D02*
X1867444Y-2217389D01*
X1867444Y-2217389D02*
X1867444Y-2179293D01*
X1867444Y-2179293D02*
X1857920Y-2160246D01*
X1857920Y-2160246D02*
X1848396Y-2150722D01*
X1848396Y-2150722D02*
X1829348Y-2141198D01*
X1943634Y-2055484D02*
X1943634Y-2093579D01*
X2019825Y-2055484D02*
X2019825Y-2093579D01*
X2315063Y-2331674D02*
X2305539Y-2322150D01*
X2305539Y-2322150D02*
X2286491Y-2293579D01*
X2286491Y-2293579D02*
X2276968Y-2274531D01*
X2276968Y-2274531D02*
X2267444Y-2245960D01*
X2267444Y-2245960D02*
X2257920Y-2198341D01*
X2257920Y-2198341D02*
X2257920Y-2160246D01*
X2257920Y-2160246D02*
X2267444Y-2112627D01*
X2267444Y-2112627D02*
X2276968Y-2084055D01*
X2276968Y-2084055D02*
X2286491Y-2065008D01*
X2286491Y-2065008D02*
X2305539Y-2036436D01*
X2305539Y-2036436D02*
X2315063Y-2026912D01*
X2381730Y-2074531D02*
X2391253Y-2065008D01*
X2391253Y-2065008D02*
X2410301Y-2055484D01*
X2410301Y-2055484D02*
X2457920Y-2055484D01*
X2457920Y-2055484D02*
X2476968Y-2065008D01*
X2476968Y-2065008D02*
X2486491Y-2074531D01*
X2486491Y-2074531D02*
X2496015Y-2093579D01*
X2496015Y-2093579D02*
X2496015Y-2112627D01*
X2496015Y-2112627D02*
X2486491Y-2141198D01*
X2486491Y-2141198D02*
X2372206Y-2255484D01*
X2372206Y-2255484D02*
X2496015Y-2255484D01*
X2734111Y-2255484D02*
X2734111Y-2055484D01*
X2819825Y-2255484D02*
X2819825Y-2150722D01*
X2819825Y-2150722D02*
X2810301Y-2131674D01*
X2810301Y-2131674D02*
X2791253Y-2122150D01*
X2791253Y-2122150D02*
X2762682Y-2122150D01*
X2762682Y-2122150D02*
X2743634Y-2131674D01*
X2743634Y-2131674D02*
X2734111Y-2141198D01*
X2943634Y-2255484D02*
X2924587Y-2245960D01*
X2924587Y-2245960D02*
X2915063Y-2236436D01*
X2915063Y-2236436D02*
X2905539Y-2217389D01*
X2905539Y-2217389D02*
X2905539Y-2160246D01*
X2905539Y-2160246D02*
X2915063Y-2141198D01*
X2915063Y-2141198D02*
X2924587Y-2131674D01*
X2924587Y-2131674D02*
X2943634Y-2122150D01*
X2943634Y-2122150D02*
X2972206Y-2122150D01*
X2972206Y-2122150D02*
X2991253Y-2131674D01*
X2991253Y-2131674D02*
X3000777Y-2141198D01*
X3000777Y-2141198D02*
X3010301Y-2160246D01*
X3010301Y-2160246D02*
X3010301Y-2217389D01*
X3010301Y-2217389D02*
X3000777Y-2236436D01*
X3000777Y-2236436D02*
X2991253Y-2245960D01*
X2991253Y-2245960D02*
X2972206Y-2255484D01*
X2972206Y-2255484D02*
X2943634Y-2255484D01*
X3124587Y-2255484D02*
X3105539Y-2245960D01*
X3105539Y-2245960D02*
X3096015Y-2226912D01*
X3096015Y-2226912D02*
X3096015Y-2055484D01*
X3276968Y-2245960D02*
X3257920Y-2255484D01*
X3257920Y-2255484D02*
X3219825Y-2255484D01*
X3219825Y-2255484D02*
X3200777Y-2245960D01*
X3200777Y-2245960D02*
X3191253Y-2226912D01*
X3191253Y-2226912D02*
X3191253Y-2150722D01*
X3191253Y-2150722D02*
X3200777Y-2131674D01*
X3200777Y-2131674D02*
X3219825Y-2122150D01*
X3219825Y-2122150D02*
X3257920Y-2122150D01*
X3257920Y-2122150D02*
X3276968Y-2131674D01*
X3276968Y-2131674D02*
X3286491Y-2150722D01*
X3286491Y-2150722D02*
X3286491Y-2169770D01*
X3286491Y-2169770D02*
X3191253Y-2188817D01*
X3362682Y-2245960D02*
X3381730Y-2255484D01*
X3381730Y-2255484D02*
X3419825Y-2255484D01*
X3419825Y-2255484D02*
X3438872Y-2245960D01*
X3438872Y-2245960D02*
X3448396Y-2226912D01*
X3448396Y-2226912D02*
X3448396Y-2217389D01*
X3448396Y-2217389D02*
X3438872Y-2198341D01*
X3438872Y-2198341D02*
X3419825Y-2188817D01*
X3419825Y-2188817D02*
X3391253Y-2188817D01*
X3391253Y-2188817D02*
X3372206Y-2179293D01*
X3372206Y-2179293D02*
X3362682Y-2160246D01*
X3362682Y-2160246D02*
X3362682Y-2150722D01*
X3362682Y-2150722D02*
X3372206Y-2131674D01*
X3372206Y-2131674D02*
X3391253Y-2122150D01*
X3391253Y-2122150D02*
X3419825Y-2122150D01*
X3419825Y-2122150D02*
X3438872Y-2131674D01*
X3515063Y-2331674D02*
X3524587Y-2322150D01*
X3524587Y-2322150D02*
X3543634Y-2293579D01*
X3543634Y-2293579D02*
X3553158Y-2274531D01*
X3553158Y-2274531D02*
X3562682Y-2245960D01*
X3562682Y-2245960D02*
X3572206Y-2198341D01*
X3572206Y-2198341D02*
X3572206Y-2160246D01*
X3572206Y-2160246D02*
X3562682Y-2112627D01*
X3562682Y-2112627D02*
X3553158Y-2084055D01*
X3553158Y-2084055D02*
X3543634Y-2065008D01*
X3543634Y-2065008D02*
X3524587Y-2036436D01*
X3524587Y-2036436D02*
X3515063Y-2026912D01*
D11*
X-1287500Y-2400500D02*
X-1287500Y-2455500D01*
X-1315000Y-2428000D02*
X-1260000Y-2428000D01*
D10*
X-961128Y-2319484D02*
X-942080Y-2319484D01*
X-942080Y-2319484D02*
X-923033Y-2329008D01*
X-923033Y-2329008D02*
X-913509Y-2338531D01*
X-913509Y-2338531D02*
X-903985Y-2357579D01*
X-903985Y-2357579D02*
X-894461Y-2395674D01*
X-894461Y-2395674D02*
X-894461Y-2443293D01*
X-894461Y-2443293D02*
X-903985Y-2481389D01*
X-903985Y-2481389D02*
X-913509Y-2500436D01*
X-913509Y-2500436D02*
X-923033Y-2509960D01*
X-923033Y-2509960D02*
X-942080Y-2519484D01*
X-942080Y-2519484D02*
X-961128Y-2519484D01*
X-961128Y-2519484D02*
X-980176Y-2509960D01*
X-980176Y-2509960D02*
X-989699Y-2500436D01*
X-989699Y-2500436D02*
X-999223Y-2481389D01*
X-999223Y-2481389D02*
X-1008747Y-2443293D01*
X-1008747Y-2443293D02*
X-1008747Y-2395674D01*
X-1008747Y-2395674D02*
X-999223Y-2357579D01*
X-999223Y-2357579D02*
X-989699Y-2338531D01*
X-989699Y-2338531D02*
X-980176Y-2329008D01*
X-980176Y-2329008D02*
X-961128Y-2319484D01*
X-808747Y-2500436D02*
X-799223Y-2509960D01*
X-799223Y-2509960D02*
X-808747Y-2519484D01*
X-808747Y-2519484D02*
X-818271Y-2509960D01*
X-818271Y-2509960D02*
X-808747Y-2500436D01*
X-808747Y-2500436D02*
X-808747Y-2519484D01*
X-618271Y-2319484D02*
X-713509Y-2319484D01*
X-713509Y-2319484D02*
X-723033Y-2414722D01*
X-723033Y-2414722D02*
X-713509Y-2405198D01*
X-713509Y-2405198D02*
X-694461Y-2395674D01*
X-694461Y-2395674D02*
X-646842Y-2395674D01*
X-646842Y-2395674D02*
X-627795Y-2405198D01*
X-627795Y-2405198D02*
X-618271Y-2414722D01*
X-618271Y-2414722D02*
X-608747Y-2433770D01*
X-608747Y-2433770D02*
X-608747Y-2481389D01*
X-608747Y-2481389D02*
X-618271Y-2500436D01*
X-618271Y-2500436D02*
X-627795Y-2509960D01*
X-627795Y-2509960D02*
X-646842Y-2519484D01*
X-646842Y-2519484D02*
X-694461Y-2519484D01*
X-694461Y-2519484D02*
X-713509Y-2509960D01*
X-713509Y-2509960D02*
X-723033Y-2500436D01*
X-427795Y-2319484D02*
X-523033Y-2319484D01*
X-523033Y-2319484D02*
X-532557Y-2414722D01*
X-532557Y-2414722D02*
X-523033Y-2405198D01*
X-523033Y-2405198D02*
X-503985Y-2395674D01*
X-503985Y-2395674D02*
X-456366Y-2395674D01*
X-456366Y-2395674D02*
X-437318Y-2405198D01*
X-437318Y-2405198D02*
X-427795Y-2414722D01*
X-427795Y-2414722D02*
X-418271Y-2433770D01*
X-418271Y-2433770D02*
X-418271Y-2481389D01*
X-418271Y-2481389D02*
X-427795Y-2500436D01*
X-427795Y-2500436D02*
X-437318Y-2509960D01*
X-437318Y-2509960D02*
X-456366Y-2519484D01*
X-456366Y-2519484D02*
X-503985Y-2519484D01*
X-503985Y-2519484D02*
X-523033Y-2509960D01*
X-523033Y-2509960D02*
X-532557Y-2500436D01*
X-294461Y-2319484D02*
X-275414Y-2319484D01*
X-275414Y-2319484D02*
X-256366Y-2329008D01*
X-256366Y-2329008D02*
X-246842Y-2338531D01*
X-246842Y-2338531D02*
X-237318Y-2357579D01*
X-237318Y-2357579D02*
X-227795Y-2395674D01*
X-227795Y-2395674D02*
X-227795Y-2443293D01*
X-227795Y-2443293D02*
X-237318Y-2481389D01*
X-237318Y-2481389D02*
X-246842Y-2500436D01*
X-246842Y-2500436D02*
X-256366Y-2509960D01*
X-256366Y-2509960D02*
X-275414Y-2519484D01*
X-275414Y-2519484D02*
X-294461Y-2519484D01*
X-294461Y-2519484D02*
X-313509Y-2509960D01*
X-313509Y-2509960D02*
X-323033Y-2500436D01*
X-323033Y-2500436D02*
X-332557Y-2481389D01*
X-332557Y-2481389D02*
X-342080Y-2443293D01*
X-342080Y-2443293D02*
X-342080Y-2395674D01*
X-342080Y-2395674D02*
X-332557Y-2357579D01*
X-332557Y-2357579D02*
X-323033Y-2338531D01*
X-323033Y-2338531D02*
X-313509Y-2329008D01*
X-313509Y-2329008D02*
X-294461Y-2319484D01*
X-142080Y-2519484D02*
X-142080Y-2386150D01*
X-142080Y-2405198D02*
X-132557Y-2395674D01*
X-132557Y-2395674D02*
X-113509Y-2386150D01*
X-113509Y-2386150D02*
X-84937Y-2386150D01*
X-84937Y-2386150D02*
X-65890Y-2395674D01*
X-65890Y-2395674D02*
X-56366Y-2414722D01*
X-56366Y-2414722D02*
X-56366Y-2519484D01*
X-56366Y-2414722D02*
X-46842Y-2395674D01*
X-46842Y-2395674D02*
X-27795Y-2386150D01*
X-27795Y-2386150D02*
X777Y-2386150D01*
X777Y-2386150D02*
X19825Y-2395674D01*
X19825Y-2395674D02*
X29348Y-2414722D01*
X29348Y-2414722D02*
X29348Y-2519484D01*
X124586Y-2519484D02*
X124586Y-2386150D01*
X124586Y-2405198D02*
X134110Y-2395674D01*
X134110Y-2395674D02*
X153158Y-2386150D01*
X153158Y-2386150D02*
X181729Y-2386150D01*
X181729Y-2386150D02*
X200777Y-2395674D01*
X200777Y-2395674D02*
X210301Y-2414722D01*
X210301Y-2414722D02*
X210301Y-2519484D01*
X210301Y-2414722D02*
X219824Y-2395674D01*
X219824Y-2395674D02*
X238872Y-2386150D01*
X238872Y-2386150D02*
X267444Y-2386150D01*
X267444Y-2386150D02*
X286491Y-2395674D01*
X286491Y-2395674D02*
X296015Y-2414722D01*
X296015Y-2414722D02*
X296015Y-2519484D01*
X686491Y-2309960D02*
X515063Y-2567103D01*
X943634Y-2319484D02*
X962682Y-2319484D01*
X962682Y-2319484D02*
X981729Y-2329008D01*
X981729Y-2329008D02*
X991253Y-2338531D01*
X991253Y-2338531D02*
X1000777Y-2357579D01*
X1000777Y-2357579D02*
X1010301Y-2395674D01*
X1010301Y-2395674D02*
X1010301Y-2443293D01*
X1010301Y-2443293D02*
X1000777Y-2481389D01*
X1000777Y-2481389D02*
X991253Y-2500436D01*
X991253Y-2500436D02*
X981729Y-2509960D01*
X981729Y-2509960D02*
X962682Y-2519484D01*
X962682Y-2519484D02*
X943634Y-2519484D01*
X943634Y-2519484D02*
X924586Y-2509960D01*
X924586Y-2509960D02*
X915063Y-2500436D01*
X915063Y-2500436D02*
X905539Y-2481389D01*
X905539Y-2481389D02*
X896015Y-2443293D01*
X896015Y-2443293D02*
X896015Y-2395674D01*
X896015Y-2395674D02*
X905539Y-2357579D01*
X905539Y-2357579D02*
X915063Y-2338531D01*
X915063Y-2338531D02*
X924586Y-2329008D01*
X924586Y-2329008D02*
X943634Y-2319484D01*
X1096015Y-2500436D02*
X1105539Y-2509960D01*
X1105539Y-2509960D02*
X1096015Y-2519484D01*
X1096015Y-2519484D02*
X1086491Y-2509960D01*
X1086491Y-2509960D02*
X1096015Y-2500436D01*
X1096015Y-2500436D02*
X1096015Y-2519484D01*
X1229348Y-2319484D02*
X1248396Y-2319484D01*
X1248396Y-2319484D02*
X1267444Y-2329008D01*
X1267444Y-2329008D02*
X1276968Y-2338531D01*
X1276968Y-2338531D02*
X1286491Y-2357579D01*
X1286491Y-2357579D02*
X1296015Y-2395674D01*
X1296015Y-2395674D02*
X1296015Y-2443293D01*
X1296015Y-2443293D02*
X1286491Y-2481389D01*
X1286491Y-2481389D02*
X1276968Y-2500436D01*
X1276968Y-2500436D02*
X1267444Y-2509960D01*
X1267444Y-2509960D02*
X1248396Y-2519484D01*
X1248396Y-2519484D02*
X1229348Y-2519484D01*
X1229348Y-2519484D02*
X1210301Y-2509960D01*
X1210301Y-2509960D02*
X1200777Y-2500436D01*
X1200777Y-2500436D02*
X1191253Y-2481389D01*
X1191253Y-2481389D02*
X1181729Y-2443293D01*
X1181729Y-2443293D02*
X1181729Y-2395674D01*
X1181729Y-2395674D02*
X1191253Y-2357579D01*
X1191253Y-2357579D02*
X1200777Y-2338531D01*
X1200777Y-2338531D02*
X1210301Y-2329008D01*
X1210301Y-2329008D02*
X1229348Y-2319484D01*
X1372206Y-2338531D02*
X1381729Y-2329008D01*
X1381729Y-2329008D02*
X1400777Y-2319484D01*
X1400777Y-2319484D02*
X1448396Y-2319484D01*
X1448396Y-2319484D02*
X1467444Y-2329008D01*
X1467444Y-2329008D02*
X1476967Y-2338531D01*
X1476967Y-2338531D02*
X1486491Y-2357579D01*
X1486491Y-2357579D02*
X1486491Y-2376627D01*
X1486491Y-2376627D02*
X1476967Y-2405198D01*
X1476967Y-2405198D02*
X1362682Y-2519484D01*
X1362682Y-2519484D02*
X1486491Y-2519484D01*
X1676967Y-2519484D02*
X1562682Y-2519484D01*
X1619825Y-2519484D02*
X1619825Y-2319484D01*
X1619825Y-2319484D02*
X1600777Y-2348055D01*
X1600777Y-2348055D02*
X1581729Y-2367103D01*
X1581729Y-2367103D02*
X1562682Y-2376627D01*
X1743634Y-2319484D02*
X1876967Y-2319484D01*
X1876967Y-2319484D02*
X1791253Y-2519484D01*
X1943634Y-2319484D02*
X1943634Y-2357579D01*
X2019825Y-2319484D02*
X2019825Y-2357579D01*
X2315063Y-2595674D02*
X2305539Y-2586150D01*
X2305539Y-2586150D02*
X2286491Y-2557579D01*
X2286491Y-2557579D02*
X2276968Y-2538531D01*
X2276968Y-2538531D02*
X2267444Y-2509960D01*
X2267444Y-2509960D02*
X2257920Y-2462341D01*
X2257920Y-2462341D02*
X2257920Y-2424246D01*
X2257920Y-2424246D02*
X2267444Y-2376627D01*
X2267444Y-2376627D02*
X2276968Y-2348055D01*
X2276968Y-2348055D02*
X2286491Y-2329008D01*
X2286491Y-2329008D02*
X2305539Y-2300436D01*
X2305539Y-2300436D02*
X2315063Y-2290912D01*
X2381730Y-2338531D02*
X2391253Y-2329008D01*
X2391253Y-2329008D02*
X2410301Y-2319484D01*
X2410301Y-2319484D02*
X2457920Y-2319484D01*
X2457920Y-2319484D02*
X2476968Y-2329008D01*
X2476968Y-2329008D02*
X2486491Y-2338531D01*
X2486491Y-2338531D02*
X2496015Y-2357579D01*
X2496015Y-2357579D02*
X2496015Y-2376627D01*
X2496015Y-2376627D02*
X2486491Y-2405198D01*
X2486491Y-2405198D02*
X2372206Y-2519484D01*
X2372206Y-2519484D02*
X2496015Y-2519484D01*
X2734111Y-2519484D02*
X2734111Y-2319484D01*
X2819825Y-2519484D02*
X2819825Y-2414722D01*
X2819825Y-2414722D02*
X2810301Y-2395674D01*
X2810301Y-2395674D02*
X2791253Y-2386150D01*
X2791253Y-2386150D02*
X2762682Y-2386150D01*
X2762682Y-2386150D02*
X2743634Y-2395674D01*
X2743634Y-2395674D02*
X2734111Y-2405198D01*
X2943634Y-2519484D02*
X2924587Y-2509960D01*
X2924587Y-2509960D02*
X2915063Y-2500436D01*
X2915063Y-2500436D02*
X2905539Y-2481389D01*
X2905539Y-2481389D02*
X2905539Y-2424246D01*
X2905539Y-2424246D02*
X2915063Y-2405198D01*
X2915063Y-2405198D02*
X2924587Y-2395674D01*
X2924587Y-2395674D02*
X2943634Y-2386150D01*
X2943634Y-2386150D02*
X2972206Y-2386150D01*
X2972206Y-2386150D02*
X2991253Y-2395674D01*
X2991253Y-2395674D02*
X3000777Y-2405198D01*
X3000777Y-2405198D02*
X3010301Y-2424246D01*
X3010301Y-2424246D02*
X3010301Y-2481389D01*
X3010301Y-2481389D02*
X3000777Y-2500436D01*
X3000777Y-2500436D02*
X2991253Y-2509960D01*
X2991253Y-2509960D02*
X2972206Y-2519484D01*
X2972206Y-2519484D02*
X2943634Y-2519484D01*
X3124587Y-2519484D02*
X3105539Y-2509960D01*
X3105539Y-2509960D02*
X3096015Y-2490912D01*
X3096015Y-2490912D02*
X3096015Y-2319484D01*
X3276968Y-2509960D02*
X3257920Y-2519484D01*
X3257920Y-2519484D02*
X3219825Y-2519484D01*
X3219825Y-2519484D02*
X3200777Y-2509960D01*
X3200777Y-2509960D02*
X3191253Y-2490912D01*
X3191253Y-2490912D02*
X3191253Y-2414722D01*
X3191253Y-2414722D02*
X3200777Y-2395674D01*
X3200777Y-2395674D02*
X3219825Y-2386150D01*
X3219825Y-2386150D02*
X3257920Y-2386150D01*
X3257920Y-2386150D02*
X3276968Y-2395674D01*
X3276968Y-2395674D02*
X3286491Y-2414722D01*
X3286491Y-2414722D02*
X3286491Y-2433770D01*
X3286491Y-2433770D02*
X3191253Y-2452817D01*
X3362682Y-2509960D02*
X3381730Y-2519484D01*
X3381730Y-2519484D02*
X3419825Y-2519484D01*
X3419825Y-2519484D02*
X3438872Y-2509960D01*
X3438872Y-2509960D02*
X3448396Y-2490912D01*
X3448396Y-2490912D02*
X3448396Y-2481389D01*
X3448396Y-2481389D02*
X3438872Y-2462341D01*
X3438872Y-2462341D02*
X3419825Y-2452817D01*
X3419825Y-2452817D02*
X3391253Y-2452817D01*
X3391253Y-2452817D02*
X3372206Y-2443293D01*
X3372206Y-2443293D02*
X3362682Y-2424246D01*
X3362682Y-2424246D02*
X3362682Y-2414722D01*
X3362682Y-2414722D02*
X3372206Y-2395674D01*
X3372206Y-2395674D02*
X3391253Y-2386150D01*
X3391253Y-2386150D02*
X3419825Y-2386150D01*
X3419825Y-2386150D02*
X3438872Y-2395674D01*
X3515063Y-2595674D02*
X3524587Y-2586150D01*
X3524587Y-2586150D02*
X3543634Y-2557579D01*
X3543634Y-2557579D02*
X3553158Y-2538531D01*
X3553158Y-2538531D02*
X3562682Y-2509960D01*
X3562682Y-2509960D02*
X3572206Y-2462341D01*
X3572206Y-2462341D02*
X3572206Y-2424246D01*
X3572206Y-2424246D02*
X3562682Y-2376627D01*
X3562682Y-2376627D02*
X3553158Y-2348055D01*
X3553158Y-2348055D02*
X3543634Y-2329008D01*
X3543634Y-2329008D02*
X3524587Y-2300436D01*
X3524587Y-2300436D02*
X3515063Y-2290912D01*
D12*
X-1277573Y-2734427D02*
X-1277573Y-2649573D01*
X-1362427Y-2649573D01*
X-1362427Y-2734427D01*
X-1277573Y-2734427D01*
D10*
X-894461Y-2783484D02*
X-1008747Y-2783484D01*
X-951604Y-2783484D02*
X-951604Y-2583484D01*
X-951604Y-2583484D02*
X-970652Y-2612055D01*
X-970652Y-2612055D02*
X-989699Y-2631103D01*
X-989699Y-2631103D02*
X-1008747Y-2640627D01*
X-808747Y-2764436D02*
X-799223Y-2773960D01*
X-799223Y-2773960D02*
X-808747Y-2783484D01*
X-808747Y-2783484D02*
X-818271Y-2773960D01*
X-818271Y-2773960D02*
X-808747Y-2764436D01*
X-808747Y-2764436D02*
X-808747Y-2783484D01*
X-723033Y-2602531D02*
X-713509Y-2593008D01*
X-713509Y-2593008D02*
X-694461Y-2583484D01*
X-694461Y-2583484D02*
X-646842Y-2583484D01*
X-646842Y-2583484D02*
X-627795Y-2593008D01*
X-627795Y-2593008D02*
X-618271Y-2602531D01*
X-618271Y-2602531D02*
X-608747Y-2621579D01*
X-608747Y-2621579D02*
X-608747Y-2640627D01*
X-608747Y-2640627D02*
X-618271Y-2669198D01*
X-618271Y-2669198D02*
X-732556Y-2783484D01*
X-732556Y-2783484D02*
X-608747Y-2783484D01*
X-484937Y-2583484D02*
X-465890Y-2583484D01*
X-465890Y-2583484D02*
X-446842Y-2593008D01*
X-446842Y-2593008D02*
X-437318Y-2602531D01*
X-437318Y-2602531D02*
X-427795Y-2621579D01*
X-427795Y-2621579D02*
X-418271Y-2659674D01*
X-418271Y-2659674D02*
X-418271Y-2707293D01*
X-418271Y-2707293D02*
X-427795Y-2745389D01*
X-427795Y-2745389D02*
X-437318Y-2764436D01*
X-437318Y-2764436D02*
X-446842Y-2773960D01*
X-446842Y-2773960D02*
X-465890Y-2783484D01*
X-465890Y-2783484D02*
X-484937Y-2783484D01*
X-484937Y-2783484D02*
X-503985Y-2773960D01*
X-503985Y-2773960D02*
X-513509Y-2764436D01*
X-513509Y-2764436D02*
X-523033Y-2745389D01*
X-523033Y-2745389D02*
X-532557Y-2707293D01*
X-532557Y-2707293D02*
X-532557Y-2659674D01*
X-532557Y-2659674D02*
X-523033Y-2621579D01*
X-523033Y-2621579D02*
X-513509Y-2602531D01*
X-513509Y-2602531D02*
X-503985Y-2593008D01*
X-503985Y-2593008D02*
X-484937Y-2583484D01*
X-294461Y-2583484D02*
X-275414Y-2583484D01*
X-275414Y-2583484D02*
X-256366Y-2593008D01*
X-256366Y-2593008D02*
X-246842Y-2602531D01*
X-246842Y-2602531D02*
X-237318Y-2621579D01*
X-237318Y-2621579D02*
X-227795Y-2659674D01*
X-227795Y-2659674D02*
X-227795Y-2707293D01*
X-227795Y-2707293D02*
X-237318Y-2745389D01*
X-237318Y-2745389D02*
X-246842Y-2764436D01*
X-246842Y-2764436D02*
X-256366Y-2773960D01*
X-256366Y-2773960D02*
X-275414Y-2783484D01*
X-275414Y-2783484D02*
X-294461Y-2783484D01*
X-294461Y-2783484D02*
X-313509Y-2773960D01*
X-313509Y-2773960D02*
X-323033Y-2764436D01*
X-323033Y-2764436D02*
X-332557Y-2745389D01*
X-332557Y-2745389D02*
X-342080Y-2707293D01*
X-342080Y-2707293D02*
X-342080Y-2659674D01*
X-342080Y-2659674D02*
X-332557Y-2621579D01*
X-332557Y-2621579D02*
X-323033Y-2602531D01*
X-323033Y-2602531D02*
X-313509Y-2593008D01*
X-313509Y-2593008D02*
X-294461Y-2583484D01*
X-142080Y-2783484D02*
X-142080Y-2650150D01*
X-142080Y-2669198D02*
X-132557Y-2659674D01*
X-132557Y-2659674D02*
X-113509Y-2650150D01*
X-113509Y-2650150D02*
X-84937Y-2650150D01*
X-84937Y-2650150D02*
X-65890Y-2659674D01*
X-65890Y-2659674D02*
X-56366Y-2678722D01*
X-56366Y-2678722D02*
X-56366Y-2783484D01*
X-56366Y-2678722D02*
X-46842Y-2659674D01*
X-46842Y-2659674D02*
X-27795Y-2650150D01*
X-27795Y-2650150D02*
X777Y-2650150D01*
X777Y-2650150D02*
X19825Y-2659674D01*
X19825Y-2659674D02*
X29348Y-2678722D01*
X29348Y-2678722D02*
X29348Y-2783484D01*
X124586Y-2783484D02*
X124586Y-2650150D01*
X124586Y-2669198D02*
X134110Y-2659674D01*
X134110Y-2659674D02*
X153158Y-2650150D01*
X153158Y-2650150D02*
X181729Y-2650150D01*
X181729Y-2650150D02*
X200777Y-2659674D01*
X200777Y-2659674D02*
X210301Y-2678722D01*
X210301Y-2678722D02*
X210301Y-2783484D01*
X210301Y-2678722D02*
X219824Y-2659674D01*
X219824Y-2659674D02*
X238872Y-2650150D01*
X238872Y-2650150D02*
X267444Y-2650150D01*
X267444Y-2650150D02*
X286491Y-2659674D01*
X286491Y-2659674D02*
X296015Y-2678722D01*
X296015Y-2678722D02*
X296015Y-2783484D01*
X686491Y-2573960D02*
X515063Y-2831103D01*
X943634Y-2583484D02*
X962682Y-2583484D01*
X962682Y-2583484D02*
X981729Y-2593008D01*
X981729Y-2593008D02*
X991253Y-2602531D01*
X991253Y-2602531D02*
X1000777Y-2621579D01*
X1000777Y-2621579D02*
X1010301Y-2659674D01*
X1010301Y-2659674D02*
X1010301Y-2707293D01*
X1010301Y-2707293D02*
X1000777Y-2745389D01*
X1000777Y-2745389D02*
X991253Y-2764436D01*
X991253Y-2764436D02*
X981729Y-2773960D01*
X981729Y-2773960D02*
X962682Y-2783484D01*
X962682Y-2783484D02*
X943634Y-2783484D01*
X943634Y-2783484D02*
X924586Y-2773960D01*
X924586Y-2773960D02*
X915063Y-2764436D01*
X915063Y-2764436D02*
X905539Y-2745389D01*
X905539Y-2745389D02*
X896015Y-2707293D01*
X896015Y-2707293D02*
X896015Y-2659674D01*
X896015Y-2659674D02*
X905539Y-2621579D01*
X905539Y-2621579D02*
X915063Y-2602531D01*
X915063Y-2602531D02*
X924586Y-2593008D01*
X924586Y-2593008D02*
X943634Y-2583484D01*
X1096015Y-2764436D02*
X1105539Y-2773960D01*
X1105539Y-2773960D02*
X1096015Y-2783484D01*
X1096015Y-2783484D02*
X1086491Y-2773960D01*
X1086491Y-2773960D02*
X1096015Y-2764436D01*
X1096015Y-2764436D02*
X1096015Y-2783484D01*
X1229348Y-2583484D02*
X1248396Y-2583484D01*
X1248396Y-2583484D02*
X1267444Y-2593008D01*
X1267444Y-2593008D02*
X1276968Y-2602531D01*
X1276968Y-2602531D02*
X1286491Y-2621579D01*
X1286491Y-2621579D02*
X1296015Y-2659674D01*
X1296015Y-2659674D02*
X1296015Y-2707293D01*
X1296015Y-2707293D02*
X1286491Y-2745389D01*
X1286491Y-2745389D02*
X1276968Y-2764436D01*
X1276968Y-2764436D02*
X1267444Y-2773960D01*
X1267444Y-2773960D02*
X1248396Y-2783484D01*
X1248396Y-2783484D02*
X1229348Y-2783484D01*
X1229348Y-2783484D02*
X1210301Y-2773960D01*
X1210301Y-2773960D02*
X1200777Y-2764436D01*
X1200777Y-2764436D02*
X1191253Y-2745389D01*
X1191253Y-2745389D02*
X1181729Y-2707293D01*
X1181729Y-2707293D02*
X1181729Y-2659674D01*
X1181729Y-2659674D02*
X1191253Y-2621579D01*
X1191253Y-2621579D02*
X1200777Y-2602531D01*
X1200777Y-2602531D02*
X1210301Y-2593008D01*
X1210301Y-2593008D02*
X1229348Y-2583484D01*
X1467444Y-2650150D02*
X1467444Y-2783484D01*
X1419825Y-2573960D02*
X1372206Y-2716817D01*
X1372206Y-2716817D02*
X1496015Y-2716817D01*
X1553158Y-2583484D02*
X1686491Y-2583484D01*
X1686491Y-2583484D02*
X1600777Y-2783484D01*
X1753158Y-2602531D02*
X1762682Y-2593008D01*
X1762682Y-2593008D02*
X1781729Y-2583484D01*
X1781729Y-2583484D02*
X1829348Y-2583484D01*
X1829348Y-2583484D02*
X1848396Y-2593008D01*
X1848396Y-2593008D02*
X1857920Y-2602531D01*
X1857920Y-2602531D02*
X1867444Y-2621579D01*
X1867444Y-2621579D02*
X1867444Y-2640627D01*
X1867444Y-2640627D02*
X1857920Y-2669198D01*
X1857920Y-2669198D02*
X1743634Y-2783484D01*
X1743634Y-2783484D02*
X1867444Y-2783484D01*
X1943634Y-2583484D02*
X1943634Y-2621579D01*
X2019825Y-2583484D02*
X2019825Y-2621579D01*
X2315063Y-2859674D02*
X2305539Y-2850150D01*
X2305539Y-2850150D02*
X2286491Y-2821579D01*
X2286491Y-2821579D02*
X2276968Y-2802531D01*
X2276968Y-2802531D02*
X2267444Y-2773960D01*
X2267444Y-2773960D02*
X2257920Y-2726341D01*
X2257920Y-2726341D02*
X2257920Y-2688246D01*
X2257920Y-2688246D02*
X2267444Y-2640627D01*
X2267444Y-2640627D02*
X2276968Y-2612055D01*
X2276968Y-2612055D02*
X2286491Y-2593008D01*
X2286491Y-2593008D02*
X2305539Y-2564436D01*
X2305539Y-2564436D02*
X2315063Y-2554912D01*
X2381730Y-2602531D02*
X2391253Y-2593008D01*
X2391253Y-2593008D02*
X2410301Y-2583484D01*
X2410301Y-2583484D02*
X2457920Y-2583484D01*
X2457920Y-2583484D02*
X2476968Y-2593008D01*
X2476968Y-2593008D02*
X2486491Y-2602531D01*
X2486491Y-2602531D02*
X2496015Y-2621579D01*
X2496015Y-2621579D02*
X2496015Y-2640627D01*
X2496015Y-2640627D02*
X2486491Y-2669198D01*
X2486491Y-2669198D02*
X2372206Y-2783484D01*
X2372206Y-2783484D02*
X2496015Y-2783484D01*
X2734111Y-2783484D02*
X2734111Y-2583484D01*
X2819825Y-2783484D02*
X2819825Y-2678722D01*
X2819825Y-2678722D02*
X2810301Y-2659674D01*
X2810301Y-2659674D02*
X2791253Y-2650150D01*
X2791253Y-2650150D02*
X2762682Y-2650150D01*
X2762682Y-2650150D02*
X2743634Y-2659674D01*
X2743634Y-2659674D02*
X2734111Y-2669198D01*
X2943634Y-2783484D02*
X2924587Y-2773960D01*
X2924587Y-2773960D02*
X2915063Y-2764436D01*
X2915063Y-2764436D02*
X2905539Y-2745389D01*
X2905539Y-2745389D02*
X2905539Y-2688246D01*
X2905539Y-2688246D02*
X2915063Y-2669198D01*
X2915063Y-2669198D02*
X2924587Y-2659674D01*
X2924587Y-2659674D02*
X2943634Y-2650150D01*
X2943634Y-2650150D02*
X2972206Y-2650150D01*
X2972206Y-2650150D02*
X2991253Y-2659674D01*
X2991253Y-2659674D02*
X3000777Y-2669198D01*
X3000777Y-2669198D02*
X3010301Y-2688246D01*
X3010301Y-2688246D02*
X3010301Y-2745389D01*
X3010301Y-2745389D02*
X3000777Y-2764436D01*
X3000777Y-2764436D02*
X2991253Y-2773960D01*
X2991253Y-2773960D02*
X2972206Y-2783484D01*
X2972206Y-2783484D02*
X2943634Y-2783484D01*
X3124587Y-2783484D02*
X3105539Y-2773960D01*
X3105539Y-2773960D02*
X3096015Y-2754912D01*
X3096015Y-2754912D02*
X3096015Y-2583484D01*
X3276968Y-2773960D02*
X3257920Y-2783484D01*
X3257920Y-2783484D02*
X3219825Y-2783484D01*
X3219825Y-2783484D02*
X3200777Y-2773960D01*
X3200777Y-2773960D02*
X3191253Y-2754912D01*
X3191253Y-2754912D02*
X3191253Y-2678722D01*
X3191253Y-2678722D02*
X3200777Y-2659674D01*
X3200777Y-2659674D02*
X3219825Y-2650150D01*
X3219825Y-2650150D02*
X3257920Y-2650150D01*
X3257920Y-2650150D02*
X3276968Y-2659674D01*
X3276968Y-2659674D02*
X3286491Y-2678722D01*
X3286491Y-2678722D02*
X3286491Y-2697770D01*
X3286491Y-2697770D02*
X3191253Y-2716817D01*
X3362682Y-2773960D02*
X3381730Y-2783484D01*
X3381730Y-2783484D02*
X3419825Y-2783484D01*
X3419825Y-2783484D02*
X3438872Y-2773960D01*
X3438872Y-2773960D02*
X3448396Y-2754912D01*
X3448396Y-2754912D02*
X3448396Y-2745389D01*
X3448396Y-2745389D02*
X3438872Y-2726341D01*
X3438872Y-2726341D02*
X3419825Y-2716817D01*
X3419825Y-2716817D02*
X3391253Y-2716817D01*
X3391253Y-2716817D02*
X3372206Y-2707293D01*
X3372206Y-2707293D02*
X3362682Y-2688246D01*
X3362682Y-2688246D02*
X3362682Y-2678722D01*
X3362682Y-2678722D02*
X3372206Y-2659674D01*
X3372206Y-2659674D02*
X3391253Y-2650150D01*
X3391253Y-2650150D02*
X3419825Y-2650150D01*
X3419825Y-2650150D02*
X3438872Y-2659674D01*
X3515063Y-2859674D02*
X3524587Y-2850150D01*
X3524587Y-2850150D02*
X3543634Y-2821579D01*
X3543634Y-2821579D02*
X3553158Y-2802531D01*
X3553158Y-2802531D02*
X3562682Y-2773960D01*
X3562682Y-2773960D02*
X3572206Y-2726341D01*
X3572206Y-2726341D02*
X3572206Y-2688246D01*
X3572206Y-2688246D02*
X3562682Y-2640627D01*
X3562682Y-2640627D02*
X3553158Y-2612055D01*
X3553158Y-2612055D02*
X3543634Y-2593008D01*
X3543634Y-2593008D02*
X3524587Y-2564436D01*
X3524587Y-2564436D02*
X3515063Y-2554912D01*
M02*
