G04 #@! TF.GenerationSoftware,KiCad,Pcbnew,8.0.5*
G04 #@! TF.CreationDate,2025-01-04T18:47:14-06:00*
G04 #@! TF.ProjectId,button_transmitter,62757474-6f6e-45f7-9472-616e736d6974,rev?*
G04 #@! TF.SameCoordinates,PX481dea0PY631a57d*
G04 #@! TF.FileFunction,Soldermask,Top*
G04 #@! TF.FilePolarity,Negative*
%FSLAX46Y46*%
G04 Gerber Fmt 4.6, Leading zero omitted, Abs format (unit mm)*
G04 Created by KiCad (PCBNEW 8.0.5) date 2025-01-04 18:47:14*
%MOMM*%
%LPD*%
G01*
G04 APERTURE LIST*
G04 Aperture macros list*
%AMRoundRect*
0 Rectangle with rounded corners*
0 $1 Rounding radius*
0 $2 $3 $4 $5 $6 $7 $8 $9 X,Y pos of 4 corners*
0 Add a 4 corners polygon primitive as box body*
4,1,4,$2,$3,$4,$5,$6,$7,$8,$9,$2,$3,0*
0 Add four circle primitives for the rounded corners*
1,1,$1+$1,$2,$3*
1,1,$1+$1,$4,$5*
1,1,$1+$1,$6,$7*
1,1,$1+$1,$8,$9*
0 Add four rect primitives between the rounded corners*
20,1,$1+$1,$2,$3,$4,$5,0*
20,1,$1+$1,$4,$5,$6,$7,0*
20,1,$1+$1,$6,$7,$8,$9,0*
20,1,$1+$1,$8,$9,$2,$3,0*%
%AMRotRect*
0 Rectangle, with rotation*
0 The origin of the aperture is its center*
0 $1 length*
0 $2 width*
0 $3 Rotation angle, in degrees counterclockwise*
0 Add horizontal line*
21,1,$1,$2,0,0,$3*%
%AMFreePoly0*
4,1,14,0.334644,0.085355,0.385355,0.034644,0.400000,-0.000711,0.400000,-0.050000,0.385355,-0.085355,0.350000,-0.100000,-0.350000,-0.100000,-0.385355,-0.085355,-0.400000,-0.050000,-0.400000,0.050000,-0.385355,0.085355,-0.350000,0.100000,0.299289,0.100000,0.334644,0.085355,0.334644,0.085355,$1*%
%AMFreePoly1*
4,1,14,0.385355,0.085355,0.400000,0.050000,0.400000,0.000711,0.385355,-0.034644,0.334644,-0.085355,0.299289,-0.100000,-0.350000,-0.100000,-0.385355,-0.085355,-0.400000,-0.050000,-0.400000,0.050000,-0.385355,0.085355,-0.350000,0.100000,0.350000,0.100000,0.385355,0.085355,0.385355,0.085355,$1*%
%AMFreePoly2*
4,1,14,0.085355,0.385355,0.100000,0.350000,0.100000,-0.350000,0.085355,-0.385355,0.050000,-0.400000,-0.050000,-0.400000,-0.085355,-0.385355,-0.100000,-0.350000,-0.100000,0.299289,-0.085355,0.334644,-0.034644,0.385355,0.000711,0.400000,0.050000,0.400000,0.085355,0.385355,0.085355,0.385355,$1*%
%AMFreePoly3*
4,1,14,0.034644,0.385355,0.085355,0.334644,0.100000,0.299289,0.100000,-0.350000,0.085355,-0.385355,0.050000,-0.400000,-0.050000,-0.400000,-0.085355,-0.385355,-0.100000,-0.350000,-0.100000,0.350000,-0.085355,0.385355,-0.050000,0.400000,-0.000711,0.400000,0.034644,0.385355,0.034644,0.385355,$1*%
%AMFreePoly4*
4,1,14,0.385355,0.085355,0.400000,0.050000,0.400000,-0.050000,0.385355,-0.085355,0.350000,-0.100000,-0.299289,-0.100000,-0.334644,-0.085355,-0.385355,-0.034644,-0.400000,0.000711,-0.400000,0.050000,-0.385355,0.085355,-0.350000,0.100000,0.350000,0.100000,0.385355,0.085355,0.385355,0.085355,$1*%
%AMFreePoly5*
4,1,14,0.385355,0.085355,0.400000,0.050000,0.400000,-0.050000,0.385355,-0.085355,0.350000,-0.100000,-0.350000,-0.100000,-0.385355,-0.085355,-0.400000,-0.050000,-0.400000,-0.000711,-0.385355,0.034644,-0.334644,0.085355,-0.299289,0.100000,0.350000,0.100000,0.385355,0.085355,0.385355,0.085355,$1*%
%AMFreePoly6*
4,1,14,0.085355,0.385355,0.100000,0.350000,0.100000,-0.299289,0.085355,-0.334644,0.034644,-0.385355,-0.000711,-0.400000,-0.050000,-0.400000,-0.085355,-0.385355,-0.100000,-0.350000,-0.100000,0.350000,-0.085355,0.385355,-0.050000,0.400000,0.050000,0.400000,0.085355,0.385355,0.085355,0.385355,$1*%
%AMFreePoly7*
4,1,14,0.085355,0.385355,0.100000,0.350000,0.100000,-0.350000,0.085355,-0.385355,0.050000,-0.400000,0.000711,-0.400000,-0.034644,-0.385355,-0.085355,-0.334644,-0.100000,-0.299289,-0.100000,0.350000,-0.085355,0.385355,-0.050000,0.400000,0.050000,0.400000,0.085355,0.385355,0.085355,0.385355,$1*%
%AMFreePoly8*
4,1,19,0.500000,-0.750000,0.000000,-0.750000,0.000000,-0.744911,-0.071157,-0.744911,-0.207708,-0.704816,-0.327430,-0.627875,-0.420627,-0.520320,-0.479746,-0.390866,-0.500000,-0.250000,-0.500000,0.250000,-0.479746,0.390866,-0.420627,0.520320,-0.327430,0.627875,-0.207708,0.704816,-0.071157,0.744911,0.000000,0.744911,0.000000,0.750000,0.500000,0.750000,0.500000,-0.750000,0.500000,-0.750000,
$1*%
G04 Aperture macros list end*
%ADD10R,0.635000X0.635000*%
%ADD11C,0.635000*%
%ADD12RoundRect,0.150000X0.035355X-0.247487X0.247487X-0.035355X-0.035355X0.247487X-0.247487X0.035355X0*%
%ADD13RoundRect,0.150000X-0.200000X0.150000X-0.200000X-0.150000X0.200000X-0.150000X0.200000X0.150000X0*%
%ADD14RoundRect,0.150000X0.200000X-0.150000X0.200000X0.150000X-0.200000X0.150000X-0.200000X-0.150000X0*%
%ADD15RoundRect,0.150000X0.150000X0.200000X-0.150000X0.200000X-0.150000X-0.200000X0.150000X-0.200000X0*%
%ADD16RoundRect,0.062500X-0.112500X0.062500X-0.112500X-0.062500X0.112500X-0.062500X0.112500X0.062500X0*%
%ADD17RoundRect,0.225000X-0.250000X0.225000X-0.250000X-0.225000X0.250000X-0.225000X0.250000X0.225000X0*%
%ADD18C,2.200000*%
%ADD19O,2.200000X2.200000*%
%ADD20FreePoly0,45.000000*%
%ADD21RoundRect,0.050000X-0.212132X-0.282843X0.282843X0.212132X0.212132X0.282843X-0.282843X-0.212132X0*%
%ADD22FreePoly1,45.000000*%
%ADD23FreePoly2,45.000000*%
%ADD24RoundRect,0.050000X0.212132X-0.282843X0.282843X-0.212132X-0.212132X0.282843X-0.282843X0.212132X0*%
%ADD25FreePoly3,45.000000*%
%ADD26FreePoly4,45.000000*%
%ADD27FreePoly5,45.000000*%
%ADD28FreePoly6,45.000000*%
%ADD29FreePoly7,45.000000*%
%ADD30RotRect,1.700000X1.700000X45.000000*%
%ADD31RoundRect,0.218750X0.218750X0.381250X-0.218750X0.381250X-0.218750X-0.381250X0.218750X-0.381250X0*%
%ADD32RoundRect,0.150000X-0.247487X-0.035355X-0.035355X-0.247487X0.247487X0.035355X0.035355X0.247487X0*%
%ADD33C,4.000000*%
%ADD34RoundRect,0.100000X0.100000X-0.225000X0.100000X0.225000X-0.100000X0.225000X-0.100000X-0.225000X0*%
%ADD35RoundRect,0.150000X0.247487X0.035355X0.035355X0.247487X-0.247487X-0.035355X-0.035355X-0.247487X0*%
%ADD36RotRect,1.400000X1.200000X315.000000*%
%ADD37RoundRect,0.150000X-0.035355X0.247487X-0.247487X0.035355X0.035355X-0.247487X0.247487X-0.035355X0*%
%ADD38RoundRect,0.150000X-0.150000X0.512500X-0.150000X-0.512500X0.150000X-0.512500X0.150000X0.512500X0*%
%ADD39RoundRect,0.062500X0.220971X0.309359X-0.309359X-0.220971X-0.220971X-0.309359X0.309359X0.220971X0*%
%ADD40RoundRect,0.062500X-0.220971X0.309359X-0.309359X0.220971X0.220971X-0.309359X0.309359X-0.220971X0*%
%ADD41RotRect,1.450000X1.450000X225.000000*%
%ADD42RoundRect,0.150000X-0.512500X-0.150000X0.512500X-0.150000X0.512500X0.150000X-0.512500X0.150000X0*%
%ADD43RoundRect,0.200000X-0.335876X-0.053033X-0.053033X-0.335876X0.335876X0.053033X0.053033X0.335876X0*%
%ADD44RoundRect,0.135000X-0.226274X-0.035355X-0.035355X-0.226274X0.226274X0.035355X0.035355X0.226274X0*%
%ADD45RoundRect,0.150000X-0.150000X-0.200000X0.150000X-0.200000X0.150000X0.200000X-0.150000X0.200000X0*%
%ADD46C,0.600000*%
%ADD47FreePoly8,0.000000*%
%ADD48FreePoly8,180.000000*%
G04 APERTURE END LIST*
D10*
X1500000Y-10488075D03*
D11*
X1500000Y-11758076D03*
X229999Y-10488075D03*
X230002Y-11758075D03*
X-1040001Y-10488076D03*
X-1040001Y-11758075D03*
D12*
X9296447Y-396627D03*
X10003553Y310477D03*
D13*
X-6360003Y-5165575D03*
X-6359999Y-6165575D03*
D14*
X-10300000Y-948073D03*
X-10300000Y21923D03*
D15*
X2820000Y-2973077D03*
X1820000Y-2973073D03*
D16*
X-4957502Y-7798071D03*
X-4957502Y-8348071D03*
D15*
X-2250000Y-2723076D03*
X-3250000Y-2723074D03*
D13*
X1630001Y-8155575D03*
X1629999Y-9150575D03*
D17*
X3050000Y-7768075D03*
X3050000Y-9318075D03*
D18*
X-6630000Y9156925D03*
D19*
X6610000Y9156925D03*
D20*
X-7590990Y-2112695D03*
D21*
X-7308148Y-2395537D03*
X-7025304Y-2678379D03*
X-6742462Y-2961223D03*
D22*
X-6459620Y-3244065D03*
D23*
X-5540380Y-3244065D03*
D24*
X-5257538Y-2961223D03*
X-4974696Y-2678379D03*
X-4691852Y-2395537D03*
D25*
X-4409010Y-2112695D03*
D26*
X-4409010Y-1193455D03*
D21*
X-4691852Y-910613D03*
X-4974696Y-627771D03*
X-5257538Y-344927D03*
D27*
X-5540380Y-62085D03*
D28*
X-6459620Y-62085D03*
D24*
X-6742462Y-344927D03*
X-7025304Y-627771D03*
X-7308148Y-910613D03*
D29*
X-7590990Y-1193455D03*
D30*
X-6000000Y-1653075D03*
D31*
X-7500Y-4963075D03*
X-2132500Y-4963075D03*
D32*
X4736447Y-4609521D03*
X5443553Y-5316629D03*
D14*
X-10292501Y1089425D03*
X-10292499Y2084425D03*
D33*
X0Y0D03*
D13*
X-10300001Y-2035576D03*
X-10299999Y-3030574D03*
D14*
X-5320000Y-6150575D03*
X-5320000Y-5180575D03*
D34*
X2057500Y-6123075D03*
X2707500Y-6123075D03*
X3357500Y-6123075D03*
X3357500Y-4223075D03*
X2707500Y-4223075D03*
X2057500Y-4223075D03*
D13*
X4380002Y-7675575D03*
X4380000Y-8670575D03*
D35*
X-7526447Y-4206629D03*
X-8233553Y-3499521D03*
D36*
X6702755Y2686024D03*
X8329099Y1059680D03*
X9637245Y2367826D03*
X8010901Y3994170D03*
D37*
X8673553Y-3269523D03*
X7966447Y-3976627D03*
D13*
X-7842499Y2084425D03*
X-7842501Y1089425D03*
D15*
X507499Y11696924D03*
X-487501Y11696926D03*
D38*
X-8110000Y4594425D03*
X-10010000Y4594425D03*
X-9060000Y2319425D03*
D39*
X7546797Y-1186941D03*
X7193242Y-833385D03*
X6839692Y-479832D03*
X6486134Y-126278D03*
D40*
X5513866Y-126278D03*
X5160310Y-479833D03*
X4806757Y-833383D03*
X4453203Y-1186941D03*
D39*
X4453203Y-2159209D03*
X4806758Y-2512765D03*
X5160308Y-2866318D03*
X5513866Y-3219872D03*
D40*
X6486134Y-3219872D03*
X6839690Y-2866317D03*
X7193243Y-2512767D03*
X7546797Y-2159209D03*
D41*
X6000000Y-1673075D03*
D14*
X-4270000Y-6153074D03*
X-4269998Y-5158076D03*
D42*
X-2205000Y-6653075D03*
X-2205000Y-7603075D03*
X-2205000Y-8553075D03*
X70000Y-8553075D03*
X70000Y-7603075D03*
X70000Y-6653075D03*
D43*
X-4833363Y3380288D03*
X-3666637Y2213562D03*
D37*
X4101785Y328710D03*
X3398215Y-374860D03*
D14*
X-3897500Y-8573072D03*
X-3897500Y-7573072D03*
D15*
X497500Y9636924D03*
X-497500Y9636926D03*
D44*
X-5680623Y2367549D03*
X-4959377Y1646301D03*
D45*
X-500000Y10666925D03*
X500000Y10666925D03*
D46*
X-3000000Y10926925D03*
D47*
X-3000000Y10926925D03*
D46*
X3000000Y10926925D03*
D48*
X3000000Y10926925D03*
M02*
