G04 #@! TF.GenerationSoftware,KiCad,Pcbnew,8.0.5*
G04 #@! TF.CreationDate,2025-01-04T18:47:14-06:00*
G04 #@! TF.ProjectId,button_transmitter,62757474-6f6e-45f7-9472-616e736d6974,rev?*
G04 #@! TF.SameCoordinates,PX481dea0PY631a57d*
G04 #@! TF.FileFunction,Copper,L2,Bot*
G04 #@! TF.FilePolarity,Positive*
%FSLAX46Y46*%
G04 Gerber Fmt 4.6, Leading zero omitted, Abs format (unit mm)*
G04 Created by KiCad (PCBNEW 8.0.5) date 2025-01-04 18:47:14*
%MOMM*%
%LPD*%
G01*
G04 APERTURE LIST*
G04 Aperture macros list*
%AMFreePoly0*
4,1,19,0.500000,-0.750000,0.000000,-0.750000,0.000000,-0.744911,-0.071157,-0.744911,-0.207708,-0.704816,-0.327430,-0.627875,-0.420627,-0.520320,-0.479746,-0.390866,-0.500000,-0.250000,-0.500000,0.250000,-0.479746,0.390866,-0.420627,0.520320,-0.327430,0.627875,-0.207708,0.704816,-0.071157,0.744911,0.000000,0.744911,0.000000,0.750000,0.500000,0.750000,0.500000,-0.750000,0.500000,-0.750000,
$1*%
%AMFreePoly1*
4,1,177,0.747786,8.922355,1.334728,8.848455,1.915530,8.736072,2.487674,8.585696,3.048676,8.397977,3.596102,8.173731,4.127576,7.913930,4.640793,7.619703,5.133526,7.292325,5.603636,6.933218,6.049083,6.543939,6.467935,6.126177,6.858374,5.681746,7.218706,5.212574,7.547368,4.720697,7.842932,4.208249,7.842933,4.208249,7.843273,4.206336,7.844408,4.205294,7.844705,4.198282,
7.849428,4.171740,7.848425,4.169676,7.848766,4.167901,7.846209,4.162904,7.846358,4.159413,7.834190,4.139413,7.821900,4.126032,6.278103,2.445008,6.277776,2.444846,6.224884,2.387259,6.222047,2.385183,6.221059,2.383453,6.221059,2.383454,6.145666,2.330882,6.059356,2.299283,5.967841,2.290748,5.877176,2.305844,5.793363,2.343570,5.728297,2.396285,5.727004,2.396688,
5.723422,2.400235,5.721948,2.401430,5.721942,2.401424,5.721688,2.401952,5.719655,2.403967,4.461901,3.885481,4.400676,3.918954,4.327946,3.932999,4.254394,3.924222,4.210769,3.904302,3.514193,3.278674,3.483637,3.228192,3.466969,3.157044,3.473103,3.084228,3.501439,3.016871,3.505857,3.011754,5.222590,1.495668,5.223905,1.492977,5.227267,1.491058,5.279837,1.415664,
5.311433,1.329353,5.319966,1.237839,5.304871,1.147175,5.267147,1.063362,5.209290,0.991945,5.209292,0.991942,5.208925,0.991766,5.208789,0.991468,5.202924,0.986665,3.216460,-0.440428,3.184048,-0.469110,3.118103,-0.568781,3.080223,-0.682131,3.072995,-0.801424,3.096910,-0.918518,3.150338,-1.025423,3.229632,-1.114841,3.306346,-1.165469,3.326824,-1.169110,4.759340,-1.728473,
4.836437,-1.742974,4.954812,-1.739202,5.069576,-1.709945,5.175309,-1.656584,5.224713,-1.616210,8.455521,2.378329,8.473511,2.393309,8.485378,2.394563,8.495865,2.400265,8.499751,2.399116,8.523893,2.405756,8.558600,2.392697,8.579001,2.361732,8.579001,2.361731,8.717021,1.786482,8.816868,1.203393,8.878109,0.614996,8.900480,0.023844,8.883882,-0.567498,8.828389,-1.156465,
8.734239,-1.740501,8.601843,-2.317071,8.431775,-2.883673,8.224772,-3.437849,7.981733,-3.977195,7.703713,-4.499369,7.391917,-5.002107,7.047699,-5.483226,6.672552,-5.940639,6.268105,-6.372361,5.836112,-6.776518,5.378448,-7.151358,4.897098,-7.495253,4.394152,-7.806712,3.871791,-8.084382,3.332283,-8.327060,2.777968,-8.533691,2.211251,-8.703379,1.634593,-8.835389,1.050494,-8.929147,
0.461491,-8.984245,-0.129863,-9.000447,-0.721000,-8.977680,-1.309356,-8.916043,-1.892377,-8.815805,-2.467534,-8.677400,-3.032331,-8.501429,-3.584317,-8.288655,-4.121098,-8.040002,-4.640343,-7.756548,-5.139799,-7.439524,-5.617301,-7.090304,-6.070774,-6.710405,-6.498253,-6.301475,-6.897881,-5.865289,-7.267925,-5.403738,-7.606779,-4.918826,-7.912973,-4.412657,-8.185177,-3.887428,-8.422212,-3.345417,
-8.623048,-2.788976,-8.786814,-2.220520,-8.912800,-1.642515,-9.000457,-1.057470,-9.013958,-0.894862,2.583906,-0.894862,2.586364,-0.895843,2.585874,-0.893447,2.583906,-0.894862,-9.013958,-0.894862,-9.049407,-0.467924,-9.059437,0.123567,-9.030504,0.714434,-8.962732,1.302115,-8.856416,1.884058,-8.712017,2.457740,-8.530162,3.020670,-8.311640,3.570406,-8.057399,4.104563,-7.768543,4.620822,
-7.446324,5.116943,-7.092142,5.590775,-6.707532,6.040260,-6.294164,6.463448,-5.853831,6.858503,-5.388444,7.223711,-4.900023,7.557487,-4.390687,7.858382,-3.862646,8.125092,-3.318191,8.356458,-2.759685,8.551477,-2.189551,8.709303,-1.610263,8.829250,-1.024336,8.910799,-0.434310,8.953595,0.157253,8.957453,0.747786,8.922355,0.747786,8.922355,$1*%
G04 Aperture macros list end*
G04 #@! TA.AperFunction,ComponentPad*
%ADD10R,0.635000X0.635000*%
G04 #@! TD*
G04 #@! TA.AperFunction,ComponentPad*
%ADD11C,0.635000*%
G04 #@! TD*
G04 #@! TA.AperFunction,ComponentPad*
%ADD12C,2.200000*%
G04 #@! TD*
G04 #@! TA.AperFunction,ComponentPad*
%ADD13O,2.200000X2.200000*%
G04 #@! TD*
G04 #@! TA.AperFunction,ComponentPad*
%ADD14C,0.600000*%
G04 #@! TD*
G04 #@! TA.AperFunction,SMDPad,CuDef*
%ADD15FreePoly0,0.000000*%
G04 #@! TD*
G04 #@! TA.AperFunction,SMDPad,CuDef*
%ADD16FreePoly0,180.000000*%
G04 #@! TD*
G04 #@! TA.AperFunction,SMDPad,CuDef*
%ADD17R,1.270000X5.080000*%
G04 #@! TD*
G04 #@! TA.AperFunction,SMDPad,CuDef*
%ADD18FreePoly1,180.000000*%
G04 #@! TD*
G04 #@! TA.AperFunction,ViaPad*
%ADD19C,0.700000*%
G04 #@! TD*
G04 #@! TA.AperFunction,Conductor*
%ADD20C,0.500000*%
G04 #@! TD*
G04 #@! TA.AperFunction,Conductor*
%ADD21C,0.300000*%
G04 #@! TD*
G04 #@! TA.AperFunction,Conductor*
%ADD22C,0.200000*%
G04 #@! TD*
G04 APERTURE END LIST*
D10*
X1500000Y-10488075D03*
D11*
X-1040001Y-11758075D03*
D12*
X-6630000Y9156925D03*
D13*
X6610000Y9156925D03*
D14*
X-3000000Y10926925D03*
D15*
X-3000000Y10926925D03*
D14*
X3000000Y10926925D03*
D16*
X3000000Y10926925D03*
D17*
X10985000Y-253075D03*
X-10985000Y-253075D03*
D18*
X-80000Y-273075D03*
D19*
X-6710000Y-7613075D03*
X-7530000Y-6783075D03*
X-3420000Y-6843075D03*
X5848862Y6066131D03*
X-8730000Y-273075D03*
X8170000Y2526925D03*
X1730000Y8206925D03*
X-4020000Y7086925D03*
X4490000Y3776925D03*
X-1380000Y-2723075D03*
X-5230000Y-7053075D03*
X7410000Y-4543075D03*
X-8413720Y-1824957D03*
X2700000Y-5523075D03*
X-10040000Y3026925D03*
X80000Y4826925D03*
X4770000Y-5963075D03*
X2330000Y-2103075D03*
X-6270000Y1206925D03*
X-8910000Y5776925D03*
X8290000Y-1673075D03*
X-3330000Y-5363075D03*
X7720000Y6236925D03*
X-4340000Y4626925D03*
X3899999Y7432245D03*
X4120000Y-9523075D03*
X536898Y7106031D03*
X-1741551Y7086925D03*
X-7250000Y3256925D03*
X-8950000Y-4683075D03*
X-4080000Y406925D03*
X-4960000Y826925D03*
X-9620000Y-4033075D03*
X-2090000Y-10283075D03*
X6480000Y-7513075D03*
X-4380000Y-3393075D03*
X9510000Y-2403075D03*
X-5240000Y5666925D03*
X-2550000Y4826925D03*
X2730000Y4776925D03*
D20*
X560000Y-11403075D02*
X2230000Y-11403075D01*
X-1300000Y-10773075D02*
X-70000Y-10773075D01*
X-10985000Y-3838075D02*
X-8760000Y-6063075D01*
X-8760000Y-6063075D02*
X-8210000Y-6063075D01*
X7420000Y-8013075D02*
X7420000Y-7223075D01*
X-10985000Y-250000D02*
X-10985000Y-3838075D01*
X10985000Y-3658075D02*
X10985000Y-250000D01*
X-1870000Y-11343075D02*
X-1300000Y-10773075D01*
X4490000Y-10943075D02*
X7420000Y-8013075D01*
X2690000Y-10943075D02*
X4490000Y-10943075D01*
X7420000Y-7223075D02*
X10985000Y-3658075D01*
X-8210000Y-6063075D02*
X-2930000Y-11343075D01*
X2230000Y-11403075D02*
X2690000Y-10943075D01*
X-70000Y-10773075D02*
X560000Y-11403075D01*
X-2930000Y-11343075D02*
X-1870000Y-11343075D01*
X-3000000Y2750000D02*
X0Y-250000D01*
D21*
X4120000Y-9453075D02*
X1650000Y-6983075D01*
D22*
X15000Y-258075D02*
X15000Y-5348075D01*
D20*
X-3000000Y10926925D02*
X-3000000Y2750000D01*
D21*
X4120000Y-9523075D02*
X4120000Y-9453075D01*
D22*
X15000Y-5348075D02*
X2575000Y-7908075D01*
X-4340000Y406925D02*
X-8950000Y-4203075D01*
X-4080000Y406925D02*
X-4340000Y406925D01*
X-8950000Y-4203075D02*
X-8950000Y-4683075D01*
X-4810000Y776925D02*
X-4810000Y616925D01*
X-9460000Y-4033075D02*
X-9620000Y-4033075D01*
X-4960000Y826925D02*
X-4860000Y826925D01*
X-4810000Y616925D02*
X-9460000Y-4033075D01*
X-4860000Y826925D02*
X-4810000Y776925D01*
X6480000Y-7513075D02*
X4820000Y-9173075D01*
X-8270000Y-4143075D02*
X-6150000Y-2023075D01*
X-8270000Y-5121817D02*
X-8270000Y-4143075D01*
X-6150000Y-2023075D02*
X-5750000Y-2023075D01*
X-2090000Y-10283075D02*
X-3108742Y-10283075D01*
X4820000Y-9803075D02*
X4400000Y-10223075D01*
X2380000Y-10223075D02*
X1910000Y-9753075D01*
X4400000Y-10223075D02*
X2380000Y-10223075D01*
X4820000Y-9173075D02*
X4820000Y-9803075D01*
X-3108742Y-10283075D02*
X-8270000Y-5121817D01*
X-5750000Y-2023075D02*
X-4380000Y-3393075D01*
X-1560000Y-9753075D02*
X-2090000Y-10283075D01*
X1910000Y-9753075D02*
X-1560000Y-9753075D01*
D21*
X9670000Y-2243075D02*
X9670000Y5956925D01*
X6610000Y9016925D02*
X6610000Y9156925D01*
X9670000Y5956925D02*
X6610000Y9016925D01*
X9510000Y-2403075D02*
X9670000Y-2243075D01*
G04 #@! TA.AperFunction,Conductor*
G36*
X179690Y12501135D02*
G01*
X881126Y12471338D01*
X886651Y12470947D01*
X1585263Y12401516D01*
X1590807Y12400805D01*
X2284357Y12291964D01*
X2289814Y12290948D01*
X2976097Y12143043D01*
X2981521Y12141713D01*
X3658341Y11955216D01*
X3663652Y11953589D01*
X4091224Y11809291D01*
X4328821Y11729106D01*
X4334078Y11727165D01*
X4985475Y11465412D01*
X4990578Y11463193D01*
X5538374Y11206176D01*
X5626144Y11164996D01*
X5631147Y11162473D01*
X6248795Y10828813D01*
X6253647Y10826011D01*
X6560320Y10637185D01*
X6599958Y10590575D01*
X6604629Y10529569D01*
X6572549Y10477468D01*
X6517042Y10454261D01*
X6383315Y10442562D01*
X6163499Y10383663D01*
X5957276Y10287499D01*
X5957262Y10287491D01*
X5770869Y10156979D01*
X5770867Y10156978D01*
X5609947Y9996058D01*
X5609946Y9996056D01*
X5479434Y9809663D01*
X5479426Y9809649D01*
X5383262Y9603426D01*
X5324363Y9383610D01*
X5304532Y9156929D01*
X5304532Y9156922D01*
X5324363Y8930241D01*
X5324364Y8930234D01*
X5324365Y8930233D01*
X5347708Y8843115D01*
X5383262Y8710425D01*
X5479426Y8504202D01*
X5479434Y8504188D01*
X5609946Y8317795D01*
X5609947Y8317793D01*
X5609950Y8317790D01*
X5609953Y8317786D01*
X5770861Y8156878D01*
X5770864Y8156876D01*
X5770867Y8156873D01*
X5770869Y8156872D01*
X5802689Y8134592D01*
X5957266Y8026357D01*
X5957272Y8026354D01*
X5957276Y8026352D01*
X6064915Y7976159D01*
X6127742Y7946862D01*
X6163500Y7930188D01*
X6163504Y7930186D01*
X6383308Y7871290D01*
X6383312Y7871290D01*
X6383315Y7871289D01*
X6609997Y7851457D01*
X6610000Y7851457D01*
X6610003Y7851457D01*
X6836684Y7871289D01*
X6836685Y7871290D01*
X6836692Y7871290D01*
X7056496Y7930186D01*
X7092257Y7946863D01*
X7152986Y7954319D01*
X7204101Y7927142D01*
X9290504Y5840739D01*
X9318281Y5786222D01*
X9319500Y5770735D01*
X9319500Y2380089D01*
X9300593Y2321898D01*
X9251093Y2285934D01*
X9189907Y2285934D01*
X9140407Y2321898D01*
X9124519Y2355827D01*
X9123941Y2358111D01*
X9114730Y2390089D01*
X8932229Y2953151D01*
X8920936Y2984441D01*
X8701761Y3534268D01*
X8688435Y3564740D01*
X8433534Y4098950D01*
X8418228Y4128483D01*
X8128718Y4644736D01*
X8111498Y4673202D01*
X7788616Y5169293D01*
X7769559Y5196564D01*
X7414734Y5670298D01*
X7393927Y5696250D01*
X7008661Y6145621D01*
X6986202Y6170134D01*
X6572195Y6593155D01*
X6548158Y6616151D01*
X6107182Y7011011D01*
X6081694Y7032363D01*
X5615722Y7397304D01*
X5588837Y7416966D01*
X5099852Y7750432D01*
X5071744Y7768275D01*
X4561850Y8068834D01*
X4532658Y8084769D01*
X4004053Y8351121D01*
X3973886Y8365096D01*
X3428899Y8596066D01*
X3397844Y8608036D01*
X2838874Y8802609D01*
X2807092Y8812511D01*
X2236496Y8969870D01*
X2204168Y8977650D01*
X1624438Y9097103D01*
X1591655Y9102740D01*
X1005324Y9183766D01*
X972262Y9187230D01*
X381846Y9229479D01*
X348590Y9230759D01*
X170000Y9231751D01*
X170000Y-424075D01*
X151093Y-482266D01*
X101593Y-518230D01*
X71000Y-523075D01*
X-3950325Y-523075D01*
X-4008516Y-504168D01*
X-4044480Y-454668D01*
X-4044480Y-393482D01*
X-4008516Y-343982D01*
X-4008085Y-343671D01*
X-3587687Y-41671D01*
X-3529927Y-23075D01*
X-330001Y-23075D01*
X-330000Y-23074D01*
X-330000Y9229906D01*
X-867349Y9197446D01*
X-900499Y9194345D01*
X-1487639Y9119841D01*
X-1520520Y9114563D01*
X-2101518Y9001560D01*
X-2133940Y8994138D01*
X-2706281Y8843115D01*
X-2738119Y8833582D01*
X-3299258Y8645213D01*
X-3330430Y8633593D01*
X-3877928Y8408699D01*
X-3908261Y8395055D01*
X-4439786Y8134592D01*
X-4469158Y8118979D01*
X-4982370Y7824093D01*
X-5010655Y7806577D01*
X-5503332Y7478546D01*
X-5530389Y7459217D01*
X-6000427Y7099443D01*
X-6026168Y7078360D01*
X-6471476Y6688442D01*
X-6495756Y6665727D01*
X-6914449Y6247315D01*
X-6937165Y6223068D01*
X-7327420Y5777978D01*
X-7348501Y5752274D01*
X-7708572Y5282499D01*
X-7727920Y5255457D01*
X-8056300Y4762968D01*
X-8073824Y4734712D01*
X-8369055Y4221695D01*
X-8384696Y4192320D01*
X-8645507Y3660987D01*
X-8659174Y3630656D01*
X-8884436Y3083307D01*
X-8896079Y3052141D01*
X-9084823Y2491132D01*
X-9094376Y2459306D01*
X-9245783Y1887063D01*
X-9253228Y1854639D01*
X-9366622Y1273713D01*
X-9371915Y1240877D01*
X-9446819Y653725D01*
X-9449938Y620628D01*
X-9486024Y29808D01*
X-9486958Y-3433D01*
X-9486861Y-23074D01*
X-9486860Y-23075D01*
X-6619358Y-23075D01*
X-6561167Y-41982D01*
X-6525203Y-91482D01*
X-6525203Y-152668D01*
X-6542200Y-184104D01*
X-6784984Y-486104D01*
X-6836179Y-519610D01*
X-6862142Y-523075D01*
X-9484420Y-523075D01*
X-9484067Y-595343D01*
X-9482810Y-628572D01*
X-9440959Y-1218979D01*
X-9437512Y-1252085D01*
X-9356881Y-1838462D01*
X-9351267Y-1871253D01*
X-9232211Y-2451023D01*
X-9224426Y-2483454D01*
X-9145922Y-2768717D01*
X-9145919Y-2768730D01*
X-9140746Y-2787537D01*
X-9132311Y-2815104D01*
X-9132303Y-2815125D01*
X-9067425Y-2943372D01*
X-9067420Y-2943379D01*
X-9001299Y-3013796D01*
X-8975249Y-3069159D01*
X-8986716Y-3129260D01*
X-9003465Y-3151566D01*
X-9339255Y-3487357D01*
X-9393772Y-3515135D01*
X-9447144Y-3508818D01*
X-9476291Y-3496745D01*
X-9476292Y-3496744D01*
X-9620000Y-3477825D01*
X-9763709Y-3496744D01*
X-9763710Y-3496745D01*
X-9897622Y-3552212D01*
X-9897626Y-3552214D01*
X-10012619Y-3640452D01*
X-10012623Y-3640456D01*
X-10100861Y-3755449D01*
X-10100863Y-3755453D01*
X-10140716Y-3851669D01*
X-10180452Y-3898195D01*
X-10239947Y-3912479D01*
X-10296475Y-3889064D01*
X-10302184Y-3883788D01*
X-10505504Y-3680468D01*
X-10533281Y-3625951D01*
X-10534500Y-3610464D01*
X-10534500Y-3092575D01*
X-10515593Y-3034384D01*
X-10466093Y-2998420D01*
X-10435500Y-2993575D01*
X-10330253Y-2993575D01*
X-10330252Y-2993575D01*
X-10271769Y-2981942D01*
X-10205448Y-2937627D01*
X-10161133Y-2871306D01*
X-10149500Y-2812823D01*
X-10149500Y2306673D01*
X-10161133Y2365156D01*
X-10205448Y2431477D01*
X-10205452Y2431480D01*
X-10271767Y2475791D01*
X-10271769Y2475792D01*
X-10271772Y2475793D01*
X-10271773Y2475793D01*
X-10330242Y2487424D01*
X-10330252Y2487425D01*
X-11639748Y2487425D01*
X-11639749Y2487425D01*
X-11639759Y2487424D01*
X-11698228Y2475793D01*
X-11698234Y2475791D01*
X-11764549Y2431480D01*
X-11764555Y2431474D01*
X-11808866Y2365159D01*
X-11808868Y2365153D01*
X-11820499Y2306684D01*
X-11820500Y2306672D01*
X-11820500Y-2812821D01*
X-11820499Y-2812833D01*
X-11808868Y-2871302D01*
X-11808866Y-2871308D01*
X-11781533Y-2912214D01*
X-11764552Y-2937627D01*
X-11698231Y-2981942D01*
X-11653769Y-2990786D01*
X-11639759Y-2993573D01*
X-11639754Y-2993573D01*
X-11639748Y-2993575D01*
X-11534500Y-2993575D01*
X-11476309Y-3012482D01*
X-11440345Y-3061982D01*
X-11435500Y-3092575D01*
X-11435500Y-3897384D01*
X-11431585Y-3911995D01*
X-11418023Y-3962611D01*
X-11418022Y-3962613D01*
X-11418021Y-3962615D01*
X-11404799Y-4011962D01*
X-11404798Y-4011964D01*
X-11404797Y-4011967D01*
X-11345493Y-4114684D01*
X-11345491Y-4114686D01*
X-11345489Y-4114689D01*
X-9036614Y-6423564D01*
X-9036612Y-6423565D01*
X-9036610Y-6423567D01*
X-8933893Y-6482871D01*
X-8933891Y-6482872D01*
X-8933887Y-6482874D01*
X-8909678Y-6489359D01*
X-8909675Y-6489362D01*
X-8909674Y-6489361D01*
X-8819312Y-6513574D01*
X-8819310Y-6513575D01*
X-8819309Y-6513575D01*
X-8437611Y-6513575D01*
X-8379420Y-6532482D01*
X-8367607Y-6542571D01*
X-8102668Y-6807510D01*
X-8074891Y-6862027D01*
X-8074519Y-6864590D01*
X-8066330Y-6926785D01*
X-8010863Y-7060696D01*
X-8010861Y-7060700D01*
X-7922621Y-7175696D01*
X-7807625Y-7263936D01*
X-7673709Y-7319405D01*
X-7611518Y-7327592D01*
X-7556294Y-7353933D01*
X-7554437Y-7355741D01*
X-7284184Y-7625994D01*
X-7256407Y-7680511D01*
X-7256035Y-7683075D01*
X-7246330Y-7756784D01*
X-7206850Y-7852100D01*
X-7190861Y-7890700D01*
X-7102621Y-8005696D01*
X-6987625Y-8093936D01*
X-6853709Y-8149405D01*
X-6780004Y-8159108D01*
X-6724778Y-8185449D01*
X-6722922Y-8187256D01*
X-3206614Y-11703565D01*
X-3103886Y-11762874D01*
X-2989309Y-11793575D01*
X-2989307Y-11793575D01*
X-1980095Y-11793575D01*
X-1921904Y-11812482D01*
X-1885940Y-11861982D01*
X-1881637Y-11882225D01*
X-1876009Y-11935774D01*
X-1820793Y-12105709D01*
X-1820791Y-12105714D01*
X-1758206Y-12214113D01*
X-1745484Y-12273961D01*
X-1770370Y-12329857D01*
X-1823358Y-12360450D01*
X-1856516Y-12361811D01*
X-1935572Y-12351688D01*
X-1941108Y-12350819D01*
X-2631253Y-12222402D01*
X-2636731Y-12221222D01*
X-3318529Y-12053961D01*
X-3323930Y-12052473D01*
X-3995175Y-11846907D01*
X-4000484Y-11845115D01*
X-4659003Y-11601910D01*
X-4664203Y-11599821D01*
X-5193881Y-11369362D01*
X-5307932Y-11319739D01*
X-5313004Y-11317359D01*
X-5939851Y-11001309D01*
X-5944781Y-10998645D01*
X-6552719Y-10647651D01*
X-6557490Y-10644714D01*
X-7144618Y-10259876D01*
X-7149216Y-10256673D01*
X-7713632Y-9839233D01*
X-7718041Y-9835775D01*
X-7871232Y-9708459D01*
X-8257946Y-9387063D01*
X-8262131Y-9383379D01*
X-8513042Y-9149623D01*
X-8775781Y-8904846D01*
X-8779771Y-8900912D01*
X-9129556Y-8535954D01*
X-9265530Y-8394082D01*
X-9269264Y-8389959D01*
X-9725587Y-7856437D01*
X-9729089Y-7852100D01*
X-10088178Y-7380681D01*
X-10154485Y-7293632D01*
X-10157752Y-7289080D01*
X-10550849Y-6707474D01*
X-10553854Y-6702745D01*
X-10913421Y-6099824D01*
X-10916154Y-6094933D01*
X-11077392Y-5786088D01*
X-11241050Y-5472609D01*
X-11243496Y-5467581D01*
X-11257700Y-5436159D01*
X-11532665Y-4827868D01*
X-11534821Y-4822712D01*
X-11659375Y-4499605D01*
X-11787324Y-4167691D01*
X-11789186Y-4162420D01*
X-11837601Y-4011967D01*
X-11985546Y-3552212D01*
X-12004228Y-3494157D01*
X-12005793Y-3488777D01*
X-12092795Y-3154642D01*
X-12182693Y-2809386D01*
X-12183942Y-2803960D01*
X-12322119Y-2115664D01*
X-12323060Y-2110174D01*
X-12422077Y-1415157D01*
X-12422708Y-1409602D01*
X-12482244Y-710099D01*
X-12482558Y-704551D01*
X-12502425Y-2790D01*
X-12502425Y2802D01*
X-12501660Y29808D01*
X-12482558Y704554D01*
X-12482244Y710098D01*
X-12422707Y1409619D01*
X-12422075Y1415170D01*
X-12323060Y2110181D01*
X-12322120Y2115659D01*
X-12183941Y2803969D01*
X-12182695Y2809379D01*
X-12005792Y3488783D01*
X-12004228Y3494158D01*
X-11960304Y3630656D01*
X-11789179Y4162444D01*
X-11787328Y4167681D01*
X-11534810Y4822740D01*
X-11532670Y4827857D01*
X-11243484Y5467608D01*
X-11241057Y5472596D01*
X-10916148Y6094946D01*
X-10913421Y6099825D01*
X-10871490Y6170134D01*
X-10553843Y6702765D01*
X-10550861Y6707457D01*
X-10157744Y7289093D01*
X-10154485Y7293633D01*
X-9729075Y7852118D01*
X-9725602Y7856421D01*
X-9269248Y8389978D01*
X-9265546Y8394066D01*
X-8779769Y8900916D01*
X-8775781Y8904847D01*
X-8262112Y9383398D01*
X-8257949Y9387062D01*
X-8055885Y9554996D01*
X-7999048Y9577647D01*
X-7939750Y9562565D01*
X-7900643Y9515510D01*
X-7896663Y9454454D01*
X-7896981Y9453235D01*
X-7915637Y9383611D01*
X-7935468Y9156929D01*
X-7935468Y9156922D01*
X-7915637Y8930241D01*
X-7915636Y8930234D01*
X-7915635Y8930233D01*
X-7892292Y8843115D01*
X-7856738Y8710425D01*
X-7760574Y8504202D01*
X-7760566Y8504188D01*
X-7630054Y8317795D01*
X-7630053Y8317793D01*
X-7630050Y8317790D01*
X-7630047Y8317786D01*
X-7469139Y8156878D01*
X-7469136Y8156876D01*
X-7469133Y8156873D01*
X-7469131Y8156872D01*
X-7437311Y8134592D01*
X-7282734Y8026357D01*
X-7282728Y8026354D01*
X-7282724Y8026352D01*
X-7175085Y7976159D01*
X-7112258Y7946862D01*
X-7076500Y7930188D01*
X-7076496Y7930186D01*
X-6856692Y7871290D01*
X-6856688Y7871290D01*
X-6856685Y7871289D01*
X-6630003Y7851457D01*
X-6630000Y7851457D01*
X-6629997Y7851457D01*
X-6403316Y7871289D01*
X-6403315Y7871290D01*
X-6403308Y7871290D01*
X-6183504Y7930186D01*
X-5977266Y8026357D01*
X-5790861Y8156878D01*
X-5629953Y8317786D01*
X-5499432Y8504191D01*
X-5403261Y8710429D01*
X-5344365Y8930233D01*
X-5340216Y8977650D01*
X-5324532Y9156922D01*
X-5324532Y9156929D01*
X-5344364Y9383610D01*
X-5344365Y9383613D01*
X-5344365Y9383617D01*
X-5403261Y9603421D01*
X-5499432Y9809659D01*
X-5542939Y9871794D01*
X-5629947Y9996056D01*
X-5629948Y9996058D01*
X-5629951Y9996061D01*
X-5629953Y9996064D01*
X-5790861Y10156972D01*
X-5790865Y10156975D01*
X-5790868Y10156978D01*
X-5790870Y10156979D01*
X-5977263Y10287491D01*
X-5977264Y10287492D01*
X-5977266Y10287493D01*
X-5977269Y10287495D01*
X-5977277Y10287499D01*
X-6183501Y10383663D01*
X-6183500Y10383663D01*
X-6256772Y10403296D01*
X-6403308Y10442560D01*
X-6403309Y10442561D01*
X-6403316Y10442562D01*
X-6526972Y10453380D01*
X-6583294Y10477287D01*
X-6614807Y10529733D01*
X-6609474Y10590685D01*
X-6572617Y10634800D01*
X-6557471Y10644728D01*
X-6552740Y10647641D01*
X-5944766Y10998655D01*
X-5939867Y11001302D01*
X-5533530Y11206173D01*
X2291450Y11206173D01*
X2291450Y11147680D01*
X2293492Y11133481D01*
X2294500Y11119388D01*
X2294500Y10734464D01*
X2293491Y10720373D01*
X2291450Y10706170D01*
X2291450Y10647679D01*
X2291874Y10644728D01*
X2293492Y10633477D01*
X2294500Y10619388D01*
X2294500Y10176924D01*
X2299651Y10131198D01*
X2339334Y10048798D01*
X2410837Y9991776D01*
X2500000Y9971425D01*
X3071893Y9971425D01*
X3104972Y9976182D01*
X3129785Y9979749D01*
X3267740Y10020256D01*
X3320945Y10044554D01*
X3441899Y10122286D01*
X3486105Y10160591D01*
X3580259Y10269252D01*
X3611881Y10318457D01*
X3671609Y10449242D01*
X3688088Y10505364D01*
X3700340Y10590575D01*
X3708550Y10647675D01*
X3708550Y10706173D01*
X3706508Y10720373D01*
X3705500Y10734464D01*
X3705500Y11119388D01*
X3706508Y11133481D01*
X3708550Y11147680D01*
X3708550Y11206176D01*
X3688088Y11348484D01*
X3688087Y11348488D01*
X3671610Y11404603D01*
X3671609Y11404608D01*
X3611881Y11535393D01*
X3611875Y11535403D01*
X3580264Y11584591D01*
X3580255Y11584604D01*
X3486113Y11693250D01*
X3486111Y11693252D01*
X3486105Y11693259D01*
X3441899Y11731564D01*
X3441896Y11731567D01*
X3441891Y11731570D01*
X3320954Y11809291D01*
X3320947Y11809295D01*
X3320945Y11809296D01*
X3267740Y11833594D01*
X3267735Y11833596D01*
X3267734Y11833596D01*
X3129786Y11874101D01*
X3129782Y11874102D01*
X3071893Y11882425D01*
X3071889Y11882425D01*
X2500000Y11882425D01*
X2499998Y11882425D01*
X2454272Y11877274D01*
X2371872Y11837591D01*
X2314850Y11766088D01*
X2294500Y11676925D01*
X2294500Y11234464D01*
X2293492Y11220372D01*
X2291450Y11206173D01*
X-5533530Y11206173D01*
X-5312976Y11317374D01*
X-5307961Y11319727D01*
X-4664169Y11599836D01*
X-4659037Y11601898D01*
X-4000460Y11845125D01*
X-3995201Y11846900D01*
X-3323914Y12052479D01*
X-3318546Y12053958D01*
X-2636713Y12221228D01*
X-2631271Y12222400D01*
X-1941076Y12350826D01*
X-1935605Y12351685D01*
X-1239217Y12440860D01*
X-1233691Y12441409D01*
X-533406Y12491042D01*
X-527838Y12491279D01*
X174139Y12501213D01*
X179690Y12501135D01*
G37*
G04 #@! TD.AperFunction*
G04 #@! TA.AperFunction,Conductor*
G36*
X4498611Y-9022393D02*
G01*
X4526029Y-9077092D01*
X4523775Y-9117555D01*
X4519500Y-9133509D01*
X4519500Y-9637596D01*
X4500593Y-9695787D01*
X4490504Y-9707600D01*
X4304525Y-9893579D01*
X4250008Y-9921356D01*
X4234521Y-9922575D01*
X4049264Y-9922575D01*
X3991073Y-9903668D01*
X3955109Y-9854168D01*
X3955109Y-9792982D01*
X3961352Y-9778050D01*
X4340239Y-9046405D01*
X4383785Y-9003430D01*
X4444279Y-8994257D01*
X4498611Y-9022393D01*
G37*
G04 #@! TD.AperFunction*
M02*
