G04 #@! TF.GenerationSoftware,KiCad,Pcbnew,8.0.5*
G04 #@! TF.CreationDate,2025-01-04T18:47:14-06:00*
G04 #@! TF.ProjectId,button_transmitter,62757474-6f6e-45f7-9472-616e736d6974,rev?*
G04 #@! TF.SameCoordinates,PX481dea0PY631a57d*
G04 #@! TF.FileFunction,Legend,Top*
G04 #@! TF.FilePolarity,Positive*
%FSLAX46Y46*%
G04 Gerber Fmt 4.6, Leading zero omitted, Abs format (unit mm)*
G04 Created by KiCad (PCBNEW 8.0.5) date 2025-01-04 18:47:14*
%MOMM*%
%LPD*%
G01*
G04 APERTURE LIST*
G04 Aperture macros list*
%AMRoundRect*
0 Rectangle with rounded corners*
0 $1 Rounding radius*
0 $2 $3 $4 $5 $6 $7 $8 $9 X,Y pos of 4 corners*
0 Add a 4 corners polygon primitive as box body*
4,1,4,$2,$3,$4,$5,$6,$7,$8,$9,$2,$3,0*
0 Add four circle primitives for the rounded corners*
1,1,$1+$1,$2,$3*
1,1,$1+$1,$4,$5*
1,1,$1+$1,$6,$7*
1,1,$1+$1,$8,$9*
0 Add four rect primitives between the rounded corners*
20,1,$1+$1,$2,$3,$4,$5,0*
20,1,$1+$1,$4,$5,$6,$7,0*
20,1,$1+$1,$6,$7,$8,$9,0*
20,1,$1+$1,$8,$9,$2,$3,0*%
%AMRotRect*
0 Rectangle, with rotation*
0 The origin of the aperture is its center*
0 $1 length*
0 $2 width*
0 $3 Rotation angle, in degrees counterclockwise*
0 Add horizontal line*
21,1,$1,$2,0,0,$3*%
%AMFreePoly0*
4,1,14,0.334644,0.085355,0.385355,0.034644,0.400000,-0.000711,0.400000,-0.050000,0.385355,-0.085355,0.350000,-0.100000,-0.350000,-0.100000,-0.385355,-0.085355,-0.400000,-0.050000,-0.400000,0.050000,-0.385355,0.085355,-0.350000,0.100000,0.299289,0.100000,0.334644,0.085355,0.334644,0.085355,$1*%
%AMFreePoly1*
4,1,14,0.385355,0.085355,0.400000,0.050000,0.400000,0.000711,0.385355,-0.034644,0.334644,-0.085355,0.299289,-0.100000,-0.350000,-0.100000,-0.385355,-0.085355,-0.400000,-0.050000,-0.400000,0.050000,-0.385355,0.085355,-0.350000,0.100000,0.350000,0.100000,0.385355,0.085355,0.385355,0.085355,$1*%
%AMFreePoly2*
4,1,14,0.085355,0.385355,0.100000,0.350000,0.100000,-0.350000,0.085355,-0.385355,0.050000,-0.400000,-0.050000,-0.400000,-0.085355,-0.385355,-0.100000,-0.350000,-0.100000,0.299289,-0.085355,0.334644,-0.034644,0.385355,0.000711,0.400000,0.050000,0.400000,0.085355,0.385355,0.085355,0.385355,$1*%
%AMFreePoly3*
4,1,14,0.034644,0.385355,0.085355,0.334644,0.100000,0.299289,0.100000,-0.350000,0.085355,-0.385355,0.050000,-0.400000,-0.050000,-0.400000,-0.085355,-0.385355,-0.100000,-0.350000,-0.100000,0.350000,-0.085355,0.385355,-0.050000,0.400000,-0.000711,0.400000,0.034644,0.385355,0.034644,0.385355,$1*%
%AMFreePoly4*
4,1,14,0.385355,0.085355,0.400000,0.050000,0.400000,-0.050000,0.385355,-0.085355,0.350000,-0.100000,-0.299289,-0.100000,-0.334644,-0.085355,-0.385355,-0.034644,-0.400000,0.000711,-0.400000,0.050000,-0.385355,0.085355,-0.350000,0.100000,0.350000,0.100000,0.385355,0.085355,0.385355,0.085355,$1*%
%AMFreePoly5*
4,1,14,0.385355,0.085355,0.400000,0.050000,0.400000,-0.050000,0.385355,-0.085355,0.350000,-0.100000,-0.350000,-0.100000,-0.385355,-0.085355,-0.400000,-0.050000,-0.400000,-0.000711,-0.385355,0.034644,-0.334644,0.085355,-0.299289,0.100000,0.350000,0.100000,0.385355,0.085355,0.385355,0.085355,$1*%
%AMFreePoly6*
4,1,14,0.085355,0.385355,0.100000,0.350000,0.100000,-0.299289,0.085355,-0.334644,0.034644,-0.385355,-0.000711,-0.400000,-0.050000,-0.400000,-0.085355,-0.385355,-0.100000,-0.350000,-0.100000,0.350000,-0.085355,0.385355,-0.050000,0.400000,0.050000,0.400000,0.085355,0.385355,0.085355,0.385355,$1*%
%AMFreePoly7*
4,1,14,0.085355,0.385355,0.100000,0.350000,0.100000,-0.350000,0.085355,-0.385355,0.050000,-0.400000,0.000711,-0.400000,-0.034644,-0.385355,-0.085355,-0.334644,-0.100000,-0.299289,-0.100000,0.350000,-0.085355,0.385355,-0.050000,0.400000,0.050000,0.400000,0.085355,0.385355,0.085355,0.385355,$1*%
%AMFreePoly8*
4,1,19,0.500000,-0.750000,0.000000,-0.750000,0.000000,-0.744911,-0.071157,-0.744911,-0.207708,-0.704816,-0.327430,-0.627875,-0.420627,-0.520320,-0.479746,-0.390866,-0.500000,-0.250000,-0.500000,0.250000,-0.479746,0.390866,-0.420627,0.520320,-0.327430,0.627875,-0.207708,0.704816,-0.071157,0.744911,0.000000,0.744911,0.000000,0.750000,0.500000,0.750000,0.500000,-0.750000,0.500000,-0.750000,
$1*%
G04 Aperture macros list end*
%ADD10C,0.000000*%
%ADD11C,0.100000*%
%ADD12C,0.120000*%
%ADD13R,0.635000X0.635000*%
%ADD14C,0.635000*%
%ADD15RoundRect,0.150000X0.035355X-0.247487X0.247487X-0.035355X-0.035355X0.247487X-0.247487X0.035355X0*%
%ADD16RoundRect,0.150000X-0.200000X0.150000X-0.200000X-0.150000X0.200000X-0.150000X0.200000X0.150000X0*%
%ADD17RoundRect,0.150000X0.200000X-0.150000X0.200000X0.150000X-0.200000X0.150000X-0.200000X-0.150000X0*%
%ADD18RoundRect,0.150000X0.150000X0.200000X-0.150000X0.200000X-0.150000X-0.200000X0.150000X-0.200000X0*%
%ADD19RoundRect,0.062500X-0.112500X0.062500X-0.112500X-0.062500X0.112500X-0.062500X0.112500X0.062500X0*%
%ADD20RoundRect,0.225000X-0.250000X0.225000X-0.250000X-0.225000X0.250000X-0.225000X0.250000X0.225000X0*%
%ADD21C,2.200000*%
%ADD22O,2.200000X2.200000*%
%ADD23FreePoly0,45.000000*%
%ADD24RoundRect,0.050000X-0.212132X-0.282843X0.282843X0.212132X0.212132X0.282843X-0.282843X-0.212132X0*%
%ADD25FreePoly1,45.000000*%
%ADD26FreePoly2,45.000000*%
%ADD27RoundRect,0.050000X0.212132X-0.282843X0.282843X-0.212132X-0.212132X0.282843X-0.282843X0.212132X0*%
%ADD28FreePoly3,45.000000*%
%ADD29FreePoly4,45.000000*%
%ADD30FreePoly5,45.000000*%
%ADD31FreePoly6,45.000000*%
%ADD32FreePoly7,45.000000*%
%ADD33RotRect,1.700000X1.700000X45.000000*%
%ADD34RoundRect,0.218750X0.218750X0.381250X-0.218750X0.381250X-0.218750X-0.381250X0.218750X-0.381250X0*%
%ADD35RoundRect,0.150000X-0.247487X-0.035355X-0.035355X-0.247487X0.247487X0.035355X0.035355X0.247487X0*%
%ADD36C,4.000000*%
%ADD37RoundRect,0.100000X0.100000X-0.225000X0.100000X0.225000X-0.100000X0.225000X-0.100000X-0.225000X0*%
%ADD38RoundRect,0.150000X0.247487X0.035355X0.035355X0.247487X-0.247487X-0.035355X-0.035355X-0.247487X0*%
%ADD39RotRect,1.400000X1.200000X315.000000*%
%ADD40RoundRect,0.150000X-0.035355X0.247487X-0.247487X0.035355X0.035355X-0.247487X0.247487X-0.035355X0*%
%ADD41RoundRect,0.150000X-0.150000X0.512500X-0.150000X-0.512500X0.150000X-0.512500X0.150000X0.512500X0*%
%ADD42RoundRect,0.062500X0.220971X0.309359X-0.309359X-0.220971X-0.220971X-0.309359X0.309359X0.220971X0*%
%ADD43RoundRect,0.062500X-0.220971X0.309359X-0.309359X0.220971X0.220971X-0.309359X0.309359X-0.220971X0*%
%ADD44RotRect,1.450000X1.450000X225.000000*%
%ADD45RoundRect,0.150000X-0.512500X-0.150000X0.512500X-0.150000X0.512500X0.150000X-0.512500X0.150000X0*%
%ADD46RoundRect,0.200000X-0.335876X-0.053033X-0.053033X-0.335876X0.335876X0.053033X0.053033X0.335876X0*%
%ADD47RoundRect,0.135000X-0.226274X-0.035355X-0.035355X-0.226274X0.226274X0.035355X0.035355X0.226274X0*%
%ADD48RoundRect,0.150000X-0.150000X-0.200000X0.150000X-0.200000X0.150000X0.200000X-0.150000X0.200000X0*%
%ADD49C,0.600000*%
%ADD50FreePoly8,0.000000*%
%ADD51FreePoly8,180.000000*%
G04 APERTURE END LIST*
D10*
G36*
X12074Y8790274D02*
G01*
X22133Y8783451D01*
X36593Y8773202D01*
X54544Y8760177D01*
X75076Y8745029D01*
X93756Y8731064D01*
X221072Y8639954D01*
X350902Y8556236D01*
X483293Y8479889D01*
X618292Y8410892D01*
X755947Y8349222D01*
X896306Y8294858D01*
X1039415Y8247780D01*
X1185324Y8207965D01*
X1317922Y8178552D01*
X1342491Y8173961D01*
X1366247Y8170033D01*
X1387396Y8167029D01*
X1404141Y8165207D01*
X1413173Y8164776D01*
X1425820Y8164404D01*
X1434643Y8163156D01*
X1437589Y8161505D01*
X1441211Y8158028D01*
X1450958Y8155188D01*
X1465146Y8153316D01*
X1482091Y8152742D01*
X1482176Y8152743D01*
X1492711Y8152385D01*
X1509240Y8151256D01*
X1529998Y8149501D01*
X1553220Y8147268D01*
X1570409Y8145453D01*
X1596866Y8142686D01*
X1624569Y8140024D01*
X1650957Y8137700D01*
X1673468Y8135942D01*
X1682721Y8135333D01*
X1700190Y8134101D01*
X1714367Y8132731D01*
X1723696Y8131399D01*
X1726660Y8130378D01*
X1730284Y8129510D01*
X1740062Y8129040D01*
X1754344Y8129014D01*
X1765725Y8129272D01*
X1782117Y8129494D01*
X1795124Y8129107D01*
X1803095Y8128194D01*
X1804797Y8127318D01*
X1808532Y8126463D01*
X1819054Y8125694D01*
X1835338Y8125044D01*
X1856357Y8124545D01*
X1881087Y8124230D01*
X1906362Y8124129D01*
X1933610Y8124237D01*
X1958096Y8124540D01*
X1978795Y8125010D01*
X1994680Y8125617D01*
X2004727Y8126330D01*
X2007932Y8127059D01*
X2011505Y8128522D01*
X2020884Y8129572D01*
X2034063Y8129988D01*
X2034501Y8129989D01*
X2071122Y8130941D01*
X2114013Y8133681D01*
X2161879Y8138039D01*
X2213426Y8143843D01*
X2267361Y8150921D01*
X2322388Y8159100D01*
X2377215Y8168211D01*
X2430548Y8178080D01*
X2481092Y8188537D01*
X2489061Y8190304D01*
X2624370Y8224518D01*
X2759291Y8266399D01*
X2893523Y8315803D01*
X3026767Y8372584D01*
X3158722Y8436598D01*
X3289089Y8507700D01*
X3417567Y8585744D01*
X3543856Y8670586D01*
X3659255Y8755599D01*
X3680115Y8770963D01*
X3695800Y8780918D01*
X3706637Y8785602D01*
X3712952Y8785155D01*
X3715070Y8779716D01*
X3715072Y8779450D01*
X3717793Y8775877D01*
X3725757Y8767094D01*
X3738670Y8753403D01*
X3756236Y8735104D01*
X3778160Y8712497D01*
X3804147Y8685885D01*
X3833901Y8655567D01*
X3867127Y8621844D01*
X3903530Y8585017D01*
X3942814Y8545387D01*
X3984684Y8503254D01*
X4028845Y8458919D01*
X4075001Y8412683D01*
X4088713Y8398966D01*
X4148279Y8339348D01*
X4202357Y8285119D01*
X4251031Y8236193D01*
X4294385Y8192483D01*
X4332503Y8153903D01*
X4365471Y8120368D01*
X4393373Y8091789D01*
X4416293Y8068081D01*
X4434316Y8049158D01*
X4447527Y8034934D01*
X4456009Y8025321D01*
X4459848Y8020233D01*
X4460094Y8019422D01*
X4455666Y8014671D01*
X4446288Y8007985D01*
X4434625Y8001164D01*
X4425647Y7995646D01*
X4414900Y7987558D01*
X4401727Y7976303D01*
X4385467Y7961287D01*
X4365462Y7941915D01*
X4341054Y7917590D01*
X4331565Y7908014D01*
X4297173Y7872989D01*
X4267355Y7842050D01*
X4240981Y7813943D01*
X4216920Y7787415D01*
X4194043Y7761212D01*
X4171219Y7734080D01*
X4147319Y7704766D01*
X4139015Y7694415D01*
X4077182Y7613247D01*
X4022193Y7532689D01*
X3973320Y7451413D01*
X3929839Y7368088D01*
X3891024Y7281385D01*
X3856148Y7189975D01*
X3843658Y7153366D01*
X3819671Y7077217D01*
X3799819Y7005713D01*
X3783793Y6937074D01*
X3771281Y6869520D01*
X3761974Y6801272D01*
X3755559Y6730550D01*
X3751728Y6655574D01*
X3750788Y6621102D01*
X3750264Y6590998D01*
X3749993Y6563747D01*
X3749969Y6540267D01*
X3750185Y6521474D01*
X3750634Y6508284D01*
X3751309Y6501615D01*
X3751648Y6500978D01*
X3753061Y6497411D01*
X3753677Y6487991D01*
X3753386Y6474651D01*
X3753271Y6472660D01*
X3753034Y6455971D01*
X3753862Y6435004D01*
X3755587Y6413196D01*
X3756698Y6403320D01*
X3773489Y6300631D01*
X3797876Y6197788D01*
X3829662Y6095195D01*
X3868649Y5993256D01*
X3914641Y5892375D01*
X3967441Y5792956D01*
X4026850Y5695404D01*
X4092673Y5600123D01*
X4164711Y5507516D01*
X4231241Y5430590D01*
X4255697Y5403837D01*
X4278466Y5379312D01*
X4299000Y5357582D01*
X4316748Y5339211D01*
X4331162Y5324767D01*
X4341692Y5314814D01*
X4347789Y5309919D01*
X4348828Y5309503D01*
X4352744Y5306864D01*
X4361026Y5299609D01*
X4372600Y5288731D01*
X4386393Y5275223D01*
X4392202Y5269395D01*
X4407806Y5253916D01*
X4422823Y5239516D01*
X4435764Y5227591D01*
X4445143Y5219534D01*
X4446783Y5218268D01*
X4455323Y5210757D01*
X4460075Y5204235D01*
X4460456Y5202033D01*
X4457601Y5198270D01*
X4449850Y5189416D01*
X4437715Y5176023D01*
X4421706Y5158640D01*
X4402333Y5137819D01*
X4380108Y5114109D01*
X4355540Y5088061D01*
X4329141Y5060226D01*
X4320359Y5050999D01*
X4291130Y5020288D01*
X4261625Y4989239D01*
X4232661Y4958713D01*
X4205052Y4929573D01*
X4179614Y4902679D01*
X4157163Y4878892D01*
X4138514Y4859075D01*
X4125034Y4844680D01*
X4108473Y4826959D01*
X4087675Y4804762D01*
X4063770Y4779294D01*
X4037888Y4751756D01*
X4011161Y4723351D01*
X3984717Y4695283D01*
X3968994Y4678612D01*
X3942630Y4650613D01*
X3914720Y4620868D01*
X3886516Y4590716D01*
X3859270Y4561499D01*
X3834234Y4534559D01*
X3812659Y4511238D01*
X3803069Y4500817D01*
X3784429Y4480611D01*
X3767124Y4462030D01*
X3751980Y4445950D01*
X3739824Y4433243D01*
X3731482Y4424783D01*
X3728229Y4421753D01*
X3716162Y4416488D01*
X3700359Y4414917D01*
X3692422Y4415221D01*
X3685191Y4416588D01*
X3677300Y4419698D01*
X3667385Y4425229D01*
X3654080Y4433862D01*
X3636020Y4446276D01*
X3632611Y4448649D01*
X3540758Y4511553D01*
X3453347Y4569069D01*
X3369602Y4621619D01*
X3288742Y4669628D01*
X3209989Y4713517D01*
X3132563Y4753710D01*
X3055686Y4790629D01*
X2978578Y4824698D01*
X2900461Y4856340D01*
X2839696Y4879111D01*
X2700639Y4925537D01*
X2560192Y4964504D01*
X2418170Y4996034D01*
X2274389Y5020150D01*
X2128666Y5036874D01*
X1980815Y5046228D01*
X1830654Y5048234D01*
X1677998Y5042916D01*
X1558690Y5033847D01*
X1414653Y5016477D01*
X1272027Y4991449D01*
X1130930Y4958809D01*
X991479Y4918604D01*
X853793Y4870880D01*
X717988Y4815684D01*
X584182Y4753064D01*
X452493Y4683065D01*
X323039Y4605734D01*
X195937Y4521118D01*
X110697Y4459281D01*
X82760Y4438708D01*
X59827Y4422864D01*
X40986Y4411372D01*
X25328Y4403851D01*
X11945Y4399924D01*
X-74Y4399212D01*
X-11637Y4401336D01*
X-20634Y4404595D01*
X-27531Y4408462D01*
X-39546Y4416204D01*
X-55526Y4427035D01*
X-74320Y4440172D01*
X-94773Y4454828D01*
X-99955Y4458597D01*
X-223183Y4544957D01*
X-345905Y4623803D01*
X-468570Y4695377D01*
X-591629Y4759917D01*
X-715534Y4817665D01*
X-840733Y4868862D01*
X-928183Y4900518D01*
X-1050988Y4939059D01*
X-1178438Y4972125D01*
X-1309478Y4999587D01*
X-1443056Y5021316D01*
X-1578117Y5037182D01*
X-1713608Y5047057D01*
X-1848476Y5050811D01*
X-1981667Y5048315D01*
X-2082661Y5042034D01*
X-2228681Y5026295D01*
X-2372431Y5003185D01*
X-2514129Y4972641D01*
X-2653991Y4934603D01*
X-2792235Y4889010D01*
X-2929077Y4835799D01*
X-3064735Y4774909D01*
X-3114580Y4750468D01*
X-3141785Y4736756D01*
X-3167181Y4723782D01*
X-3191315Y4711216D01*
X-3214735Y4698727D01*
X-3237990Y4685985D01*
X-3261629Y4672661D01*
X-3286198Y4658423D01*
X-3312248Y4642941D01*
X-3340325Y4625884D01*
X-3370977Y4606924D01*
X-3404754Y4585728D01*
X-3442204Y4561967D01*
X-3483874Y4535311D01*
X-3530312Y4505429D01*
X-3582068Y4471991D01*
X-3639689Y4434667D01*
X-3652894Y4426104D01*
X-3669129Y4415878D01*
X-3683402Y4407450D01*
X-3694242Y4401648D01*
X-3700179Y4399304D01*
X-3700395Y4399291D01*
X-3704349Y4402037D01*
X-3713049Y4409876D01*
X-3725889Y4422205D01*
X-3742264Y4438424D01*
X-3761570Y4457930D01*
X-3783203Y4480122D01*
X-3806556Y4504398D01*
X-3815311Y4513577D01*
X-3848822Y4548806D01*
X-3879105Y4580678D01*
X-3906820Y4609899D01*
X-3932624Y4637176D01*
X-3957179Y4663214D01*
X-3981142Y4688718D01*
X-4005174Y4714395D01*
X-4029934Y4740949D01*
X-4056082Y4769088D01*
X-4084276Y4799516D01*
X-4115176Y4832940D01*
X-4149442Y4870064D01*
X-4187732Y4911595D01*
X-4226635Y4953819D01*
X-4239724Y4967975D01*
X-4257115Y4986702D01*
X-4277759Y5008876D01*
X-4300610Y5033374D01*
X-4324620Y5059073D01*
X-4348741Y5084848D01*
X-4358666Y5095441D01*
X-4380161Y5118525D01*
X-4399840Y5139960D01*
X-4417085Y5159045D01*
X-4431275Y5175084D01*
X-4441792Y5187377D01*
X-4448015Y5195228D01*
X-4449492Y5197783D01*
X-4446689Y5202120D01*
X-4438955Y5210517D01*
X-4427302Y5221964D01*
X-4412742Y5235450D01*
X-4403591Y5243609D01*
X-4376558Y5268039D01*
X-4346355Y5296450D01*
X-4314390Y5327432D01*
X-4282069Y5359580D01*
X-4250800Y5391484D01*
X-4221990Y5421737D01*
X-4197046Y5448931D01*
X-4187365Y5459903D01*
X-4110640Y5553513D01*
X-4041467Y5649038D01*
X-4024040Y5676605D01*
X-2277327Y5676605D01*
X-2151552Y5677636D01*
X-2025777Y5678666D01*
X-1912358Y5984104D01*
X-1895017Y6030759D01*
X-1878435Y6075291D01*
X-1862816Y6117157D01*
X-1848362Y6155816D01*
X-1835278Y6190724D01*
X-1823767Y6221342D01*
X-1814032Y6247126D01*
X-1806278Y6267535D01*
X-1800708Y6282027D01*
X-1797525Y6290060D01*
X-1796845Y6291555D01*
X-1795255Y6288271D01*
X-1791264Y6278153D01*
X-1785066Y6261735D01*
X-1776855Y6239551D01*
X-1766826Y6212136D01*
X-1755172Y6180023D01*
X-1742089Y6143749D01*
X-1727769Y6103847D01*
X-1712408Y6060852D01*
X-1696200Y6015298D01*
X-1685510Y5985154D01*
X-1576269Y5676741D01*
X-1460051Y5676727D01*
X-1430820Y5676803D01*
X-1404285Y5677027D01*
X-1381403Y5677377D01*
X-1363135Y5677834D01*
X-1350438Y5678376D01*
X-1344271Y5678984D01*
X-1343833Y5679200D01*
X-1344978Y5683165D01*
X-1348324Y5694142D01*
X-1353731Y5711688D01*
X-1361062Y5735358D01*
X-1370178Y5764711D01*
X-1380941Y5799302D01*
X-1393213Y5838688D01*
X-1406856Y5882427D01*
X-1421732Y5930074D01*
X-1437702Y5981186D01*
X-1454629Y6035321D01*
X-1472374Y6092034D01*
X-1490800Y6150884D01*
X-1493867Y6160675D01*
X-1512485Y6220121D01*
X-1530510Y6277690D01*
X-1547799Y6332920D01*
X-1564208Y6385353D01*
X-1579593Y6434528D01*
X-1593809Y6479984D01*
X-1606714Y6521262D01*
X-1618163Y6557901D01*
X-1622347Y6571299D01*
X-1624694Y6578816D01*
X-1068425Y6578816D01*
X-1068425Y6571299D01*
X-1068409Y6488780D01*
X-1068359Y6413754D01*
X-1068273Y6345899D01*
X-1068148Y6284896D01*
X-1067981Y6230425D01*
X-1067769Y6182164D01*
X-1067511Y6139793D01*
X-1067203Y6102993D01*
X-1066842Y6071442D01*
X-1066427Y6044820D01*
X-1065954Y6022806D01*
X-1065421Y6005081D01*
X-1064825Y5991324D01*
X-1064163Y5981214D01*
X-1063505Y5974940D01*
X-1054440Y5924330D01*
X-1041840Y5877550D01*
X-1026148Y5836161D01*
X-1021186Y5825600D01*
X-1003096Y5788930D01*
X-1023064Y5735373D01*
X-1030126Y5716269D01*
X-1036090Y5699816D01*
X-1040474Y5687375D01*
X-1042792Y5680307D01*
X-1043033Y5679265D01*
X-1039317Y5678546D01*
X-1028928Y5677955D01*
X-1013007Y5677489D01*
X-992693Y5677147D01*
X-969126Y5676926D01*
X-943444Y5676825D01*
X-916789Y5676840D01*
X-890299Y5676971D01*
X-865113Y5677215D01*
X-842373Y5677570D01*
X-823216Y5678035D01*
X-808783Y5678606D01*
X-800214Y5679283D01*
X-798407Y5679703D01*
X-796322Y5683744D01*
X-791895Y5694211D01*
X-785467Y5710194D01*
X-777382Y5730783D01*
X-767983Y5755065D01*
X-757612Y5782132D01*
X-746611Y5811071D01*
X-735324Y5840973D01*
X-724093Y5870926D01*
X-713260Y5900021D01*
X-703169Y5927346D01*
X-694162Y5951990D01*
X-686581Y5973044D01*
X-680769Y5989596D01*
X-677070Y6000735D01*
X-675823Y6005501D01*
X-674480Y6009646D01*
X-670603Y6020496D01*
X-664417Y6037449D01*
X-656150Y6059902D01*
X-646027Y6087252D01*
X-634274Y6118894D01*
X-621119Y6154227D01*
X-606786Y6192647D01*
X-591504Y6233552D01*
X-575497Y6276337D01*
X-558992Y6320400D01*
X-542216Y6365138D01*
X-525394Y6409947D01*
X-508754Y6454225D01*
X-492521Y6497369D01*
X-476921Y6538775D01*
X-462182Y6577840D01*
X-448529Y6613961D01*
X-436188Y6646535D01*
X-425387Y6674959D01*
X-416350Y6698630D01*
X-409305Y6716945D01*
X-404478Y6729300D01*
X-402095Y6735093D01*
X-401955Y6735372D01*
X-401454Y6732473D01*
X-400998Y6722299D01*
X-400591Y6705389D01*
X-400237Y6682282D01*
X-399940Y6653514D01*
X-399703Y6619624D01*
X-399532Y6581152D01*
X-399429Y6538634D01*
X-399400Y6492610D01*
X-399447Y6443617D01*
X-399520Y6410854D01*
X-400415Y6080477D01*
X-412194Y6057447D01*
X-421949Y6041236D01*
X-433032Y6029643D01*
X-442979Y6022667D01*
X-451871Y6017520D01*
X-460085Y6014020D01*
X-469591Y6011747D01*
X-482354Y6010279D01*
X-500344Y6009193D01*
X-507376Y6008864D01*
X-552768Y6006811D01*
X-601701Y5875944D01*
X-613656Y5843947D01*
X-625289Y5812760D01*
X-636181Y5783517D01*
X-645910Y5757350D01*
X-654054Y5735393D01*
X-660192Y5718778D01*
X-663203Y5710567D01*
X-675772Y5676058D01*
X-530281Y5677657D01*
X-492165Y5678103D01*
X-460953Y5678558D01*
X-435735Y5679072D01*
X-415601Y5679697D01*
X-399641Y5680485D01*
X-386946Y5681487D01*
X-376607Y5682755D01*
X-367714Y5684341D01*
X-359358Y5686296D01*
X-354317Y5687641D01*
X-316241Y5700738D01*
X-283020Y5718209D01*
X-252368Y5741388D01*
X-236252Y5756575D01*
X-210572Y5785991D01*
X-189350Y5818554D01*
X-172141Y5855257D01*
X-158497Y5897095D01*
X-147973Y5945065D01*
X-145713Y5958536D01*
X-144748Y5965007D01*
X-143875Y5971913D01*
X-143090Y5979654D01*
X-142387Y5988633D01*
X-141763Y5999251D01*
X-141213Y6011910D01*
X-140731Y6027011D01*
X-140314Y6044956D01*
X-139957Y6066146D01*
X-139656Y6090983D01*
X-139405Y6119869D01*
X-139201Y6153205D01*
X-139038Y6191392D01*
X-139024Y6196376D01*
X179699Y6196376D01*
X179776Y6093781D01*
X180200Y6046756D01*
X181518Y6006369D01*
X183919Y5971477D01*
X187588Y5940938D01*
X192712Y5913608D01*
X199478Y5888345D01*
X208073Y5864007D01*
X218683Y5839449D01*
X222698Y5831019D01*
X245356Y5791197D01*
X271724Y5757854D01*
X302532Y5730243D01*
X338511Y5707621D01*
X348844Y5702445D01*
X363797Y5695532D01*
X377951Y5689656D01*
X392074Y5684737D01*
X406931Y5680696D01*
X423290Y5677454D01*
X441919Y5674929D01*
X463583Y5673043D01*
X489049Y5671716D01*
X519086Y5670867D01*
X554459Y5670417D01*
X595936Y5670286D01*
X644284Y5670394D01*
X656290Y5670444D01*
X698892Y5670644D01*
X734463Y5670862D01*
X763786Y5671133D01*
X787643Y5671490D01*
X806816Y5671968D01*
X822088Y5672603D01*
X834242Y5673427D01*
X844058Y5674476D01*
X852320Y5675785D01*
X859811Y5677388D01*
X867312Y5679318D01*
X869194Y5679833D01*
X914411Y5695751D01*
X954737Y5717389D01*
X990360Y5744939D01*
X1021470Y5778593D01*
X1048254Y5818547D01*
X1070902Y5864991D01*
X1083880Y5899912D01*
X1093104Y5929408D01*
X1100425Y5957233D01*
X1106035Y5984862D01*
X1110126Y6013775D01*
X1112888Y6045448D01*
X1114515Y6081358D01*
X1115197Y6122984D01*
X1115249Y6141585D01*
X1115137Y6175798D01*
X1114784Y6203320D01*
X1114135Y6225269D01*
X1113133Y6242766D01*
X1111724Y6256929D01*
X1109852Y6268879D01*
X1108680Y6274577D01*
X1094653Y6324529D01*
X1075110Y6372213D01*
X1049753Y6417980D01*
X1018283Y6462184D01*
X980400Y6505174D01*
X935806Y6547303D01*
X884201Y6588922D01*
X825286Y6630383D01*
X783251Y6657217D01*
X719798Y6697647D01*
X663696Y6736212D01*
X614755Y6773088D01*
X572784Y6808451D01*
X537592Y6842477D01*
X508989Y6875342D01*
X486784Y6907220D01*
X470787Y6938290D01*
X466445Y6949498D01*
X462169Y6963024D01*
X459411Y6976082D01*
X457863Y6991051D01*
X457220Y7010312D01*
X457142Y7021625D01*
X457059Y7067629D01*
X474277Y7084847D01*
X482536Y7092662D01*
X490681Y7098964D01*
X499639Y7103914D01*
X510339Y7107674D01*
X523708Y7110406D01*
X540674Y7112270D01*
X562167Y7113429D01*
X589113Y7114045D01*
X622442Y7114278D01*
X643452Y7114301D01*
X678505Y7114244D01*
X706705Y7113967D01*
X729012Y7113317D01*
X746387Y7112139D01*
X759790Y7110278D01*
X770181Y7107580D01*
X778519Y7103890D01*
X785766Y7099054D01*
X792881Y7092916D01*
X796296Y7089688D01*
X812780Y7069196D01*
X825670Y7042612D01*
X835071Y7009631D01*
X841086Y6969950D01*
X842362Y6955112D01*
X844955Y6918977D01*
X981106Y6918977D01*
X1117256Y6918977D01*
X1117256Y7019068D01*
X1116911Y7063630D01*
X1115789Y7101635D01*
X1113763Y7134311D01*
X1110707Y7162886D01*
X1106494Y7188588D01*
X1100996Y7212647D01*
X1095115Y7233050D01*
X1076535Y7281615D01*
X1066441Y7299916D01*
X1402430Y7299916D01*
X1402430Y7133916D01*
X1573339Y7132898D01*
X1744248Y7131881D01*
X1745235Y6404297D01*
X1746222Y5676713D01*
X1873162Y5676713D01*
X2000103Y5676713D01*
X2675946Y5676713D01*
X3144725Y5676713D01*
X3613504Y5676713D01*
X3613504Y5842739D01*
X3613504Y6008765D01*
X3275592Y6008765D01*
X2937681Y6008765D01*
X2937681Y6735372D01*
X2937681Y7461979D01*
X2809409Y7461979D01*
X2681137Y7461979D01*
X2678544Y7177782D01*
X2678237Y7139836D01*
X2677940Y7094802D01*
X2677656Y7043404D01*
X2677386Y6986367D01*
X2677133Y6924416D01*
X2676898Y6858275D01*
X2676685Y6788670D01*
X2676494Y6716324D01*
X2676328Y6641962D01*
X2676190Y6566310D01*
X2676081Y6490091D01*
X2676003Y6414031D01*
X2675959Y6338854D01*
X2675949Y6285149D01*
X2675946Y5676713D01*
X2000103Y5676713D01*
X2001089Y6404297D01*
X2002076Y7131881D01*
X2173028Y7132898D01*
X2343979Y7133916D01*
X2342960Y7298924D01*
X2341941Y7463932D01*
X1872186Y7464925D01*
X1402430Y7465917D01*
X1402430Y7299916D01*
X1066441Y7299916D01*
X1053120Y7324066D01*
X1024723Y7360533D01*
X991204Y7391148D01*
X952417Y7416043D01*
X908219Y7435349D01*
X859428Y7448993D01*
X850672Y7450717D01*
X841411Y7452144D01*
X830839Y7453299D01*
X818145Y7454211D01*
X802521Y7454908D01*
X783157Y7455416D01*
X759247Y7455764D01*
X729979Y7455978D01*
X694546Y7456088D01*
X652139Y7456119D01*
X650431Y7456119D01*
X606646Y7456095D01*
X569820Y7455978D01*
X539100Y7455708D01*
X513632Y7455219D01*
X492563Y7454449D01*
X475039Y7453335D01*
X460205Y7451812D01*
X447210Y7449820D01*
X435199Y7447293D01*
X423318Y7444168D01*
X410714Y7440383D01*
X402369Y7437743D01*
X357859Y7419962D01*
X318504Y7396630D01*
X284209Y7367624D01*
X254881Y7332819D01*
X230423Y7292094D01*
X210742Y7245322D01*
X195743Y7192382D01*
X189223Y7159226D01*
X186894Y7140968D01*
X184861Y7116434D01*
X183156Y7087155D01*
X181812Y7054666D01*
X180862Y7020497D01*
X180338Y6986182D01*
X180272Y6953252D01*
X180696Y6923240D01*
X181643Y6897679D01*
X183146Y6878100D01*
X183255Y6877145D01*
X192954Y6822516D01*
X209084Y6770873D01*
X231960Y6721581D01*
X261893Y6674008D01*
X299199Y6627521D01*
X316043Y6609311D01*
X345607Y6579908D01*
X376188Y6552508D01*
X409065Y6526132D01*
X445520Y6499801D01*
X486835Y6472537D01*
X529330Y6446331D01*
X584712Y6412065D01*
X635594Y6378577D01*
X681608Y6346164D01*
X722383Y6315128D01*
X757549Y6285765D01*
X786739Y6258376D01*
X809582Y6233260D01*
X825708Y6210715D01*
X829886Y6203110D01*
X833653Y6195134D01*
X836333Y6187740D01*
X838106Y6179410D01*
X839156Y6168622D01*
X839665Y6153856D01*
X839814Y6133591D01*
X839810Y6120309D01*
X839259Y6089189D01*
X837392Y6064774D01*
X833740Y6046004D01*
X827837Y6031816D01*
X819216Y6021151D01*
X807410Y6012946D01*
X791952Y6006141D01*
X789111Y6005112D01*
X780676Y6003497D01*
X765694Y6002026D01*
X745430Y6000723D01*
X721149Y5999608D01*
X694116Y5998706D01*
X665596Y5998038D01*
X636853Y5997626D01*
X609154Y5997494D01*
X583762Y5997663D01*
X561943Y5998155D01*
X544962Y5998994D01*
X534084Y6000201D01*
X532437Y6000571D01*
X511133Y6010367D01*
X493259Y6027102D01*
X478868Y6050668D01*
X468014Y6080958D01*
X460751Y6117865D01*
X457633Y6150809D01*
X455106Y6194323D01*
X317402Y6195350D01*
X179699Y6196376D01*
X-139024Y6196376D01*
X-138913Y6234833D01*
X-138820Y6283928D01*
X-138755Y6339080D01*
X-138713Y6400689D01*
X-138690Y6469158D01*
X-138681Y6544888D01*
X-138680Y6575206D01*
X-138685Y6653666D01*
X-138701Y6724710D01*
X-138734Y6788735D01*
X-138787Y6846135D01*
X-138867Y6897309D01*
X-138976Y6942653D01*
X-139120Y6982562D01*
X-139304Y7017435D01*
X-139531Y7047666D01*
X-139807Y7073654D01*
X-140136Y7095793D01*
X-140522Y7114481D01*
X-140971Y7130115D01*
X-141487Y7143090D01*
X-142073Y7153803D01*
X-142736Y7162652D01*
X-143479Y7170031D01*
X-144308Y7176339D01*
X-145225Y7181971D01*
X-145712Y7184618D01*
X-152335Y7217039D01*
X-159146Y7244559D01*
X-166921Y7270068D01*
X-174367Y7290990D01*
X-184226Y7317278D01*
X-156570Y7390836D01*
X-148159Y7413335D01*
X-140778Y7433325D01*
X-134842Y7449660D01*
X-130766Y7461197D01*
X-129247Y7465917D01*
X-128965Y7466793D01*
X-128914Y7467093D01*
X-132664Y7467759D01*
X-143285Y7468366D01*
X-159838Y7468892D01*
X-181380Y7469316D01*
X-206971Y7469617D01*
X-235671Y7469774D01*
X-249591Y7469792D01*
X-370268Y7469792D01*
X-376104Y7455143D01*
X-378494Y7448908D01*
X-383354Y7436037D01*
X-390426Y7417212D01*
X-399455Y7393120D01*
X-410184Y7364445D01*
X-422357Y7331872D01*
X-435718Y7296085D01*
X-450011Y7257770D01*
X-464899Y7217823D01*
X-480802Y7175165D01*
X-496770Y7132382D01*
X-512441Y7090441D01*
X-527451Y7050312D01*
X-541439Y7012963D01*
X-554041Y6979362D01*
X-564895Y6950477D01*
X-573639Y6927277D01*
X-578260Y6915070D01*
X-585001Y6897295D01*
X-594174Y6873084D01*
X-605449Y6843309D01*
X-618495Y6808842D01*
X-632982Y6770557D01*
X-648580Y6729325D01*
X-664959Y6686018D01*
X-681790Y6641510D01*
X-698741Y6596673D01*
X-703164Y6584972D01*
X-719215Y6542510D01*
X-734561Y6501924D01*
X-748959Y6463847D01*
X-762171Y6428916D01*
X-773956Y6397766D01*
X-784073Y6371033D01*
X-792282Y6349351D01*
X-798343Y6333356D01*
X-802015Y6323683D01*
X-802931Y6321284D01*
X-803820Y6319886D01*
X-804601Y6320875D01*
X-805280Y6324661D01*
X-805862Y6331657D01*
X-806351Y6342274D01*
X-806754Y6356925D01*
X-807075Y6376020D01*
X-807319Y6399971D01*
X-807492Y6429191D01*
X-807598Y6464090D01*
X-807644Y6505081D01*
X-807634Y6552576D01*
X-807573Y6606985D01*
X-807466Y6668722D01*
X-807442Y6680681D01*
X-806690Y7053751D01*
X-797691Y7073283D01*
X-783644Y7096973D01*
X-765689Y7114668D01*
X-751999Y7123245D01*
X-744680Y7126552D01*
X-736199Y7128992D01*
X-725073Y7130769D01*
X-709820Y7132085D01*
X-688958Y7133146D01*
X-676343Y7133630D01*
X-616312Y7135787D01*
X-558381Y7291240D01*
X-545983Y7324535D01*
X-534376Y7355757D01*
X-523858Y7384102D01*
X-514726Y7408767D01*
X-507277Y7428947D01*
X-501808Y7443841D01*
X-498617Y7452643D01*
X-497951Y7454564D01*
X-497489Y7456458D01*
X-497866Y7458014D01*
X-499759Y7459260D01*
X-503841Y7460222D01*
X-510787Y7460925D01*
X-521274Y7461398D01*
X-535975Y7461666D01*
X-555565Y7461756D01*
X-580720Y7461694D01*
X-612114Y7461506D01*
X-650423Y7461220D01*
X-664744Y7461108D01*
X-705620Y7460776D01*
X-739484Y7460452D01*
X-767134Y7460094D01*
X-789373Y7459659D01*
X-806998Y7459105D01*
X-820812Y7458388D01*
X-831613Y7457468D01*
X-840202Y7456300D01*
X-847380Y7454844D01*
X-853945Y7453055D01*
X-860698Y7450892D01*
X-861381Y7450665D01*
X-902821Y7433876D01*
X-939026Y7412685D01*
X-970278Y7386702D01*
X-996860Y7355541D01*
X-1019056Y7318811D01*
X-1037149Y7276124D01*
X-1051421Y7227092D01*
X-1061445Y7175886D01*
X-1062413Y7169382D01*
X-1063287Y7162410D01*
X-1064073Y7154563D01*
X-1064775Y7145435D01*
X-1065398Y7134620D01*
X-1065946Y7121714D01*
X-1066425Y7106308D01*
X-1066838Y7087999D01*
X-1067191Y7066379D01*
X-1067488Y7041043D01*
X-1067734Y7011585D01*
X-1067933Y6977600D01*
X-1068091Y6938680D01*
X-1068212Y6894420D01*
X-1068301Y6844414D01*
X-1068361Y6788257D01*
X-1068399Y6725542D01*
X-1068419Y6655864D01*
X-1068425Y6578816D01*
X-1624694Y6578816D01*
X-1628012Y6589442D01*
X-1636118Y6615423D01*
X-1642337Y6635386D01*
X-1646524Y6648869D01*
X-1648537Y6655413D01*
X-1648626Y6655713D01*
X-1649334Y6658330D01*
X-1649788Y6661123D01*
X-1649842Y6664516D01*
X-1649348Y6668930D01*
X-1648159Y6674786D01*
X-1646128Y6682507D01*
X-1643106Y6692514D01*
X-1638949Y6705230D01*
X-1633507Y6721076D01*
X-1626633Y6740474D01*
X-1618182Y6763846D01*
X-1608004Y6791614D01*
X-1595954Y6824200D01*
X-1581883Y6862025D01*
X-1565645Y6905512D01*
X-1547093Y6955082D01*
X-1526078Y7011157D01*
X-1504452Y7068834D01*
X-1484482Y7122105D01*
X-1465298Y7173313D01*
X-1447078Y7221982D01*
X-1429998Y7267642D01*
X-1414234Y7309818D01*
X-1399963Y7348037D01*
X-1387360Y7381828D01*
X-1376604Y7410716D01*
X-1367870Y7434229D01*
X-1361334Y7451893D01*
X-1357174Y7463236D01*
X-1355566Y7467785D01*
X-1355552Y7467848D01*
X-1359304Y7468322D01*
X-1369941Y7468754D01*
X-1386535Y7469129D01*
X-1408160Y7469434D01*
X-1433886Y7469654D01*
X-1462786Y7469774D01*
X-1479701Y7469792D01*
X-1603850Y7469792D01*
X-1689675Y7238883D01*
X-1704786Y7198306D01*
X-1719171Y7159828D01*
X-1732588Y7124089D01*
X-1744795Y7091724D01*
X-1755551Y7063372D01*
X-1764612Y7039671D01*
X-1771738Y7021257D01*
X-1776685Y7008769D01*
X-1779213Y7002843D01*
X-1779406Y7002502D01*
X-1781121Y7003279D01*
X-1784380Y7008626D01*
X-1789333Y7018901D01*
X-1796129Y7034464D01*
X-1804919Y7055674D01*
X-1815851Y7082887D01*
X-1829074Y7116463D01*
X-1844739Y7156761D01*
X-1857354Y7189463D01*
X-1872166Y7227947D01*
X-1886660Y7265586D01*
X-1900493Y7301487D01*
X-1913321Y7334758D01*
X-1924799Y7364507D01*
X-1934582Y7389839D01*
X-1942327Y7409865D01*
X-1947690Y7423690D01*
X-1948529Y7425844D01*
X-1965662Y7469792D01*
X-2082345Y7469792D01*
X-2199028Y7469792D01*
X-2087437Y7138717D01*
X-2070150Y7087419D01*
X-2052999Y7036507D01*
X-2036228Y6986708D01*
X-2020082Y6938748D01*
X-2004805Y6893354D01*
X-1990641Y6851251D01*
X-1977836Y6813167D01*
X-1966633Y6779828D01*
X-1957277Y6751960D01*
X-1950012Y6730290D01*
X-1946485Y6719746D01*
X-1917123Y6631850D01*
X-2086019Y6184557D01*
X-2107615Y6127358D01*
X-2128593Y6071787D01*
X-2148769Y6018329D01*
X-2167962Y5967466D01*
X-2185989Y5919682D01*
X-2202669Y5875459D01*
X-2217819Y5835280D01*
X-2231257Y5799629D01*
X-2242801Y5768989D01*
X-2252268Y5743843D01*
X-2259477Y5724674D01*
X-2264246Y5711964D01*
X-2266121Y5706934D01*
X-2277327Y5676605D01*
X-4024040Y5676605D01*
X-3979829Y5746541D01*
X-3925710Y5846080D01*
X-3879092Y5947718D01*
X-3839959Y6051514D01*
X-3808294Y6157531D01*
X-3784079Y6265827D01*
X-3767298Y6376465D01*
X-3757934Y6489504D01*
X-3756610Y6567393D01*
X-3383021Y6567393D01*
X-3383021Y5676713D01*
X-3238501Y5676713D01*
X-3093981Y5676713D01*
X-3092984Y6036270D01*
X-3091987Y6395826D01*
X-2923437Y6037246D01*
X-2754886Y5678666D01*
X-2605775Y5677643D01*
X-2572603Y5677491D01*
X-2542092Y5677498D01*
X-2515074Y5677651D01*
X-2492383Y5677941D01*
X-2474850Y5678355D01*
X-2463307Y5678882D01*
X-2458588Y5679512D01*
X-2458531Y5679641D01*
X-2460563Y5683973D01*
X-2465454Y5694912D01*
X-2472976Y5711939D01*
X-2482905Y5734534D01*
X-2495015Y5762177D01*
X-2509080Y5794349D01*
X-2524875Y5830530D01*
X-2542173Y5870200D01*
X-2560750Y5912839D01*
X-2580379Y5957928D01*
X-2600834Y6004947D01*
X-2621891Y6053377D01*
X-2643322Y6102697D01*
X-2664904Y6152388D01*
X-2686409Y6201929D01*
X-2707613Y6250803D01*
X-2728289Y6298488D01*
X-2748212Y6344465D01*
X-2767156Y6388214D01*
X-2784895Y6429216D01*
X-2801205Y6466950D01*
X-2815858Y6500898D01*
X-2828630Y6530539D01*
X-2839294Y6555353D01*
X-2847626Y6574822D01*
X-2853399Y6588425D01*
X-2856387Y6595642D01*
X-2856767Y6596691D01*
X-2855156Y6600667D01*
X-2850446Y6611284D01*
X-2842839Y6628103D01*
X-2832538Y6650684D01*
X-2819745Y6678588D01*
X-2804663Y6711374D01*
X-2787495Y6748604D01*
X-2768443Y6789838D01*
X-2747710Y6834635D01*
X-2725499Y6882558D01*
X-2702012Y6933165D01*
X-2677452Y6986018D01*
X-2660482Y7022499D01*
X-2635278Y7076680D01*
X-2610981Y7128953D01*
X-2587796Y7178875D01*
X-2565928Y7226001D01*
X-2545583Y7269888D01*
X-2526966Y7310092D01*
X-2510282Y7346170D01*
X-2495736Y7377677D01*
X-2483534Y7404170D01*
X-2473881Y7425205D01*
X-2466981Y7440339D01*
X-2463042Y7449127D01*
X-2462162Y7451236D01*
X-2462039Y7453007D01*
X-2463284Y7454443D01*
X-2466624Y7455580D01*
X-2472783Y7456452D01*
X-2482486Y7457095D01*
X-2496460Y7457541D01*
X-2515430Y7457828D01*
X-2540120Y7457989D01*
X-2571256Y7458059D01*
X-2604745Y7458073D01*
X-2749313Y7458073D01*
X-2920501Y7133834D01*
X-2945180Y7087138D01*
X-2968844Y7042456D01*
X-2991237Y7000266D01*
X-3012102Y6961047D01*
X-3031184Y6925275D01*
X-3048227Y6893430D01*
X-3062976Y6865988D01*
X-3075173Y6843427D01*
X-3084564Y6826226D01*
X-3090893Y6814863D01*
X-3093903Y6809814D01*
X-3094108Y6809595D01*
X-3094457Y6813406D01*
X-3094747Y6824455D01*
X-3094979Y6842169D01*
X-3095150Y6865974D01*
X-3095260Y6895295D01*
X-3095308Y6929559D01*
X-3095292Y6968192D01*
X-3095213Y7010618D01*
X-3095067Y7056265D01*
X-3094856Y7104559D01*
X-3094701Y7133834D01*
X-3092874Y7458073D01*
X-3237947Y7458073D01*
X-3383021Y7458073D01*
X-3383021Y6567393D01*
X-3756610Y6567393D01*
X-3755970Y6605006D01*
X-3761389Y6723031D01*
X-3774174Y6843641D01*
X-3783704Y6907257D01*
X-3806394Y7021535D01*
X-3836456Y7133599D01*
X-3873740Y7243090D01*
X-3918093Y7349651D01*
X-3969362Y7452923D01*
X-3972362Y7458073D01*
X-4027394Y7552549D01*
X-4092038Y7648170D01*
X-4108890Y7670976D01*
X-4156215Y7730756D01*
X-4208872Y7791614D01*
X-4264999Y7851576D01*
X-4322738Y7908663D01*
X-4380227Y7960899D01*
X-4387965Y7967555D01*
X-4404504Y7981972D01*
X-4418720Y7994922D01*
X-4429626Y8005460D01*
X-4436232Y8012641D01*
X-4437773Y8015221D01*
X-4435292Y8018518D01*
X-4427824Y8026694D01*
X-4415327Y8039790D01*
X-4397760Y8057846D01*
X-4375083Y8080904D01*
X-4347255Y8109003D01*
X-4314236Y8142184D01*
X-4275984Y8180489D01*
X-4232459Y8223958D01*
X-4183621Y8272632D01*
X-4129428Y8326551D01*
X-4069840Y8385756D01*
X-4004816Y8450289D01*
X-3934315Y8520189D01*
X-3858297Y8595497D01*
X-3817420Y8635971D01*
X-3784916Y8668035D01*
X-3757464Y8694831D01*
X-3734667Y8716689D01*
X-3716131Y8733942D01*
X-3701458Y8746921D01*
X-3690252Y8755957D01*
X-3682118Y8761382D01*
X-3676660Y8763527D01*
X-3673480Y8762724D01*
X-3672183Y8759304D01*
X-3672101Y8757586D01*
X-3668872Y8753490D01*
X-3659643Y8745804D01*
X-3645101Y8734982D01*
X-3625930Y8721475D01*
X-3602818Y8705737D01*
X-3576451Y8688220D01*
X-3547513Y8669378D01*
X-3516693Y8649662D01*
X-3484675Y8629526D01*
X-3452145Y8609422D01*
X-3419791Y8589803D01*
X-3399510Y8577720D01*
X-3268842Y8503891D01*
X-3137051Y8436185D01*
X-3004722Y8374848D01*
X-2872441Y8320130D01*
X-2740792Y8272278D01*
X-2610361Y8231541D01*
X-2533170Y8210677D01*
X-2488341Y8199613D01*
X-2444025Y8189305D01*
X-2401149Y8179930D01*
X-2360642Y8171666D01*
X-2323430Y8164690D01*
X-2290439Y8159179D01*
X-2262598Y8155310D01*
X-2240833Y8153261D01*
X-2231582Y8152976D01*
X-2217840Y8152630D01*
X-2207774Y8151578D01*
X-2203325Y8150037D01*
X-2203260Y8149814D01*
X-2200144Y8147132D01*
X-2190576Y8144837D01*
X-2174228Y8142890D01*
X-2150769Y8141253D01*
X-2119872Y8139890D01*
X-2115378Y8139733D01*
X-2095624Y8138866D01*
X-2078903Y8137756D01*
X-2066646Y8136527D01*
X-2060285Y8135303D01*
X-2059720Y8134912D01*
X-2055640Y8133615D01*
X-2045832Y8133002D01*
X-2032358Y8133195D01*
X-2031385Y8133239D01*
X-2017920Y8133454D01*
X-2008156Y8132801D01*
X-2004061Y8131422D01*
X-2004038Y8131286D01*
X-2000408Y8130061D01*
X-1990584Y8129287D01*
X-1976178Y8129042D01*
X-1963020Y8129264D01*
X-1946187Y8129486D01*
X-1932700Y8129127D01*
X-1924169Y8128265D01*
X-1921992Y8127310D01*
X-1918278Y8126355D01*
X-1907906Y8125514D01*
X-1892031Y8124834D01*
X-1871810Y8124360D01*
X-1848395Y8124140D01*
X-1841908Y8124129D01*
X-1817851Y8124277D01*
X-1796686Y8124689D01*
X-1779567Y8125319D01*
X-1767649Y8126123D01*
X-1762088Y8127053D01*
X-1761826Y8127310D01*
X-1758193Y8128507D01*
X-1748366Y8129258D01*
X-1733958Y8129489D01*
X-1720801Y8129264D01*
X-1703968Y8128967D01*
X-1690482Y8129125D01*
X-1681955Y8129692D01*
X-1679782Y8130378D01*
X-1676143Y8131527D01*
X-1666256Y8132875D01*
X-1651678Y8134246D01*
X-1635843Y8135352D01*
X-1548810Y8142620D01*
X-1456947Y8154153D01*
X-1361760Y8169644D01*
X-1264758Y8188791D01*
X-1167449Y8211289D01*
X-1071341Y8236834D01*
X-977941Y8265122D01*
X-955137Y8272605D01*
X-829591Y8318002D01*
X-703332Y8370574D01*
X-577238Y8429849D01*
X-452187Y8495354D01*
X-329059Y8566615D01*
X-208732Y8643160D01*
X-92086Y8724515D01*
X-31741Y8769663D01*
X-16660Y8780616D01*
X-4113Y8788553D01*
X4575Y8792681D01*
X7324Y8793019D01*
X12074Y8790274D01*
G37*
G36*
X3718024Y9268453D02*
G01*
X3733020Y9250877D01*
X3748371Y9233510D01*
X3764862Y9215537D01*
X3783279Y9196140D01*
X3804407Y9174501D01*
X3829032Y9149802D01*
X3857938Y9121227D01*
X3884677Y9095025D01*
X3904295Y9075831D01*
X3928809Y9051810D01*
X3957551Y9023619D01*
X3989851Y8991914D01*
X4025042Y8957352D01*
X4062454Y8920589D01*
X4101419Y8882284D01*
X4141269Y8843093D01*
X4181335Y8803672D01*
X4220947Y8764679D01*
X4232682Y8753123D01*
X4275796Y8710680D01*
X4322354Y8664870D01*
X4371326Y8616706D01*
X4421680Y8567202D01*
X4472384Y8517371D01*
X4522409Y8468226D01*
X4570722Y8420781D01*
X4616293Y8376049D01*
X4658090Y8335043D01*
X4685835Y8307839D01*
X4734917Y8259719D01*
X4778701Y8216767D01*
X4817479Y8178688D01*
X4851544Y8145191D01*
X4881187Y8115983D01*
X4906699Y8090771D01*
X4928372Y8069263D01*
X4946498Y8051166D01*
X4961369Y8036186D01*
X4973276Y8024033D01*
X4982510Y8014412D01*
X4989365Y8007031D01*
X4994130Y8001598D01*
X4997099Y7997819D01*
X4998562Y7995403D01*
X4998812Y7994056D01*
X4998731Y7993871D01*
X4994958Y7990477D01*
X4986007Y7983453D01*
X4973066Y7973698D01*
X4957318Y7962117D01*
X4950356Y7957071D01*
X4930896Y7942844D01*
X4910963Y7927955D01*
X4892747Y7914060D01*
X4878437Y7902814D01*
X4876999Y7901649D01*
X4863867Y7891112D01*
X4846512Y7877389D01*
X4826917Y7862040D01*
X4807068Y7846624D01*
X4801077Y7842000D01*
X4720023Y7777284D01*
X4644235Y7712127D01*
X4574185Y7646987D01*
X4510342Y7582318D01*
X4453180Y7518576D01*
X4405414Y7459194D01*
X4346029Y7374551D01*
X4293513Y7286497D01*
X4247811Y7194890D01*
X4208865Y7099587D01*
X4176621Y7000447D01*
X4151023Y6897327D01*
X4132015Y6790086D01*
X4126841Y6750998D01*
X4123704Y6717863D01*
X4121460Y6678975D01*
X4120109Y6636272D01*
X4119653Y6591697D01*
X4120093Y6547191D01*
X4121429Y6504694D01*
X4123664Y6466148D01*
X4126666Y6434572D01*
X4142868Y6330488D01*
X4165833Y6230305D01*
X4195586Y6133972D01*
X4232150Y6041435D01*
X4275552Y5952642D01*
X4325815Y5867540D01*
X4382964Y5786076D01*
X4447025Y5708197D01*
X4486288Y5665756D01*
X4512609Y5639519D01*
X4544786Y5609349D01*
X4582895Y5575182D01*
X4627013Y5536953D01*
X4677215Y5494598D01*
X4733579Y5448052D01*
X4796180Y5397251D01*
X4865095Y5342130D01*
X4912392Y5304679D01*
X4934771Y5286848D01*
X4955060Y5270353D01*
X4972461Y5255866D01*
X4986178Y5244064D01*
X4995412Y5235620D01*
X4999369Y5231209D01*
X4999452Y5230981D01*
X4996888Y5227597D01*
X4989093Y5218800D01*
X4976264Y5204795D01*
X4958597Y5185790D01*
X4936288Y5161991D01*
X4909535Y5133605D01*
X4878533Y5100837D01*
X4843478Y5063896D01*
X4804568Y5022986D01*
X4761999Y4978316D01*
X4715967Y4930091D01*
X4666669Y4878517D01*
X4614300Y4823803D01*
X4559059Y4766153D01*
X4501140Y4705775D01*
X4440741Y4642875D01*
X4382882Y4582677D01*
X4325177Y4522667D01*
X4268769Y4464010D01*
X4213907Y4406964D01*
X4160841Y4351791D01*
X4109822Y4298748D01*
X4061098Y4248095D01*
X4014920Y4200093D01*
X3971536Y4155000D01*
X3931198Y4113076D01*
X3894154Y4074581D01*
X3860654Y4039774D01*
X3830948Y4008915D01*
X3805286Y3982263D01*
X3783917Y3960077D01*
X3767091Y3942618D01*
X3755058Y3930144D01*
X3748067Y3922916D01*
X3746556Y3921365D01*
X3727938Y3902452D01*
X3626773Y3984056D01*
X3578816Y4022579D01*
X3535852Y4056716D01*
X3496940Y4087170D01*
X3461143Y4114643D01*
X3427524Y4139837D01*
X3395143Y4163456D01*
X3363064Y4186200D01*
X3330346Y4208773D01*
X3296054Y4231877D01*
X3293171Y4233798D01*
X3190025Y4299646D01*
X3085086Y4361127D01*
X2979280Y4417782D01*
X2873535Y4469156D01*
X2768778Y4514790D01*
X2665938Y4554228D01*
X2593910Y4578433D01*
X2466400Y4614552D01*
X2335820Y4643492D01*
X2202184Y4665251D01*
X2065509Y4679829D01*
X1925809Y4687222D01*
X1783099Y4687431D01*
X1637394Y4680454D01*
X1566503Y4674561D01*
X1445859Y4659699D01*
X1324679Y4637959D01*
X1204188Y4609672D01*
X1085612Y4575168D01*
X970175Y4534775D01*
X859103Y4488825D01*
X834036Y4477381D01*
X815193Y4468628D01*
X795502Y4459493D01*
X778330Y4451541D01*
X773485Y4449301D01*
X719484Y4422832D01*
X661107Y4391438D01*
X599403Y4355817D01*
X535423Y4316665D01*
X470218Y4274679D01*
X404838Y4230554D01*
X340333Y4184988D01*
X277754Y4138676D01*
X218152Y4092316D01*
X162576Y4046603D01*
X150400Y4036190D01*
X134119Y4022154D01*
X113848Y4004674D01*
X91513Y3985409D01*
X69036Y3966020D01*
X53764Y3952843D01*
X35548Y3937433D01*
X18949Y3923970D01*
X5002Y3913245D01*
X-5259Y3906052D01*
X-10800Y3903185D01*
X-11021Y3903166D01*
X-17389Y3906443D01*
X-26120Y3915479D01*
X-33363Y3925133D01*
X-44844Y3939464D01*
X-62445Y3958087D01*
X-85915Y3980768D01*
X-115006Y4007274D01*
X-149467Y4037373D01*
X-189050Y4070831D01*
X-191434Y4072817D01*
X-307478Y4164975D01*
X-425051Y4249517D01*
X-544298Y4326515D01*
X-665364Y4396043D01*
X-788394Y4458174D01*
X-913532Y4512980D01*
X-1040924Y4560534D01*
X-1170714Y4600910D01*
X-1303047Y4634180D01*
X-1308151Y4635310D01*
X-1428549Y4658443D01*
X-1552930Y4675812D01*
X-1679925Y4687348D01*
X-1808167Y4692981D01*
X-1936287Y4692640D01*
X-2062917Y4686256D01*
X-2148570Y4678307D01*
X-2283828Y4659388D01*
X-2417635Y4632814D01*
X-2549883Y4598624D01*
X-2680463Y4556861D01*
X-2809266Y4507565D01*
X-2936185Y4450777D01*
X-3061110Y4386539D01*
X-3183934Y4314891D01*
X-3287311Y4247710D01*
X-3318222Y4226433D01*
X-3347554Y4205745D01*
X-3376500Y4184753D01*
X-3406255Y4162561D01*
X-3438015Y4138276D01*
X-3472972Y4111004D01*
X-3512323Y4079848D01*
X-3525607Y4069256D01*
X-3564428Y4038321D01*
X-3600193Y4009940D01*
X-3632438Y3984479D01*
X-3660696Y3962304D01*
X-3684500Y3943779D01*
X-3703384Y3929270D01*
X-3716881Y3919142D01*
X-3721216Y3916010D01*
X-3733220Y3907527D01*
X-4022016Y4210700D01*
X-4097979Y4290448D01*
X-4168850Y4364860D01*
X-4234929Y4434250D01*
X-4296517Y4498936D01*
X-4353914Y4559235D01*
X-4407421Y4615463D01*
X-4457338Y4667936D01*
X-4503965Y4716972D01*
X-4547603Y4762886D01*
X-4588552Y4805996D01*
X-4627113Y4846618D01*
X-4663585Y4885067D01*
X-4698270Y4921662D01*
X-4731467Y4956718D01*
X-4763478Y4990553D01*
X-4794602Y5023482D01*
X-4825140Y5055822D01*
X-4855393Y5087890D01*
X-4885660Y5120002D01*
X-4916242Y5152475D01*
X-4947439Y5185626D01*
X-4977599Y5217694D01*
X-4823871Y5217694D01*
X-4729698Y5118081D01*
X-4635105Y5018084D01*
X-4544792Y4922735D01*
X-4457727Y4830951D01*
X-4372882Y4741648D01*
X-4289225Y4653743D01*
X-4205728Y4566152D01*
X-4121358Y4477793D01*
X-4035087Y4387581D01*
X-4033451Y4385872D01*
X-3995875Y4346605D01*
X-3959339Y4308414D01*
X-3924270Y4271748D01*
X-3891096Y4237054D01*
X-3860243Y4204779D01*
X-3832140Y4175371D01*
X-3807214Y4149276D01*
X-3785891Y4126942D01*
X-3768601Y4108816D01*
X-3755769Y4095345D01*
X-3747824Y4086977D01*
X-3746820Y4085915D01*
X-3733772Y4072343D01*
X-3724776Y4063849D01*
X-3718735Y4059634D01*
X-3714555Y4058898D01*
X-3711756Y4060323D01*
X-3706581Y4064611D01*
X-3696773Y4072897D01*
X-3683623Y4084082D01*
X-3668424Y4097071D01*
X-3664382Y4100534D01*
X-3543733Y4199417D01*
X-3421292Y4290704D01*
X-3297014Y4374417D01*
X-3170851Y4450577D01*
X-3042756Y4519204D01*
X-2912682Y4580320D01*
X-2780582Y4633945D01*
X-2646409Y4680101D01*
X-2510117Y4718807D01*
X-2371657Y4750086D01*
X-2230984Y4773957D01*
X-2117318Y4787686D01*
X-1972542Y4798463D01*
X-1829694Y4801754D01*
X-1688696Y4797537D01*
X-1549470Y4785792D01*
X-1411937Y4766497D01*
X-1276018Y4739631D01*
X-1141636Y4705171D01*
X-1008712Y4663096D01*
X-877167Y4613386D01*
X-746924Y4556018D01*
X-617904Y4490971D01*
X-490028Y4418224D01*
X-363219Y4337754D01*
X-289080Y4286796D01*
X-244154Y4254346D01*
X-196568Y4218740D01*
X-148246Y4181477D01*
X-101112Y4144061D01*
X-57091Y4107992D01*
X-24045Y4079937D01*
X4648Y4055090D01*
X15641Y4064094D01*
X21943Y4069326D01*
X33118Y4078672D01*
X48069Y4091213D01*
X65696Y4106026D01*
X84900Y4122189D01*
X88517Y4125236D01*
X155347Y4179735D01*
X226832Y4234715D01*
X301118Y4288858D01*
X376348Y4340851D01*
X450665Y4389377D01*
X522213Y4433124D01*
X527376Y4436152D01*
X588529Y4470498D01*
X654784Y4505159D01*
X724292Y4539283D01*
X795203Y4572018D01*
X865667Y4602511D01*
X933836Y4629911D01*
X997858Y4653365D01*
X1002015Y4654796D01*
X1138180Y4697373D01*
X1275667Y4732259D01*
X1414517Y4759461D01*
X1554774Y4778985D01*
X1696480Y4790837D01*
X1839678Y4795024D01*
X1941632Y4793370D01*
X2080181Y4785027D01*
X2216499Y4769666D01*
X2350850Y4747202D01*
X2483495Y4717551D01*
X2614700Y4680627D01*
X2744726Y4636347D01*
X2873838Y4584626D01*
X3002298Y4525378D01*
X3130371Y4458520D01*
X3258319Y4383967D01*
X3303363Y4355886D01*
X3391190Y4298271D01*
X3477967Y4237353D01*
X3565399Y4171899D01*
X3641640Y4111669D01*
X3710794Y4055796D01*
X3755269Y4101559D01*
X3764410Y4111017D01*
X3778490Y4125657D01*
X3797055Y4145004D01*
X3819655Y4168587D01*
X3845834Y4195931D01*
X3875142Y4226564D01*
X3907125Y4260013D01*
X3941330Y4295803D01*
X3977305Y4333462D01*
X4014598Y4372517D01*
X4052754Y4412495D01*
X4062520Y4422730D01*
X4108974Y4471410D01*
X4150462Y4514871D01*
X4187407Y4553547D01*
X4220231Y4587877D01*
X4249357Y4618297D01*
X4275208Y4645244D01*
X4298206Y4669155D01*
X4318774Y4690466D01*
X4337334Y4709615D01*
X4354310Y4727038D01*
X4370124Y4743173D01*
X4385199Y4758455D01*
X4399956Y4773323D01*
X4414820Y4788212D01*
X4430211Y4803561D01*
X4446554Y4819804D01*
X4449514Y4822742D01*
X4465649Y4838905D01*
X4479667Y4853233D01*
X4490695Y4864808D01*
X4497855Y4872711D01*
X4500277Y4875988D01*
X4502916Y4879441D01*
X4510333Y4887628D01*
X4521779Y4899763D01*
X4536504Y4915056D01*
X4553760Y4932721D01*
X4567664Y4946803D01*
X4587370Y4966752D01*
X4611202Y4991003D01*
X4637865Y5018234D01*
X4666066Y5047118D01*
X4694510Y5076332D01*
X4721904Y5104550D01*
X4733796Y5116832D01*
X4832540Y5218910D01*
X4817872Y5231001D01*
X4808716Y5238065D01*
X4801941Y5242420D01*
X4800111Y5243093D01*
X4796070Y5245505D01*
X4787515Y5252038D01*
X4775784Y5261636D01*
X4764866Y5270936D01*
X4750949Y5282766D01*
X4732667Y5297984D01*
X4711788Y5315137D01*
X4690079Y5332770D01*
X4674116Y5345594D01*
X4655651Y5360494D01*
X4639244Y5374012D01*
X4625903Y5385295D01*
X4616635Y5393491D01*
X4612449Y5397746D01*
X4612394Y5397834D01*
X4606450Y5402690D01*
X4603605Y5403259D01*
X4598529Y5405208D01*
X4597939Y5406758D01*
X4595130Y5410456D01*
X4587431Y5418140D01*
X4575937Y5428774D01*
X4561745Y5441324D01*
X4557898Y5444644D01*
X4510005Y5486616D01*
X4467482Y5525795D01*
X4429044Y5563480D01*
X4393406Y5600970D01*
X4359281Y5639565D01*
X4329164Y5675870D01*
X4266380Y5759705D01*
X4209758Y5847909D01*
X4159604Y5939867D01*
X4116224Y6034963D01*
X4079923Y6132583D01*
X4051008Y6232110D01*
X4049299Y6239008D01*
X4044317Y6259790D01*
X4039857Y6279218D01*
X4036352Y6295346D01*
X4034236Y6306233D01*
X4034017Y6307611D01*
X4031988Y6320392D01*
X4029992Y6331502D01*
X4029720Y6332847D01*
X4025230Y6356741D01*
X4021280Y6382951D01*
X4017736Y6412673D01*
X4014466Y6447105D01*
X4011337Y6487442D01*
X4009493Y6514655D01*
X4006853Y6600178D01*
X4009693Y6688944D01*
X4014046Y6743185D01*
X4016767Y6769807D01*
X4019248Y6792097D01*
X4021203Y6807642D01*
X4022712Y6818713D01*
X4024624Y6832950D01*
X4025414Y6838894D01*
X4028992Y6861786D01*
X4034237Y6889949D01*
X4040669Y6921139D01*
X4047812Y6953114D01*
X4055187Y6983631D01*
X4060969Y7005621D01*
X4092949Y7109123D01*
X4130595Y7207614D01*
X4174248Y7301803D01*
X4224248Y7392399D01*
X4280937Y7480109D01*
X4307459Y7517119D01*
X4317623Y7531145D01*
X4325776Y7542881D01*
X4330951Y7550905D01*
X4332298Y7553668D01*
X4335064Y7557858D01*
X4341752Y7563999D01*
X4342064Y7564246D01*
X4348890Y7570772D01*
X4351828Y7575874D01*
X4351830Y7575965D01*
X4354628Y7580988D01*
X4361381Y7587514D01*
X4361597Y7587685D01*
X4368438Y7594391D01*
X4371361Y7599886D01*
X4371363Y7599966D01*
X4374189Y7605013D01*
X4381306Y7612325D01*
X4385036Y7615475D01*
X4393314Y7622868D01*
X4398173Y7628730D01*
X4398708Y7630216D01*
X4401372Y7633945D01*
X4408783Y7642235D01*
X4420072Y7654218D01*
X4434369Y7669024D01*
X4450804Y7685786D01*
X4468509Y7703633D01*
X4486613Y7721697D01*
X4504247Y7739109D01*
X4520542Y7755000D01*
X4534627Y7768502D01*
X4545633Y7778744D01*
X4552690Y7784859D01*
X4554826Y7786218D01*
X4559185Y7789029D01*
X4566295Y7796218D01*
X4571063Y7801844D01*
X4579133Y7810789D01*
X4585928Y7816444D01*
X4588480Y7817470D01*
X4593933Y7820236D01*
X4601357Y7827092D01*
X4603199Y7829189D01*
X4610428Y7836702D01*
X4616048Y7840706D01*
X4616936Y7840909D01*
X4621840Y7843702D01*
X4628312Y7850445D01*
X4628493Y7850675D01*
X4634618Y7857465D01*
X4638852Y7860436D01*
X4638948Y7860441D01*
X4642913Y7862749D01*
X4651626Y7869027D01*
X4663783Y7878303D01*
X4677450Y7889101D01*
X4694575Y7902688D01*
X4712310Y7916510D01*
X4728175Y7928644D01*
X4736698Y7935003D01*
X4749740Y7944780D01*
X4766421Y7957592D01*
X4784309Y7971559D01*
X4796686Y7981367D01*
X4833156Y8010491D01*
X4784898Y8057544D01*
X4774866Y8067350D01*
X4759762Y8082151D01*
X4740082Y8101460D01*
X4716319Y8124790D01*
X4688969Y8151655D01*
X4658529Y8181568D01*
X4625492Y8214042D01*
X4590355Y8248590D01*
X4553612Y8284727D01*
X4515758Y8321965D01*
X4482579Y8354612D01*
X4443311Y8393236D01*
X4401968Y8433864D01*
X4358936Y8476120D01*
X4314598Y8519629D01*
X4269339Y8564016D01*
X4223542Y8608905D01*
X4177591Y8653920D01*
X4131871Y8698685D01*
X4086766Y8742826D01*
X4042661Y8785967D01*
X3999938Y8827732D01*
X3958982Y8867746D01*
X3920178Y8905633D01*
X3883910Y8941018D01*
X3850560Y8973525D01*
X3820515Y9002778D01*
X3794158Y9028403D01*
X3771872Y9050023D01*
X3754043Y9067264D01*
X3741054Y9079749D01*
X3733748Y9086676D01*
X3721568Y9097505D01*
X3713020Y9103492D01*
X3706479Y9105574D01*
X3701768Y9105100D01*
X3695524Y9101769D01*
X3684738Y9094205D01*
X3670693Y9083378D01*
X3654674Y9070259D01*
X3646551Y9063339D01*
X3535924Y8972936D01*
X3419939Y8887963D01*
X3299081Y8808667D01*
X3173836Y8735292D01*
X3044689Y8668083D01*
X2912127Y8607287D01*
X2776635Y8553148D01*
X2638699Y8505911D01*
X2498804Y8465822D01*
X2429837Y8448897D01*
X2326522Y8427310D01*
X2223035Y8410559D01*
X2117856Y8398477D01*
X2009465Y8390900D01*
X1896341Y8387660D01*
X1867302Y8387509D01*
X1754590Y8389373D01*
X1646328Y8395312D01*
X1540496Y8405568D01*
X1435076Y8420381D01*
X1328047Y8439995D01*
X1217392Y8464651D01*
X1211847Y8465991D01*
X1184562Y8472846D01*
X1154850Y8480720D01*
X1123645Y8489329D01*
X1091880Y8498387D01*
X1060488Y8507608D01*
X1030402Y8516709D01*
X1002555Y8525403D01*
X977881Y8533406D01*
X957311Y8540431D01*
X941780Y8546195D01*
X932221Y8550412D01*
X929599Y8552263D01*
X924872Y8554856D01*
X915011Y8557990D01*
X907137Y8559890D01*
X895795Y8562933D01*
X888402Y8566090D01*
X886773Y8567839D01*
X883428Y8570533D01*
X877007Y8571422D01*
X869663Y8572590D01*
X867241Y8574829D01*
X863790Y8577511D01*
X855166Y8580078D01*
X851615Y8580735D01*
X841846Y8583151D01*
X836397Y8586154D01*
X835989Y8587094D01*
X832654Y8590027D01*
X826502Y8590955D01*
X816592Y8593294D01*
X811155Y8596814D01*
X803430Y8601683D01*
X798877Y8602674D01*
X790937Y8605283D01*
X786600Y8608534D01*
X778137Y8613210D01*
X771253Y8614394D01*
X764043Y8615548D01*
X761766Y8617673D01*
X758495Y8621569D01*
X750750Y8625890D01*
X741636Y8629155D01*
X735911Y8630020D01*
X728388Y8632608D01*
X724096Y8635879D01*
X715576Y8640610D01*
X709028Y8641739D01*
X699540Y8643809D01*
X694658Y8646840D01*
X689870Y8649966D01*
X679115Y8656080D01*
X663395Y8664639D01*
X643714Y8675105D01*
X621076Y8686937D01*
X601600Y8696976D01*
X510771Y8745256D01*
X424555Y8794813D01*
X341277Y8846738D01*
X259262Y8902121D01*
X176835Y8962050D01*
X92321Y9027617D01*
X87205Y9031709D01*
X59969Y9053204D01*
X37846Y9069865D01*
X20142Y9082085D01*
X6165Y9090259D01*
X-4779Y9094781D01*
X-13382Y9096045D01*
X-20336Y9094446D01*
X-21754Y9093726D01*
X-27071Y9089872D01*
X-37057Y9081859D01*
X-50509Y9070683D01*
X-66220Y9057337D01*
X-75040Y9049736D01*
X-158867Y8980764D01*
X-249556Y8913004D01*
X-346179Y8847031D01*
X-447810Y8783422D01*
X-553523Y8722751D01*
X-662392Y8665595D01*
X-773490Y8612530D01*
X-790511Y8604859D01*
X-907118Y8556131D01*
X-1027786Y8512234D01*
X-1150978Y8473617D01*
X-1275161Y8440728D01*
X-1398798Y8414015D01*
X-1505952Y8395968D01*
X-1541643Y8390902D01*
X-1573494Y8386687D01*
X-1602751Y8383246D01*
X-1630660Y8380503D01*
X-1658466Y8378381D01*
X-1687415Y8376805D01*
X-1718751Y8375698D01*
X-1753722Y8374983D01*
X-1793572Y8374584D01*
X-1839547Y8374425D01*
X-1857536Y8374412D01*
X-1903788Y8374470D01*
X-1943204Y8374686D01*
X-1976761Y8375086D01*
X-2005434Y8375700D01*
X-2030199Y8376554D01*
X-2052033Y8377677D01*
X-2071912Y8379096D01*
X-2090812Y8380840D01*
X-2093879Y8381158D01*
X-2218783Y8396825D01*
X-2340540Y8417136D01*
X-2457614Y8441824D01*
X-2492784Y8450341D01*
X-2524331Y8458390D01*
X-2554552Y8466407D01*
X-2582488Y8474112D01*
X-2607180Y8481225D01*
X-2627668Y8487466D01*
X-2642995Y8492555D01*
X-2652199Y8496213D01*
X-2654265Y8497472D01*
X-2660945Y8500470D01*
X-2666265Y8501105D01*
X-2674701Y8502314D01*
X-2686436Y8505359D01*
X-2698811Y8509371D01*
X-2709170Y8513479D01*
X-2714856Y8516814D01*
X-2715079Y8517092D01*
X-2719557Y8519437D01*
X-2729687Y8523017D01*
X-2743542Y8527170D01*
X-2748216Y8528451D01*
X-2762824Y8532655D01*
X-2774295Y8536498D01*
X-2780702Y8539316D01*
X-2781353Y8539870D01*
X-2786190Y8542517D01*
X-2795591Y8545159D01*
X-2798024Y8545644D01*
X-2807417Y8548244D01*
X-2812421Y8551331D01*
X-2812673Y8552067D01*
X-2816017Y8554871D01*
X-2822439Y8555796D01*
X-2829781Y8557134D01*
X-2832205Y8559703D01*
X-2835548Y8562639D01*
X-2841972Y8563609D01*
X-2849313Y8564947D01*
X-2851738Y8567516D01*
X-2855081Y8570452D01*
X-2861504Y8571422D01*
X-2868846Y8572760D01*
X-2871270Y8575329D01*
X-2874613Y8578265D01*
X-2881037Y8579235D01*
X-2888381Y8580395D01*
X-2890803Y8582621D01*
X-2894134Y8585886D01*
X-2902553Y8590496D01*
X-2913694Y8595442D01*
X-2925194Y8599719D01*
X-2934690Y8602318D01*
X-2937876Y8602674D01*
X-2944460Y8604223D01*
X-2946145Y8605883D01*
X-2949884Y8608437D01*
X-2959665Y8613855D01*
X-2974485Y8621617D01*
X-2993342Y8631203D01*
X-3015235Y8642095D01*
X-3028819Y8648752D01*
X-3141368Y8706366D01*
X-3249637Y8767551D01*
X-3354966Y8833167D01*
X-3458697Y8904074D01*
X-3562169Y8981134D01*
X-3629129Y9034286D01*
X-3652579Y9053174D01*
X-3671008Y9067471D01*
X-3685344Y9077655D01*
X-3696517Y9084201D01*
X-3705452Y9087585D01*
X-3713080Y9088283D01*
X-3720327Y9086771D01*
X-3726566Y9084248D01*
X-3731034Y9080907D01*
X-3740203Y9072800D01*
X-3754131Y9059868D01*
X-3772878Y9042054D01*
X-3796501Y9019301D01*
X-3825060Y8991550D01*
X-3858614Y8958745D01*
X-3897221Y8920827D01*
X-3940939Y8877738D01*
X-3989829Y8829422D01*
X-4043947Y8775821D01*
X-4103354Y8716876D01*
X-4168108Y8652530D01*
X-4238268Y8582726D01*
X-4282152Y8539027D01*
X-4822562Y8000742D01*
X-4804983Y7989755D01*
X-4794485Y7982335D01*
X-4780504Y7971288D01*
X-4765216Y7958372D01*
X-4756152Y7950301D01*
X-4744801Y7940087D01*
X-4728680Y7925757D01*
X-4708926Y7908311D01*
X-4686674Y7888750D01*
X-4663058Y7868073D01*
X-4639214Y7847281D01*
X-4639110Y7847190D01*
X-4595384Y7808943D01*
X-4556995Y7774866D01*
X-4523202Y7744216D01*
X-4493269Y7716251D01*
X-4466457Y7690225D01*
X-4442027Y7665396D01*
X-4419242Y7641020D01*
X-4397362Y7616354D01*
X-4375651Y7590654D01*
X-4353369Y7563176D01*
X-4338833Y7544779D01*
X-4319222Y7518883D01*
X-4297230Y7488364D01*
X-4274046Y7454993D01*
X-4250859Y7420538D01*
X-4228860Y7386771D01*
X-4209237Y7355461D01*
X-4193181Y7328377D01*
X-4192153Y7326564D01*
X-4144058Y7233801D01*
X-4102809Y7138086D01*
X-4068606Y7040050D01*
X-4041649Y6940326D01*
X-4022135Y6839546D01*
X-4011582Y6753870D01*
X-4010066Y6730529D01*
X-4009102Y6701229D01*
X-4008658Y6667512D01*
X-4008708Y6630918D01*
X-4009220Y6592989D01*
X-4010167Y6555266D01*
X-4011519Y6519290D01*
X-4013247Y6486603D01*
X-4015322Y6458745D01*
X-4017543Y6438479D01*
X-4032947Y6344622D01*
X-4053064Y6251639D01*
X-4077516Y6160793D01*
X-4105926Y6073345D01*
X-4137917Y5990558D01*
X-4173110Y5913693D01*
X-4176378Y5907196D01*
X-4215980Y5834816D01*
X-4260678Y5764089D01*
X-4310828Y5694610D01*
X-4366785Y5625972D01*
X-4428906Y5557770D01*
X-4497547Y5489600D01*
X-4573063Y5421056D01*
X-4655811Y5351733D01*
X-4683943Y5329265D01*
X-4702116Y5314772D01*
X-4718213Y5301673D01*
X-4731198Y5290832D01*
X-4740037Y5283112D01*
X-4743650Y5279457D01*
X-4748951Y5274839D01*
X-4751108Y5274344D01*
X-4756578Y5272009D01*
X-4766276Y5265840D01*
X-4778502Y5257091D01*
X-4791556Y5247018D01*
X-4803737Y5236877D01*
X-4811497Y5229766D01*
X-4823871Y5217694D01*
X-4977599Y5217694D01*
X-4979552Y5219771D01*
X-4979813Y5220048D01*
X-5000385Y5241928D01*
X-4929053Y5292139D01*
X-4875284Y5330319D01*
X-4827182Y5365224D01*
X-4783742Y5397646D01*
X-4743959Y5428371D01*
X-4706827Y5458191D01*
X-4671340Y5487895D01*
X-4636493Y5518271D01*
X-4606351Y5545461D01*
X-4525153Y5624412D01*
X-4451304Y5705987D01*
X-4384772Y5790244D01*
X-4325524Y5877241D01*
X-4273531Y5967036D01*
X-4228760Y6059688D01*
X-4191180Y6155254D01*
X-4160759Y6253792D01*
X-4137466Y6355361D01*
X-4124431Y6435208D01*
X-4120813Y6468576D01*
X-4118100Y6507532D01*
X-4116301Y6550267D01*
X-4115426Y6594973D01*
X-4115484Y6639842D01*
X-4116484Y6683064D01*
X-4118437Y6722832D01*
X-4121350Y6757336D01*
X-4122696Y6768577D01*
X-4140675Y6875729D01*
X-4165896Y6979960D01*
X-4198331Y7081205D01*
X-4237948Y7179393D01*
X-4284718Y7274457D01*
X-4338609Y7366330D01*
X-4399591Y7454943D01*
X-4467634Y7540228D01*
X-4469084Y7541920D01*
X-4508271Y7586155D01*
X-4549259Y7629539D01*
X-4592737Y7672687D01*
X-4639393Y7716219D01*
X-4689916Y7760751D01*
X-4744994Y7806900D01*
X-4805317Y7855284D01*
X-4871572Y7906521D01*
X-4898179Y7926665D01*
X-4977701Y7986556D01*
X-4837628Y8125950D01*
X-4819532Y8143963D01*
X-4796296Y8167101D01*
X-4768313Y8194972D01*
X-4735975Y8227185D01*
X-4699676Y8263348D01*
X-4659809Y8303070D01*
X-4616767Y8345959D01*
X-4570941Y8391623D01*
X-4522726Y8439671D01*
X-4472514Y8489712D01*
X-4420698Y8541354D01*
X-4367672Y8594206D01*
X-4313827Y8647875D01*
X-4259557Y8701971D01*
X-4205254Y8756102D01*
X-4204565Y8756789D01*
X-3711576Y9248234D01*
X-3696161Y9235043D01*
X-3668028Y9211044D01*
X-3639863Y9187154D01*
X-3612639Y9164188D01*
X-3587330Y9142964D01*
X-3564911Y9124298D01*
X-3546356Y9109007D01*
X-3532640Y9097909D01*
X-3531467Y9096978D01*
X-3510556Y9080449D01*
X-3493947Y9067414D01*
X-3479847Y9056515D01*
X-3466462Y9046396D01*
X-3451997Y9035699D01*
X-3434660Y9023066D01*
X-3414272Y9008310D01*
X-3292580Y8924423D01*
X-3170143Y8848219D01*
X-3046660Y8779584D01*
X-2921829Y8718402D01*
X-2795346Y8664556D01*
X-2666909Y8617930D01*
X-2536217Y8578409D01*
X-2402967Y8545877D01*
X-2266856Y8520217D01*
X-2127583Y8501313D01*
X-2080206Y8496475D01*
X-2059285Y8494984D01*
X-2031768Y8493744D01*
X-1998868Y8492754D01*
X-1961797Y8492016D01*
X-1921769Y8491530D01*
X-1879997Y8491294D01*
X-1837692Y8491309D01*
X-1796069Y8491576D01*
X-1756339Y8492094D01*
X-1719717Y8492863D01*
X-1687414Y8493883D01*
X-1660644Y8495154D01*
X-1642679Y8496475D01*
X-1500888Y8513328D01*
X-1362749Y8536978D01*
X-1227829Y8567562D01*
X-1095694Y8605218D01*
X-965910Y8650083D01*
X-838043Y8702296D01*
X-711659Y8761993D01*
X-586324Y8829313D01*
X-577568Y8834320D01*
X-489348Y8887311D01*
X-399267Y8945863D01*
X-309052Y9008712D01*
X-220431Y9074592D01*
X-135132Y9142240D01*
X-54881Y9210391D01*
X-15391Y9245909D01*
X-5390Y9255098D01*
X97897Y9168436D01*
X138022Y9134968D01*
X173544Y9105819D01*
X205662Y9080075D01*
X235572Y9056820D01*
X264472Y9035140D01*
X293561Y9014119D01*
X324036Y8992843D01*
X357094Y8970396D01*
X357444Y8970161D01*
X471053Y8897249D01*
X584492Y8831318D01*
X699066Y8771672D01*
X816081Y8717620D01*
X893631Y8685332D01*
X1020263Y8638270D01*
X1147424Y8598114D01*
X1276021Y8564655D01*
X1406962Y8537686D01*
X1541155Y8516998D01*
X1679506Y8502384D01*
X1699323Y8500806D01*
X1726921Y8499163D01*
X1760696Y8497901D01*
X1799022Y8497021D01*
X1840272Y8496523D01*
X1882821Y8496407D01*
X1925041Y8496673D01*
X1965306Y8497321D01*
X2001990Y8498352D01*
X2033467Y8499765D01*
X2048954Y8500779D01*
X2187004Y8515016D01*
X2323113Y8536561D01*
X2457436Y8565468D01*
X2590128Y8601792D01*
X2721342Y8645589D01*
X2851234Y8696914D01*
X2979956Y8755821D01*
X3107663Y8822367D01*
X3234510Y8896605D01*
X3332236Y8959410D01*
X3359306Y8977945D01*
X3387554Y8998242D01*
X3417824Y9020949D01*
X3450957Y9046716D01*
X3487796Y9076191D01*
X3529184Y9110024D01*
X3548619Y9126099D01*
X3571278Y9144861D01*
X3592479Y9162350D01*
X3611331Y9177837D01*
X3626945Y9190592D01*
X3638430Y9199887D01*
X3644899Y9204994D01*
X3645267Y9205269D01*
X3652340Y9211793D01*
X3662539Y9222822D01*
X3674300Y9236613D01*
X3682406Y9246697D01*
X3708414Y9279895D01*
X3718024Y9268453D01*
G37*
G36*
X8790355Y-5547990D02*
G01*
X8792881Y-5592982D01*
X8795143Y-5663834D01*
X8797080Y-5757161D01*
X8798626Y-5869580D01*
X8799720Y-5997707D01*
X8800297Y-6138159D01*
X8800372Y-6211898D01*
X8800372Y-6891555D01*
X8748220Y-6974550D01*
X8703378Y-7046116D01*
X8656794Y-7120806D01*
X8612838Y-7191578D01*
X8575883Y-7251387D01*
X8550298Y-7293189D01*
X8544628Y-7302616D01*
X8524280Y-7336080D01*
X8490884Y-7390233D01*
X8448760Y-7458145D01*
X8402226Y-7532883D01*
X8355599Y-7607515D01*
X8313200Y-7675111D01*
X8279345Y-7728738D01*
X8270451Y-7742709D01*
X8240664Y-7790166D01*
X8199868Y-7856266D01*
X8153810Y-7931656D01*
X8115109Y-7995567D01*
X8070451Y-8069297D01*
X8027558Y-8139470D01*
X7991625Y-8197628D01*
X7969736Y-8232381D01*
X7936842Y-8283838D01*
X7909481Y-8327642D01*
X7880638Y-8375219D01*
X7843298Y-8437997D01*
X7837221Y-8448265D01*
X7803004Y-8500408D01*
X7773216Y-8528701D01*
X7744079Y-8532031D01*
X7711816Y-8509287D01*
X7672651Y-8459358D01*
X7625806Y-8386050D01*
X7581916Y-8314110D01*
X7538349Y-8242588D01*
X7501684Y-8182292D01*
X7487142Y-8158319D01*
X7435540Y-8073433D01*
X7371675Y-7968846D01*
X7300467Y-7852590D01*
X7226838Y-7732696D01*
X7155710Y-7617198D01*
X7136831Y-7586608D01*
X7094091Y-7517364D01*
X7056185Y-7455898D01*
X7027202Y-7408844D01*
X7011231Y-7382838D01*
X7011141Y-7382690D01*
X6957163Y-7294591D01*
X6901796Y-7204842D01*
X6848562Y-7119095D01*
X6800985Y-7043001D01*
X6762588Y-6982212D01*
X6736893Y-6942379D01*
X6733300Y-6936997D01*
X6695941Y-6881702D01*
X6695941Y-6206971D01*
X6696324Y-6026417D01*
X6697456Y-5872131D01*
X6699311Y-5745229D01*
X6701861Y-5646829D01*
X6705081Y-5578045D01*
X6708943Y-5539994D01*
X6711979Y-5532241D01*
X6728001Y-5545470D01*
X6752038Y-5579473D01*
X6769525Y-5609729D01*
X6798937Y-5662114D01*
X6838125Y-5728612D01*
X6879216Y-5795894D01*
X6884178Y-5803829D01*
X6957324Y-5920439D01*
X6938833Y-6006660D01*
X6925292Y-6124038D01*
X6934314Y-6235646D01*
X6964230Y-6335693D01*
X7013370Y-6418389D01*
X7073396Y-6473686D01*
X7118549Y-6499381D01*
X7159268Y-6508572D01*
X7213101Y-6505070D01*
X7216085Y-6504679D01*
X7264394Y-6499609D01*
X7292866Y-6504544D01*
X7313964Y-6524875D01*
X7333745Y-6555585D01*
X7364015Y-6607159D01*
X7391087Y-6656981D01*
X7395644Y-6666023D01*
X7412869Y-6700587D01*
X7422570Y-6719241D01*
X7422888Y-6719761D01*
X7437502Y-6714967D01*
X7472948Y-6698228D01*
X7521606Y-6673568D01*
X7575857Y-6645011D01*
X7628081Y-6616583D01*
X7670660Y-6592308D01*
X7695973Y-6576211D01*
X7698400Y-6574230D01*
X7733915Y-6560929D01*
X7780456Y-6566315D01*
X7813859Y-6582178D01*
X7845802Y-6602105D01*
X7892211Y-6628623D01*
X7945379Y-6657647D01*
X7997599Y-6685090D01*
X8041163Y-6706868D01*
X8068363Y-6718894D01*
X8073571Y-6719852D01*
X8082535Y-6704261D01*
X8103137Y-6667369D01*
X8131308Y-6616474D01*
X8137951Y-6604424D01*
X8198847Y-6493884D01*
X8278351Y-6504430D01*
X8358958Y-6502124D01*
X8428599Y-6471208D01*
X8489665Y-6410266D01*
X8522544Y-6359821D01*
X8567713Y-6255876D01*
X8582407Y-6151772D01*
X8567492Y-6040279D01*
X8562893Y-6022966D01*
X8548275Y-5966897D01*
X8543543Y-5932485D01*
X8548448Y-5910376D01*
X8559459Y-5894895D01*
X8581817Y-5864931D01*
X8590247Y-5849075D01*
X8603449Y-5821589D01*
X8628437Y-5777081D01*
X8660967Y-5722365D01*
X8696792Y-5664254D01*
X8731669Y-5609562D01*
X8761351Y-5565103D01*
X8781596Y-5537691D01*
X8787631Y-5532241D01*
X8790355Y-5547990D01*
G37*
D11*
X1980000Y-9973075D02*
X-1520000Y-9973075D01*
X-1520000Y-12273075D01*
X1980000Y-12273075D01*
X1980000Y-9973075D01*
D12*
X9319194Y135231D02*
X9471695Y287736D01*
X9828305Y-373886D02*
X9980806Y-221381D01*
X-6720000Y-5557740D02*
X-6720001Y-5773412D01*
X-6000001Y-5557738D02*
X-6000002Y-5773410D01*
D11*
X-10870001Y-943075D02*
G75*
G02*
X-10969999Y-943075I-49999J0D01*
G01*
X-10969999Y-943075D02*
G75*
G02*
X-10870001Y-943075I49999J0D01*
G01*
D12*
X2427834Y-3333073D02*
X2212162Y-3333075D01*
X2427838Y-2613075D02*
X2212166Y-2613077D01*
D11*
X-4907502Y-7213071D02*
G75*
G02*
X-5007502Y-7213071I-50000J0D01*
G01*
X-5007502Y-7213071D02*
G75*
G02*
X-4907502Y-7213071I50000J0D01*
G01*
D12*
X-2642166Y-3083073D02*
X-2857838Y-3083075D01*
X-2642162Y-2363075D02*
X-2857834Y-2363077D01*
X1250000Y-8499435D02*
X1250001Y-8806716D01*
X2009999Y-8499434D02*
X2010000Y-8806715D01*
X2540000Y-8402495D02*
X2540000Y-8683655D01*
X3560000Y-8402495D02*
X3560000Y-8683655D01*
X-7958686Y-1334878D02*
X-8064752Y-1440943D01*
X-7958686Y-1971274D02*
X-8107178Y-1822780D01*
X-6318199Y305611D02*
X-6000000Y623809D01*
X-6000000Y623809D02*
X-5681803Y305611D01*
X-6000000Y-3929959D02*
X-6318197Y-3611761D01*
X-5681801Y-3611761D02*
X-6000000Y-3929959D01*
X-4041314Y-1971272D02*
X-3723116Y-1653075D01*
X-3723116Y-1653075D02*
X-4041314Y-1334876D01*
X-8276884Y-1653075D02*
X-8679935Y-1589436D01*
X-8340523Y-1250023D01*
X-8276884Y-1653075D01*
G36*
X-8276884Y-1653075D02*
G01*
X-8679935Y-1589436D01*
X-8340523Y-1250023D01*
X-8276884Y-1653075D01*
G37*
X-670378Y-4403075D02*
X-1469622Y-4403074D01*
X-670378Y-5523076D02*
X-1469622Y-5523075D01*
X4759189Y-5141380D02*
X4911694Y-5293881D01*
X5268306Y-4632269D02*
X5420811Y-4784770D01*
X-10672499Y1433284D02*
X-10672500Y1740565D01*
X-9912500Y1433285D02*
X-9912501Y1740566D01*
X-10679999Y-2379436D02*
X-10679998Y-2686715D01*
X-9920002Y-2379435D02*
X-9920001Y-2686714D01*
D11*
X-5270000Y-6755575D02*
G75*
G02*
X-5370000Y-6755575I-50000J0D01*
G01*
X-5370000Y-6755575D02*
G75*
G02*
X-5270000Y-6755575I50000J0D01*
G01*
D12*
X1547499Y-5883075D02*
X1547501Y-4473075D01*
X3867499Y-5873075D02*
X3867501Y-4473076D01*
X1597501Y-6253074D02*
X1267499Y-6493075D01*
X1267500Y-6013075D01*
X1597501Y-6253074D01*
G36*
X1597501Y-6253074D02*
G01*
X1267499Y-6493075D01*
X1267500Y-6013075D01*
X1597501Y-6253074D01*
G37*
X4000001Y-8019435D02*
X4000002Y-8326716D01*
X4760000Y-8019434D02*
X4760001Y-8326715D01*
X-8058308Y-4183883D02*
X-8210811Y-4031381D01*
X-7549189Y-3674769D02*
X-7701692Y-3522267D01*
X5589057Y2774412D02*
X8417488Y-54015D01*
X7922512Y5107865D02*
X5589057Y2774412D01*
X8141694Y-3292269D02*
X7989189Y-3444770D01*
X8650811Y-3801380D02*
X8498306Y-3953881D01*
X-8222500Y1740565D02*
X-8222499Y1433284D01*
X-7462501Y1740566D02*
X-7462500Y1433285D01*
X163639Y12076925D02*
X-143642Y12076924D01*
X163640Y11316926D02*
X-143641Y11316925D01*
X-10620000Y3456925D02*
X-10620000Y4256925D01*
X-10620000Y3456925D02*
X-10620000Y2656925D01*
X-7500000Y3456925D02*
X-7500000Y4256925D01*
X-7500000Y3456925D02*
X-7500000Y2656925D01*
X-7219999Y4516924D02*
X-7549999Y4756925D01*
X-7220000Y4996925D01*
X-7219999Y4516924D01*
G36*
X-7219999Y4516924D02*
G01*
X-7549999Y4756925D01*
X-7220000Y4996925D01*
X-7219999Y4516924D01*
G37*
X3723116Y-1673075D02*
X4058992Y-2008951D01*
X4058993Y-1337199D02*
X3723116Y-1673075D01*
X5664124Y267933D02*
X6000000Y603809D01*
X6000000Y603809D02*
X6335876Y267932D01*
X6000000Y-3949959D02*
X5664124Y-3614082D01*
X6335876Y-3614083D02*
X6000000Y-3949959D01*
X7941007Y-2008951D02*
X8064752Y-1885207D01*
X7941008Y-1337199D02*
X8107178Y-1503370D01*
X8679934Y-1736715D02*
X8340523Y-2076126D01*
X8276884Y-1673075D01*
X8679934Y-1736715D01*
G36*
X8679934Y-1736715D02*
G01*
X8340523Y-2076126D01*
X8276884Y-1673075D01*
X8679934Y-1736715D01*
G37*
X-4649999Y-5809216D02*
X-4649999Y-5501934D01*
X-3889999Y-5809216D02*
X-3889999Y-5501934D01*
X-1067500Y-6043075D02*
X-1867500Y-6043075D01*
X-1067500Y-6043075D02*
X-267500Y-6043075D01*
X-1067500Y-9163075D02*
X-1867500Y-9163075D01*
X-1067500Y-9163075D02*
X-267500Y-9163075D01*
X-2127498Y-5763076D02*
X-2367502Y-6093080D01*
X-2607500Y-5763075D01*
X-2127498Y-5763076D01*
G36*
X-2127498Y-5763076D02*
G01*
X-2367502Y-6093080D01*
X-2607500Y-5763075D01*
X-2127498Y-5763076D01*
G37*
X-4787230Y2595228D02*
X-4451697Y2259695D01*
X-4048303Y3334155D02*
X-3712770Y2998622D01*
X3589939Y354265D02*
X3372660Y136984D01*
X4127340Y-183134D02*
X3910061Y-400415D01*
X-4257500Y-8180908D02*
X-4257500Y-7965236D01*
X-3537500Y-8180908D02*
X-3537500Y-7965236D01*
X153640Y10016925D02*
X-153641Y10016924D01*
X153641Y9256926D02*
X-153640Y9256925D01*
X-5697341Y1846864D02*
X-5480060Y1629584D01*
X-5159940Y2384266D02*
X-4942659Y2166986D01*
X-107836Y11026925D02*
X107836Y11026925D01*
X-107836Y10306925D02*
X107836Y10306925D01*
X-3749997Y11226925D02*
X-3749998Y10626921D01*
X-3050000Y11926921D02*
X-2819998Y11926925D01*
X-3049996Y9926924D02*
X-2820000Y9926921D01*
X-2119998Y10626925D02*
X-2120001Y11226925D01*
X-3749997Y11226925D02*
G75*
G02*
X-3050000Y11926921I700004J-8D01*
G01*
X-3049996Y9926924D02*
G75*
G02*
X-3749998Y10626921I-5J699997D01*
G01*
X-2819998Y11926925D02*
G75*
G02*
X-2120001Y11226925I1J-699996D01*
G01*
X-2119998Y10626925D02*
G75*
G02*
X-2820000Y9926921I-700008J4D01*
G01*
X2119999Y11226928D02*
X2120000Y10626926D01*
X3049999Y11926928D02*
X2820000Y11926928D01*
X3049999Y9926928D02*
X2820000Y9926928D01*
X3750000Y10626928D02*
X3749999Y11226930D01*
X2119999Y11226928D02*
G75*
G02*
X2820000Y11926928I700001J-1D01*
G01*
X2820000Y9926928D02*
G75*
G02*
X2120000Y10626926I-3J699997D01*
G01*
X3049999Y11926928D02*
G75*
G02*
X3749999Y11226930I1J-699999D01*
G01*
X3750000Y10626928D02*
G75*
G02*
X3049999Y9926928I-700003J3D01*
G01*
%LPC*%
D13*
X1500000Y-10488075D03*
D14*
X1500000Y-11758076D03*
X229999Y-10488075D03*
X230002Y-11758075D03*
X-1040001Y-10488076D03*
X-1040001Y-11758075D03*
D15*
X9296447Y-396627D03*
X10003553Y310477D03*
D16*
X-6360003Y-5165575D03*
X-6359999Y-6165575D03*
D17*
X-10300000Y-948073D03*
X-10300000Y21923D03*
D18*
X2820000Y-2973077D03*
X1820000Y-2973073D03*
D19*
X-4957502Y-7798071D03*
X-4957502Y-8348071D03*
D18*
X-2250000Y-2723076D03*
X-3250000Y-2723074D03*
D16*
X1630001Y-8155575D03*
X1629999Y-9150575D03*
D20*
X3050000Y-7768075D03*
X3050000Y-9318075D03*
D21*
X-6630000Y9156925D03*
D22*
X6610000Y9156925D03*
D23*
X-7590990Y-2112695D03*
D24*
X-7308148Y-2395537D03*
X-7025304Y-2678379D03*
X-6742462Y-2961223D03*
D25*
X-6459620Y-3244065D03*
D26*
X-5540380Y-3244065D03*
D27*
X-5257538Y-2961223D03*
X-4974696Y-2678379D03*
X-4691852Y-2395537D03*
D28*
X-4409010Y-2112695D03*
D29*
X-4409010Y-1193455D03*
D24*
X-4691852Y-910613D03*
X-4974696Y-627771D03*
X-5257538Y-344927D03*
D30*
X-5540380Y-62085D03*
D31*
X-6459620Y-62085D03*
D27*
X-6742462Y-344927D03*
X-7025304Y-627771D03*
X-7308148Y-910613D03*
D32*
X-7590990Y-1193455D03*
D33*
X-6000000Y-1653075D03*
D34*
X-7500Y-4963075D03*
X-2132500Y-4963075D03*
D35*
X4736447Y-4609521D03*
X5443553Y-5316629D03*
D17*
X-10292501Y1089425D03*
X-10292499Y2084425D03*
D36*
X0Y0D03*
D16*
X-10300001Y-2035576D03*
X-10299999Y-3030574D03*
D17*
X-5320000Y-6150575D03*
X-5320000Y-5180575D03*
D37*
X2057500Y-6123075D03*
X2707500Y-6123075D03*
X3357500Y-6123075D03*
X3357500Y-4223075D03*
X2707500Y-4223075D03*
X2057500Y-4223075D03*
D16*
X4380002Y-7675575D03*
X4380000Y-8670575D03*
D38*
X-7526447Y-4206629D03*
X-8233553Y-3499521D03*
D39*
X6702755Y2686024D03*
X8329099Y1059680D03*
X9637245Y2367826D03*
X8010901Y3994170D03*
D40*
X8673553Y-3269523D03*
X7966447Y-3976627D03*
D16*
X-7842499Y2084425D03*
X-7842501Y1089425D03*
D18*
X507499Y11696924D03*
X-487501Y11696926D03*
D41*
X-8110000Y4594425D03*
X-10010000Y4594425D03*
X-9060000Y2319425D03*
D42*
X7546797Y-1186941D03*
X7193242Y-833385D03*
X6839692Y-479832D03*
X6486134Y-126278D03*
D43*
X5513866Y-126278D03*
X5160310Y-479833D03*
X4806757Y-833383D03*
X4453203Y-1186941D03*
D42*
X4453203Y-2159209D03*
X4806758Y-2512765D03*
X5160308Y-2866318D03*
X5513866Y-3219872D03*
D43*
X6486134Y-3219872D03*
X6839690Y-2866317D03*
X7193243Y-2512767D03*
X7546797Y-2159209D03*
D44*
X6000000Y-1673075D03*
D17*
X-4270000Y-6153074D03*
X-4269998Y-5158076D03*
D45*
X-2205000Y-6653075D03*
X-2205000Y-7603075D03*
X-2205000Y-8553075D03*
X70000Y-8553075D03*
X70000Y-7603075D03*
X70000Y-6653075D03*
D46*
X-4833363Y3380288D03*
X-3666637Y2213562D03*
D40*
X4101785Y328710D03*
X3398215Y-374860D03*
D17*
X-3897500Y-8573072D03*
X-3897500Y-7573072D03*
D18*
X497500Y9636924D03*
X-497500Y9636926D03*
D47*
X-5680623Y2367549D03*
X-4959377Y1646301D03*
D48*
X-500000Y10666925D03*
X500000Y10666925D03*
D49*
X-3000000Y10926925D03*
D50*
X-3000000Y10926925D03*
D49*
X3000000Y10926925D03*
D51*
X3000000Y10926925D03*
%LPD*%
M02*
