G04 #@! TF.GenerationSoftware,KiCad,Pcbnew,8.0.5*
G04 #@! TF.CreationDate,2025-01-04T18:47:13-06:00*
G04 #@! TF.ProjectId,button_transmitter,62757474-6f6e-45f7-9472-616e736d6974,rev?*
G04 #@! TF.SameCoordinates,PX481dea0PY631a57d*
G04 #@! TF.FileFunction,Copper,L1,Top*
G04 #@! TF.FilePolarity,Positive*
%FSLAX46Y46*%
G04 Gerber Fmt 4.6, Leading zero omitted, Abs format (unit mm)*
G04 Created by KiCad (PCBNEW 8.0.5) date 2025-01-04 18:47:13*
%MOMM*%
%LPD*%
G01*
G04 APERTURE LIST*
G04 Aperture macros list*
%AMRoundRect*
0 Rectangle with rounded corners*
0 $1 Rounding radius*
0 $2 $3 $4 $5 $6 $7 $8 $9 X,Y pos of 4 corners*
0 Add a 4 corners polygon primitive as box body*
4,1,4,$2,$3,$4,$5,$6,$7,$8,$9,$2,$3,0*
0 Add four circle primitives for the rounded corners*
1,1,$1+$1,$2,$3*
1,1,$1+$1,$4,$5*
1,1,$1+$1,$6,$7*
1,1,$1+$1,$8,$9*
0 Add four rect primitives between the rounded corners*
20,1,$1+$1,$2,$3,$4,$5,0*
20,1,$1+$1,$4,$5,$6,$7,0*
20,1,$1+$1,$6,$7,$8,$9,0*
20,1,$1+$1,$8,$9,$2,$3,0*%
%AMRotRect*
0 Rectangle, with rotation*
0 The origin of the aperture is its center*
0 $1 length*
0 $2 width*
0 $3 Rotation angle, in degrees counterclockwise*
0 Add horizontal line*
21,1,$1,$2,0,0,$3*%
%AMFreePoly0*
4,1,14,0.334644,0.085355,0.385355,0.034644,0.400000,-0.000711,0.400000,-0.050000,0.385355,-0.085355,0.350000,-0.100000,-0.350000,-0.100000,-0.385355,-0.085355,-0.400000,-0.050000,-0.400000,0.050000,-0.385355,0.085355,-0.350000,0.100000,0.299289,0.100000,0.334644,0.085355,0.334644,0.085355,$1*%
%AMFreePoly1*
4,1,14,0.385355,0.085355,0.400000,0.050000,0.400000,0.000711,0.385355,-0.034644,0.334644,-0.085355,0.299289,-0.100000,-0.350000,-0.100000,-0.385355,-0.085355,-0.400000,-0.050000,-0.400000,0.050000,-0.385355,0.085355,-0.350000,0.100000,0.350000,0.100000,0.385355,0.085355,0.385355,0.085355,$1*%
%AMFreePoly2*
4,1,14,0.085355,0.385355,0.100000,0.350000,0.100000,-0.350000,0.085355,-0.385355,0.050000,-0.400000,-0.050000,-0.400000,-0.085355,-0.385355,-0.100000,-0.350000,-0.100000,0.299289,-0.085355,0.334644,-0.034644,0.385355,0.000711,0.400000,0.050000,0.400000,0.085355,0.385355,0.085355,0.385355,$1*%
%AMFreePoly3*
4,1,14,0.034644,0.385355,0.085355,0.334644,0.100000,0.299289,0.100000,-0.350000,0.085355,-0.385355,0.050000,-0.400000,-0.050000,-0.400000,-0.085355,-0.385355,-0.100000,-0.350000,-0.100000,0.350000,-0.085355,0.385355,-0.050000,0.400000,-0.000711,0.400000,0.034644,0.385355,0.034644,0.385355,$1*%
%AMFreePoly4*
4,1,14,0.385355,0.085355,0.400000,0.050000,0.400000,-0.050000,0.385355,-0.085355,0.350000,-0.100000,-0.299289,-0.100000,-0.334644,-0.085355,-0.385355,-0.034644,-0.400000,0.000711,-0.400000,0.050000,-0.385355,0.085355,-0.350000,0.100000,0.350000,0.100000,0.385355,0.085355,0.385355,0.085355,$1*%
%AMFreePoly5*
4,1,14,0.385355,0.085355,0.400000,0.050000,0.400000,-0.050000,0.385355,-0.085355,0.350000,-0.100000,-0.350000,-0.100000,-0.385355,-0.085355,-0.400000,-0.050000,-0.400000,-0.000711,-0.385355,0.034644,-0.334644,0.085355,-0.299289,0.100000,0.350000,0.100000,0.385355,0.085355,0.385355,0.085355,$1*%
%AMFreePoly6*
4,1,14,0.085355,0.385355,0.100000,0.350000,0.100000,-0.299289,0.085355,-0.334644,0.034644,-0.385355,-0.000711,-0.400000,-0.050000,-0.400000,-0.085355,-0.385355,-0.100000,-0.350000,-0.100000,0.350000,-0.085355,0.385355,-0.050000,0.400000,0.050000,0.400000,0.085355,0.385355,0.085355,0.385355,$1*%
%AMFreePoly7*
4,1,14,0.085355,0.385355,0.100000,0.350000,0.100000,-0.350000,0.085355,-0.385355,0.050000,-0.400000,0.000711,-0.400000,-0.034644,-0.385355,-0.085355,-0.334644,-0.100000,-0.299289,-0.100000,0.350000,-0.085355,0.385355,-0.050000,0.400000,0.050000,0.400000,0.085355,0.385355,0.085355,0.385355,$1*%
%AMFreePoly8*
4,1,19,0.500000,-0.750000,0.000000,-0.750000,0.000000,-0.744911,-0.071157,-0.744911,-0.207708,-0.704816,-0.327430,-0.627875,-0.420627,-0.520320,-0.479746,-0.390866,-0.500000,-0.250000,-0.500000,0.250000,-0.479746,0.390866,-0.420627,0.520320,-0.327430,0.627875,-0.207708,0.704816,-0.071157,0.744911,0.000000,0.744911,0.000000,0.750000,0.500000,0.750000,0.500000,-0.750000,0.500000,-0.750000,
$1*%
G04 Aperture macros list end*
G04 #@! TA.AperFunction,ComponentPad*
%ADD10R,0.635000X0.635000*%
G04 #@! TD*
G04 #@! TA.AperFunction,SMDPad,CuDef*
%ADD11C,0.635000*%
G04 #@! TD*
G04 #@! TA.AperFunction,ComponentPad*
%ADD12C,0.635000*%
G04 #@! TD*
G04 #@! TA.AperFunction,SMDPad,CuDef*
%ADD13RoundRect,0.150000X0.035355X-0.247487X0.247487X-0.035355X-0.035355X0.247487X-0.247487X0.035355X0*%
G04 #@! TD*
G04 #@! TA.AperFunction,SMDPad,CuDef*
%ADD14RoundRect,0.150000X-0.200000X0.150000X-0.200000X-0.150000X0.200000X-0.150000X0.200000X0.150000X0*%
G04 #@! TD*
G04 #@! TA.AperFunction,SMDPad,CuDef*
%ADD15RoundRect,0.150000X0.200000X-0.150000X0.200000X0.150000X-0.200000X0.150000X-0.200000X-0.150000X0*%
G04 #@! TD*
G04 #@! TA.AperFunction,SMDPad,CuDef*
%ADD16RoundRect,0.150000X0.150000X0.200000X-0.150000X0.200000X-0.150000X-0.200000X0.150000X-0.200000X0*%
G04 #@! TD*
G04 #@! TA.AperFunction,SMDPad,CuDef*
%ADD17RoundRect,0.062500X-0.112500X0.062500X-0.112500X-0.062500X0.112500X-0.062500X0.112500X0.062500X0*%
G04 #@! TD*
G04 #@! TA.AperFunction,SMDPad,CuDef*
%ADD18RoundRect,0.225000X-0.250000X0.225000X-0.250000X-0.225000X0.250000X-0.225000X0.250000X0.225000X0*%
G04 #@! TD*
G04 #@! TA.AperFunction,ComponentPad*
%ADD19C,2.200000*%
G04 #@! TD*
G04 #@! TA.AperFunction,ComponentPad*
%ADD20O,2.200000X2.200000*%
G04 #@! TD*
G04 #@! TA.AperFunction,SMDPad,CuDef*
%ADD21FreePoly0,45.000000*%
G04 #@! TD*
G04 #@! TA.AperFunction,SMDPad,CuDef*
%ADD22RoundRect,0.050000X-0.212132X-0.282843X0.282843X0.212132X0.212132X0.282843X-0.282843X-0.212132X0*%
G04 #@! TD*
G04 #@! TA.AperFunction,SMDPad,CuDef*
%ADD23FreePoly1,45.000000*%
G04 #@! TD*
G04 #@! TA.AperFunction,SMDPad,CuDef*
%ADD24FreePoly2,45.000000*%
G04 #@! TD*
G04 #@! TA.AperFunction,SMDPad,CuDef*
%ADD25RoundRect,0.050000X0.212132X-0.282843X0.282843X-0.212132X-0.212132X0.282843X-0.282843X0.212132X0*%
G04 #@! TD*
G04 #@! TA.AperFunction,SMDPad,CuDef*
%ADD26FreePoly3,45.000000*%
G04 #@! TD*
G04 #@! TA.AperFunction,SMDPad,CuDef*
%ADD27FreePoly4,45.000000*%
G04 #@! TD*
G04 #@! TA.AperFunction,SMDPad,CuDef*
%ADD28FreePoly5,45.000000*%
G04 #@! TD*
G04 #@! TA.AperFunction,SMDPad,CuDef*
%ADD29FreePoly6,45.000000*%
G04 #@! TD*
G04 #@! TA.AperFunction,SMDPad,CuDef*
%ADD30FreePoly7,45.000000*%
G04 #@! TD*
G04 #@! TA.AperFunction,HeatsinkPad*
%ADD31RotRect,1.700000X1.700000X45.000000*%
G04 #@! TD*
G04 #@! TA.AperFunction,SMDPad,CuDef*
%ADD32RoundRect,0.218750X0.218750X0.381250X-0.218750X0.381250X-0.218750X-0.381250X0.218750X-0.381250X0*%
G04 #@! TD*
G04 #@! TA.AperFunction,SMDPad,CuDef*
%ADD33RoundRect,0.150000X-0.247487X-0.035355X-0.035355X-0.247487X0.247487X0.035355X0.035355X0.247487X0*%
G04 #@! TD*
G04 #@! TA.AperFunction,SMDPad,CuDef*
%ADD34C,4.000000*%
G04 #@! TD*
G04 #@! TA.AperFunction,SMDPad,CuDef*
%ADD35RoundRect,0.100000X0.100000X-0.225000X0.100000X0.225000X-0.100000X0.225000X-0.100000X-0.225000X0*%
G04 #@! TD*
G04 #@! TA.AperFunction,SMDPad,CuDef*
%ADD36RoundRect,0.150000X0.247487X0.035355X0.035355X0.247487X-0.247487X-0.035355X-0.035355X-0.247487X0*%
G04 #@! TD*
G04 #@! TA.AperFunction,SMDPad,CuDef*
%ADD37RotRect,1.400000X1.200000X315.000000*%
G04 #@! TD*
G04 #@! TA.AperFunction,SMDPad,CuDef*
%ADD38RoundRect,0.150000X-0.035355X0.247487X-0.247487X0.035355X0.035355X-0.247487X0.247487X-0.035355X0*%
G04 #@! TD*
G04 #@! TA.AperFunction,SMDPad,CuDef*
%ADD39RoundRect,0.150000X-0.150000X0.512500X-0.150000X-0.512500X0.150000X-0.512500X0.150000X0.512500X0*%
G04 #@! TD*
G04 #@! TA.AperFunction,SMDPad,CuDef*
%ADD40RoundRect,0.062500X0.220971X0.309359X-0.309359X-0.220971X-0.220971X-0.309359X0.309359X0.220971X0*%
G04 #@! TD*
G04 #@! TA.AperFunction,SMDPad,CuDef*
%ADD41RoundRect,0.062500X-0.220971X0.309359X-0.309359X0.220971X0.220971X-0.309359X0.309359X-0.220971X0*%
G04 #@! TD*
G04 #@! TA.AperFunction,HeatsinkPad*
%ADD42RotRect,1.450000X1.450000X225.000000*%
G04 #@! TD*
G04 #@! TA.AperFunction,SMDPad,CuDef*
%ADD43RoundRect,0.150000X-0.512500X-0.150000X0.512500X-0.150000X0.512500X0.150000X-0.512500X0.150000X0*%
G04 #@! TD*
G04 #@! TA.AperFunction,SMDPad,CuDef*
%ADD44RoundRect,0.200000X-0.335876X-0.053033X-0.053033X-0.335876X0.335876X0.053033X0.053033X0.335876X0*%
G04 #@! TD*
G04 #@! TA.AperFunction,SMDPad,CuDef*
%ADD45RoundRect,0.135000X-0.226274X-0.035355X-0.035355X-0.226274X0.226274X0.035355X0.035355X0.226274X0*%
G04 #@! TD*
G04 #@! TA.AperFunction,SMDPad,CuDef*
%ADD46RoundRect,0.150000X-0.150000X-0.200000X0.150000X-0.200000X0.150000X0.200000X-0.150000X0.200000X0*%
G04 #@! TD*
G04 #@! TA.AperFunction,ComponentPad*
%ADD47C,0.600000*%
G04 #@! TD*
G04 #@! TA.AperFunction,SMDPad,CuDef*
%ADD48FreePoly8,0.000000*%
G04 #@! TD*
G04 #@! TA.AperFunction,SMDPad,CuDef*
%ADD49FreePoly8,180.000000*%
G04 #@! TD*
G04 #@! TA.AperFunction,ViaPad*
%ADD50C,0.700000*%
G04 #@! TD*
G04 #@! TA.AperFunction,Conductor*
%ADD51C,0.300000*%
G04 #@! TD*
G04 #@! TA.AperFunction,Conductor*
%ADD52C,0.500000*%
G04 #@! TD*
G04 #@! TA.AperFunction,Conductor*
%ADD53C,0.200000*%
G04 #@! TD*
G04 #@! TA.AperFunction,Conductor*
%ADD54C,0.250000*%
G04 #@! TD*
G04 APERTURE END LIST*
D10*
X1500000Y-10488075D03*
D11*
X1500000Y-11758076D03*
X229999Y-10488075D03*
X230002Y-11758075D03*
X-1040001Y-10488076D03*
D12*
X-1040001Y-11758075D03*
D13*
X9296447Y-396627D03*
X10003553Y310477D03*
D14*
X-6360003Y-5165575D03*
X-6359999Y-6165575D03*
D15*
X-10300000Y-948073D03*
X-10300000Y21923D03*
D16*
X2820000Y-2973077D03*
X1820000Y-2973073D03*
D17*
X-4957502Y-7798071D03*
X-4957502Y-8348071D03*
D16*
X-2250000Y-2723076D03*
X-3250000Y-2723074D03*
D14*
X1630001Y-8155575D03*
X1629999Y-9150575D03*
D18*
X3050000Y-7768075D03*
X3050000Y-9318075D03*
D19*
X-6630000Y9156925D03*
D20*
X6610000Y9156925D03*
D21*
X-7590990Y-2112695D03*
D22*
X-7308148Y-2395537D03*
X-7025304Y-2678379D03*
X-6742462Y-2961223D03*
D23*
X-6459620Y-3244065D03*
D24*
X-5540380Y-3244065D03*
D25*
X-5257538Y-2961223D03*
X-4974696Y-2678379D03*
X-4691852Y-2395537D03*
D26*
X-4409010Y-2112695D03*
D27*
X-4409010Y-1193455D03*
D22*
X-4691852Y-910613D03*
X-4974696Y-627771D03*
X-5257538Y-344927D03*
D28*
X-5540380Y-62085D03*
D29*
X-6459620Y-62085D03*
D25*
X-6742462Y-344927D03*
X-7025304Y-627771D03*
X-7308148Y-910613D03*
D30*
X-7590990Y-1193455D03*
D31*
X-6000000Y-1653075D03*
D32*
X-7500Y-4963075D03*
X-2132500Y-4963075D03*
D33*
X4736447Y-4609521D03*
X5443553Y-5316629D03*
D15*
X-10292501Y1089425D03*
X-10292499Y2084425D03*
D34*
X0Y0D03*
D14*
X-10300001Y-2035576D03*
X-10299999Y-3030574D03*
D15*
X-5320000Y-6150575D03*
X-5320000Y-5180575D03*
D35*
X2057500Y-6123075D03*
X2707500Y-6123075D03*
X3357500Y-6123075D03*
X3357500Y-4223075D03*
X2707500Y-4223075D03*
X2057500Y-4223075D03*
D14*
X4380002Y-7675575D03*
X4380000Y-8670575D03*
D36*
X-7526447Y-4206629D03*
X-8233553Y-3499521D03*
D37*
X6702755Y2686024D03*
X8329099Y1059680D03*
X9637245Y2367826D03*
X8010901Y3994170D03*
D38*
X8673553Y-3269523D03*
X7966447Y-3976627D03*
D14*
X-7842499Y2084425D03*
X-7842501Y1089425D03*
D16*
X507499Y11696924D03*
X-487501Y11696926D03*
D39*
X-8110000Y4594425D03*
X-10010000Y4594425D03*
X-9060000Y2319425D03*
D40*
X7546797Y-1186941D03*
X7193242Y-833385D03*
X6839692Y-479832D03*
X6486134Y-126278D03*
D41*
X5513866Y-126278D03*
X5160310Y-479833D03*
X4806757Y-833383D03*
X4453203Y-1186941D03*
D40*
X4453203Y-2159209D03*
X4806758Y-2512765D03*
X5160308Y-2866318D03*
X5513866Y-3219872D03*
D41*
X6486134Y-3219872D03*
X6839690Y-2866317D03*
X7193243Y-2512767D03*
X7546797Y-2159209D03*
D42*
X6000000Y-1673075D03*
D15*
X-4270000Y-6153074D03*
X-4269998Y-5158076D03*
D43*
X-2205000Y-6653075D03*
X-2205000Y-7603075D03*
X-2205000Y-8553075D03*
X70000Y-8553075D03*
X70000Y-7603075D03*
X70000Y-6653075D03*
D44*
X-4833363Y3380288D03*
X-3666637Y2213562D03*
D38*
X4101785Y328710D03*
X3398215Y-374860D03*
D15*
X-3897500Y-8573072D03*
X-3897500Y-7573072D03*
D16*
X497500Y9636924D03*
X-497500Y9636926D03*
D45*
X-5680623Y2367549D03*
X-4959377Y1646301D03*
D46*
X-500000Y10666925D03*
X500000Y10666925D03*
D47*
X-3000000Y10926925D03*
D48*
X-3000000Y10926925D03*
D47*
X3000000Y10926925D03*
D49*
X3000000Y10926925D03*
D50*
X-6710000Y-7613075D03*
X-7530000Y-6783075D03*
X-3420000Y-6843075D03*
X5848862Y6066131D03*
X-8730000Y-273075D03*
X8170000Y2526925D03*
X1730000Y8206925D03*
X-4020000Y7086925D03*
X4490000Y3776925D03*
X-1380000Y-2723075D03*
X-5230000Y-7053075D03*
X7410000Y-4543075D03*
X-8413720Y-1824957D03*
X2700000Y-5523075D03*
X-10040000Y3026925D03*
X80000Y4826925D03*
X4770000Y-5963075D03*
X2330000Y-2103075D03*
X-6270000Y1206925D03*
X-8910000Y5776925D03*
X8290000Y-1673075D03*
X-3330000Y-5363075D03*
X7720000Y6236925D03*
X-4340000Y4626925D03*
X3899999Y7432245D03*
X4120000Y-9523075D03*
X536898Y7106031D03*
X-1741551Y7086925D03*
X-7250000Y3256925D03*
X-8950000Y-4683075D03*
X-4080000Y406925D03*
X-4960000Y826925D03*
X-9620000Y-4033075D03*
X-2090000Y-10283075D03*
X6480000Y-7513075D03*
X-4380000Y-3393075D03*
X9510000Y-2403075D03*
X-5240000Y5666925D03*
X-2550000Y4826925D03*
X2730000Y4776925D03*
D51*
X-4640000Y-8573072D02*
X-3897500Y-8573072D01*
X-5280000Y-8573072D02*
X-4640000Y-8573072D01*
X-5540003Y-8573072D02*
X-5280000Y-8573072D01*
D52*
X-6710000Y-7603075D02*
X-7530000Y-6783075D01*
D53*
X-4957502Y-8348071D02*
X-4865001Y-8348071D01*
D51*
X-2235002Y-8583067D02*
X-2205004Y-8553068D01*
X-6500000Y-7613075D02*
X-5540003Y-8573072D01*
X-6710000Y-7613075D02*
X-6500000Y-7613075D01*
D52*
X-6710000Y-7613075D02*
X-6710000Y-7603075D01*
D53*
X-4957502Y-8348071D02*
X-5054999Y-8348071D01*
D51*
X-2205004Y-8553068D02*
X-1357501Y-8553076D01*
X-1077497Y-6913070D02*
X-817504Y-6653068D01*
X-1077505Y-8273075D02*
X-1077497Y-6913070D01*
X-4999Y-4793064D02*
X70004Y-4868069D01*
X-3897502Y-8583069D02*
X-2235002Y-8583067D01*
X-817504Y-6653068D02*
X70000Y-6653069D01*
X-1357501Y-8553076D02*
X-1077505Y-8273075D01*
D53*
X-5054999Y-8348071D02*
X-5280000Y-8573072D01*
D51*
X70004Y-4868069D02*
X70000Y-6653069D01*
D53*
X-4865001Y-8348071D02*
X-4640000Y-8573072D01*
D51*
X-2970000Y10896925D02*
X-3000000Y10926925D01*
D53*
X-4957501Y-7573071D02*
X-4777500Y-7393070D01*
X9296446Y-396627D02*
X9296446Y-666629D01*
X-1380000Y-2723075D02*
X-1380001Y-2723076D01*
X-8760000Y3326925D02*
X-9050000Y3616925D01*
X-7515000Y-9498075D02*
X-9445000Y-7568075D01*
D51*
X1820000Y-2613075D02*
X1820000Y-2973073D01*
D53*
X-8740000Y3326925D02*
X-8760000Y3326925D01*
X-5962499Y-6860576D02*
X-5380000Y-6860576D01*
X7966446Y-3285970D02*
X7966446Y-3976627D01*
X-10299999Y-4953075D02*
X-10299999Y-3030574D01*
X-7025304Y-2678379D02*
X-7480000Y-3133075D01*
X4797107Y-5963075D02*
X4770000Y-5963075D01*
X-4957501Y-7653075D02*
X-4957501Y-7573071D01*
X-7045000Y-9498075D02*
X-7515000Y-9498075D01*
X-1040004Y-11758075D02*
X-2165000Y-11758075D01*
D51*
X-1190000Y11696925D02*
X-500002Y11696925D01*
D53*
X-8880000Y-273075D02*
X-9550000Y-943075D01*
X-4957501Y-7798069D02*
X-4957501Y-7653075D01*
X-3500000Y-10423075D02*
X-6120000Y-10423075D01*
X-9260000Y3586925D02*
X-9000000Y3326925D01*
X-7867107Y-3133075D02*
X-8233553Y-3499521D01*
D51*
X-8413720Y-3319354D02*
X-8413720Y-1824957D01*
X2882500Y-9150575D02*
X3050000Y-9318075D01*
D53*
X8170000Y3835071D02*
X8170000Y2526925D01*
D51*
X-500002Y11696925D02*
X-500000Y11696927D01*
D53*
X-8530000Y3326925D02*
X-8910000Y3706925D01*
X6353551Y-1673075D02*
X7193243Y-2512767D01*
X-4777500Y-7393070D02*
X-3857501Y-7393070D01*
X-4957501Y-7525574D02*
X-4957501Y-7653075D01*
X8329099Y1059680D02*
X8170000Y1218779D01*
X7193243Y-2512767D02*
X7966446Y-3285970D01*
D51*
X-10010000Y4594425D02*
X-9927500Y4594425D01*
D53*
X-9445000Y-7568075D02*
X-9445000Y-7208075D01*
X-3897500Y-7320575D02*
X-3420000Y-6843075D01*
X-5230000Y-7053075D02*
X-5230000Y-7253075D01*
D51*
X4120000Y-9523075D02*
X3915000Y-9318075D01*
D53*
X-5050000Y-7433075D02*
X-4957501Y-7525574D01*
X-6120000Y-10423075D02*
X-7045000Y-9498075D01*
X8010901Y3994170D02*
X8170000Y3835071D01*
D51*
X-1990000Y10896925D02*
X-1190000Y11696925D01*
D53*
X-9827499Y-3030574D02*
X-10299999Y-3030574D01*
D51*
X-8233553Y-3499521D02*
X-8413720Y-3319354D01*
D53*
X9296446Y-666629D02*
X8290000Y-1673075D01*
X-9000000Y3326925D02*
X-8740000Y3326925D01*
X-3897500Y-7573072D02*
X-3897500Y-7320575D01*
D51*
X-3897500Y-7563069D02*
X-2244997Y-7563069D01*
D53*
X-6359999Y-6165575D02*
X-6359999Y-6463076D01*
X-5230000Y-7253075D02*
X-5050000Y-7433075D01*
X-10299999Y-6353076D02*
X-10299999Y-4953075D01*
D51*
X3915000Y-9318075D02*
X3050000Y-9318075D01*
X-2244997Y-7563069D02*
X-2204999Y-7603071D01*
D53*
X-10320000Y-4953075D02*
X-10440000Y-4833075D01*
X-10881630Y-3953075D02*
X-10358370Y-3953075D01*
X-9445000Y-7208075D02*
X-10299999Y-6353076D01*
X-10299999Y-4953075D02*
X-10320000Y-4953075D01*
X8170000Y1218779D02*
X8170000Y2526925D01*
X-5050000Y-7433075D02*
X-4817505Y-7433075D01*
X-1380001Y-2723076D02*
X-2250000Y-2723076D01*
X6000000Y-1673075D02*
X6353551Y-1673075D01*
X-10440000Y-4833075D02*
X-10440000Y-3993075D01*
X-7730000Y3326925D02*
X-8530000Y3326925D01*
X5443553Y-5316629D02*
X5453554Y-5316629D01*
X7966446Y-3976627D02*
X7966446Y-3986629D01*
X-8730000Y-273075D02*
X-8880000Y-273075D01*
D51*
X2330000Y-2103075D02*
X1820000Y-2613075D01*
D53*
X-4817505Y-7433075D02*
X-4777500Y-7393070D01*
X-6359999Y-6463076D02*
X-5962499Y-6860576D01*
X-2165000Y-11758075D02*
X-3500000Y-10423075D01*
X-7025304Y-2678379D02*
X-6000000Y-1653075D01*
X-8740000Y3326925D02*
X-8530000Y3326925D01*
D51*
X1629999Y-9150575D02*
X2882500Y-9150575D01*
D53*
X-9550000Y-943075D02*
X-9550000Y-2753075D01*
X-7480000Y-3133075D02*
X-7867107Y-3133075D01*
X-7690000Y3366925D02*
X-7730000Y3326925D01*
D51*
X2700000Y-5523075D02*
X2707500Y-5530575D01*
D53*
X-4269998Y-5158076D02*
X-3427500Y-5158076D01*
X7966446Y-3986629D02*
X7410000Y-4543075D01*
X5443553Y-5316629D02*
X4797107Y-5963075D01*
X-9550000Y-2753075D02*
X-9827499Y-3030574D01*
D51*
X-1990000Y10896925D02*
X-2970000Y10896925D01*
X2707500Y-5530575D02*
X2707500Y-6123075D01*
X1980000Y10906925D02*
X1739998Y10666923D01*
X519998Y10676922D02*
X509999Y10666923D01*
X1739998Y10666923D02*
X509999Y10666923D01*
X519998Y11696923D02*
X519998Y10676922D01*
X1980000Y10906925D02*
X2980000Y10906925D01*
X2980000Y10906925D02*
X3000000Y10926925D01*
D52*
X5400001Y-9513074D02*
X5400001Y-7533075D01*
D51*
X860000Y-4143075D02*
X860000Y-5533075D01*
X3050000Y-7718075D02*
X3050000Y-6963075D01*
D53*
X-7190000Y-3394615D02*
X-6749534Y-2954149D01*
D51*
X1450000Y-6123075D02*
X2057500Y-6123075D01*
X1832500Y-6955575D02*
X1840000Y-6963075D01*
D53*
X-6742462Y-2961222D02*
X-6742462Y-2965537D01*
D51*
X2057500Y-6955575D02*
X2050000Y-6963075D01*
X2057500Y-6123075D02*
X2057500Y-6955575D01*
D52*
X4334997Y-10578078D02*
X5400001Y-9513074D01*
D53*
X-6620001Y-4206630D02*
X-6620000Y-4206629D01*
D52*
X5090001Y-6963075D02*
X5400001Y-7273075D01*
X1310000Y-6963075D02*
X1840000Y-6963075D01*
D53*
X-5320000Y-5413075D02*
X-5320000Y-4513075D01*
X-6360003Y-5408074D02*
X-6360003Y-4559524D01*
D52*
X670000Y-7603075D02*
X1310000Y-6963075D01*
X3064997Y-10578078D02*
X4334997Y-10578078D01*
D51*
X660000Y-3943075D02*
X860000Y-4143075D01*
X-7526447Y-4206629D02*
X-6620000Y-4206629D01*
X-6313554Y-4513075D02*
X-6293554Y-4493075D01*
D52*
X3050000Y-6963075D02*
X4460000Y-6963075D01*
D51*
X-5430000Y-4493075D02*
X-3600000Y-4493075D01*
D53*
X-6360003Y-4559524D02*
X-6313554Y-4513075D01*
D51*
X-3600000Y-4493075D02*
X-3050000Y-3943075D01*
X-6293554Y-4493075D02*
X-5470000Y-4493075D01*
D52*
X2925000Y-7593079D02*
X3050003Y-7718076D01*
D54*
X4380002Y-7523075D02*
X5390001Y-7523075D01*
D51*
X860000Y-5533075D02*
X1450000Y-6123075D01*
X4380002Y-7043073D02*
X4460000Y-6963075D01*
D54*
X5390001Y-7523075D02*
X5400001Y-7533075D01*
D51*
X-3050000Y-3943075D02*
X660000Y-3943075D01*
D52*
X1499999Y-11758076D02*
X1884999Y-11758076D01*
D51*
X4380002Y-7523075D02*
X4380002Y-7043073D01*
D53*
X-7526447Y-4206629D02*
X-7190000Y-3870182D01*
D52*
X5400001Y-7533075D02*
X5400001Y-7273075D01*
X4460000Y-6963075D02*
X5090001Y-6963075D01*
X70000Y-7603075D02*
X670000Y-7603075D01*
X1884999Y-11758076D02*
X3064997Y-10578078D01*
X1840000Y-6963075D02*
X2050000Y-6963075D01*
D53*
X-5440000Y-4523075D02*
X-5450000Y-4513075D01*
D51*
X-6620000Y-4206629D02*
X-6313554Y-4513075D01*
D52*
X2050000Y-6963075D02*
X3050000Y-6963075D01*
D53*
X-7190000Y-3870182D02*
X-7190000Y-3394615D01*
X-3250000Y-1309521D02*
X-3503223Y-1056298D01*
X-4309230Y-513845D02*
X-4304906Y-509521D01*
X-3740000Y-763075D02*
X-3768223Y-791298D01*
X2290000Y3336925D02*
X-1610000Y3336925D01*
X-3768223Y-791298D02*
X-3503223Y-1056298D01*
X5160310Y-479833D02*
X4810000Y-129523D01*
X-3310000Y1636925D02*
X-3310000Y26925D01*
X-3740000Y-403075D02*
X-3850770Y-513845D01*
X4810000Y-129523D02*
X4810000Y816925D01*
X4810000Y816925D02*
X2290000Y3336925D01*
X-3978223Y-581298D02*
X-3768223Y-791298D01*
X-4050000Y-509521D02*
X-3978223Y-581298D01*
X-3310000Y26925D02*
X-3740000Y-403075D01*
X-1610000Y3336925D02*
X-3310000Y1636925D01*
X-3250000Y-2723074D02*
X-3250000Y-1309521D01*
X-3978223Y-581298D02*
X-4047157Y-512364D01*
X-4309230Y-513845D02*
X-4698925Y-903540D01*
X-3850770Y-513845D02*
X-4309230Y-513845D01*
X-3740000Y-403075D02*
X-3740000Y-763075D01*
X-4304906Y-509521D02*
X-4050000Y-509521D01*
X-10300000Y-2035575D02*
X-10300001Y-2035576D01*
X-10300000Y-948073D02*
X-10300000Y-2035575D01*
X-6500000Y-8273075D02*
X-5590000Y-9183075D01*
X-7301074Y-903541D02*
X-7771540Y-433075D01*
X-9080000Y-3613075D02*
X-8190000Y-4503075D01*
X-7771540Y-433075D02*
X-7970000Y-433075D01*
X-6990000Y-8273075D02*
X-6500000Y-8273075D01*
X-5590000Y-9183075D02*
X194999Y-9183075D01*
X-8190000Y-4503075D02*
X-8190000Y-7073075D01*
X-7970000Y-433075D02*
X-9080000Y-1543075D01*
X-9080000Y-1543075D02*
X-9080000Y-3613075D01*
X-8190000Y-7073075D02*
X-6990000Y-8273075D01*
X194999Y-9183075D02*
X1500000Y-10488076D01*
X-2133274Y3746925D02*
X2480000Y3746925D01*
X-6700000Y-8673075D02*
X-7180000Y-8673075D01*
X2480000Y3746925D02*
X5240000Y986925D01*
X-4080000Y406925D02*
X-4080000Y266925D01*
X-8600000Y-6873075D02*
X-8950000Y-6523075D01*
X5240000Y147588D02*
X5513866Y-126278D01*
X-4080000Y266925D02*
X-4974696Y-627771D01*
X-5770000Y-9603075D02*
X-6700000Y-8673075D01*
X-4080000Y406925D02*
X-4080000Y1800199D01*
X-4080000Y1800199D02*
X-2133274Y3746925D01*
X-8600000Y-7253075D02*
X-8600000Y-6873075D01*
X229999Y-10488075D02*
X-655001Y-9603075D01*
X5240000Y986925D02*
X5240000Y147588D01*
X-7180000Y-8673075D02*
X-8600000Y-7253075D01*
X-8950000Y-6523075D02*
X-8950000Y-4683075D01*
X-655001Y-9603075D02*
X-5770000Y-9603075D01*
X-4890000Y676925D02*
X-4890000Y22610D01*
X-9620000Y-4033075D02*
X-9620000Y-6443075D01*
X2710000Y4126925D02*
X6720000Y116925D01*
X-2230000Y-11103075D02*
X-424998Y-11103075D01*
X-2900000Y4126925D02*
X2710000Y4126925D01*
X-7354314Y-9083075D02*
X-6890000Y-9083075D01*
X-4890000Y22610D02*
X-5257538Y-344928D01*
X-5096637Y1930288D02*
X-2900000Y4126925D01*
X-4960000Y826925D02*
X-4960000Y1536925D01*
X-5950000Y-10023075D02*
X-3310000Y-10023075D01*
X-4960000Y826925D02*
X-4840000Y706925D01*
X-4840000Y706925D02*
X-4790000Y706925D01*
X-9020000Y-7417389D02*
X-7354314Y-9083075D01*
X-4960000Y1536925D02*
X-5096637Y1673562D01*
X-5096637Y1673562D02*
X-5096637Y1930288D01*
X-3310000Y-10023075D02*
X-2230000Y-11103075D01*
X230002Y-11758075D02*
X230002Y-11753073D01*
X-424998Y-11103075D02*
X230002Y-11758075D01*
X-6890000Y-9083075D02*
X-5950000Y-10023075D01*
X-4960000Y826925D02*
X-4960000Y746925D01*
X-9020000Y-7043075D02*
X-9020000Y-7417389D01*
X-9620000Y-6443075D02*
X-9020000Y-7043075D01*
X-4960000Y746925D02*
X-4890000Y676925D01*
X-4811540Y-3393075D02*
X-5250465Y-2954150D01*
X6620000Y-7723075D02*
X6450000Y-7723075D01*
X5180000Y2296925D02*
X7300000Y176925D01*
X7300000Y-19524D02*
X6839692Y-479832D01*
X8000000Y5486925D02*
X7760000Y5486925D01*
X-2090000Y-10283075D02*
X-1884999Y-10488076D01*
X6480000Y-7513075D02*
X6830000Y-7513075D01*
X11080000Y2046925D02*
X11080000Y2406925D01*
X6945000Y-7398075D02*
X6620000Y-7723075D01*
X6830000Y-7513075D02*
X6945000Y-7398075D01*
X10003554Y310477D02*
X10280000Y586923D01*
X10280000Y1246925D02*
X11080000Y2046925D01*
X5180000Y2906925D02*
X5180000Y2296925D01*
X11080000Y2406925D02*
X8000000Y5486925D01*
X6945000Y-7398075D02*
X10240000Y-4103075D01*
X10280000Y586923D02*
X10280000Y1246925D01*
X7760000Y5486925D02*
X5180000Y2906925D01*
X10240000Y-4103075D02*
X10240000Y74031D01*
X7300000Y176925D02*
X7300000Y-19524D01*
X-4380000Y-3393075D02*
X-4811540Y-3393075D01*
X-1884999Y-10488076D02*
X-1040002Y-10488076D01*
X10240000Y74031D02*
X10003554Y310477D01*
D51*
X497500Y9144425D02*
X497500Y9636924D01*
X-8110000Y5136925D02*
X-4660000Y8586925D01*
X-4660000Y8586925D02*
X-60000Y8586925D01*
X-60000Y8586925D02*
X497500Y9144425D01*
X-8110000Y4594425D02*
X-8110000Y5136925D01*
D53*
X-10292499Y2096925D02*
X-9282500Y2096925D01*
X-9282500Y2096925D02*
X-9060000Y2319425D01*
X-7842501Y2096925D02*
X-8837500Y2096925D01*
X-8837500Y2096925D02*
X-9060000Y2319425D01*
X9637245Y914170D02*
X9637245Y2367826D01*
X7546797Y-1176278D02*
X9637245Y914170D01*
X7546797Y-1186941D02*
X7546797Y-1176278D01*
X7990000Y-36627D02*
X7193242Y-833385D01*
X6702755Y1364170D02*
X7990000Y76925D01*
X7990000Y76925D02*
X7990000Y-36627D01*
X6702755Y2686024D02*
X6702755Y1364170D01*
X-4270000Y-6153074D02*
X-5437498Y-6153074D01*
D51*
X-510000Y9636926D02*
X-510000Y10666926D01*
X-990001Y9156925D02*
X-6630000Y9156925D01*
X-510000Y10666926D02*
X-509999Y10666927D01*
X-510000Y9636926D02*
X-990001Y9156925D01*
D53*
X-10300000Y1081926D02*
X-10292501Y1089425D01*
X-10300000Y21923D02*
X-10300000Y1081926D01*
X-7484314Y396925D02*
X-9924998Y396925D01*
X-6742462Y-344927D02*
X-7484314Y396925D01*
X-9924998Y396925D02*
X-10300000Y21923D01*
X-10280001Y1076925D02*
X-10292501Y1089425D01*
D51*
X-2204999Y-4868070D02*
X-2205002Y-6653073D01*
X-2129999Y-4793074D02*
X-2204999Y-4868070D01*
D53*
X70000Y-8553075D02*
X1229999Y-8553075D01*
X1630001Y-8203076D02*
X1970000Y-8543075D01*
X1229999Y-8553075D02*
X1630001Y-8153073D01*
X1630001Y-8143075D02*
X1630001Y-8203076D01*
X1970000Y-8543075D02*
X4380000Y-8543075D01*
X-4741370Y-4043075D02*
X-5540380Y-3244065D01*
X940000Y-3443075D02*
X-3340000Y-3443075D01*
X-3340000Y-3443075D02*
X-3940000Y-4043075D01*
X1620000Y-4853075D02*
X1400000Y-4633075D01*
X3357500Y-5100575D02*
X3110000Y-4853075D01*
X-3940000Y-4043075D02*
X-4741370Y-4043075D01*
X1400000Y-3903075D02*
X940000Y-3443075D01*
X3110000Y-4853075D02*
X1620000Y-4853075D01*
X3357500Y-6123075D02*
X3357500Y-5100575D01*
X1400000Y-4633075D02*
X1400000Y-3903075D01*
X7546797Y-2159209D02*
X7579027Y-2159209D01*
X6730000Y-4286629D02*
X6550000Y-4106629D01*
X3730000Y-2973077D02*
X3921564Y-2973077D01*
X8980000Y-3575969D02*
X8980000Y-4063075D01*
X4012229Y-2600183D02*
X4012229Y-2882412D01*
X4736447Y-4606628D02*
X5236446Y-4106629D01*
X-4833363Y3380288D02*
X-4833363Y3214810D01*
X270000Y8066925D02*
X1360000Y9156925D01*
X6730000Y-5043075D02*
X6730000Y-4403075D01*
X5236446Y-4106629D02*
X6450000Y-4106629D01*
X6450000Y-4106629D02*
X6550000Y-4106629D01*
X4453203Y-2159209D02*
X4012229Y-2600183D01*
X4453203Y-1186941D02*
X3303535Y-2336610D01*
X4102894Y-2973077D02*
X4296446Y-3166629D01*
X7546797Y-2159209D02*
X7563240Y-2159209D01*
X8673554Y-3269523D02*
X8980000Y-3575969D01*
X1360000Y9156925D02*
X6610000Y9156925D01*
X3730000Y-2973077D02*
X4102894Y-2973077D01*
X2820000Y-2820145D02*
X2820000Y-2973077D01*
X6730000Y-4153075D02*
X6776446Y-4106629D01*
X7563240Y-2159209D02*
X8673554Y-3269523D01*
D51*
X9510000Y-2403075D02*
X8673554Y-3239521D01*
D53*
X4462892Y-3333075D02*
X4371446Y-3241629D01*
X2820000Y-2973077D02*
X3730000Y-2973077D01*
X6776446Y-4106629D02*
X7065000Y-3818075D01*
X-6300000Y5166925D02*
X-6300000Y6186925D01*
X6853242Y-2866317D02*
X7360000Y-3373075D01*
X-6300000Y5166925D02*
X-4830000Y3696925D01*
X6910000Y-5223075D02*
X6730000Y-5043075D01*
X4371446Y-3241629D02*
X4296446Y-3166629D01*
X8980000Y-4063075D02*
X7820000Y-5223075D01*
X7820000Y-5223075D02*
X6910000Y-5223075D01*
X3303535Y-2336610D02*
X3039961Y-2600183D01*
X4012229Y-2882412D02*
X4102894Y-2973077D01*
X4693551Y-3333075D02*
X4462892Y-3333075D01*
X4693551Y-3333075D02*
X4693551Y-3563734D01*
X6450000Y-4106629D02*
X6650000Y-4106629D01*
X-4833363Y3214810D02*
X-5680623Y2367550D01*
X4736447Y-4609521D02*
X4736447Y-4606628D01*
X4693551Y-3563734D02*
X4736446Y-3606629D01*
X-4830000Y3696925D02*
X-4830000Y3666925D01*
X5160308Y-2866318D02*
X4693551Y-3333075D01*
X4693551Y-3563734D02*
X5236446Y-4106629D01*
X6650000Y-4106629D02*
X6776446Y-4106629D01*
X3303535Y-2336610D02*
X2820000Y-2820145D01*
D51*
X2707500Y-4223075D02*
X2707500Y-3085577D01*
D53*
X7360000Y-3373075D02*
X7360000Y-3523075D01*
X4371446Y-3241629D02*
X4736446Y-3606629D01*
X2057500Y-4223075D02*
X2707500Y-4223075D01*
X3921564Y-2973077D02*
X4012229Y-2882412D01*
X6839690Y-2866317D02*
X6853242Y-2866317D01*
X6730000Y-4403075D02*
X6730000Y-4286629D01*
D51*
X8673554Y-3239521D02*
X8673554Y-3269523D01*
D53*
X6730000Y-4403075D02*
X6730000Y-4153075D01*
X-4420000Y8066925D02*
X270000Y8066925D01*
X-6300000Y6186925D02*
X-4420000Y8066925D01*
D51*
X2707500Y-3085577D02*
X2820000Y-2973077D01*
D53*
X7360000Y-3523075D02*
X7065000Y-3818075D01*
D52*
X3023355Y0D02*
X0Y0D01*
X3398215Y-374860D02*
X3023355Y0D01*
D53*
X4806757Y-833383D02*
X4280000Y-306626D01*
X4280000Y-306626D02*
X4280000Y196925D01*
G04 #@! TA.AperFunction,Conductor*
G36*
X911865Y-10806613D02*
G01*
X948280Y-10855781D01*
X951507Y-10867919D01*
X961132Y-10916303D01*
X961133Y-10916307D01*
X1005448Y-10982628D01*
X1071769Y-11026943D01*
X1116231Y-11035787D01*
X1130241Y-11038574D01*
X1130246Y-11038574D01*
X1130252Y-11038576D01*
X1130253Y-11038576D01*
X1486142Y-11038576D01*
X1498300Y-11042526D01*
X1513856Y-11038576D01*
X1728387Y-11038576D01*
X1786578Y-11057483D01*
X1822542Y-11106983D01*
X1822542Y-11168169D01*
X1798390Y-11207581D01*
X1764968Y-11241002D01*
X1710451Y-11268778D01*
X1657083Y-11262463D01*
X1654037Y-11261201D01*
X1635224Y-11253409D01*
X1635221Y-11253408D01*
X1635223Y-11253408D01*
X1500934Y-11235729D01*
X1500082Y-11235322D01*
X1499064Y-11235729D01*
X1364774Y-11253408D01*
X1238764Y-11305603D01*
X1238762Y-11305604D01*
X1130562Y-11388629D01*
X1130552Y-11388639D01*
X1047527Y-11496839D01*
X1047526Y-11496841D01*
X995331Y-11622851D01*
X977529Y-11758075D01*
X977529Y-11758076D01*
X995331Y-11893300D01*
X1047526Y-12019310D01*
X1047527Y-12019312D01*
X1130552Y-12127512D01*
X1130557Y-12127518D01*
X1130561Y-12127521D01*
X1130562Y-12127522D01*
X1238762Y-12210547D01*
X1238763Y-12210547D01*
X1238764Y-12210548D01*
X1313173Y-12241369D01*
X1359699Y-12281105D01*
X1373983Y-12340600D01*
X1350568Y-12397128D01*
X1298400Y-12429098D01*
X1285079Y-12431348D01*
X886683Y-12470943D01*
X881094Y-12471339D01*
X179716Y-12501133D01*
X174113Y-12501212D01*
X-510560Y-12491521D01*
X-510562Y-12491522D01*
X-510563Y-12491522D01*
X-530621Y-12491239D01*
X-670293Y-12481339D01*
X-1323553Y-11828079D01*
X-1351330Y-11773562D01*
X-1344152Y-11728238D01*
X-1190004Y-11728238D01*
X-1190004Y-11787912D01*
X-1167168Y-11843043D01*
X-1124972Y-11885239D01*
X-1069841Y-11908075D01*
X-1010167Y-11908075D01*
X-955036Y-11885239D01*
X-912840Y-11843043D01*
X-890004Y-11787912D01*
X-890004Y-11728238D01*
X-912840Y-11673107D01*
X-955036Y-11630911D01*
X-1010167Y-11608075D01*
X-1069841Y-11608075D01*
X-1124972Y-11630911D01*
X-1167168Y-11673107D01*
X-1190004Y-11728238D01*
X-1344152Y-11728238D01*
X-1341759Y-11713130D01*
X-1323553Y-11688072D01*
X-1110008Y-11474526D01*
X-1055491Y-11446748D01*
X-995059Y-11456319D01*
X-970000Y-11474525D01*
X-288352Y-12156173D01*
X-287613Y-12154894D01*
X-242144Y-12113953D01*
X-181294Y-12107557D01*
X-141610Y-12125852D01*
X-132623Y-12132748D01*
X-31233Y-12210547D01*
X94777Y-12262742D01*
X94776Y-12262742D01*
X230002Y-12280545D01*
X365227Y-12262742D01*
X491237Y-12210547D01*
X599444Y-12127517D01*
X682474Y-12019310D01*
X734669Y-11893300D01*
X752472Y-11758075D01*
X748402Y-11727164D01*
X734669Y-11622850D01*
X682474Y-11496840D01*
X682473Y-11496838D01*
X599448Y-11388638D01*
X599447Y-11388637D01*
X599444Y-11388633D01*
X599439Y-11388629D01*
X599438Y-11388628D01*
X491238Y-11305603D01*
X491236Y-11305602D01*
X402131Y-11268694D01*
X365227Y-11253408D01*
X365226Y-11253407D01*
X365227Y-11253407D01*
X230002Y-11235605D01*
X229998Y-11235605D01*
X192246Y-11240574D01*
X132086Y-11229422D01*
X109323Y-11212425D01*
X64763Y-11167865D01*
X36986Y-11113348D01*
X46557Y-11052916D01*
X89822Y-11009651D01*
X147687Y-10999708D01*
X229999Y-11010545D01*
X365224Y-10992742D01*
X491234Y-10940547D01*
X599441Y-10857517D01*
X621799Y-10828377D01*
X672222Y-10793723D01*
X699432Y-10789650D01*
X853505Y-10788239D01*
X911865Y-10806613D01*
G37*
G04 #@! TD.AperFunction*
G04 #@! TA.AperFunction,Conductor*
G36*
X-7939750Y9562565D02*
G01*
X-7900643Y9515510D01*
X-7896663Y9454454D01*
X-7896981Y9453235D01*
X-7915637Y9383611D01*
X-7935468Y9156929D01*
X-7935468Y9156922D01*
X-7915637Y8930241D01*
X-7915636Y8930234D01*
X-7915635Y8930233D01*
X-7895858Y8856425D01*
X-7856738Y8710425D01*
X-7760574Y8504202D01*
X-7760566Y8504188D01*
X-7630054Y8317795D01*
X-7630053Y8317793D01*
X-7630050Y8317790D01*
X-7630047Y8317786D01*
X-7469139Y8156878D01*
X-7469136Y8156876D01*
X-7469133Y8156873D01*
X-7469131Y8156872D01*
X-7428655Y8128531D01*
X-7282734Y8026357D01*
X-7282728Y8026354D01*
X-7282724Y8026352D01*
X-7076500Y7930188D01*
X-7076496Y7930186D01*
X-6856692Y7871290D01*
X-6856688Y7871290D01*
X-6856685Y7871289D01*
X-6630003Y7851457D01*
X-6630000Y7851457D01*
X-6629997Y7851457D01*
X-6403316Y7871289D01*
X-6403315Y7871290D01*
X-6403308Y7871290D01*
X-6183504Y7930186D01*
X-6044667Y7994927D01*
X-5997046Y8017133D01*
X-5936317Y8024590D01*
X-5882803Y7994927D01*
X-5856945Y7939474D01*
X-5868620Y7879413D01*
X-5885203Y7857405D01*
X-8260579Y5482029D01*
X-8315096Y5454252D01*
X-8316308Y5454068D01*
X-8361393Y5447499D01*
X-8466482Y5396124D01*
X-8549199Y5313407D01*
X-8600573Y5208321D01*
X-8600573Y5208318D01*
X-8610500Y5140185D01*
X-8610500Y4048665D01*
X-8606563Y4021646D01*
X-8600573Y3980530D01*
X-8549199Y3875444D01*
X-8549198Y3875442D01*
X-8466483Y3792727D01*
X-8412715Y3766442D01*
X-8361396Y3741353D01*
X-8361395Y3741353D01*
X-8361393Y3741352D01*
X-8293260Y3731425D01*
X-8293257Y3731425D01*
X-7926743Y3731425D01*
X-7926740Y3731425D01*
X-7858607Y3741352D01*
X-7753517Y3792727D01*
X-7670802Y3875442D01*
X-7619427Y3980532D01*
X-7609500Y4048665D01*
X-7609500Y5100736D01*
X-7590593Y5158927D01*
X-7580504Y5170740D01*
X-7126633Y5624611D01*
X-6769503Y5981741D01*
X-6714987Y6009517D01*
X-6654555Y5999946D01*
X-6611290Y5956681D01*
X-6600500Y5911736D01*
X-6600500Y5127361D01*
X-6580022Y5050937D01*
X-6580021Y5050936D01*
X-6551559Y5001639D01*
X-6551558Y5001635D01*
X-6551557Y5001635D01*
X-6540463Y4982418D01*
X-6540462Y4982417D01*
X-6540460Y4982414D01*
X-5937261Y4379215D01*
X-5380470Y3822424D01*
X-5352693Y3767907D01*
X-5362264Y3707475D01*
X-5380470Y3682417D01*
X-5474721Y3588166D01*
X-5530536Y3511345D01*
X-5552711Y3443093D01*
X-5569738Y3390688D01*
X-5569738Y3263822D01*
X-5550511Y3204646D01*
X-5530536Y3143166D01*
X-5495840Y3095412D01*
X-5476933Y3037221D01*
X-5495840Y2979030D01*
X-5505925Y2967221D01*
X-5514821Y2958324D01*
X-5569336Y2930544D01*
X-5584829Y2929324D01*
X-5586110Y2929324D01*
X-5704425Y2929324D01*
X-5815606Y2888858D01*
X-5815611Y2888856D01*
X-5854694Y2858866D01*
X-6171939Y2541621D01*
X-6201929Y2502538D01*
X-6201931Y2502534D01*
X-6201931Y2502533D01*
X-6242397Y2391352D01*
X-6242397Y2273037D01*
X-6201931Y2161856D01*
X-6201930Y2161855D01*
X-6201929Y2161852D01*
X-6171939Y2122769D01*
X-6171936Y2122766D01*
X-6171932Y2122761D01*
X-5925412Y1876241D01*
X-5925408Y1876238D01*
X-5925405Y1876235D01*
X-5886322Y1846245D01*
X-5886320Y1846245D01*
X-5886317Y1846242D01*
X-5775136Y1805776D01*
X-5699859Y1805776D01*
X-5641668Y1786869D01*
X-5629855Y1776780D01*
X-5550147Y1697072D01*
X-5522370Y1642555D01*
X-5521151Y1627068D01*
X-5521151Y1551787D01*
X-5480685Y1440606D01*
X-5480684Y1440605D01*
X-5480683Y1440602D01*
X-5450693Y1401519D01*
X-5450690Y1401516D01*
X-5450686Y1401511D01*
X-5407216Y1358041D01*
X-5379440Y1303526D01*
X-5389011Y1243094D01*
X-5400366Y1225635D01*
X-6186089Y257955D01*
X-6237447Y224699D01*
X-6298544Y227981D01*
X-6332948Y250356D01*
X-6487551Y404960D01*
X-6558264Y452209D01*
X-6557942Y452693D01*
X-6569992Y461129D01*
X-6811200Y676946D01*
X-6990000Y836925D01*
X-6990001Y836925D01*
X-6992795Y839425D01*
X-7738644Y839425D01*
X-7796835Y858332D01*
X-7832799Y907832D01*
X-7837641Y937681D01*
X-7839901Y1239684D01*
X-7821430Y1298015D01*
X-7772200Y1334348D01*
X-7740904Y1339425D01*
X-6995206Y1339425D01*
X-6995401Y1341912D01*
X-6995403Y1341919D01*
X-7041221Y1499626D01*
X-7041221Y1499627D01*
X-7124816Y1640978D01*
X-7240947Y1757109D01*
X-7250131Y1762540D01*
X-7290594Y1808436D01*
X-7297702Y1862026D01*
X-7291999Y1901165D01*
X-7291999Y2267685D01*
X-7301926Y2335818D01*
X-7305803Y2343748D01*
X-7350381Y2434934D01*
X-7353301Y2440908D01*
X-7436016Y2523623D01*
X-7443433Y2527249D01*
X-7541104Y2574998D01*
X-7568360Y2578969D01*
X-7609239Y2584925D01*
X-8075759Y2584925D01*
X-8109826Y2579962D01*
X-8143895Y2574998D01*
X-8248981Y2523624D01*
X-8331698Y2440907D01*
X-8333133Y2438896D01*
X-8335338Y2437267D01*
X-8337497Y2435107D01*
X-8337821Y2435431D01*
X-8382335Y2402526D01*
X-8413703Y2397425D01*
X-8460500Y2397425D01*
X-8518691Y2416332D01*
X-8554655Y2465832D01*
X-8559500Y2496425D01*
X-8559500Y2865182D01*
X-8562949Y2888856D01*
X-8569427Y2933318D01*
X-8581652Y2958324D01*
X-8594517Y2984640D01*
X-8620802Y3038408D01*
X-8703517Y3121123D01*
X-8703519Y3121124D01*
X-8808605Y3172498D01*
X-8835861Y3176469D01*
X-8876740Y3182425D01*
X-9243260Y3182425D01*
X-9277327Y3177462D01*
X-9311396Y3172498D01*
X-9416482Y3121124D01*
X-9499199Y3038407D01*
X-9550573Y2933321D01*
X-9560500Y2865182D01*
X-9560500Y2496425D01*
X-9579407Y2438234D01*
X-9628907Y2402270D01*
X-9659500Y2397425D01*
X-9721295Y2397425D01*
X-9779486Y2416332D01*
X-9801865Y2438896D01*
X-9803301Y2440907D01*
X-9803301Y2440908D01*
X-9886016Y2523623D01*
X-9893433Y2527249D01*
X-9991104Y2574998D01*
X-10018360Y2578969D01*
X-10059239Y2584925D01*
X-10525759Y2584925D01*
X-10559826Y2579962D01*
X-10593895Y2574998D01*
X-10698981Y2523624D01*
X-10781698Y2440907D01*
X-10833072Y2335821D01*
X-10833072Y2335818D01*
X-10842999Y2267685D01*
X-10842999Y1901165D01*
X-10837353Y1862417D01*
X-10833072Y1833030D01*
X-10800365Y1766128D01*
X-10781697Y1727942D01*
X-10710683Y1656928D01*
X-10682907Y1602413D01*
X-10692478Y1541981D01*
X-10710682Y1516926D01*
X-10763575Y1464032D01*
X-10781700Y1445907D01*
X-10833074Y1340821D01*
X-10833074Y1340818D01*
X-10843001Y1272685D01*
X-10843001Y906165D01*
X-10836383Y860743D01*
X-10833074Y838030D01*
X-10827690Y827018D01*
X-10781699Y732942D01*
X-10698984Y650227D01*
X-10691257Y646450D01*
X-10647282Y603910D01*
X-10636709Y543645D01*
X-10663579Y488675D01*
X-10691250Y468569D01*
X-10706480Y461123D01*
X-10706481Y461123D01*
X-10789199Y378405D01*
X-10840573Y273319D01*
X-10840573Y273316D01*
X-10850500Y205183D01*
X-10850500Y-161337D01*
X-10845431Y-196130D01*
X-10840573Y-229472D01*
X-10789199Y-334558D01*
X-10789198Y-334560D01*
X-10730685Y-393073D01*
X-10702909Y-447588D01*
X-10712480Y-508020D01*
X-10730684Y-533075D01*
X-10789198Y-591590D01*
X-10789199Y-591591D01*
X-10840573Y-696677D01*
X-10844242Y-721863D01*
X-10850500Y-764813D01*
X-10850500Y-1131333D01*
X-10843882Y-1176755D01*
X-10840573Y-1199468D01*
X-10789199Y-1304554D01*
X-10789198Y-1304556D01*
X-10706483Y-1387271D01*
X-10677097Y-1401637D01*
X-10674548Y-1402883D01*
X-10630574Y-1445427D01*
X-10620004Y-1505692D01*
X-10646877Y-1560661D01*
X-10674547Y-1580764D01*
X-10706480Y-1596375D01*
X-10706482Y-1596376D01*
X-10789200Y-1679094D01*
X-10840574Y-1784180D01*
X-10850501Y-1852319D01*
X-10850501Y-2218833D01*
X-10844799Y-2257972D01*
X-10855120Y-2318281D01*
X-10892366Y-2357456D01*
X-10901553Y-2362889D01*
X-11017685Y-2479021D01*
X-11101280Y-2620372D01*
X-11101280Y-2620373D01*
X-11147098Y-2778080D01*
X-11147100Y-2778087D01*
X-11147295Y-2780574D01*
X-10148999Y-2780574D01*
X-10090808Y-2799481D01*
X-10054844Y-2848981D01*
X-10049999Y-2879574D01*
X-10049999Y-3655559D01*
X-10068906Y-3713750D01*
X-10070456Y-3715826D01*
X-10100863Y-3755453D01*
X-10156330Y-3889365D01*
X-10156331Y-3889366D01*
X-10175250Y-4033074D01*
X-10175250Y-4033075D01*
X-10156331Y-4176783D01*
X-10156330Y-4176784D01*
X-10100861Y-4310700D01*
X-10012621Y-4425696D01*
X-10012617Y-4425699D01*
X-10012616Y-4425700D01*
X-9959233Y-4466662D01*
X-9924577Y-4517086D01*
X-9920500Y-4545204D01*
X-9920500Y-6482639D01*
X-9900023Y-6559060D01*
X-9900021Y-6559064D01*
X-9869126Y-6612576D01*
X-9860460Y-6627586D01*
X-9349495Y-7138551D01*
X-9321719Y-7193066D01*
X-9320500Y-7208553D01*
X-9320500Y-7456953D01*
X-9300022Y-7533377D01*
X-9300021Y-7533378D01*
X-9288360Y-7553575D01*
X-9260460Y-7601900D01*
X-7538825Y-9323535D01*
X-7538823Y-9323536D01*
X-7538821Y-9323538D01*
X-7470306Y-9363095D01*
X-7470308Y-9363095D01*
X-7470304Y-9363096D01*
X-7470302Y-9363097D01*
X-7393876Y-9383575D01*
X-7055479Y-9383575D01*
X-6997288Y-9402482D01*
X-6985475Y-9412571D01*
X-6134511Y-10263535D01*
X-6134509Y-10263536D01*
X-6134508Y-10263537D01*
X-6134507Y-10263538D01*
X-6065992Y-10303095D01*
X-6065994Y-10303095D01*
X-6065990Y-10303096D01*
X-6065988Y-10303097D01*
X-5989562Y-10323575D01*
X-3475479Y-10323575D01*
X-3417288Y-10342482D01*
X-3405475Y-10352571D01*
X-2414511Y-11343535D01*
X-2414509Y-11343536D01*
X-2414508Y-11343537D01*
X-2414507Y-11343538D01*
X-2345992Y-11383095D01*
X-2345994Y-11383095D01*
X-2345990Y-11383096D01*
X-2345988Y-11383097D01*
X-2269562Y-11403575D01*
X-1954825Y-11403575D01*
X-1896634Y-11422482D01*
X-1860670Y-11471982D01*
X-1860670Y-11533167D01*
X-1876008Y-11580374D01*
X-1894686Y-11758075D01*
X-1876009Y-11935774D01*
X-1820793Y-12105709D01*
X-1820791Y-12105714D01*
X-1758206Y-12214113D01*
X-1745484Y-12273961D01*
X-1770370Y-12329857D01*
X-1823358Y-12360450D01*
X-1856516Y-12361811D01*
X-1935572Y-12351688D01*
X-1941108Y-12350819D01*
X-2631253Y-12222402D01*
X-2636731Y-12221222D01*
X-3318529Y-12053961D01*
X-3323930Y-12052473D01*
X-3995175Y-11846907D01*
X-4000484Y-11845115D01*
X-4446019Y-11680569D01*
X-4659007Y-11601908D01*
X-4664203Y-11599821D01*
X-4900893Y-11496839D01*
X-5307932Y-11319739D01*
X-5313004Y-11317359D01*
X-5939851Y-11001309D01*
X-5944781Y-10998645D01*
X-6552719Y-10647651D01*
X-6557490Y-10644714D01*
X-7144618Y-10259876D01*
X-7149216Y-10256673D01*
X-7713632Y-9839233D01*
X-7718041Y-9835775D01*
X-8034963Y-9572383D01*
X-8257946Y-9387063D01*
X-8262131Y-9383379D01*
X-8513042Y-9149623D01*
X-8775781Y-8904846D01*
X-8779771Y-8900912D01*
X-9029060Y-8640809D01*
X-9265530Y-8394082D01*
X-9269264Y-8389959D01*
X-9725587Y-7856437D01*
X-9729089Y-7852100D01*
X-10154485Y-7293632D01*
X-10157752Y-7289080D01*
X-10550849Y-6707474D01*
X-10553854Y-6702745D01*
X-10913421Y-6099824D01*
X-10916154Y-6094933D01*
X-11077392Y-5786088D01*
X-11241050Y-5472609D01*
X-11243496Y-5467581D01*
X-11386012Y-5152301D01*
X-11532665Y-4827868D01*
X-11534821Y-4822712D01*
X-11659375Y-4499605D01*
X-11787324Y-4167691D01*
X-11789186Y-4162420D01*
X-11795553Y-4142635D01*
X-12004228Y-3494157D01*
X-12005793Y-3488777D01*
X-12060005Y-3280574D01*
X-11147295Y-3280574D01*
X-11147100Y-3283060D01*
X-11147098Y-3283067D01*
X-11101280Y-3440774D01*
X-11101280Y-3440775D01*
X-11017685Y-3582126D01*
X-10901552Y-3698259D01*
X-10760200Y-3781854D01*
X-10602489Y-3827674D01*
X-10565636Y-3830574D01*
X-10550000Y-3830574D01*
X-10549999Y-3830573D01*
X-10549999Y-3280575D01*
X-10550000Y-3280574D01*
X-11147295Y-3280574D01*
X-12060005Y-3280574D01*
X-12182693Y-2809386D01*
X-12183942Y-2803960D01*
X-12322119Y-2115664D01*
X-12323060Y-2110174D01*
X-12422077Y-1415157D01*
X-12422708Y-1409602D01*
X-12482244Y-710099D01*
X-12482558Y-704551D01*
X-12502425Y-2790D01*
X-12502425Y2802D01*
X-12501309Y42225D01*
X-12482558Y704554D01*
X-12482244Y710098D01*
X-12422707Y1409619D01*
X-12422075Y1415170D01*
X-12419162Y1435615D01*
X-12323060Y2110181D01*
X-12322120Y2115659D01*
X-12183941Y2803969D01*
X-12182695Y2809379D01*
X-12005792Y3488783D01*
X-12004228Y3494158D01*
X-11944305Y3680373D01*
X-11789179Y4162444D01*
X-11787328Y4167681D01*
X-11719196Y4344424D01*
X-10810000Y4344424D01*
X-10810000Y4016289D01*
X-10807101Y3979436D01*
X-10761281Y3821725D01*
X-10761281Y3821724D01*
X-10677686Y3680373D01*
X-10561553Y3564240D01*
X-10420201Y3480645D01*
X-10262494Y3434827D01*
X-10262487Y3434825D01*
X-10260000Y3434630D01*
X-10260000Y4344424D01*
X-9760000Y4344424D01*
X-9760000Y3434630D01*
X-9757514Y3434825D01*
X-9757507Y3434827D01*
X-9599800Y3480645D01*
X-9599799Y3480645D01*
X-9458448Y3564240D01*
X-9342315Y3680373D01*
X-9258720Y3821724D01*
X-9258720Y3821725D01*
X-9212900Y3979436D01*
X-9210000Y4016289D01*
X-9210000Y4344424D01*
X-9210001Y4344425D01*
X-9759999Y4344425D01*
X-9760000Y4344424D01*
X-10260000Y4344424D01*
X-10260001Y4344425D01*
X-10809999Y4344425D01*
X-10810000Y4344424D01*
X-11719196Y4344424D01*
X-11534810Y4822740D01*
X-11532670Y4827857D01*
X-11376853Y5172562D01*
X-10810000Y5172562D01*
X-10810000Y4844426D01*
X-10809999Y4844425D01*
X-10260001Y4844425D01*
X-10260000Y4844426D01*
X-9760000Y4844426D01*
X-9759999Y4844425D01*
X-9210001Y4844425D01*
X-9210000Y4844426D01*
X-9210000Y5172562D01*
X-9212900Y5209415D01*
X-9258720Y5367126D01*
X-9258720Y5367127D01*
X-9342315Y5508478D01*
X-9458448Y5624611D01*
X-9599799Y5708206D01*
X-9599798Y5708206D01*
X-9757509Y5754025D01*
X-9760000Y5754223D01*
X-9760000Y4844426D01*
X-10260000Y4844426D01*
X-10260000Y5754222D01*
X-10260001Y5754223D01*
X-10262492Y5754025D01*
X-10420202Y5708206D01*
X-10561553Y5624611D01*
X-10677686Y5508478D01*
X-10761281Y5367127D01*
X-10761281Y5367126D01*
X-10807101Y5209415D01*
X-10810000Y5172562D01*
X-11376853Y5172562D01*
X-11243484Y5467608D01*
X-11241057Y5472596D01*
X-10916148Y6094946D01*
X-10913421Y6099825D01*
X-10553843Y6702765D01*
X-10550861Y6707457D01*
X-10157744Y7289093D01*
X-10154485Y7293633D01*
X-9729075Y7852118D01*
X-9725602Y7856421D01*
X-9269248Y8389978D01*
X-9265546Y8394066D01*
X-8779769Y8900916D01*
X-8775781Y8904847D01*
X-8262112Y9383398D01*
X-8257949Y9387062D01*
X-8055885Y9554996D01*
X-7999048Y9577647D01*
X-7939750Y9562565D01*
G37*
G04 #@! TD.AperFunction*
G04 #@! TA.AperFunction,Conductor*
G36*
X8027586Y9583130D02*
G01*
X8030690Y9580509D01*
X8520271Y9149624D01*
X8524371Y9145804D01*
X9024261Y8652938D01*
X9028138Y8648893D01*
X9499348Y8128531D01*
X9502990Y8124273D01*
X9944013Y7578076D01*
X9947408Y7573618D01*
X10356814Y7003359D01*
X10359951Y6998717D01*
X10736436Y6406213D01*
X10739301Y6401408D01*
X10973743Y5981740D01*
X11081667Y5788548D01*
X11084258Y5783587D01*
X11098546Y5754222D01*
X11391419Y5152302D01*
X11393726Y5147196D01*
X11664655Y4499606D01*
X11666671Y4494378D01*
X11900543Y3832453D01*
X11902259Y3827119D01*
X12098301Y3153052D01*
X12099713Y3147630D01*
X12257308Y2463538D01*
X12258411Y2458044D01*
X12377052Y1766128D01*
X12377842Y1760581D01*
X12457147Y1063068D01*
X12457622Y1057485D01*
X12497357Y356274D01*
X12497514Y351373D01*
X12499995Y700D01*
X12499995Y-700D01*
X12497514Y-351372D01*
X12497357Y-356273D01*
X12457622Y-1057484D01*
X12457147Y-1063067D01*
X12377842Y-1760580D01*
X12377052Y-1766127D01*
X12258411Y-2458043D01*
X12257308Y-2463537D01*
X12099713Y-3147629D01*
X12098301Y-3153051D01*
X11902259Y-3827118D01*
X11900543Y-3832452D01*
X11666671Y-4494377D01*
X11664655Y-4499605D01*
X11393726Y-5147195D01*
X11391419Y-5152301D01*
X11084261Y-5783580D01*
X11081667Y-5788547D01*
X10739306Y-6401400D01*
X10736436Y-6406212D01*
X10359951Y-6998716D01*
X10356814Y-7003358D01*
X9947408Y-7573617D01*
X9944013Y-7578075D01*
X9502990Y-8124272D01*
X9499348Y-8128530D01*
X9028138Y-8648892D01*
X9024261Y-8652937D01*
X8524371Y-9145803D01*
X8520271Y-9149623D01*
X7993288Y-9613426D01*
X7988979Y-9617007D01*
X7436610Y-10050246D01*
X7432105Y-10053578D01*
X6856090Y-10454886D01*
X6851403Y-10457957D01*
X6253647Y-10826010D01*
X6248795Y-10828812D01*
X5631147Y-11162472D01*
X5626144Y-11164995D01*
X4990595Y-11463184D01*
X4985457Y-11465419D01*
X4334077Y-11727164D01*
X4328821Y-11729105D01*
X3663675Y-11953581D01*
X3658317Y-11955222D01*
X2981530Y-12141709D01*
X2976088Y-12143044D01*
X2289839Y-12290942D01*
X2284330Y-12291967D01*
X2228972Y-12300654D01*
X2168553Y-12290997D01*
X2125350Y-12247670D01*
X2115865Y-12187225D01*
X2143720Y-12132748D01*
X2156691Y-12122811D01*
X2156464Y-12122516D01*
X2161607Y-12118568D01*
X2161613Y-12118565D01*
X3222604Y-11057574D01*
X3277121Y-11029797D01*
X3292608Y-11028578D01*
X4394306Y-11028578D01*
X4484666Y-11004365D01*
X4484669Y-11004365D01*
X4502049Y-10999708D01*
X4508884Y-10997877D01*
X4611611Y-10938567D01*
X5760490Y-9789688D01*
X5819800Y-9686961D01*
X5831676Y-9642637D01*
X5850501Y-9572383D01*
X5850501Y-8944355D01*
X5869408Y-8886164D01*
X5879693Y-8874157D01*
X6102149Y-8652937D01*
X6773654Y-7985162D01*
X6793957Y-7969627D01*
X6804511Y-7963535D01*
X6823884Y-7944160D01*
X6833622Y-7935621D01*
X6852874Y-7920848D01*
X6872621Y-7905696D01*
X6902553Y-7866686D01*
X6911078Y-7856966D01*
X7185460Y-7582586D01*
X10480460Y-4287586D01*
X10520022Y-4219063D01*
X10540500Y-4142637D01*
X10540500Y-4063513D01*
X10540500Y42225D01*
X10559407Y100416D01*
X10560136Y101406D01*
X10563559Y105996D01*
X10601541Y216633D01*
X10601541Y333610D01*
X10601541Y333614D01*
X10567368Y433152D01*
X10565377Y490922D01*
X10580499Y547359D01*
X10580500Y547362D01*
X10580500Y1081447D01*
X10599407Y1139638D01*
X10609496Y1151451D01*
X10922077Y1464032D01*
X11320460Y1862414D01*
X11337015Y1891089D01*
X11360021Y1930936D01*
X11380500Y2007363D01*
X11380500Y2446487D01*
X11376326Y2462063D01*
X11360022Y2522913D01*
X11320460Y2591436D01*
X8184511Y5727385D01*
X8184508Y5727387D01*
X8115992Y5766945D01*
X8115988Y5766947D01*
X8039564Y5787425D01*
X8039562Y5787425D01*
X7720438Y5787425D01*
X7720435Y5787425D01*
X7644011Y5766947D01*
X7644007Y5766945D01*
X7575491Y5727387D01*
X4995489Y3147385D01*
X4995488Y3147386D01*
X4939539Y3091436D01*
X4899980Y3022918D01*
X4899978Y3022914D01*
X4879500Y2946490D01*
X4879500Y2621404D01*
X4860593Y2563213D01*
X4811093Y2527249D01*
X4749907Y2527249D01*
X4710496Y2551400D01*
X3806781Y3455115D01*
X2894511Y4367385D01*
X2894508Y4367387D01*
X2874024Y4379214D01*
X2874024Y4379213D01*
X2825989Y4406946D01*
X2825988Y4406947D01*
X2825987Y4406947D01*
X2749564Y4427425D01*
X2749562Y4427425D01*
X-2939562Y4427425D01*
X-2939565Y4427425D01*
X-3015988Y4406947D01*
X-3064023Y4379215D01*
X-3064024Y4379213D01*
X-3084507Y4367387D01*
X-3084514Y4367383D01*
X-3947968Y3503931D01*
X-4002484Y3476154D01*
X-4062916Y3485725D01*
X-4106181Y3528990D01*
X-4112126Y3543344D01*
X-4136191Y3617412D01*
X-4136192Y3617413D01*
X-4192003Y3694229D01*
X-4519421Y4021646D01*
X-4596241Y4077461D01*
X-4657721Y4097436D01*
X-4716897Y4116663D01*
X-4716899Y4116663D01*
X-4783759Y4116663D01*
X-4841950Y4135570D01*
X-4853763Y4145659D01*
X-5970504Y5262400D01*
X-5998281Y5316917D01*
X-5999500Y5332404D01*
X-5999500Y6021446D01*
X-5980593Y6079637D01*
X-5970504Y6091450D01*
X-4324525Y7737429D01*
X-4270008Y7765206D01*
X-4254521Y7766425D01*
X309563Y7766425D01*
X309563Y7766426D01*
X385989Y7786904D01*
X454511Y7826465D01*
X510460Y7882414D01*
X1455475Y8827429D01*
X1509992Y8855206D01*
X1525479Y8856425D01*
X5268176Y8856425D01*
X5326367Y8837518D01*
X5362331Y8788018D01*
X5363803Y8783048D01*
X5383260Y8710431D01*
X5383262Y8710426D01*
X5479426Y8504202D01*
X5479434Y8504188D01*
X5609946Y8317795D01*
X5609947Y8317793D01*
X5609950Y8317790D01*
X5609953Y8317786D01*
X5770861Y8156878D01*
X5770864Y8156876D01*
X5770867Y8156873D01*
X5770869Y8156872D01*
X5811345Y8128531D01*
X5957266Y8026357D01*
X5957272Y8026354D01*
X5957276Y8026352D01*
X6163500Y7930188D01*
X6163504Y7930186D01*
X6383308Y7871290D01*
X6383312Y7871290D01*
X6383315Y7871289D01*
X6609997Y7851457D01*
X6610000Y7851457D01*
X6610003Y7851457D01*
X6836684Y7871289D01*
X6836685Y7871290D01*
X6836692Y7871290D01*
X7056496Y7930186D01*
X7262734Y8026357D01*
X7449139Y8156878D01*
X7610047Y8317786D01*
X7740568Y8504191D01*
X7836739Y8710429D01*
X7895635Y8930233D01*
X7896265Y8937425D01*
X7915468Y9156922D01*
X7915468Y9156929D01*
X7895636Y9383610D01*
X7895635Y9383613D01*
X7895635Y9383617D01*
X7869656Y9480572D01*
X7872859Y9541670D01*
X7911364Y9589220D01*
X7970464Y9605056D01*
X8027586Y9583130D01*
G37*
G04 #@! TD.AperFunction*
G04 #@! TA.AperFunction,Conductor*
G36*
X-1197956Y12427082D02*
G01*
X-1155996Y12382551D01*
X-1148224Y12321861D01*
X-1160288Y12289852D01*
X-1238783Y12157124D01*
X-1284602Y11999416D01*
X-1287501Y11962563D01*
X-1287501Y11946927D01*
X-1287500Y11946926D01*
X-336501Y11946926D01*
X-278310Y11928019D01*
X-242346Y11878519D01*
X-237501Y11847926D01*
X-237501Y11545926D01*
X-256408Y11487735D01*
X-305908Y11451771D01*
X-336501Y11446926D01*
X-1287500Y11446926D01*
X-1287501Y11446925D01*
X-1287501Y11431290D01*
X-1284602Y11394437D01*
X-1238782Y11236726D01*
X-1238782Y11236725D01*
X-1155187Y11095374D01*
X-1039054Y10979241D01*
X-1038826Y10979064D01*
X-1038718Y10978905D01*
X-1034652Y10974839D01*
X-1035428Y10974064D01*
X-1004432Y10928461D01*
X-1000500Y10900836D01*
X-1000500Y10900185D01*
X-1000500Y10433665D01*
X-1000000Y10430234D01*
X-990573Y10365530D01*
X-939199Y10260444D01*
X-939197Y10260441D01*
X-899436Y10220679D01*
X-871659Y10166162D01*
X-881231Y10105730D01*
X-899435Y10080674D01*
X-936697Y10043412D01*
X-936699Y10043408D01*
X-988073Y9938322D01*
X-998000Y9870183D01*
X-998000Y9685616D01*
X-1016907Y9627425D01*
X-1026996Y9615612D01*
X-1106187Y9536421D01*
X-1160704Y9508644D01*
X-1176191Y9507425D01*
X-5301573Y9507425D01*
X-5359764Y9526332D01*
X-5395728Y9575832D01*
X-5397199Y9580800D01*
X-5403261Y9603420D01*
X-5403263Y9603425D01*
X-5404024Y9605056D01*
X-5499432Y9809659D01*
X-5589520Y9938319D01*
X-5629947Y9996056D01*
X-5629948Y9996058D01*
X-5629951Y9996061D01*
X-5629953Y9996064D01*
X-5790861Y10156972D01*
X-5790865Y10156975D01*
X-5790868Y10156978D01*
X-5790870Y10156979D01*
X-5977263Y10287491D01*
X-5977264Y10287492D01*
X-5977266Y10287493D01*
X-5977269Y10287495D01*
X-5977277Y10287499D01*
X-6183501Y10383663D01*
X-6183500Y10383663D01*
X-6357307Y10430234D01*
X-6403308Y10442560D01*
X-6403309Y10442561D01*
X-6403316Y10442562D01*
X-6526972Y10453380D01*
X-6583294Y10477287D01*
X-6614807Y10529733D01*
X-6609474Y10590685D01*
X-6572617Y10634800D01*
X-6557471Y10644728D01*
X-6552740Y10647641D01*
X-5944766Y10998655D01*
X-5939867Y11001302D01*
X-5312976Y11317374D01*
X-5307961Y11319727D01*
X-4664169Y11599836D01*
X-4659037Y11601898D01*
X-4000460Y11845125D01*
X-3995201Y11846900D01*
X-3323914Y12052479D01*
X-3318546Y12053958D01*
X-2636713Y12221228D01*
X-2631271Y12222400D01*
X-1941076Y12350826D01*
X-1935605Y12351685D01*
X-1258075Y12438445D01*
X-1197956Y12427082D01*
G37*
G04 #@! TD.AperFunction*
M02*
