M48
; DRILL file {KiCad 8.0.5} date 2025-01-04T21:14:33-0600
; FORMAT={-:-/ absolute / metric / decimal}
; #@! TF.CreationDate,2025-01-04T21:14:33-06:00
; #@! TF.GenerationSoftware,Kicad,Pcbnew,8.0.5
; #@! TF.FileFunction,Plated,1,2,PTH
FMAT,2
METRIC
; #@! TA.AperFunction,Plated,PTH,ViaDrill
T1C0.200
; #@! TA.AperFunction,Plated,PTH,ComponentDrill
T2C0.300
; #@! TA.AperFunction,Plated,PTH,ComponentDrill
T3C0.550
; #@! TA.AperFunction,Plated,PTH,ComponentDrill
T4C1.200
%
G90
G05
T1
X-10.04Y3.027
X-9.62Y-4.033
X-8.95Y-4.683
X-8.91Y5.777
X-8.73Y-0.273
X-8.414Y-1.825
X-7.53Y-6.783
X-7.25Y3.257
X-6.71Y-7.613
X-6.27Y1.207
X-5.24Y5.667
X-5.23Y-7.053
X-4.96Y0.827
X-4.38Y-3.393
X-4.34Y4.627
X-4.08Y0.407
X-4.02Y7.087
X-3.42Y-6.843
X-3.33Y-5.363
X-2.55Y4.827
X-2.09Y-10.283
X-1.742Y7.087
X-1.38Y-2.723
X0.08Y4.827
X0.537Y7.106
X1.73Y8.207
X2.33Y-2.103
X2.7Y-5.523
X2.73Y4.777
X3.9Y7.432
X4.12Y-9.523
X4.49Y3.777
X4.77Y-5.963
X5.849Y6.066
X6.48Y-7.513
X7.41Y-4.543
X7.72Y6.237
X8.17Y2.527
X8.29Y-1.673
X9.51Y-2.403
T2
X-1.04Y-11.758
X1.5Y-10.488
T3
X-3.0Y10.927
X3.0Y10.927
T4
X-6.63Y9.157
X6.61Y9.157
M30
