M48
; DRILL file {KiCad 7.0.10} date Tue Jul 16 21:42:17 2024
; FORMAT={-:-/ absolute / metric / decimal}
; #@! TF.CreationDate,2024-07-16T21:42:17-04:00
; #@! TF.GenerationSoftware,Kicad,Pcbnew,7.0.10
; #@! TF.FileFunction,Plated,1,2,PTH
FMAT,2
METRIC
; #@! TA.AperFunction,Plated,PTH,ComponentDrill
T1C0.300
; #@! TA.AperFunction,Plated,PTH,ViaDrill
T2C0.400
; #@! TA.AperFunction,Plated,PTH,ComponentDrill
T3C1.000
; #@! TA.AperFunction,Plated,PTH,ComponentDrill
T4C1.500
; #@! TA.AperFunction,Plated,PTH,ComponentDrill
T5C1.520
; #@! TA.AperFunction,Plated,PTH,ComponentDrill
T6C1.700
; #@! TA.AperFunction,Plated,PTH,ComponentDrill
T7C3.200
%
G90
G05
T1
X40.33Y40.92
X42.87Y42.19
T2
X2.58Y42.67
X2.58Y40.015
X2.58Y37.54
X2.74Y12.3
X2.75Y17.4
X2.75Y14.85
X4.297Y35.943
X4.433Y19.13
X5.74Y12.3
X5.75Y14.85
X5.93Y42.67
X5.93Y40.015
X6.013Y34.347
X6.115Y20.86
X6.41Y37.81
X6.5Y17.03
X7.73Y32.75
X7.797Y22.59
X8.137Y36.213
X8.246Y18.788
X9.447Y31.153
X9.48Y24.32
X9.853Y34.617
X9.991Y20.547
X11.163Y29.557
X11.737Y22.305
X11.83Y32.84
X11.93Y25.19
X14.08Y22.39
X14.41Y32.83
X15.58Y29.375
X15.58Y25.705
X16.42Y21.8
X16.99Y32.84
X17.2Y28.16
X17.96Y20.29
X18.31Y24.02
X18.71Y31.385
X20.315Y50.28
X20.33Y47.9
X20.43Y29.93
X20.79Y32.8
X21.71Y25.153
X21.72Y22.777
X21.74Y20.4
X22.48Y43.49
X22.58Y39.49
X23.83Y36.3
X24.842Y17.27
X25.61Y28.72
X25.61Y25.84
X26.56Y47.98
X26.76Y30.38
X27.03Y33.39
X27.47Y21.81
X27.52Y23.78
X27.745Y25.87
X28.16Y40.15
X28.16Y38.0
X28.18Y49.41
X28.18Y46.5
X28.18Y35.67
X29.19Y30.38
X29.535Y33.39
X29.595Y28.16
X29.647Y23.78
X31.6Y23.82
X31.62Y30.41
X31.64Y28.213
X31.64Y26.017
X32.04Y33.39
X32.37Y45.3
X32.37Y38.71
X32.38Y43.02
X32.38Y40.76
X33.92Y31.32
X33.95Y46.28
X35.13Y33.39
X35.77Y46.28
X35.78Y49.67
X36.04Y51.5
X36.32Y37.79
X36.34Y35.46
X37.11Y43.67
X37.15Y45.24
X37.36Y47.97
X37.72Y40.92
X38.93Y51.5
X41.82Y51.5
X45.81Y44.04
T3
X11.805Y15.45
X14.345Y15.45
X25.34Y45.56
X25.34Y43.02
X25.34Y40.48
X25.74Y5.83
X28.74Y5.83
X31.74Y5.83
X39.085Y49.26
X39.085Y46.72
X41.625Y49.26
X41.625Y46.72
X44.165Y49.26
X44.165Y46.72
T4
X4.25Y47.5
X4.25Y27.5
X4.25Y7.5
X22.94Y5.83
X34.54Y5.83
T5
X46.94Y25.28
X46.94Y5.28
T6
X1.71Y50.04
X1.71Y44.96
X1.71Y30.04
X1.71Y24.96
X1.71Y10.04
X1.71Y4.96
X6.79Y50.04
X6.79Y44.96
X6.79Y30.04
X6.79Y24.96
X6.79Y10.04
X6.79Y4.96
T7
X14.06Y51.88
X14.08Y3.94
X55.6Y51.9
X55.62Y3.92
M30
