G04 #@! TF.GenerationSoftware,KiCad,Pcbnew,7.0.10*
G04 #@! TF.CreationDate,2024-07-16T21:32:39-04:00*
G04 #@! TF.ProjectId,button_transmitter,62757474-6f6e-45f7-9472-616e736d6974,1.0*
G04 #@! TF.SameCoordinates,Original*
G04 #@! TF.FileFunction,Copper,L1,Top*
G04 #@! TF.FilePolarity,Positive*
%FSLAX46Y46*%
G04 Gerber Fmt 4.6, Leading zero omitted, Abs format (unit mm)*
G04 Created by KiCad (PCBNEW 7.0.10) date 2024-07-16 21:32:39*
%MOMM*%
%LPD*%
G01*
G04 APERTURE LIST*
G04 Aperture macros list*
%AMRoundRect*
0 Rectangle with rounded corners*
0 $1 Rounding radius*
0 $2 $3 $4 $5 $6 $7 $8 $9 X,Y pos of 4 corners*
0 Add a 4 corners polygon primitive as box body*
4,1,4,$2,$3,$4,$5,$6,$7,$8,$9,$2,$3,0*
0 Add four circle primitives for the rounded corners*
1,1,$1+$1,$2,$3*
1,1,$1+$1,$4,$5*
1,1,$1+$1,$6,$7*
1,1,$1+$1,$8,$9*
0 Add four rect primitives between the rounded corners*
20,1,$1+$1,$2,$3,$4,$5,0*
20,1,$1+$1,$4,$5,$6,$7,0*
20,1,$1+$1,$6,$7,$8,$9,0*
20,1,$1+$1,$8,$9,$2,$3,0*%
%AMFreePoly0*
4,1,6,1.000000,0.000000,0.500000,-0.750000,-0.500000,-0.750000,-0.500000,0.750000,0.500000,0.750000,1.000000,0.000000,1.000000,0.000000,$1*%
%AMFreePoly1*
4,1,6,0.500000,-0.750000,-0.650000,-0.750000,-0.150000,0.000000,-0.650000,0.750000,0.500000,0.750000,0.500000,-0.750000,0.500000,-0.750000,$1*%
G04 Aperture macros list end*
G04 #@! TA.AperFunction,NonConductor*
%ADD10C,0.200000*%
G04 #@! TD*
G04 #@! TA.AperFunction,ComponentPad*
%ADD11C,2.280000*%
G04 #@! TD*
G04 #@! TA.AperFunction,ComponentPad*
%ADD12R,1.700000X1.700000*%
G04 #@! TD*
G04 #@! TA.AperFunction,ComponentPad*
%ADD13O,1.700000X1.700000*%
G04 #@! TD*
G04 #@! TA.AperFunction,SMDPad,CuDef*
%ADD14FreePoly0,90.000000*%
G04 #@! TD*
G04 #@! TA.AperFunction,SMDPad,CuDef*
%ADD15FreePoly1,90.000000*%
G04 #@! TD*
G04 #@! TA.AperFunction,ComponentPad*
%ADD16C,1.524000*%
G04 #@! TD*
G04 #@! TA.AperFunction,ComponentPad*
%ADD17C,2.000000*%
G04 #@! TD*
G04 #@! TA.AperFunction,ComponentPad*
%ADD18R,0.635000X0.635000*%
G04 #@! TD*
G04 #@! TA.AperFunction,SMDPad,CuDef*
%ADD19C,0.635000*%
G04 #@! TD*
G04 #@! TA.AperFunction,ComponentPad*
%ADD20C,0.635000*%
G04 #@! TD*
G04 #@! TA.AperFunction,SMDPad,CuDef*
%ADD21FreePoly0,270.000000*%
G04 #@! TD*
G04 #@! TA.AperFunction,SMDPad,CuDef*
%ADD22FreePoly1,270.000000*%
G04 #@! TD*
G04 #@! TA.AperFunction,ComponentPad*
%ADD23C,6.400000*%
G04 #@! TD*
G04 #@! TA.AperFunction,ComponentPad*
%ADD24C,2.050000*%
G04 #@! TD*
G04 #@! TA.AperFunction,ComponentPad*
%ADD25C,2.250000*%
G04 #@! TD*
G04 #@! TA.AperFunction,SMDPad,CuDef*
%ADD26RoundRect,0.237500X0.287500X0.237500X-0.287500X0.237500X-0.287500X-0.237500X0.287500X-0.237500X0*%
G04 #@! TD*
G04 #@! TA.AperFunction,SMDPad,CuDef*
%ADD27RoundRect,0.237500X0.250000X0.237500X-0.250000X0.237500X-0.250000X-0.237500X0.250000X-0.237500X0*%
G04 #@! TD*
G04 #@! TA.AperFunction,SMDPad,CuDef*
%ADD28RoundRect,0.237500X-0.300000X-0.237500X0.300000X-0.237500X0.300000X0.237500X-0.300000X0.237500X0*%
G04 #@! TD*
G04 #@! TA.AperFunction,SMDPad,CuDef*
%ADD29RoundRect,0.150000X-0.825000X-0.150000X0.825000X-0.150000X0.825000X0.150000X-0.825000X0.150000X0*%
G04 #@! TD*
G04 #@! TA.AperFunction,SMDPad,CuDef*
%ADD30RoundRect,0.250000X-0.337500X-0.475000X0.337500X-0.475000X0.337500X0.475000X-0.337500X0.475000X0*%
G04 #@! TD*
G04 #@! TA.AperFunction,SMDPad,CuDef*
%ADD31RoundRect,0.237500X-0.250000X-0.237500X0.250000X-0.237500X0.250000X0.237500X-0.250000X0.237500X0*%
G04 #@! TD*
G04 #@! TA.AperFunction,SMDPad,CuDef*
%ADD32FreePoly0,180.000000*%
G04 #@! TD*
G04 #@! TA.AperFunction,SMDPad,CuDef*
%ADD33FreePoly1,180.000000*%
G04 #@! TD*
G04 #@! TA.AperFunction,SMDPad,CuDef*
%ADD34RoundRect,0.237500X0.300000X0.237500X-0.300000X0.237500X-0.300000X-0.237500X0.300000X-0.237500X0*%
G04 #@! TD*
G04 #@! TA.AperFunction,SMDPad,CuDef*
%ADD35RoundRect,0.237500X-0.287500X-0.237500X0.287500X-0.237500X0.287500X0.237500X-0.287500X0.237500X0*%
G04 #@! TD*
G04 #@! TA.AperFunction,SMDPad,CuDef*
%ADD36RoundRect,0.250000X0.312500X0.625000X-0.312500X0.625000X-0.312500X-0.625000X0.312500X-0.625000X0*%
G04 #@! TD*
G04 #@! TA.AperFunction,SMDPad,CuDef*
%ADD37R,1.400000X0.300000*%
G04 #@! TD*
G04 #@! TA.AperFunction,SMDPad,CuDef*
%ADD38R,1.200000X1.400000*%
G04 #@! TD*
G04 #@! TA.AperFunction,ViaPad*
%ADD39C,0.800000*%
G04 #@! TD*
G04 #@! TA.AperFunction,Conductor*
%ADD40C,0.300000*%
G04 #@! TD*
G04 #@! TA.AperFunction,Conductor*
%ADD41C,1.000000*%
G04 #@! TD*
G04 #@! TA.AperFunction,Conductor*
%ADD42C,1.500000*%
G04 #@! TD*
G04 #@! TA.AperFunction,Conductor*
%ADD43C,0.400000*%
G04 #@! TD*
G04 #@! TA.AperFunction,Conductor*
%ADD44C,0.500000*%
G04 #@! TD*
G04 #@! TA.AperFunction,Conductor*
%ADD45C,0.750000*%
G04 #@! TD*
G04 #@! TA.AperFunction,Conductor*
%ADD46C,0.250000*%
G04 #@! TD*
G04 APERTURE END LIST*
D10*
X98870000Y-123990000D02*
X98870000Y-121510000D01*
D11*
X117029999Y-108329956D03*
X117029999Y-128329956D03*
D12*
X114255000Y-84349999D03*
D13*
X114255000Y-86889999D03*
X111715000Y-84349999D03*
X111715000Y-86889999D03*
X109175000Y-84349999D03*
X109175000Y-86889999D03*
D14*
X92580000Y-119465000D03*
D15*
X92580000Y-118015000D03*
D16*
X101830000Y-127780000D03*
X98830000Y-127780000D03*
X95830000Y-127780000D03*
D17*
X104630000Y-127780000D03*
X93030000Y-127780000D03*
D18*
X112960000Y-91420000D03*
D19*
X112960000Y-92690001D03*
X111689999Y-91420000D03*
X111690002Y-92690000D03*
X110419999Y-91420001D03*
D20*
X110419999Y-92690000D03*
D12*
X95429998Y-93130003D03*
D13*
X95429998Y-90590003D03*
X95429998Y-88050003D03*
D12*
X81895000Y-118160000D03*
D13*
X84435000Y-118160000D03*
D21*
X101190000Y-96275000D03*
D22*
X101190000Y-97725000D03*
D23*
X84170000Y-129670000D03*
D24*
X74340000Y-86110000D03*
D25*
X71800000Y-83570000D03*
X71800000Y-88650000D03*
X76880000Y-83570000D03*
X76880000Y-88650000D03*
D26*
X95915000Y-84270000D03*
X94165000Y-84270000D03*
D27*
X85772500Y-106060000D03*
X83947500Y-106060000D03*
X90437498Y-92937496D03*
X88612498Y-92937496D03*
D21*
X103730000Y-96275000D03*
D22*
X103730000Y-97725000D03*
D14*
X90090000Y-119465000D03*
D15*
X90090000Y-118015000D03*
D26*
X90402496Y-95110001D03*
X88652496Y-95110001D03*
D28*
X93845000Y-109830000D03*
X95570000Y-109830000D03*
D29*
X99995000Y-88685000D03*
X99995000Y-89955000D03*
X99995000Y-91225000D03*
X99995000Y-92495000D03*
X104945000Y-92495000D03*
X104945000Y-91225000D03*
X104945000Y-89955000D03*
X104945000Y-88685000D03*
D30*
X93890000Y-111800000D03*
X95965000Y-111800000D03*
D31*
X96410000Y-114320000D03*
X98235000Y-114320000D03*
D23*
X84150000Y-81730000D03*
D27*
X86572500Y-102410000D03*
X84747500Y-102410000D03*
D32*
X103655000Y-80250000D03*
D33*
X102205000Y-80250000D03*
D27*
X90437494Y-88970001D03*
X88612494Y-88970001D03*
D34*
X99992496Y-85624998D03*
X98267496Y-85624998D03*
D23*
X125690000Y-81710000D03*
D26*
X90377498Y-91097496D03*
X88627498Y-91097496D03*
D35*
X96452500Y-116340000D03*
X98202500Y-116340000D03*
D27*
X90444993Y-97130001D03*
X88619993Y-97130001D03*
D24*
X74340000Y-106110000D03*
D25*
X71800000Y-103570000D03*
X71800000Y-108650000D03*
X76880000Y-103570000D03*
X76880000Y-108650000D03*
D36*
X95402500Y-101460000D03*
X92477500Y-101460000D03*
X95402500Y-98980000D03*
X92477500Y-98980000D03*
D37*
X93550000Y-107090000D03*
X93550000Y-106590000D03*
X93550000Y-106090000D03*
X93550000Y-105590000D03*
X93550000Y-105090000D03*
X89150000Y-105090000D03*
X89150000Y-105590000D03*
X89150000Y-106090000D03*
X89150000Y-106590000D03*
X89150000Y-107090000D03*
D24*
X74340000Y-126110000D03*
D25*
X71800000Y-123570000D03*
X71800000Y-128650000D03*
X76880000Y-123570000D03*
X76880000Y-128650000D03*
D27*
X95952500Y-82370000D03*
X94127500Y-82370000D03*
D34*
X89780000Y-111800000D03*
X88055000Y-111800000D03*
D30*
X103792497Y-85624999D03*
X105867497Y-85624999D03*
D26*
X90400000Y-87130000D03*
X88650000Y-87130000D03*
D23*
X125710000Y-129690000D03*
D27*
X86582500Y-109740000D03*
X84757500Y-109740000D03*
D38*
X97835000Y-105440000D03*
X97835000Y-107740000D03*
X99685000Y-107740000D03*
X99685000Y-105440000D03*
D39*
X105220000Y-100220000D03*
X72670000Y-93595000D03*
X98250000Y-95610000D03*
X97835000Y-107740000D03*
X99685000Y-105450000D03*
X86510000Y-111810000D03*
X102130000Y-100220000D03*
X90404998Y-83330002D03*
X88400000Y-109590000D03*
X102470000Y-92850000D03*
X106130000Y-82110000D03*
X76205000Y-112750000D03*
X101730000Y-105396666D03*
X72840000Y-118760000D03*
X91810000Y-110833332D03*
X109020000Y-82110000D03*
X102460000Y-88310000D03*
X91800000Y-108456666D03*
X101710000Y-103200000D03*
X98270000Y-84200000D03*
X88800000Y-102225000D03*
X107450000Y-85640000D03*
X90420000Y-85710000D03*
X101730000Y-107593332D03*
X78335706Y-114821618D03*
X72830000Y-121310000D03*
X81920000Y-100770000D03*
X104040000Y-87330000D03*
X76103334Y-99263334D03*
X79943334Y-98993334D03*
X82020000Y-108420000D03*
X76020000Y-90940000D03*
X102460000Y-94900000D03*
X90520000Y-103680000D03*
X99625000Y-100220000D03*
X104010000Y-102290000D03*
X77887500Y-111020000D03*
X93920000Y-97310000D03*
X97610000Y-109830000D03*
X95700000Y-107770000D03*
X79536666Y-102456668D03*
X91830000Y-113210000D03*
X106430000Y-98150000D03*
X76590000Y-116580000D03*
X107810000Y-92690000D03*
X90880000Y-100810000D03*
X98250000Y-93460000D03*
X99280000Y-103230000D03*
X76500000Y-95800000D03*
X74386666Y-97666668D03*
X84500000Y-100780000D03*
X84170000Y-111220000D03*
X92670000Y-94120000D03*
X102470000Y-90590000D03*
X96650000Y-85630000D03*
X107240000Y-88370000D03*
X85670000Y-104234999D03*
X77820000Y-100860000D03*
X80081412Y-113063236D03*
X75840000Y-118760000D03*
X72670000Y-90940000D03*
X101690000Y-109790000D03*
X87080000Y-100770000D03*
X105870000Y-83940000D03*
X81253334Y-104053334D03*
X85670000Y-107904998D03*
X115900000Y-89570000D03*
X105860000Y-87330000D03*
X106410000Y-95820000D03*
X98270000Y-87110000D03*
X97560000Y-111800000D03*
X92570000Y-90120000D03*
X87290000Y-105450000D03*
X96850000Y-103230000D03*
X75830000Y-121310000D03*
X76020000Y-93595000D03*
X111910000Y-82110000D03*
X81827118Y-111304854D03*
X72840000Y-116210000D03*
X79570000Y-109290000D03*
X74522500Y-114480000D03*
X88050000Y-113320000D03*
X95700000Y-104890000D03*
X72670000Y-96070000D03*
X94932500Y-116340000D03*
X98270000Y-97940000D03*
X97120000Y-100220000D03*
X99737500Y-109830000D03*
X78226666Y-97396668D03*
X107200000Y-89940000D03*
D40*
X112960000Y-94090000D02*
X113110000Y-94240000D01*
X112960000Y-93860000D02*
X112960000Y-94090000D01*
X112960000Y-93860000D02*
X112960000Y-94120000D01*
X112960000Y-92690001D02*
X112960000Y-93860000D01*
X113080000Y-94240000D02*
X113410000Y-94240000D01*
X112960000Y-94120000D02*
X113080000Y-94240000D01*
X113415000Y-94575000D02*
X113475000Y-94575000D01*
D41*
X113475000Y-94575000D02*
X113010000Y-95040000D01*
X114710000Y-93340000D02*
X113475000Y-94575000D01*
D40*
X112960000Y-94120000D02*
X112960000Y-94990000D01*
X112960000Y-94120000D02*
X113415000Y-94575000D01*
X114280000Y-92690001D02*
X114450000Y-92860001D01*
X114450000Y-92860001D02*
X114450000Y-93230000D01*
X114280000Y-92690001D02*
X114710000Y-93120001D01*
D41*
X115530000Y-92520000D02*
X114710000Y-93340000D01*
D40*
X114280000Y-92690001D02*
X115359999Y-92690001D01*
X112960000Y-92690001D02*
X114280000Y-92690001D01*
X114710000Y-93120001D02*
X114710000Y-93340000D01*
D41*
X74340000Y-106110000D02*
X83897500Y-106110000D01*
X83897500Y-106110000D02*
X83947500Y-106060000D01*
D42*
X117029999Y-125429999D02*
X115810000Y-124210000D01*
X101830000Y-125600000D02*
X101830000Y-127780000D01*
X117029999Y-128329956D02*
X117029999Y-125429999D01*
X115810000Y-124210000D02*
X103220000Y-124210000D01*
X103220000Y-124210000D02*
X101830000Y-125600000D01*
D41*
X97505000Y-121505000D02*
X98775000Y-121505000D01*
X90535000Y-121520000D02*
X91890000Y-121520000D01*
X103695000Y-80290000D02*
X103655000Y-80250000D01*
X98075000Y-121505000D02*
X97505000Y-121505000D01*
X92582500Y-120827500D02*
X91890000Y-121520000D01*
X115530000Y-92520000D02*
X117600000Y-90450000D01*
X98845000Y-122275000D02*
X98075000Y-121505000D01*
X117340001Y-86889999D02*
X117600000Y-86630000D01*
X100250000Y-120170000D02*
X108560000Y-111860000D01*
X91890000Y-121520000D02*
X92890000Y-121520000D01*
X90090000Y-121075000D02*
X90535000Y-121520000D01*
X116580000Y-86889999D02*
X116840001Y-86889999D01*
X92582500Y-120700000D02*
X92582500Y-120827500D01*
D43*
X112960000Y-94990000D02*
X113010000Y-95040000D01*
D41*
X98845000Y-121575000D02*
X100250000Y-120170000D01*
X117600000Y-87650000D02*
X117600000Y-86630000D01*
X117600000Y-90450000D02*
X117600000Y-87650000D01*
X92582500Y-120700000D02*
X92582500Y-121212500D01*
D42*
X98845000Y-122275000D02*
X98830000Y-122290000D01*
D41*
X117600000Y-86130000D02*
X117600000Y-81540000D01*
X91855000Y-121505000D02*
X96560000Y-121505000D01*
X98775000Y-121505000D02*
X98845000Y-121575000D01*
X117600000Y-81540000D02*
X116350000Y-80290000D01*
X98845000Y-121575000D02*
X98845000Y-122275000D01*
X108560000Y-111860000D02*
X108560000Y-99490000D01*
X92890000Y-121520000D02*
X93260000Y-121520000D01*
X96560000Y-121505000D02*
X97475000Y-121505000D01*
X116840001Y-86889999D02*
X117600000Y-87649998D01*
X116840001Y-86889999D02*
X117600000Y-86130000D01*
X92582500Y-120700000D02*
X92582500Y-120842500D01*
X99100000Y-121320000D02*
X99100000Y-122510000D01*
X97475000Y-121505000D02*
X98840000Y-122870000D01*
D42*
X98830000Y-122290000D02*
X98830000Y-127780000D01*
D41*
X114255000Y-86889999D02*
X116580000Y-86889999D01*
X92582500Y-121212500D02*
X92890000Y-121520000D01*
X96560000Y-121505000D02*
X97505000Y-121505000D01*
D43*
X115359999Y-92690001D02*
X115530000Y-92520000D01*
D41*
X108560000Y-99490000D02*
X113010000Y-95040000D01*
X92580000Y-119465000D02*
X92582500Y-120700000D01*
X90090000Y-119465000D02*
X90090000Y-121075000D01*
X117600000Y-86630000D02*
X117600000Y-86130000D01*
X116350000Y-80290000D02*
X103695000Y-80290000D01*
X92582500Y-120842500D02*
X93260000Y-121520000D01*
X117600000Y-87649998D02*
X117600000Y-87650000D01*
X100250000Y-120170000D02*
X99100000Y-121320000D01*
X116580000Y-86889999D02*
X117340001Y-86889999D01*
D44*
X94127500Y-82370000D02*
X94127500Y-84232500D01*
X94127500Y-84232500D02*
X94165000Y-84270000D01*
D45*
X95700000Y-104890000D02*
X95700000Y-103400000D01*
D40*
X95920000Y-84152500D02*
X95957500Y-84190000D01*
D45*
X95570000Y-108710000D02*
X95570000Y-109830000D01*
D46*
X87130000Y-106090000D02*
X86890000Y-105850000D01*
D45*
X95570000Y-108710000D02*
X95570000Y-107940000D01*
X95700000Y-103400000D02*
X95860000Y-103240000D01*
X95700000Y-107770000D02*
X95570000Y-107900000D01*
D46*
X89150000Y-106090000D02*
X87130000Y-106090000D01*
X87820000Y-106090000D02*
X87820000Y-105530000D01*
D45*
X95570000Y-107900000D02*
X95570000Y-108710000D01*
X95570000Y-107940000D02*
X95730000Y-107780000D01*
D40*
X88649999Y-87129998D02*
X88649998Y-88932497D01*
X88627495Y-91097500D02*
X88627494Y-92922504D01*
X88652494Y-95110002D02*
X88652495Y-97097501D01*
X98252500Y-116097500D02*
X98220000Y-116130000D01*
X98235000Y-114320000D02*
X98235000Y-116307500D01*
X114255000Y-84349999D02*
X112990000Y-85614999D01*
X112400000Y-90580000D02*
X108420000Y-90580000D01*
X112740000Y-90580000D02*
X112990000Y-90330000D01*
X112740000Y-90700000D02*
X112890000Y-90850000D01*
X107775000Y-91225000D02*
X104945000Y-91225000D01*
X112740000Y-90580000D02*
X112740000Y-90700000D01*
X112990000Y-85614999D02*
X112990000Y-90330000D01*
X112960000Y-91140000D02*
X112400000Y-90580000D01*
X108420000Y-90580000D02*
X107775000Y-91225000D01*
X112400000Y-90580000D02*
X112740000Y-90580000D01*
X112990000Y-90330000D02*
X112990000Y-91350000D01*
X112960000Y-91420000D02*
X112960000Y-91140000D01*
X112990000Y-91350000D02*
X113060000Y-91420000D01*
D46*
X98535000Y-106590000D02*
X99685000Y-107740000D01*
X93550000Y-106590000D02*
X98535000Y-106590000D01*
X93550000Y-106090000D02*
X97185000Y-106090000D01*
X97835000Y-105440000D02*
X97185000Y-106090000D01*
D41*
X74340000Y-116697500D02*
X74340000Y-126110000D01*
X81297500Y-109740000D02*
X84757500Y-109740000D01*
X81297500Y-109740000D02*
X74340000Y-116697500D01*
D40*
X74390000Y-106060000D02*
X74340000Y-106110000D01*
D41*
X81267500Y-102410000D02*
X80708750Y-101851250D01*
X74340000Y-86110000D02*
X74340000Y-95482500D01*
X81267500Y-102410000D02*
X84747500Y-102410000D01*
X80708750Y-101851250D02*
X81043750Y-102186250D01*
X81043750Y-102186250D02*
X81267500Y-102410000D01*
X74340000Y-95482500D02*
X80708750Y-101851250D01*
D46*
X89150000Y-107090000D02*
X88160000Y-107090000D01*
X86582500Y-108667500D02*
X86582500Y-109740000D01*
X88160000Y-107090000D02*
X86582500Y-108667500D01*
X86302500Y-106590000D02*
X89150000Y-106590000D01*
X85772500Y-106060000D02*
X86302500Y-106590000D01*
X86582500Y-103122500D02*
X86582500Y-102400000D01*
X89150000Y-105090000D02*
X88550000Y-105090000D01*
X88550000Y-105090000D02*
X86582500Y-103122500D01*
D42*
X81895000Y-120935000D02*
X85170000Y-124210000D01*
X95830000Y-125080000D02*
X95830000Y-127780000D01*
X85170000Y-124210000D02*
X94960000Y-124210000D01*
X81895000Y-118160000D02*
X81895000Y-120935000D01*
X94960000Y-124210000D02*
X95830000Y-125080000D01*
D44*
X99675000Y-82370000D02*
X99995000Y-82050000D01*
X95952500Y-82370000D02*
X99675000Y-82370000D01*
X99675000Y-82370000D02*
X99995000Y-82690000D01*
X103792497Y-85624999D02*
X99992497Y-85624999D01*
X99995000Y-82870000D02*
X99995000Y-82050000D01*
X99995000Y-82690000D02*
X99995000Y-82870000D01*
X99995000Y-88685000D02*
X99995000Y-82870000D01*
X99992497Y-85624999D02*
X99992496Y-85624998D01*
X99995000Y-82050000D02*
X99995000Y-80495000D01*
X100240000Y-80250000D02*
X101990000Y-80250000D01*
X99995000Y-80495000D02*
X100240000Y-80250000D01*
D40*
X96410000Y-114320000D02*
X94652500Y-114320000D01*
D44*
X93186250Y-114136250D02*
X92907500Y-114415000D01*
D40*
X94652500Y-114320000D02*
X93002500Y-114320000D01*
D44*
X92580000Y-117880000D02*
X92580000Y-114742500D01*
X93532500Y-113790000D02*
X93186250Y-114136250D01*
D40*
X93782500Y-114040000D02*
X93500000Y-114040000D01*
X92060000Y-106610000D02*
X92060000Y-99397500D01*
X93500000Y-114040000D02*
X93470000Y-114070000D01*
X92060000Y-99397500D02*
X92477500Y-98980000D01*
X93470000Y-114070000D02*
X93440000Y-114040000D01*
X92540000Y-107090000D02*
X92060000Y-106610000D01*
X93857500Y-114115000D02*
X93782500Y-114040000D01*
X93857500Y-114115000D02*
X93532500Y-113790000D01*
X94652500Y-114320000D02*
X94062500Y-114320000D01*
D44*
X92580000Y-114742500D02*
X93186250Y-114136250D01*
X93550000Y-113970000D02*
X93780000Y-114200000D01*
X92467500Y-101470000D02*
X92477500Y-101460000D01*
D40*
X93440000Y-114040000D02*
X93402500Y-114040000D01*
D44*
X93550000Y-107200000D02*
X93550000Y-113970000D01*
D40*
X94062500Y-114320000D02*
X93857500Y-114115000D01*
X93550000Y-107090000D02*
X92540000Y-107090000D01*
X93002500Y-114320000D02*
X92907500Y-114415000D01*
D46*
X89150000Y-105590000D02*
X90047500Y-105590000D01*
X90047500Y-105590000D02*
X90280000Y-105822500D01*
X90280000Y-107847500D02*
X90227500Y-107900000D01*
X89987500Y-107790000D02*
X90280000Y-107497500D01*
X90280000Y-107497500D02*
X90280000Y-107360000D01*
D44*
X90085000Y-107862500D02*
X90085000Y-117760000D01*
D46*
X90280000Y-105822500D02*
X90280000Y-107847500D01*
D40*
X96619995Y-93130001D02*
X95429998Y-93130003D01*
X99995000Y-91225000D02*
X98525000Y-91225002D01*
X91429999Y-97130001D02*
X95429998Y-93130003D01*
X90444993Y-97130001D02*
X91429999Y-97130001D01*
X98525000Y-91225002D02*
X96619995Y-93130001D01*
X92282504Y-92937496D02*
X94629997Y-90590003D01*
X94629997Y-90590003D02*
X95429998Y-90590003D01*
X99995000Y-89955000D02*
X98484999Y-89955000D01*
X90437498Y-92937496D02*
X92282504Y-92937496D01*
X97849997Y-90590003D02*
X95429999Y-90590005D01*
X98484999Y-89955000D02*
X97849997Y-90590003D01*
X94510000Y-88970001D02*
X95429998Y-88050003D01*
X107185000Y-89955000D02*
X107200000Y-89940000D01*
X104945000Y-89955000D02*
X107185000Y-89955000D01*
X90437494Y-88970001D02*
X94510000Y-88970001D01*
X99995000Y-92495000D02*
X100054999Y-92495000D01*
X99995000Y-92495000D02*
X101190000Y-93690000D01*
X101190000Y-93690000D02*
X101190000Y-96275000D01*
X101190000Y-97725000D02*
X101190000Y-98700000D01*
X101190000Y-98700000D02*
X100910000Y-98980000D01*
X95402500Y-98980000D02*
X94350000Y-98980000D01*
X94350000Y-98980000D02*
X93940000Y-99390000D01*
X93590000Y-100792500D02*
X93590000Y-105050000D01*
X93940000Y-99390000D02*
X93940000Y-100442500D01*
X100910000Y-98980000D02*
X95402500Y-98980000D01*
X93940000Y-100442500D02*
X93590000Y-100792500D01*
X93590000Y-105050000D02*
X93550000Y-105090000D01*
X104945000Y-92495000D02*
X103730000Y-93710000D01*
X103730000Y-93710000D02*
X103730000Y-96275000D01*
X94560000Y-105590000D02*
X94820000Y-105330000D01*
X94310000Y-104260000D02*
X94310000Y-101680000D01*
X94310000Y-101680000D02*
X94530000Y-101460000D01*
X103730000Y-100320000D02*
X102590000Y-101460000D01*
X94820000Y-104770000D02*
X94310000Y-104260000D01*
X94820000Y-105330000D02*
X94820000Y-104770000D01*
X102590000Y-101460000D02*
X95402500Y-101460000D01*
X103730000Y-97725000D02*
X103730000Y-100320000D01*
X94530000Y-101460000D02*
X95402500Y-101460000D01*
X93550000Y-105590000D02*
X94560000Y-105590000D01*
G04 #@! TA.AperFunction,Conductor*
G36*
X126417789Y-77760888D02*
G01*
X126548604Y-77767744D01*
X126560251Y-77768911D01*
X126724408Y-77793261D01*
X126725510Y-77793431D01*
X126894817Y-77820247D01*
X126905498Y-77822425D01*
X127069287Y-77863452D01*
X127070950Y-77863883D01*
X127233884Y-77907541D01*
X127243544Y-77910558D01*
X127403601Y-77967827D01*
X127406109Y-77968757D01*
X127562349Y-78028732D01*
X127570877Y-78032379D01*
X127725102Y-78105322D01*
X127728264Y-78106875D01*
X127876815Y-78182565D01*
X127884240Y-78186676D01*
X127967930Y-78236838D01*
X128030802Y-78274522D01*
X128034588Y-78276885D01*
X128174036Y-78367444D01*
X128180367Y-78371841D01*
X128317780Y-78473753D01*
X128321909Y-78476954D01*
X128451025Y-78581509D01*
X128456253Y-78585990D01*
X128583066Y-78700927D01*
X128587474Y-78705124D01*
X128704873Y-78822523D01*
X128709070Y-78826931D01*
X128812542Y-78941095D01*
X128824007Y-78953744D01*
X128828495Y-78958981D01*
X128933028Y-79088068D01*
X128936260Y-79092238D01*
X129038156Y-79229630D01*
X129042553Y-79235961D01*
X129133112Y-79375409D01*
X129135475Y-79379195D01*
X129223314Y-79525745D01*
X129227441Y-79533199D01*
X129303085Y-79681659D01*
X129304695Y-79684937D01*
X129377610Y-79839102D01*
X129381279Y-79847681D01*
X129441217Y-80003824D01*
X129442178Y-80006417D01*
X129491697Y-80144812D01*
X129499437Y-80166443D01*
X129502460Y-80176123D01*
X129546064Y-80338854D01*
X129546573Y-80340818D01*
X129587567Y-80504474D01*
X129589756Y-80515206D01*
X129616573Y-80684518D01*
X129616758Y-80685722D01*
X129641082Y-80849703D01*
X129642254Y-80861408D01*
X129652024Y-81047844D01*
X129652045Y-81048249D01*
X129659348Y-81196904D01*
X129659497Y-81202988D01*
X129659499Y-129618481D01*
X129639814Y-129685520D01*
X129632653Y-129691724D01*
X129656141Y-129732858D01*
X129659499Y-129761518D01*
X129659499Y-130186947D01*
X129659350Y-130193031D01*
X129652014Y-130342361D01*
X129651993Y-130342766D01*
X129642256Y-130528576D01*
X129641084Y-130540282D01*
X129616746Y-130704347D01*
X129616561Y-130705550D01*
X129589756Y-130874791D01*
X129587567Y-130885523D01*
X129546580Y-131049152D01*
X129546071Y-131051116D01*
X129502461Y-131213870D01*
X129499438Y-131223550D01*
X129442193Y-131383541D01*
X129441205Y-131386205D01*
X129381280Y-131542315D01*
X129377611Y-131550894D01*
X129304691Y-131705070D01*
X129303081Y-131708348D01*
X129227448Y-131856785D01*
X129223322Y-131864238D01*
X129135472Y-132010809D01*
X129133108Y-132014597D01*
X129042550Y-132154043D01*
X129038153Y-132160373D01*
X128936264Y-132297756D01*
X128933032Y-132301926D01*
X128828494Y-132431019D01*
X128824006Y-132436256D01*
X128709070Y-132563068D01*
X128704873Y-132567476D01*
X128587476Y-132684873D01*
X128583068Y-132689070D01*
X128456256Y-132804006D01*
X128451019Y-132808494D01*
X128321926Y-132913032D01*
X128317756Y-132916264D01*
X128180373Y-133018153D01*
X128174043Y-133022550D01*
X128034597Y-133113108D01*
X128030809Y-133115472D01*
X127884238Y-133203322D01*
X127876785Y-133207448D01*
X127728348Y-133283081D01*
X127725070Y-133284691D01*
X127570894Y-133357611D01*
X127562315Y-133361280D01*
X127406205Y-133421205D01*
X127403541Y-133422193D01*
X127243550Y-133479438D01*
X127233870Y-133482461D01*
X127071116Y-133526071D01*
X127069152Y-133526580D01*
X126905523Y-133567567D01*
X126894791Y-133569756D01*
X126725536Y-133596564D01*
X126724332Y-133596749D01*
X126560282Y-133621083D01*
X126548577Y-133622255D01*
X126362739Y-133631994D01*
X126362334Y-133632015D01*
X126233836Y-133638327D01*
X126227697Y-133638476D01*
X125804569Y-133638289D01*
X125737538Y-133618575D01*
X125710063Y-133586839D01*
X125703095Y-133600200D01*
X125642420Y-133634846D01*
X125613705Y-133638204D01*
X87424967Y-133621270D01*
X87424966Y-133621270D01*
X84560000Y-133620000D01*
X84559952Y-133354357D01*
X84940323Y-133294113D01*
X84940330Y-133294112D01*
X85314936Y-133193737D01*
X85676994Y-133054755D01*
X86022543Y-132878689D01*
X86347783Y-132667476D01*
X86347785Y-132667475D01*
X86605349Y-132458902D01*
X85114180Y-130967733D01*
X85304870Y-130804870D01*
X85467733Y-130614180D01*
X86958902Y-132105349D01*
X87167475Y-131847785D01*
X87167476Y-131847783D01*
X87378689Y-131522543D01*
X87554755Y-131176994D01*
X87693737Y-130814936D01*
X87794112Y-130440330D01*
X87794113Y-130440323D01*
X87854780Y-130057287D01*
X87875078Y-129670000D01*
X87875078Y-129669999D01*
X87854780Y-129282712D01*
X87794113Y-128899676D01*
X87794112Y-128899669D01*
X87693737Y-128525063D01*
X87554755Y-128163005D01*
X87378689Y-127817456D01*
X87167468Y-127492206D01*
X86958904Y-127234649D01*
X86958903Y-127234648D01*
X85467732Y-128725818D01*
X85304870Y-128535130D01*
X85114179Y-128372265D01*
X86605350Y-126881096D01*
X86605350Y-126881095D01*
X86347793Y-126672531D01*
X86022543Y-126461310D01*
X85676994Y-126285244D01*
X85314936Y-126146262D01*
X84940330Y-126045887D01*
X84940323Y-126045886D01*
X84558633Y-125985432D01*
X84558510Y-125301348D01*
X84625236Y-125341215D01*
X84629327Y-125342750D01*
X84646955Y-125350996D01*
X84650755Y-125353153D01*
X84742496Y-125385254D01*
X84744998Y-125386161D01*
X84835976Y-125420307D01*
X84838565Y-125420776D01*
X84840274Y-125421087D01*
X84859089Y-125426053D01*
X84863217Y-125427498D01*
X84959237Y-125442705D01*
X84961832Y-125443146D01*
X85033432Y-125456140D01*
X85057452Y-125460500D01*
X85057453Y-125460500D01*
X85061828Y-125460500D01*
X85081231Y-125462028D01*
X85082938Y-125462297D01*
X85085540Y-125462710D01*
X85182621Y-125460531D01*
X85185404Y-125460500D01*
X94390664Y-125460500D01*
X94457703Y-125480185D01*
X94478345Y-125496819D01*
X94543181Y-125561655D01*
X94576666Y-125622978D01*
X94579500Y-125649336D01*
X94579500Y-126992686D01*
X94559815Y-127059725D01*
X94507011Y-127105480D01*
X94437853Y-127115424D01*
X94374297Y-127086399D01*
X94351692Y-127060508D01*
X94253434Y-126910116D01*
X93707195Y-127456356D01*
X93683941Y-127402447D01*
X93579244Y-127261815D01*
X93444938Y-127149118D01*
X93353334Y-127103113D01*
X93900057Y-126556390D01*
X93900056Y-126556389D01*
X93853229Y-126519943D01*
X93634614Y-126401635D01*
X93634603Y-126401630D01*
X93399493Y-126320916D01*
X93154293Y-126280000D01*
X92905707Y-126280000D01*
X92660506Y-126320916D01*
X92425396Y-126401630D01*
X92425390Y-126401632D01*
X92206761Y-126519949D01*
X92159942Y-126556388D01*
X92159942Y-126556390D01*
X92704054Y-127100501D01*
X92691109Y-127105213D01*
X92544627Y-127201555D01*
X92424312Y-127329082D01*
X92351553Y-127455105D01*
X91806564Y-126910116D01*
X91706267Y-127063632D01*
X91606412Y-127291282D01*
X91545387Y-127532261D01*
X91545385Y-127532270D01*
X91524859Y-127779994D01*
X91524859Y-127780005D01*
X91545385Y-128027729D01*
X91545387Y-128027738D01*
X91606412Y-128268717D01*
X91706266Y-128496364D01*
X91806564Y-128649882D01*
X92352804Y-128103642D01*
X92376059Y-128157553D01*
X92480756Y-128298185D01*
X92615062Y-128410882D01*
X92706665Y-128456886D01*
X92159942Y-129003609D01*
X92206768Y-129040055D01*
X92206770Y-129040056D01*
X92425385Y-129158364D01*
X92425396Y-129158369D01*
X92660506Y-129239083D01*
X92905707Y-129280000D01*
X93154293Y-129280000D01*
X93399493Y-129239083D01*
X93634603Y-129158369D01*
X93634614Y-129158364D01*
X93853228Y-129040057D01*
X93853231Y-129040055D01*
X93900056Y-129003609D01*
X93355945Y-128459498D01*
X93368891Y-128454787D01*
X93515373Y-128358445D01*
X93635688Y-128230918D01*
X93708446Y-128104894D01*
X94253434Y-128649882D01*
X94353731Y-128496369D01*
X94445901Y-128286241D01*
X94490857Y-128232755D01*
X94557592Y-128212065D01*
X94624920Y-128230739D01*
X94671464Y-128282849D01*
X94671816Y-128283597D01*
X94706718Y-128358445D01*
X94732466Y-128413662D01*
X94732468Y-128413666D01*
X94859170Y-128594615D01*
X94859175Y-128594621D01*
X95015378Y-128750824D01*
X95015384Y-128750829D01*
X95196333Y-128877531D01*
X95196335Y-128877532D01*
X95196338Y-128877534D01*
X95396550Y-128970894D01*
X95609932Y-129028070D01*
X95767123Y-129041822D01*
X95829998Y-129047323D01*
X95830000Y-129047323D01*
X95830002Y-129047323D01*
X95885017Y-129042509D01*
X96050068Y-129028070D01*
X96263450Y-128970894D01*
X96463662Y-128877534D01*
X96644620Y-128750826D01*
X96800826Y-128594620D01*
X96927534Y-128413662D01*
X97020894Y-128213450D01*
X97078070Y-128000068D01*
X97097323Y-127780000D01*
X97097322Y-127779994D01*
X97080972Y-127593102D01*
X97080500Y-127582295D01*
X97080500Y-125157185D01*
X97081280Y-125143300D01*
X97083454Y-125124005D01*
X97085238Y-125108173D01*
X97083389Y-125080755D01*
X97080781Y-125042067D01*
X97080500Y-125033725D01*
X97080500Y-125023852D01*
X97080500Y-125023845D01*
X97076838Y-124983172D01*
X97076630Y-124980516D01*
X97071291Y-124901310D01*
X97070097Y-124883593D01*
X97069028Y-124879351D01*
X97065768Y-124860169D01*
X97065377Y-124855812D01*
X97039527Y-124762150D01*
X97038831Y-124759514D01*
X97015096Y-124665317D01*
X97013289Y-124661339D01*
X97006653Y-124643034D01*
X97005492Y-124638828D01*
X96963351Y-124551320D01*
X96962172Y-124548800D01*
X96922008Y-124460377D01*
X96922007Y-124460374D01*
X96919517Y-124456780D01*
X96909725Y-124439964D01*
X96907830Y-124436029D01*
X96907827Y-124436024D01*
X96850740Y-124357450D01*
X96849162Y-124355228D01*
X96793820Y-124275346D01*
X96790729Y-124272255D01*
X96778093Y-124257461D01*
X96775521Y-124253921D01*
X96775518Y-124253918D01*
X96705299Y-124186781D01*
X96703310Y-124184836D01*
X95898816Y-123380342D01*
X95889549Y-123369973D01*
X95867506Y-123342332D01*
X95817603Y-123298732D01*
X95811507Y-123293033D01*
X95804532Y-123286058D01*
X95804521Y-123286048D01*
X95773255Y-123259945D01*
X95771139Y-123258138D01*
X95698003Y-123194240D01*
X95697997Y-123194236D01*
X95697996Y-123194235D01*
X95694241Y-123191991D01*
X95678373Y-123180732D01*
X95675019Y-123177932D01*
X95675018Y-123177931D01*
X95675013Y-123177927D01*
X95590548Y-123130001D01*
X95588144Y-123128601D01*
X95504763Y-123078784D01*
X95500669Y-123077248D01*
X95483044Y-123069002D01*
X95479245Y-123066846D01*
X95387569Y-123034767D01*
X95384953Y-123033819D01*
X95294029Y-122999694D01*
X95294019Y-122999691D01*
X95289723Y-122998912D01*
X95270918Y-122993949D01*
X95266784Y-122992502D01*
X95266777Y-122992501D01*
X95170848Y-122977307D01*
X95168105Y-122976841D01*
X95072550Y-122959500D01*
X95072547Y-122959500D01*
X95068172Y-122959500D01*
X95048769Y-122957972D01*
X95044460Y-122957289D01*
X94947359Y-122959469D01*
X94944577Y-122959500D01*
X85739336Y-122959500D01*
X85672297Y-122939815D01*
X85651655Y-122923181D01*
X84557888Y-121829414D01*
X84557318Y-118647555D01*
X84577315Y-118644680D01*
X84685000Y-118595501D01*
X84685000Y-119490633D01*
X84898483Y-119433433D01*
X84898492Y-119433429D01*
X85112578Y-119333600D01*
X85306082Y-119198105D01*
X85473105Y-119031082D01*
X85608600Y-118837578D01*
X85708429Y-118623492D01*
X85708432Y-118623486D01*
X85765636Y-118410000D01*
X84868686Y-118410000D01*
X84894493Y-118369844D01*
X84935000Y-118231889D01*
X84935000Y-118088111D01*
X84894493Y-117950156D01*
X84868686Y-117910000D01*
X85765636Y-117910000D01*
X85765635Y-117909999D01*
X85708432Y-117696513D01*
X85708429Y-117696507D01*
X85608600Y-117482422D01*
X85608599Y-117482420D01*
X85473113Y-117288926D01*
X85473108Y-117288920D01*
X85306082Y-117121894D01*
X85112578Y-116986399D01*
X84898492Y-116886570D01*
X84898486Y-116886567D01*
X84685000Y-116829364D01*
X84685000Y-117724498D01*
X84577315Y-117675320D01*
X84557143Y-117672419D01*
X84556137Y-112050000D01*
X87017501Y-112050000D01*
X87017501Y-112086654D01*
X87027819Y-112187652D01*
X87082046Y-112351300D01*
X87082051Y-112351311D01*
X87172552Y-112498034D01*
X87172555Y-112498038D01*
X87294461Y-112619944D01*
X87294465Y-112619947D01*
X87441188Y-112710448D01*
X87441199Y-112710453D01*
X87604847Y-112764680D01*
X87705851Y-112774999D01*
X87805000Y-112774998D01*
X87805000Y-112050000D01*
X87017501Y-112050000D01*
X84556137Y-112050000D01*
X84556048Y-111550000D01*
X87017500Y-111550000D01*
X87805000Y-111550000D01*
X87805000Y-110824999D01*
X87705860Y-110825000D01*
X87705844Y-110825001D01*
X87604847Y-110835319D01*
X87441199Y-110889546D01*
X87441188Y-110889551D01*
X87294465Y-110980052D01*
X87294461Y-110980055D01*
X87172555Y-111101961D01*
X87172552Y-111101965D01*
X87082051Y-111248688D01*
X87082046Y-111248699D01*
X87027819Y-111412347D01*
X87017500Y-111513345D01*
X87017500Y-111550000D01*
X84556048Y-111550000D01*
X84555903Y-110740500D01*
X84808243Y-110740500D01*
X84888997Y-110732288D01*
X84959938Y-110725074D01*
X84972330Y-110721186D01*
X85009452Y-110715499D01*
X85056670Y-110715499D01*
X85056676Y-110715499D01*
X85157753Y-110705174D01*
X85321516Y-110650908D01*
X85468350Y-110560340D01*
X85582319Y-110446371D01*
X85643642Y-110412886D01*
X85713334Y-110417870D01*
X85757681Y-110446371D01*
X85871650Y-110560340D01*
X86018484Y-110650908D01*
X86182247Y-110705174D01*
X86283323Y-110715500D01*
X86881676Y-110715499D01*
X86881684Y-110715498D01*
X86881687Y-110715498D01*
X86937030Y-110709844D01*
X86982753Y-110705174D01*
X87146516Y-110650908D01*
X87293350Y-110560340D01*
X87415340Y-110438350D01*
X87505908Y-110291516D01*
X87560174Y-110127753D01*
X87570500Y-110026677D01*
X87570499Y-109453324D01*
X87569367Y-109442247D01*
X87560174Y-109352247D01*
X87505908Y-109188484D01*
X87415340Y-109041650D01*
X87341820Y-108968130D01*
X87308335Y-108906807D01*
X87313319Y-108837115D01*
X87341816Y-108792773D01*
X88357772Y-107776816D01*
X88419093Y-107743333D01*
X88445442Y-107740499D01*
X89210500Y-107740499D01*
X89277539Y-107760184D01*
X89323294Y-107812988D01*
X89334500Y-107864499D01*
X89334500Y-110743710D01*
X89314815Y-110810749D01*
X89262011Y-110856504D01*
X89249509Y-110861414D01*
X89165984Y-110889092D01*
X89165981Y-110889093D01*
X89019148Y-110979661D01*
X89004825Y-110993984D01*
X88943501Y-111027468D01*
X88873809Y-111022482D01*
X88829465Y-110993982D01*
X88815538Y-110980055D01*
X88815534Y-110980052D01*
X88668811Y-110889551D01*
X88668800Y-110889546D01*
X88505152Y-110835319D01*
X88404154Y-110825000D01*
X88305000Y-110825000D01*
X88305000Y-112774999D01*
X88404140Y-112774999D01*
X88404154Y-112774998D01*
X88505152Y-112764680D01*
X88668800Y-112710453D01*
X88668811Y-112710448D01*
X88815535Y-112619947D01*
X88829460Y-112606021D01*
X88890782Y-112572533D01*
X88960473Y-112577514D01*
X89004827Y-112606017D01*
X89019150Y-112620340D01*
X89165984Y-112710908D01*
X89249506Y-112738584D01*
X89306949Y-112778355D01*
X89333772Y-112842871D01*
X89334500Y-112856289D01*
X89334500Y-116902159D01*
X89314815Y-116969198D01*
X89262011Y-117014953D01*
X89245435Y-117021136D01*
X89160056Y-117046206D01*
X89124621Y-117051228D01*
X88819999Y-117050000D01*
X88819998Y-117050001D01*
X88809999Y-120419999D01*
X88810000Y-120419999D01*
X88810000Y-120420000D01*
X88966000Y-120420629D01*
X89032960Y-120440584D01*
X89078501Y-120493572D01*
X89089500Y-120544628D01*
X89089500Y-121060721D01*
X89089460Y-121063861D01*
X89087243Y-121151362D01*
X89087243Y-121151371D01*
X89097648Y-121209420D01*
X89098956Y-121218748D01*
X89104925Y-121277430D01*
X89104927Y-121277444D01*
X89114033Y-121306468D01*
X89117772Y-121321701D01*
X89123142Y-121351653D01*
X89123142Y-121351655D01*
X89145020Y-121406424D01*
X89148177Y-121415292D01*
X89165841Y-121471588D01*
X89165842Y-121471589D01*
X89165844Y-121471595D01*
X89180603Y-121498185D01*
X89187336Y-121512361D01*
X89198622Y-121540614D01*
X89198627Y-121540624D01*
X89231080Y-121589866D01*
X89235962Y-121597923D01*
X89264588Y-121649498D01*
X89264589Y-121649500D01*
X89264591Y-121649502D01*
X89284410Y-121672588D01*
X89293855Y-121685115D01*
X89310599Y-121710521D01*
X89352299Y-121752221D01*
X89358703Y-121759130D01*
X89381585Y-121785783D01*
X89397134Y-121803895D01*
X89421193Y-121822518D01*
X89432972Y-121832893D01*
X89817433Y-122217353D01*
X89819626Y-122219602D01*
X89879940Y-122283052D01*
X89879948Y-122283058D01*
X89928362Y-122316755D01*
X89935871Y-122322416D01*
X89981593Y-122359698D01*
X90008565Y-122373786D01*
X90021982Y-122381916D01*
X90046951Y-122399295D01*
X90101163Y-122422559D01*
X90109663Y-122426595D01*
X90161951Y-122453909D01*
X90191199Y-122462277D01*
X90205975Y-122467538D01*
X90233942Y-122479540D01*
X90233945Y-122479540D01*
X90233946Y-122479541D01*
X90291713Y-122491412D01*
X90300866Y-122493658D01*
X90357582Y-122509887D01*
X90387914Y-122512196D01*
X90403463Y-122514377D01*
X90433255Y-122520500D01*
X90433259Y-122520500D01*
X90492241Y-122520500D01*
X90501655Y-122520857D01*
X90510009Y-122521494D01*
X90560475Y-122525337D01*
X90560475Y-122525336D01*
X90560476Y-122525337D01*
X90590651Y-122521493D01*
X90606318Y-122520500D01*
X91788259Y-122520500D01*
X91875721Y-122520500D01*
X91878863Y-122520540D01*
X91966360Y-122522757D01*
X91966361Y-122522757D01*
X91966361Y-122522756D01*
X91966363Y-122522757D01*
X91967410Y-122522569D01*
X91968105Y-122522445D01*
X91989979Y-122520500D01*
X92788259Y-122520500D01*
X92847242Y-122520500D01*
X92856656Y-122520857D01*
X92865010Y-122521494D01*
X92915476Y-122525337D01*
X92915476Y-122525336D01*
X92915477Y-122525337D01*
X92945652Y-122521493D01*
X92961319Y-122520500D01*
X93217242Y-122520500D01*
X93226656Y-122520857D01*
X93235010Y-122521494D01*
X93285476Y-122525337D01*
X93285476Y-122525336D01*
X93285477Y-122525337D01*
X93372307Y-122514278D01*
X93375334Y-122513931D01*
X93434881Y-122507876D01*
X93451996Y-122506136D01*
X93464540Y-122505500D01*
X96458259Y-122505500D01*
X97009217Y-122505500D01*
X97076256Y-122525185D01*
X97096898Y-122541819D01*
X97543181Y-122988102D01*
X97576666Y-123049425D01*
X97579500Y-123075783D01*
X97579500Y-127582295D01*
X97579028Y-127593102D01*
X97562677Y-127779997D01*
X97562677Y-127780002D01*
X97581929Y-128000062D01*
X97581930Y-128000070D01*
X97639104Y-128213445D01*
X97639105Y-128213447D01*
X97639106Y-128213450D01*
X97706718Y-128358445D01*
X97732466Y-128413662D01*
X97732468Y-128413666D01*
X97859170Y-128594615D01*
X97859175Y-128594621D01*
X98015378Y-128750824D01*
X98015384Y-128750829D01*
X98196333Y-128877531D01*
X98196335Y-128877532D01*
X98196338Y-128877534D01*
X98396550Y-128970894D01*
X98609932Y-129028070D01*
X98767123Y-129041822D01*
X98829998Y-129047323D01*
X98830000Y-129047323D01*
X98830002Y-129047323D01*
X98885017Y-129042509D01*
X99050068Y-129028070D01*
X99263450Y-128970894D01*
X99463662Y-128877534D01*
X99644620Y-128750826D01*
X99800826Y-128594620D01*
X99927534Y-128413662D01*
X100020894Y-128213450D01*
X100078070Y-128000068D01*
X100097323Y-127780002D01*
X100562677Y-127780002D01*
X100581929Y-128000062D01*
X100581930Y-128000070D01*
X100639104Y-128213445D01*
X100639105Y-128213447D01*
X100639106Y-128213450D01*
X100706718Y-128358445D01*
X100732466Y-128413662D01*
X100732468Y-128413666D01*
X100859170Y-128594615D01*
X100859175Y-128594621D01*
X101015378Y-128750824D01*
X101015384Y-128750829D01*
X101196333Y-128877531D01*
X101196335Y-128877532D01*
X101196338Y-128877534D01*
X101396550Y-128970894D01*
X101609932Y-129028070D01*
X101767123Y-129041822D01*
X101829998Y-129047323D01*
X101830000Y-129047323D01*
X101830002Y-129047323D01*
X101885017Y-129042509D01*
X102050068Y-129028070D01*
X102263450Y-128970894D01*
X102463662Y-128877534D01*
X102644620Y-128750826D01*
X102800826Y-128594620D01*
X102927534Y-128413662D01*
X102988162Y-128283642D01*
X103034331Y-128231207D01*
X103101525Y-128212055D01*
X103168406Y-128232270D01*
X103213741Y-128285435D01*
X103214098Y-128286241D01*
X103306266Y-128496364D01*
X103406564Y-128649882D01*
X103952804Y-128103642D01*
X103976059Y-128157553D01*
X104080756Y-128298185D01*
X104215062Y-128410882D01*
X104306665Y-128456886D01*
X103759942Y-129003609D01*
X103806768Y-129040055D01*
X103806770Y-129040056D01*
X104025385Y-129158364D01*
X104025396Y-129158369D01*
X104260506Y-129239083D01*
X104505707Y-129280000D01*
X104754293Y-129280000D01*
X104999493Y-129239083D01*
X105234603Y-129158369D01*
X105234614Y-129158364D01*
X105453228Y-129040057D01*
X105453231Y-129040055D01*
X105500056Y-129003609D01*
X104955945Y-128459498D01*
X104968891Y-128454787D01*
X105115373Y-128358445D01*
X105235688Y-128230918D01*
X105308446Y-128104894D01*
X105853434Y-128649882D01*
X105953731Y-128496369D01*
X106053587Y-128268717D01*
X106114612Y-128027738D01*
X106114614Y-128027729D01*
X106135141Y-127780005D01*
X106135141Y-127779994D01*
X106114614Y-127532270D01*
X106114612Y-127532261D01*
X106053587Y-127291282D01*
X105953731Y-127063630D01*
X105853434Y-126910116D01*
X105307195Y-127456356D01*
X105283941Y-127402447D01*
X105179244Y-127261815D01*
X105044938Y-127149118D01*
X104953334Y-127103113D01*
X105500057Y-126556390D01*
X105500056Y-126556389D01*
X105453229Y-126519943D01*
X105234614Y-126401635D01*
X105234603Y-126401630D01*
X104999493Y-126320916D01*
X104754293Y-126280000D01*
X104505707Y-126280000D01*
X104260506Y-126320916D01*
X104025396Y-126401630D01*
X104025390Y-126401632D01*
X103806761Y-126519949D01*
X103759942Y-126556388D01*
X103759942Y-126556390D01*
X104304054Y-127100501D01*
X104291109Y-127105213D01*
X104144627Y-127201555D01*
X104024312Y-127329082D01*
X103951553Y-127455105D01*
X103406564Y-126910116D01*
X103308309Y-127060508D01*
X103255162Y-127105864D01*
X103185931Y-127115288D01*
X103122595Y-127085786D01*
X103085264Y-127026726D01*
X103080500Y-126992686D01*
X103080500Y-126169336D01*
X103100185Y-126102297D01*
X103116819Y-126081655D01*
X103701655Y-125496819D01*
X103762978Y-125463334D01*
X103789336Y-125460500D01*
X115240664Y-125460500D01*
X115307703Y-125480185D01*
X115328345Y-125496819D01*
X115743180Y-125911654D01*
X115776665Y-125972977D01*
X115779499Y-125999335D01*
X115779499Y-127222365D01*
X115759814Y-127289404D01*
X115749789Y-127302896D01*
X115698704Y-127362708D01*
X115563780Y-127582885D01*
X115464967Y-127821443D01*
X115464963Y-127821455D01*
X115404686Y-128072528D01*
X115384426Y-128329956D01*
X115404686Y-128587383D01*
X115464963Y-128838456D01*
X115464967Y-128838468D01*
X115563780Y-129077026D01*
X115563782Y-129077030D01*
X115563783Y-129077031D01*
X115698702Y-129297200D01*
X115866403Y-129493552D01*
X116062755Y-129661253D01*
X116282924Y-129796172D01*
X116282926Y-129796172D01*
X116282928Y-129796174D01*
X116357311Y-129826984D01*
X116521489Y-129894989D01*
X116772575Y-129955269D01*
X117029999Y-129975529D01*
X117287423Y-129955269D01*
X117538509Y-129894989D01*
X117777074Y-129796172D01*
X117950332Y-129690000D01*
X122004922Y-129690000D01*
X122025219Y-130077287D01*
X122085886Y-130460323D01*
X122085887Y-130460330D01*
X122186262Y-130834936D01*
X122325244Y-131196994D01*
X122501310Y-131542543D01*
X122712531Y-131867793D01*
X122921095Y-132125350D01*
X122921096Y-132125350D01*
X124412266Y-130634180D01*
X124575130Y-130824870D01*
X124765819Y-130987733D01*
X123274648Y-132478903D01*
X123274649Y-132478904D01*
X123532206Y-132687468D01*
X123857456Y-132898689D01*
X124203005Y-133074755D01*
X124565063Y-133213737D01*
X124939669Y-133314112D01*
X124939676Y-133314113D01*
X125322712Y-133374780D01*
X125620250Y-133390374D01*
X125686167Y-133413540D01*
X125707399Y-133440804D01*
X125710947Y-133433045D01*
X125769742Y-133395296D01*
X125798134Y-133390459D01*
X126097287Y-133374780D01*
X126480323Y-133314113D01*
X126480330Y-133314112D01*
X126854936Y-133213737D01*
X127216994Y-133074755D01*
X127562543Y-132898689D01*
X127887783Y-132687476D01*
X127887785Y-132687475D01*
X128145349Y-132478902D01*
X126654180Y-130987733D01*
X126844870Y-130824870D01*
X127007733Y-130634180D01*
X128498902Y-132125349D01*
X128707475Y-131867785D01*
X128707476Y-131867783D01*
X128918689Y-131542543D01*
X129094755Y-131196994D01*
X129233737Y-130834936D01*
X129334112Y-130460330D01*
X129334113Y-130460323D01*
X129394780Y-130077287D01*
X129411669Y-129755029D01*
X129434835Y-129689111D01*
X129437918Y-129686709D01*
X129416522Y-129653416D01*
X129411669Y-129624970D01*
X129394780Y-129302712D01*
X129334113Y-128919676D01*
X129334112Y-128919669D01*
X129233737Y-128545063D01*
X129094755Y-128183005D01*
X128918689Y-127837456D01*
X128707468Y-127512206D01*
X128498904Y-127254649D01*
X128498903Y-127254648D01*
X127007732Y-128745818D01*
X126844870Y-128555130D01*
X126654180Y-128392266D01*
X128145350Y-126901096D01*
X128145350Y-126901095D01*
X127887793Y-126692531D01*
X127562543Y-126481310D01*
X127216994Y-126305244D01*
X126854936Y-126166262D01*
X126480330Y-126065887D01*
X126480323Y-126065886D01*
X126097287Y-126005219D01*
X125710001Y-125984922D01*
X125709999Y-125984922D01*
X125322712Y-126005219D01*
X124939676Y-126065886D01*
X124939669Y-126065887D01*
X124565063Y-126166262D01*
X124203005Y-126305244D01*
X123857456Y-126481310D01*
X123532206Y-126692531D01*
X123274648Y-126901095D01*
X123274648Y-126901096D01*
X124765819Y-128392266D01*
X124575130Y-128555130D01*
X124412266Y-128745818D01*
X122921096Y-127254648D01*
X122921095Y-127254648D01*
X122712531Y-127512206D01*
X122501310Y-127837456D01*
X122325244Y-128183005D01*
X122186262Y-128545063D01*
X122085887Y-128919669D01*
X122085886Y-128919676D01*
X122025219Y-129302712D01*
X122004922Y-129689999D01*
X122004922Y-129690000D01*
X117950332Y-129690000D01*
X117997243Y-129661253D01*
X118193595Y-129493552D01*
X118361296Y-129297200D01*
X118496215Y-129077031D01*
X118595032Y-128838466D01*
X118655312Y-128587380D01*
X118675572Y-128329956D01*
X118655312Y-128072532D01*
X118595032Y-127821446D01*
X118527027Y-127657268D01*
X118496217Y-127582885D01*
X118496215Y-127582881D01*
X118361296Y-127362712D01*
X118361293Y-127362708D01*
X118310209Y-127302896D01*
X118281638Y-127239135D01*
X118280499Y-127222365D01*
X118280499Y-125507174D01*
X118281279Y-125493289D01*
X118281444Y-125491827D01*
X118285236Y-125458171D01*
X118282853Y-125422829D01*
X118280780Y-125392074D01*
X118280499Y-125383733D01*
X118280499Y-125373852D01*
X118280499Y-125373844D01*
X118276837Y-125333154D01*
X118276630Y-125330519D01*
X118270095Y-125233587D01*
X118269026Y-125229347D01*
X118265767Y-125210168D01*
X118265376Y-125205811D01*
X118239530Y-125112163D01*
X118238838Y-125109543D01*
X118215095Y-125015315D01*
X118213289Y-125011339D01*
X118206653Y-124993038D01*
X118205492Y-124988829D01*
X118163339Y-124901298D01*
X118162188Y-124898838D01*
X118122006Y-124810373D01*
X118119516Y-124806779D01*
X118109724Y-124789963D01*
X118107829Y-124786028D01*
X118107826Y-124786023D01*
X118050739Y-124707449D01*
X118049161Y-124705227D01*
X117993819Y-124625345D01*
X117990728Y-124622254D01*
X117978092Y-124607460D01*
X117975520Y-124603920D01*
X117975517Y-124603917D01*
X117905298Y-124536780D01*
X117903309Y-124534835D01*
X116748816Y-123380342D01*
X116739549Y-123369973D01*
X116717506Y-123342332D01*
X116667603Y-123298732D01*
X116661507Y-123293033D01*
X116654532Y-123286058D01*
X116654521Y-123286048D01*
X116623255Y-123259945D01*
X116621139Y-123258138D01*
X116548003Y-123194240D01*
X116547997Y-123194236D01*
X116547996Y-123194235D01*
X116544241Y-123191991D01*
X116528373Y-123180732D01*
X116525019Y-123177932D01*
X116525018Y-123177931D01*
X116525013Y-123177927D01*
X116440548Y-123130001D01*
X116438144Y-123128601D01*
X116354763Y-123078784D01*
X116350669Y-123077248D01*
X116333044Y-123069002D01*
X116329245Y-123066846D01*
X116237569Y-123034767D01*
X116234953Y-123033819D01*
X116144029Y-122999694D01*
X116144019Y-122999691D01*
X116139723Y-122998912D01*
X116120918Y-122993949D01*
X116116784Y-122992502D01*
X116116777Y-122992501D01*
X116020848Y-122977307D01*
X116018105Y-122976841D01*
X115922550Y-122959500D01*
X115922547Y-122959500D01*
X115918172Y-122959500D01*
X115898769Y-122957972D01*
X115894460Y-122957289D01*
X115797359Y-122959469D01*
X115794577Y-122959500D01*
X103297186Y-122959500D01*
X103283302Y-122958720D01*
X103248177Y-122954762D01*
X103248169Y-122954761D01*
X103182067Y-122959219D01*
X103173725Y-122959500D01*
X103163838Y-122959500D01*
X103123251Y-122963152D01*
X103120482Y-122963370D01*
X103023590Y-122969903D01*
X103019349Y-122970972D01*
X103000176Y-122974230D01*
X102995808Y-122974623D01*
X102902185Y-123000462D01*
X102899495Y-123001172D01*
X102805319Y-123024902D01*
X102801322Y-123026718D01*
X102783059Y-123033339D01*
X102778831Y-123034506D01*
X102691316Y-123076649D01*
X102688800Y-123077826D01*
X102600376Y-123117991D01*
X102600371Y-123117994D01*
X102596775Y-123120486D01*
X102579971Y-123130271D01*
X102576031Y-123132168D01*
X102576029Y-123132169D01*
X102497460Y-123189251D01*
X102495195Y-123190858D01*
X102415345Y-123246180D01*
X102412239Y-123249286D01*
X102397465Y-123261903D01*
X102393928Y-123264473D01*
X102393921Y-123264478D01*
X102326804Y-123334677D01*
X102324859Y-123336665D01*
X101000344Y-124661180D01*
X100989980Y-124670443D01*
X100962337Y-124692489D01*
X100962334Y-124692492D01*
X100918736Y-124742392D01*
X100913048Y-124748476D01*
X100906064Y-124755460D01*
X100906051Y-124755475D01*
X100879928Y-124786764D01*
X100878125Y-124788875D01*
X100814234Y-124862004D01*
X100814230Y-124862010D01*
X100811981Y-124865774D01*
X100800746Y-124881608D01*
X100797932Y-124884979D01*
X100749978Y-124969490D01*
X100748604Y-124971849D01*
X100717964Y-125023133D01*
X100698781Y-125055242D01*
X100697247Y-125059332D01*
X100689008Y-125076945D01*
X100686850Y-125080747D01*
X100686847Y-125080754D01*
X100654762Y-125172445D01*
X100653815Y-125175055D01*
X100631848Y-125233590D01*
X100619692Y-125265979D01*
X100619689Y-125265988D01*
X100618909Y-125270288D01*
X100613952Y-125289069D01*
X100612503Y-125293209D01*
X100612502Y-125293215D01*
X100597304Y-125389165D01*
X100596838Y-125391906D01*
X100579500Y-125487447D01*
X100579500Y-125491827D01*
X100577973Y-125511229D01*
X100577289Y-125515540D01*
X100579469Y-125612639D01*
X100579500Y-125615421D01*
X100579500Y-127582295D01*
X100579028Y-127593102D01*
X100562677Y-127779997D01*
X100562677Y-127780002D01*
X100097323Y-127780002D01*
X100097323Y-127780000D01*
X100097322Y-127779994D01*
X100080972Y-127593102D01*
X100080500Y-127582295D01*
X100080500Y-122721673D01*
X100083038Y-122696712D01*
X100100500Y-122611741D01*
X100100500Y-121785783D01*
X100120185Y-121718744D01*
X100136819Y-121698102D01*
X100993341Y-120841580D01*
X102997343Y-118837578D01*
X109257409Y-112577510D01*
X109259578Y-112575395D01*
X109323053Y-112515059D01*
X109356756Y-112466635D01*
X109362405Y-112459142D01*
X109399698Y-112413407D01*
X109413788Y-112386430D01*
X109421909Y-112373026D01*
X109439295Y-112348049D01*
X109462563Y-112293825D01*
X109466582Y-112285361D01*
X109493909Y-112233049D01*
X109502278Y-112203797D01*
X109507538Y-112189023D01*
X109519540Y-112161058D01*
X109531415Y-112103268D01*
X109533649Y-112094162D01*
X109549887Y-112037418D01*
X109552197Y-112007077D01*
X109554376Y-111991535D01*
X109560500Y-111961741D01*
X109560500Y-111902758D01*
X109560858Y-111893342D01*
X109565337Y-111834526D01*
X109561493Y-111804338D01*
X109560500Y-111788674D01*
X109560500Y-108329956D01*
X115384928Y-108329956D01*
X115405182Y-108587305D01*
X115465443Y-108838311D01*
X115465443Y-108838312D01*
X115564227Y-109076799D01*
X115564229Y-109076802D01*
X115699110Y-109296907D01*
X115703894Y-109302507D01*
X116345194Y-108661206D01*
X116367339Y-108712543D01*
X116473432Y-108855050D01*
X116609529Y-108969250D01*
X116699215Y-109014291D01*
X116057446Y-109656059D01*
X116057446Y-109656060D01*
X116063045Y-109660841D01*
X116063051Y-109660846D01*
X116283152Y-109795725D01*
X116283155Y-109795727D01*
X116521643Y-109894511D01*
X116772649Y-109954772D01*
X117029999Y-109975026D01*
X117287348Y-109954772D01*
X117538354Y-109894511D01*
X117538355Y-109894511D01*
X117776842Y-109795727D01*
X117776845Y-109795725D01*
X117996941Y-109660850D01*
X118002549Y-109656059D01*
X117363746Y-109017256D01*
X117373408Y-109013740D01*
X117521843Y-108916113D01*
X117643763Y-108786886D01*
X117715767Y-108662171D01*
X118356102Y-109302506D01*
X118360893Y-109296898D01*
X118495768Y-109076802D01*
X118495770Y-109076799D01*
X118594554Y-108838312D01*
X118594554Y-108838311D01*
X118654815Y-108587305D01*
X118675069Y-108329956D01*
X118654815Y-108072606D01*
X118594554Y-107821600D01*
X118594554Y-107821599D01*
X118495770Y-107583112D01*
X118495768Y-107583109D01*
X118360889Y-107363008D01*
X118360884Y-107363002D01*
X118356102Y-107357403D01*
X117714802Y-107998703D01*
X117692659Y-107947369D01*
X117586566Y-107804862D01*
X117450469Y-107690662D01*
X117360782Y-107645620D01*
X118002550Y-107003851D01*
X118002550Y-107003850D01*
X117996950Y-106999067D01*
X117776845Y-106864186D01*
X117776842Y-106864184D01*
X117538354Y-106765400D01*
X117287348Y-106705139D01*
X117029999Y-106684885D01*
X116772649Y-106705139D01*
X116521643Y-106765400D01*
X116521642Y-106765400D01*
X116283155Y-106864184D01*
X116283152Y-106864186D01*
X116063056Y-106999061D01*
X116063051Y-106999065D01*
X116057446Y-107003850D01*
X116696251Y-107642655D01*
X116686590Y-107646172D01*
X116538155Y-107743799D01*
X116416235Y-107873026D01*
X116344230Y-107997740D01*
X115703893Y-107357403D01*
X115699108Y-107363008D01*
X115699104Y-107363013D01*
X115564229Y-107583109D01*
X115564227Y-107583112D01*
X115465443Y-107821599D01*
X115465443Y-107821600D01*
X115405182Y-108072606D01*
X115384928Y-108329956D01*
X109560500Y-108329956D01*
X109560500Y-99955783D01*
X109580185Y-99888744D01*
X109596819Y-99868102D01*
X111683502Y-97781419D01*
X113753340Y-95711581D01*
X113753340Y-95711580D01*
X116155309Y-93309609D01*
X116155314Y-93309606D01*
X116165517Y-93299402D01*
X116165519Y-93299402D01*
X118297390Y-91167528D01*
X118299559Y-91165413D01*
X118363053Y-91105059D01*
X118396752Y-91056641D01*
X118402428Y-91049113D01*
X118439698Y-91003407D01*
X118453782Y-90976444D01*
X118461919Y-90963013D01*
X118479292Y-90938053D01*
X118479295Y-90938049D01*
X118502563Y-90883825D01*
X118506582Y-90875361D01*
X118533909Y-90823049D01*
X118542278Y-90793797D01*
X118547538Y-90779023D01*
X118559540Y-90751058D01*
X118571415Y-90693268D01*
X118573649Y-90684162D01*
X118589887Y-90627418D01*
X118592197Y-90597077D01*
X118594376Y-90581535D01*
X118600500Y-90551741D01*
X118600500Y-90492758D01*
X118600858Y-90483342D01*
X118605337Y-90424527D01*
X118601493Y-90394339D01*
X118600500Y-90378675D01*
X118600500Y-87664275D01*
X118600540Y-87661135D01*
X118600578Y-87659615D01*
X118602757Y-87573635D01*
X118602445Y-87571894D01*
X118600500Y-87550016D01*
X118600500Y-86672754D01*
X118600858Y-86663339D01*
X118602635Y-86639999D01*
X118605337Y-86604524D01*
X118601493Y-86574339D01*
X118600500Y-86558675D01*
X118600500Y-86172758D01*
X118600858Y-86163342D01*
X118605337Y-86104527D01*
X118601493Y-86074339D01*
X118600500Y-86058675D01*
X118600500Y-81710000D01*
X121984922Y-81710000D01*
X122005219Y-82097287D01*
X122065886Y-82480323D01*
X122065887Y-82480330D01*
X122166262Y-82854936D01*
X122305244Y-83216994D01*
X122481310Y-83562543D01*
X122692531Y-83887793D01*
X122901095Y-84145350D01*
X122901096Y-84145350D01*
X124392266Y-82654180D01*
X124555130Y-82844870D01*
X124745819Y-83007733D01*
X123254648Y-84498903D01*
X123254649Y-84498904D01*
X123512206Y-84707468D01*
X123837456Y-84918689D01*
X124183005Y-85094755D01*
X124545063Y-85233737D01*
X124919669Y-85334112D01*
X124919676Y-85334113D01*
X125302712Y-85394780D01*
X125689999Y-85415078D01*
X125690001Y-85415078D01*
X126077287Y-85394780D01*
X126460323Y-85334113D01*
X126460330Y-85334112D01*
X126834936Y-85233737D01*
X127196994Y-85094755D01*
X127542543Y-84918689D01*
X127867783Y-84707476D01*
X127867785Y-84707475D01*
X128125349Y-84498902D01*
X126634180Y-83007733D01*
X126824870Y-82844870D01*
X126987733Y-82654180D01*
X128478902Y-84145349D01*
X128687475Y-83887785D01*
X128687476Y-83887783D01*
X128898689Y-83562543D01*
X129074755Y-83216994D01*
X129213737Y-82854936D01*
X129314112Y-82480330D01*
X129314113Y-82480323D01*
X129374780Y-82097287D01*
X129395078Y-81710000D01*
X129395078Y-81709999D01*
X129374780Y-81322712D01*
X129314113Y-80939676D01*
X129314112Y-80939669D01*
X129213737Y-80565063D01*
X129074755Y-80203005D01*
X128898689Y-79857456D01*
X128687468Y-79532206D01*
X128478904Y-79274649D01*
X128478903Y-79274648D01*
X126987732Y-80765818D01*
X126824870Y-80575130D01*
X126634180Y-80412266D01*
X128125350Y-78921096D01*
X128125350Y-78921095D01*
X127867793Y-78712531D01*
X127542543Y-78501310D01*
X127196994Y-78325244D01*
X126834936Y-78186262D01*
X126460330Y-78085887D01*
X126460323Y-78085886D01*
X126077287Y-78025219D01*
X125761939Y-78008692D01*
X125696022Y-77985526D01*
X125688803Y-77976257D01*
X125645864Y-78003866D01*
X125617393Y-78008727D01*
X125302712Y-78025219D01*
X124919676Y-78085886D01*
X124919669Y-78085887D01*
X124545063Y-78186262D01*
X124183005Y-78325244D01*
X123837456Y-78501310D01*
X123512206Y-78712531D01*
X123254648Y-78921095D01*
X123254648Y-78921096D01*
X124745819Y-80412266D01*
X124555130Y-80575130D01*
X124392266Y-80765818D01*
X122901096Y-79274648D01*
X122901095Y-79274648D01*
X122692531Y-79532206D01*
X122481310Y-79857456D01*
X122305244Y-80203005D01*
X122166262Y-80565063D01*
X122065887Y-80939669D01*
X122065886Y-80939676D01*
X122005219Y-81322712D01*
X121984922Y-81709999D01*
X121984922Y-81710000D01*
X118600500Y-81710000D01*
X118600500Y-81554277D01*
X118600540Y-81551135D01*
X118602757Y-81463641D01*
X118602756Y-81463640D01*
X118602757Y-81463637D01*
X118592349Y-81405573D01*
X118591041Y-81396242D01*
X118585074Y-81337562D01*
X118581703Y-81326819D01*
X118575963Y-81308524D01*
X118572226Y-81293301D01*
X118566858Y-81263347D01*
X118544974Y-81208562D01*
X118541822Y-81199709D01*
X118524159Y-81143412D01*
X118524158Y-81143411D01*
X118524157Y-81143406D01*
X118509396Y-81116814D01*
X118502659Y-81102629D01*
X118497441Y-81089566D01*
X118491377Y-81074383D01*
X118480225Y-81057461D01*
X118458918Y-81025131D01*
X118454036Y-81017074D01*
X118425409Y-80965498D01*
X118405588Y-80942410D01*
X118396144Y-80929885D01*
X118379402Y-80904481D01*
X118337692Y-80862771D01*
X118331300Y-80855875D01*
X118292866Y-80811105D01*
X118268804Y-80792479D01*
X118257026Y-80782105D01*
X117067566Y-79592646D01*
X117065373Y-79590397D01*
X117005061Y-79526949D01*
X117005060Y-79526948D01*
X117005059Y-79526947D01*
X116956640Y-79493246D01*
X116949120Y-79487575D01*
X116903413Y-79450305D01*
X116903406Y-79450301D01*
X116876441Y-79436216D01*
X116863026Y-79428089D01*
X116838049Y-79410705D01*
X116838046Y-79410703D01*
X116838045Y-79410703D01*
X116838041Y-79410701D01*
X116783845Y-79387443D01*
X116775336Y-79383402D01*
X116723057Y-79356094D01*
X116723046Y-79356090D01*
X116693806Y-79347723D01*
X116679021Y-79342459D01*
X116651058Y-79330459D01*
X116593273Y-79318583D01*
X116584127Y-79316338D01*
X116527423Y-79300113D01*
X116503699Y-79298306D01*
X116497072Y-79297801D01*
X116481533Y-79295622D01*
X116451742Y-79289500D01*
X116451741Y-79289500D01*
X116392759Y-79289500D01*
X116383344Y-79289142D01*
X116380643Y-79288936D01*
X116324524Y-79284662D01*
X116294349Y-79288506D01*
X116278682Y-79289500D01*
X104734000Y-79289500D01*
X104666961Y-79269815D01*
X104621206Y-79217011D01*
X104610000Y-79165500D01*
X104610000Y-78970001D01*
X104610000Y-78970000D01*
X104609998Y-78969999D01*
X101239999Y-78959999D01*
X101241257Y-79283175D01*
X101230054Y-79335166D01*
X101219834Y-79357544D01*
X101214716Y-79393147D01*
X101185691Y-79456702D01*
X101126913Y-79494477D01*
X101091978Y-79499500D01*
X100303705Y-79499500D01*
X100285735Y-79498191D01*
X100261972Y-79494710D01*
X100215642Y-79498764D01*
X100212632Y-79499028D01*
X100201826Y-79499500D01*
X100196284Y-79499500D01*
X100165484Y-79503100D01*
X100161899Y-79503466D01*
X100087200Y-79510001D01*
X100080133Y-79511461D01*
X100080121Y-79511404D01*
X100072754Y-79513038D01*
X100072768Y-79513094D01*
X100065745Y-79514758D01*
X99995270Y-79540407D01*
X99991870Y-79541589D01*
X99920666Y-79565185D01*
X99914119Y-79568238D01*
X99914094Y-79568186D01*
X99907310Y-79571470D01*
X99907336Y-79571521D01*
X99900884Y-79574761D01*
X99838236Y-79615965D01*
X99835196Y-79617902D01*
X99771347Y-79657285D01*
X99765682Y-79661765D01*
X99765646Y-79661719D01*
X99759798Y-79666484D01*
X99759835Y-79666528D01*
X99754310Y-79671164D01*
X99702848Y-79725709D01*
X99700336Y-79728294D01*
X99509358Y-79919272D01*
X99495729Y-79931051D01*
X99476469Y-79945390D01*
X99444632Y-79983331D01*
X99437346Y-79991284D01*
X99433407Y-79995224D01*
X99414176Y-80019545D01*
X99411902Y-80022337D01*
X99363694Y-80079790D01*
X99359729Y-80085819D01*
X99359682Y-80085788D01*
X99355630Y-80092147D01*
X99355679Y-80092177D01*
X99351889Y-80098321D01*
X99320192Y-80166294D01*
X99318623Y-80169536D01*
X99284957Y-80236572D01*
X99282488Y-80243357D01*
X99282432Y-80243336D01*
X99279960Y-80250450D01*
X99280015Y-80250469D01*
X99277743Y-80257325D01*
X99262573Y-80330788D01*
X99261793Y-80334304D01*
X99244499Y-80407279D01*
X99243661Y-80414454D01*
X99243601Y-80414447D01*
X99242835Y-80421945D01*
X99242895Y-80421951D01*
X99242265Y-80429140D01*
X99244448Y-80504128D01*
X99244500Y-80507735D01*
X99244500Y-81495500D01*
X99224815Y-81562539D01*
X99172011Y-81608294D01*
X99120500Y-81619500D01*
X96784552Y-81619500D01*
X96717513Y-81599815D01*
X96696871Y-81583181D01*
X96663351Y-81549661D01*
X96663350Y-81549660D01*
X96516516Y-81459092D01*
X96352753Y-81404826D01*
X96352751Y-81404825D01*
X96251678Y-81394500D01*
X95653330Y-81394500D01*
X95653312Y-81394501D01*
X95552247Y-81404825D01*
X95388484Y-81459092D01*
X95388481Y-81459093D01*
X95241648Y-81549661D01*
X95127681Y-81663629D01*
X95066358Y-81697114D01*
X94996666Y-81692130D01*
X94952319Y-81663629D01*
X94838351Y-81549661D01*
X94838350Y-81549660D01*
X94691516Y-81459092D01*
X94527753Y-81404826D01*
X94527751Y-81404825D01*
X94426678Y-81394500D01*
X93828330Y-81394500D01*
X93828312Y-81394501D01*
X93727247Y-81404825D01*
X93563484Y-81459092D01*
X93563481Y-81459093D01*
X93416648Y-81549661D01*
X93294661Y-81671648D01*
X93204093Y-81818481D01*
X93204092Y-81818484D01*
X93149826Y-81982247D01*
X93149826Y-81982248D01*
X93149825Y-81982248D01*
X93139500Y-82083315D01*
X93139500Y-82656669D01*
X93139501Y-82656687D01*
X93149825Y-82757752D01*
X93204092Y-82921515D01*
X93204093Y-82921518D01*
X93238395Y-82977129D01*
X93287166Y-83056201D01*
X93294661Y-83068351D01*
X93340681Y-83114371D01*
X93374166Y-83175694D01*
X93377000Y-83202052D01*
X93377000Y-83437948D01*
X93357315Y-83504987D01*
X93340681Y-83525629D01*
X93294661Y-83571648D01*
X93204093Y-83718481D01*
X93204091Y-83718486D01*
X93176719Y-83801088D01*
X93149826Y-83882247D01*
X93149826Y-83882248D01*
X93149825Y-83882248D01*
X93139500Y-83983315D01*
X93139500Y-84556669D01*
X93139501Y-84556687D01*
X93149825Y-84657752D01*
X93172930Y-84727476D01*
X93204020Y-84821300D01*
X93204092Y-84821515D01*
X93204093Y-84821518D01*
X93209735Y-84830665D01*
X93294660Y-84968350D01*
X93416650Y-85090340D01*
X93563484Y-85180908D01*
X93727247Y-85235174D01*
X93828323Y-85245500D01*
X94501676Y-85245499D01*
X94501684Y-85245498D01*
X94501687Y-85245498D01*
X94557030Y-85239844D01*
X94602753Y-85235174D01*
X94766516Y-85180908D01*
X94913350Y-85090340D01*
X94952673Y-85051016D01*
X95013994Y-85017532D01*
X95083685Y-85022516D01*
X95128034Y-85051017D01*
X95166961Y-85089944D01*
X95166965Y-85089947D01*
X95313688Y-85180448D01*
X95313699Y-85180453D01*
X95477347Y-85234680D01*
X95578351Y-85244999D01*
X95665000Y-85244998D01*
X95665000Y-84520000D01*
X96165000Y-84520000D01*
X96165000Y-85244999D01*
X96251640Y-85244999D01*
X96251654Y-85244998D01*
X96352652Y-85234680D01*
X96516300Y-85180453D01*
X96516311Y-85180448D01*
X96663034Y-85089947D01*
X96663038Y-85089944D01*
X96784944Y-84968038D01*
X96784947Y-84968034D01*
X96875448Y-84821311D01*
X96875453Y-84821300D01*
X96929680Y-84657652D01*
X96939999Y-84556654D01*
X96940000Y-84556641D01*
X96940000Y-84520000D01*
X96165000Y-84520000D01*
X95665000Y-84520000D01*
X95665000Y-84144000D01*
X95684685Y-84076961D01*
X95737489Y-84031206D01*
X95789000Y-84020000D01*
X96939999Y-84020000D01*
X96939999Y-83983360D01*
X96939998Y-83983345D01*
X96929680Y-83882347D01*
X96875453Y-83718699D01*
X96875448Y-83718688D01*
X96784947Y-83571965D01*
X96784944Y-83571961D01*
X96663038Y-83450055D01*
X96663034Y-83450052D01*
X96623766Y-83425831D01*
X96577041Y-83373883D01*
X96565820Y-83304921D01*
X96593663Y-83240839D01*
X96623762Y-83214757D01*
X96663350Y-83190340D01*
X96696871Y-83156819D01*
X96758194Y-83123334D01*
X96784552Y-83120500D01*
X99120500Y-83120500D01*
X99187539Y-83140185D01*
X99233294Y-83192989D01*
X99244500Y-83244500D01*
X99244500Y-84722157D01*
X99224815Y-84789196D01*
X99172011Y-84834951D01*
X99102853Y-84844895D01*
X99039297Y-84815870D01*
X99032819Y-84809838D01*
X99028034Y-84805053D01*
X99028030Y-84805050D01*
X98881307Y-84714549D01*
X98881296Y-84714544D01*
X98717648Y-84660317D01*
X98616650Y-84649998D01*
X98517496Y-84649998D01*
X98517496Y-86599997D01*
X98616636Y-86599997D01*
X98616650Y-86599996D01*
X98717648Y-86589678D01*
X98881296Y-86535451D01*
X98881307Y-86535446D01*
X99028031Y-86444945D01*
X99032814Y-86440162D01*
X99094136Y-86406674D01*
X99163828Y-86411655D01*
X99219763Y-86453524D01*
X99244184Y-86518987D01*
X99244500Y-86527839D01*
X99244500Y-87760500D01*
X99224815Y-87827539D01*
X99172011Y-87873294D01*
X99120500Y-87884500D01*
X99104298Y-87884500D01*
X99067432Y-87887401D01*
X99067426Y-87887402D01*
X98909606Y-87933254D01*
X98909603Y-87933255D01*
X98768137Y-88016917D01*
X98768129Y-88016923D01*
X98651923Y-88133129D01*
X98651917Y-88133137D01*
X98568255Y-88274603D01*
X98568254Y-88274606D01*
X98522402Y-88432426D01*
X98522401Y-88432432D01*
X98519500Y-88469298D01*
X98519500Y-88900701D01*
X98522401Y-88937567D01*
X98522402Y-88937573D01*
X98568254Y-89095393D01*
X98568255Y-89095396D01*
X98581226Y-89117330D01*
X98598406Y-89185054D01*
X98576245Y-89251316D01*
X98521778Y-89295078D01*
X98478396Y-89304386D01*
X98476726Y-89304439D01*
X98472841Y-89304500D01*
X98444074Y-89304500D01*
X98444071Y-89304500D01*
X98444056Y-89304501D01*
X98439686Y-89305053D01*
X98428058Y-89305968D01*
X98382433Y-89307402D01*
X98382423Y-89307404D01*
X98362047Y-89313323D01*
X98343007Y-89317266D01*
X98321946Y-89319927D01*
X98321941Y-89319928D01*
X98279488Y-89336736D01*
X98268442Y-89340518D01*
X98224597Y-89353257D01*
X98206323Y-89364063D01*
X98188865Y-89372616D01*
X98169128Y-89380432D01*
X98137873Y-89403140D01*
X98132191Y-89407268D01*
X98122428Y-89413680D01*
X98083140Y-89436915D01*
X98083127Y-89436925D01*
X98068125Y-89451927D01*
X98053332Y-89464562D01*
X98036160Y-89477037D01*
X98036159Y-89477039D01*
X98007054Y-89512220D01*
X97999193Y-89520859D01*
X97616868Y-89903184D01*
X97555545Y-89936669D01*
X97529187Y-89939503D01*
X96687719Y-89939503D01*
X96620680Y-89919818D01*
X96586144Y-89886626D01*
X96468492Y-89718600D01*
X96301400Y-89551509D01*
X96301394Y-89551504D01*
X96115840Y-89421578D01*
X96072215Y-89367001D01*
X96065021Y-89297503D01*
X96096544Y-89235148D01*
X96115840Y-89218428D01*
X96207138Y-89154500D01*
X96301399Y-89088498D01*
X96468493Y-88921404D01*
X96604033Y-88727833D01*
X96703901Y-88513666D01*
X96765061Y-88285411D01*
X96785657Y-88050003D01*
X96765061Y-87814595D01*
X96703901Y-87586340D01*
X96604033Y-87372174D01*
X96595730Y-87360315D01*
X96468492Y-87178600D01*
X96301400Y-87011509D01*
X96301393Y-87011504D01*
X96107832Y-86875970D01*
X96107828Y-86875968D01*
X96107826Y-86875967D01*
X95893661Y-86776100D01*
X95893657Y-86776099D01*
X95893653Y-86776097D01*
X95665411Y-86714941D01*
X95665401Y-86714939D01*
X95429999Y-86694344D01*
X95429997Y-86694344D01*
X95194594Y-86714939D01*
X95194584Y-86714941D01*
X94966342Y-86776097D01*
X94966333Y-86776101D01*
X94752169Y-86875967D01*
X94752167Y-86875968D01*
X94558595Y-87011508D01*
X94391503Y-87178600D01*
X94255963Y-87372172D01*
X94255962Y-87372174D01*
X94156096Y-87586338D01*
X94156092Y-87586347D01*
X94094936Y-87814589D01*
X94094934Y-87814599D01*
X94074339Y-88050002D01*
X94074339Y-88050003D01*
X94086123Y-88184693D01*
X94072356Y-88253193D01*
X94023741Y-88303377D01*
X93962595Y-88319501D01*
X91368202Y-88319501D01*
X91301163Y-88299816D01*
X91275578Y-88276620D01*
X91275441Y-88276758D01*
X91272641Y-88273958D01*
X91270939Y-88272415D01*
X91270338Y-88271655D01*
X91148350Y-88149667D01*
X91148344Y-88149661D01*
X91148336Y-88149656D01*
X91144916Y-88146952D01*
X91104537Y-88089932D01*
X91101395Y-88020133D01*
X91136488Y-87959715D01*
X91144917Y-87952412D01*
X91148040Y-87949942D01*
X91269944Y-87828038D01*
X91269947Y-87828034D01*
X91360448Y-87681311D01*
X91360453Y-87681300D01*
X91414680Y-87517652D01*
X91424999Y-87416654D01*
X91425000Y-87416641D01*
X91425000Y-87380000D01*
X90274000Y-87380000D01*
X90206961Y-87360315D01*
X90161206Y-87307511D01*
X90150000Y-87256000D01*
X90150000Y-86155000D01*
X90650000Y-86155000D01*
X90650000Y-86880000D01*
X91424999Y-86880000D01*
X91424999Y-86843360D01*
X91424998Y-86843345D01*
X91414680Y-86742347D01*
X91360453Y-86578699D01*
X91360448Y-86578688D01*
X91269947Y-86431965D01*
X91269944Y-86431961D01*
X91148038Y-86310055D01*
X91148034Y-86310052D01*
X91001311Y-86219551D01*
X91001300Y-86219546D01*
X90837652Y-86165319D01*
X90736654Y-86155000D01*
X90650000Y-86155000D01*
X90150000Y-86155000D01*
X90149999Y-86154999D01*
X90063360Y-86155000D01*
X90063343Y-86155001D01*
X89962347Y-86165319D01*
X89798699Y-86219546D01*
X89798688Y-86219551D01*
X89651965Y-86310052D01*
X89651961Y-86310055D01*
X89613033Y-86348983D01*
X89551710Y-86382468D01*
X89482018Y-86377482D01*
X89437672Y-86348982D01*
X89398351Y-86309661D01*
X89398350Y-86309660D01*
X89259293Y-86223889D01*
X89251518Y-86219093D01*
X89251513Y-86219091D01*
X89207761Y-86204593D01*
X89087753Y-86164826D01*
X89087751Y-86164825D01*
X88986678Y-86154500D01*
X88313330Y-86154500D01*
X88313312Y-86154501D01*
X88212247Y-86164825D01*
X88048484Y-86219092D01*
X88048481Y-86219093D01*
X87901648Y-86309661D01*
X87779661Y-86431648D01*
X87689093Y-86578481D01*
X87689091Y-86578486D01*
X87681963Y-86599997D01*
X87634826Y-86742247D01*
X87634826Y-86742248D01*
X87634825Y-86742248D01*
X87624500Y-86843315D01*
X87624500Y-87416669D01*
X87624501Y-87416687D01*
X87634825Y-87517752D01*
X87657556Y-87586347D01*
X87689092Y-87681516D01*
X87771178Y-87814599D01*
X87779661Y-87828351D01*
X87901650Y-87950340D01*
X87904676Y-87952733D01*
X87906211Y-87954901D01*
X87906757Y-87955447D01*
X87906663Y-87955540D01*
X87945052Y-88009755D01*
X87948190Y-88079554D01*
X87913094Y-88139970D01*
X87904672Y-88147266D01*
X87901648Y-88149656D01*
X87779653Y-88271652D01*
X87689087Y-88418482D01*
X87689085Y-88418487D01*
X87683614Y-88434998D01*
X87634820Y-88582248D01*
X87634820Y-88582249D01*
X87634819Y-88582249D01*
X87624494Y-88683316D01*
X87624494Y-89256670D01*
X87624495Y-89256688D01*
X87634819Y-89357753D01*
X87661053Y-89436920D01*
X87686005Y-89512220D01*
X87689086Y-89521516D01*
X87689087Y-89521519D01*
X87703327Y-89544606D01*
X87779654Y-89668351D01*
X87901644Y-89790341D01*
X88048478Y-89880909D01*
X88143255Y-89912315D01*
X88200700Y-89952088D01*
X88227523Y-90016604D01*
X88215208Y-90085380D01*
X88167665Y-90136579D01*
X88143256Y-90147727D01*
X88025982Y-90186588D01*
X88025979Y-90186589D01*
X87879146Y-90277157D01*
X87757159Y-90399144D01*
X87666591Y-90545977D01*
X87666589Y-90545982D01*
X87664681Y-90551741D01*
X87612324Y-90709743D01*
X87612324Y-90709744D01*
X87612323Y-90709744D01*
X87601998Y-90810811D01*
X87601998Y-91384165D01*
X87601999Y-91384183D01*
X87612323Y-91485248D01*
X87644824Y-91583328D01*
X87666590Y-91649012D01*
X87757158Y-91795846D01*
X87879148Y-91917836D01*
X87882869Y-91920131D01*
X87929592Y-91972078D01*
X87940815Y-92041041D01*
X87912971Y-92105123D01*
X87905453Y-92113350D01*
X87779657Y-92239147D01*
X87689091Y-92385977D01*
X87689090Y-92385980D01*
X87634824Y-92549743D01*
X87634824Y-92549744D01*
X87634823Y-92549744D01*
X87624498Y-92650811D01*
X87624498Y-93224165D01*
X87624499Y-93224183D01*
X87634823Y-93325248D01*
X87666007Y-93419353D01*
X87682336Y-93468631D01*
X87689090Y-93489011D01*
X87689091Y-93489014D01*
X87703684Y-93512673D01*
X87779658Y-93635846D01*
X87901648Y-93757836D01*
X88048482Y-93848404D01*
X88212245Y-93902670D01*
X88212255Y-93902671D01*
X88212674Y-93902761D01*
X88212915Y-93902891D01*
X88218671Y-93904799D01*
X88218330Y-93905825D01*
X88274109Y-93936041D01*
X88307799Y-93997251D01*
X88303048Y-94066959D01*
X88261364Y-94123033D01*
X88220795Y-94141564D01*
X88221171Y-94142697D01*
X88050980Y-94199093D01*
X88050977Y-94199094D01*
X87904144Y-94289662D01*
X87782157Y-94411649D01*
X87691589Y-94558482D01*
X87691587Y-94558487D01*
X87664215Y-94641089D01*
X87637322Y-94722248D01*
X87637322Y-94722249D01*
X87637321Y-94722249D01*
X87626996Y-94823316D01*
X87626996Y-95396670D01*
X87626997Y-95396688D01*
X87637321Y-95497753D01*
X87673605Y-95607250D01*
X87691588Y-95661517D01*
X87782156Y-95808351D01*
X87904146Y-95930341D01*
X87943091Y-95954362D01*
X87989815Y-96006310D01*
X88001994Y-96059901D01*
X88001994Y-96183182D01*
X87982309Y-96250221D01*
X87943093Y-96288719D01*
X87909144Y-96309659D01*
X87787152Y-96431652D01*
X87696586Y-96578482D01*
X87696585Y-96578485D01*
X87642319Y-96742248D01*
X87642319Y-96742249D01*
X87642318Y-96742249D01*
X87631993Y-96843316D01*
X87631993Y-97416670D01*
X87631994Y-97416688D01*
X87642318Y-97517753D01*
X87664541Y-97584815D01*
X87692830Y-97670186D01*
X87696585Y-97681516D01*
X87696586Y-97681519D01*
X87717838Y-97715973D01*
X87787153Y-97828351D01*
X87909143Y-97950341D01*
X88055977Y-98040909D01*
X88219740Y-98095175D01*
X88320816Y-98105501D01*
X88919169Y-98105500D01*
X88919177Y-98105499D01*
X88919180Y-98105499D01*
X88974523Y-98099845D01*
X89020246Y-98095175D01*
X89184009Y-98040909D01*
X89330843Y-97950341D01*
X89444812Y-97836372D01*
X89506135Y-97802887D01*
X89575827Y-97807871D01*
X89620174Y-97836372D01*
X89734143Y-97950341D01*
X89880977Y-98040909D01*
X90044740Y-98095175D01*
X90145816Y-98105501D01*
X90744169Y-98105500D01*
X90744177Y-98105499D01*
X90744180Y-98105499D01*
X90799523Y-98099845D01*
X90845246Y-98095175D01*
X91009009Y-98040909D01*
X91155843Y-97950341D01*
X91277833Y-97828351D01*
X91277833Y-97828350D01*
X91282940Y-97823244D01*
X91284169Y-97824473D01*
X91333751Y-97789358D01*
X91370106Y-97782704D01*
X91410976Y-97781419D01*
X91478599Y-97798988D01*
X91525990Y-97850329D01*
X91538101Y-97919141D01*
X91520408Y-97970454D01*
X91480190Y-98035659D01*
X91480185Y-98035668D01*
X91460467Y-98095174D01*
X91425001Y-98202203D01*
X91425001Y-98202204D01*
X91425000Y-98202204D01*
X91414500Y-98304983D01*
X91414500Y-99280183D01*
X91410607Y-99311012D01*
X91409500Y-99315324D01*
X91409500Y-99336544D01*
X91407973Y-99355943D01*
X91404653Y-99376905D01*
X91408950Y-99422358D01*
X91409500Y-99434028D01*
X91409500Y-106524494D01*
X91407732Y-106540505D01*
X91407974Y-106540528D01*
X91407240Y-106548294D01*
X91409439Y-106618262D01*
X91409500Y-106622157D01*
X91409500Y-106650920D01*
X91409501Y-106650938D01*
X91410053Y-106655311D01*
X91410968Y-106666941D01*
X91412402Y-106712567D01*
X91412403Y-106712570D01*
X91418323Y-106732948D01*
X91422268Y-106751996D01*
X91424928Y-106773054D01*
X91424931Y-106773065D01*
X91441737Y-106815514D01*
X91445520Y-106826563D01*
X91458254Y-106870395D01*
X91458255Y-106870397D01*
X91469060Y-106888666D01*
X91477617Y-106906134D01*
X91483226Y-106920300D01*
X91485432Y-106925872D01*
X91512266Y-106962806D01*
X91518678Y-106972568D01*
X91534346Y-106999061D01*
X91541919Y-107011865D01*
X91541923Y-107011869D01*
X91556925Y-107026871D01*
X91569563Y-107041669D01*
X91582033Y-107058833D01*
X91582036Y-107058837D01*
X91617213Y-107087937D01*
X91625854Y-107095800D01*
X92019564Y-107489510D01*
X92029635Y-107502080D01*
X92029822Y-107501926D01*
X92034795Y-107507937D01*
X92085832Y-107555864D01*
X92088629Y-107558575D01*
X92108968Y-107578914D01*
X92112451Y-107581616D01*
X92121327Y-107589197D01*
X92133846Y-107600953D01*
X92154607Y-107620448D01*
X92173198Y-107630668D01*
X92189463Y-107641352D01*
X92206234Y-107654361D01*
X92206237Y-107654363D01*
X92248144Y-107672497D01*
X92258618Y-107677628D01*
X92298632Y-107699627D01*
X92319193Y-107704905D01*
X92337597Y-107711207D01*
X92357074Y-107719636D01*
X92402178Y-107726779D01*
X92413597Y-107729144D01*
X92457823Y-107740500D01*
X92479045Y-107740500D01*
X92498442Y-107742026D01*
X92519405Y-107745347D01*
X92564863Y-107741049D01*
X92576531Y-107740500D01*
X92675500Y-107740500D01*
X92742539Y-107760185D01*
X92788294Y-107812989D01*
X92799500Y-107864500D01*
X92799500Y-113410268D01*
X92779815Y-113477307D01*
X92763181Y-113497949D01*
X92700153Y-113560977D01*
X92700151Y-113560980D01*
X92094358Y-114166772D01*
X92080729Y-114178551D01*
X92061469Y-114192890D01*
X92029632Y-114230831D01*
X92022346Y-114238784D01*
X92018407Y-114242724D01*
X91999176Y-114267045D01*
X91996902Y-114269837D01*
X91948694Y-114327290D01*
X91944729Y-114333319D01*
X91944682Y-114333288D01*
X91940630Y-114339647D01*
X91940679Y-114339677D01*
X91936889Y-114345821D01*
X91905192Y-114413794D01*
X91903623Y-114417036D01*
X91869957Y-114484072D01*
X91867488Y-114490857D01*
X91867432Y-114490836D01*
X91864960Y-114497950D01*
X91865015Y-114497969D01*
X91862743Y-114504825D01*
X91847573Y-114578288D01*
X91846793Y-114581804D01*
X91829499Y-114654779D01*
X91828661Y-114661954D01*
X91828601Y-114661947D01*
X91827835Y-114669445D01*
X91827895Y-114669451D01*
X91827265Y-114676640D01*
X91829448Y-114751628D01*
X91829500Y-114755235D01*
X91829500Y-116900691D01*
X91809815Y-116967730D01*
X91757011Y-117013485D01*
X91740435Y-117019668D01*
X91620189Y-117054976D01*
X91585254Y-117059999D01*
X91300251Y-117059999D01*
X91299751Y-117059998D01*
X91072981Y-117059083D01*
X91021972Y-117047879D01*
X90982463Y-117029836D01*
X90982456Y-117029834D01*
X90941853Y-117023997D01*
X90878297Y-116994972D01*
X90840523Y-116936194D01*
X90835500Y-116901259D01*
X90835500Y-108167266D01*
X90850838Y-108107528D01*
X90866197Y-108079592D01*
X90871180Y-108060180D01*
X90877481Y-108041780D01*
X90885437Y-108023396D01*
X90892270Y-107980248D01*
X90894633Y-107968838D01*
X90905500Y-107926519D01*
X90905500Y-107906483D01*
X90907027Y-107887082D01*
X90910160Y-107867304D01*
X90906050Y-107823824D01*
X90905500Y-107812155D01*
X90905500Y-107556483D01*
X90907027Y-107537082D01*
X90910160Y-107517304D01*
X90906050Y-107473824D01*
X90905500Y-107462155D01*
X90905500Y-105905242D01*
X90907224Y-105889622D01*
X90906939Y-105889595D01*
X90907673Y-105881833D01*
X90905561Y-105814612D01*
X90905500Y-105810718D01*
X90905500Y-105783156D01*
X90905500Y-105783150D01*
X90904996Y-105779168D01*
X90904081Y-105767529D01*
X90902710Y-105723873D01*
X90897119Y-105704630D01*
X90893173Y-105685578D01*
X90890664Y-105665708D01*
X90874579Y-105625083D01*
X90870806Y-105614062D01*
X90858618Y-105572110D01*
X90858617Y-105572109D01*
X90858617Y-105572107D01*
X90858616Y-105572106D01*
X90848423Y-105554871D01*
X90839861Y-105537394D01*
X90832487Y-105518769D01*
X90806816Y-105483437D01*
X90800405Y-105473677D01*
X90778170Y-105436080D01*
X90778168Y-105436078D01*
X90778165Y-105436074D01*
X90764006Y-105421915D01*
X90751368Y-105407119D01*
X90745538Y-105399095D01*
X90739594Y-105390913D01*
X90705947Y-105363078D01*
X90697306Y-105355216D01*
X90548300Y-105206209D01*
X90538480Y-105193952D01*
X90538260Y-105194135D01*
X90533288Y-105188125D01*
X90484274Y-105142097D01*
X90481476Y-105139385D01*
X90461977Y-105119885D01*
X90461971Y-105119880D01*
X90458786Y-105117409D01*
X90449934Y-105109848D01*
X90418082Y-105079938D01*
X90418080Y-105079936D01*
X90418077Y-105079934D01*
X90414760Y-105078111D01*
X90412659Y-105075998D01*
X90411771Y-105075353D01*
X90411875Y-105075209D01*
X90365497Y-105028565D01*
X90350499Y-104969450D01*
X90350499Y-104892129D01*
X90350498Y-104892123D01*
X90344091Y-104832516D01*
X90293797Y-104697671D01*
X90293793Y-104697664D01*
X90207547Y-104582455D01*
X90207544Y-104582452D01*
X90092335Y-104496206D01*
X90092328Y-104496202D01*
X89957482Y-104445908D01*
X89957483Y-104445908D01*
X89897883Y-104439501D01*
X89897881Y-104439500D01*
X89897873Y-104439500D01*
X89897865Y-104439500D01*
X88835453Y-104439500D01*
X88768414Y-104419815D01*
X88747772Y-104403181D01*
X87492828Y-103148237D01*
X87459343Y-103086914D01*
X87464327Y-103017222D01*
X87474973Y-102995456D01*
X87495903Y-102961524D01*
X87495902Y-102961524D01*
X87495908Y-102961516D01*
X87550174Y-102797753D01*
X87560500Y-102696677D01*
X87560499Y-102123324D01*
X87558892Y-102107597D01*
X87550174Y-102022247D01*
X87535539Y-101978083D01*
X87495908Y-101858484D01*
X87405340Y-101711650D01*
X87283350Y-101589660D01*
X87136516Y-101499092D01*
X86972753Y-101444826D01*
X86972751Y-101444825D01*
X86871678Y-101434500D01*
X86273330Y-101434500D01*
X86273312Y-101434501D01*
X86172247Y-101444825D01*
X86008484Y-101499092D01*
X86008481Y-101499093D01*
X85861648Y-101589661D01*
X85747681Y-101703629D01*
X85686358Y-101737114D01*
X85616666Y-101732130D01*
X85572319Y-101703629D01*
X85458351Y-101589661D01*
X85458350Y-101589660D01*
X85311516Y-101499092D01*
X85147753Y-101444826D01*
X85147751Y-101444825D01*
X85046684Y-101434500D01*
X85046677Y-101434500D01*
X84983506Y-101434500D01*
X84958545Y-101431962D01*
X84849242Y-101409500D01*
X84849241Y-101409500D01*
X84554233Y-101409500D01*
X84551451Y-85874998D01*
X97229997Y-85874998D01*
X97229997Y-85911652D01*
X97240315Y-86012650D01*
X97294542Y-86176298D01*
X97294547Y-86176309D01*
X97385048Y-86323032D01*
X97385051Y-86323036D01*
X97506957Y-86444942D01*
X97506961Y-86444945D01*
X97653684Y-86535446D01*
X97653695Y-86535451D01*
X97817343Y-86589678D01*
X97918347Y-86599997D01*
X98017496Y-86599996D01*
X98017496Y-85874998D01*
X97229997Y-85874998D01*
X84551451Y-85874998D01*
X84551368Y-85412549D01*
X84788459Y-85374998D01*
X97229996Y-85374998D01*
X98017496Y-85374998D01*
X98017496Y-84649997D01*
X97918356Y-84649998D01*
X97918340Y-84649999D01*
X97817343Y-84660317D01*
X97653695Y-84714544D01*
X97653684Y-84714549D01*
X97506961Y-84805050D01*
X97506957Y-84805053D01*
X97385051Y-84926959D01*
X97385048Y-84926963D01*
X97294547Y-85073686D01*
X97294542Y-85073697D01*
X97240315Y-85237345D01*
X97229996Y-85338343D01*
X97229996Y-85374998D01*
X84788459Y-85374998D01*
X84920323Y-85354113D01*
X84920330Y-85354112D01*
X85294936Y-85253737D01*
X85656994Y-85114755D01*
X86002543Y-84938689D01*
X86327783Y-84727476D01*
X86327785Y-84727475D01*
X86585349Y-84518902D01*
X85094180Y-83027733D01*
X85284870Y-82864870D01*
X85447733Y-82674180D01*
X86938902Y-84165349D01*
X87147475Y-83907785D01*
X87147476Y-83907783D01*
X87358689Y-83582543D01*
X87534755Y-83236994D01*
X87673737Y-82874936D01*
X87774112Y-82500330D01*
X87774113Y-82500323D01*
X87834780Y-82117287D01*
X87855078Y-81730000D01*
X87855078Y-81729999D01*
X87834780Y-81342712D01*
X87774113Y-80959676D01*
X87774112Y-80959669D01*
X87673737Y-80585063D01*
X87534755Y-80223005D01*
X87358689Y-79877456D01*
X87147468Y-79552206D01*
X86938904Y-79294649D01*
X86938903Y-79294648D01*
X85447732Y-80785818D01*
X85284870Y-80595130D01*
X85094179Y-80432266D01*
X86585350Y-78941096D01*
X86585350Y-78941095D01*
X86327793Y-78732531D01*
X86002543Y-78521310D01*
X85656994Y-78345244D01*
X85294936Y-78206262D01*
X84920330Y-78105887D01*
X84920323Y-78105886D01*
X84550049Y-78047240D01*
X84550000Y-77770000D01*
X125610876Y-77760897D01*
X125677919Y-77780567D01*
X125688918Y-77793255D01*
X125739769Y-77764220D01*
X125768398Y-77760862D01*
X126411310Y-77760719D01*
X126417789Y-77760888D01*
G37*
G04 #@! TD.AperFunction*
G04 #@! TA.AperFunction,Conductor*
G36*
X109546457Y-91250185D02*
G01*
X109592212Y-91302989D01*
X109602638Y-91368382D01*
X109596823Y-91419995D01*
X109596823Y-91420003D01*
X109617460Y-91603172D01*
X109652378Y-91702961D01*
X109678238Y-91776865D01*
X109678344Y-91777166D01*
X109739785Y-91874949D01*
X109776414Y-91933243D01*
X109906757Y-92063586D01*
X109985956Y-92113350D01*
X110033934Y-92143497D01*
X110062836Y-92161657D01*
X110236825Y-92222538D01*
X110271769Y-92226475D01*
X110336181Y-92253540D01*
X110345566Y-92262014D01*
X110847988Y-92764436D01*
X110881473Y-92825759D01*
X110883527Y-92838232D01*
X110887464Y-92873171D01*
X110887464Y-92873173D01*
X110887465Y-92873174D01*
X110948346Y-93047163D01*
X111046417Y-93203242D01*
X111176760Y-93333585D01*
X111332839Y-93431656D01*
X111452266Y-93473445D01*
X111506830Y-93492538D01*
X111689999Y-93513176D01*
X111690002Y-93513176D01*
X111690005Y-93513176D01*
X111873173Y-93492538D01*
X111874576Y-93492047D01*
X112047165Y-93431656D01*
X112069527Y-93417604D01*
X112136763Y-93398604D01*
X112203598Y-93418971D01*
X112248813Y-93472238D01*
X112259500Y-93522598D01*
X112259500Y-94324217D01*
X112239815Y-94391256D01*
X112223181Y-94411898D01*
X107862646Y-98772432D01*
X107860399Y-98774624D01*
X107796946Y-98834942D01*
X107763245Y-98883361D01*
X107757574Y-98890882D01*
X107720302Y-98936592D01*
X107720298Y-98936598D01*
X107706209Y-98963568D01*
X107698082Y-98976983D01*
X107680702Y-99001955D01*
X107657438Y-99056165D01*
X107653398Y-99064672D01*
X107626090Y-99116951D01*
X107626090Y-99116952D01*
X107617720Y-99146201D01*
X107612459Y-99160979D01*
X107600459Y-99188943D01*
X107596055Y-99210374D01*
X107588673Y-99246298D01*
X107588588Y-99246711D01*
X107586342Y-99255860D01*
X107570113Y-99312577D01*
X107567802Y-99342926D01*
X107565622Y-99358466D01*
X107559500Y-99388258D01*
X107559500Y-99447240D01*
X107559142Y-99456656D01*
X107554662Y-99515474D01*
X107558506Y-99545649D01*
X107559500Y-99561317D01*
X107559500Y-111394217D01*
X107539815Y-111461256D01*
X107523181Y-111481898D01*
X103578507Y-115426572D01*
X99614483Y-119390596D01*
X99614481Y-119390598D01*
X99069030Y-119936050D01*
X98536899Y-120468181D01*
X98475576Y-120501666D01*
X98449218Y-120504500D01*
X98117759Y-120504500D01*
X98108344Y-120504142D01*
X98105643Y-120503936D01*
X98049524Y-120499662D01*
X98019349Y-120503506D01*
X98003682Y-120504500D01*
X97517759Y-120504500D01*
X97508344Y-120504142D01*
X97505643Y-120503936D01*
X97449524Y-120499662D01*
X97419349Y-120503506D01*
X97403682Y-120504500D01*
X93984000Y-120504500D01*
X93916961Y-120484815D01*
X93871206Y-120432011D01*
X93860000Y-120380500D01*
X93860000Y-117059999D01*
X93565481Y-117059999D01*
X93513969Y-117048793D01*
X93472458Y-117029835D01*
X93472454Y-117029834D01*
X93436851Y-117024715D01*
X93373296Y-116995689D01*
X93335522Y-116936910D01*
X93330500Y-116901977D01*
X93330500Y-116590000D01*
X95427501Y-116590000D01*
X95427501Y-116626654D01*
X95437819Y-116727652D01*
X95492046Y-116891300D01*
X95492051Y-116891311D01*
X95582552Y-117038034D01*
X95582555Y-117038038D01*
X95704461Y-117159944D01*
X95704465Y-117159947D01*
X95851188Y-117250448D01*
X95851199Y-117250453D01*
X96014847Y-117304680D01*
X96115851Y-117314999D01*
X96202500Y-117314998D01*
X96202500Y-116590000D01*
X95427501Y-116590000D01*
X93330500Y-116590000D01*
X93330500Y-115104730D01*
X93350185Y-115037691D01*
X93366819Y-115017049D01*
X93377049Y-115006819D01*
X93438372Y-114973334D01*
X93464730Y-114970500D01*
X93980323Y-114970500D01*
X94001545Y-114970500D01*
X94020942Y-114972026D01*
X94041905Y-114975347D01*
X94087360Y-114971050D01*
X94099030Y-114970500D01*
X94570323Y-114970500D01*
X95479292Y-114970500D01*
X95546331Y-114990185D01*
X95571915Y-115013380D01*
X95572053Y-115013243D01*
X95574852Y-115016042D01*
X95576555Y-115017586D01*
X95577155Y-115018345D01*
X95577160Y-115018350D01*
X95699150Y-115140340D01*
X95838509Y-115226297D01*
X95885232Y-115278244D01*
X95896455Y-115347207D01*
X95868611Y-115411289D01*
X95838508Y-115437373D01*
X95704465Y-115520052D01*
X95704461Y-115520055D01*
X95582555Y-115641961D01*
X95582552Y-115641965D01*
X95492051Y-115788688D01*
X95492046Y-115788699D01*
X95437819Y-115952347D01*
X95427500Y-116053345D01*
X95427500Y-116090000D01*
X96578500Y-116090000D01*
X96645539Y-116109685D01*
X96691294Y-116162489D01*
X96702500Y-116214000D01*
X96702500Y-117314999D01*
X96789140Y-117314999D01*
X96789154Y-117314998D01*
X96890152Y-117304680D01*
X97053800Y-117250453D01*
X97053811Y-117250448D01*
X97200534Y-117159947D01*
X97200537Y-117159945D01*
X97239464Y-117121018D01*
X97300787Y-117087532D01*
X97370478Y-117092516D01*
X97414827Y-117121017D01*
X97454150Y-117160340D01*
X97600984Y-117250908D01*
X97764747Y-117305174D01*
X97865823Y-117315500D01*
X98539176Y-117315499D01*
X98539184Y-117315498D01*
X98539187Y-117315498D01*
X98594530Y-117309844D01*
X98640253Y-117305174D01*
X98804016Y-117250908D01*
X98950850Y-117160340D01*
X99072840Y-117038350D01*
X99163408Y-116891516D01*
X99217674Y-116727753D01*
X99228000Y-116626677D01*
X99227999Y-116053324D01*
X99217674Y-115952247D01*
X99163408Y-115788484D01*
X99072840Y-115641650D01*
X98950850Y-115519660D01*
X98950849Y-115519659D01*
X98944397Y-115515679D01*
X98897676Y-115463729D01*
X98885500Y-115410144D01*
X98885500Y-115246771D01*
X98905185Y-115179732D01*
X98940429Y-115145132D01*
X98940183Y-115144821D01*
X98943082Y-115142528D01*
X98944401Y-115141233D01*
X98945850Y-115140340D01*
X99067840Y-115018350D01*
X99158408Y-114871516D01*
X99212674Y-114707753D01*
X99223000Y-114606677D01*
X99222999Y-114033324D01*
X99212674Y-113932247D01*
X99158408Y-113768484D01*
X99067840Y-113621650D01*
X98945850Y-113499660D01*
X98799016Y-113409092D01*
X98635253Y-113354826D01*
X98635251Y-113354825D01*
X98534178Y-113344500D01*
X97935830Y-113344500D01*
X97935812Y-113344501D01*
X97834747Y-113354825D01*
X97670984Y-113409092D01*
X97670981Y-113409093D01*
X97524148Y-113499661D01*
X97410181Y-113613629D01*
X97348858Y-113647114D01*
X97279166Y-113642130D01*
X97234819Y-113613629D01*
X97120851Y-113499661D01*
X97120850Y-113499660D01*
X96974016Y-113409092D01*
X96810253Y-113354826D01*
X96810251Y-113354825D01*
X96709178Y-113344500D01*
X96110830Y-113344500D01*
X96110812Y-113344501D01*
X96009747Y-113354825D01*
X95845984Y-113409092D01*
X95845981Y-113409093D01*
X95699148Y-113499661D01*
X95577155Y-113621654D01*
X95576555Y-113622414D01*
X95576010Y-113622799D01*
X95572053Y-113626757D01*
X95571376Y-113626080D01*
X95519532Y-113662789D01*
X95479292Y-113669500D01*
X94424500Y-113669500D01*
X94357461Y-113649815D01*
X94311706Y-113597011D01*
X94300500Y-113545500D01*
X94300500Y-113130982D01*
X94320185Y-113063943D01*
X94372989Y-113018188D01*
X94385492Y-113013277D01*
X94546834Y-112959814D01*
X94696156Y-112867712D01*
X94820212Y-112743656D01*
X94822252Y-112740347D01*
X94824245Y-112738555D01*
X94824693Y-112737989D01*
X94824789Y-112738065D01*
X94874194Y-112693623D01*
X94943156Y-112682395D01*
X95007240Y-112710234D01*
X95033329Y-112740339D01*
X95035181Y-112743341D01*
X95035183Y-112743344D01*
X95159154Y-112867315D01*
X95308375Y-112959356D01*
X95308380Y-112959358D01*
X95474802Y-113014505D01*
X95474809Y-113014506D01*
X95577519Y-113024999D01*
X95714999Y-113024999D01*
X95715000Y-113024998D01*
X95715000Y-112050000D01*
X96215000Y-112050000D01*
X96215000Y-113024999D01*
X96352472Y-113024999D01*
X96352486Y-113024998D01*
X96455197Y-113014505D01*
X96621619Y-112959358D01*
X96621624Y-112959356D01*
X96770845Y-112867315D01*
X96894815Y-112743345D01*
X96986856Y-112594124D01*
X96986858Y-112594119D01*
X97042005Y-112427697D01*
X97042006Y-112427690D01*
X97052499Y-112324986D01*
X97052500Y-112324973D01*
X97052500Y-112050000D01*
X96215000Y-112050000D01*
X95715000Y-112050000D01*
X95715000Y-111674000D01*
X95734685Y-111606961D01*
X95787489Y-111561206D01*
X95839000Y-111550000D01*
X97052499Y-111550000D01*
X97052499Y-111275028D01*
X97052498Y-111275013D01*
X97042005Y-111172302D01*
X96986858Y-111005880D01*
X96986856Y-111005875D01*
X96894815Y-110856654D01*
X96770845Y-110732684D01*
X96621624Y-110640643D01*
X96621619Y-110640641D01*
X96572349Y-110624315D01*
X96514904Y-110584542D01*
X96488081Y-110520027D01*
X96500396Y-110451251D01*
X96505815Y-110441511D01*
X96542950Y-110381306D01*
X96542953Y-110381300D01*
X96597180Y-110217652D01*
X96607499Y-110116654D01*
X96607500Y-110116641D01*
X96607500Y-110080000D01*
X95444000Y-110080000D01*
X95376961Y-110060315D01*
X95331206Y-110007511D01*
X95320000Y-109956000D01*
X95320000Y-109704000D01*
X95339685Y-109636961D01*
X95392489Y-109591206D01*
X95444000Y-109580000D01*
X96607499Y-109580000D01*
X96607499Y-109543360D01*
X96607498Y-109543345D01*
X96597180Y-109442347D01*
X96542456Y-109277200D01*
X96540054Y-109207372D01*
X96575786Y-109147330D01*
X96638306Y-109116137D01*
X96660315Y-109114197D01*
X100960000Y-109120000D01*
X100960000Y-104090000D01*
X95111308Y-104090000D01*
X95044269Y-104070315D01*
X95023627Y-104053681D01*
X94996819Y-104026873D01*
X94963334Y-103965550D01*
X94960500Y-103939192D01*
X94960500Y-102959499D01*
X94980185Y-102892460D01*
X95032989Y-102846705D01*
X95084495Y-102835499D01*
X95765008Y-102835499D01*
X95765016Y-102835498D01*
X95765019Y-102835498D01*
X95844498Y-102827379D01*
X95867797Y-102824999D01*
X96034334Y-102769814D01*
X96183656Y-102677712D01*
X96307712Y-102553656D01*
X96399814Y-102404334D01*
X96454999Y-102237797D01*
X96456623Y-102221898D01*
X96483018Y-102157207D01*
X96540198Y-102117055D01*
X96579981Y-102110500D01*
X102504495Y-102110500D01*
X102520505Y-102112267D01*
X102520528Y-102112026D01*
X102528289Y-102112758D01*
X102528296Y-102112760D01*
X102598262Y-102110560D01*
X102602157Y-102110500D01*
X102630925Y-102110500D01*
X102635287Y-102109948D01*
X102646939Y-102109030D01*
X102692569Y-102107597D01*
X102712956Y-102101673D01*
X102731996Y-102097731D01*
X102753058Y-102095071D01*
X102795520Y-102078258D01*
X102806557Y-102074480D01*
X102850398Y-102061744D01*
X102868665Y-102050939D01*
X102886136Y-102042380D01*
X102905871Y-102034568D01*
X102942816Y-102007725D01*
X102952558Y-102001326D01*
X102991865Y-101978081D01*
X103006870Y-101963075D01*
X103021668Y-101950436D01*
X103038837Y-101937963D01*
X103067946Y-101902774D01*
X103075790Y-101894154D01*
X104129513Y-100840431D01*
X104142079Y-100830365D01*
X104141925Y-100830178D01*
X104147933Y-100825205D01*
X104147940Y-100825202D01*
X104185699Y-100784992D01*
X104195865Y-100774167D01*
X104198578Y-100771367D01*
X104218911Y-100751035D01*
X104221606Y-100747560D01*
X104229199Y-100738669D01*
X104230756Y-100737011D01*
X104260448Y-100705393D01*
X104270674Y-100686790D01*
X104281353Y-100670533D01*
X104294362Y-100653764D01*
X104312491Y-100611866D01*
X104317620Y-100601395D01*
X104339627Y-100561368D01*
X104344905Y-100540806D01*
X104351207Y-100522399D01*
X104359635Y-100502927D01*
X104366777Y-100457828D01*
X104369141Y-100446413D01*
X104380500Y-100402177D01*
X104380500Y-100380950D01*
X104382027Y-100361550D01*
X104385346Y-100340596D01*
X104381050Y-100295148D01*
X104380500Y-100283479D01*
X104380500Y-99294977D01*
X104400185Y-99227938D01*
X104452989Y-99182183D01*
X104504255Y-99170977D01*
X105000000Y-99170000D01*
X105008003Y-96457114D01*
X105010000Y-95780183D01*
X105010000Y-95410000D01*
X105009999Y-95409999D01*
X104969777Y-95431568D01*
X104901393Y-95445900D01*
X104836116Y-95420987D01*
X104829987Y-95416009D01*
X104753373Y-95349623D01*
X104622457Y-95289835D01*
X104622455Y-95289834D01*
X104622457Y-95289834D01*
X104486853Y-95270338D01*
X104423297Y-95241313D01*
X104385523Y-95182535D01*
X104380500Y-95147600D01*
X104380500Y-94030808D01*
X104400185Y-93963769D01*
X104416819Y-93943127D01*
X104940592Y-93419354D01*
X110044196Y-93419354D01*
X110063053Y-93431202D01*
X110236940Y-93492047D01*
X110236945Y-93492048D01*
X110419995Y-93512673D01*
X110420003Y-93512673D01*
X110603052Y-93492048D01*
X110603054Y-93492048D01*
X110776947Y-93431200D01*
X110795800Y-93419353D01*
X110420000Y-93043553D01*
X110419999Y-93043553D01*
X110044196Y-93419353D01*
X110044196Y-93419354D01*
X104940592Y-93419354D01*
X105028127Y-93331819D01*
X105089450Y-93298334D01*
X105115808Y-93295500D01*
X105835686Y-93295500D01*
X105835694Y-93295500D01*
X105872569Y-93292598D01*
X105872571Y-93292597D01*
X105872573Y-93292597D01*
X105919494Y-93278965D01*
X106030398Y-93246744D01*
X106171865Y-93163081D01*
X106288081Y-93046865D01*
X106371744Y-92905398D01*
X106417598Y-92747569D01*
X106420500Y-92710694D01*
X106420500Y-92690003D01*
X109597326Y-92690003D01*
X109617950Y-92873053D01*
X109617951Y-92873058D01*
X109678796Y-93046945D01*
X109690643Y-93065800D01*
X109690644Y-93065800D01*
X110066446Y-92690000D01*
X110264708Y-92690000D01*
X110285513Y-92767645D01*
X110342354Y-92824486D01*
X110400253Y-92840000D01*
X110439745Y-92840000D01*
X110497644Y-92824486D01*
X110554485Y-92767646D01*
X110575290Y-92690000D01*
X110554485Y-92612355D01*
X110497644Y-92555514D01*
X110439745Y-92540000D01*
X110400253Y-92540000D01*
X110342354Y-92555514D01*
X110285513Y-92612354D01*
X110264708Y-92690000D01*
X110066446Y-92690000D01*
X110066446Y-92689999D01*
X109690644Y-92314197D01*
X109678796Y-92333055D01*
X109617951Y-92506941D01*
X109617950Y-92506946D01*
X109597326Y-92689996D01*
X109597326Y-92690003D01*
X106420500Y-92690003D01*
X106420500Y-92279306D01*
X106417598Y-92242431D01*
X106416644Y-92239146D01*
X106371746Y-92084607D01*
X106371744Y-92084603D01*
X106371744Y-92084602D01*
X106358743Y-92062618D01*
X106341561Y-91994898D01*
X106363720Y-91928635D01*
X106418186Y-91884872D01*
X106465476Y-91875500D01*
X107689495Y-91875500D01*
X107705505Y-91877267D01*
X107705528Y-91877026D01*
X107713289Y-91877758D01*
X107713296Y-91877760D01*
X107783262Y-91875560D01*
X107787157Y-91875500D01*
X107815925Y-91875500D01*
X107820287Y-91874948D01*
X107831939Y-91874030D01*
X107877569Y-91872597D01*
X107897956Y-91866673D01*
X107916996Y-91862731D01*
X107938058Y-91860071D01*
X107980520Y-91843258D01*
X107991557Y-91839480D01*
X108035398Y-91826744D01*
X108053665Y-91815939D01*
X108071136Y-91807380D01*
X108090871Y-91799568D01*
X108127816Y-91772725D01*
X108137548Y-91766332D01*
X108176865Y-91743081D01*
X108191872Y-91728072D01*
X108206661Y-91715440D01*
X108223837Y-91702963D01*
X108252947Y-91667771D01*
X108260792Y-91659151D01*
X108653126Y-91266819D01*
X108714449Y-91233334D01*
X108740807Y-91230500D01*
X109479418Y-91230500D01*
X109546457Y-91250185D01*
G37*
G04 #@! TD.AperFunction*
G04 #@! TA.AperFunction,Conductor*
G36*
X84903334Y-106737870D02*
G01*
X84947681Y-106766371D01*
X85061650Y-106880340D01*
X85208484Y-106970908D01*
X85372247Y-107025174D01*
X85473323Y-107035500D01*
X85813833Y-107035499D01*
X85880872Y-107055183D01*
X85889809Y-107061501D01*
X85891182Y-107062566D01*
X85900074Y-107070159D01*
X85931918Y-107100062D01*
X85949476Y-107109714D01*
X85965735Y-107120395D01*
X85981564Y-107132673D01*
X86021655Y-107150021D01*
X86032126Y-107155151D01*
X86054680Y-107167550D01*
X86070402Y-107176194D01*
X86070404Y-107176195D01*
X86070408Y-107176197D01*
X86089816Y-107181180D01*
X86108219Y-107187481D01*
X86126601Y-107195436D01*
X86126602Y-107195436D01*
X86126604Y-107195437D01*
X86169750Y-107202270D01*
X86181172Y-107204636D01*
X86223481Y-107215500D01*
X86243516Y-107215500D01*
X86262914Y-107217026D01*
X86282694Y-107220159D01*
X86282695Y-107220160D01*
X86282695Y-107220159D01*
X86282696Y-107220160D01*
X86326175Y-107216050D01*
X86337844Y-107215500D01*
X86850548Y-107215500D01*
X86917587Y-107235185D01*
X86963342Y-107287989D01*
X86973286Y-107357147D01*
X86944261Y-107420703D01*
X86938234Y-107427174D01*
X86809545Y-107555864D01*
X86198708Y-108166699D01*
X86186451Y-108176520D01*
X86186634Y-108176741D01*
X86180622Y-108181714D01*
X86134598Y-108230723D01*
X86131891Y-108233516D01*
X86112389Y-108253017D01*
X86112375Y-108253034D01*
X86109907Y-108256215D01*
X86102343Y-108265070D01*
X86072437Y-108296918D01*
X86072436Y-108296920D01*
X86062784Y-108314476D01*
X86052110Y-108330726D01*
X86039829Y-108346561D01*
X86039824Y-108346568D01*
X86022475Y-108386658D01*
X86017338Y-108397144D01*
X85996303Y-108435406D01*
X85991322Y-108454807D01*
X85985021Y-108473210D01*
X85977062Y-108491602D01*
X85977061Y-108491605D01*
X85970228Y-108534743D01*
X85967860Y-108546174D01*
X85957001Y-108588471D01*
X85957000Y-108588482D01*
X85957000Y-108608516D01*
X85955473Y-108627915D01*
X85952340Y-108647694D01*
X85952340Y-108647695D01*
X85956450Y-108691174D01*
X85957000Y-108702843D01*
X85957000Y-108797808D01*
X85937315Y-108864847D01*
X85898099Y-108903345D01*
X85871652Y-108919657D01*
X85871649Y-108919660D01*
X85757681Y-109033629D01*
X85696358Y-109067114D01*
X85626666Y-109062130D01*
X85582319Y-109033629D01*
X85468351Y-108919661D01*
X85468350Y-108919660D01*
X85336464Y-108838312D01*
X85321518Y-108829093D01*
X85321513Y-108829091D01*
X85281527Y-108815841D01*
X85157753Y-108774826D01*
X85157751Y-108774825D01*
X85056684Y-108764500D01*
X85056677Y-108764500D01*
X84993506Y-108764500D01*
X84968545Y-108761962D01*
X84859242Y-108739500D01*
X84859241Y-108739500D01*
X84555545Y-108739500D01*
X84555223Y-106943949D01*
X84658350Y-106880340D01*
X84772319Y-106766371D01*
X84833642Y-106732886D01*
X84903334Y-106737870D01*
G37*
G04 #@! TD.AperFunction*
G04 #@! TA.AperFunction,Conductor*
G36*
X85703334Y-103087870D02*
G01*
X85747681Y-103116371D01*
X85861650Y-103230340D01*
X85943824Y-103281025D01*
X85990548Y-103332973D01*
X85997803Y-103351968D01*
X86003881Y-103372888D01*
X86014080Y-103390134D01*
X86022638Y-103407603D01*
X86030014Y-103426232D01*
X86055681Y-103461560D01*
X86062093Y-103471321D01*
X86084328Y-103508917D01*
X86084333Y-103508924D01*
X86098490Y-103523080D01*
X86111128Y-103537876D01*
X86122905Y-103554086D01*
X86122906Y-103554087D01*
X86156557Y-103581925D01*
X86165198Y-103589788D01*
X87913181Y-105337772D01*
X87946666Y-105399095D01*
X87949500Y-105425453D01*
X87949500Y-105787868D01*
X87949501Y-105787880D01*
X87953733Y-105827249D01*
X87941325Y-105896008D01*
X87893713Y-105947144D01*
X87830443Y-105964500D01*
X86884499Y-105964500D01*
X86817460Y-105944815D01*
X86771705Y-105892011D01*
X86760499Y-105840500D01*
X86760499Y-105773330D01*
X86760498Y-105773313D01*
X86750174Y-105672247D01*
X86718957Y-105578042D01*
X86695908Y-105508484D01*
X86605340Y-105361650D01*
X86483350Y-105239660D01*
X86336516Y-105149092D01*
X86172753Y-105094826D01*
X86172751Y-105094825D01*
X86071678Y-105084500D01*
X85473330Y-105084500D01*
X85473312Y-105084501D01*
X85372247Y-105094825D01*
X85208484Y-105149092D01*
X85208481Y-105149093D01*
X85061648Y-105239661D01*
X84947681Y-105353629D01*
X84886358Y-105387114D01*
X84816666Y-105382130D01*
X84772319Y-105353629D01*
X84658351Y-105239661D01*
X84658350Y-105239660D01*
X84624902Y-105219029D01*
X84554907Y-105175855D01*
X84554591Y-103410500D01*
X84798243Y-103410500D01*
X84874090Y-103402787D01*
X84949938Y-103395074D01*
X84962330Y-103391186D01*
X84999452Y-103385499D01*
X85046670Y-103385499D01*
X85046676Y-103385499D01*
X85147753Y-103375174D01*
X85311516Y-103320908D01*
X85458350Y-103230340D01*
X85572319Y-103116371D01*
X85633642Y-103082886D01*
X85703334Y-103087870D01*
G37*
G04 #@! TD.AperFunction*
G04 #@! TA.AperFunction,Conductor*
G36*
X103022334Y-99193585D02*
G01*
X103068193Y-99246298D01*
X103079500Y-99298032D01*
X103079500Y-99999192D01*
X103059815Y-100066231D01*
X103043181Y-100086873D01*
X102356873Y-100773181D01*
X102295550Y-100806666D01*
X102269192Y-100809500D01*
X96579981Y-100809500D01*
X96512942Y-100789815D01*
X96467187Y-100737011D01*
X96456623Y-100698101D01*
X96454999Y-100682203D01*
X96454998Y-100682200D01*
X96445574Y-100653760D01*
X96399814Y-100515666D01*
X96307712Y-100366344D01*
X96249049Y-100307681D01*
X96215564Y-100246358D01*
X96220548Y-100176666D01*
X96249049Y-100132319D01*
X96307712Y-100073656D01*
X96399814Y-99924334D01*
X96454999Y-99757797D01*
X96456623Y-99741898D01*
X96483018Y-99677207D01*
X96540198Y-99637055D01*
X96579981Y-99630500D01*
X100824495Y-99630500D01*
X100840505Y-99632267D01*
X100840528Y-99632026D01*
X100848289Y-99632758D01*
X100848296Y-99632760D01*
X100918262Y-99630560D01*
X100922157Y-99630500D01*
X100950925Y-99630500D01*
X100955287Y-99629948D01*
X100966939Y-99629030D01*
X101012569Y-99627597D01*
X101032956Y-99621673D01*
X101051996Y-99617731D01*
X101073058Y-99615071D01*
X101115520Y-99598258D01*
X101126557Y-99594480D01*
X101170398Y-99581744D01*
X101188665Y-99570939D01*
X101206136Y-99562380D01*
X101225871Y-99554568D01*
X101262816Y-99527725D01*
X101272558Y-99521326D01*
X101311865Y-99498081D01*
X101326878Y-99483066D01*
X101341670Y-99470435D01*
X101358833Y-99457966D01*
X101358833Y-99457965D01*
X101358837Y-99457963D01*
X101387947Y-99422773D01*
X101395792Y-99414152D01*
X101589510Y-99220433D01*
X101602069Y-99210374D01*
X101601914Y-99210187D01*
X101607933Y-99205206D01*
X101607940Y-99205202D01*
X101607945Y-99205196D01*
X101608185Y-99204998D01*
X101609471Y-99204445D01*
X101610768Y-99203407D01*
X101614547Y-99201010D01*
X101615172Y-99201996D01*
X101672384Y-99177426D01*
X101686974Y-99176534D01*
X102955255Y-99174032D01*
X103022334Y-99193585D01*
G37*
G04 #@! TD.AperFunction*
G04 #@! TA.AperFunction,Conductor*
G36*
X98438834Y-92333625D02*
G01*
X98494767Y-92375497D01*
X98519184Y-92440961D01*
X98519500Y-92449807D01*
X98519500Y-92710701D01*
X98522401Y-92747567D01*
X98522402Y-92747573D01*
X98568254Y-92905393D01*
X98568255Y-92905396D01*
X98568256Y-92905398D01*
X98604080Y-92965973D01*
X98651917Y-93046862D01*
X98651923Y-93046870D01*
X98768129Y-93163076D01*
X98768133Y-93163079D01*
X98768135Y-93163081D01*
X98909602Y-93246744D01*
X98940886Y-93255833D01*
X99067426Y-93292597D01*
X99067429Y-93292597D01*
X99067431Y-93292598D01*
X99104306Y-93295500D01*
X99824192Y-93295500D01*
X99891231Y-93315185D01*
X99911873Y-93331819D01*
X100503181Y-93923127D01*
X100536666Y-93984450D01*
X100539500Y-94010808D01*
X100539500Y-95146788D01*
X100519815Y-95213827D01*
X100467011Y-95259582D01*
X100424347Y-95270472D01*
X100368039Y-95274499D01*
X100368034Y-95274500D01*
X100229949Y-95315045D01*
X100101411Y-95397652D01*
X100100196Y-95395762D01*
X100047885Y-95419647D01*
X99978727Y-95409696D01*
X99932500Y-95373202D01*
X99930000Y-95369999D01*
X99930000Y-98205500D01*
X99910315Y-98272539D01*
X99857511Y-98318294D01*
X99806000Y-98329500D01*
X96579981Y-98329500D01*
X96512942Y-98309815D01*
X96467187Y-98257011D01*
X96456623Y-98218101D01*
X96454999Y-98202203D01*
X96454998Y-98202200D01*
X96422955Y-98105501D01*
X96399814Y-98035666D01*
X96307712Y-97886344D01*
X96183656Y-97762288D01*
X96052703Y-97681516D01*
X96034336Y-97670187D01*
X96034331Y-97670185D01*
X96032862Y-97669698D01*
X95867797Y-97615001D01*
X95867795Y-97615000D01*
X95765010Y-97604500D01*
X95039998Y-97604500D01*
X95039980Y-97604501D01*
X94937203Y-97615000D01*
X94937200Y-97615001D01*
X94770668Y-97670185D01*
X94770663Y-97670187D01*
X94621342Y-97762289D01*
X94497289Y-97886342D01*
X94405187Y-98035663D01*
X94405185Y-98035668D01*
X94385467Y-98095174D01*
X94350001Y-98202203D01*
X94350001Y-98202204D01*
X94350000Y-98202204D01*
X94347867Y-98223090D01*
X94321470Y-98287781D01*
X94264289Y-98327932D01*
X94254531Y-98330339D01*
X94235042Y-98336001D01*
X94227040Y-98338325D01*
X94207996Y-98342269D01*
X94186942Y-98344929D01*
X94186940Y-98344929D01*
X94144496Y-98361733D01*
X94133450Y-98365515D01*
X94089601Y-98378254D01*
X94071325Y-98389063D01*
X94053860Y-98397619D01*
X94034124Y-98405433D01*
X93997187Y-98432269D01*
X93987428Y-98438680D01*
X93948136Y-98461917D01*
X93933124Y-98476929D01*
X93918336Y-98489558D01*
X93901167Y-98502032D01*
X93901165Y-98502034D01*
X93872056Y-98537219D01*
X93864197Y-98545856D01*
X93752178Y-98657874D01*
X93690858Y-98691358D01*
X93621166Y-98686374D01*
X93565232Y-98644503D01*
X93540815Y-98579039D01*
X93540499Y-98570192D01*
X93540499Y-98304998D01*
X93540498Y-98304981D01*
X93529999Y-98202203D01*
X93529998Y-98202200D01*
X93497955Y-98105501D01*
X93474814Y-98035666D01*
X93382712Y-97886344D01*
X93258656Y-97762288D01*
X93127703Y-97681516D01*
X93109336Y-97670187D01*
X93109331Y-97670185D01*
X93107862Y-97669698D01*
X92942797Y-97615001D01*
X92942795Y-97615000D01*
X92840016Y-97604500D01*
X92174806Y-97604500D01*
X92107767Y-97584815D01*
X92062012Y-97532011D01*
X92052068Y-97462853D01*
X92081093Y-97399297D01*
X92087110Y-97392834D01*
X94963125Y-94516821D01*
X95024448Y-94483336D01*
X95050806Y-94480502D01*
X96327869Y-94480502D01*
X96327870Y-94480502D01*
X96387481Y-94474094D01*
X96522329Y-94423799D01*
X96637544Y-94337549D01*
X96723794Y-94222334D01*
X96774089Y-94087486D01*
X96780498Y-94027876D01*
X96780497Y-93853868D01*
X96800181Y-93786830D01*
X96852985Y-93741075D01*
X96869900Y-93734793D01*
X96880392Y-93731746D01*
X96898661Y-93720941D01*
X96916140Y-93712378D01*
X96918779Y-93711332D01*
X96935867Y-93704568D01*
X96972797Y-93677736D01*
X96982553Y-93671327D01*
X97021859Y-93648083D01*
X97036871Y-93633070D01*
X97051659Y-93620439D01*
X97068833Y-93607963D01*
X97097942Y-93572774D01*
X97105785Y-93564155D01*
X98307819Y-92362125D01*
X98369142Y-92328641D01*
X98438834Y-92333625D01*
G37*
G04 #@! TD.AperFunction*
G04 #@! TA.AperFunction,Conductor*
G36*
X93998832Y-92243627D02*
G01*
X94054765Y-92285499D01*
X94079182Y-92350963D01*
X94079498Y-92359809D01*
X94079498Y-93509194D01*
X94059813Y-93576233D01*
X94043179Y-93596875D01*
X91330799Y-96309255D01*
X91269476Y-96342740D01*
X91199784Y-96337756D01*
X91162021Y-96313486D01*
X91161506Y-96314139D01*
X91155845Y-96309662D01*
X91016486Y-96223705D01*
X90969761Y-96171757D01*
X90958540Y-96102794D01*
X90986383Y-96038712D01*
X91016486Y-96012627D01*
X91150535Y-95929944D01*
X91272440Y-95808039D01*
X91272443Y-95808035D01*
X91362944Y-95661312D01*
X91362949Y-95661301D01*
X91417176Y-95497653D01*
X91427495Y-95396655D01*
X91427496Y-95396642D01*
X91427496Y-95360001D01*
X90276496Y-95360001D01*
X90209457Y-95340316D01*
X90163702Y-95287512D01*
X90152496Y-95236001D01*
X90152496Y-94984001D01*
X90172181Y-94916962D01*
X90224985Y-94871207D01*
X90276496Y-94860001D01*
X91427495Y-94860001D01*
X91427495Y-94823361D01*
X91427494Y-94823346D01*
X91417176Y-94722348D01*
X91362949Y-94558700D01*
X91362944Y-94558689D01*
X91272443Y-94411966D01*
X91272440Y-94411962D01*
X91150534Y-94290056D01*
X91150530Y-94290053D01*
X91003807Y-94199552D01*
X91003796Y-94199547D01*
X90840143Y-94145318D01*
X90838609Y-94144990D01*
X90837753Y-94144526D01*
X90833720Y-94143190D01*
X90833958Y-94142470D01*
X90777176Y-94111707D01*
X90743490Y-94050494D01*
X90748246Y-93980786D01*
X90789933Y-93924715D01*
X90831615Y-93905683D01*
X90831323Y-93904800D01*
X90847272Y-93899515D01*
X91001514Y-93848404D01*
X91148348Y-93757836D01*
X91270338Y-93635846D01*
X91270339Y-93635843D01*
X91270342Y-93635841D01*
X91270943Y-93635082D01*
X91271487Y-93634696D01*
X91275445Y-93630739D01*
X91276121Y-93631415D01*
X91327966Y-93594707D01*
X91368206Y-93587996D01*
X92196999Y-93587996D01*
X92213009Y-93589763D01*
X92213032Y-93589522D01*
X92220793Y-93590254D01*
X92220800Y-93590256D01*
X92290766Y-93588056D01*
X92294661Y-93587996D01*
X92323429Y-93587996D01*
X92327791Y-93587444D01*
X92339443Y-93586526D01*
X92385073Y-93585093D01*
X92405460Y-93579169D01*
X92424500Y-93575227D01*
X92445562Y-93572567D01*
X92488024Y-93555754D01*
X92499061Y-93551976D01*
X92542902Y-93539240D01*
X92561169Y-93528435D01*
X92578640Y-93519876D01*
X92598375Y-93512064D01*
X92635320Y-93485221D01*
X92645062Y-93478822D01*
X92684369Y-93455577D01*
X92699374Y-93440571D01*
X92714172Y-93427932D01*
X92720278Y-93423496D01*
X92731341Y-93415459D01*
X92760450Y-93380270D01*
X92768294Y-93371650D01*
X93867817Y-92272128D01*
X93929140Y-92238643D01*
X93998832Y-92243627D01*
G37*
G04 #@! TD.AperFunction*
G04 #@! TA.AperFunction,Conductor*
G36*
X101157731Y-81020185D02*
G01*
X101203486Y-81072989D01*
X101209669Y-81089566D01*
X101243850Y-81205979D01*
X101248872Y-81240430D01*
X101250000Y-81530000D01*
X104610000Y-81530000D01*
X104610000Y-81414500D01*
X104629685Y-81347461D01*
X104682489Y-81301706D01*
X104734000Y-81290500D01*
X115884217Y-81290500D01*
X115951256Y-81310185D01*
X115971898Y-81326819D01*
X116563181Y-81918101D01*
X116596666Y-81979424D01*
X116599500Y-82005782D01*
X116599500Y-85664217D01*
X116579815Y-85731256D01*
X116563185Y-85751893D01*
X116461898Y-85853181D01*
X116400578Y-85886665D01*
X116374219Y-85889499D01*
X115375860Y-85889499D01*
X115308821Y-85869814D01*
X115263066Y-85817010D01*
X115253122Y-85747852D01*
X115282147Y-85684296D01*
X115332527Y-85649317D01*
X115347328Y-85643796D01*
X115347327Y-85643796D01*
X115347331Y-85643795D01*
X115462546Y-85557545D01*
X115548796Y-85442330D01*
X115599091Y-85307482D01*
X115605500Y-85247872D01*
X115605499Y-83452127D01*
X115599091Y-83392516D01*
X115597810Y-83389082D01*
X115548797Y-83257670D01*
X115548793Y-83257663D01*
X115462547Y-83142454D01*
X115462544Y-83142451D01*
X115347335Y-83056205D01*
X115347328Y-83056201D01*
X115212482Y-83005907D01*
X115212483Y-83005907D01*
X115152883Y-82999500D01*
X115152881Y-82999499D01*
X115152873Y-82999499D01*
X115152864Y-82999499D01*
X113357129Y-82999499D01*
X113357123Y-82999500D01*
X113297516Y-83005907D01*
X113162671Y-83056201D01*
X113162664Y-83056205D01*
X113047455Y-83142451D01*
X113047452Y-83142454D01*
X112961206Y-83257663D01*
X112961203Y-83257668D01*
X112912189Y-83389082D01*
X112870317Y-83445015D01*
X112804853Y-83469432D01*
X112736580Y-83454580D01*
X112708326Y-83433429D01*
X112586402Y-83311505D01*
X112586395Y-83311500D01*
X112576999Y-83304921D01*
X112509518Y-83257670D01*
X112392834Y-83175966D01*
X112392830Y-83175964D01*
X112358636Y-83160019D01*
X112178663Y-83076096D01*
X112178659Y-83076095D01*
X112178655Y-83076093D01*
X111950413Y-83014937D01*
X111950403Y-83014935D01*
X111715001Y-82994340D01*
X111714999Y-82994340D01*
X111479596Y-83014935D01*
X111479586Y-83014937D01*
X111251344Y-83076093D01*
X111251335Y-83076097D01*
X111037171Y-83175963D01*
X111037169Y-83175964D01*
X110843597Y-83311504D01*
X110676505Y-83478596D01*
X110546575Y-83664157D01*
X110491998Y-83707782D01*
X110422500Y-83714976D01*
X110360145Y-83683453D01*
X110343425Y-83664157D01*
X110213494Y-83478596D01*
X110046402Y-83311505D01*
X110046395Y-83311500D01*
X110036999Y-83304921D01*
X109969518Y-83257670D01*
X109852834Y-83175966D01*
X109852830Y-83175964D01*
X109818636Y-83160019D01*
X109638663Y-83076096D01*
X109638659Y-83076095D01*
X109638655Y-83076093D01*
X109410413Y-83014937D01*
X109410403Y-83014935D01*
X109175001Y-82994340D01*
X109174999Y-82994340D01*
X108939596Y-83014935D01*
X108939586Y-83014937D01*
X108711344Y-83076093D01*
X108711335Y-83076097D01*
X108497171Y-83175963D01*
X108497169Y-83175964D01*
X108303597Y-83311504D01*
X108136505Y-83478596D01*
X108000965Y-83672168D01*
X108000964Y-83672170D01*
X107901098Y-83886334D01*
X107901094Y-83886343D01*
X107839938Y-84114585D01*
X107839936Y-84114595D01*
X107819341Y-84349998D01*
X107819341Y-84349999D01*
X107839936Y-84585402D01*
X107839938Y-84585412D01*
X107901094Y-84813654D01*
X107901096Y-84813658D01*
X107901097Y-84813662D01*
X107973230Y-84968351D01*
X108000965Y-85027829D01*
X108000967Y-85027833D01*
X108061831Y-85114755D01*
X108136501Y-85221395D01*
X108136506Y-85221401D01*
X108303597Y-85388492D01*
X108303603Y-85388497D01*
X108489594Y-85518729D01*
X108533219Y-85573306D01*
X108540413Y-85642804D01*
X108508890Y-85705159D01*
X108489595Y-85721879D01*
X108303922Y-85851889D01*
X108303920Y-85851890D01*
X108136891Y-86018919D01*
X108136886Y-86018925D01*
X108001400Y-86212419D01*
X108001399Y-86212421D01*
X107901570Y-86426506D01*
X107901567Y-86426512D01*
X107844364Y-86639998D01*
X107844364Y-86639999D01*
X108741314Y-86639999D01*
X108715507Y-86680155D01*
X108675000Y-86818110D01*
X108675000Y-86961888D01*
X108715507Y-87099843D01*
X108741314Y-87139999D01*
X107844364Y-87139999D01*
X107901567Y-87353485D01*
X107901570Y-87353491D01*
X108001399Y-87567577D01*
X108136894Y-87761081D01*
X108303917Y-87928104D01*
X108497421Y-88063599D01*
X108711507Y-88163428D01*
X108711516Y-88163432D01*
X108925000Y-88220633D01*
X108925000Y-87325500D01*
X109032685Y-87374679D01*
X109139237Y-87389999D01*
X109210763Y-87389999D01*
X109317315Y-87374679D01*
X109425000Y-87325500D01*
X109425000Y-88220632D01*
X109638483Y-88163432D01*
X109638492Y-88163428D01*
X109852578Y-88063599D01*
X110046082Y-87928104D01*
X110213105Y-87761081D01*
X110343119Y-87575404D01*
X110397696Y-87531780D01*
X110467195Y-87524587D01*
X110529549Y-87556109D01*
X110546269Y-87575404D01*
X110676505Y-87761400D01*
X110843599Y-87928494D01*
X110906159Y-87972299D01*
X111037165Y-88064031D01*
X111037167Y-88064032D01*
X111037170Y-88064034D01*
X111251337Y-88163902D01*
X111251343Y-88163903D01*
X111251344Y-88163904D01*
X111306285Y-88178625D01*
X111479592Y-88225062D01*
X111667918Y-88241538D01*
X111714999Y-88245658D01*
X111715000Y-88245658D01*
X111715001Y-88245658D01*
X111754234Y-88242225D01*
X111950408Y-88225062D01*
X112147354Y-88172291D01*
X112183407Y-88162631D01*
X112253257Y-88164294D01*
X112311119Y-88203457D01*
X112338623Y-88267685D01*
X112339500Y-88282406D01*
X112339500Y-89805500D01*
X112319815Y-89872539D01*
X112267011Y-89918294D01*
X112215500Y-89929500D01*
X108505506Y-89929500D01*
X108489495Y-89927732D01*
X108489473Y-89927974D01*
X108481706Y-89927239D01*
X108411724Y-89929439D01*
X108407829Y-89929500D01*
X108379075Y-89929500D01*
X108379069Y-89929500D01*
X108379063Y-89929501D01*
X108374699Y-89930052D01*
X108363069Y-89930967D01*
X108317433Y-89932401D01*
X108302873Y-89936630D01*
X108297040Y-89938325D01*
X108277996Y-89942269D01*
X108256942Y-89944929D01*
X108249388Y-89946869D01*
X108248561Y-89943648D01*
X108193897Y-89948466D01*
X108132030Y-89915997D01*
X108097538Y-89855234D01*
X108094935Y-89839861D01*
X108085674Y-89751744D01*
X108027179Y-89571716D01*
X107932533Y-89407784D01*
X107805871Y-89267112D01*
X107805870Y-89267111D01*
X107652734Y-89155851D01*
X107652729Y-89155848D01*
X107479807Y-89078857D01*
X107479802Y-89078855D01*
X107334001Y-89047865D01*
X107294646Y-89039500D01*
X107105354Y-89039500D01*
X107072897Y-89046398D01*
X106920197Y-89078855D01*
X106920192Y-89078857D01*
X106747270Y-89155848D01*
X106747265Y-89155851D01*
X106594130Y-89267110D01*
X106589299Y-89271461D01*
X106587567Y-89269538D01*
X106537896Y-89300127D01*
X106505256Y-89304500D01*
X106464896Y-89304500D01*
X106397857Y-89284815D01*
X106352102Y-89232011D01*
X106342158Y-89162853D01*
X106358164Y-89117379D01*
X106371281Y-89095198D01*
X106417100Y-88937486D01*
X106417295Y-88935001D01*
X106417295Y-88935000D01*
X103472705Y-88935000D01*
X103472704Y-88935001D01*
X103472899Y-88937486D01*
X103518718Y-89095198D01*
X103602314Y-89236552D01*
X103607100Y-89242722D01*
X103604640Y-89244629D01*
X103631210Y-89293288D01*
X103626226Y-89362980D01*
X103605162Y-89395781D01*
X103606699Y-89396974D01*
X103601915Y-89403140D01*
X103518255Y-89544603D01*
X103518254Y-89544606D01*
X103472402Y-89702426D01*
X103472401Y-89702432D01*
X103469500Y-89739298D01*
X103469500Y-90170701D01*
X103472401Y-90207567D01*
X103472402Y-90207573D01*
X103518254Y-90365393D01*
X103518255Y-90365396D01*
X103518256Y-90365398D01*
X103538398Y-90399457D01*
X103601917Y-90506862D01*
X103606702Y-90513031D01*
X103604256Y-90514927D01*
X103630857Y-90563642D01*
X103625873Y-90633334D01*
X103605069Y-90665703D01*
X103606702Y-90666969D01*
X103601917Y-90673137D01*
X103518255Y-90814603D01*
X103518254Y-90814606D01*
X103472402Y-90972426D01*
X103472401Y-90972432D01*
X103469500Y-91009298D01*
X103469500Y-91440701D01*
X103472401Y-91477567D01*
X103472402Y-91477573D01*
X103518254Y-91635393D01*
X103518255Y-91635396D01*
X103518256Y-91635398D01*
X103532297Y-91659140D01*
X103601917Y-91776862D01*
X103606702Y-91783031D01*
X103604256Y-91784927D01*
X103630857Y-91833642D01*
X103625873Y-91903334D01*
X103605069Y-91935703D01*
X103606702Y-91936969D01*
X103601917Y-91943137D01*
X103518255Y-92084603D01*
X103518254Y-92084606D01*
X103472402Y-92242426D01*
X103472401Y-92242432D01*
X103469500Y-92279298D01*
X103469500Y-92710701D01*
X103472401Y-92747567D01*
X103472402Y-92747573D01*
X103519497Y-92909674D01*
X103519298Y-92979544D01*
X103488102Y-93031950D01*
X103330483Y-93189569D01*
X103317910Y-93199643D01*
X103318065Y-93199830D01*
X103312058Y-93204799D01*
X103264133Y-93255833D01*
X103261427Y-93258625D01*
X103241090Y-93278963D01*
X103241077Y-93278978D01*
X103238373Y-93282463D01*
X103230806Y-93291322D01*
X103199552Y-93324607D01*
X103189322Y-93343213D01*
X103178646Y-93359464D01*
X103165640Y-93376232D01*
X103165636Y-93376238D01*
X103147508Y-93418130D01*
X103142369Y-93428619D01*
X103120372Y-93468630D01*
X103120372Y-93468631D01*
X103115091Y-93489199D01*
X103108791Y-93507601D01*
X103100364Y-93527073D01*
X103093223Y-93572162D01*
X103090854Y-93583600D01*
X103079500Y-93627817D01*
X103079500Y-93649044D01*
X103077973Y-93668443D01*
X103074653Y-93689405D01*
X103077634Y-93720941D01*
X103078950Y-93734858D01*
X103079500Y-93746528D01*
X103079500Y-95146788D01*
X103059815Y-95213827D01*
X103007011Y-95259582D01*
X102964347Y-95270472D01*
X102908039Y-95274499D01*
X102908034Y-95274500D01*
X102769949Y-95315045D01*
X102648873Y-95392856D01*
X102648872Y-95392856D01*
X102648872Y-95392857D01*
X102634018Y-95410000D01*
X102550927Y-95505892D01*
X102492149Y-95543666D01*
X102422279Y-95543666D01*
X102363501Y-95505892D01*
X102352898Y-95491728D01*
X102323446Y-95445900D01*
X102322143Y-95443872D01*
X102213373Y-95349623D01*
X102082457Y-95289835D01*
X102082455Y-95289834D01*
X102082457Y-95289834D01*
X101946853Y-95270338D01*
X101883297Y-95241313D01*
X101845523Y-95182535D01*
X101840500Y-95147600D01*
X101840500Y-93775501D01*
X101842268Y-93759488D01*
X101842026Y-93759466D01*
X101842758Y-93751710D01*
X101842760Y-93751703D01*
X101840561Y-93681735D01*
X101840500Y-93677840D01*
X101840500Y-93649077D01*
X101840499Y-93649070D01*
X101840374Y-93648084D01*
X101839948Y-93644714D01*
X101839030Y-93633054D01*
X101837597Y-93587430D01*
X101831676Y-93567052D01*
X101827731Y-93548003D01*
X101825071Y-93526942D01*
X101808261Y-93484487D01*
X101804481Y-93473445D01*
X101791744Y-93429601D01*
X101780939Y-93411332D01*
X101772379Y-93393858D01*
X101771351Y-93391262D01*
X101764568Y-93374129D01*
X101737737Y-93337199D01*
X101731323Y-93327435D01*
X101708082Y-93288137D01*
X101708081Y-93288135D01*
X101693075Y-93273129D01*
X101680435Y-93258330D01*
X101667961Y-93241160D01*
X101632780Y-93212056D01*
X101624140Y-93204194D01*
X101451897Y-93031951D01*
X101418412Y-92970628D01*
X101420502Y-92909675D01*
X101467597Y-92747573D01*
X101467598Y-92747567D01*
X101470499Y-92710701D01*
X101470500Y-92710694D01*
X101470500Y-92279306D01*
X101467598Y-92242431D01*
X101466497Y-92238643D01*
X101423074Y-92089181D01*
X101421744Y-92084602D01*
X101338081Y-91943135D01*
X101338078Y-91943132D01*
X101333298Y-91936969D01*
X101335750Y-91935066D01*
X101309155Y-91886421D01*
X101314104Y-91816726D01*
X101334940Y-91784304D01*
X101333298Y-91783031D01*
X101338075Y-91776870D01*
X101338081Y-91776865D01*
X101421744Y-91635398D01*
X101467598Y-91477569D01*
X101470500Y-91440694D01*
X101470500Y-91009306D01*
X101467598Y-90972431D01*
X101467326Y-90971496D01*
X101421745Y-90814606D01*
X101421744Y-90814603D01*
X101421744Y-90814602D01*
X101338081Y-90673135D01*
X101338078Y-90673132D01*
X101333298Y-90666969D01*
X101335750Y-90665066D01*
X101309155Y-90616421D01*
X101314104Y-90546726D01*
X101334940Y-90514304D01*
X101333298Y-90513031D01*
X101338075Y-90506870D01*
X101338081Y-90506865D01*
X101421744Y-90365398D01*
X101467598Y-90207569D01*
X101470500Y-90170694D01*
X101470500Y-89739306D01*
X101467598Y-89702431D01*
X101464855Y-89692990D01*
X101421745Y-89544606D01*
X101421744Y-89544603D01*
X101421744Y-89544602D01*
X101338081Y-89403135D01*
X101338078Y-89403132D01*
X101333298Y-89396969D01*
X101335750Y-89395066D01*
X101309155Y-89346421D01*
X101314104Y-89276726D01*
X101334940Y-89244304D01*
X101333298Y-89243031D01*
X101338075Y-89236870D01*
X101338081Y-89236865D01*
X101421744Y-89095398D01*
X101467598Y-88937569D01*
X101470500Y-88900694D01*
X101470500Y-88469306D01*
X101467800Y-88434998D01*
X103472704Y-88434998D01*
X103472705Y-88435000D01*
X104695000Y-88435000D01*
X104695000Y-87885000D01*
X105195000Y-87885000D01*
X105195000Y-88435000D01*
X106417295Y-88435000D01*
X106417295Y-88434998D01*
X106417100Y-88432513D01*
X106371281Y-88274801D01*
X106287685Y-88133447D01*
X106287678Y-88133438D01*
X106171561Y-88017321D01*
X106171552Y-88017314D01*
X106030196Y-87933717D01*
X106030193Y-87933716D01*
X105872495Y-87887900D01*
X105872489Y-87887899D01*
X105835649Y-87885000D01*
X105195000Y-87885000D01*
X104695000Y-87885000D01*
X104054350Y-87885000D01*
X104017510Y-87887899D01*
X104017504Y-87887900D01*
X103859806Y-87933716D01*
X103859803Y-87933717D01*
X103718447Y-88017314D01*
X103718438Y-88017321D01*
X103602321Y-88133438D01*
X103602314Y-88133447D01*
X103518718Y-88274801D01*
X103472899Y-88432513D01*
X103472704Y-88434998D01*
X101467800Y-88434998D01*
X101467598Y-88432431D01*
X101463546Y-88418485D01*
X101421745Y-88274606D01*
X101421744Y-88274603D01*
X101421744Y-88274602D01*
X101338081Y-88133135D01*
X101338079Y-88133133D01*
X101338076Y-88133129D01*
X101221870Y-88016923D01*
X101221862Y-88016917D01*
X101112789Y-87952412D01*
X101080398Y-87933256D01*
X101080397Y-87933255D01*
X101080396Y-87933255D01*
X101080393Y-87933254D01*
X100922573Y-87887402D01*
X100922567Y-87887401D01*
X100885701Y-87884500D01*
X100885694Y-87884500D01*
X100869500Y-87884500D01*
X100802461Y-87864815D01*
X100756706Y-87812011D01*
X100745500Y-87760500D01*
X100745500Y-86504546D01*
X100765185Y-86437507D01*
X100781819Y-86416865D01*
X100786866Y-86411818D01*
X100848189Y-86378333D01*
X100874547Y-86375499D01*
X102673939Y-86375499D01*
X102740978Y-86395184D01*
X102779476Y-86434400D01*
X102862285Y-86568655D01*
X102986341Y-86692711D01*
X103135663Y-86784813D01*
X103302200Y-86839998D01*
X103404988Y-86850499D01*
X104180005Y-86850498D01*
X104180013Y-86850497D01*
X104180016Y-86850497D01*
X104249882Y-86843360D01*
X104282794Y-86839998D01*
X104449331Y-86784813D01*
X104598653Y-86692711D01*
X104722709Y-86568655D01*
X104724749Y-86565346D01*
X104726742Y-86563554D01*
X104727190Y-86562988D01*
X104727286Y-86563064D01*
X104776691Y-86518622D01*
X104845653Y-86507394D01*
X104909737Y-86535233D01*
X104935826Y-86565338D01*
X104937678Y-86568340D01*
X104937680Y-86568343D01*
X105061651Y-86692314D01*
X105210872Y-86784355D01*
X105210877Y-86784357D01*
X105377299Y-86839504D01*
X105377306Y-86839505D01*
X105480016Y-86849998D01*
X105617496Y-86849998D01*
X105617497Y-86849997D01*
X105617497Y-85874999D01*
X106117497Y-85874999D01*
X106117497Y-86849998D01*
X106254969Y-86849998D01*
X106254983Y-86849997D01*
X106357694Y-86839504D01*
X106524116Y-86784357D01*
X106524121Y-86784355D01*
X106673342Y-86692314D01*
X106797312Y-86568344D01*
X106889353Y-86419123D01*
X106889355Y-86419118D01*
X106944502Y-86252696D01*
X106944503Y-86252689D01*
X106954996Y-86149985D01*
X106954997Y-86149972D01*
X106954997Y-85874999D01*
X106117497Y-85874999D01*
X105617497Y-85874999D01*
X105617497Y-84399999D01*
X106117497Y-84399999D01*
X106117497Y-85374999D01*
X106954996Y-85374999D01*
X106954996Y-85100027D01*
X106954995Y-85100012D01*
X106944502Y-84997301D01*
X106889355Y-84830879D01*
X106889353Y-84830874D01*
X106797312Y-84681653D01*
X106673342Y-84557683D01*
X106524121Y-84465642D01*
X106524116Y-84465640D01*
X106357694Y-84410493D01*
X106357687Y-84410492D01*
X106254983Y-84399999D01*
X106117497Y-84399999D01*
X105617497Y-84399999D01*
X105480024Y-84399999D01*
X105480009Y-84400000D01*
X105377299Y-84410493D01*
X105210877Y-84465640D01*
X105210872Y-84465642D01*
X105061651Y-84557683D01*
X104937680Y-84681654D01*
X104937676Y-84681659D01*
X104935823Y-84684664D01*
X104934015Y-84686289D01*
X104933199Y-84687322D01*
X104933022Y-84687182D01*
X104883871Y-84731384D01*
X104814908Y-84742600D01*
X104750828Y-84714751D01*
X104724750Y-84684652D01*
X104724734Y-84684627D01*
X104722709Y-84681343D01*
X104598653Y-84557287D01*
X104449331Y-84465185D01*
X104282794Y-84410000D01*
X104282792Y-84409999D01*
X104180007Y-84399499D01*
X103404995Y-84399499D01*
X103404977Y-84399500D01*
X103302200Y-84409999D01*
X103302197Y-84410000D01*
X103135665Y-84465184D01*
X103135660Y-84465186D01*
X102986339Y-84557288D01*
X102862286Y-84681341D01*
X102859234Y-84686289D01*
X102780671Y-84813662D01*
X102779478Y-84815596D01*
X102727530Y-84862320D01*
X102673939Y-84874499D01*
X100874549Y-84874499D01*
X100807510Y-84854814D01*
X100786868Y-84838180D01*
X100781819Y-84833131D01*
X100748334Y-84771808D01*
X100745500Y-84745450D01*
X100745500Y-82753705D01*
X100746809Y-82735735D01*
X100750289Y-82711974D01*
X100745972Y-82662635D01*
X100745500Y-82651826D01*
X100745500Y-82139340D01*
X100747164Y-82123056D01*
X100747104Y-82123051D01*
X100747733Y-82115860D01*
X100746786Y-82083323D01*
X100745552Y-82040889D01*
X100745500Y-82037283D01*
X100745500Y-81124500D01*
X100765185Y-81057461D01*
X100817989Y-81011706D01*
X100869500Y-81000500D01*
X101090692Y-81000500D01*
X101157731Y-81020185D01*
G37*
G04 #@! TD.AperFunction*
G04 #@! TA.AperFunction,Conductor*
G36*
X94289031Y-89640186D02*
G01*
X94334786Y-89692990D01*
X94344730Y-89762148D01*
X94323567Y-89815624D01*
X94255963Y-89912172D01*
X94255962Y-89912174D01*
X94156090Y-90126348D01*
X94155409Y-90128221D01*
X94154695Y-90129341D01*
X94153807Y-90131246D01*
X94153556Y-90131129D01*
X94126573Y-90173479D01*
X92049377Y-92250677D01*
X91988054Y-92284162D01*
X91961696Y-92286996D01*
X91368206Y-92286996D01*
X91301167Y-92267311D01*
X91275582Y-92244115D01*
X91275445Y-92244253D01*
X91272645Y-92241453D01*
X91270943Y-92239910D01*
X91270342Y-92239150D01*
X91148347Y-92117155D01*
X91144188Y-92114590D01*
X91097464Y-92062641D01*
X91086243Y-91993678D01*
X91114087Y-91929597D01*
X91121605Y-91921370D01*
X91247446Y-91795529D01*
X91337946Y-91648807D01*
X91337951Y-91648796D01*
X91392178Y-91485148D01*
X91402497Y-91384150D01*
X91402498Y-91384137D01*
X91402498Y-91347496D01*
X90251498Y-91347496D01*
X90184459Y-91327811D01*
X90138704Y-91275007D01*
X90127498Y-91223496D01*
X90127498Y-90971496D01*
X90147183Y-90904457D01*
X90199987Y-90858702D01*
X90251498Y-90847496D01*
X91402497Y-90847496D01*
X91402497Y-90810856D01*
X91402496Y-90810841D01*
X91392178Y-90709843D01*
X91337951Y-90546195D01*
X91337946Y-90546184D01*
X91247445Y-90399461D01*
X91247442Y-90399457D01*
X91125536Y-90277551D01*
X91125532Y-90277548D01*
X90978809Y-90187047D01*
X90978800Y-90187043D01*
X90883441Y-90155444D01*
X90825997Y-90115671D01*
X90799174Y-90051155D01*
X90811489Y-89982379D01*
X90859032Y-89931179D01*
X90883433Y-89920035D01*
X91001510Y-89880909D01*
X91148344Y-89790341D01*
X91270334Y-89668351D01*
X91270335Y-89668348D01*
X91270338Y-89668346D01*
X91270939Y-89667587D01*
X91271483Y-89667201D01*
X91275441Y-89663244D01*
X91276117Y-89663920D01*
X91327962Y-89627212D01*
X91368202Y-89620501D01*
X94221992Y-89620501D01*
X94289031Y-89640186D01*
G37*
G04 #@! TD.AperFunction*
G04 #@! TA.AperFunction,Conductor*
G36*
X116441257Y-87910184D02*
G01*
X116461894Y-87926813D01*
X116563182Y-88028100D01*
X116596666Y-88089421D01*
X116599500Y-88115780D01*
X116599500Y-89984217D01*
X116579815Y-90051256D01*
X116563181Y-90071898D01*
X114681897Y-91953182D01*
X114620574Y-91986667D01*
X114594216Y-91989501D01*
X113894099Y-91989501D01*
X113827060Y-91969816D01*
X113781305Y-91917012D01*
X113770810Y-91852245D01*
X113772534Y-91836209D01*
X113778000Y-91785373D01*
X113777999Y-91054628D01*
X113771591Y-90995017D01*
X113763167Y-90972432D01*
X113721297Y-90860171D01*
X113721295Y-90860168D01*
X113665233Y-90785278D01*
X113640816Y-90719813D01*
X113640500Y-90710967D01*
X113640500Y-90390949D01*
X113642027Y-90371549D01*
X113643001Y-90365398D01*
X113645346Y-90350595D01*
X113641050Y-90305147D01*
X113640500Y-90293478D01*
X113640500Y-88285085D01*
X113660185Y-88218046D01*
X113712989Y-88172291D01*
X113782147Y-88162347D01*
X113796587Y-88165308D01*
X114019592Y-88225062D01*
X114207918Y-88241538D01*
X114254999Y-88245658D01*
X114255000Y-88245658D01*
X114255001Y-88245658D01*
X114294234Y-88242225D01*
X114490408Y-88225062D01*
X114718663Y-88163902D01*
X114932830Y-88064034D01*
X115126401Y-87928494D01*
X115128077Y-87926818D01*
X115128995Y-87926316D01*
X115130544Y-87925017D01*
X115130805Y-87925328D01*
X115189400Y-87893333D01*
X115215758Y-87890499D01*
X116374218Y-87890499D01*
X116441257Y-87910184D01*
G37*
G04 #@! TD.AperFunction*
G04 #@! TA.AperFunction,Conductor*
G36*
X83220000Y-107110000D02*
G01*
X84030000Y-108650000D01*
X84030000Y-109039500D01*
X81322421Y-109039500D01*
X81314933Y-109039274D01*
X81254896Y-109035642D01*
X81254888Y-109035642D01*
X81195727Y-109046483D01*
X81188327Y-109047610D01*
X81128628Y-109054860D01*
X81128621Y-109054861D01*
X81119147Y-109058454D01*
X81097549Y-109064475D01*
X81087568Y-109066305D01*
X81087563Y-109066306D01*
X81032712Y-109090992D01*
X81025796Y-109093857D01*
X80969570Y-109115181D01*
X80969566Y-109115184D01*
X80961223Y-109120942D01*
X80941688Y-109131960D01*
X80932448Y-109136119D01*
X80932438Y-109136124D01*
X80885097Y-109173213D01*
X80879069Y-109177649D01*
X80829568Y-109211819D01*
X80789683Y-109256838D01*
X80784551Y-109262290D01*
X73862290Y-116184551D01*
X73856838Y-116189683D01*
X73811819Y-116229568D01*
X73777649Y-116279069D01*
X73773213Y-116285097D01*
X73736124Y-116332438D01*
X73736119Y-116332448D01*
X73731960Y-116341688D01*
X73720942Y-116361223D01*
X73715187Y-116369561D01*
X73715179Y-116369576D01*
X73693853Y-116425805D01*
X73690989Y-116432720D01*
X73666305Y-116487568D01*
X73664477Y-116497542D01*
X73658453Y-116519153D01*
X73654860Y-116528627D01*
X73654860Y-116528628D01*
X73647610Y-116588327D01*
X73646483Y-116595727D01*
X73635642Y-116654889D01*
X73635642Y-116654895D01*
X73639274Y-116714932D01*
X73639500Y-116722420D01*
X73639500Y-123223452D01*
X73619815Y-123290491D01*
X73567011Y-123336246D01*
X73497853Y-123346190D01*
X73434297Y-123317165D01*
X73396523Y-123258387D01*
X73394926Y-123252399D01*
X73350247Y-123066297D01*
X73252365Y-122829987D01*
X73252363Y-122829984D01*
X73118719Y-122611897D01*
X73115465Y-122608087D01*
X73113684Y-122609867D01*
X72720000Y-121390000D01*
X72500001Y-115870000D01*
X79750000Y-108730000D01*
X79690000Y-107340000D01*
X77404137Y-107108216D01*
X77383702Y-107099752D01*
X77197600Y-107055074D01*
X77137008Y-107020283D01*
X77104844Y-106958257D01*
X77111320Y-106888688D01*
X77154380Y-106833664D01*
X77220352Y-106810655D01*
X77226547Y-106810500D01*
X83220000Y-106810500D01*
X83220000Y-107110000D01*
G37*
G04 #@! TD.AperFunction*
G04 #@! TA.AperFunction,Conductor*
G36*
X84030000Y-110470000D02*
G01*
X84020000Y-110950000D01*
X82090000Y-111720000D01*
X76020000Y-117530000D01*
X75940000Y-121350000D01*
X75552648Y-122625981D01*
X75427636Y-122829984D01*
X75427634Y-122829987D01*
X75329752Y-123066297D01*
X75285074Y-123252399D01*
X75250283Y-123312991D01*
X75188257Y-123345155D01*
X75118688Y-123338679D01*
X75063664Y-123295619D01*
X75040655Y-123229647D01*
X75040500Y-123223452D01*
X75040500Y-117039019D01*
X75060185Y-116971980D01*
X75076819Y-116951338D01*
X81551338Y-110476819D01*
X81612661Y-110443334D01*
X81639019Y-110440500D01*
X84030000Y-110440500D01*
X84030000Y-110470000D01*
G37*
G04 #@! TD.AperFunction*
G04 #@! TA.AperFunction,Conductor*
G36*
X73561312Y-88881320D02*
G01*
X73616336Y-88924380D01*
X73639345Y-88990352D01*
X73639500Y-88996547D01*
X73639500Y-95457578D01*
X73639274Y-95465066D01*
X73635642Y-95525103D01*
X73635642Y-95525105D01*
X73646483Y-95584270D01*
X73647610Y-95591671D01*
X73654859Y-95651371D01*
X73654860Y-95651374D01*
X73658451Y-95660843D01*
X73664474Y-95682446D01*
X73666304Y-95692430D01*
X73690991Y-95747282D01*
X73693854Y-95754194D01*
X73715182Y-95810430D01*
X73715183Y-95810431D01*
X73720936Y-95818766D01*
X73731961Y-95838313D01*
X73736120Y-95847555D01*
X73736124Y-95847560D01*
X73773215Y-95894903D01*
X73777655Y-95900938D01*
X73811812Y-95950424D01*
X73811816Y-95950429D01*
X73856828Y-95990305D01*
X73862283Y-95995440D01*
X80754558Y-102887715D01*
X80759678Y-102893153D01*
X80799571Y-102938183D01*
X80849073Y-102972352D01*
X80855091Y-102976780D01*
X80902444Y-103013878D01*
X80902447Y-103013880D01*
X80902446Y-103013880D01*
X80911677Y-103018034D01*
X80931231Y-103029062D01*
X80939570Y-103034818D01*
X80995831Y-103056154D01*
X81002708Y-103059003D01*
X81024063Y-103068615D01*
X81057563Y-103083693D01*
X81057566Y-103083693D01*
X81057569Y-103083695D01*
X81067419Y-103085500D01*
X81067534Y-103085521D01*
X81089156Y-103091548D01*
X81092277Y-103092731D01*
X81098628Y-103095140D01*
X81156189Y-103102128D01*
X81158315Y-103102387D01*
X81165722Y-103103514D01*
X81224894Y-103114358D01*
X81284933Y-103110725D01*
X81292421Y-103110500D01*
X84010000Y-103110500D01*
X84010000Y-103410000D01*
X83220000Y-105110000D01*
X83220000Y-105409500D01*
X77226547Y-105409500D01*
X77159508Y-105389815D01*
X77113753Y-105337011D01*
X77103809Y-105267853D01*
X77132834Y-105204297D01*
X77191612Y-105166523D01*
X77197600Y-105164926D01*
X77383702Y-105120247D01*
X77553042Y-105050104D01*
X79629999Y-104730000D01*
X79630000Y-103250000D01*
X77660000Y-101060000D01*
X72850000Y-96170000D01*
X72600000Y-93600000D01*
X72690000Y-90900000D01*
X73222612Y-89438564D01*
X73252363Y-89390015D01*
X73252365Y-89390012D01*
X73350247Y-89153702D01*
X73394926Y-88967600D01*
X73429717Y-88907008D01*
X73491743Y-88874844D01*
X73561312Y-88881320D01*
G37*
G04 #@! TD.AperFunction*
G04 #@! TA.AperFunction,Conductor*
G36*
X75245703Y-88902834D02*
G01*
X75283477Y-88961612D01*
X75285074Y-88967600D01*
X75329752Y-89153702D01*
X75427634Y-89390012D01*
X75427636Y-89390015D01*
X75561277Y-89608098D01*
X75561284Y-89608107D01*
X75564533Y-89611912D01*
X75570780Y-89605664D01*
X76090000Y-90970000D01*
X76110000Y-93610000D01*
X76640000Y-95800000D01*
X78250000Y-97480000D01*
X79960000Y-98760000D01*
X81990000Y-100830000D01*
X84010000Y-101370000D01*
X84010000Y-101709500D01*
X81609019Y-101709500D01*
X81541980Y-101689815D01*
X81521338Y-101673181D01*
X75076819Y-95228662D01*
X75043334Y-95167339D01*
X75040500Y-95140981D01*
X75040500Y-88996547D01*
X75060185Y-88929508D01*
X75112989Y-88883753D01*
X75182147Y-88873809D01*
X75245703Y-88902834D01*
G37*
G04 #@! TD.AperFunction*
G04 #@! TA.AperFunction,Conductor*
G36*
X87440000Y-110890283D02*
G01*
X87294465Y-110980052D01*
X87294461Y-110980055D01*
X87172555Y-111101961D01*
X87172552Y-111101965D01*
X87082051Y-111248688D01*
X87082046Y-111248699D01*
X87027819Y-111412347D01*
X87017500Y-111513345D01*
X87017500Y-111550000D01*
X87440000Y-111550000D01*
X87440000Y-112050000D01*
X87017501Y-112050000D01*
X87017501Y-112086654D01*
X87027819Y-112187652D01*
X87082046Y-112351300D01*
X87082051Y-112351311D01*
X87172552Y-112498034D01*
X87172555Y-112498038D01*
X87294461Y-112619944D01*
X87294465Y-112619947D01*
X87440000Y-112709715D01*
X87440000Y-122959500D01*
X85739336Y-122959500D01*
X85672297Y-122939815D01*
X85651655Y-122923181D01*
X83181819Y-120453345D01*
X83148334Y-120392022D01*
X83145500Y-120365664D01*
X83145500Y-119351438D01*
X83165185Y-119284399D01*
X83170234Y-119277126D01*
X83188796Y-119252331D01*
X83188797Y-119252327D01*
X83188798Y-119252327D01*
X83238002Y-119120402D01*
X83279872Y-119064468D01*
X83345337Y-119040050D01*
X83413610Y-119054901D01*
X83441865Y-119076053D01*
X83563917Y-119198105D01*
X83757421Y-119333600D01*
X83971507Y-119433429D01*
X83971516Y-119433433D01*
X84185000Y-119490634D01*
X84185000Y-118595501D01*
X84292685Y-118644680D01*
X84399237Y-118660000D01*
X84470763Y-118660000D01*
X84577315Y-118644680D01*
X84685000Y-118595501D01*
X84685000Y-119490633D01*
X84898483Y-119433433D01*
X84898492Y-119433429D01*
X85112578Y-119333600D01*
X85306082Y-119198105D01*
X85473105Y-119031082D01*
X85608600Y-118837578D01*
X85708429Y-118623492D01*
X85708432Y-118623486D01*
X85765636Y-118410000D01*
X84868686Y-118410000D01*
X84894493Y-118369844D01*
X84935000Y-118231889D01*
X84935000Y-118088111D01*
X84894493Y-117950156D01*
X84868686Y-117910000D01*
X85765636Y-117910000D01*
X85765635Y-117909999D01*
X85708432Y-117696513D01*
X85708429Y-117696507D01*
X85608600Y-117482422D01*
X85608599Y-117482420D01*
X85473113Y-117288926D01*
X85473108Y-117288920D01*
X85306082Y-117121894D01*
X85112578Y-116986399D01*
X84898492Y-116886570D01*
X84898486Y-116886567D01*
X84685000Y-116829364D01*
X84685000Y-117724498D01*
X84577315Y-117675320D01*
X84470763Y-117660000D01*
X84399237Y-117660000D01*
X84292685Y-117675320D01*
X84185000Y-117724498D01*
X84185000Y-116829364D01*
X84184999Y-116829364D01*
X83971513Y-116886567D01*
X83971507Y-116886570D01*
X83757422Y-116986399D01*
X83757420Y-116986400D01*
X83563926Y-117121886D01*
X83441865Y-117243947D01*
X83380542Y-117277431D01*
X83310850Y-117272447D01*
X83254917Y-117230575D01*
X83238002Y-117199598D01*
X83188797Y-117067671D01*
X83188793Y-117067664D01*
X83102547Y-116952455D01*
X83102544Y-116952452D01*
X82987335Y-116866206D01*
X82987328Y-116866202D01*
X82852482Y-116815908D01*
X82852483Y-116815908D01*
X82792883Y-116809501D01*
X82792881Y-116809500D01*
X82792873Y-116809500D01*
X82792864Y-116809500D01*
X80997129Y-116809500D01*
X80997123Y-116809501D01*
X80937516Y-116815908D01*
X80802671Y-116866202D01*
X80802664Y-116866206D01*
X80687455Y-116952452D01*
X80687452Y-116952455D01*
X80601206Y-117067664D01*
X80601202Y-117067671D01*
X80550908Y-117202517D01*
X80544501Y-117262116D01*
X80544500Y-117262135D01*
X80544500Y-119057870D01*
X80544501Y-119057876D01*
X80550908Y-119117483D01*
X80601203Y-119252329D01*
X80619766Y-119277126D01*
X80644184Y-119342590D01*
X80644500Y-119351438D01*
X80644500Y-120857814D01*
X80643720Y-120871698D01*
X80639762Y-120906822D01*
X80639761Y-120906830D01*
X80644219Y-120972931D01*
X80644500Y-120981273D01*
X80644500Y-120991156D01*
X80648153Y-121031749D01*
X80648371Y-121034521D01*
X80654903Y-121131407D01*
X80654903Y-121131412D01*
X80655972Y-121135652D01*
X80659230Y-121154824D01*
X80659623Y-121159190D01*
X80685465Y-121252824D01*
X80686158Y-121255447D01*
X80700971Y-121314234D01*
X80709903Y-121349681D01*
X80711715Y-121353670D01*
X80718340Y-121371944D01*
X80719504Y-121376162D01*
X80719507Y-121376170D01*
X80761657Y-121463698D01*
X80762835Y-121466216D01*
X80802993Y-121554626D01*
X80802994Y-121554629D01*
X80805483Y-121558221D01*
X80815269Y-121575026D01*
X80817166Y-121578965D01*
X80817171Y-121578973D01*
X80874311Y-121657620D01*
X80875835Y-121659768D01*
X80913433Y-121714038D01*
X80931181Y-121739656D01*
X80934273Y-121742748D01*
X80946907Y-121757539D01*
X80949478Y-121761078D01*
X80949482Y-121761082D01*
X81019699Y-121828217D01*
X81021688Y-121830162D01*
X84231182Y-125039656D01*
X84240448Y-125050024D01*
X84262492Y-125077666D01*
X84312395Y-125121266D01*
X84318491Y-125126965D01*
X84325466Y-125133940D01*
X84325477Y-125133950D01*
X84356739Y-125160050D01*
X84358854Y-125161856D01*
X84432004Y-125225765D01*
X84435750Y-125228003D01*
X84451624Y-125239265D01*
X84454981Y-125242068D01*
X84539516Y-125290034D01*
X84541778Y-125291352D01*
X84625236Y-125341215D01*
X84629327Y-125342750D01*
X84646955Y-125350996D01*
X84650755Y-125353153D01*
X84742496Y-125385254D01*
X84744998Y-125386161D01*
X84835976Y-125420307D01*
X84838565Y-125420776D01*
X84840274Y-125421087D01*
X84859089Y-125426053D01*
X84863217Y-125427498D01*
X84959237Y-125442705D01*
X84961832Y-125443146D01*
X85033432Y-125456140D01*
X85057452Y-125460500D01*
X85057453Y-125460500D01*
X85061828Y-125460500D01*
X85081231Y-125462028D01*
X85082938Y-125462297D01*
X85085540Y-125462710D01*
X85182621Y-125460531D01*
X85185404Y-125460500D01*
X87440000Y-125460500D01*
X87440000Y-127937785D01*
X87378689Y-127817456D01*
X87167468Y-127492206D01*
X86958904Y-127234649D01*
X86958903Y-127234648D01*
X85467732Y-128725818D01*
X85304870Y-128535130D01*
X85114180Y-128372266D01*
X86605350Y-126881096D01*
X86605350Y-126881095D01*
X86347793Y-126672531D01*
X86022543Y-126461310D01*
X85676994Y-126285244D01*
X85314936Y-126146262D01*
X84940330Y-126045887D01*
X84940323Y-126045886D01*
X84557287Y-125985219D01*
X84170001Y-125964922D01*
X84169999Y-125964922D01*
X83782712Y-125985219D01*
X83399676Y-126045886D01*
X83399669Y-126045887D01*
X83025063Y-126146262D01*
X82663005Y-126285244D01*
X82317456Y-126461310D01*
X81992206Y-126672531D01*
X81734648Y-126881095D01*
X81734648Y-126881096D01*
X83225819Y-128372266D01*
X83035130Y-128535130D01*
X82872266Y-128725818D01*
X81381096Y-127234648D01*
X81381095Y-127234648D01*
X81172531Y-127492206D01*
X80961310Y-127817456D01*
X80785244Y-128163005D01*
X80646262Y-128525063D01*
X80545887Y-128899669D01*
X80545886Y-128899676D01*
X80485219Y-129282712D01*
X80464922Y-129669999D01*
X80464922Y-129670000D01*
X80485219Y-130057287D01*
X80545886Y-130440323D01*
X80545887Y-130440330D01*
X80646262Y-130814936D01*
X80785244Y-131176994D01*
X80961310Y-131522543D01*
X81172531Y-131847793D01*
X81381095Y-132105350D01*
X81381096Y-132105350D01*
X82872266Y-130614180D01*
X83035130Y-130804870D01*
X83225819Y-130967733D01*
X81734648Y-132458903D01*
X81734649Y-132458904D01*
X81992206Y-132667468D01*
X82317456Y-132878689D01*
X82663005Y-133054755D01*
X83025063Y-133193737D01*
X83399669Y-133294112D01*
X83399676Y-133294113D01*
X83782712Y-133354780D01*
X84169999Y-133375078D01*
X84170001Y-133375078D01*
X84557287Y-133354780D01*
X84940323Y-133294113D01*
X84940330Y-133294112D01*
X85314936Y-133193737D01*
X85676994Y-133054755D01*
X86022543Y-132878689D01*
X86347783Y-132667476D01*
X86347785Y-132667475D01*
X86605349Y-132458902D01*
X85114180Y-130967733D01*
X85304870Y-130804870D01*
X85467733Y-130614180D01*
X86958902Y-132105349D01*
X87167475Y-131847785D01*
X87167476Y-131847783D01*
X87378691Y-131522541D01*
X87378692Y-131522538D01*
X87440000Y-131402214D01*
X87440000Y-133621275D01*
X87424970Y-133621269D01*
X87396754Y-133636668D01*
X87370426Y-133639495D01*
X82884232Y-133639495D01*
X73171779Y-133617103D01*
X73153871Y-133615761D01*
X73025687Y-133596747D01*
X73024482Y-133596562D01*
X72855192Y-133569748D01*
X72844461Y-133567559D01*
X72680825Y-133526569D01*
X72678861Y-133526060D01*
X72516109Y-133482450D01*
X72506428Y-133479426D01*
X72346496Y-133422201D01*
X72343833Y-133421214D01*
X72187650Y-133361260D01*
X72179071Y-133357591D01*
X72084722Y-133312967D01*
X72024943Y-133284693D01*
X72021693Y-133283097D01*
X71873190Y-133207430D01*
X71865736Y-133203303D01*
X71719205Y-133115475D01*
X71715419Y-133113112D01*
X71575954Y-133022542D01*
X71569622Y-133018145D01*
X71432228Y-132916246D01*
X71428059Y-132913014D01*
X71298971Y-132808480D01*
X71293734Y-132803992D01*
X71166933Y-132689066D01*
X71162525Y-132684869D01*
X71145124Y-132667468D01*
X71045116Y-132567459D01*
X71040948Y-132563082D01*
X70925979Y-132436233D01*
X70921492Y-132430996D01*
X70816968Y-132301919D01*
X70813736Y-132297749D01*
X70711844Y-132160362D01*
X70707447Y-132154031D01*
X70616888Y-132014583D01*
X70614537Y-132010817D01*
X70526680Y-131864236D01*
X70522555Y-131856784D01*
X70517969Y-131847783D01*
X70446881Y-131708265D01*
X70445325Y-131705096D01*
X70372389Y-131550884D01*
X70368726Y-131542321D01*
X70308773Y-131386137D01*
X70307832Y-131383599D01*
X70250555Y-131223519D01*
X70247542Y-131213871D01*
X70203926Y-131051091D01*
X70203431Y-131049182D01*
X70162431Y-130885502D01*
X70160249Y-130874805D01*
X70133386Y-130705197D01*
X70133303Y-130704657D01*
X70108915Y-130540243D01*
X70107748Y-130528602D01*
X70098156Y-130345746D01*
X70091460Y-130209439D01*
X70090635Y-130192641D01*
X70090486Y-130186558D01*
X70090486Y-129392589D01*
X70110171Y-129325550D01*
X70162975Y-129279795D01*
X70232133Y-129269851D01*
X70295689Y-129298876D01*
X70329047Y-129345137D01*
X70347634Y-129390012D01*
X70347636Y-129390015D01*
X70481277Y-129608098D01*
X70481284Y-129608107D01*
X70484533Y-129611912D01*
X71048766Y-129047678D01*
X71092316Y-129129822D01*
X71212009Y-129270735D01*
X71359195Y-129382623D01*
X71401402Y-129402150D01*
X70838087Y-129965465D01*
X70841897Y-129968719D01*
X71059984Y-130102363D01*
X71059987Y-130102365D01*
X71296297Y-130200247D01*
X71545011Y-130259957D01*
X71545010Y-130259957D01*
X71800000Y-130280024D01*
X72054989Y-130259957D01*
X72303702Y-130200247D01*
X72540012Y-130102365D01*
X72540015Y-130102363D01*
X72758095Y-129968724D01*
X72758110Y-129968713D01*
X72761911Y-129965466D01*
X72761911Y-129965464D01*
X72198609Y-129402161D01*
X72317431Y-129330669D01*
X72451658Y-129203523D01*
X72554861Y-129051308D01*
X73115464Y-129611911D01*
X73115466Y-129611911D01*
X73118713Y-129608110D01*
X73118724Y-129608095D01*
X73252363Y-129390015D01*
X73252365Y-129390012D01*
X73350247Y-129153702D01*
X73409957Y-128904988D01*
X73421032Y-128764271D01*
X73445916Y-128698983D01*
X73502147Y-128657512D01*
X73544650Y-128650000D01*
X75135350Y-128650000D01*
X75202389Y-128669685D01*
X75248144Y-128722489D01*
X75258968Y-128764271D01*
X75270042Y-128904988D01*
X75329752Y-129153702D01*
X75427634Y-129390012D01*
X75427636Y-129390015D01*
X75561277Y-129608098D01*
X75561284Y-129608107D01*
X75564533Y-129611912D01*
X76128766Y-129047679D01*
X76172316Y-129129822D01*
X76292009Y-129270735D01*
X76439195Y-129382623D01*
X76481402Y-129402150D01*
X75918087Y-129965465D01*
X75921897Y-129968719D01*
X76139984Y-130102363D01*
X76139987Y-130102365D01*
X76376297Y-130200247D01*
X76625011Y-130259957D01*
X76625010Y-130259957D01*
X76880000Y-130280024D01*
X77134989Y-130259957D01*
X77383702Y-130200247D01*
X77620012Y-130102365D01*
X77620015Y-130102363D01*
X77838095Y-129968724D01*
X77838110Y-129968713D01*
X77841911Y-129965466D01*
X77841911Y-129965464D01*
X77278609Y-129402161D01*
X77397431Y-129330669D01*
X77531658Y-129203523D01*
X77634861Y-129051308D01*
X78195464Y-129611911D01*
X78195466Y-129611911D01*
X78198713Y-129608110D01*
X78198724Y-129608095D01*
X78332363Y-129390015D01*
X78332365Y-129390012D01*
X78430247Y-129153702D01*
X78489957Y-128904989D01*
X78510024Y-128650000D01*
X78489957Y-128395010D01*
X78430247Y-128146297D01*
X78332365Y-127909987D01*
X78332363Y-127909984D01*
X78198719Y-127691897D01*
X78195465Y-127688087D01*
X77631232Y-128252319D01*
X77587684Y-128170178D01*
X77467991Y-128029265D01*
X77320805Y-127917377D01*
X77278597Y-127897849D01*
X77841912Y-127334533D01*
X77838107Y-127331284D01*
X77838098Y-127331277D01*
X77620015Y-127197636D01*
X77620012Y-127197634D01*
X77383702Y-127099752D01*
X77134988Y-127040042D01*
X77134989Y-127040042D01*
X76954271Y-127025820D01*
X76888983Y-127000936D01*
X76847512Y-126944705D01*
X76840000Y-126902202D01*
X76840000Y-125317797D01*
X76859685Y-125250758D01*
X76912489Y-125205003D01*
X76954272Y-125194179D01*
X77134988Y-125179957D01*
X77383702Y-125120247D01*
X77620012Y-125022365D01*
X77620015Y-125022363D01*
X77838095Y-124888724D01*
X77838110Y-124888713D01*
X77841911Y-124885466D01*
X77841911Y-124885464D01*
X77278609Y-124322162D01*
X77397431Y-124250669D01*
X77531658Y-124123523D01*
X77634861Y-123971308D01*
X78195464Y-124531911D01*
X78195466Y-124531911D01*
X78198713Y-124528110D01*
X78198724Y-124528095D01*
X78332363Y-124310015D01*
X78332365Y-124310012D01*
X78430247Y-124073702D01*
X78489957Y-123824989D01*
X78510024Y-123570000D01*
X78489957Y-123315010D01*
X78430247Y-123066297D01*
X78332365Y-122829987D01*
X78332363Y-122829984D01*
X78198719Y-122611897D01*
X78195465Y-122608087D01*
X77631232Y-123172319D01*
X77587684Y-123090178D01*
X77467991Y-122949265D01*
X77320805Y-122837377D01*
X77278596Y-122817849D01*
X77841912Y-122254533D01*
X77838107Y-122251284D01*
X77838098Y-122251277D01*
X77620015Y-122117636D01*
X77620012Y-122117634D01*
X77383702Y-122019752D01*
X77134988Y-121960042D01*
X77134989Y-121960042D01*
X76880000Y-121939975D01*
X76625010Y-121960042D01*
X76376297Y-122019752D01*
X76139987Y-122117634D01*
X76139984Y-122117636D01*
X75921893Y-122251282D01*
X75918086Y-122254532D01*
X76481391Y-122817837D01*
X76362569Y-122889331D01*
X76228342Y-123016477D01*
X76125138Y-123168691D01*
X75564532Y-122608086D01*
X75558806Y-122614794D01*
X75555361Y-122617043D01*
X75940000Y-121350000D01*
X76020000Y-117530000D01*
X82090000Y-111720000D01*
X84020000Y-110950000D01*
X84024365Y-110740500D01*
X84808243Y-110740500D01*
X84884090Y-110732787D01*
X84959938Y-110725074D01*
X84972330Y-110721186D01*
X85009452Y-110715499D01*
X85056670Y-110715499D01*
X85056676Y-110715499D01*
X85157753Y-110705174D01*
X85321516Y-110650908D01*
X85468350Y-110560340D01*
X85582319Y-110446371D01*
X85643642Y-110412886D01*
X85713334Y-110417870D01*
X85757681Y-110446371D01*
X85871650Y-110560340D01*
X86018484Y-110650908D01*
X86182247Y-110705174D01*
X86283323Y-110715500D01*
X86881676Y-110715499D01*
X86881684Y-110715498D01*
X86881687Y-110715498D01*
X86937030Y-110709844D01*
X86982753Y-110705174D01*
X87146516Y-110650908D01*
X87293350Y-110560340D01*
X87415340Y-110438350D01*
X87440000Y-110398369D01*
X87440000Y-110890283D01*
G37*
G04 #@! TD.AperFunction*
G04 #@! TA.AperFunction,Conductor*
G36*
X71092316Y-124049822D02*
G01*
X71212009Y-124190735D01*
X71359195Y-124302623D01*
X71401402Y-124322150D01*
X70838087Y-124885465D01*
X70841897Y-124888719D01*
X71059984Y-125022363D01*
X71059987Y-125022365D01*
X71296297Y-125120247D01*
X71545011Y-125179957D01*
X71545010Y-125179957D01*
X71685728Y-125191031D01*
X71751016Y-125215914D01*
X71792488Y-125272145D01*
X71800000Y-125314649D01*
X71800000Y-126905350D01*
X71780315Y-126972389D01*
X71727511Y-127018144D01*
X71685729Y-127028968D01*
X71545011Y-127040042D01*
X71296297Y-127099752D01*
X71059987Y-127197634D01*
X71059984Y-127197636D01*
X70841893Y-127331282D01*
X70838086Y-127334532D01*
X71401391Y-127897837D01*
X71282569Y-127969331D01*
X71148342Y-128096477D01*
X71045138Y-128248692D01*
X70484532Y-127688086D01*
X70481282Y-127691893D01*
X70347637Y-127909981D01*
X70329047Y-127954863D01*
X70285205Y-128009266D01*
X70218911Y-128031330D01*
X70151212Y-128014050D01*
X70103602Y-127962912D01*
X70090486Y-127907411D01*
X70090487Y-124312590D01*
X70110172Y-124245554D01*
X70162976Y-124199799D01*
X70232134Y-124189855D01*
X70295690Y-124218880D01*
X70329048Y-124265140D01*
X70347636Y-124310016D01*
X70481277Y-124528098D01*
X70481284Y-124528107D01*
X70484533Y-124531912D01*
X71048766Y-123967678D01*
X71092316Y-124049822D01*
G37*
G04 #@! TD.AperFunction*
G04 #@! TA.AperFunction,Conductor*
G36*
X79690000Y-107340000D02*
G01*
X79750000Y-108730000D01*
X72500001Y-115870000D01*
X72720000Y-121390000D01*
X73113684Y-122609867D01*
X72551232Y-123172319D01*
X72507684Y-123090178D01*
X72387991Y-122949265D01*
X72240805Y-122837377D01*
X72198596Y-122817849D01*
X72761912Y-122254533D01*
X72758107Y-122251284D01*
X72758098Y-122251277D01*
X72540015Y-122117636D01*
X72540012Y-122117634D01*
X72303702Y-122019752D01*
X72054988Y-121960042D01*
X72054989Y-121960042D01*
X71800000Y-121939975D01*
X71545010Y-121960042D01*
X71296297Y-122019752D01*
X71059987Y-122117634D01*
X71059984Y-122117636D01*
X70841893Y-122251282D01*
X70838086Y-122254532D01*
X71401391Y-122817837D01*
X71282569Y-122889331D01*
X71148342Y-123016477D01*
X71045138Y-123168692D01*
X70484532Y-122608086D01*
X70481282Y-122611893D01*
X70347636Y-122829983D01*
X70329049Y-122874858D01*
X70285208Y-122929261D01*
X70218913Y-122951326D01*
X70151214Y-122934047D01*
X70103604Y-122882909D01*
X70090488Y-122827405D01*
X70090488Y-122117634D01*
X70090492Y-109392602D01*
X70110177Y-109325565D01*
X70162981Y-109279810D01*
X70232139Y-109269866D01*
X70295695Y-109298891D01*
X70329053Y-109345151D01*
X70347636Y-109390016D01*
X70481277Y-109608098D01*
X70481284Y-109608107D01*
X70484533Y-109611912D01*
X71048766Y-109047678D01*
X71092316Y-109129822D01*
X71212009Y-109270735D01*
X71359195Y-109382623D01*
X71401402Y-109402150D01*
X70838087Y-109965465D01*
X70841897Y-109968719D01*
X71059984Y-110102363D01*
X71059987Y-110102365D01*
X71296297Y-110200247D01*
X71545011Y-110259957D01*
X71545010Y-110259957D01*
X71800000Y-110280024D01*
X72054989Y-110259957D01*
X72303702Y-110200247D01*
X72540012Y-110102365D01*
X72540015Y-110102363D01*
X72758095Y-109968724D01*
X72758110Y-109968713D01*
X72761911Y-109965466D01*
X72761911Y-109965464D01*
X72198609Y-109402161D01*
X72317431Y-109330669D01*
X72451658Y-109203523D01*
X72554861Y-109051308D01*
X73115464Y-109611911D01*
X73115466Y-109611911D01*
X73118713Y-109608110D01*
X73118724Y-109608095D01*
X73252363Y-109390015D01*
X73252365Y-109390012D01*
X73350247Y-109153702D01*
X73409957Y-108904988D01*
X73422606Y-108744271D01*
X73447490Y-108678983D01*
X73503721Y-108637512D01*
X73546224Y-108630000D01*
X75133776Y-108630000D01*
X75200815Y-108649685D01*
X75246570Y-108702489D01*
X75257394Y-108744271D01*
X75270042Y-108904988D01*
X75329752Y-109153702D01*
X75427634Y-109390012D01*
X75427636Y-109390015D01*
X75561277Y-109608098D01*
X75561284Y-109608107D01*
X75564533Y-109611912D01*
X76128766Y-109047679D01*
X76172316Y-109129822D01*
X76292009Y-109270735D01*
X76439195Y-109382623D01*
X76481402Y-109402150D01*
X75918087Y-109965465D01*
X75921897Y-109968719D01*
X76139984Y-110102363D01*
X76139987Y-110102365D01*
X76376297Y-110200247D01*
X76625011Y-110259957D01*
X76625010Y-110259957D01*
X76880000Y-110280024D01*
X77134989Y-110259957D01*
X77383702Y-110200247D01*
X77620012Y-110102365D01*
X77620015Y-110102363D01*
X77838095Y-109968724D01*
X77838110Y-109968713D01*
X77841911Y-109965466D01*
X77841911Y-109965464D01*
X77278609Y-109402161D01*
X77397431Y-109330669D01*
X77531658Y-109203523D01*
X77634861Y-109051308D01*
X78195464Y-109611911D01*
X78195466Y-109611911D01*
X78198713Y-109608110D01*
X78198724Y-109608095D01*
X78332363Y-109390015D01*
X78332365Y-109390012D01*
X78430247Y-109153702D01*
X78489957Y-108904989D01*
X78510024Y-108650000D01*
X78489957Y-108395010D01*
X78430247Y-108146297D01*
X78332365Y-107909987D01*
X78332363Y-107909984D01*
X78198719Y-107691897D01*
X78195465Y-107688087D01*
X77631232Y-108252319D01*
X77587684Y-108170178D01*
X77467991Y-108029265D01*
X77320805Y-107917377D01*
X77278597Y-107897849D01*
X77841912Y-107334533D01*
X77835194Y-107328796D01*
X77796997Y-107270292D01*
X77796493Y-107200424D01*
X77827653Y-107151160D01*
X79690000Y-107340000D01*
G37*
G04 #@! TD.AperFunction*
G04 #@! TA.AperFunction,Conductor*
G36*
X87440000Y-109081629D02*
G01*
X87415342Y-109041653D01*
X87415339Y-109041649D01*
X87341821Y-108968131D01*
X87308336Y-108906808D01*
X87313320Y-108837116D01*
X87341821Y-108792769D01*
X87440000Y-108694590D01*
X87440000Y-109081629D01*
G37*
G04 #@! TD.AperFunction*
G04 #@! TA.AperFunction,Conductor*
G36*
X84903334Y-106737870D02*
G01*
X84947681Y-106766371D01*
X85061650Y-106880340D01*
X85208484Y-106970908D01*
X85372247Y-107025174D01*
X85473323Y-107035500D01*
X85813833Y-107035499D01*
X85880872Y-107055183D01*
X85889809Y-107061501D01*
X85891182Y-107062566D01*
X85900074Y-107070159D01*
X85931918Y-107100062D01*
X85949476Y-107109714D01*
X85965735Y-107120395D01*
X85981564Y-107132673D01*
X86021655Y-107150021D01*
X86032126Y-107155151D01*
X86054680Y-107167550D01*
X86070402Y-107176194D01*
X86070404Y-107176195D01*
X86070408Y-107176197D01*
X86089816Y-107181180D01*
X86108219Y-107187481D01*
X86126601Y-107195436D01*
X86126602Y-107195436D01*
X86126604Y-107195437D01*
X86169750Y-107202270D01*
X86181172Y-107204636D01*
X86223481Y-107215500D01*
X86243516Y-107215500D01*
X86262914Y-107217026D01*
X86282694Y-107220159D01*
X86282695Y-107220160D01*
X86282695Y-107220159D01*
X86282696Y-107220160D01*
X86326175Y-107216050D01*
X86337844Y-107215500D01*
X86850548Y-107215500D01*
X86917587Y-107235185D01*
X86963342Y-107287989D01*
X86973286Y-107357147D01*
X86944261Y-107420703D01*
X86938234Y-107427174D01*
X86715170Y-107650239D01*
X86198708Y-108166699D01*
X86186451Y-108176520D01*
X86186634Y-108176741D01*
X86180622Y-108181714D01*
X86134598Y-108230723D01*
X86131891Y-108233516D01*
X86112389Y-108253017D01*
X86112375Y-108253034D01*
X86109907Y-108256215D01*
X86102343Y-108265070D01*
X86072437Y-108296918D01*
X86072436Y-108296920D01*
X86062784Y-108314476D01*
X86052110Y-108330726D01*
X86039829Y-108346561D01*
X86039824Y-108346568D01*
X86022475Y-108386658D01*
X86017338Y-108397144D01*
X85996303Y-108435406D01*
X85991322Y-108454807D01*
X85985021Y-108473210D01*
X85977062Y-108491602D01*
X85977061Y-108491605D01*
X85970228Y-108534743D01*
X85967860Y-108546174D01*
X85957001Y-108588471D01*
X85957000Y-108588482D01*
X85957000Y-108608516D01*
X85955473Y-108627915D01*
X85952340Y-108647694D01*
X85952340Y-108647695D01*
X85956450Y-108691174D01*
X85957000Y-108702843D01*
X85957000Y-108797808D01*
X85937315Y-108864847D01*
X85898099Y-108903345D01*
X85871652Y-108919657D01*
X85871649Y-108919660D01*
X85757681Y-109033629D01*
X85696358Y-109067114D01*
X85626666Y-109062130D01*
X85582319Y-109033629D01*
X85468351Y-108919661D01*
X85468350Y-108919660D01*
X85377129Y-108863395D01*
X85321518Y-108829093D01*
X85321513Y-108829091D01*
X85281524Y-108815840D01*
X85157753Y-108774826D01*
X85157751Y-108774825D01*
X85056684Y-108764500D01*
X85056677Y-108764500D01*
X84993506Y-108764500D01*
X84968545Y-108761962D01*
X84859242Y-108739500D01*
X84859241Y-108739500D01*
X84030000Y-108739500D01*
X84030000Y-108650000D01*
X83220263Y-107110500D01*
X83883221Y-107110500D01*
X83886363Y-107110540D01*
X83973858Y-107112757D01*
X83973858Y-107112756D01*
X83973863Y-107112757D01*
X84031925Y-107102349D01*
X84041254Y-107101041D01*
X84099938Y-107095074D01*
X84128971Y-107085964D01*
X84144200Y-107082226D01*
X84174153Y-107076858D01*
X84174157Y-107076856D01*
X84174159Y-107076856D01*
X84228923Y-107054980D01*
X84237802Y-107051819D01*
X84298644Y-107032730D01*
X84323164Y-107027685D01*
X84347753Y-107025174D01*
X84511516Y-106970908D01*
X84658350Y-106880340D01*
X84772319Y-106766371D01*
X84833642Y-106732886D01*
X84903334Y-106737870D01*
G37*
G04 #@! TD.AperFunction*
G04 #@! TA.AperFunction,Conductor*
G36*
X71092316Y-104049822D02*
G01*
X71212009Y-104190735D01*
X71359195Y-104302623D01*
X71401402Y-104322150D01*
X70838087Y-104885465D01*
X70841897Y-104888719D01*
X71059984Y-105022363D01*
X71059987Y-105022365D01*
X71296297Y-105120247D01*
X71545011Y-105179957D01*
X71545010Y-105179957D01*
X71685728Y-105191031D01*
X71751016Y-105215914D01*
X71792488Y-105272145D01*
X71800000Y-105314649D01*
X71800000Y-106905350D01*
X71780315Y-106972389D01*
X71727511Y-107018144D01*
X71685729Y-107028968D01*
X71545011Y-107040042D01*
X71296297Y-107099752D01*
X71059987Y-107197634D01*
X71059984Y-107197636D01*
X70841893Y-107331282D01*
X70838086Y-107334532D01*
X71401391Y-107897837D01*
X71282569Y-107969331D01*
X71148342Y-108096477D01*
X71045138Y-108248692D01*
X70484532Y-107688086D01*
X70481282Y-107691893D01*
X70347636Y-107909984D01*
X70347633Y-107909989D01*
X70329052Y-107954848D01*
X70285211Y-108009251D01*
X70218916Y-108031315D01*
X70151217Y-108014035D01*
X70103607Y-107962897D01*
X70090492Y-107907397D01*
X70090493Y-104312604D01*
X70110178Y-104245569D01*
X70162982Y-104199814D01*
X70232140Y-104189870D01*
X70295696Y-104218895D01*
X70329054Y-104265154D01*
X70347637Y-104310018D01*
X70481277Y-104528098D01*
X70481284Y-104528107D01*
X70484533Y-104531912D01*
X71048766Y-103967678D01*
X71092316Y-104049822D01*
G37*
G04 #@! TD.AperFunction*
G04 #@! TA.AperFunction,Conductor*
G36*
X85703334Y-103087870D02*
G01*
X85747681Y-103116371D01*
X85861650Y-103230340D01*
X85943824Y-103281025D01*
X85990548Y-103332973D01*
X85997803Y-103351968D01*
X86002908Y-103369540D01*
X86003882Y-103372890D01*
X86009483Y-103382362D01*
X86014080Y-103390134D01*
X86022636Y-103407600D01*
X86025700Y-103415337D01*
X86030014Y-103426232D01*
X86055681Y-103461560D01*
X86062093Y-103471321D01*
X86084328Y-103508917D01*
X86084333Y-103508924D01*
X86098490Y-103523080D01*
X86111128Y-103537876D01*
X86122905Y-103554086D01*
X86122906Y-103554087D01*
X86156557Y-103581925D01*
X86165197Y-103589787D01*
X87440000Y-104864590D01*
X87440000Y-105964500D01*
X86884499Y-105964500D01*
X86817460Y-105944815D01*
X86771705Y-105892011D01*
X86760499Y-105840500D01*
X86760499Y-105773330D01*
X86760498Y-105773313D01*
X86750174Y-105672247D01*
X86713947Y-105562923D01*
X86695908Y-105508484D01*
X86605340Y-105361650D01*
X86483350Y-105239660D01*
X86336516Y-105149092D01*
X86172753Y-105094826D01*
X86172751Y-105094825D01*
X86071678Y-105084500D01*
X85473330Y-105084500D01*
X85473312Y-105084501D01*
X85372247Y-105094825D01*
X85208484Y-105149092D01*
X85208481Y-105149093D01*
X85061648Y-105239661D01*
X84947681Y-105353629D01*
X84886358Y-105387114D01*
X84816666Y-105382130D01*
X84772319Y-105353629D01*
X84658351Y-105239661D01*
X84658350Y-105239660D01*
X84511516Y-105149092D01*
X84347753Y-105094826D01*
X84347751Y-105094825D01*
X84246684Y-105084500D01*
X84246677Y-105084500D01*
X84184000Y-105084500D01*
X84155969Y-105081290D01*
X84074554Y-105062396D01*
X83871139Y-105057243D01*
X83871134Y-105057243D01*
X83729908Y-105082555D01*
X83708035Y-105084500D01*
X83648332Y-105084500D01*
X83648312Y-105084501D01*
X83547247Y-105094825D01*
X83528492Y-105101040D01*
X83521956Y-105103206D01*
X83482954Y-105109500D01*
X83220232Y-105109500D01*
X84009768Y-103410500D01*
X84798243Y-103410500D01*
X84902608Y-103399887D01*
X84949938Y-103395074D01*
X84962330Y-103391186D01*
X84999452Y-103385499D01*
X85046670Y-103385499D01*
X85046676Y-103385499D01*
X85147753Y-103375174D01*
X85311516Y-103320908D01*
X85458350Y-103230340D01*
X85572319Y-103116371D01*
X85633642Y-103082886D01*
X85703334Y-103087870D01*
G37*
G04 #@! TD.AperFunction*
G04 #@! TA.AperFunction,Conductor*
G36*
X71092316Y-89129822D02*
G01*
X71212009Y-89270735D01*
X71359195Y-89382623D01*
X71401402Y-89402150D01*
X70838087Y-89965465D01*
X70841897Y-89968719D01*
X71059984Y-90102363D01*
X71059987Y-90102365D01*
X71296297Y-90200247D01*
X71545011Y-90259957D01*
X71545010Y-90259957D01*
X71800000Y-90280024D01*
X72054989Y-90259957D01*
X72303702Y-90200247D01*
X72540012Y-90102365D01*
X72540015Y-90102363D01*
X72758095Y-89968724D01*
X72758110Y-89968713D01*
X72761911Y-89965466D01*
X72761911Y-89965464D01*
X72198609Y-89402161D01*
X72317431Y-89330669D01*
X72451658Y-89203523D01*
X72554861Y-89051308D01*
X73115464Y-89611911D01*
X73115465Y-89611911D01*
X73121216Y-89605180D01*
X73174584Y-89570346D01*
X72690000Y-90900000D01*
X72600000Y-93600000D01*
X72850000Y-96170000D01*
X77660000Y-101060000D01*
X79630000Y-103250000D01*
X79629999Y-104730000D01*
X77799350Y-105012143D01*
X77792982Y-104967853D01*
X77822007Y-104904297D01*
X77835180Y-104891217D01*
X77841911Y-104885466D01*
X77841911Y-104885464D01*
X77278609Y-104322162D01*
X77397431Y-104250669D01*
X77531658Y-104123523D01*
X77634861Y-103971308D01*
X78195464Y-104531911D01*
X78195466Y-104531911D01*
X78198713Y-104528110D01*
X78198724Y-104528095D01*
X78332363Y-104310015D01*
X78332365Y-104310012D01*
X78430247Y-104073702D01*
X78489957Y-103824989D01*
X78510024Y-103570000D01*
X78489957Y-103315010D01*
X78430247Y-103066297D01*
X78332365Y-102829987D01*
X78332363Y-102829984D01*
X78198719Y-102611897D01*
X78195465Y-102608087D01*
X77631232Y-103172319D01*
X77587684Y-103090178D01*
X77467991Y-102949265D01*
X77320805Y-102837377D01*
X77278596Y-102817849D01*
X77841912Y-102254533D01*
X77838107Y-102251284D01*
X77838098Y-102251277D01*
X77620015Y-102117636D01*
X77620012Y-102117634D01*
X77383702Y-102019752D01*
X77134988Y-101960042D01*
X77134989Y-101960042D01*
X76880000Y-101939975D01*
X76625010Y-101960042D01*
X76376297Y-102019752D01*
X76139987Y-102117634D01*
X76139984Y-102117636D01*
X75921893Y-102251282D01*
X75918086Y-102254532D01*
X76481391Y-102817837D01*
X76362569Y-102889331D01*
X76228342Y-103016477D01*
X76125138Y-103168691D01*
X75564532Y-102608086D01*
X75561282Y-102611893D01*
X75427636Y-102829984D01*
X75427634Y-102829987D01*
X75329752Y-103066297D01*
X75270042Y-103315011D01*
X75258968Y-103455729D01*
X75234084Y-103521017D01*
X75177853Y-103562488D01*
X75135350Y-103570000D01*
X73544650Y-103570000D01*
X73477611Y-103550315D01*
X73431856Y-103497511D01*
X73421032Y-103455729D01*
X73409957Y-103315011D01*
X73350247Y-103066297D01*
X73252365Y-102829987D01*
X73252363Y-102829984D01*
X73118719Y-102611897D01*
X73115465Y-102608087D01*
X72551232Y-103172319D01*
X72507684Y-103090178D01*
X72387991Y-102949265D01*
X72240805Y-102837377D01*
X72198596Y-102817849D01*
X72761912Y-102254533D01*
X72758107Y-102251284D01*
X72758098Y-102251277D01*
X72540015Y-102117636D01*
X72540012Y-102117634D01*
X72303702Y-102019752D01*
X72054988Y-101960042D01*
X72054989Y-101960042D01*
X71800000Y-101939975D01*
X71545010Y-101960042D01*
X71296297Y-102019752D01*
X71059987Y-102117634D01*
X71059984Y-102117636D01*
X70841893Y-102251282D01*
X70838086Y-102254532D01*
X71401391Y-102817837D01*
X71282569Y-102889331D01*
X71148342Y-103016477D01*
X71045138Y-103168692D01*
X70484532Y-102608086D01*
X70481282Y-102611893D01*
X70347637Y-102829981D01*
X70329055Y-102874844D01*
X70285213Y-102929247D01*
X70218919Y-102951311D01*
X70151220Y-102934031D01*
X70103610Y-102882894D01*
X70090494Y-102827390D01*
X70090494Y-102486769D01*
X70090498Y-89392617D01*
X70110183Y-89325580D01*
X70162987Y-89279825D01*
X70232145Y-89269881D01*
X70295701Y-89298906D01*
X70329059Y-89345166D01*
X70347636Y-89390016D01*
X70481277Y-89608098D01*
X70481284Y-89608107D01*
X70484533Y-89611912D01*
X71048766Y-89047678D01*
X71092316Y-89129822D01*
G37*
G04 #@! TD.AperFunction*
G04 #@! TA.AperFunction,Conductor*
G36*
X87440000Y-77770000D02*
G01*
X87440000Y-80037037D01*
X87358689Y-79877456D01*
X87147468Y-79552206D01*
X86938904Y-79294649D01*
X86938903Y-79294648D01*
X85447732Y-80785818D01*
X85284870Y-80595130D01*
X85094180Y-80432266D01*
X86585350Y-78941096D01*
X86585350Y-78941095D01*
X86327793Y-78732531D01*
X86002543Y-78521310D01*
X85656994Y-78345244D01*
X85294936Y-78206262D01*
X84920330Y-78105887D01*
X84920323Y-78105886D01*
X84537287Y-78045219D01*
X84150001Y-78024922D01*
X84149999Y-78024922D01*
X83762712Y-78045219D01*
X83379676Y-78105886D01*
X83379669Y-78105887D01*
X83005063Y-78206262D01*
X82643005Y-78345244D01*
X82297456Y-78521310D01*
X81972206Y-78732531D01*
X81714648Y-78941095D01*
X81714648Y-78941096D01*
X83205819Y-80432266D01*
X83015130Y-80595130D01*
X82852266Y-80785818D01*
X81361096Y-79294648D01*
X81361095Y-79294648D01*
X81152531Y-79552206D01*
X80941310Y-79877456D01*
X80765244Y-80223005D01*
X80626262Y-80585063D01*
X80525887Y-80959669D01*
X80525886Y-80959676D01*
X80465219Y-81342712D01*
X80444922Y-81729999D01*
X80444922Y-81730000D01*
X80465219Y-82117287D01*
X80525886Y-82500323D01*
X80525887Y-82500330D01*
X80626262Y-82874936D01*
X80765244Y-83236994D01*
X80941310Y-83582543D01*
X81152531Y-83907793D01*
X81361095Y-84165350D01*
X81361096Y-84165350D01*
X82852266Y-82674180D01*
X83015130Y-82864870D01*
X83205819Y-83027733D01*
X81714648Y-84518903D01*
X81714649Y-84518904D01*
X81972206Y-84727468D01*
X82297456Y-84938689D01*
X82643005Y-85114755D01*
X83005063Y-85253737D01*
X83379669Y-85354112D01*
X83379676Y-85354113D01*
X83762712Y-85414780D01*
X84149999Y-85435078D01*
X84150001Y-85435078D01*
X84537287Y-85414780D01*
X84920323Y-85354113D01*
X84920330Y-85354112D01*
X85294936Y-85253737D01*
X85656994Y-85114755D01*
X86002543Y-84938689D01*
X86327783Y-84727476D01*
X86327785Y-84727475D01*
X86585349Y-84518902D01*
X85094180Y-83027733D01*
X85284870Y-82864870D01*
X85447733Y-82674180D01*
X86938902Y-84165349D01*
X87147475Y-83907785D01*
X87147476Y-83907783D01*
X87358689Y-83582543D01*
X87440000Y-83422961D01*
X87440000Y-101767843D01*
X87405340Y-101711650D01*
X87283350Y-101589660D01*
X87136516Y-101499092D01*
X86972753Y-101444826D01*
X86972751Y-101444825D01*
X86871678Y-101434500D01*
X86273330Y-101434500D01*
X86273312Y-101434501D01*
X86172247Y-101444825D01*
X86008484Y-101499092D01*
X86008481Y-101499093D01*
X85861648Y-101589661D01*
X85747681Y-101703629D01*
X85686358Y-101737114D01*
X85616666Y-101732130D01*
X85572319Y-101703629D01*
X85458351Y-101589661D01*
X85458350Y-101589660D01*
X85311516Y-101499092D01*
X85147753Y-101444826D01*
X85147751Y-101444825D01*
X85046684Y-101434500D01*
X85046677Y-101434500D01*
X84983506Y-101434500D01*
X84958545Y-101431962D01*
X84849242Y-101409500D01*
X84849241Y-101409500D01*
X84010000Y-101409500D01*
X84010000Y-101370000D01*
X81990000Y-100830000D01*
X79960000Y-98760000D01*
X78250000Y-97480000D01*
X76640000Y-95800000D01*
X76110000Y-93610000D01*
X76090000Y-90970000D01*
X75570780Y-89605663D01*
X76128766Y-89047679D01*
X76172316Y-89129822D01*
X76292009Y-89270735D01*
X76439195Y-89382623D01*
X76481402Y-89402150D01*
X75918087Y-89965465D01*
X75921897Y-89968719D01*
X76139984Y-90102363D01*
X76139987Y-90102365D01*
X76376297Y-90200247D01*
X76625011Y-90259957D01*
X76625010Y-90259957D01*
X76880000Y-90280024D01*
X77134989Y-90259957D01*
X77383702Y-90200247D01*
X77620012Y-90102365D01*
X77620015Y-90102363D01*
X77838095Y-89968724D01*
X77838110Y-89968713D01*
X77841911Y-89965466D01*
X77841911Y-89965464D01*
X77278609Y-89402161D01*
X77397431Y-89330669D01*
X77531658Y-89203523D01*
X77634861Y-89051308D01*
X78195464Y-89611911D01*
X78195466Y-89611911D01*
X78198713Y-89608110D01*
X78198724Y-89608095D01*
X78332363Y-89390015D01*
X78332365Y-89390012D01*
X78430247Y-89153702D01*
X78489957Y-88904989D01*
X78510024Y-88650000D01*
X78489957Y-88395010D01*
X78430247Y-88146297D01*
X78332365Y-87909987D01*
X78332363Y-87909984D01*
X78198719Y-87691897D01*
X78195465Y-87688087D01*
X77631232Y-88252319D01*
X77587684Y-88170178D01*
X77467991Y-88029265D01*
X77320805Y-87917377D01*
X77278597Y-87897849D01*
X77841912Y-87334533D01*
X77838107Y-87331284D01*
X77838098Y-87331277D01*
X77620015Y-87197636D01*
X77620012Y-87197634D01*
X77383702Y-87099752D01*
X77134988Y-87040042D01*
X77134989Y-87040042D01*
X76954271Y-87025820D01*
X76888983Y-87000936D01*
X76847512Y-86944705D01*
X76840000Y-86902202D01*
X76840000Y-85317797D01*
X76859685Y-85250758D01*
X76912489Y-85205003D01*
X76954272Y-85194179D01*
X77134988Y-85179957D01*
X77383702Y-85120247D01*
X77620012Y-85022365D01*
X77620015Y-85022363D01*
X77838095Y-84888724D01*
X77838110Y-84888713D01*
X77841911Y-84885466D01*
X77841911Y-84885464D01*
X77278609Y-84322162D01*
X77397431Y-84250669D01*
X77531658Y-84123523D01*
X77634861Y-83971308D01*
X78195464Y-84531911D01*
X78195466Y-84531911D01*
X78198713Y-84528110D01*
X78198724Y-84528095D01*
X78332363Y-84310015D01*
X78332365Y-84310012D01*
X78430247Y-84073702D01*
X78489957Y-83824989D01*
X78510024Y-83570000D01*
X78489957Y-83315010D01*
X78430247Y-83066297D01*
X78332365Y-82829987D01*
X78332363Y-82829984D01*
X78198719Y-82611897D01*
X78195465Y-82608087D01*
X77631232Y-83172319D01*
X77587684Y-83090178D01*
X77467991Y-82949265D01*
X77320805Y-82837377D01*
X77278596Y-82817849D01*
X77841912Y-82254533D01*
X77838107Y-82251284D01*
X77838098Y-82251277D01*
X77620015Y-82117636D01*
X77620012Y-82117634D01*
X77383702Y-82019752D01*
X77134988Y-81960042D01*
X77134989Y-81960042D01*
X76880000Y-81939975D01*
X76625010Y-81960042D01*
X76376297Y-82019752D01*
X76139987Y-82117634D01*
X76139984Y-82117636D01*
X75921893Y-82251282D01*
X75918086Y-82254532D01*
X76481391Y-82817837D01*
X76362569Y-82889331D01*
X76228342Y-83016477D01*
X76125138Y-83168691D01*
X75564532Y-82608086D01*
X75561282Y-82611893D01*
X75427636Y-82829984D01*
X75427634Y-82829987D01*
X75329752Y-83066297D01*
X75270042Y-83315011D01*
X75257394Y-83475729D01*
X75232510Y-83541017D01*
X75176279Y-83582488D01*
X75133776Y-83590000D01*
X73546224Y-83590000D01*
X73479185Y-83570315D01*
X73433430Y-83517511D01*
X73422606Y-83475729D01*
X73409957Y-83315011D01*
X73350247Y-83066297D01*
X73252365Y-82829987D01*
X73252363Y-82829984D01*
X73118719Y-82611897D01*
X73115465Y-82608087D01*
X72551232Y-83172319D01*
X72507684Y-83090178D01*
X72387991Y-82949265D01*
X72240805Y-82837377D01*
X72198596Y-82817849D01*
X72761912Y-82254533D01*
X72758107Y-82251284D01*
X72758098Y-82251277D01*
X72540015Y-82117636D01*
X72540012Y-82117634D01*
X72303702Y-82019752D01*
X72054988Y-81960042D01*
X72054989Y-81960042D01*
X71800000Y-81939975D01*
X71545010Y-81960042D01*
X71296297Y-82019752D01*
X71059987Y-82117634D01*
X71059984Y-82117636D01*
X70841893Y-82251282D01*
X70838086Y-82254532D01*
X71401391Y-82817837D01*
X71282569Y-82889331D01*
X71148342Y-83016477D01*
X71045138Y-83168692D01*
X70484532Y-82608086D01*
X70481282Y-82611893D01*
X70347637Y-82829981D01*
X70329061Y-82874829D01*
X70285219Y-82929232D01*
X70218924Y-82951296D01*
X70151225Y-82934016D01*
X70103615Y-82882878D01*
X70090500Y-82827377D01*
X70090500Y-81203007D01*
X70090647Y-81197007D01*
X70097987Y-81047603D01*
X70098003Y-81047306D01*
X70107747Y-80861385D01*
X70108914Y-80849731D01*
X70133258Y-80685615D01*
X70133431Y-80684495D01*
X70160246Y-80515191D01*
X70162428Y-80504493D01*
X70203466Y-80340663D01*
X70203904Y-80338972D01*
X70247544Y-80176105D01*
X70250546Y-80166491D01*
X70307872Y-80006276D01*
X70308728Y-80003968D01*
X70368741Y-79847631D01*
X70372375Y-79839133D01*
X70445338Y-79684866D01*
X70446857Y-79681773D01*
X70522576Y-79533166D01*
X70526674Y-79525766D01*
X70614550Y-79379154D01*
X70616845Y-79375475D01*
X70707468Y-79235929D01*
X70711819Y-79229663D01*
X70813777Y-79092189D01*
X70816958Y-79088086D01*
X70921527Y-78958954D01*
X70925955Y-78953786D01*
X71040968Y-78826889D01*
X71045086Y-78822564D01*
X71162564Y-78705086D01*
X71166890Y-78700967D01*
X71293781Y-78585959D01*
X71298958Y-78581524D01*
X71428087Y-78476958D01*
X71432193Y-78473774D01*
X71569646Y-78371831D01*
X71575936Y-78367462D01*
X71715493Y-78276833D01*
X71719116Y-78274572D01*
X71865795Y-78186656D01*
X71873176Y-78182570D01*
X72021749Y-78106869D01*
X72024828Y-78105356D01*
X72179150Y-78032367D01*
X72187645Y-78028735D01*
X72343896Y-77968756D01*
X72346372Y-77967838D01*
X72506478Y-77910551D01*
X72516085Y-77907550D01*
X72679080Y-77863875D01*
X72680639Y-77863471D01*
X72844505Y-77822425D01*
X72855179Y-77820248D01*
X73024597Y-77793415D01*
X73025582Y-77793263D01*
X73189730Y-77768914D01*
X73201390Y-77767747D01*
X73310406Y-77762032D01*
X73316926Y-77761863D01*
X87440000Y-77770000D01*
G37*
G04 #@! TD.AperFunction*
G04 #@! TA.AperFunction,Conductor*
G36*
X71092316Y-84049822D02*
G01*
X71212009Y-84190735D01*
X71359195Y-84302623D01*
X71401402Y-84322150D01*
X70838087Y-84885465D01*
X70841897Y-84888719D01*
X71059984Y-85022363D01*
X71059987Y-85022365D01*
X71296297Y-85120247D01*
X71545011Y-85179957D01*
X71545010Y-85179957D01*
X71685728Y-85191031D01*
X71751016Y-85215914D01*
X71792488Y-85272145D01*
X71800000Y-85314649D01*
X71800000Y-86905350D01*
X71780315Y-86972389D01*
X71727511Y-87018144D01*
X71685729Y-87028968D01*
X71545011Y-87040042D01*
X71296297Y-87099752D01*
X71059987Y-87197634D01*
X71059984Y-87197636D01*
X70841893Y-87331282D01*
X70838086Y-87334532D01*
X71401391Y-87897837D01*
X71282569Y-87969331D01*
X71148342Y-88096477D01*
X71045138Y-88248692D01*
X70484532Y-87688086D01*
X70481282Y-87691893D01*
X70347636Y-87909984D01*
X70347635Y-87909985D01*
X70329058Y-87954834D01*
X70285216Y-88009236D01*
X70218922Y-88031300D01*
X70151223Y-88014020D01*
X70103613Y-87962882D01*
X70090498Y-87907383D01*
X70090500Y-84312622D01*
X70110185Y-84245583D01*
X70162989Y-84199829D01*
X70232147Y-84189885D01*
X70295703Y-84218910D01*
X70329061Y-84265171D01*
X70347634Y-84310012D01*
X70347636Y-84310015D01*
X70481277Y-84528098D01*
X70481284Y-84528107D01*
X70484533Y-84531912D01*
X71048766Y-83967678D01*
X71092316Y-84049822D01*
G37*
G04 #@! TD.AperFunction*
M02*
