%TF.GenerationSoftware,KiCad,Pcbnew,7.0.10*%
%TF.CreationDate,2024-07-16T21:42:18-04:00*%
%TF.ProjectId,button_transmitter,62757474-6f6e-45f7-9472-616e736d6974,1.0*%
%TF.SameCoordinates,PX42d7d10PY7f6ba10*%
%TF.FileFunction,Drillmap*%
%TF.FilePolarity,Positive*%
%FSLAX45Y45*%
G04 Gerber Fmt 4.5, Leading zero omitted, Abs format (unit mm)*
G04 Created by KiCad (PCBNEW 7.0.10) date 2024-07-16 21:42:18*
%MOMM*%
%LPD*%
G01*
G04 APERTURE LIST*
%ADD10C,0.100000*%
%ADD11C,0.200000*%
%ADD12C,0.150000*%
%ADD13C,0.152000*%
%ADD14C,0.170000*%
%ADD15C,0.320000*%
G04 APERTURE END LIST*
D10*
X5957000Y342000D02*
X5957000Y5241000D01*
X5957000Y5241000D02*
G75*
G03*
X5612000Y5586000I-345000J0D01*
G01*
X0Y5241000D02*
X-1Y342000D01*
X344998Y-2999D02*
X5612000Y-3000D01*
X5612000Y-3000D02*
G75*
G03*
X5957000Y342000I0J345000D01*
G01*
X345000Y5586000D02*
G75*
G03*
X0Y5241000I0J-345000D01*
G01*
X5612000Y5586000D02*
X345000Y5586000D01*
X1Y342000D02*
G75*
G03*
X344998Y-2999I345000J0D01*
G01*
D11*
D10*
X4018000Y4107000D02*
X4048000Y4077000D01*
X4048000Y4107000D02*
X4018000Y4077000D01*
X4272000Y4234000D02*
X4302000Y4204000D01*
X4302000Y4234000D02*
X4272000Y4204000D01*
X278000Y4267000D02*
G75*
G03*
X238000Y4267000I-20000J0D01*
G01*
X238000Y4267000D02*
G75*
G03*
X278000Y4267000I20000J0D01*
G01*
X278000Y4001500D02*
G75*
G03*
X238000Y4001500I-20000J0D01*
G01*
X238000Y4001500D02*
G75*
G03*
X278000Y4001500I20000J0D01*
G01*
X278000Y3754000D02*
G75*
G03*
X238000Y3754000I-20000J0D01*
G01*
X238000Y3754000D02*
G75*
G03*
X278000Y3754000I20000J0D01*
G01*
X294000Y1230000D02*
G75*
G03*
X254000Y1230000I-20000J0D01*
G01*
X254000Y1230000D02*
G75*
G03*
X294000Y1230000I20000J0D01*
G01*
X295000Y1740000D02*
G75*
G03*
X255000Y1740000I-20000J0D01*
G01*
X255000Y1740000D02*
G75*
G03*
X295000Y1740000I20000J0D01*
G01*
X295000Y1485000D02*
G75*
G03*
X255000Y1485000I-20000J0D01*
G01*
X255000Y1485000D02*
G75*
G03*
X295000Y1485000I20000J0D01*
G01*
X449667Y3594333D02*
G75*
G03*
X409667Y3594333I-20000J0D01*
G01*
X409667Y3594333D02*
G75*
G03*
X449667Y3594333I20000J0D01*
G01*
X463250Y1913000D02*
G75*
G03*
X423250Y1913000I-20000J0D01*
G01*
X423250Y1913000D02*
G75*
G03*
X463250Y1913000I20000J0D01*
G01*
X594000Y1230000D02*
G75*
G03*
X554000Y1230000I-20000J0D01*
G01*
X554000Y1230000D02*
G75*
G03*
X594000Y1230000I20000J0D01*
G01*
X595000Y1485000D02*
G75*
G03*
X555000Y1485000I-20000J0D01*
G01*
X555000Y1485000D02*
G75*
G03*
X595000Y1485000I20000J0D01*
G01*
X613000Y4267000D02*
G75*
G03*
X573000Y4267000I-20000J0D01*
G01*
X573000Y4267000D02*
G75*
G03*
X613000Y4267000I20000J0D01*
G01*
X613000Y4001500D02*
G75*
G03*
X573000Y4001500I-20000J0D01*
G01*
X573000Y4001500D02*
G75*
G03*
X613000Y4001500I20000J0D01*
G01*
X621333Y3434667D02*
G75*
G03*
X581333Y3434667I-20000J0D01*
G01*
X581333Y3434667D02*
G75*
G03*
X621333Y3434667I20000J0D01*
G01*
X631500Y2086000D02*
G75*
G03*
X591500Y2086000I-20000J0D01*
G01*
X591500Y2086000D02*
G75*
G03*
X631500Y2086000I20000J0D01*
G01*
X661000Y3781000D02*
G75*
G03*
X621000Y3781000I-20000J0D01*
G01*
X621000Y3781000D02*
G75*
G03*
X661000Y3781000I20000J0D01*
G01*
X670000Y1703000D02*
G75*
G03*
X630000Y1703000I-20000J0D01*
G01*
X630000Y1703000D02*
G75*
G03*
X670000Y1703000I20000J0D01*
G01*
X793000Y3275000D02*
G75*
G03*
X753000Y3275000I-20000J0D01*
G01*
X753000Y3275000D02*
G75*
G03*
X793000Y3275000I20000J0D01*
G01*
X799750Y2259000D02*
G75*
G03*
X759750Y2259000I-20000J0D01*
G01*
X759750Y2259000D02*
G75*
G03*
X799750Y2259000I20000J0D01*
G01*
X833667Y3621333D02*
G75*
G03*
X793667Y3621333I-20000J0D01*
G01*
X793667Y3621333D02*
G75*
G03*
X833667Y3621333I20000J0D01*
G01*
X844571Y1878838D02*
G75*
G03*
X804571Y1878838I-20000J0D01*
G01*
X804571Y1878838D02*
G75*
G03*
X844571Y1878838I20000J0D01*
G01*
X964667Y3115333D02*
G75*
G03*
X924667Y3115333I-20000J0D01*
G01*
X924667Y3115333D02*
G75*
G03*
X964667Y3115333I20000J0D01*
G01*
X968000Y2432000D02*
G75*
G03*
X928000Y2432000I-20000J0D01*
G01*
X928000Y2432000D02*
G75*
G03*
X968000Y2432000I20000J0D01*
G01*
X1005333Y3461667D02*
G75*
G03*
X965333Y3461667I-20000J0D01*
G01*
X965333Y3461667D02*
G75*
G03*
X1005333Y3461667I20000J0D01*
G01*
X1019141Y2054676D02*
G75*
G03*
X979141Y2054676I-20000J0D01*
G01*
X979141Y2054676D02*
G75*
G03*
X1019141Y2054676I20000J0D01*
G01*
X1136333Y2955667D02*
G75*
G03*
X1096333Y2955667I-20000J0D01*
G01*
X1096333Y2955667D02*
G75*
G03*
X1136333Y2955667I20000J0D01*
G01*
X1193712Y2230515D02*
G75*
G03*
X1153712Y2230515I-20000J0D01*
G01*
X1153712Y2230515D02*
G75*
G03*
X1193712Y2230515I20000J0D01*
G01*
X1203000Y3284000D02*
G75*
G03*
X1163000Y3284000I-20000J0D01*
G01*
X1163000Y3284000D02*
G75*
G03*
X1203000Y3284000I20000J0D01*
G01*
X1213000Y2519000D02*
G75*
G03*
X1173000Y2519000I-20000J0D01*
G01*
X1173000Y2519000D02*
G75*
G03*
X1213000Y2519000I20000J0D01*
G01*
X1428000Y2239000D02*
G75*
G03*
X1388000Y2239000I-20000J0D01*
G01*
X1388000Y2239000D02*
G75*
G03*
X1428000Y2239000I20000J0D01*
G01*
X1461000Y3283000D02*
G75*
G03*
X1421000Y3283000I-20000J0D01*
G01*
X1421000Y3283000D02*
G75*
G03*
X1461000Y3283000I20000J0D01*
G01*
X1578000Y2937500D02*
G75*
G03*
X1538000Y2937500I-20000J0D01*
G01*
X1538000Y2937500D02*
G75*
G03*
X1578000Y2937500I20000J0D01*
G01*
X1578000Y2570500D02*
G75*
G03*
X1538000Y2570500I-20000J0D01*
G01*
X1538000Y2570500D02*
G75*
G03*
X1578000Y2570500I20000J0D01*
G01*
X1662000Y2180000D02*
G75*
G03*
X1622000Y2180000I-20000J0D01*
G01*
X1622000Y2180000D02*
G75*
G03*
X1662000Y2180000I20000J0D01*
G01*
X1719000Y3284000D02*
G75*
G03*
X1679000Y3284000I-20000J0D01*
G01*
X1679000Y3284000D02*
G75*
G03*
X1719000Y3284000I20000J0D01*
G01*
X1740000Y2816000D02*
G75*
G03*
X1700000Y2816000I-20000J0D01*
G01*
X1700000Y2816000D02*
G75*
G03*
X1740000Y2816000I20000J0D01*
G01*
X1816000Y2029000D02*
G75*
G03*
X1776000Y2029000I-20000J0D01*
G01*
X1776000Y2029000D02*
G75*
G03*
X1816000Y2029000I20000J0D01*
G01*
X1851000Y2402000D02*
G75*
G03*
X1811000Y2402000I-20000J0D01*
G01*
X1811000Y2402000D02*
G75*
G03*
X1851000Y2402000I20000J0D01*
G01*
X1891000Y3138500D02*
G75*
G03*
X1851000Y3138500I-20000J0D01*
G01*
X1851000Y3138500D02*
G75*
G03*
X1891000Y3138500I20000J0D01*
G01*
X2051500Y5028000D02*
G75*
G03*
X2011500Y5028000I-20000J0D01*
G01*
X2011500Y5028000D02*
G75*
G03*
X2051500Y5028000I20000J0D01*
G01*
X2053000Y4790000D02*
G75*
G03*
X2013000Y4790000I-20000J0D01*
G01*
X2013000Y4790000D02*
G75*
G03*
X2053000Y4790000I20000J0D01*
G01*
X2063000Y2993000D02*
G75*
G03*
X2023000Y2993000I-20000J0D01*
G01*
X2023000Y2993000D02*
G75*
G03*
X2063000Y2993000I20000J0D01*
G01*
X2099000Y3280000D02*
G75*
G03*
X2059000Y3280000I-20000J0D01*
G01*
X2059000Y3280000D02*
G75*
G03*
X2099000Y3280000I20000J0D01*
G01*
X2191000Y2515333D02*
G75*
G03*
X2151000Y2515333I-20000J0D01*
G01*
X2151000Y2515333D02*
G75*
G03*
X2191000Y2515333I20000J0D01*
G01*
X2192000Y2277667D02*
G75*
G03*
X2152000Y2277667I-20000J0D01*
G01*
X2152000Y2277667D02*
G75*
G03*
X2192000Y2277667I20000J0D01*
G01*
X2194000Y2040000D02*
G75*
G03*
X2154000Y2040000I-20000J0D01*
G01*
X2154000Y2040000D02*
G75*
G03*
X2194000Y2040000I20000J0D01*
G01*
X2268000Y4349000D02*
G75*
G03*
X2228000Y4349000I-20000J0D01*
G01*
X2228000Y4349000D02*
G75*
G03*
X2268000Y4349000I20000J0D01*
G01*
X2278000Y3949000D02*
G75*
G03*
X2238000Y3949000I-20000J0D01*
G01*
X2238000Y3949000D02*
G75*
G03*
X2278000Y3949000I20000J0D01*
G01*
X2403000Y3630000D02*
G75*
G03*
X2363000Y3630000I-20000J0D01*
G01*
X2363000Y3630000D02*
G75*
G03*
X2403000Y3630000I20000J0D01*
G01*
X2504250Y1727000D02*
G75*
G03*
X2464250Y1727000I-20000J0D01*
G01*
X2464250Y1727000D02*
G75*
G03*
X2504250Y1727000I20000J0D01*
G01*
X2581000Y2872000D02*
G75*
G03*
X2541000Y2872000I-20000J0D01*
G01*
X2541000Y2872000D02*
G75*
G03*
X2581000Y2872000I20000J0D01*
G01*
X2581000Y2584000D02*
G75*
G03*
X2541000Y2584000I-20000J0D01*
G01*
X2541000Y2584000D02*
G75*
G03*
X2581000Y2584000I20000J0D01*
G01*
X2676000Y4798000D02*
G75*
G03*
X2636000Y4798000I-20000J0D01*
G01*
X2636000Y4798000D02*
G75*
G03*
X2676000Y4798000I20000J0D01*
G01*
X2696000Y3038000D02*
G75*
G03*
X2656000Y3038000I-20000J0D01*
G01*
X2656000Y3038000D02*
G75*
G03*
X2696000Y3038000I20000J0D01*
G01*
X2723000Y3339000D02*
G75*
G03*
X2683000Y3339000I-20000J0D01*
G01*
X2683000Y3339000D02*
G75*
G03*
X2723000Y3339000I20000J0D01*
G01*
X2767000Y2181000D02*
G75*
G03*
X2727000Y2181000I-20000J0D01*
G01*
X2727000Y2181000D02*
G75*
G03*
X2767000Y2181000I20000J0D01*
G01*
X2772000Y2378000D02*
G75*
G03*
X2732000Y2378000I-20000J0D01*
G01*
X2732000Y2378000D02*
G75*
G03*
X2772000Y2378000I20000J0D01*
G01*
X2794500Y2587000D02*
G75*
G03*
X2754500Y2587000I-20000J0D01*
G01*
X2754500Y2587000D02*
G75*
G03*
X2794500Y2587000I20000J0D01*
G01*
X2836000Y4015000D02*
G75*
G03*
X2796000Y4015000I-20000J0D01*
G01*
X2796000Y4015000D02*
G75*
G03*
X2836000Y4015000I20000J0D01*
G01*
X2836000Y3800000D02*
G75*
G03*
X2796000Y3800000I-20000J0D01*
G01*
X2796000Y3800000D02*
G75*
G03*
X2836000Y3800000I20000J0D01*
G01*
X2838000Y4941000D02*
G75*
G03*
X2798000Y4941000I-20000J0D01*
G01*
X2798000Y4941000D02*
G75*
G03*
X2838000Y4941000I20000J0D01*
G01*
X2838000Y4650000D02*
G75*
G03*
X2798000Y4650000I-20000J0D01*
G01*
X2798000Y4650000D02*
G75*
G03*
X2838000Y4650000I20000J0D01*
G01*
X2838000Y3567000D02*
G75*
G03*
X2798000Y3567000I-20000J0D01*
G01*
X2798000Y3567000D02*
G75*
G03*
X2838000Y3567000I20000J0D01*
G01*
X2939000Y3038000D02*
G75*
G03*
X2899000Y3038000I-20000J0D01*
G01*
X2899000Y3038000D02*
G75*
G03*
X2939000Y3038000I20000J0D01*
G01*
X2973500Y3339000D02*
G75*
G03*
X2933500Y3339000I-20000J0D01*
G01*
X2933500Y3339000D02*
G75*
G03*
X2973500Y3339000I20000J0D01*
G01*
X2979500Y2816000D02*
G75*
G03*
X2939500Y2816000I-20000J0D01*
G01*
X2939500Y2816000D02*
G75*
G03*
X2979500Y2816000I20000J0D01*
G01*
X2984750Y2378000D02*
G75*
G03*
X2944750Y2378000I-20000J0D01*
G01*
X2944750Y2378000D02*
G75*
G03*
X2984750Y2378000I20000J0D01*
G01*
X3180000Y2382000D02*
G75*
G03*
X3140000Y2382000I-20000J0D01*
G01*
X3140000Y2382000D02*
G75*
G03*
X3180000Y2382000I20000J0D01*
G01*
X3182000Y3041000D02*
G75*
G03*
X3142000Y3041000I-20000J0D01*
G01*
X3142000Y3041000D02*
G75*
G03*
X3182000Y3041000I20000J0D01*
G01*
X3184000Y2821333D02*
G75*
G03*
X3144000Y2821333I-20000J0D01*
G01*
X3144000Y2821333D02*
G75*
G03*
X3184000Y2821333I20000J0D01*
G01*
X3184000Y2601667D02*
G75*
G03*
X3144000Y2601667I-20000J0D01*
G01*
X3144000Y2601667D02*
G75*
G03*
X3184000Y2601667I20000J0D01*
G01*
X3224000Y3339000D02*
G75*
G03*
X3184000Y3339000I-20000J0D01*
G01*
X3184000Y3339000D02*
G75*
G03*
X3224000Y3339000I20000J0D01*
G01*
X3257000Y4530000D02*
G75*
G03*
X3217000Y4530000I-20000J0D01*
G01*
X3217000Y4530000D02*
G75*
G03*
X3257000Y4530000I20000J0D01*
G01*
X3257000Y3871000D02*
G75*
G03*
X3217000Y3871000I-20000J0D01*
G01*
X3217000Y3871000D02*
G75*
G03*
X3257000Y3871000I20000J0D01*
G01*
X3258000Y4302000D02*
G75*
G03*
X3218000Y4302000I-20000J0D01*
G01*
X3218000Y4302000D02*
G75*
G03*
X3258000Y4302000I20000J0D01*
G01*
X3258000Y4076000D02*
G75*
G03*
X3218000Y4076000I-20000J0D01*
G01*
X3218000Y4076000D02*
G75*
G03*
X3258000Y4076000I20000J0D01*
G01*
X3412000Y3132000D02*
G75*
G03*
X3372000Y3132000I-20000J0D01*
G01*
X3372000Y3132000D02*
G75*
G03*
X3412000Y3132000I20000J0D01*
G01*
X3415000Y4628000D02*
G75*
G03*
X3375000Y4628000I-20000J0D01*
G01*
X3375000Y4628000D02*
G75*
G03*
X3415000Y4628000I20000J0D01*
G01*
X3533000Y3339000D02*
G75*
G03*
X3493000Y3339000I-20000J0D01*
G01*
X3493000Y3339000D02*
G75*
G03*
X3533000Y3339000I20000J0D01*
G01*
X3597000Y4628000D02*
G75*
G03*
X3557000Y4628000I-20000J0D01*
G01*
X3557000Y4628000D02*
G75*
G03*
X3597000Y4628000I20000J0D01*
G01*
X3598000Y4967000D02*
G75*
G03*
X3558000Y4967000I-20000J0D01*
G01*
X3558000Y4967000D02*
G75*
G03*
X3598000Y4967000I20000J0D01*
G01*
X3624000Y5150000D02*
G75*
G03*
X3584000Y5150000I-20000J0D01*
G01*
X3584000Y5150000D02*
G75*
G03*
X3624000Y5150000I20000J0D01*
G01*
X3652000Y3779000D02*
G75*
G03*
X3612000Y3779000I-20000J0D01*
G01*
X3612000Y3779000D02*
G75*
G03*
X3652000Y3779000I20000J0D01*
G01*
X3654000Y3546000D02*
G75*
G03*
X3614000Y3546000I-20000J0D01*
G01*
X3614000Y3546000D02*
G75*
G03*
X3654000Y3546000I20000J0D01*
G01*
X3731000Y4367000D02*
G75*
G03*
X3691000Y4367000I-20000J0D01*
G01*
X3691000Y4367000D02*
G75*
G03*
X3731000Y4367000I20000J0D01*
G01*
X3735000Y4524000D02*
G75*
G03*
X3695000Y4524000I-20000J0D01*
G01*
X3695000Y4524000D02*
G75*
G03*
X3735000Y4524000I20000J0D01*
G01*
X3756000Y4797000D02*
G75*
G03*
X3716000Y4797000I-20000J0D01*
G01*
X3716000Y4797000D02*
G75*
G03*
X3756000Y4797000I20000J0D01*
G01*
X3792000Y4092000D02*
G75*
G03*
X3752000Y4092000I-20000J0D01*
G01*
X3752000Y4092000D02*
G75*
G03*
X3792000Y4092000I20000J0D01*
G01*
X3913000Y5150000D02*
G75*
G03*
X3873000Y5150000I-20000J0D01*
G01*
X3873000Y5150000D02*
G75*
G03*
X3913000Y5150000I20000J0D01*
G01*
X4202000Y5150000D02*
G75*
G03*
X4162000Y5150000I-20000J0D01*
G01*
X4162000Y5150000D02*
G75*
G03*
X4202000Y5150000I20000J0D01*
G01*
X4601000Y4404000D02*
G75*
G03*
X4561000Y4404000I-20000J0D01*
G01*
X4561000Y4404000D02*
G75*
G03*
X4601000Y4404000I20000J0D01*
G01*
X1180500Y1595000D02*
X1180500Y1495000D01*
X1130500Y1545000D02*
X1230500Y1545000D01*
X1434500Y1595000D02*
X1434500Y1495000D01*
X1384500Y1545000D02*
X1484500Y1545000D01*
X2534000Y4606000D02*
X2534000Y4506000D01*
X2484000Y4556000D02*
X2584000Y4556000D01*
X2534000Y4352000D02*
X2534000Y4252000D01*
X2484000Y4302000D02*
X2584000Y4302000D01*
X2534000Y4098000D02*
X2534000Y3998000D01*
X2484000Y4048000D02*
X2584000Y4048000D01*
X2574000Y633000D02*
X2574000Y533000D01*
X2524000Y583000D02*
X2624000Y583000D01*
X2874000Y633000D02*
X2874000Y533000D01*
X2824000Y583000D02*
X2924000Y583000D01*
X3174000Y633000D02*
X3174000Y533000D01*
X3124000Y583000D02*
X3224000Y583000D01*
X3908500Y4976000D02*
X3908500Y4876000D01*
X3858500Y4926000D02*
X3958500Y4926000D01*
X3908500Y4722000D02*
X3908500Y4622000D01*
X3858500Y4672000D02*
X3958500Y4672000D01*
X4162500Y4976000D02*
X4162500Y4876000D01*
X4112500Y4926000D02*
X4212500Y4926000D01*
X4162500Y4722000D02*
X4162500Y4622000D01*
X4112500Y4672000D02*
X4212500Y4672000D01*
X4416500Y4976000D02*
X4416500Y4876000D01*
X4366500Y4926000D02*
X4466500Y4926000D01*
X4416500Y4722000D02*
X4416500Y4622000D01*
X4366500Y4672000D02*
X4466500Y4672000D01*
D12*
X478033Y4696967D02*
X478033Y4803034D01*
X371966Y4803034D01*
X371966Y4696967D01*
X478033Y4696967D01*
X478033Y2696967D02*
X478033Y2803033D01*
X371966Y2803033D01*
X371966Y2696967D01*
X478033Y2696967D01*
X478033Y696967D02*
X478033Y803033D01*
X371966Y803033D01*
X371966Y696967D01*
X478033Y696967D01*
X2347034Y529967D02*
X2347034Y636034D01*
X2240967Y636034D01*
X2240967Y529967D01*
X2347034Y529967D01*
X3507033Y529967D02*
X3507033Y636034D01*
X3400966Y636034D01*
X3400966Y529967D01*
X3507033Y529967D01*
D13*
X4694000Y2452004D02*
X4770000Y2528004D01*
X4694000Y2604004D01*
X4618000Y2528004D01*
X4694000Y2452004D01*
X4694000Y452004D02*
X4770000Y528004D01*
X4694000Y604004D01*
X4618000Y528004D01*
X4694000Y452004D01*
D14*
X86000Y5089000D02*
X256000Y4919000D01*
X256000Y5089000D02*
X86000Y4919000D01*
X256000Y5004000D02*
G75*
G03*
X86000Y5004000I-85000J0D01*
G01*
X86000Y5004000D02*
G75*
G03*
X256000Y5004000I85000J0D01*
G01*
X86000Y4581000D02*
X256000Y4411000D01*
X256000Y4581000D02*
X86000Y4411000D01*
X256000Y4496000D02*
G75*
G03*
X86000Y4496000I-85000J0D01*
G01*
X86000Y4496000D02*
G75*
G03*
X256000Y4496000I85000J0D01*
G01*
X86000Y3089000D02*
X256000Y2919000D01*
X256000Y3089000D02*
X86000Y2919000D01*
X256000Y3004000D02*
G75*
G03*
X86000Y3004000I-85000J0D01*
G01*
X86000Y3004000D02*
G75*
G03*
X256000Y3004000I85000J0D01*
G01*
X86000Y2581000D02*
X256000Y2411000D01*
X256000Y2581000D02*
X86000Y2411000D01*
X256000Y2496000D02*
G75*
G03*
X86000Y2496000I-85000J0D01*
G01*
X86000Y2496000D02*
G75*
G03*
X256000Y2496000I85000J0D01*
G01*
X86000Y1089000D02*
X256000Y919000D01*
X256000Y1089000D02*
X86000Y919000D01*
X256000Y1004000D02*
G75*
G03*
X86000Y1004000I-85000J0D01*
G01*
X86000Y1004000D02*
G75*
G03*
X256000Y1004000I85000J0D01*
G01*
X86000Y581000D02*
X256000Y411000D01*
X256000Y581000D02*
X86000Y411000D01*
X256000Y496000D02*
G75*
G03*
X86000Y496000I-85000J0D01*
G01*
X86000Y496000D02*
G75*
G03*
X256000Y496000I85000J0D01*
G01*
X594000Y5089000D02*
X764000Y4919000D01*
X764000Y5089000D02*
X594000Y4919000D01*
X764000Y5004000D02*
G75*
G03*
X594000Y5004000I-85000J0D01*
G01*
X594000Y5004000D02*
G75*
G03*
X764000Y5004000I85000J0D01*
G01*
X594000Y4581000D02*
X764000Y4411000D01*
X764000Y4581000D02*
X594000Y4411000D01*
X764000Y4496000D02*
G75*
G03*
X594000Y4496000I-85000J0D01*
G01*
X594000Y4496000D02*
G75*
G03*
X764000Y4496000I85000J0D01*
G01*
X594000Y3089000D02*
X764000Y2919000D01*
X764000Y3089000D02*
X594000Y2919000D01*
X764000Y3004000D02*
G75*
G03*
X594000Y3004000I-85000J0D01*
G01*
X594000Y3004000D02*
G75*
G03*
X764000Y3004000I85000J0D01*
G01*
X594000Y2581000D02*
X764000Y2411000D01*
X764000Y2581000D02*
X594000Y2411000D01*
X764000Y2496000D02*
G75*
G03*
X594000Y2496000I-85000J0D01*
G01*
X594000Y2496000D02*
G75*
G03*
X764000Y2496000I85000J0D01*
G01*
X594000Y1089000D02*
X764000Y919000D01*
X764000Y1089000D02*
X594000Y919000D01*
X764000Y1004000D02*
G75*
G03*
X594000Y1004000I-85000J0D01*
G01*
X594000Y1004000D02*
G75*
G03*
X764000Y1004000I85000J0D01*
G01*
X594000Y581000D02*
X764000Y411000D01*
X764000Y581000D02*
X594000Y411000D01*
X764000Y496000D02*
G75*
G03*
X594000Y496000I-85000J0D01*
G01*
X594000Y496000D02*
G75*
G03*
X764000Y496000I85000J0D01*
G01*
D15*
X1246000Y5348000D02*
X1566000Y5028000D01*
X1566000Y5348000D02*
X1246000Y5028000D01*
X1406000Y5348000D02*
X1406000Y5028000D01*
X1246000Y5188000D02*
X1566000Y5188000D01*
X1248000Y554000D02*
X1568000Y234000D01*
X1568000Y554000D02*
X1248000Y234000D01*
X1408000Y554000D02*
X1408000Y234000D01*
X1248000Y394000D02*
X1568000Y394000D01*
X5400000Y5350000D02*
X5720000Y5030000D01*
X5720000Y5350000D02*
X5400000Y5030000D01*
X5560000Y5350000D02*
X5560000Y5030000D01*
X5400000Y5190000D02*
X5720000Y5190000D01*
X5402000Y552000D02*
X5722000Y232000D01*
X5722000Y552000D02*
X5402000Y232000D01*
X5562000Y552000D02*
X5562000Y232000D01*
X5402000Y392000D02*
X5722000Y392000D01*
D11*
X255775Y-319484D02*
X255775Y-119484D01*
X255775Y-119484D02*
X303394Y-119484D01*
X303394Y-119484D02*
X331966Y-129008D01*
X331966Y-129008D02*
X351013Y-148055D01*
X351013Y-148055D02*
X360537Y-167103D01*
X360537Y-167103D02*
X370061Y-205198D01*
X370061Y-205198D02*
X370061Y-233769D01*
X370061Y-233769D02*
X360537Y-271865D01*
X360537Y-271865D02*
X351013Y-290912D01*
X351013Y-290912D02*
X331966Y-309960D01*
X331966Y-309960D02*
X303394Y-319484D01*
X303394Y-319484D02*
X255775Y-319484D01*
X455775Y-319484D02*
X455775Y-186150D01*
X455775Y-224246D02*
X465299Y-205198D01*
X465299Y-205198D02*
X474823Y-195674D01*
X474823Y-195674D02*
X493871Y-186150D01*
X493871Y-186150D02*
X512918Y-186150D01*
X579585Y-319484D02*
X579585Y-186150D01*
X579585Y-119484D02*
X570061Y-129008D01*
X570061Y-129008D02*
X579585Y-138531D01*
X579585Y-138531D02*
X589109Y-129008D01*
X589109Y-129008D02*
X579585Y-119484D01*
X579585Y-119484D02*
X579585Y-138531D01*
X703394Y-319484D02*
X684347Y-309960D01*
X684347Y-309960D02*
X674823Y-290912D01*
X674823Y-290912D02*
X674823Y-119484D01*
X808156Y-319484D02*
X789109Y-309960D01*
X789109Y-309960D02*
X779585Y-290912D01*
X779585Y-290912D02*
X779585Y-119484D01*
X1036728Y-319484D02*
X1036728Y-119484D01*
X1036728Y-119484D02*
X1103395Y-262341D01*
X1103395Y-262341D02*
X1170061Y-119484D01*
X1170061Y-119484D02*
X1170061Y-319484D01*
X1351014Y-319484D02*
X1351014Y-214722D01*
X1351014Y-214722D02*
X1341490Y-195674D01*
X1341490Y-195674D02*
X1322442Y-186150D01*
X1322442Y-186150D02*
X1284347Y-186150D01*
X1284347Y-186150D02*
X1265299Y-195674D01*
X1351014Y-309960D02*
X1331966Y-319484D01*
X1331966Y-319484D02*
X1284347Y-319484D01*
X1284347Y-319484D02*
X1265299Y-309960D01*
X1265299Y-309960D02*
X1255775Y-290912D01*
X1255775Y-290912D02*
X1255775Y-271865D01*
X1255775Y-271865D02*
X1265299Y-252817D01*
X1265299Y-252817D02*
X1284347Y-243293D01*
X1284347Y-243293D02*
X1331966Y-243293D01*
X1331966Y-243293D02*
X1351014Y-233769D01*
X1446252Y-186150D02*
X1446252Y-386150D01*
X1446252Y-195674D02*
X1465299Y-186150D01*
X1465299Y-186150D02*
X1503394Y-186150D01*
X1503394Y-186150D02*
X1522442Y-195674D01*
X1522442Y-195674D02*
X1531966Y-205198D01*
X1531966Y-205198D02*
X1541490Y-224246D01*
X1541490Y-224246D02*
X1541490Y-281389D01*
X1541490Y-281389D02*
X1531966Y-300436D01*
X1531966Y-300436D02*
X1522442Y-309960D01*
X1522442Y-309960D02*
X1503394Y-319484D01*
X1503394Y-319484D02*
X1465299Y-319484D01*
X1465299Y-319484D02*
X1446252Y-309960D01*
X1627204Y-300436D02*
X1636728Y-309960D01*
X1636728Y-309960D02*
X1627204Y-319484D01*
X1627204Y-319484D02*
X1617680Y-309960D01*
X1617680Y-309960D02*
X1627204Y-300436D01*
X1627204Y-300436D02*
X1627204Y-319484D01*
X1627204Y-195674D02*
X1636728Y-205198D01*
X1636728Y-205198D02*
X1627204Y-214722D01*
X1627204Y-214722D02*
X1617680Y-205198D01*
X1617680Y-205198D02*
X1627204Y-195674D01*
X1627204Y-195674D02*
X1627204Y-214722D01*
D10*
X-35001Y-633000D02*
X-5001Y-663000D01*
X-5001Y-633000D02*
X-35001Y-663000D01*
D11*
X293871Y-539484D02*
X312918Y-539484D01*
X312918Y-539484D02*
X331966Y-549008D01*
X331966Y-549008D02*
X341490Y-558531D01*
X341490Y-558531D02*
X351013Y-577579D01*
X351013Y-577579D02*
X360537Y-615674D01*
X360537Y-615674D02*
X360537Y-663293D01*
X360537Y-663293D02*
X351013Y-701388D01*
X351013Y-701388D02*
X341490Y-720436D01*
X341490Y-720436D02*
X331966Y-729960D01*
X331966Y-729960D02*
X312918Y-739484D01*
X312918Y-739484D02*
X293871Y-739484D01*
X293871Y-739484D02*
X274823Y-729960D01*
X274823Y-729960D02*
X265299Y-720436D01*
X265299Y-720436D02*
X255775Y-701388D01*
X255775Y-701388D02*
X246252Y-663293D01*
X246252Y-663293D02*
X246252Y-615674D01*
X246252Y-615674D02*
X255775Y-577579D01*
X255775Y-577579D02*
X265299Y-558531D01*
X265299Y-558531D02*
X274823Y-549008D01*
X274823Y-549008D02*
X293871Y-539484D01*
X446252Y-720436D02*
X455775Y-729960D01*
X455775Y-729960D02*
X446252Y-739484D01*
X446252Y-739484D02*
X436728Y-729960D01*
X436728Y-729960D02*
X446252Y-720436D01*
X446252Y-720436D02*
X446252Y-739484D01*
X522442Y-539484D02*
X646252Y-539484D01*
X646252Y-539484D02*
X579585Y-615674D01*
X579585Y-615674D02*
X608156Y-615674D01*
X608156Y-615674D02*
X627204Y-625198D01*
X627204Y-625198D02*
X636728Y-634722D01*
X636728Y-634722D02*
X646252Y-653770D01*
X646252Y-653770D02*
X646252Y-701388D01*
X646252Y-701388D02*
X636728Y-720436D01*
X636728Y-720436D02*
X627204Y-729960D01*
X627204Y-729960D02*
X608156Y-739484D01*
X608156Y-739484D02*
X551014Y-739484D01*
X551014Y-739484D02*
X531966Y-729960D01*
X531966Y-729960D02*
X522442Y-720436D01*
X770061Y-539484D02*
X789109Y-539484D01*
X789109Y-539484D02*
X808156Y-549008D01*
X808156Y-549008D02*
X817680Y-558531D01*
X817680Y-558531D02*
X827204Y-577579D01*
X827204Y-577579D02*
X836728Y-615674D01*
X836728Y-615674D02*
X836728Y-663293D01*
X836728Y-663293D02*
X827204Y-701388D01*
X827204Y-701388D02*
X817680Y-720436D01*
X817680Y-720436D02*
X808156Y-729960D01*
X808156Y-729960D02*
X789109Y-739484D01*
X789109Y-739484D02*
X770061Y-739484D01*
X770061Y-739484D02*
X751013Y-729960D01*
X751013Y-729960D02*
X741490Y-720436D01*
X741490Y-720436D02*
X731966Y-701388D01*
X731966Y-701388D02*
X722442Y-663293D01*
X722442Y-663293D02*
X722442Y-615674D01*
X722442Y-615674D02*
X731966Y-577579D01*
X731966Y-577579D02*
X741490Y-558531D01*
X741490Y-558531D02*
X751013Y-549008D01*
X751013Y-549008D02*
X770061Y-539484D01*
X960537Y-539484D02*
X979585Y-539484D01*
X979585Y-539484D02*
X998633Y-549008D01*
X998633Y-549008D02*
X1008156Y-558531D01*
X1008156Y-558531D02*
X1017680Y-577579D01*
X1017680Y-577579D02*
X1027204Y-615674D01*
X1027204Y-615674D02*
X1027204Y-663293D01*
X1027204Y-663293D02*
X1017680Y-701388D01*
X1017680Y-701388D02*
X1008156Y-720436D01*
X1008156Y-720436D02*
X998633Y-729960D01*
X998633Y-729960D02*
X979585Y-739484D01*
X979585Y-739484D02*
X960537Y-739484D01*
X960537Y-739484D02*
X941490Y-729960D01*
X941490Y-729960D02*
X931966Y-720436D01*
X931966Y-720436D02*
X922442Y-701388D01*
X922442Y-701388D02*
X912918Y-663293D01*
X912918Y-663293D02*
X912918Y-615674D01*
X912918Y-615674D02*
X922442Y-577579D01*
X922442Y-577579D02*
X931966Y-558531D01*
X931966Y-558531D02*
X941490Y-549008D01*
X941490Y-549008D02*
X960537Y-539484D01*
X1112918Y-739484D02*
X1112918Y-606150D01*
X1112918Y-625198D02*
X1122442Y-615674D01*
X1122442Y-615674D02*
X1141490Y-606150D01*
X1141490Y-606150D02*
X1170061Y-606150D01*
X1170061Y-606150D02*
X1189109Y-615674D01*
X1189109Y-615674D02*
X1198633Y-634722D01*
X1198633Y-634722D02*
X1198633Y-739484D01*
X1198633Y-634722D02*
X1208156Y-615674D01*
X1208156Y-615674D02*
X1227204Y-606150D01*
X1227204Y-606150D02*
X1255775Y-606150D01*
X1255775Y-606150D02*
X1274823Y-615674D01*
X1274823Y-615674D02*
X1284347Y-634722D01*
X1284347Y-634722D02*
X1284347Y-739484D01*
X1379585Y-739484D02*
X1379585Y-606150D01*
X1379585Y-625198D02*
X1389109Y-615674D01*
X1389109Y-615674D02*
X1408156Y-606150D01*
X1408156Y-606150D02*
X1436728Y-606150D01*
X1436728Y-606150D02*
X1455775Y-615674D01*
X1455775Y-615674D02*
X1465299Y-634722D01*
X1465299Y-634722D02*
X1465299Y-739484D01*
X1465299Y-634722D02*
X1474823Y-615674D01*
X1474823Y-615674D02*
X1493871Y-606150D01*
X1493871Y-606150D02*
X1522442Y-606150D01*
X1522442Y-606150D02*
X1541490Y-615674D01*
X1541490Y-615674D02*
X1551014Y-634722D01*
X1551014Y-634722D02*
X1551014Y-739484D01*
X1941490Y-529960D02*
X1770061Y-787103D01*
X2198633Y-539484D02*
X2217680Y-539484D01*
X2217680Y-539484D02*
X2236728Y-549008D01*
X2236728Y-549008D02*
X2246252Y-558531D01*
X2246252Y-558531D02*
X2255776Y-577579D01*
X2255776Y-577579D02*
X2265299Y-615674D01*
X2265299Y-615674D02*
X2265299Y-663293D01*
X2265299Y-663293D02*
X2255776Y-701388D01*
X2255776Y-701388D02*
X2246252Y-720436D01*
X2246252Y-720436D02*
X2236728Y-729960D01*
X2236728Y-729960D02*
X2217680Y-739484D01*
X2217680Y-739484D02*
X2198633Y-739484D01*
X2198633Y-739484D02*
X2179585Y-729960D01*
X2179585Y-729960D02*
X2170061Y-720436D01*
X2170061Y-720436D02*
X2160538Y-701388D01*
X2160538Y-701388D02*
X2151014Y-663293D01*
X2151014Y-663293D02*
X2151014Y-615674D01*
X2151014Y-615674D02*
X2160538Y-577579D01*
X2160538Y-577579D02*
X2170061Y-558531D01*
X2170061Y-558531D02*
X2179585Y-549008D01*
X2179585Y-549008D02*
X2198633Y-539484D01*
X2351014Y-720436D02*
X2360538Y-729960D01*
X2360538Y-729960D02*
X2351014Y-739484D01*
X2351014Y-739484D02*
X2341490Y-729960D01*
X2341490Y-729960D02*
X2351014Y-720436D01*
X2351014Y-720436D02*
X2351014Y-739484D01*
X2484347Y-539484D02*
X2503395Y-539484D01*
X2503395Y-539484D02*
X2522442Y-549008D01*
X2522442Y-549008D02*
X2531966Y-558531D01*
X2531966Y-558531D02*
X2541490Y-577579D01*
X2541490Y-577579D02*
X2551014Y-615674D01*
X2551014Y-615674D02*
X2551014Y-663293D01*
X2551014Y-663293D02*
X2541490Y-701388D01*
X2541490Y-701388D02*
X2531966Y-720436D01*
X2531966Y-720436D02*
X2522442Y-729960D01*
X2522442Y-729960D02*
X2503395Y-739484D01*
X2503395Y-739484D02*
X2484347Y-739484D01*
X2484347Y-739484D02*
X2465299Y-729960D01*
X2465299Y-729960D02*
X2455776Y-720436D01*
X2455776Y-720436D02*
X2446252Y-701388D01*
X2446252Y-701388D02*
X2436728Y-663293D01*
X2436728Y-663293D02*
X2436728Y-615674D01*
X2436728Y-615674D02*
X2446252Y-577579D01*
X2446252Y-577579D02*
X2455776Y-558531D01*
X2455776Y-558531D02*
X2465299Y-549008D01*
X2465299Y-549008D02*
X2484347Y-539484D01*
X2741490Y-739484D02*
X2627204Y-739484D01*
X2684347Y-739484D02*
X2684347Y-539484D01*
X2684347Y-539484D02*
X2665299Y-568055D01*
X2665299Y-568055D02*
X2646252Y-587103D01*
X2646252Y-587103D02*
X2627204Y-596627D01*
X2931966Y-739484D02*
X2817680Y-739484D01*
X2874823Y-739484D02*
X2874823Y-539484D01*
X2874823Y-539484D02*
X2855776Y-568055D01*
X2855776Y-568055D02*
X2836728Y-587103D01*
X2836728Y-587103D02*
X2817680Y-596627D01*
X3046252Y-625198D02*
X3027204Y-615674D01*
X3027204Y-615674D02*
X3017680Y-606150D01*
X3017680Y-606150D02*
X3008157Y-587103D01*
X3008157Y-587103D02*
X3008157Y-577579D01*
X3008157Y-577579D02*
X3017680Y-558531D01*
X3017680Y-558531D02*
X3027204Y-549008D01*
X3027204Y-549008D02*
X3046252Y-539484D01*
X3046252Y-539484D02*
X3084347Y-539484D01*
X3084347Y-539484D02*
X3103395Y-549008D01*
X3103395Y-549008D02*
X3112918Y-558531D01*
X3112918Y-558531D02*
X3122442Y-577579D01*
X3122442Y-577579D02*
X3122442Y-587103D01*
X3122442Y-587103D02*
X3112918Y-606150D01*
X3112918Y-606150D02*
X3103395Y-615674D01*
X3103395Y-615674D02*
X3084347Y-625198D01*
X3084347Y-625198D02*
X3046252Y-625198D01*
X3046252Y-625198D02*
X3027204Y-634722D01*
X3027204Y-634722D02*
X3017680Y-644246D01*
X3017680Y-644246D02*
X3008157Y-663293D01*
X3008157Y-663293D02*
X3008157Y-701388D01*
X3008157Y-701388D02*
X3017680Y-720436D01*
X3017680Y-720436D02*
X3027204Y-729960D01*
X3027204Y-729960D02*
X3046252Y-739484D01*
X3046252Y-739484D02*
X3084347Y-739484D01*
X3084347Y-739484D02*
X3103395Y-729960D01*
X3103395Y-729960D02*
X3112918Y-720436D01*
X3112918Y-720436D02*
X3122442Y-701388D01*
X3122442Y-701388D02*
X3122442Y-663293D01*
X3122442Y-663293D02*
X3112918Y-644246D01*
X3112918Y-644246D02*
X3103395Y-634722D01*
X3103395Y-634722D02*
X3084347Y-625198D01*
X3198633Y-539484D02*
X3198633Y-577579D01*
X3274823Y-539484D02*
X3274823Y-577579D01*
X3570061Y-815674D02*
X3560538Y-806150D01*
X3560538Y-806150D02*
X3541490Y-777579D01*
X3541490Y-777579D02*
X3531966Y-758531D01*
X3531966Y-758531D02*
X3522442Y-729960D01*
X3522442Y-729960D02*
X3512919Y-682341D01*
X3512919Y-682341D02*
X3512919Y-644246D01*
X3512919Y-644246D02*
X3522442Y-596627D01*
X3522442Y-596627D02*
X3531966Y-568055D01*
X3531966Y-568055D02*
X3541490Y-549008D01*
X3541490Y-549008D02*
X3560538Y-520436D01*
X3560538Y-520436D02*
X3570061Y-510912D01*
X3636728Y-558531D02*
X3646252Y-549008D01*
X3646252Y-549008D02*
X3665299Y-539484D01*
X3665299Y-539484D02*
X3712919Y-539484D01*
X3712919Y-539484D02*
X3731966Y-549008D01*
X3731966Y-549008D02*
X3741490Y-558531D01*
X3741490Y-558531D02*
X3751014Y-577579D01*
X3751014Y-577579D02*
X3751014Y-596627D01*
X3751014Y-596627D02*
X3741490Y-625198D01*
X3741490Y-625198D02*
X3627204Y-739484D01*
X3627204Y-739484D02*
X3751014Y-739484D01*
X3989109Y-739484D02*
X3989109Y-539484D01*
X4074823Y-739484D02*
X4074823Y-634722D01*
X4074823Y-634722D02*
X4065300Y-615674D01*
X4065300Y-615674D02*
X4046252Y-606150D01*
X4046252Y-606150D02*
X4017680Y-606150D01*
X4017680Y-606150D02*
X3998633Y-615674D01*
X3998633Y-615674D02*
X3989109Y-625198D01*
X4198633Y-739484D02*
X4179585Y-729960D01*
X4179585Y-729960D02*
X4170061Y-720436D01*
X4170061Y-720436D02*
X4160538Y-701388D01*
X4160538Y-701388D02*
X4160538Y-644246D01*
X4160538Y-644246D02*
X4170061Y-625198D01*
X4170061Y-625198D02*
X4179585Y-615674D01*
X4179585Y-615674D02*
X4198633Y-606150D01*
X4198633Y-606150D02*
X4227204Y-606150D01*
X4227204Y-606150D02*
X4246252Y-615674D01*
X4246252Y-615674D02*
X4255776Y-625198D01*
X4255776Y-625198D02*
X4265300Y-644246D01*
X4265300Y-644246D02*
X4265300Y-701388D01*
X4265300Y-701388D02*
X4255776Y-720436D01*
X4255776Y-720436D02*
X4246252Y-729960D01*
X4246252Y-729960D02*
X4227204Y-739484D01*
X4227204Y-739484D02*
X4198633Y-739484D01*
X4379585Y-739484D02*
X4360538Y-729960D01*
X4360538Y-729960D02*
X4351014Y-710912D01*
X4351014Y-710912D02*
X4351014Y-539484D01*
X4531966Y-729960D02*
X4512919Y-739484D01*
X4512919Y-739484D02*
X4474823Y-739484D01*
X4474823Y-739484D02*
X4455776Y-729960D01*
X4455776Y-729960D02*
X4446252Y-710912D01*
X4446252Y-710912D02*
X4446252Y-634722D01*
X4446252Y-634722D02*
X4455776Y-615674D01*
X4455776Y-615674D02*
X4474823Y-606150D01*
X4474823Y-606150D02*
X4512919Y-606150D01*
X4512919Y-606150D02*
X4531966Y-615674D01*
X4531966Y-615674D02*
X4541490Y-634722D01*
X4541490Y-634722D02*
X4541490Y-653770D01*
X4541490Y-653770D02*
X4446252Y-672817D01*
X4617681Y-729960D02*
X4636728Y-739484D01*
X4636728Y-739484D02*
X4674823Y-739484D01*
X4674823Y-739484D02*
X4693871Y-729960D01*
X4693871Y-729960D02*
X4703395Y-710912D01*
X4703395Y-710912D02*
X4703395Y-701388D01*
X4703395Y-701388D02*
X4693871Y-682341D01*
X4693871Y-682341D02*
X4674823Y-672817D01*
X4674823Y-672817D02*
X4646252Y-672817D01*
X4646252Y-672817D02*
X4627204Y-663293D01*
X4627204Y-663293D02*
X4617681Y-644246D01*
X4617681Y-644246D02*
X4617681Y-634722D01*
X4617681Y-634722D02*
X4627204Y-615674D01*
X4627204Y-615674D02*
X4646252Y-606150D01*
X4646252Y-606150D02*
X4674823Y-606150D01*
X4674823Y-606150D02*
X4693871Y-615674D01*
X4770062Y-815674D02*
X4779585Y-806150D01*
X4779585Y-806150D02*
X4798633Y-777579D01*
X4798633Y-777579D02*
X4808157Y-758531D01*
X4808157Y-758531D02*
X4817681Y-729960D01*
X4817681Y-729960D02*
X4827204Y-682341D01*
X4827204Y-682341D02*
X4827204Y-644246D01*
X4827204Y-644246D02*
X4817681Y-596627D01*
X4817681Y-596627D02*
X4808157Y-568055D01*
X4808157Y-568055D02*
X4798633Y-549008D01*
X4798633Y-549008D02*
X4779585Y-520436D01*
X4779585Y-520436D02*
X4770062Y-510912D01*
D10*
X-5001Y-912000D02*
G75*
G03*
X-45001Y-912000I-20000J0D01*
G01*
X-45001Y-912000D02*
G75*
G03*
X-5001Y-912000I20000J0D01*
G01*
D11*
X293871Y-803484D02*
X312918Y-803484D01*
X312918Y-803484D02*
X331966Y-813008D01*
X331966Y-813008D02*
X341490Y-822531D01*
X341490Y-822531D02*
X351013Y-841579D01*
X351013Y-841579D02*
X360537Y-879674D01*
X360537Y-879674D02*
X360537Y-927293D01*
X360537Y-927293D02*
X351013Y-965388D01*
X351013Y-965388D02*
X341490Y-984436D01*
X341490Y-984436D02*
X331966Y-993960D01*
X331966Y-993960D02*
X312918Y-1003484D01*
X312918Y-1003484D02*
X293871Y-1003484D01*
X293871Y-1003484D02*
X274823Y-993960D01*
X274823Y-993960D02*
X265299Y-984436D01*
X265299Y-984436D02*
X255775Y-965388D01*
X255775Y-965388D02*
X246252Y-927293D01*
X246252Y-927293D02*
X246252Y-879674D01*
X246252Y-879674D02*
X255775Y-841579D01*
X255775Y-841579D02*
X265299Y-822531D01*
X265299Y-822531D02*
X274823Y-813008D01*
X274823Y-813008D02*
X293871Y-803484D01*
X446252Y-984436D02*
X455775Y-993960D01*
X455775Y-993960D02*
X446252Y-1003484D01*
X446252Y-1003484D02*
X436728Y-993960D01*
X436728Y-993960D02*
X446252Y-984436D01*
X446252Y-984436D02*
X446252Y-1003484D01*
X627204Y-870150D02*
X627204Y-1003484D01*
X579585Y-793960D02*
X531966Y-936817D01*
X531966Y-936817D02*
X655775Y-936817D01*
X770061Y-803484D02*
X789109Y-803484D01*
X789109Y-803484D02*
X808156Y-813008D01*
X808156Y-813008D02*
X817680Y-822531D01*
X817680Y-822531D02*
X827204Y-841579D01*
X827204Y-841579D02*
X836728Y-879674D01*
X836728Y-879674D02*
X836728Y-927293D01*
X836728Y-927293D02*
X827204Y-965388D01*
X827204Y-965388D02*
X817680Y-984436D01*
X817680Y-984436D02*
X808156Y-993960D01*
X808156Y-993960D02*
X789109Y-1003484D01*
X789109Y-1003484D02*
X770061Y-1003484D01*
X770061Y-1003484D02*
X751013Y-993960D01*
X751013Y-993960D02*
X741490Y-984436D01*
X741490Y-984436D02*
X731966Y-965388D01*
X731966Y-965388D02*
X722442Y-927293D01*
X722442Y-927293D02*
X722442Y-879674D01*
X722442Y-879674D02*
X731966Y-841579D01*
X731966Y-841579D02*
X741490Y-822531D01*
X741490Y-822531D02*
X751013Y-813008D01*
X751013Y-813008D02*
X770061Y-803484D01*
X960537Y-803484D02*
X979585Y-803484D01*
X979585Y-803484D02*
X998633Y-813008D01*
X998633Y-813008D02*
X1008156Y-822531D01*
X1008156Y-822531D02*
X1017680Y-841579D01*
X1017680Y-841579D02*
X1027204Y-879674D01*
X1027204Y-879674D02*
X1027204Y-927293D01*
X1027204Y-927293D02*
X1017680Y-965388D01*
X1017680Y-965388D02*
X1008156Y-984436D01*
X1008156Y-984436D02*
X998633Y-993960D01*
X998633Y-993960D02*
X979585Y-1003484D01*
X979585Y-1003484D02*
X960537Y-1003484D01*
X960537Y-1003484D02*
X941490Y-993960D01*
X941490Y-993960D02*
X931966Y-984436D01*
X931966Y-984436D02*
X922442Y-965388D01*
X922442Y-965388D02*
X912918Y-927293D01*
X912918Y-927293D02*
X912918Y-879674D01*
X912918Y-879674D02*
X922442Y-841579D01*
X922442Y-841579D02*
X931966Y-822531D01*
X931966Y-822531D02*
X941490Y-813008D01*
X941490Y-813008D02*
X960537Y-803484D01*
X1112918Y-1003484D02*
X1112918Y-870150D01*
X1112918Y-889198D02*
X1122442Y-879674D01*
X1122442Y-879674D02*
X1141490Y-870150D01*
X1141490Y-870150D02*
X1170061Y-870150D01*
X1170061Y-870150D02*
X1189109Y-879674D01*
X1189109Y-879674D02*
X1198633Y-898722D01*
X1198633Y-898722D02*
X1198633Y-1003484D01*
X1198633Y-898722D02*
X1208156Y-879674D01*
X1208156Y-879674D02*
X1227204Y-870150D01*
X1227204Y-870150D02*
X1255775Y-870150D01*
X1255775Y-870150D02*
X1274823Y-879674D01*
X1274823Y-879674D02*
X1284347Y-898722D01*
X1284347Y-898722D02*
X1284347Y-1003484D01*
X1379585Y-1003484D02*
X1379585Y-870150D01*
X1379585Y-889198D02*
X1389109Y-879674D01*
X1389109Y-879674D02*
X1408156Y-870150D01*
X1408156Y-870150D02*
X1436728Y-870150D01*
X1436728Y-870150D02*
X1455775Y-879674D01*
X1455775Y-879674D02*
X1465299Y-898722D01*
X1465299Y-898722D02*
X1465299Y-1003484D01*
X1465299Y-898722D02*
X1474823Y-879674D01*
X1474823Y-879674D02*
X1493871Y-870150D01*
X1493871Y-870150D02*
X1522442Y-870150D01*
X1522442Y-870150D02*
X1541490Y-879674D01*
X1541490Y-879674D02*
X1551014Y-898722D01*
X1551014Y-898722D02*
X1551014Y-1003484D01*
X1941490Y-793960D02*
X1770061Y-1051103D01*
X2198633Y-803484D02*
X2217680Y-803484D01*
X2217680Y-803484D02*
X2236728Y-813008D01*
X2236728Y-813008D02*
X2246252Y-822531D01*
X2246252Y-822531D02*
X2255776Y-841579D01*
X2255776Y-841579D02*
X2265299Y-879674D01*
X2265299Y-879674D02*
X2265299Y-927293D01*
X2265299Y-927293D02*
X2255776Y-965388D01*
X2255776Y-965388D02*
X2246252Y-984436D01*
X2246252Y-984436D02*
X2236728Y-993960D01*
X2236728Y-993960D02*
X2217680Y-1003484D01*
X2217680Y-1003484D02*
X2198633Y-1003484D01*
X2198633Y-1003484D02*
X2179585Y-993960D01*
X2179585Y-993960D02*
X2170061Y-984436D01*
X2170061Y-984436D02*
X2160538Y-965388D01*
X2160538Y-965388D02*
X2151014Y-927293D01*
X2151014Y-927293D02*
X2151014Y-879674D01*
X2151014Y-879674D02*
X2160538Y-841579D01*
X2160538Y-841579D02*
X2170061Y-822531D01*
X2170061Y-822531D02*
X2179585Y-813008D01*
X2179585Y-813008D02*
X2198633Y-803484D01*
X2351014Y-984436D02*
X2360538Y-993960D01*
X2360538Y-993960D02*
X2351014Y-1003484D01*
X2351014Y-1003484D02*
X2341490Y-993960D01*
X2341490Y-993960D02*
X2351014Y-984436D01*
X2351014Y-984436D02*
X2351014Y-1003484D01*
X2484347Y-803484D02*
X2503395Y-803484D01*
X2503395Y-803484D02*
X2522442Y-813008D01*
X2522442Y-813008D02*
X2531966Y-822531D01*
X2531966Y-822531D02*
X2541490Y-841579D01*
X2541490Y-841579D02*
X2551014Y-879674D01*
X2551014Y-879674D02*
X2551014Y-927293D01*
X2551014Y-927293D02*
X2541490Y-965388D01*
X2541490Y-965388D02*
X2531966Y-984436D01*
X2531966Y-984436D02*
X2522442Y-993960D01*
X2522442Y-993960D02*
X2503395Y-1003484D01*
X2503395Y-1003484D02*
X2484347Y-1003484D01*
X2484347Y-1003484D02*
X2465299Y-993960D01*
X2465299Y-993960D02*
X2455776Y-984436D01*
X2455776Y-984436D02*
X2446252Y-965388D01*
X2446252Y-965388D02*
X2436728Y-927293D01*
X2436728Y-927293D02*
X2436728Y-879674D01*
X2436728Y-879674D02*
X2446252Y-841579D01*
X2446252Y-841579D02*
X2455776Y-822531D01*
X2455776Y-822531D02*
X2465299Y-813008D01*
X2465299Y-813008D02*
X2484347Y-803484D01*
X2741490Y-1003484D02*
X2627204Y-1003484D01*
X2684347Y-1003484D02*
X2684347Y-803484D01*
X2684347Y-803484D02*
X2665299Y-832055D01*
X2665299Y-832055D02*
X2646252Y-851103D01*
X2646252Y-851103D02*
X2627204Y-860627D01*
X2922442Y-803484D02*
X2827204Y-803484D01*
X2827204Y-803484D02*
X2817680Y-898722D01*
X2817680Y-898722D02*
X2827204Y-889198D01*
X2827204Y-889198D02*
X2846252Y-879674D01*
X2846252Y-879674D02*
X2893871Y-879674D01*
X2893871Y-879674D02*
X2912918Y-889198D01*
X2912918Y-889198D02*
X2922442Y-898722D01*
X2922442Y-898722D02*
X2931966Y-917769D01*
X2931966Y-917769D02*
X2931966Y-965388D01*
X2931966Y-965388D02*
X2922442Y-984436D01*
X2922442Y-984436D02*
X2912918Y-993960D01*
X2912918Y-993960D02*
X2893871Y-1003484D01*
X2893871Y-1003484D02*
X2846252Y-1003484D01*
X2846252Y-1003484D02*
X2827204Y-993960D01*
X2827204Y-993960D02*
X2817680Y-984436D01*
X2998633Y-803484D02*
X3131966Y-803484D01*
X3131966Y-803484D02*
X3046252Y-1003484D01*
X3198633Y-803484D02*
X3198633Y-841579D01*
X3274823Y-803484D02*
X3274823Y-841579D01*
X3570061Y-1079674D02*
X3560538Y-1070150D01*
X3560538Y-1070150D02*
X3541490Y-1041579D01*
X3541490Y-1041579D02*
X3531966Y-1022531D01*
X3531966Y-1022531D02*
X3522442Y-993960D01*
X3522442Y-993960D02*
X3512919Y-946341D01*
X3512919Y-946341D02*
X3512919Y-908246D01*
X3512919Y-908246D02*
X3522442Y-860627D01*
X3522442Y-860627D02*
X3531966Y-832055D01*
X3531966Y-832055D02*
X3541490Y-813008D01*
X3541490Y-813008D02*
X3560538Y-784436D01*
X3560538Y-784436D02*
X3570061Y-774912D01*
X3655776Y-1003484D02*
X3693871Y-1003484D01*
X3693871Y-1003484D02*
X3712919Y-993960D01*
X3712919Y-993960D02*
X3722442Y-984436D01*
X3722442Y-984436D02*
X3741490Y-955865D01*
X3741490Y-955865D02*
X3751014Y-917769D01*
X3751014Y-917769D02*
X3751014Y-841579D01*
X3751014Y-841579D02*
X3741490Y-822531D01*
X3741490Y-822531D02*
X3731966Y-813008D01*
X3731966Y-813008D02*
X3712919Y-803484D01*
X3712919Y-803484D02*
X3674823Y-803484D01*
X3674823Y-803484D02*
X3655776Y-813008D01*
X3655776Y-813008D02*
X3646252Y-822531D01*
X3646252Y-822531D02*
X3636728Y-841579D01*
X3636728Y-841579D02*
X3636728Y-889198D01*
X3636728Y-889198D02*
X3646252Y-908246D01*
X3646252Y-908246D02*
X3655776Y-917769D01*
X3655776Y-917769D02*
X3674823Y-927293D01*
X3674823Y-927293D02*
X3712919Y-927293D01*
X3712919Y-927293D02*
X3731966Y-917769D01*
X3731966Y-917769D02*
X3741490Y-908246D01*
X3741490Y-908246D02*
X3751014Y-889198D01*
X3874823Y-803484D02*
X3893871Y-803484D01*
X3893871Y-803484D02*
X3912919Y-813008D01*
X3912919Y-813008D02*
X3922442Y-822531D01*
X3922442Y-822531D02*
X3931966Y-841579D01*
X3931966Y-841579D02*
X3941490Y-879674D01*
X3941490Y-879674D02*
X3941490Y-927293D01*
X3941490Y-927293D02*
X3931966Y-965388D01*
X3931966Y-965388D02*
X3922442Y-984436D01*
X3922442Y-984436D02*
X3912919Y-993960D01*
X3912919Y-993960D02*
X3893871Y-1003484D01*
X3893871Y-1003484D02*
X3874823Y-1003484D01*
X3874823Y-1003484D02*
X3855776Y-993960D01*
X3855776Y-993960D02*
X3846252Y-984436D01*
X3846252Y-984436D02*
X3836728Y-965388D01*
X3836728Y-965388D02*
X3827204Y-927293D01*
X3827204Y-927293D02*
X3827204Y-879674D01*
X3827204Y-879674D02*
X3836728Y-841579D01*
X3836728Y-841579D02*
X3846252Y-822531D01*
X3846252Y-822531D02*
X3855776Y-813008D01*
X3855776Y-813008D02*
X3874823Y-803484D01*
X4179585Y-1003484D02*
X4179585Y-803484D01*
X4265300Y-1003484D02*
X4265300Y-898722D01*
X4265300Y-898722D02*
X4255776Y-879674D01*
X4255776Y-879674D02*
X4236728Y-870150D01*
X4236728Y-870150D02*
X4208157Y-870150D01*
X4208157Y-870150D02*
X4189109Y-879674D01*
X4189109Y-879674D02*
X4179585Y-889198D01*
X4389109Y-1003484D02*
X4370062Y-993960D01*
X4370062Y-993960D02*
X4360538Y-984436D01*
X4360538Y-984436D02*
X4351014Y-965388D01*
X4351014Y-965388D02*
X4351014Y-908246D01*
X4351014Y-908246D02*
X4360538Y-889198D01*
X4360538Y-889198D02*
X4370062Y-879674D01*
X4370062Y-879674D02*
X4389109Y-870150D01*
X4389109Y-870150D02*
X4417681Y-870150D01*
X4417681Y-870150D02*
X4436728Y-879674D01*
X4436728Y-879674D02*
X4446252Y-889198D01*
X4446252Y-889198D02*
X4455776Y-908246D01*
X4455776Y-908246D02*
X4455776Y-965388D01*
X4455776Y-965388D02*
X4446252Y-984436D01*
X4446252Y-984436D02*
X4436728Y-993960D01*
X4436728Y-993960D02*
X4417681Y-1003484D01*
X4417681Y-1003484D02*
X4389109Y-1003484D01*
X4570062Y-1003484D02*
X4551014Y-993960D01*
X4551014Y-993960D02*
X4541490Y-974912D01*
X4541490Y-974912D02*
X4541490Y-803484D01*
X4722443Y-993960D02*
X4703395Y-1003484D01*
X4703395Y-1003484D02*
X4665300Y-1003484D01*
X4665300Y-1003484D02*
X4646252Y-993960D01*
X4646252Y-993960D02*
X4636728Y-974912D01*
X4636728Y-974912D02*
X4636728Y-898722D01*
X4636728Y-898722D02*
X4646252Y-879674D01*
X4646252Y-879674D02*
X4665300Y-870150D01*
X4665300Y-870150D02*
X4703395Y-870150D01*
X4703395Y-870150D02*
X4722443Y-879674D01*
X4722443Y-879674D02*
X4731966Y-898722D01*
X4731966Y-898722D02*
X4731966Y-917769D01*
X4731966Y-917769D02*
X4636728Y-936817D01*
X4808157Y-993960D02*
X4827204Y-1003484D01*
X4827204Y-1003484D02*
X4865300Y-1003484D01*
X4865300Y-1003484D02*
X4884347Y-993960D01*
X4884347Y-993960D02*
X4893871Y-974912D01*
X4893871Y-974912D02*
X4893871Y-965388D01*
X4893871Y-965388D02*
X4884347Y-946341D01*
X4884347Y-946341D02*
X4865300Y-936817D01*
X4865300Y-936817D02*
X4836728Y-936817D01*
X4836728Y-936817D02*
X4817681Y-927293D01*
X4817681Y-927293D02*
X4808157Y-908246D01*
X4808157Y-908246D02*
X4808157Y-898722D01*
X4808157Y-898722D02*
X4817681Y-879674D01*
X4817681Y-879674D02*
X4836728Y-870150D01*
X4836728Y-870150D02*
X4865300Y-870150D01*
X4865300Y-870150D02*
X4884347Y-879674D01*
X4960538Y-1079674D02*
X4970062Y-1070150D01*
X4970062Y-1070150D02*
X4989109Y-1041579D01*
X4989109Y-1041579D02*
X4998633Y-1022531D01*
X4998633Y-1022531D02*
X5008157Y-993960D01*
X5008157Y-993960D02*
X5017681Y-946341D01*
X5017681Y-946341D02*
X5017681Y-908246D01*
X5017681Y-908246D02*
X5008157Y-860627D01*
X5008157Y-860627D02*
X4998633Y-832055D01*
X4998633Y-832055D02*
X4989109Y-813008D01*
X4989109Y-813008D02*
X4970062Y-784436D01*
X4970062Y-784436D02*
X4960538Y-774912D01*
D10*
X-55001Y-1126000D02*
X-55001Y-1226000D01*
X-105001Y-1176000D02*
X-5001Y-1176000D01*
D11*
X360537Y-1267484D02*
X246252Y-1267484D01*
X303394Y-1267484D02*
X303394Y-1067484D01*
X303394Y-1067484D02*
X284347Y-1096055D01*
X284347Y-1096055D02*
X265299Y-1115103D01*
X265299Y-1115103D02*
X246252Y-1124627D01*
X446252Y-1248436D02*
X455775Y-1257960D01*
X455775Y-1257960D02*
X446252Y-1267484D01*
X446252Y-1267484D02*
X436728Y-1257960D01*
X436728Y-1257960D02*
X446252Y-1248436D01*
X446252Y-1248436D02*
X446252Y-1267484D01*
X579585Y-1067484D02*
X598633Y-1067484D01*
X598633Y-1067484D02*
X617680Y-1077008D01*
X617680Y-1077008D02*
X627204Y-1086531D01*
X627204Y-1086531D02*
X636728Y-1105579D01*
X636728Y-1105579D02*
X646252Y-1143674D01*
X646252Y-1143674D02*
X646252Y-1191293D01*
X646252Y-1191293D02*
X636728Y-1229389D01*
X636728Y-1229389D02*
X627204Y-1248436D01*
X627204Y-1248436D02*
X617680Y-1257960D01*
X617680Y-1257960D02*
X598633Y-1267484D01*
X598633Y-1267484D02*
X579585Y-1267484D01*
X579585Y-1267484D02*
X560537Y-1257960D01*
X560537Y-1257960D02*
X551014Y-1248436D01*
X551014Y-1248436D02*
X541490Y-1229389D01*
X541490Y-1229389D02*
X531966Y-1191293D01*
X531966Y-1191293D02*
X531966Y-1143674D01*
X531966Y-1143674D02*
X541490Y-1105579D01*
X541490Y-1105579D02*
X551014Y-1086531D01*
X551014Y-1086531D02*
X560537Y-1077008D01*
X560537Y-1077008D02*
X579585Y-1067484D01*
X770061Y-1067484D02*
X789109Y-1067484D01*
X789109Y-1067484D02*
X808156Y-1077008D01*
X808156Y-1077008D02*
X817680Y-1086531D01*
X817680Y-1086531D02*
X827204Y-1105579D01*
X827204Y-1105579D02*
X836728Y-1143674D01*
X836728Y-1143674D02*
X836728Y-1191293D01*
X836728Y-1191293D02*
X827204Y-1229389D01*
X827204Y-1229389D02*
X817680Y-1248436D01*
X817680Y-1248436D02*
X808156Y-1257960D01*
X808156Y-1257960D02*
X789109Y-1267484D01*
X789109Y-1267484D02*
X770061Y-1267484D01*
X770061Y-1267484D02*
X751013Y-1257960D01*
X751013Y-1257960D02*
X741490Y-1248436D01*
X741490Y-1248436D02*
X731966Y-1229389D01*
X731966Y-1229389D02*
X722442Y-1191293D01*
X722442Y-1191293D02*
X722442Y-1143674D01*
X722442Y-1143674D02*
X731966Y-1105579D01*
X731966Y-1105579D02*
X741490Y-1086531D01*
X741490Y-1086531D02*
X751013Y-1077008D01*
X751013Y-1077008D02*
X770061Y-1067484D01*
X960537Y-1067484D02*
X979585Y-1067484D01*
X979585Y-1067484D02*
X998633Y-1077008D01*
X998633Y-1077008D02*
X1008156Y-1086531D01*
X1008156Y-1086531D02*
X1017680Y-1105579D01*
X1017680Y-1105579D02*
X1027204Y-1143674D01*
X1027204Y-1143674D02*
X1027204Y-1191293D01*
X1027204Y-1191293D02*
X1017680Y-1229389D01*
X1017680Y-1229389D02*
X1008156Y-1248436D01*
X1008156Y-1248436D02*
X998633Y-1257960D01*
X998633Y-1257960D02*
X979585Y-1267484D01*
X979585Y-1267484D02*
X960537Y-1267484D01*
X960537Y-1267484D02*
X941490Y-1257960D01*
X941490Y-1257960D02*
X931966Y-1248436D01*
X931966Y-1248436D02*
X922442Y-1229389D01*
X922442Y-1229389D02*
X912918Y-1191293D01*
X912918Y-1191293D02*
X912918Y-1143674D01*
X912918Y-1143674D02*
X922442Y-1105579D01*
X922442Y-1105579D02*
X931966Y-1086531D01*
X931966Y-1086531D02*
X941490Y-1077008D01*
X941490Y-1077008D02*
X960537Y-1067484D01*
X1112918Y-1267484D02*
X1112918Y-1134150D01*
X1112918Y-1153198D02*
X1122442Y-1143674D01*
X1122442Y-1143674D02*
X1141490Y-1134150D01*
X1141490Y-1134150D02*
X1170061Y-1134150D01*
X1170061Y-1134150D02*
X1189109Y-1143674D01*
X1189109Y-1143674D02*
X1198633Y-1162722D01*
X1198633Y-1162722D02*
X1198633Y-1267484D01*
X1198633Y-1162722D02*
X1208156Y-1143674D01*
X1208156Y-1143674D02*
X1227204Y-1134150D01*
X1227204Y-1134150D02*
X1255775Y-1134150D01*
X1255775Y-1134150D02*
X1274823Y-1143674D01*
X1274823Y-1143674D02*
X1284347Y-1162722D01*
X1284347Y-1162722D02*
X1284347Y-1267484D01*
X1379585Y-1267484D02*
X1379585Y-1134150D01*
X1379585Y-1153198D02*
X1389109Y-1143674D01*
X1389109Y-1143674D02*
X1408156Y-1134150D01*
X1408156Y-1134150D02*
X1436728Y-1134150D01*
X1436728Y-1134150D02*
X1455775Y-1143674D01*
X1455775Y-1143674D02*
X1465299Y-1162722D01*
X1465299Y-1162722D02*
X1465299Y-1267484D01*
X1465299Y-1162722D02*
X1474823Y-1143674D01*
X1474823Y-1143674D02*
X1493871Y-1134150D01*
X1493871Y-1134150D02*
X1522442Y-1134150D01*
X1522442Y-1134150D02*
X1541490Y-1143674D01*
X1541490Y-1143674D02*
X1551014Y-1162722D01*
X1551014Y-1162722D02*
X1551014Y-1267484D01*
X1941490Y-1057960D02*
X1770061Y-1315103D01*
X2198633Y-1067484D02*
X2217680Y-1067484D01*
X2217680Y-1067484D02*
X2236728Y-1077008D01*
X2236728Y-1077008D02*
X2246252Y-1086531D01*
X2246252Y-1086531D02*
X2255776Y-1105579D01*
X2255776Y-1105579D02*
X2265299Y-1143674D01*
X2265299Y-1143674D02*
X2265299Y-1191293D01*
X2265299Y-1191293D02*
X2255776Y-1229389D01*
X2255776Y-1229389D02*
X2246252Y-1248436D01*
X2246252Y-1248436D02*
X2236728Y-1257960D01*
X2236728Y-1257960D02*
X2217680Y-1267484D01*
X2217680Y-1267484D02*
X2198633Y-1267484D01*
X2198633Y-1267484D02*
X2179585Y-1257960D01*
X2179585Y-1257960D02*
X2170061Y-1248436D01*
X2170061Y-1248436D02*
X2160538Y-1229389D01*
X2160538Y-1229389D02*
X2151014Y-1191293D01*
X2151014Y-1191293D02*
X2151014Y-1143674D01*
X2151014Y-1143674D02*
X2160538Y-1105579D01*
X2160538Y-1105579D02*
X2170061Y-1086531D01*
X2170061Y-1086531D02*
X2179585Y-1077008D01*
X2179585Y-1077008D02*
X2198633Y-1067484D01*
X2351014Y-1248436D02*
X2360538Y-1257960D01*
X2360538Y-1257960D02*
X2351014Y-1267484D01*
X2351014Y-1267484D02*
X2341490Y-1257960D01*
X2341490Y-1257960D02*
X2351014Y-1248436D01*
X2351014Y-1248436D02*
X2351014Y-1267484D01*
X2484347Y-1067484D02*
X2503395Y-1067484D01*
X2503395Y-1067484D02*
X2522442Y-1077008D01*
X2522442Y-1077008D02*
X2531966Y-1086531D01*
X2531966Y-1086531D02*
X2541490Y-1105579D01*
X2541490Y-1105579D02*
X2551014Y-1143674D01*
X2551014Y-1143674D02*
X2551014Y-1191293D01*
X2551014Y-1191293D02*
X2541490Y-1229389D01*
X2541490Y-1229389D02*
X2531966Y-1248436D01*
X2531966Y-1248436D02*
X2522442Y-1257960D01*
X2522442Y-1257960D02*
X2503395Y-1267484D01*
X2503395Y-1267484D02*
X2484347Y-1267484D01*
X2484347Y-1267484D02*
X2465299Y-1257960D01*
X2465299Y-1257960D02*
X2455776Y-1248436D01*
X2455776Y-1248436D02*
X2446252Y-1229389D01*
X2446252Y-1229389D02*
X2436728Y-1191293D01*
X2436728Y-1191293D02*
X2436728Y-1143674D01*
X2436728Y-1143674D02*
X2446252Y-1105579D01*
X2446252Y-1105579D02*
X2455776Y-1086531D01*
X2455776Y-1086531D02*
X2465299Y-1077008D01*
X2465299Y-1077008D02*
X2484347Y-1067484D01*
X2617680Y-1067484D02*
X2741490Y-1067484D01*
X2741490Y-1067484D02*
X2674823Y-1143674D01*
X2674823Y-1143674D02*
X2703395Y-1143674D01*
X2703395Y-1143674D02*
X2722442Y-1153198D01*
X2722442Y-1153198D02*
X2731966Y-1162722D01*
X2731966Y-1162722D02*
X2741490Y-1181770D01*
X2741490Y-1181770D02*
X2741490Y-1229389D01*
X2741490Y-1229389D02*
X2731966Y-1248436D01*
X2731966Y-1248436D02*
X2722442Y-1257960D01*
X2722442Y-1257960D02*
X2703395Y-1267484D01*
X2703395Y-1267484D02*
X2646252Y-1267484D01*
X2646252Y-1267484D02*
X2627204Y-1257960D01*
X2627204Y-1257960D02*
X2617680Y-1248436D01*
X2836728Y-1267484D02*
X2874823Y-1267484D01*
X2874823Y-1267484D02*
X2893871Y-1257960D01*
X2893871Y-1257960D02*
X2903395Y-1248436D01*
X2903395Y-1248436D02*
X2922442Y-1219865D01*
X2922442Y-1219865D02*
X2931966Y-1181770D01*
X2931966Y-1181770D02*
X2931966Y-1105579D01*
X2931966Y-1105579D02*
X2922442Y-1086531D01*
X2922442Y-1086531D02*
X2912918Y-1077008D01*
X2912918Y-1077008D02*
X2893871Y-1067484D01*
X2893871Y-1067484D02*
X2855776Y-1067484D01*
X2855776Y-1067484D02*
X2836728Y-1077008D01*
X2836728Y-1077008D02*
X2827204Y-1086531D01*
X2827204Y-1086531D02*
X2817680Y-1105579D01*
X2817680Y-1105579D02*
X2817680Y-1153198D01*
X2817680Y-1153198D02*
X2827204Y-1172246D01*
X2827204Y-1172246D02*
X2836728Y-1181770D01*
X2836728Y-1181770D02*
X2855776Y-1191293D01*
X2855776Y-1191293D02*
X2893871Y-1191293D01*
X2893871Y-1191293D02*
X2912918Y-1181770D01*
X2912918Y-1181770D02*
X2922442Y-1172246D01*
X2922442Y-1172246D02*
X2931966Y-1153198D01*
X3103395Y-1134150D02*
X3103395Y-1267484D01*
X3055776Y-1057960D02*
X3008157Y-1200817D01*
X3008157Y-1200817D02*
X3131966Y-1200817D01*
X3198633Y-1067484D02*
X3198633Y-1105579D01*
X3274823Y-1067484D02*
X3274823Y-1105579D01*
X3570061Y-1343674D02*
X3560538Y-1334150D01*
X3560538Y-1334150D02*
X3541490Y-1305579D01*
X3541490Y-1305579D02*
X3531966Y-1286531D01*
X3531966Y-1286531D02*
X3522442Y-1257960D01*
X3522442Y-1257960D02*
X3512919Y-1210341D01*
X3512919Y-1210341D02*
X3512919Y-1172246D01*
X3512919Y-1172246D02*
X3522442Y-1124627D01*
X3522442Y-1124627D02*
X3531966Y-1096055D01*
X3531966Y-1096055D02*
X3541490Y-1077008D01*
X3541490Y-1077008D02*
X3560538Y-1048436D01*
X3560538Y-1048436D02*
X3570061Y-1038912D01*
X3751014Y-1267484D02*
X3636728Y-1267484D01*
X3693871Y-1267484D02*
X3693871Y-1067484D01*
X3693871Y-1067484D02*
X3674823Y-1096055D01*
X3674823Y-1096055D02*
X3655776Y-1115103D01*
X3655776Y-1115103D02*
X3636728Y-1124627D01*
X3922442Y-1134150D02*
X3922442Y-1267484D01*
X3874823Y-1057960D02*
X3827204Y-1200817D01*
X3827204Y-1200817D02*
X3951014Y-1200817D01*
X4179585Y-1267484D02*
X4179585Y-1067484D01*
X4265300Y-1267484D02*
X4265300Y-1162722D01*
X4265300Y-1162722D02*
X4255776Y-1143674D01*
X4255776Y-1143674D02*
X4236728Y-1134150D01*
X4236728Y-1134150D02*
X4208157Y-1134150D01*
X4208157Y-1134150D02*
X4189109Y-1143674D01*
X4189109Y-1143674D02*
X4179585Y-1153198D01*
X4389109Y-1267484D02*
X4370062Y-1257960D01*
X4370062Y-1257960D02*
X4360538Y-1248436D01*
X4360538Y-1248436D02*
X4351014Y-1229389D01*
X4351014Y-1229389D02*
X4351014Y-1172246D01*
X4351014Y-1172246D02*
X4360538Y-1153198D01*
X4360538Y-1153198D02*
X4370062Y-1143674D01*
X4370062Y-1143674D02*
X4389109Y-1134150D01*
X4389109Y-1134150D02*
X4417681Y-1134150D01*
X4417681Y-1134150D02*
X4436728Y-1143674D01*
X4436728Y-1143674D02*
X4446252Y-1153198D01*
X4446252Y-1153198D02*
X4455776Y-1172246D01*
X4455776Y-1172246D02*
X4455776Y-1229389D01*
X4455776Y-1229389D02*
X4446252Y-1248436D01*
X4446252Y-1248436D02*
X4436728Y-1257960D01*
X4436728Y-1257960D02*
X4417681Y-1267484D01*
X4417681Y-1267484D02*
X4389109Y-1267484D01*
X4570062Y-1267484D02*
X4551014Y-1257960D01*
X4551014Y-1257960D02*
X4541490Y-1238912D01*
X4541490Y-1238912D02*
X4541490Y-1067484D01*
X4722443Y-1257960D02*
X4703395Y-1267484D01*
X4703395Y-1267484D02*
X4665300Y-1267484D01*
X4665300Y-1267484D02*
X4646252Y-1257960D01*
X4646252Y-1257960D02*
X4636728Y-1238912D01*
X4636728Y-1238912D02*
X4636728Y-1162722D01*
X4636728Y-1162722D02*
X4646252Y-1143674D01*
X4646252Y-1143674D02*
X4665300Y-1134150D01*
X4665300Y-1134150D02*
X4703395Y-1134150D01*
X4703395Y-1134150D02*
X4722443Y-1143674D01*
X4722443Y-1143674D02*
X4731966Y-1162722D01*
X4731966Y-1162722D02*
X4731966Y-1181770D01*
X4731966Y-1181770D02*
X4636728Y-1200817D01*
X4808157Y-1257960D02*
X4827204Y-1267484D01*
X4827204Y-1267484D02*
X4865300Y-1267484D01*
X4865300Y-1267484D02*
X4884347Y-1257960D01*
X4884347Y-1257960D02*
X4893871Y-1238912D01*
X4893871Y-1238912D02*
X4893871Y-1229389D01*
X4893871Y-1229389D02*
X4884347Y-1210341D01*
X4884347Y-1210341D02*
X4865300Y-1200817D01*
X4865300Y-1200817D02*
X4836728Y-1200817D01*
X4836728Y-1200817D02*
X4817681Y-1191293D01*
X4817681Y-1191293D02*
X4808157Y-1172246D01*
X4808157Y-1172246D02*
X4808157Y-1162722D01*
X4808157Y-1162722D02*
X4817681Y-1143674D01*
X4817681Y-1143674D02*
X4836728Y-1134150D01*
X4836728Y-1134150D02*
X4865300Y-1134150D01*
X4865300Y-1134150D02*
X4884347Y-1143674D01*
X4960538Y-1343674D02*
X4970062Y-1334150D01*
X4970062Y-1334150D02*
X4989109Y-1305579D01*
X4989109Y-1305579D02*
X4998633Y-1286531D01*
X4998633Y-1286531D02*
X5008157Y-1257960D01*
X5008157Y-1257960D02*
X5017681Y-1210341D01*
X5017681Y-1210341D02*
X5017681Y-1172246D01*
X5017681Y-1172246D02*
X5008157Y-1124627D01*
X5008157Y-1124627D02*
X4998633Y-1096055D01*
X4998633Y-1096055D02*
X4989109Y-1077008D01*
X4989109Y-1077008D02*
X4970062Y-1048436D01*
X4970062Y-1048436D02*
X4960538Y-1038912D01*
D12*
X-26968Y-1493033D02*
X-26968Y-1386967D01*
X-133035Y-1386967D01*
X-133035Y-1493033D01*
X-26968Y-1493033D01*
D11*
X360537Y-1531484D02*
X246252Y-1531484D01*
X303394Y-1531484D02*
X303394Y-1331484D01*
X303394Y-1331484D02*
X284347Y-1360055D01*
X284347Y-1360055D02*
X265299Y-1379103D01*
X265299Y-1379103D02*
X246252Y-1388627D01*
X446252Y-1512436D02*
X455775Y-1521960D01*
X455775Y-1521960D02*
X446252Y-1531484D01*
X446252Y-1531484D02*
X436728Y-1521960D01*
X436728Y-1521960D02*
X446252Y-1512436D01*
X446252Y-1512436D02*
X446252Y-1531484D01*
X636728Y-1331484D02*
X541490Y-1331484D01*
X541490Y-1331484D02*
X531966Y-1426722D01*
X531966Y-1426722D02*
X541490Y-1417198D01*
X541490Y-1417198D02*
X560537Y-1407674D01*
X560537Y-1407674D02*
X608156Y-1407674D01*
X608156Y-1407674D02*
X627204Y-1417198D01*
X627204Y-1417198D02*
X636728Y-1426722D01*
X636728Y-1426722D02*
X646252Y-1445769D01*
X646252Y-1445769D02*
X646252Y-1493388D01*
X646252Y-1493388D02*
X636728Y-1512436D01*
X636728Y-1512436D02*
X627204Y-1521960D01*
X627204Y-1521960D02*
X608156Y-1531484D01*
X608156Y-1531484D02*
X560537Y-1531484D01*
X560537Y-1531484D02*
X541490Y-1521960D01*
X541490Y-1521960D02*
X531966Y-1512436D01*
X770061Y-1331484D02*
X789109Y-1331484D01*
X789109Y-1331484D02*
X808156Y-1341008D01*
X808156Y-1341008D02*
X817680Y-1350531D01*
X817680Y-1350531D02*
X827204Y-1369579D01*
X827204Y-1369579D02*
X836728Y-1407674D01*
X836728Y-1407674D02*
X836728Y-1455293D01*
X836728Y-1455293D02*
X827204Y-1493388D01*
X827204Y-1493388D02*
X817680Y-1512436D01*
X817680Y-1512436D02*
X808156Y-1521960D01*
X808156Y-1521960D02*
X789109Y-1531484D01*
X789109Y-1531484D02*
X770061Y-1531484D01*
X770061Y-1531484D02*
X751013Y-1521960D01*
X751013Y-1521960D02*
X741490Y-1512436D01*
X741490Y-1512436D02*
X731966Y-1493388D01*
X731966Y-1493388D02*
X722442Y-1455293D01*
X722442Y-1455293D02*
X722442Y-1407674D01*
X722442Y-1407674D02*
X731966Y-1369579D01*
X731966Y-1369579D02*
X741490Y-1350531D01*
X741490Y-1350531D02*
X751013Y-1341008D01*
X751013Y-1341008D02*
X770061Y-1331484D01*
X960537Y-1331484D02*
X979585Y-1331484D01*
X979585Y-1331484D02*
X998633Y-1341008D01*
X998633Y-1341008D02*
X1008156Y-1350531D01*
X1008156Y-1350531D02*
X1017680Y-1369579D01*
X1017680Y-1369579D02*
X1027204Y-1407674D01*
X1027204Y-1407674D02*
X1027204Y-1455293D01*
X1027204Y-1455293D02*
X1017680Y-1493388D01*
X1017680Y-1493388D02*
X1008156Y-1512436D01*
X1008156Y-1512436D02*
X998633Y-1521960D01*
X998633Y-1521960D02*
X979585Y-1531484D01*
X979585Y-1531484D02*
X960537Y-1531484D01*
X960537Y-1531484D02*
X941490Y-1521960D01*
X941490Y-1521960D02*
X931966Y-1512436D01*
X931966Y-1512436D02*
X922442Y-1493388D01*
X922442Y-1493388D02*
X912918Y-1455293D01*
X912918Y-1455293D02*
X912918Y-1407674D01*
X912918Y-1407674D02*
X922442Y-1369579D01*
X922442Y-1369579D02*
X931966Y-1350531D01*
X931966Y-1350531D02*
X941490Y-1341008D01*
X941490Y-1341008D02*
X960537Y-1331484D01*
X1112918Y-1531484D02*
X1112918Y-1398150D01*
X1112918Y-1417198D02*
X1122442Y-1407674D01*
X1122442Y-1407674D02*
X1141490Y-1398150D01*
X1141490Y-1398150D02*
X1170061Y-1398150D01*
X1170061Y-1398150D02*
X1189109Y-1407674D01*
X1189109Y-1407674D02*
X1198633Y-1426722D01*
X1198633Y-1426722D02*
X1198633Y-1531484D01*
X1198633Y-1426722D02*
X1208156Y-1407674D01*
X1208156Y-1407674D02*
X1227204Y-1398150D01*
X1227204Y-1398150D02*
X1255775Y-1398150D01*
X1255775Y-1398150D02*
X1274823Y-1407674D01*
X1274823Y-1407674D02*
X1284347Y-1426722D01*
X1284347Y-1426722D02*
X1284347Y-1531484D01*
X1379585Y-1531484D02*
X1379585Y-1398150D01*
X1379585Y-1417198D02*
X1389109Y-1407674D01*
X1389109Y-1407674D02*
X1408156Y-1398150D01*
X1408156Y-1398150D02*
X1436728Y-1398150D01*
X1436728Y-1398150D02*
X1455775Y-1407674D01*
X1455775Y-1407674D02*
X1465299Y-1426722D01*
X1465299Y-1426722D02*
X1465299Y-1531484D01*
X1465299Y-1426722D02*
X1474823Y-1407674D01*
X1474823Y-1407674D02*
X1493871Y-1398150D01*
X1493871Y-1398150D02*
X1522442Y-1398150D01*
X1522442Y-1398150D02*
X1541490Y-1407674D01*
X1541490Y-1407674D02*
X1551014Y-1426722D01*
X1551014Y-1426722D02*
X1551014Y-1531484D01*
X1941490Y-1321960D02*
X1770061Y-1579103D01*
X2198633Y-1331484D02*
X2217680Y-1331484D01*
X2217680Y-1331484D02*
X2236728Y-1341008D01*
X2236728Y-1341008D02*
X2246252Y-1350531D01*
X2246252Y-1350531D02*
X2255776Y-1369579D01*
X2255776Y-1369579D02*
X2265299Y-1407674D01*
X2265299Y-1407674D02*
X2265299Y-1455293D01*
X2265299Y-1455293D02*
X2255776Y-1493388D01*
X2255776Y-1493388D02*
X2246252Y-1512436D01*
X2246252Y-1512436D02*
X2236728Y-1521960D01*
X2236728Y-1521960D02*
X2217680Y-1531484D01*
X2217680Y-1531484D02*
X2198633Y-1531484D01*
X2198633Y-1531484D02*
X2179585Y-1521960D01*
X2179585Y-1521960D02*
X2170061Y-1512436D01*
X2170061Y-1512436D02*
X2160538Y-1493388D01*
X2160538Y-1493388D02*
X2151014Y-1455293D01*
X2151014Y-1455293D02*
X2151014Y-1407674D01*
X2151014Y-1407674D02*
X2160538Y-1369579D01*
X2160538Y-1369579D02*
X2170061Y-1350531D01*
X2170061Y-1350531D02*
X2179585Y-1341008D01*
X2179585Y-1341008D02*
X2198633Y-1331484D01*
X2351014Y-1512436D02*
X2360538Y-1521960D01*
X2360538Y-1521960D02*
X2351014Y-1531484D01*
X2351014Y-1531484D02*
X2341490Y-1521960D01*
X2341490Y-1521960D02*
X2351014Y-1512436D01*
X2351014Y-1512436D02*
X2351014Y-1531484D01*
X2484347Y-1331484D02*
X2503395Y-1331484D01*
X2503395Y-1331484D02*
X2522442Y-1341008D01*
X2522442Y-1341008D02*
X2531966Y-1350531D01*
X2531966Y-1350531D02*
X2541490Y-1369579D01*
X2541490Y-1369579D02*
X2551014Y-1407674D01*
X2551014Y-1407674D02*
X2551014Y-1455293D01*
X2551014Y-1455293D02*
X2541490Y-1493388D01*
X2541490Y-1493388D02*
X2531966Y-1512436D01*
X2531966Y-1512436D02*
X2522442Y-1521960D01*
X2522442Y-1521960D02*
X2503395Y-1531484D01*
X2503395Y-1531484D02*
X2484347Y-1531484D01*
X2484347Y-1531484D02*
X2465299Y-1521960D01*
X2465299Y-1521960D02*
X2455776Y-1512436D01*
X2455776Y-1512436D02*
X2446252Y-1493388D01*
X2446252Y-1493388D02*
X2436728Y-1455293D01*
X2436728Y-1455293D02*
X2436728Y-1407674D01*
X2436728Y-1407674D02*
X2446252Y-1369579D01*
X2446252Y-1369579D02*
X2455776Y-1350531D01*
X2455776Y-1350531D02*
X2465299Y-1341008D01*
X2465299Y-1341008D02*
X2484347Y-1331484D01*
X2731966Y-1331484D02*
X2636728Y-1331484D01*
X2636728Y-1331484D02*
X2627204Y-1426722D01*
X2627204Y-1426722D02*
X2636728Y-1417198D01*
X2636728Y-1417198D02*
X2655776Y-1407674D01*
X2655776Y-1407674D02*
X2703395Y-1407674D01*
X2703395Y-1407674D02*
X2722442Y-1417198D01*
X2722442Y-1417198D02*
X2731966Y-1426722D01*
X2731966Y-1426722D02*
X2741490Y-1445769D01*
X2741490Y-1445769D02*
X2741490Y-1493388D01*
X2741490Y-1493388D02*
X2731966Y-1512436D01*
X2731966Y-1512436D02*
X2722442Y-1521960D01*
X2722442Y-1521960D02*
X2703395Y-1531484D01*
X2703395Y-1531484D02*
X2655776Y-1531484D01*
X2655776Y-1531484D02*
X2636728Y-1521960D01*
X2636728Y-1521960D02*
X2627204Y-1512436D01*
X2836728Y-1531484D02*
X2874823Y-1531484D01*
X2874823Y-1531484D02*
X2893871Y-1521960D01*
X2893871Y-1521960D02*
X2903395Y-1512436D01*
X2903395Y-1512436D02*
X2922442Y-1483865D01*
X2922442Y-1483865D02*
X2931966Y-1445769D01*
X2931966Y-1445769D02*
X2931966Y-1369579D01*
X2931966Y-1369579D02*
X2922442Y-1350531D01*
X2922442Y-1350531D02*
X2912918Y-1341008D01*
X2912918Y-1341008D02*
X2893871Y-1331484D01*
X2893871Y-1331484D02*
X2855776Y-1331484D01*
X2855776Y-1331484D02*
X2836728Y-1341008D01*
X2836728Y-1341008D02*
X2827204Y-1350531D01*
X2827204Y-1350531D02*
X2817680Y-1369579D01*
X2817680Y-1369579D02*
X2817680Y-1417198D01*
X2817680Y-1417198D02*
X2827204Y-1436246D01*
X2827204Y-1436246D02*
X2836728Y-1445769D01*
X2836728Y-1445769D02*
X2855776Y-1455293D01*
X2855776Y-1455293D02*
X2893871Y-1455293D01*
X2893871Y-1455293D02*
X2912918Y-1445769D01*
X2912918Y-1445769D02*
X2922442Y-1436246D01*
X2922442Y-1436246D02*
X2931966Y-1417198D01*
X3122442Y-1531484D02*
X3008157Y-1531484D01*
X3065299Y-1531484D02*
X3065299Y-1331484D01*
X3065299Y-1331484D02*
X3046252Y-1360055D01*
X3046252Y-1360055D02*
X3027204Y-1379103D01*
X3027204Y-1379103D02*
X3008157Y-1388627D01*
X3198633Y-1331484D02*
X3198633Y-1369579D01*
X3274823Y-1331484D02*
X3274823Y-1369579D01*
X3570061Y-1607674D02*
X3560538Y-1598150D01*
X3560538Y-1598150D02*
X3541490Y-1569579D01*
X3541490Y-1569579D02*
X3531966Y-1550531D01*
X3531966Y-1550531D02*
X3522442Y-1521960D01*
X3522442Y-1521960D02*
X3512919Y-1474341D01*
X3512919Y-1474341D02*
X3512919Y-1436246D01*
X3512919Y-1436246D02*
X3522442Y-1388627D01*
X3522442Y-1388627D02*
X3531966Y-1360055D01*
X3531966Y-1360055D02*
X3541490Y-1341008D01*
X3541490Y-1341008D02*
X3560538Y-1312436D01*
X3560538Y-1312436D02*
X3570061Y-1302912D01*
X3741490Y-1331484D02*
X3646252Y-1331484D01*
X3646252Y-1331484D02*
X3636728Y-1426722D01*
X3636728Y-1426722D02*
X3646252Y-1417198D01*
X3646252Y-1417198D02*
X3665299Y-1407674D01*
X3665299Y-1407674D02*
X3712919Y-1407674D01*
X3712919Y-1407674D02*
X3731966Y-1417198D01*
X3731966Y-1417198D02*
X3741490Y-1426722D01*
X3741490Y-1426722D02*
X3751014Y-1445769D01*
X3751014Y-1445769D02*
X3751014Y-1493388D01*
X3751014Y-1493388D02*
X3741490Y-1512436D01*
X3741490Y-1512436D02*
X3731966Y-1521960D01*
X3731966Y-1521960D02*
X3712919Y-1531484D01*
X3712919Y-1531484D02*
X3665299Y-1531484D01*
X3665299Y-1531484D02*
X3646252Y-1521960D01*
X3646252Y-1521960D02*
X3636728Y-1512436D01*
X3989109Y-1531484D02*
X3989109Y-1331484D01*
X4074823Y-1531484D02*
X4074823Y-1426722D01*
X4074823Y-1426722D02*
X4065300Y-1407674D01*
X4065300Y-1407674D02*
X4046252Y-1398150D01*
X4046252Y-1398150D02*
X4017680Y-1398150D01*
X4017680Y-1398150D02*
X3998633Y-1407674D01*
X3998633Y-1407674D02*
X3989109Y-1417198D01*
X4198633Y-1531484D02*
X4179585Y-1521960D01*
X4179585Y-1521960D02*
X4170061Y-1512436D01*
X4170061Y-1512436D02*
X4160538Y-1493388D01*
X4160538Y-1493388D02*
X4160538Y-1436246D01*
X4160538Y-1436246D02*
X4170061Y-1417198D01*
X4170061Y-1417198D02*
X4179585Y-1407674D01*
X4179585Y-1407674D02*
X4198633Y-1398150D01*
X4198633Y-1398150D02*
X4227204Y-1398150D01*
X4227204Y-1398150D02*
X4246252Y-1407674D01*
X4246252Y-1407674D02*
X4255776Y-1417198D01*
X4255776Y-1417198D02*
X4265300Y-1436246D01*
X4265300Y-1436246D02*
X4265300Y-1493388D01*
X4265300Y-1493388D02*
X4255776Y-1512436D01*
X4255776Y-1512436D02*
X4246252Y-1521960D01*
X4246252Y-1521960D02*
X4227204Y-1531484D01*
X4227204Y-1531484D02*
X4198633Y-1531484D01*
X4379585Y-1531484D02*
X4360538Y-1521960D01*
X4360538Y-1521960D02*
X4351014Y-1502912D01*
X4351014Y-1502912D02*
X4351014Y-1331484D01*
X4531966Y-1521960D02*
X4512919Y-1531484D01*
X4512919Y-1531484D02*
X4474823Y-1531484D01*
X4474823Y-1531484D02*
X4455776Y-1521960D01*
X4455776Y-1521960D02*
X4446252Y-1502912D01*
X4446252Y-1502912D02*
X4446252Y-1426722D01*
X4446252Y-1426722D02*
X4455776Y-1407674D01*
X4455776Y-1407674D02*
X4474823Y-1398150D01*
X4474823Y-1398150D02*
X4512919Y-1398150D01*
X4512919Y-1398150D02*
X4531966Y-1407674D01*
X4531966Y-1407674D02*
X4541490Y-1426722D01*
X4541490Y-1426722D02*
X4541490Y-1445769D01*
X4541490Y-1445769D02*
X4446252Y-1464817D01*
X4617681Y-1521960D02*
X4636728Y-1531484D01*
X4636728Y-1531484D02*
X4674823Y-1531484D01*
X4674823Y-1531484D02*
X4693871Y-1521960D01*
X4693871Y-1521960D02*
X4703395Y-1502912D01*
X4703395Y-1502912D02*
X4703395Y-1493388D01*
X4703395Y-1493388D02*
X4693871Y-1474341D01*
X4693871Y-1474341D02*
X4674823Y-1464817D01*
X4674823Y-1464817D02*
X4646252Y-1464817D01*
X4646252Y-1464817D02*
X4627204Y-1455293D01*
X4627204Y-1455293D02*
X4617681Y-1436246D01*
X4617681Y-1436246D02*
X4617681Y-1426722D01*
X4617681Y-1426722D02*
X4627204Y-1407674D01*
X4627204Y-1407674D02*
X4646252Y-1398150D01*
X4646252Y-1398150D02*
X4674823Y-1398150D01*
X4674823Y-1398150D02*
X4693871Y-1407674D01*
X4770062Y-1607674D02*
X4779585Y-1598150D01*
X4779585Y-1598150D02*
X4798633Y-1569579D01*
X4798633Y-1569579D02*
X4808157Y-1550531D01*
X4808157Y-1550531D02*
X4817681Y-1521960D01*
X4817681Y-1521960D02*
X4827204Y-1474341D01*
X4827204Y-1474341D02*
X4827204Y-1436246D01*
X4827204Y-1436246D02*
X4817681Y-1388627D01*
X4817681Y-1388627D02*
X4808157Y-1360055D01*
X4808157Y-1360055D02*
X4798633Y-1341008D01*
X4798633Y-1341008D02*
X4779585Y-1312436D01*
X4779585Y-1312436D02*
X4770062Y-1302912D01*
D13*
X-81001Y-1786000D02*
X-5001Y-1710000D01*
X-81001Y-1634000D01*
X-157001Y-1710000D01*
X-81001Y-1786000D01*
D11*
X360537Y-1801484D02*
X246252Y-1801484D01*
X303394Y-1801484D02*
X303394Y-1601484D01*
X303394Y-1601484D02*
X284347Y-1630055D01*
X284347Y-1630055D02*
X265299Y-1649103D01*
X265299Y-1649103D02*
X246252Y-1658627D01*
X446252Y-1782436D02*
X455775Y-1791960D01*
X455775Y-1791960D02*
X446252Y-1801484D01*
X446252Y-1801484D02*
X436728Y-1791960D01*
X436728Y-1791960D02*
X446252Y-1782436D01*
X446252Y-1782436D02*
X446252Y-1801484D01*
X636728Y-1601484D02*
X541490Y-1601484D01*
X541490Y-1601484D02*
X531966Y-1696722D01*
X531966Y-1696722D02*
X541490Y-1687198D01*
X541490Y-1687198D02*
X560537Y-1677674D01*
X560537Y-1677674D02*
X608156Y-1677674D01*
X608156Y-1677674D02*
X627204Y-1687198D01*
X627204Y-1687198D02*
X636728Y-1696722D01*
X636728Y-1696722D02*
X646252Y-1715769D01*
X646252Y-1715769D02*
X646252Y-1763388D01*
X646252Y-1763388D02*
X636728Y-1782436D01*
X636728Y-1782436D02*
X627204Y-1791960D01*
X627204Y-1791960D02*
X608156Y-1801484D01*
X608156Y-1801484D02*
X560537Y-1801484D01*
X560537Y-1801484D02*
X541490Y-1791960D01*
X541490Y-1791960D02*
X531966Y-1782436D01*
X722442Y-1620531D02*
X731966Y-1611008D01*
X731966Y-1611008D02*
X751013Y-1601484D01*
X751013Y-1601484D02*
X798633Y-1601484D01*
X798633Y-1601484D02*
X817680Y-1611008D01*
X817680Y-1611008D02*
X827204Y-1620531D01*
X827204Y-1620531D02*
X836728Y-1639579D01*
X836728Y-1639579D02*
X836728Y-1658627D01*
X836728Y-1658627D02*
X827204Y-1687198D01*
X827204Y-1687198D02*
X712918Y-1801484D01*
X712918Y-1801484D02*
X836728Y-1801484D01*
X960537Y-1601484D02*
X979585Y-1601484D01*
X979585Y-1601484D02*
X998633Y-1611008D01*
X998633Y-1611008D02*
X1008156Y-1620531D01*
X1008156Y-1620531D02*
X1017680Y-1639579D01*
X1017680Y-1639579D02*
X1027204Y-1677674D01*
X1027204Y-1677674D02*
X1027204Y-1725293D01*
X1027204Y-1725293D02*
X1017680Y-1763388D01*
X1017680Y-1763388D02*
X1008156Y-1782436D01*
X1008156Y-1782436D02*
X998633Y-1791960D01*
X998633Y-1791960D02*
X979585Y-1801484D01*
X979585Y-1801484D02*
X960537Y-1801484D01*
X960537Y-1801484D02*
X941490Y-1791960D01*
X941490Y-1791960D02*
X931966Y-1782436D01*
X931966Y-1782436D02*
X922442Y-1763388D01*
X922442Y-1763388D02*
X912918Y-1725293D01*
X912918Y-1725293D02*
X912918Y-1677674D01*
X912918Y-1677674D02*
X922442Y-1639579D01*
X922442Y-1639579D02*
X931966Y-1620531D01*
X931966Y-1620531D02*
X941490Y-1611008D01*
X941490Y-1611008D02*
X960537Y-1601484D01*
X1112918Y-1801484D02*
X1112918Y-1668150D01*
X1112918Y-1687198D02*
X1122442Y-1677674D01*
X1122442Y-1677674D02*
X1141490Y-1668150D01*
X1141490Y-1668150D02*
X1170061Y-1668150D01*
X1170061Y-1668150D02*
X1189109Y-1677674D01*
X1189109Y-1677674D02*
X1198633Y-1696722D01*
X1198633Y-1696722D02*
X1198633Y-1801484D01*
X1198633Y-1696722D02*
X1208156Y-1677674D01*
X1208156Y-1677674D02*
X1227204Y-1668150D01*
X1227204Y-1668150D02*
X1255775Y-1668150D01*
X1255775Y-1668150D02*
X1274823Y-1677674D01*
X1274823Y-1677674D02*
X1284347Y-1696722D01*
X1284347Y-1696722D02*
X1284347Y-1801484D01*
X1379585Y-1801484D02*
X1379585Y-1668150D01*
X1379585Y-1687198D02*
X1389109Y-1677674D01*
X1389109Y-1677674D02*
X1408156Y-1668150D01*
X1408156Y-1668150D02*
X1436728Y-1668150D01*
X1436728Y-1668150D02*
X1455775Y-1677674D01*
X1455775Y-1677674D02*
X1465299Y-1696722D01*
X1465299Y-1696722D02*
X1465299Y-1801484D01*
X1465299Y-1696722D02*
X1474823Y-1677674D01*
X1474823Y-1677674D02*
X1493871Y-1668150D01*
X1493871Y-1668150D02*
X1522442Y-1668150D01*
X1522442Y-1668150D02*
X1541490Y-1677674D01*
X1541490Y-1677674D02*
X1551014Y-1696722D01*
X1551014Y-1696722D02*
X1551014Y-1801484D01*
X1941490Y-1591960D02*
X1770061Y-1849103D01*
X2198633Y-1601484D02*
X2217680Y-1601484D01*
X2217680Y-1601484D02*
X2236728Y-1611008D01*
X2236728Y-1611008D02*
X2246252Y-1620531D01*
X2246252Y-1620531D02*
X2255776Y-1639579D01*
X2255776Y-1639579D02*
X2265299Y-1677674D01*
X2265299Y-1677674D02*
X2265299Y-1725293D01*
X2265299Y-1725293D02*
X2255776Y-1763388D01*
X2255776Y-1763388D02*
X2246252Y-1782436D01*
X2246252Y-1782436D02*
X2236728Y-1791960D01*
X2236728Y-1791960D02*
X2217680Y-1801484D01*
X2217680Y-1801484D02*
X2198633Y-1801484D01*
X2198633Y-1801484D02*
X2179585Y-1791960D01*
X2179585Y-1791960D02*
X2170061Y-1782436D01*
X2170061Y-1782436D02*
X2160538Y-1763388D01*
X2160538Y-1763388D02*
X2151014Y-1725293D01*
X2151014Y-1725293D02*
X2151014Y-1677674D01*
X2151014Y-1677674D02*
X2160538Y-1639579D01*
X2160538Y-1639579D02*
X2170061Y-1620531D01*
X2170061Y-1620531D02*
X2179585Y-1611008D01*
X2179585Y-1611008D02*
X2198633Y-1601484D01*
X2351014Y-1782436D02*
X2360538Y-1791960D01*
X2360538Y-1791960D02*
X2351014Y-1801484D01*
X2351014Y-1801484D02*
X2341490Y-1791960D01*
X2341490Y-1791960D02*
X2351014Y-1782436D01*
X2351014Y-1782436D02*
X2351014Y-1801484D01*
X2484347Y-1601484D02*
X2503395Y-1601484D01*
X2503395Y-1601484D02*
X2522442Y-1611008D01*
X2522442Y-1611008D02*
X2531966Y-1620531D01*
X2531966Y-1620531D02*
X2541490Y-1639579D01*
X2541490Y-1639579D02*
X2551014Y-1677674D01*
X2551014Y-1677674D02*
X2551014Y-1725293D01*
X2551014Y-1725293D02*
X2541490Y-1763388D01*
X2541490Y-1763388D02*
X2531966Y-1782436D01*
X2531966Y-1782436D02*
X2522442Y-1791960D01*
X2522442Y-1791960D02*
X2503395Y-1801484D01*
X2503395Y-1801484D02*
X2484347Y-1801484D01*
X2484347Y-1801484D02*
X2465299Y-1791960D01*
X2465299Y-1791960D02*
X2455776Y-1782436D01*
X2455776Y-1782436D02*
X2446252Y-1763388D01*
X2446252Y-1763388D02*
X2436728Y-1725293D01*
X2436728Y-1725293D02*
X2436728Y-1677674D01*
X2436728Y-1677674D02*
X2446252Y-1639579D01*
X2446252Y-1639579D02*
X2455776Y-1620531D01*
X2455776Y-1620531D02*
X2465299Y-1611008D01*
X2465299Y-1611008D02*
X2484347Y-1601484D01*
X2731966Y-1601484D02*
X2636728Y-1601484D01*
X2636728Y-1601484D02*
X2627204Y-1696722D01*
X2627204Y-1696722D02*
X2636728Y-1687198D01*
X2636728Y-1687198D02*
X2655776Y-1677674D01*
X2655776Y-1677674D02*
X2703395Y-1677674D01*
X2703395Y-1677674D02*
X2722442Y-1687198D01*
X2722442Y-1687198D02*
X2731966Y-1696722D01*
X2731966Y-1696722D02*
X2741490Y-1715769D01*
X2741490Y-1715769D02*
X2741490Y-1763388D01*
X2741490Y-1763388D02*
X2731966Y-1782436D01*
X2731966Y-1782436D02*
X2722442Y-1791960D01*
X2722442Y-1791960D02*
X2703395Y-1801484D01*
X2703395Y-1801484D02*
X2655776Y-1801484D01*
X2655776Y-1801484D02*
X2636728Y-1791960D01*
X2636728Y-1791960D02*
X2627204Y-1782436D01*
X2836728Y-1801484D02*
X2874823Y-1801484D01*
X2874823Y-1801484D02*
X2893871Y-1791960D01*
X2893871Y-1791960D02*
X2903395Y-1782436D01*
X2903395Y-1782436D02*
X2922442Y-1753865D01*
X2922442Y-1753865D02*
X2931966Y-1715769D01*
X2931966Y-1715769D02*
X2931966Y-1639579D01*
X2931966Y-1639579D02*
X2922442Y-1620531D01*
X2922442Y-1620531D02*
X2912918Y-1611008D01*
X2912918Y-1611008D02*
X2893871Y-1601484D01*
X2893871Y-1601484D02*
X2855776Y-1601484D01*
X2855776Y-1601484D02*
X2836728Y-1611008D01*
X2836728Y-1611008D02*
X2827204Y-1620531D01*
X2827204Y-1620531D02*
X2817680Y-1639579D01*
X2817680Y-1639579D02*
X2817680Y-1687198D01*
X2817680Y-1687198D02*
X2827204Y-1706246D01*
X2827204Y-1706246D02*
X2836728Y-1715769D01*
X2836728Y-1715769D02*
X2855776Y-1725293D01*
X2855776Y-1725293D02*
X2893871Y-1725293D01*
X2893871Y-1725293D02*
X2912918Y-1715769D01*
X2912918Y-1715769D02*
X2922442Y-1706246D01*
X2922442Y-1706246D02*
X2931966Y-1687198D01*
X3046252Y-1687198D02*
X3027204Y-1677674D01*
X3027204Y-1677674D02*
X3017680Y-1668150D01*
X3017680Y-1668150D02*
X3008157Y-1649103D01*
X3008157Y-1649103D02*
X3008157Y-1639579D01*
X3008157Y-1639579D02*
X3017680Y-1620531D01*
X3017680Y-1620531D02*
X3027204Y-1611008D01*
X3027204Y-1611008D02*
X3046252Y-1601484D01*
X3046252Y-1601484D02*
X3084347Y-1601484D01*
X3084347Y-1601484D02*
X3103395Y-1611008D01*
X3103395Y-1611008D02*
X3112918Y-1620531D01*
X3112918Y-1620531D02*
X3122442Y-1639579D01*
X3122442Y-1639579D02*
X3122442Y-1649103D01*
X3122442Y-1649103D02*
X3112918Y-1668150D01*
X3112918Y-1668150D02*
X3103395Y-1677674D01*
X3103395Y-1677674D02*
X3084347Y-1687198D01*
X3084347Y-1687198D02*
X3046252Y-1687198D01*
X3046252Y-1687198D02*
X3027204Y-1696722D01*
X3027204Y-1696722D02*
X3017680Y-1706246D01*
X3017680Y-1706246D02*
X3008157Y-1725293D01*
X3008157Y-1725293D02*
X3008157Y-1763388D01*
X3008157Y-1763388D02*
X3017680Y-1782436D01*
X3017680Y-1782436D02*
X3027204Y-1791960D01*
X3027204Y-1791960D02*
X3046252Y-1801484D01*
X3046252Y-1801484D02*
X3084347Y-1801484D01*
X3084347Y-1801484D02*
X3103395Y-1791960D01*
X3103395Y-1791960D02*
X3112918Y-1782436D01*
X3112918Y-1782436D02*
X3122442Y-1763388D01*
X3122442Y-1763388D02*
X3122442Y-1725293D01*
X3122442Y-1725293D02*
X3112918Y-1706246D01*
X3112918Y-1706246D02*
X3103395Y-1696722D01*
X3103395Y-1696722D02*
X3084347Y-1687198D01*
X3198633Y-1601484D02*
X3198633Y-1639579D01*
X3274823Y-1601484D02*
X3274823Y-1639579D01*
X3570061Y-1877674D02*
X3560538Y-1868150D01*
X3560538Y-1868150D02*
X3541490Y-1839579D01*
X3541490Y-1839579D02*
X3531966Y-1820531D01*
X3531966Y-1820531D02*
X3522442Y-1791960D01*
X3522442Y-1791960D02*
X3512919Y-1744341D01*
X3512919Y-1744341D02*
X3512919Y-1706246D01*
X3512919Y-1706246D02*
X3522442Y-1658627D01*
X3522442Y-1658627D02*
X3531966Y-1630055D01*
X3531966Y-1630055D02*
X3541490Y-1611008D01*
X3541490Y-1611008D02*
X3560538Y-1582436D01*
X3560538Y-1582436D02*
X3570061Y-1572912D01*
X3636728Y-1620531D02*
X3646252Y-1611008D01*
X3646252Y-1611008D02*
X3665299Y-1601484D01*
X3665299Y-1601484D02*
X3712919Y-1601484D01*
X3712919Y-1601484D02*
X3731966Y-1611008D01*
X3731966Y-1611008D02*
X3741490Y-1620531D01*
X3741490Y-1620531D02*
X3751014Y-1639579D01*
X3751014Y-1639579D02*
X3751014Y-1658627D01*
X3751014Y-1658627D02*
X3741490Y-1687198D01*
X3741490Y-1687198D02*
X3627204Y-1801484D01*
X3627204Y-1801484D02*
X3751014Y-1801484D01*
X3989109Y-1801484D02*
X3989109Y-1601484D01*
X4074823Y-1801484D02*
X4074823Y-1696722D01*
X4074823Y-1696722D02*
X4065300Y-1677674D01*
X4065300Y-1677674D02*
X4046252Y-1668150D01*
X4046252Y-1668150D02*
X4017680Y-1668150D01*
X4017680Y-1668150D02*
X3998633Y-1677674D01*
X3998633Y-1677674D02*
X3989109Y-1687198D01*
X4198633Y-1801484D02*
X4179585Y-1791960D01*
X4179585Y-1791960D02*
X4170061Y-1782436D01*
X4170061Y-1782436D02*
X4160538Y-1763388D01*
X4160538Y-1763388D02*
X4160538Y-1706246D01*
X4160538Y-1706246D02*
X4170061Y-1687198D01*
X4170061Y-1687198D02*
X4179585Y-1677674D01*
X4179585Y-1677674D02*
X4198633Y-1668150D01*
X4198633Y-1668150D02*
X4227204Y-1668150D01*
X4227204Y-1668150D02*
X4246252Y-1677674D01*
X4246252Y-1677674D02*
X4255776Y-1687198D01*
X4255776Y-1687198D02*
X4265300Y-1706246D01*
X4265300Y-1706246D02*
X4265300Y-1763388D01*
X4265300Y-1763388D02*
X4255776Y-1782436D01*
X4255776Y-1782436D02*
X4246252Y-1791960D01*
X4246252Y-1791960D02*
X4227204Y-1801484D01*
X4227204Y-1801484D02*
X4198633Y-1801484D01*
X4379585Y-1801484D02*
X4360538Y-1791960D01*
X4360538Y-1791960D02*
X4351014Y-1772912D01*
X4351014Y-1772912D02*
X4351014Y-1601484D01*
X4531966Y-1791960D02*
X4512919Y-1801484D01*
X4512919Y-1801484D02*
X4474823Y-1801484D01*
X4474823Y-1801484D02*
X4455776Y-1791960D01*
X4455776Y-1791960D02*
X4446252Y-1772912D01*
X4446252Y-1772912D02*
X4446252Y-1696722D01*
X4446252Y-1696722D02*
X4455776Y-1677674D01*
X4455776Y-1677674D02*
X4474823Y-1668150D01*
X4474823Y-1668150D02*
X4512919Y-1668150D01*
X4512919Y-1668150D02*
X4531966Y-1677674D01*
X4531966Y-1677674D02*
X4541490Y-1696722D01*
X4541490Y-1696722D02*
X4541490Y-1715769D01*
X4541490Y-1715769D02*
X4446252Y-1734817D01*
X4617681Y-1791960D02*
X4636728Y-1801484D01*
X4636728Y-1801484D02*
X4674823Y-1801484D01*
X4674823Y-1801484D02*
X4693871Y-1791960D01*
X4693871Y-1791960D02*
X4703395Y-1772912D01*
X4703395Y-1772912D02*
X4703395Y-1763388D01*
X4703395Y-1763388D02*
X4693871Y-1744341D01*
X4693871Y-1744341D02*
X4674823Y-1734817D01*
X4674823Y-1734817D02*
X4646252Y-1734817D01*
X4646252Y-1734817D02*
X4627204Y-1725293D01*
X4627204Y-1725293D02*
X4617681Y-1706246D01*
X4617681Y-1706246D02*
X4617681Y-1696722D01*
X4617681Y-1696722D02*
X4627204Y-1677674D01*
X4627204Y-1677674D02*
X4646252Y-1668150D01*
X4646252Y-1668150D02*
X4674823Y-1668150D01*
X4674823Y-1668150D02*
X4693871Y-1677674D01*
X4770062Y-1877674D02*
X4779585Y-1868150D01*
X4779585Y-1868150D02*
X4798633Y-1839579D01*
X4798633Y-1839579D02*
X4808157Y-1820531D01*
X4808157Y-1820531D02*
X4817681Y-1791960D01*
X4817681Y-1791960D02*
X4827204Y-1744341D01*
X4827204Y-1744341D02*
X4827204Y-1706246D01*
X4827204Y-1706246D02*
X4817681Y-1658627D01*
X4817681Y-1658627D02*
X4808157Y-1630055D01*
X4808157Y-1630055D02*
X4798633Y-1611008D01*
X4798633Y-1611008D02*
X4779585Y-1582436D01*
X4779585Y-1582436D02*
X4770062Y-1572912D01*
D14*
X-175001Y-1897000D02*
X-5001Y-2067000D01*
X-5001Y-1897000D02*
X-175001Y-2067000D01*
X-5001Y-1982000D02*
G75*
G03*
X-175001Y-1982000I-85000J0D01*
G01*
X-175001Y-1982000D02*
G75*
G03*
X-5001Y-1982000I85000J0D01*
G01*
D11*
X360537Y-2073484D02*
X246252Y-2073484D01*
X303394Y-2073484D02*
X303394Y-1873484D01*
X303394Y-1873484D02*
X284347Y-1902055D01*
X284347Y-1902055D02*
X265299Y-1921103D01*
X265299Y-1921103D02*
X246252Y-1930627D01*
X446252Y-2054436D02*
X455775Y-2063960D01*
X455775Y-2063960D02*
X446252Y-2073484D01*
X446252Y-2073484D02*
X436728Y-2063960D01*
X436728Y-2063960D02*
X446252Y-2054436D01*
X446252Y-2054436D02*
X446252Y-2073484D01*
X522442Y-1873484D02*
X655775Y-1873484D01*
X655775Y-1873484D02*
X570061Y-2073484D01*
X770061Y-1873484D02*
X789109Y-1873484D01*
X789109Y-1873484D02*
X808156Y-1883008D01*
X808156Y-1883008D02*
X817680Y-1892531D01*
X817680Y-1892531D02*
X827204Y-1911579D01*
X827204Y-1911579D02*
X836728Y-1949674D01*
X836728Y-1949674D02*
X836728Y-1997293D01*
X836728Y-1997293D02*
X827204Y-2035388D01*
X827204Y-2035388D02*
X817680Y-2054436D01*
X817680Y-2054436D02*
X808156Y-2063960D01*
X808156Y-2063960D02*
X789109Y-2073484D01*
X789109Y-2073484D02*
X770061Y-2073484D01*
X770061Y-2073484D02*
X751013Y-2063960D01*
X751013Y-2063960D02*
X741490Y-2054436D01*
X741490Y-2054436D02*
X731966Y-2035388D01*
X731966Y-2035388D02*
X722442Y-1997293D01*
X722442Y-1997293D02*
X722442Y-1949674D01*
X722442Y-1949674D02*
X731966Y-1911579D01*
X731966Y-1911579D02*
X741490Y-1892531D01*
X741490Y-1892531D02*
X751013Y-1883008D01*
X751013Y-1883008D02*
X770061Y-1873484D01*
X960537Y-1873484D02*
X979585Y-1873484D01*
X979585Y-1873484D02*
X998633Y-1883008D01*
X998633Y-1883008D02*
X1008156Y-1892531D01*
X1008156Y-1892531D02*
X1017680Y-1911579D01*
X1017680Y-1911579D02*
X1027204Y-1949674D01*
X1027204Y-1949674D02*
X1027204Y-1997293D01*
X1027204Y-1997293D02*
X1017680Y-2035388D01*
X1017680Y-2035388D02*
X1008156Y-2054436D01*
X1008156Y-2054436D02*
X998633Y-2063960D01*
X998633Y-2063960D02*
X979585Y-2073484D01*
X979585Y-2073484D02*
X960537Y-2073484D01*
X960537Y-2073484D02*
X941490Y-2063960D01*
X941490Y-2063960D02*
X931966Y-2054436D01*
X931966Y-2054436D02*
X922442Y-2035388D01*
X922442Y-2035388D02*
X912918Y-1997293D01*
X912918Y-1997293D02*
X912918Y-1949674D01*
X912918Y-1949674D02*
X922442Y-1911579D01*
X922442Y-1911579D02*
X931966Y-1892531D01*
X931966Y-1892531D02*
X941490Y-1883008D01*
X941490Y-1883008D02*
X960537Y-1873484D01*
X1112918Y-2073484D02*
X1112918Y-1940150D01*
X1112918Y-1959198D02*
X1122442Y-1949674D01*
X1122442Y-1949674D02*
X1141490Y-1940150D01*
X1141490Y-1940150D02*
X1170061Y-1940150D01*
X1170061Y-1940150D02*
X1189109Y-1949674D01*
X1189109Y-1949674D02*
X1198633Y-1968722D01*
X1198633Y-1968722D02*
X1198633Y-2073484D01*
X1198633Y-1968722D02*
X1208156Y-1949674D01*
X1208156Y-1949674D02*
X1227204Y-1940150D01*
X1227204Y-1940150D02*
X1255775Y-1940150D01*
X1255775Y-1940150D02*
X1274823Y-1949674D01*
X1274823Y-1949674D02*
X1284347Y-1968722D01*
X1284347Y-1968722D02*
X1284347Y-2073484D01*
X1379585Y-2073484D02*
X1379585Y-1940150D01*
X1379585Y-1959198D02*
X1389109Y-1949674D01*
X1389109Y-1949674D02*
X1408156Y-1940150D01*
X1408156Y-1940150D02*
X1436728Y-1940150D01*
X1436728Y-1940150D02*
X1455775Y-1949674D01*
X1455775Y-1949674D02*
X1465299Y-1968722D01*
X1465299Y-1968722D02*
X1465299Y-2073484D01*
X1465299Y-1968722D02*
X1474823Y-1949674D01*
X1474823Y-1949674D02*
X1493871Y-1940150D01*
X1493871Y-1940150D02*
X1522442Y-1940150D01*
X1522442Y-1940150D02*
X1541490Y-1949674D01*
X1541490Y-1949674D02*
X1551014Y-1968722D01*
X1551014Y-1968722D02*
X1551014Y-2073484D01*
X1941490Y-1863960D02*
X1770061Y-2121103D01*
X2198633Y-1873484D02*
X2217680Y-1873484D01*
X2217680Y-1873484D02*
X2236728Y-1883008D01*
X2236728Y-1883008D02*
X2246252Y-1892531D01*
X2246252Y-1892531D02*
X2255776Y-1911579D01*
X2255776Y-1911579D02*
X2265299Y-1949674D01*
X2265299Y-1949674D02*
X2265299Y-1997293D01*
X2265299Y-1997293D02*
X2255776Y-2035388D01*
X2255776Y-2035388D02*
X2246252Y-2054436D01*
X2246252Y-2054436D02*
X2236728Y-2063960D01*
X2236728Y-2063960D02*
X2217680Y-2073484D01*
X2217680Y-2073484D02*
X2198633Y-2073484D01*
X2198633Y-2073484D02*
X2179585Y-2063960D01*
X2179585Y-2063960D02*
X2170061Y-2054436D01*
X2170061Y-2054436D02*
X2160538Y-2035388D01*
X2160538Y-2035388D02*
X2151014Y-1997293D01*
X2151014Y-1997293D02*
X2151014Y-1949674D01*
X2151014Y-1949674D02*
X2160538Y-1911579D01*
X2160538Y-1911579D02*
X2170061Y-1892531D01*
X2170061Y-1892531D02*
X2179585Y-1883008D01*
X2179585Y-1883008D02*
X2198633Y-1873484D01*
X2351014Y-2054436D02*
X2360538Y-2063960D01*
X2360538Y-2063960D02*
X2351014Y-2073484D01*
X2351014Y-2073484D02*
X2341490Y-2063960D01*
X2341490Y-2063960D02*
X2351014Y-2054436D01*
X2351014Y-2054436D02*
X2351014Y-2073484D01*
X2484347Y-1873484D02*
X2503395Y-1873484D01*
X2503395Y-1873484D02*
X2522442Y-1883008D01*
X2522442Y-1883008D02*
X2531966Y-1892531D01*
X2531966Y-1892531D02*
X2541490Y-1911579D01*
X2541490Y-1911579D02*
X2551014Y-1949674D01*
X2551014Y-1949674D02*
X2551014Y-1997293D01*
X2551014Y-1997293D02*
X2541490Y-2035388D01*
X2541490Y-2035388D02*
X2531966Y-2054436D01*
X2531966Y-2054436D02*
X2522442Y-2063960D01*
X2522442Y-2063960D02*
X2503395Y-2073484D01*
X2503395Y-2073484D02*
X2484347Y-2073484D01*
X2484347Y-2073484D02*
X2465299Y-2063960D01*
X2465299Y-2063960D02*
X2455776Y-2054436D01*
X2455776Y-2054436D02*
X2446252Y-2035388D01*
X2446252Y-2035388D02*
X2436728Y-1997293D01*
X2436728Y-1997293D02*
X2436728Y-1949674D01*
X2436728Y-1949674D02*
X2446252Y-1911579D01*
X2446252Y-1911579D02*
X2455776Y-1892531D01*
X2455776Y-1892531D02*
X2465299Y-1883008D01*
X2465299Y-1883008D02*
X2484347Y-1873484D01*
X2722442Y-1873484D02*
X2684347Y-1873484D01*
X2684347Y-1873484D02*
X2665299Y-1883008D01*
X2665299Y-1883008D02*
X2655776Y-1892531D01*
X2655776Y-1892531D02*
X2636728Y-1921103D01*
X2636728Y-1921103D02*
X2627204Y-1959198D01*
X2627204Y-1959198D02*
X2627204Y-2035388D01*
X2627204Y-2035388D02*
X2636728Y-2054436D01*
X2636728Y-2054436D02*
X2646252Y-2063960D01*
X2646252Y-2063960D02*
X2665299Y-2073484D01*
X2665299Y-2073484D02*
X2703395Y-2073484D01*
X2703395Y-2073484D02*
X2722442Y-2063960D01*
X2722442Y-2063960D02*
X2731966Y-2054436D01*
X2731966Y-2054436D02*
X2741490Y-2035388D01*
X2741490Y-2035388D02*
X2741490Y-1987769D01*
X2741490Y-1987769D02*
X2731966Y-1968722D01*
X2731966Y-1968722D02*
X2722442Y-1959198D01*
X2722442Y-1959198D02*
X2703395Y-1949674D01*
X2703395Y-1949674D02*
X2665299Y-1949674D01*
X2665299Y-1949674D02*
X2646252Y-1959198D01*
X2646252Y-1959198D02*
X2636728Y-1968722D01*
X2636728Y-1968722D02*
X2627204Y-1987769D01*
X2912918Y-1873484D02*
X2874823Y-1873484D01*
X2874823Y-1873484D02*
X2855776Y-1883008D01*
X2855776Y-1883008D02*
X2846252Y-1892531D01*
X2846252Y-1892531D02*
X2827204Y-1921103D01*
X2827204Y-1921103D02*
X2817680Y-1959198D01*
X2817680Y-1959198D02*
X2817680Y-2035388D01*
X2817680Y-2035388D02*
X2827204Y-2054436D01*
X2827204Y-2054436D02*
X2836728Y-2063960D01*
X2836728Y-2063960D02*
X2855776Y-2073484D01*
X2855776Y-2073484D02*
X2893871Y-2073484D01*
X2893871Y-2073484D02*
X2912918Y-2063960D01*
X2912918Y-2063960D02*
X2922442Y-2054436D01*
X2922442Y-2054436D02*
X2931966Y-2035388D01*
X2931966Y-2035388D02*
X2931966Y-1987769D01*
X2931966Y-1987769D02*
X2922442Y-1968722D01*
X2922442Y-1968722D02*
X2912918Y-1959198D01*
X2912918Y-1959198D02*
X2893871Y-1949674D01*
X2893871Y-1949674D02*
X2855776Y-1949674D01*
X2855776Y-1949674D02*
X2836728Y-1959198D01*
X2836728Y-1959198D02*
X2827204Y-1968722D01*
X2827204Y-1968722D02*
X2817680Y-1987769D01*
X3027204Y-2073484D02*
X3065299Y-2073484D01*
X3065299Y-2073484D02*
X3084347Y-2063960D01*
X3084347Y-2063960D02*
X3093871Y-2054436D01*
X3093871Y-2054436D02*
X3112918Y-2025865D01*
X3112918Y-2025865D02*
X3122442Y-1987769D01*
X3122442Y-1987769D02*
X3122442Y-1911579D01*
X3122442Y-1911579D02*
X3112918Y-1892531D01*
X3112918Y-1892531D02*
X3103395Y-1883008D01*
X3103395Y-1883008D02*
X3084347Y-1873484D01*
X3084347Y-1873484D02*
X3046252Y-1873484D01*
X3046252Y-1873484D02*
X3027204Y-1883008D01*
X3027204Y-1883008D02*
X3017680Y-1892531D01*
X3017680Y-1892531D02*
X3008157Y-1911579D01*
X3008157Y-1911579D02*
X3008157Y-1959198D01*
X3008157Y-1959198D02*
X3017680Y-1978246D01*
X3017680Y-1978246D02*
X3027204Y-1987769D01*
X3027204Y-1987769D02*
X3046252Y-1997293D01*
X3046252Y-1997293D02*
X3084347Y-1997293D01*
X3084347Y-1997293D02*
X3103395Y-1987769D01*
X3103395Y-1987769D02*
X3112918Y-1978246D01*
X3112918Y-1978246D02*
X3122442Y-1959198D01*
X3198633Y-1873484D02*
X3198633Y-1911579D01*
X3274823Y-1873484D02*
X3274823Y-1911579D01*
X3570061Y-2149674D02*
X3560538Y-2140150D01*
X3560538Y-2140150D02*
X3541490Y-2111579D01*
X3541490Y-2111579D02*
X3531966Y-2092531D01*
X3531966Y-2092531D02*
X3522442Y-2063960D01*
X3522442Y-2063960D02*
X3512919Y-2016341D01*
X3512919Y-2016341D02*
X3512919Y-1978246D01*
X3512919Y-1978246D02*
X3522442Y-1930627D01*
X3522442Y-1930627D02*
X3531966Y-1902055D01*
X3531966Y-1902055D02*
X3541490Y-1883008D01*
X3541490Y-1883008D02*
X3560538Y-1854436D01*
X3560538Y-1854436D02*
X3570061Y-1844912D01*
X3751014Y-2073484D02*
X3636728Y-2073484D01*
X3693871Y-2073484D02*
X3693871Y-1873484D01*
X3693871Y-1873484D02*
X3674823Y-1902055D01*
X3674823Y-1902055D02*
X3655776Y-1921103D01*
X3655776Y-1921103D02*
X3636728Y-1930627D01*
X3827204Y-1892531D02*
X3836728Y-1883008D01*
X3836728Y-1883008D02*
X3855776Y-1873484D01*
X3855776Y-1873484D02*
X3903395Y-1873484D01*
X3903395Y-1873484D02*
X3922442Y-1883008D01*
X3922442Y-1883008D02*
X3931966Y-1892531D01*
X3931966Y-1892531D02*
X3941490Y-1911579D01*
X3941490Y-1911579D02*
X3941490Y-1930627D01*
X3941490Y-1930627D02*
X3931966Y-1959198D01*
X3931966Y-1959198D02*
X3817680Y-2073484D01*
X3817680Y-2073484D02*
X3941490Y-2073484D01*
X4179585Y-2073484D02*
X4179585Y-1873484D01*
X4265300Y-2073484D02*
X4265300Y-1968722D01*
X4265300Y-1968722D02*
X4255776Y-1949674D01*
X4255776Y-1949674D02*
X4236728Y-1940150D01*
X4236728Y-1940150D02*
X4208157Y-1940150D01*
X4208157Y-1940150D02*
X4189109Y-1949674D01*
X4189109Y-1949674D02*
X4179585Y-1959198D01*
X4389109Y-2073484D02*
X4370062Y-2063960D01*
X4370062Y-2063960D02*
X4360538Y-2054436D01*
X4360538Y-2054436D02*
X4351014Y-2035388D01*
X4351014Y-2035388D02*
X4351014Y-1978246D01*
X4351014Y-1978246D02*
X4360538Y-1959198D01*
X4360538Y-1959198D02*
X4370062Y-1949674D01*
X4370062Y-1949674D02*
X4389109Y-1940150D01*
X4389109Y-1940150D02*
X4417681Y-1940150D01*
X4417681Y-1940150D02*
X4436728Y-1949674D01*
X4436728Y-1949674D02*
X4446252Y-1959198D01*
X4446252Y-1959198D02*
X4455776Y-1978246D01*
X4455776Y-1978246D02*
X4455776Y-2035388D01*
X4455776Y-2035388D02*
X4446252Y-2054436D01*
X4446252Y-2054436D02*
X4436728Y-2063960D01*
X4436728Y-2063960D02*
X4417681Y-2073484D01*
X4417681Y-2073484D02*
X4389109Y-2073484D01*
X4570062Y-2073484D02*
X4551014Y-2063960D01*
X4551014Y-2063960D02*
X4541490Y-2044912D01*
X4541490Y-2044912D02*
X4541490Y-1873484D01*
X4722443Y-2063960D02*
X4703395Y-2073484D01*
X4703395Y-2073484D02*
X4665300Y-2073484D01*
X4665300Y-2073484D02*
X4646252Y-2063960D01*
X4646252Y-2063960D02*
X4636728Y-2044912D01*
X4636728Y-2044912D02*
X4636728Y-1968722D01*
X4636728Y-1968722D02*
X4646252Y-1949674D01*
X4646252Y-1949674D02*
X4665300Y-1940150D01*
X4665300Y-1940150D02*
X4703395Y-1940150D01*
X4703395Y-1940150D02*
X4722443Y-1949674D01*
X4722443Y-1949674D02*
X4731966Y-1968722D01*
X4731966Y-1968722D02*
X4731966Y-1987769D01*
X4731966Y-1987769D02*
X4636728Y-2006817D01*
X4808157Y-2063960D02*
X4827204Y-2073484D01*
X4827204Y-2073484D02*
X4865300Y-2073484D01*
X4865300Y-2073484D02*
X4884347Y-2063960D01*
X4884347Y-2063960D02*
X4893871Y-2044912D01*
X4893871Y-2044912D02*
X4893871Y-2035388D01*
X4893871Y-2035388D02*
X4884347Y-2016341D01*
X4884347Y-2016341D02*
X4865300Y-2006817D01*
X4865300Y-2006817D02*
X4836728Y-2006817D01*
X4836728Y-2006817D02*
X4817681Y-1997293D01*
X4817681Y-1997293D02*
X4808157Y-1978246D01*
X4808157Y-1978246D02*
X4808157Y-1968722D01*
X4808157Y-1968722D02*
X4817681Y-1949674D01*
X4817681Y-1949674D02*
X4836728Y-1940150D01*
X4836728Y-1940150D02*
X4865300Y-1940150D01*
X4865300Y-1940150D02*
X4884347Y-1949674D01*
X4960538Y-2149674D02*
X4970062Y-2140150D01*
X4970062Y-2140150D02*
X4989109Y-2111579D01*
X4989109Y-2111579D02*
X4998633Y-2092531D01*
X4998633Y-2092531D02*
X5008157Y-2063960D01*
X5008157Y-2063960D02*
X5017681Y-2016341D01*
X5017681Y-2016341D02*
X5017681Y-1978246D01*
X5017681Y-1978246D02*
X5008157Y-1930627D01*
X5008157Y-1930627D02*
X4998633Y-1902055D01*
X4998633Y-1902055D02*
X4989109Y-1883008D01*
X4989109Y-1883008D02*
X4970062Y-1854436D01*
X4970062Y-1854436D02*
X4960538Y-1844912D01*
X-205001Y-2172000D02*
X-5001Y-2372000D01*
X-5001Y-2172000D02*
X-205001Y-2372000D01*
X-105001Y-2172000D02*
X-105001Y-2372000D01*
X-205001Y-2272000D02*
X-5001Y-2272000D01*
X236728Y-2163484D02*
X360537Y-2163484D01*
X360537Y-2163484D02*
X293871Y-2239674D01*
X293871Y-2239674D02*
X322442Y-2239674D01*
X322442Y-2239674D02*
X341490Y-2249198D01*
X341490Y-2249198D02*
X351013Y-2258722D01*
X351013Y-2258722D02*
X360537Y-2277770D01*
X360537Y-2277770D02*
X360537Y-2325389D01*
X360537Y-2325389D02*
X351013Y-2344436D01*
X351013Y-2344436D02*
X341490Y-2353960D01*
X341490Y-2353960D02*
X322442Y-2363484D01*
X322442Y-2363484D02*
X265299Y-2363484D01*
X265299Y-2363484D02*
X246252Y-2353960D01*
X246252Y-2353960D02*
X236728Y-2344436D01*
X446252Y-2344436D02*
X455775Y-2353960D01*
X455775Y-2353960D02*
X446252Y-2363484D01*
X446252Y-2363484D02*
X436728Y-2353960D01*
X436728Y-2353960D02*
X446252Y-2344436D01*
X446252Y-2344436D02*
X446252Y-2363484D01*
X531966Y-2182531D02*
X541490Y-2173008D01*
X541490Y-2173008D02*
X560537Y-2163484D01*
X560537Y-2163484D02*
X608156Y-2163484D01*
X608156Y-2163484D02*
X627204Y-2173008D01*
X627204Y-2173008D02*
X636728Y-2182531D01*
X636728Y-2182531D02*
X646252Y-2201579D01*
X646252Y-2201579D02*
X646252Y-2220627D01*
X646252Y-2220627D02*
X636728Y-2249198D01*
X636728Y-2249198D02*
X522442Y-2363484D01*
X522442Y-2363484D02*
X646252Y-2363484D01*
X770061Y-2163484D02*
X789109Y-2163484D01*
X789109Y-2163484D02*
X808156Y-2173008D01*
X808156Y-2173008D02*
X817680Y-2182531D01*
X817680Y-2182531D02*
X827204Y-2201579D01*
X827204Y-2201579D02*
X836728Y-2239674D01*
X836728Y-2239674D02*
X836728Y-2287293D01*
X836728Y-2287293D02*
X827204Y-2325389D01*
X827204Y-2325389D02*
X817680Y-2344436D01*
X817680Y-2344436D02*
X808156Y-2353960D01*
X808156Y-2353960D02*
X789109Y-2363484D01*
X789109Y-2363484D02*
X770061Y-2363484D01*
X770061Y-2363484D02*
X751013Y-2353960D01*
X751013Y-2353960D02*
X741490Y-2344436D01*
X741490Y-2344436D02*
X731966Y-2325389D01*
X731966Y-2325389D02*
X722442Y-2287293D01*
X722442Y-2287293D02*
X722442Y-2239674D01*
X722442Y-2239674D02*
X731966Y-2201579D01*
X731966Y-2201579D02*
X741490Y-2182531D01*
X741490Y-2182531D02*
X751013Y-2173008D01*
X751013Y-2173008D02*
X770061Y-2163484D01*
X960537Y-2163484D02*
X979585Y-2163484D01*
X979585Y-2163484D02*
X998633Y-2173008D01*
X998633Y-2173008D02*
X1008156Y-2182531D01*
X1008156Y-2182531D02*
X1017680Y-2201579D01*
X1017680Y-2201579D02*
X1027204Y-2239674D01*
X1027204Y-2239674D02*
X1027204Y-2287293D01*
X1027204Y-2287293D02*
X1017680Y-2325389D01*
X1017680Y-2325389D02*
X1008156Y-2344436D01*
X1008156Y-2344436D02*
X998633Y-2353960D01*
X998633Y-2353960D02*
X979585Y-2363484D01*
X979585Y-2363484D02*
X960537Y-2363484D01*
X960537Y-2363484D02*
X941490Y-2353960D01*
X941490Y-2353960D02*
X931966Y-2344436D01*
X931966Y-2344436D02*
X922442Y-2325389D01*
X922442Y-2325389D02*
X912918Y-2287293D01*
X912918Y-2287293D02*
X912918Y-2239674D01*
X912918Y-2239674D02*
X922442Y-2201579D01*
X922442Y-2201579D02*
X931966Y-2182531D01*
X931966Y-2182531D02*
X941490Y-2173008D01*
X941490Y-2173008D02*
X960537Y-2163484D01*
X1112918Y-2363484D02*
X1112918Y-2230150D01*
X1112918Y-2249198D02*
X1122442Y-2239674D01*
X1122442Y-2239674D02*
X1141490Y-2230150D01*
X1141490Y-2230150D02*
X1170061Y-2230150D01*
X1170061Y-2230150D02*
X1189109Y-2239674D01*
X1189109Y-2239674D02*
X1198633Y-2258722D01*
X1198633Y-2258722D02*
X1198633Y-2363484D01*
X1198633Y-2258722D02*
X1208156Y-2239674D01*
X1208156Y-2239674D02*
X1227204Y-2230150D01*
X1227204Y-2230150D02*
X1255775Y-2230150D01*
X1255775Y-2230150D02*
X1274823Y-2239674D01*
X1274823Y-2239674D02*
X1284347Y-2258722D01*
X1284347Y-2258722D02*
X1284347Y-2363484D01*
X1379585Y-2363484D02*
X1379585Y-2230150D01*
X1379585Y-2249198D02*
X1389109Y-2239674D01*
X1389109Y-2239674D02*
X1408156Y-2230150D01*
X1408156Y-2230150D02*
X1436728Y-2230150D01*
X1436728Y-2230150D02*
X1455775Y-2239674D01*
X1455775Y-2239674D02*
X1465299Y-2258722D01*
X1465299Y-2258722D02*
X1465299Y-2363484D01*
X1465299Y-2258722D02*
X1474823Y-2239674D01*
X1474823Y-2239674D02*
X1493871Y-2230150D01*
X1493871Y-2230150D02*
X1522442Y-2230150D01*
X1522442Y-2230150D02*
X1541490Y-2239674D01*
X1541490Y-2239674D02*
X1551014Y-2258722D01*
X1551014Y-2258722D02*
X1551014Y-2363484D01*
X1941490Y-2153960D02*
X1770061Y-2411103D01*
X2198633Y-2163484D02*
X2217680Y-2163484D01*
X2217680Y-2163484D02*
X2236728Y-2173008D01*
X2236728Y-2173008D02*
X2246252Y-2182531D01*
X2246252Y-2182531D02*
X2255776Y-2201579D01*
X2255776Y-2201579D02*
X2265299Y-2239674D01*
X2265299Y-2239674D02*
X2265299Y-2287293D01*
X2265299Y-2287293D02*
X2255776Y-2325389D01*
X2255776Y-2325389D02*
X2246252Y-2344436D01*
X2246252Y-2344436D02*
X2236728Y-2353960D01*
X2236728Y-2353960D02*
X2217680Y-2363484D01*
X2217680Y-2363484D02*
X2198633Y-2363484D01*
X2198633Y-2363484D02*
X2179585Y-2353960D01*
X2179585Y-2353960D02*
X2170061Y-2344436D01*
X2170061Y-2344436D02*
X2160538Y-2325389D01*
X2160538Y-2325389D02*
X2151014Y-2287293D01*
X2151014Y-2287293D02*
X2151014Y-2239674D01*
X2151014Y-2239674D02*
X2160538Y-2201579D01*
X2160538Y-2201579D02*
X2170061Y-2182531D01*
X2170061Y-2182531D02*
X2179585Y-2173008D01*
X2179585Y-2173008D02*
X2198633Y-2163484D01*
X2351014Y-2344436D02*
X2360538Y-2353960D01*
X2360538Y-2353960D02*
X2351014Y-2363484D01*
X2351014Y-2363484D02*
X2341490Y-2353960D01*
X2341490Y-2353960D02*
X2351014Y-2344436D01*
X2351014Y-2344436D02*
X2351014Y-2363484D01*
X2551014Y-2363484D02*
X2436728Y-2363484D01*
X2493871Y-2363484D02*
X2493871Y-2163484D01*
X2493871Y-2163484D02*
X2474823Y-2192055D01*
X2474823Y-2192055D02*
X2455776Y-2211103D01*
X2455776Y-2211103D02*
X2436728Y-2220627D01*
X2627204Y-2182531D02*
X2636728Y-2173008D01*
X2636728Y-2173008D02*
X2655776Y-2163484D01*
X2655776Y-2163484D02*
X2703395Y-2163484D01*
X2703395Y-2163484D02*
X2722442Y-2173008D01*
X2722442Y-2173008D02*
X2731966Y-2182531D01*
X2731966Y-2182531D02*
X2741490Y-2201579D01*
X2741490Y-2201579D02*
X2741490Y-2220627D01*
X2741490Y-2220627D02*
X2731966Y-2249198D01*
X2731966Y-2249198D02*
X2617680Y-2363484D01*
X2617680Y-2363484D02*
X2741490Y-2363484D01*
X2912918Y-2163484D02*
X2874823Y-2163484D01*
X2874823Y-2163484D02*
X2855776Y-2173008D01*
X2855776Y-2173008D02*
X2846252Y-2182531D01*
X2846252Y-2182531D02*
X2827204Y-2211103D01*
X2827204Y-2211103D02*
X2817680Y-2249198D01*
X2817680Y-2249198D02*
X2817680Y-2325389D01*
X2817680Y-2325389D02*
X2827204Y-2344436D01*
X2827204Y-2344436D02*
X2836728Y-2353960D01*
X2836728Y-2353960D02*
X2855776Y-2363484D01*
X2855776Y-2363484D02*
X2893871Y-2363484D01*
X2893871Y-2363484D02*
X2912918Y-2353960D01*
X2912918Y-2353960D02*
X2922442Y-2344436D01*
X2922442Y-2344436D02*
X2931966Y-2325389D01*
X2931966Y-2325389D02*
X2931966Y-2277770D01*
X2931966Y-2277770D02*
X2922442Y-2258722D01*
X2922442Y-2258722D02*
X2912918Y-2249198D01*
X2912918Y-2249198D02*
X2893871Y-2239674D01*
X2893871Y-2239674D02*
X2855776Y-2239674D01*
X2855776Y-2239674D02*
X2836728Y-2249198D01*
X2836728Y-2249198D02*
X2827204Y-2258722D01*
X2827204Y-2258722D02*
X2817680Y-2277770D01*
X3055776Y-2163484D02*
X3074823Y-2163484D01*
X3074823Y-2163484D02*
X3093871Y-2173008D01*
X3093871Y-2173008D02*
X3103395Y-2182531D01*
X3103395Y-2182531D02*
X3112918Y-2201579D01*
X3112918Y-2201579D02*
X3122442Y-2239674D01*
X3122442Y-2239674D02*
X3122442Y-2287293D01*
X3122442Y-2287293D02*
X3112918Y-2325389D01*
X3112918Y-2325389D02*
X3103395Y-2344436D01*
X3103395Y-2344436D02*
X3093871Y-2353960D01*
X3093871Y-2353960D02*
X3074823Y-2363484D01*
X3074823Y-2363484D02*
X3055776Y-2363484D01*
X3055776Y-2363484D02*
X3036728Y-2353960D01*
X3036728Y-2353960D02*
X3027204Y-2344436D01*
X3027204Y-2344436D02*
X3017680Y-2325389D01*
X3017680Y-2325389D02*
X3008157Y-2287293D01*
X3008157Y-2287293D02*
X3008157Y-2239674D01*
X3008157Y-2239674D02*
X3017680Y-2201579D01*
X3017680Y-2201579D02*
X3027204Y-2182531D01*
X3027204Y-2182531D02*
X3036728Y-2173008D01*
X3036728Y-2173008D02*
X3055776Y-2163484D01*
X3198633Y-2163484D02*
X3198633Y-2201579D01*
X3274823Y-2163484D02*
X3274823Y-2201579D01*
X3570061Y-2439674D02*
X3560538Y-2430150D01*
X3560538Y-2430150D02*
X3541490Y-2401579D01*
X3541490Y-2401579D02*
X3531966Y-2382531D01*
X3531966Y-2382531D02*
X3522442Y-2353960D01*
X3522442Y-2353960D02*
X3512919Y-2306341D01*
X3512919Y-2306341D02*
X3512919Y-2268246D01*
X3512919Y-2268246D02*
X3522442Y-2220627D01*
X3522442Y-2220627D02*
X3531966Y-2192055D01*
X3531966Y-2192055D02*
X3541490Y-2173008D01*
X3541490Y-2173008D02*
X3560538Y-2144436D01*
X3560538Y-2144436D02*
X3570061Y-2134912D01*
X3731966Y-2230150D02*
X3731966Y-2363484D01*
X3684347Y-2153960D02*
X3636728Y-2296817D01*
X3636728Y-2296817D02*
X3760538Y-2296817D01*
X3989109Y-2363484D02*
X3989109Y-2163484D01*
X4074823Y-2363484D02*
X4074823Y-2258722D01*
X4074823Y-2258722D02*
X4065300Y-2239674D01*
X4065300Y-2239674D02*
X4046252Y-2230150D01*
X4046252Y-2230150D02*
X4017680Y-2230150D01*
X4017680Y-2230150D02*
X3998633Y-2239674D01*
X3998633Y-2239674D02*
X3989109Y-2249198D01*
X4198633Y-2363484D02*
X4179585Y-2353960D01*
X4179585Y-2353960D02*
X4170061Y-2344436D01*
X4170061Y-2344436D02*
X4160538Y-2325389D01*
X4160538Y-2325389D02*
X4160538Y-2268246D01*
X4160538Y-2268246D02*
X4170061Y-2249198D01*
X4170061Y-2249198D02*
X4179585Y-2239674D01*
X4179585Y-2239674D02*
X4198633Y-2230150D01*
X4198633Y-2230150D02*
X4227204Y-2230150D01*
X4227204Y-2230150D02*
X4246252Y-2239674D01*
X4246252Y-2239674D02*
X4255776Y-2249198D01*
X4255776Y-2249198D02*
X4265300Y-2268246D01*
X4265300Y-2268246D02*
X4265300Y-2325389D01*
X4265300Y-2325389D02*
X4255776Y-2344436D01*
X4255776Y-2344436D02*
X4246252Y-2353960D01*
X4246252Y-2353960D02*
X4227204Y-2363484D01*
X4227204Y-2363484D02*
X4198633Y-2363484D01*
X4379585Y-2363484D02*
X4360538Y-2353960D01*
X4360538Y-2353960D02*
X4351014Y-2334912D01*
X4351014Y-2334912D02*
X4351014Y-2163484D01*
X4531966Y-2353960D02*
X4512919Y-2363484D01*
X4512919Y-2363484D02*
X4474823Y-2363484D01*
X4474823Y-2363484D02*
X4455776Y-2353960D01*
X4455776Y-2353960D02*
X4446252Y-2334912D01*
X4446252Y-2334912D02*
X4446252Y-2258722D01*
X4446252Y-2258722D02*
X4455776Y-2239674D01*
X4455776Y-2239674D02*
X4474823Y-2230150D01*
X4474823Y-2230150D02*
X4512919Y-2230150D01*
X4512919Y-2230150D02*
X4531966Y-2239674D01*
X4531966Y-2239674D02*
X4541490Y-2258722D01*
X4541490Y-2258722D02*
X4541490Y-2277770D01*
X4541490Y-2277770D02*
X4446252Y-2296817D01*
X4617681Y-2353960D02*
X4636728Y-2363484D01*
X4636728Y-2363484D02*
X4674823Y-2363484D01*
X4674823Y-2363484D02*
X4693871Y-2353960D01*
X4693871Y-2353960D02*
X4703395Y-2334912D01*
X4703395Y-2334912D02*
X4703395Y-2325389D01*
X4703395Y-2325389D02*
X4693871Y-2306341D01*
X4693871Y-2306341D02*
X4674823Y-2296817D01*
X4674823Y-2296817D02*
X4646252Y-2296817D01*
X4646252Y-2296817D02*
X4627204Y-2287293D01*
X4627204Y-2287293D02*
X4617681Y-2268246D01*
X4617681Y-2268246D02*
X4617681Y-2258722D01*
X4617681Y-2258722D02*
X4627204Y-2239674D01*
X4627204Y-2239674D02*
X4646252Y-2230150D01*
X4646252Y-2230150D02*
X4674823Y-2230150D01*
X4674823Y-2230150D02*
X4693871Y-2239674D01*
X4770062Y-2439674D02*
X4779585Y-2430150D01*
X4779585Y-2430150D02*
X4798633Y-2401579D01*
X4798633Y-2401579D02*
X4808157Y-2382531D01*
X4808157Y-2382531D02*
X4817681Y-2353960D01*
X4817681Y-2353960D02*
X4827204Y-2306341D01*
X4827204Y-2306341D02*
X4827204Y-2268246D01*
X4827204Y-2268246D02*
X4817681Y-2220627D01*
X4817681Y-2220627D02*
X4808157Y-2192055D01*
X4808157Y-2192055D02*
X4798633Y-2173008D01*
X4798633Y-2173008D02*
X4779585Y-2144436D01*
X4779585Y-2144436D02*
X4770062Y-2134912D01*
M02*
