%TF.GenerationSoftware,KiCad,Pcbnew,7.0.10*%
%TF.CreationDate,2024-07-16T21:42:18-04:00*%
%TF.ProjectId,button_transmitter,62757474-6f6e-45f7-9472-616e736d6974,1.0*%
%TF.SameCoordinates,PX42d7d10PY7f6ba10*%
%TF.FileFunction,Drillmap*%
%TF.FilePolarity,Positive*%
%FSLAX45Y45*%
G04 Gerber Fmt 4.5, Leading zero omitted, Abs format (unit mm)*
G04 Created by KiCad (PCBNEW 7.0.10) date 2024-07-16 21:42:18*
%MOMM*%
%LPD*%
G01*
G04 APERTURE LIST*
%ADD10C,0.100000*%
%ADD11C,0.200000*%
G04 APERTURE END LIST*
D10*
X5957000Y342000D02*
X5957000Y5241000D01*
X5957000Y5241000D02*
G75*
G03*
X5612000Y5586000I-345000J0D01*
G01*
X0Y5241000D02*
X-1Y342000D01*
X344998Y-2999D02*
X5612000Y-3000D01*
X5612000Y-3000D02*
G75*
G03*
X5957000Y342000I0J345000D01*
G01*
X345000Y5586000D02*
G75*
G03*
X0Y5241000I0J-345000D01*
G01*
X5612000Y5586000D02*
X345000Y5586000D01*
X1Y342000D02*
G75*
G03*
X344998Y-2999I345000J0D01*
G01*
D11*
X255775Y-319484D02*
X255775Y-119484D01*
X255775Y-119484D02*
X303394Y-119484D01*
X303394Y-119484D02*
X331966Y-129008D01*
X331966Y-129008D02*
X351013Y-148055D01*
X351013Y-148055D02*
X360537Y-167103D01*
X360537Y-167103D02*
X370061Y-205198D01*
X370061Y-205198D02*
X370061Y-233769D01*
X370061Y-233769D02*
X360537Y-271865D01*
X360537Y-271865D02*
X351013Y-290912D01*
X351013Y-290912D02*
X331966Y-309960D01*
X331966Y-309960D02*
X303394Y-319484D01*
X303394Y-319484D02*
X255775Y-319484D01*
X455775Y-319484D02*
X455775Y-186150D01*
X455775Y-224246D02*
X465299Y-205198D01*
X465299Y-205198D02*
X474823Y-195674D01*
X474823Y-195674D02*
X493871Y-186150D01*
X493871Y-186150D02*
X512918Y-186150D01*
X579585Y-319484D02*
X579585Y-186150D01*
X579585Y-119484D02*
X570061Y-129008D01*
X570061Y-129008D02*
X579585Y-138531D01*
X579585Y-138531D02*
X589109Y-129008D01*
X589109Y-129008D02*
X579585Y-119484D01*
X579585Y-119484D02*
X579585Y-138531D01*
X703394Y-319484D02*
X684347Y-309960D01*
X684347Y-309960D02*
X674823Y-290912D01*
X674823Y-290912D02*
X674823Y-119484D01*
X808156Y-319484D02*
X789109Y-309960D01*
X789109Y-309960D02*
X779585Y-290912D01*
X779585Y-290912D02*
X779585Y-119484D01*
X1036728Y-319484D02*
X1036728Y-119484D01*
X1036728Y-119484D02*
X1103395Y-262341D01*
X1103395Y-262341D02*
X1170061Y-119484D01*
X1170061Y-119484D02*
X1170061Y-319484D01*
X1351014Y-319484D02*
X1351014Y-214722D01*
X1351014Y-214722D02*
X1341490Y-195674D01*
X1341490Y-195674D02*
X1322442Y-186150D01*
X1322442Y-186150D02*
X1284347Y-186150D01*
X1284347Y-186150D02*
X1265299Y-195674D01*
X1351014Y-309960D02*
X1331966Y-319484D01*
X1331966Y-319484D02*
X1284347Y-319484D01*
X1284347Y-319484D02*
X1265299Y-309960D01*
X1265299Y-309960D02*
X1255775Y-290912D01*
X1255775Y-290912D02*
X1255775Y-271865D01*
X1255775Y-271865D02*
X1265299Y-252817D01*
X1265299Y-252817D02*
X1284347Y-243293D01*
X1284347Y-243293D02*
X1331966Y-243293D01*
X1331966Y-243293D02*
X1351014Y-233769D01*
X1446252Y-186150D02*
X1446252Y-386150D01*
X1446252Y-195674D02*
X1465299Y-186150D01*
X1465299Y-186150D02*
X1503394Y-186150D01*
X1503394Y-186150D02*
X1522442Y-195674D01*
X1522442Y-195674D02*
X1531966Y-205198D01*
X1531966Y-205198D02*
X1541490Y-224246D01*
X1541490Y-224246D02*
X1541490Y-281389D01*
X1541490Y-281389D02*
X1531966Y-300436D01*
X1531966Y-300436D02*
X1522442Y-309960D01*
X1522442Y-309960D02*
X1503394Y-319484D01*
X1503394Y-319484D02*
X1465299Y-319484D01*
X1465299Y-319484D02*
X1446252Y-309960D01*
X1627204Y-300436D02*
X1636728Y-309960D01*
X1636728Y-309960D02*
X1627204Y-319484D01*
X1627204Y-319484D02*
X1617680Y-309960D01*
X1617680Y-309960D02*
X1627204Y-300436D01*
X1627204Y-300436D02*
X1627204Y-319484D01*
X1627204Y-195674D02*
X1636728Y-205198D01*
X1636728Y-205198D02*
X1627204Y-214722D01*
X1627204Y-214722D02*
X1617680Y-205198D01*
X1617680Y-205198D02*
X1627204Y-195674D01*
X1627204Y-195674D02*
X1627204Y-214722D01*
M02*
