G04 #@! TF.GenerationSoftware,KiCad,Pcbnew,7.0.10*
G04 #@! TF.CreationDate,2024-07-16T21:32:39-04:00*
G04 #@! TF.ProjectId,button_transmitter,62757474-6f6e-45f7-9472-616e736d6974,1.0*
G04 #@! TF.SameCoordinates,Original*
G04 #@! TF.FileFunction,Soldermask,Top*
G04 #@! TF.FilePolarity,Negative*
%FSLAX46Y46*%
G04 Gerber Fmt 4.6, Leading zero omitted, Abs format (unit mm)*
G04 Created by KiCad (PCBNEW 7.0.10) date 2024-07-16 21:32:39*
%MOMM*%
%LPD*%
G01*
G04 APERTURE LIST*
G04 Aperture macros list*
%AMRoundRect*
0 Rectangle with rounded corners*
0 $1 Rounding radius*
0 $2 $3 $4 $5 $6 $7 $8 $9 X,Y pos of 4 corners*
0 Add a 4 corners polygon primitive as box body*
4,1,4,$2,$3,$4,$5,$6,$7,$8,$9,$2,$3,0*
0 Add four circle primitives for the rounded corners*
1,1,$1+$1,$2,$3*
1,1,$1+$1,$4,$5*
1,1,$1+$1,$6,$7*
1,1,$1+$1,$8,$9*
0 Add four rect primitives between the rounded corners*
20,1,$1+$1,$2,$3,$4,$5,0*
20,1,$1+$1,$4,$5,$6,$7,0*
20,1,$1+$1,$6,$7,$8,$9,0*
20,1,$1+$1,$8,$9,$2,$3,0*%
%AMFreePoly0*
4,1,6,1.000000,0.000000,0.500000,-0.750000,-0.500000,-0.750000,-0.500000,0.750000,0.500000,0.750000,1.000000,0.000000,1.000000,0.000000,$1*%
%AMFreePoly1*
4,1,6,0.500000,-0.750000,-0.650000,-0.750000,-0.150000,0.000000,-0.650000,0.750000,0.500000,0.750000,0.500000,-0.750000,0.500000,-0.750000,$1*%
G04 Aperture macros list end*
%ADD10C,0.000100*%
%ADD11C,2.484000*%
%ADD12R,1.700000X1.700000*%
%ADD13O,1.700000X1.700000*%
%ADD14FreePoly0,90.000000*%
%ADD15FreePoly1,90.000000*%
%ADD16C,1.524000*%
%ADD17C,2.000000*%
%ADD18R,0.635000X0.635000*%
%ADD19C,0.635000*%
%ADD20FreePoly0,270.000000*%
%ADD21FreePoly1,270.000000*%
%ADD22C,6.400000*%
%ADD23C,2.050000*%
%ADD24C,2.250000*%
%ADD25RoundRect,0.237500X0.287500X0.237500X-0.287500X0.237500X-0.287500X-0.237500X0.287500X-0.237500X0*%
%ADD26RoundRect,0.237500X0.250000X0.237500X-0.250000X0.237500X-0.250000X-0.237500X0.250000X-0.237500X0*%
%ADD27RoundRect,0.237500X-0.300000X-0.237500X0.300000X-0.237500X0.300000X0.237500X-0.300000X0.237500X0*%
%ADD28RoundRect,0.150000X-0.825000X-0.150000X0.825000X-0.150000X0.825000X0.150000X-0.825000X0.150000X0*%
%ADD29RoundRect,0.250000X-0.337500X-0.475000X0.337500X-0.475000X0.337500X0.475000X-0.337500X0.475000X0*%
%ADD30RoundRect,0.237500X-0.250000X-0.237500X0.250000X-0.237500X0.250000X0.237500X-0.250000X0.237500X0*%
%ADD31FreePoly0,180.000000*%
%ADD32FreePoly1,180.000000*%
%ADD33RoundRect,0.237500X0.300000X0.237500X-0.300000X0.237500X-0.300000X-0.237500X0.300000X-0.237500X0*%
%ADD34RoundRect,0.237500X-0.287500X-0.237500X0.287500X-0.237500X0.287500X0.237500X-0.287500X0.237500X0*%
%ADD35RoundRect,0.250000X0.312500X0.625000X-0.312500X0.625000X-0.312500X-0.625000X0.312500X-0.625000X0*%
%ADD36R,1.400000X0.300000*%
%ADD37R,1.200000X1.400000*%
%ADD38C,0.800000*%
G04 APERTURE END LIST*
D10*
X74993046Y-95166541D02*
X75025978Y-95229248D01*
X81479206Y-101701846D01*
X81521445Y-101739808D01*
X81588547Y-101759724D01*
X83885228Y-101759644D01*
X83824010Y-101859014D01*
X83769549Y-102023233D01*
X83758797Y-102126240D01*
X83759465Y-102696449D01*
X83770000Y-102798104D01*
X83823924Y-102962020D01*
X83885010Y-103059999D01*
X81420041Y-103060454D01*
X81408843Y-103060958D01*
X81257491Y-103075990D01*
X81090565Y-103050000D01*
X80940565Y-102980000D01*
X80850565Y-102910000D01*
X73863497Y-95911504D01*
X73823572Y-95864813D01*
X73764700Y-95779549D01*
X73739662Y-95722030D01*
X73700414Y-95623910D01*
X73691617Y-95563007D01*
X73690264Y-95376240D01*
X73690565Y-88650000D01*
X74990565Y-88650000D01*
X74993046Y-95166541D01*
G36*
X74993046Y-95166541D02*
G01*
X75025978Y-95229248D01*
X81479206Y-101701846D01*
X81521445Y-101739808D01*
X81588547Y-101759724D01*
X83885228Y-101759644D01*
X83824010Y-101859014D01*
X83769549Y-102023233D01*
X83758797Y-102126240D01*
X83759465Y-102696449D01*
X83770000Y-102798104D01*
X83823924Y-102962020D01*
X83885010Y-103059999D01*
X81420041Y-103060454D01*
X81408843Y-103060958D01*
X81257491Y-103075990D01*
X81090565Y-103050000D01*
X80940565Y-102980000D01*
X80850565Y-102910000D01*
X73863497Y-95911504D01*
X73823572Y-95864813D01*
X73764700Y-95779549D01*
X73739662Y-95722030D01*
X73700414Y-95623910D01*
X73691617Y-95563007D01*
X73690264Y-95376240D01*
X73690565Y-88650000D01*
X74990565Y-88650000D01*
X74993046Y-95166541D01*
G37*
X83895099Y-109090089D02*
X83875485Y-109121316D01*
X83861821Y-109143356D01*
X83834018Y-109188676D01*
X83779802Y-109352139D01*
X83769386Y-109453406D01*
X83769357Y-110026391D01*
X83779891Y-110127970D01*
X83834010Y-110291623D01*
X83894545Y-110389699D01*
X81618307Y-110390439D01*
X81592033Y-110393168D01*
X81530150Y-110427744D01*
X75010451Y-116950150D01*
X74990000Y-117015413D01*
X74990000Y-123590000D01*
X73690000Y-123590000D01*
X73689548Y-116729248D01*
X73685037Y-116678721D01*
X73690451Y-116614661D01*
X73709398Y-116513157D01*
X73730150Y-116456766D01*
X73774812Y-116366540D01*
X73809549Y-116315111D01*
X73828496Y-116291653D01*
X80849248Y-109262556D01*
X80897068Y-109220601D01*
X80981429Y-109166466D01*
X81037369Y-109137594D01*
X81134362Y-109103759D01*
X81197068Y-109092030D01*
X81259775Y-109088872D01*
X81381129Y-109088872D01*
X83895099Y-109090089D01*
G36*
X83895099Y-109090089D02*
G01*
X83875485Y-109121316D01*
X83861821Y-109143356D01*
X83834018Y-109188676D01*
X83779802Y-109352139D01*
X83769386Y-109453406D01*
X83769357Y-110026391D01*
X83779891Y-110127970D01*
X83834010Y-110291623D01*
X83894545Y-110389699D01*
X81618307Y-110390439D01*
X81592033Y-110393168D01*
X81530150Y-110427744D01*
X75010451Y-116950150D01*
X74990000Y-117015413D01*
X74990000Y-123590000D01*
X73690000Y-123590000D01*
X73689548Y-116729248D01*
X73685037Y-116678721D01*
X73690451Y-116614661D01*
X73709398Y-116513157D01*
X73730150Y-116456766D01*
X73774812Y-116366540D01*
X73809549Y-116315111D01*
X73828496Y-116291653D01*
X80849248Y-109262556D01*
X80897068Y-109220601D01*
X80981429Y-109166466D01*
X81037369Y-109137594D01*
X81134362Y-109103759D01*
X81197068Y-109092030D01*
X81259775Y-109088872D01*
X81381129Y-109088872D01*
X83895099Y-109090089D01*
G37*
X83030405Y-105577271D02*
X82976119Y-105740019D01*
X82966495Y-105836970D01*
X82965980Y-106413592D01*
X82976208Y-106514405D01*
X83006495Y-106606970D01*
X83031031Y-106678850D01*
X83190000Y-106810000D01*
X76840000Y-106800000D01*
X76840785Y-105410000D01*
X83170000Y-105410000D01*
X83030405Y-105577271D01*
G36*
X83030405Y-105577271D02*
G01*
X82976119Y-105740019D01*
X82966495Y-105836970D01*
X82965980Y-106413592D01*
X82976208Y-106514405D01*
X83006495Y-106606970D01*
X83031031Y-106678850D01*
X83190000Y-106810000D01*
X76840000Y-106800000D01*
X76840785Y-105410000D01*
X83170000Y-105410000D01*
X83030405Y-105577271D01*
G37*
D11*
X117029999Y-108329956D03*
X117029999Y-128329956D03*
D12*
X114255000Y-84349999D03*
D13*
X114255000Y-86889999D03*
X111715000Y-84349999D03*
X111715000Y-86889999D03*
X109175000Y-84349999D03*
X109175000Y-86889999D03*
D14*
X92580000Y-119465000D03*
D15*
X92580000Y-118015000D03*
D16*
X101830000Y-127780000D03*
X98830000Y-127780000D03*
X95830000Y-127780000D03*
D17*
X104630000Y-127780000D03*
X93030000Y-127780000D03*
D18*
X112960000Y-91420000D03*
D19*
X112960000Y-92690001D03*
X111689999Y-91420000D03*
X111690002Y-92690000D03*
X110419999Y-91420001D03*
X110419999Y-92690000D03*
D12*
X95429998Y-93130003D03*
D13*
X95429998Y-90590003D03*
X95429998Y-88050003D03*
D12*
X81895000Y-118160000D03*
D13*
X84435000Y-118160000D03*
D20*
X101190000Y-96275000D03*
D21*
X101190000Y-97725000D03*
D22*
X84170000Y-129670000D03*
D23*
X74340000Y-86110000D03*
D24*
X71800000Y-83570000D03*
X71800000Y-88650000D03*
X76880000Y-83570000D03*
X76880000Y-88650000D03*
D25*
X95915000Y-84270000D03*
X94165000Y-84270000D03*
D26*
X85772500Y-106060000D03*
X83947500Y-106060000D03*
X90437498Y-92937496D03*
X88612498Y-92937496D03*
D20*
X103730000Y-96275000D03*
D21*
X103730000Y-97725000D03*
D14*
X90090000Y-119465000D03*
D15*
X90090000Y-118015000D03*
D25*
X90402496Y-95110001D03*
X88652496Y-95110001D03*
D27*
X93845000Y-109830000D03*
X95570000Y-109830000D03*
D28*
X99995000Y-88685000D03*
X99995000Y-89955000D03*
X99995000Y-91225000D03*
X99995000Y-92495000D03*
X104945000Y-92495000D03*
X104945000Y-91225000D03*
X104945000Y-89955000D03*
X104945000Y-88685000D03*
D29*
X93890000Y-111800000D03*
X95965000Y-111800000D03*
D30*
X96410000Y-114320000D03*
X98235000Y-114320000D03*
D22*
X84150000Y-81730000D03*
D26*
X86572500Y-102410000D03*
X84747500Y-102410000D03*
D31*
X103655000Y-80250000D03*
D32*
X102205000Y-80250000D03*
D26*
X90437494Y-88970001D03*
X88612494Y-88970001D03*
D33*
X99992496Y-85624998D03*
X98267496Y-85624998D03*
D22*
X125690000Y-81710000D03*
D25*
X90377498Y-91097496D03*
X88627498Y-91097496D03*
D34*
X96452500Y-116340000D03*
X98202500Y-116340000D03*
D26*
X90444993Y-97130001D03*
X88619993Y-97130001D03*
D23*
X74340000Y-106110000D03*
D24*
X71800000Y-103570000D03*
X71800000Y-108650000D03*
X76880000Y-103570000D03*
X76880000Y-108650000D03*
D35*
X95402500Y-101460000D03*
X92477500Y-101460000D03*
X95402500Y-98980000D03*
X92477500Y-98980000D03*
D36*
X93550000Y-107090000D03*
X93550000Y-106590000D03*
X93550000Y-106090000D03*
X93550000Y-105590000D03*
X93550000Y-105090000D03*
X89150000Y-105090000D03*
X89150000Y-105590000D03*
X89150000Y-106090000D03*
X89150000Y-106590000D03*
X89150000Y-107090000D03*
D23*
X74340000Y-126110000D03*
D24*
X71800000Y-123570000D03*
X71800000Y-128650000D03*
X76880000Y-123570000D03*
X76880000Y-128650000D03*
D26*
X95952500Y-82370000D03*
X94127500Y-82370000D03*
D33*
X89780000Y-111800000D03*
X88055000Y-111800000D03*
D29*
X103792497Y-85624999D03*
X105867497Y-85624999D03*
D25*
X90400000Y-87130000D03*
X88650000Y-87130000D03*
D22*
X125710000Y-129690000D03*
D26*
X86582500Y-109740000D03*
X84757500Y-109740000D03*
D37*
X97835000Y-105440000D03*
X97835000Y-107740000D03*
X99685000Y-107740000D03*
X99685000Y-105440000D03*
D38*
X105220000Y-100220000D03*
X72670000Y-93595000D03*
X98250000Y-95610000D03*
X97835000Y-107740000D03*
X99685000Y-105450000D03*
X86510000Y-111810000D03*
X102130000Y-100220000D03*
X90404998Y-83330002D03*
X88400000Y-109590000D03*
X102470000Y-92850000D03*
X106130000Y-82110000D03*
X76205000Y-112750000D03*
X101730000Y-105396666D03*
X72840000Y-118760000D03*
X91810000Y-110833332D03*
X109020000Y-82110000D03*
X102460000Y-88310000D03*
X91800000Y-108456666D03*
X101710000Y-103200000D03*
X98270000Y-84200000D03*
X88800000Y-102225000D03*
X107450000Y-85640000D03*
X90420000Y-85710000D03*
X101730000Y-107593332D03*
X78335706Y-114821618D03*
X72830000Y-121310000D03*
X81920000Y-100770000D03*
X104040000Y-87330000D03*
X76103334Y-99263334D03*
X79943334Y-98993334D03*
X82020000Y-108420000D03*
X76020000Y-90940000D03*
X102460000Y-94900000D03*
X90520000Y-103680000D03*
X99625000Y-100220000D03*
X104010000Y-102290000D03*
X77887500Y-111020000D03*
X93920000Y-97310000D03*
X97610000Y-109830000D03*
X95700000Y-107770000D03*
X79536666Y-102456668D03*
X91830000Y-113210000D03*
X106430000Y-98150000D03*
X76590000Y-116580000D03*
X107810000Y-92690000D03*
X90880000Y-100810000D03*
X98250000Y-93460000D03*
X99280000Y-103230000D03*
X76500000Y-95800000D03*
X74386666Y-97666668D03*
X84500000Y-100780000D03*
X84170000Y-111220000D03*
X92670000Y-94120000D03*
X102470000Y-90590000D03*
X96650000Y-85630000D03*
X107240000Y-88370000D03*
X85670000Y-104234999D03*
X77820000Y-100860000D03*
X80081412Y-113063236D03*
X75840000Y-118760000D03*
X72670000Y-90940000D03*
X101690000Y-109790000D03*
X87080000Y-100770000D03*
X105870000Y-83940000D03*
X81253334Y-104053334D03*
X85670000Y-107904998D03*
X115900000Y-89570000D03*
X105860000Y-87330000D03*
X106410000Y-95820000D03*
X98270000Y-87110000D03*
X97560000Y-111800000D03*
X92570000Y-90120000D03*
X87290000Y-105450000D03*
X96850000Y-103230000D03*
X75830000Y-121310000D03*
X76020000Y-93595000D03*
X111910000Y-82110000D03*
X81827118Y-111304854D03*
X72840000Y-116210000D03*
X79570000Y-109290000D03*
X74522500Y-114480000D03*
X88050000Y-113320000D03*
X95700000Y-104890000D03*
X72670000Y-96070000D03*
X94932500Y-116340000D03*
X98270000Y-97940000D03*
X97120000Y-100220000D03*
X99737500Y-109830000D03*
X78226666Y-97396668D03*
X107200000Y-89940000D03*
M02*
