G04 #@! TF.GenerationSoftware,KiCad,Pcbnew,7.0.10*
G04 #@! TF.CreationDate,2024-07-16T21:42:12-04:00*
G04 #@! TF.ProjectId,button_transmitter,62757474-6f6e-45f7-9472-616e736d6974,1.0*
G04 #@! TF.SameCoordinates,PX42d7d10PY7f6ba10*
G04 #@! TF.FileFunction,Paste,Top*
G04 #@! TF.FilePolarity,Positive*
%FSLAX46Y46*%
G04 Gerber Fmt 4.6, Leading zero omitted, Abs format (unit mm)*
G04 Created by KiCad (PCBNEW 7.0.10) date 2024-07-16 21:42:12*
%MOMM*%
%LPD*%
G01*
G04 APERTURE LIST*
G04 Aperture macros list*
%AMRoundRect*
0 Rectangle with rounded corners*
0 $1 Rounding radius*
0 $2 $3 $4 $5 $6 $7 $8 $9 X,Y pos of 4 corners*
0 Add a 4 corners polygon primitive as box body*
4,1,4,$2,$3,$4,$5,$6,$7,$8,$9,$2,$3,0*
0 Add four circle primitives for the rounded corners*
1,1,$1+$1,$2,$3*
1,1,$1+$1,$4,$5*
1,1,$1+$1,$6,$7*
1,1,$1+$1,$8,$9*
0 Add four rect primitives between the rounded corners*
20,1,$1+$1,$2,$3,$4,$5,0*
20,1,$1+$1,$4,$5,$6,$7,0*
20,1,$1+$1,$6,$7,$8,$9,0*
20,1,$1+$1,$8,$9,$2,$3,0*%
G04 Aperture macros list end*
%ADD10C,0.635000*%
%ADD11RoundRect,0.237500X0.287500X0.237500X-0.287500X0.237500X-0.287500X-0.237500X0.287500X-0.237500X0*%
%ADD12RoundRect,0.237500X0.250000X0.237500X-0.250000X0.237500X-0.250000X-0.237500X0.250000X-0.237500X0*%
%ADD13RoundRect,0.237500X-0.300000X-0.237500X0.300000X-0.237500X0.300000X0.237500X-0.300000X0.237500X0*%
%ADD14RoundRect,0.150000X-0.825000X-0.150000X0.825000X-0.150000X0.825000X0.150000X-0.825000X0.150000X0*%
%ADD15RoundRect,0.250000X-0.337500X-0.475000X0.337500X-0.475000X0.337500X0.475000X-0.337500X0.475000X0*%
%ADD16RoundRect,0.237500X-0.250000X-0.237500X0.250000X-0.237500X0.250000X0.237500X-0.250000X0.237500X0*%
%ADD17RoundRect,0.237500X0.300000X0.237500X-0.300000X0.237500X-0.300000X-0.237500X0.300000X-0.237500X0*%
%ADD18RoundRect,0.237500X-0.287500X-0.237500X0.287500X-0.237500X0.287500X0.237500X-0.287500X0.237500X0*%
%ADD19RoundRect,0.250000X0.312500X0.625000X-0.312500X0.625000X-0.312500X-0.625000X0.312500X-0.625000X0*%
%ADD20R,1.400000X0.300000*%
%ADD21R,1.200000X1.400000*%
G04 APERTURE END LIST*
D10*
X42870000Y40919999D03*
X41599999Y42190000D03*
X41600002Y40920000D03*
X40329999Y42189999D03*
D11*
X25825000Y49340000D03*
X24075000Y49340000D03*
D12*
X15682500Y27550000D03*
X13857500Y27550000D03*
X20347498Y40672504D03*
X18522498Y40672504D03*
D11*
X20312496Y38499999D03*
X18562496Y38499999D03*
D13*
X23755000Y23780000D03*
X25480000Y23780000D03*
D14*
X29905000Y44925000D03*
X29905000Y43655000D03*
X29905000Y42385000D03*
X29905000Y41115000D03*
X34855000Y41115000D03*
X34855000Y42385000D03*
X34855000Y43655000D03*
X34855000Y44925000D03*
D15*
X23800000Y21810000D03*
X25875000Y21810000D03*
D16*
X26320000Y19290000D03*
X28145000Y19290000D03*
D12*
X16482500Y31200000D03*
X14657500Y31200000D03*
X20347494Y44639999D03*
X18522494Y44639999D03*
D17*
X29902496Y47985002D03*
X28177496Y47985002D03*
D11*
X20287498Y42512504D03*
X18537498Y42512504D03*
D18*
X26362500Y17270000D03*
X28112500Y17270000D03*
D12*
X20354993Y36479999D03*
X18529993Y36479999D03*
D19*
X25312500Y32150000D03*
X22387500Y32150000D03*
X25312500Y34630000D03*
X22387500Y34630000D03*
D20*
X23460000Y26520000D03*
X23460000Y27020000D03*
X23460000Y27520000D03*
X23460000Y28020000D03*
X23460000Y28520000D03*
X19060000Y28520000D03*
X19060000Y28020000D03*
X19060000Y27520000D03*
X19060000Y27020000D03*
X19060000Y26520000D03*
D12*
X25862500Y51240000D03*
X24037500Y51240000D03*
D17*
X19690000Y21810000D03*
X17965000Y21810000D03*
D15*
X33702497Y47985001D03*
X35777497Y47985001D03*
D11*
X20310000Y46480000D03*
X18560000Y46480000D03*
D12*
X16492500Y23870000D03*
X14667500Y23870000D03*
D21*
X27745000Y28170000D03*
X27745000Y25870000D03*
X29595000Y25870000D03*
X29595000Y28170000D03*
M02*
