G04 #@! TF.GenerationSoftware,KiCad,Pcbnew,7.0.10*
G04 #@! TF.CreationDate,2024-07-16T21:32:39-04:00*
G04 #@! TF.ProjectId,button_transmitter,62757474-6f6e-45f7-9472-616e736d6974,1.0*
G04 #@! TF.SameCoordinates,Original*
G04 #@! TF.FileFunction,Copper,L2,Bot*
G04 #@! TF.FilePolarity,Positive*
%FSLAX46Y46*%
G04 Gerber Fmt 4.6, Leading zero omitted, Abs format (unit mm)*
G04 Created by KiCad (PCBNEW 7.0.10) date 2024-07-16 21:32:39*
%MOMM*%
%LPD*%
G01*
G04 APERTURE LIST*
G04 #@! TA.AperFunction,ComponentPad*
%ADD10C,2.280000*%
G04 #@! TD*
G04 #@! TA.AperFunction,ComponentPad*
%ADD11R,1.700000X1.700000*%
G04 #@! TD*
G04 #@! TA.AperFunction,ComponentPad*
%ADD12O,1.700000X1.700000*%
G04 #@! TD*
G04 #@! TA.AperFunction,ComponentPad*
%ADD13C,1.524000*%
G04 #@! TD*
G04 #@! TA.AperFunction,ComponentPad*
%ADD14C,2.000000*%
G04 #@! TD*
G04 #@! TA.AperFunction,ComponentPad*
%ADD15R,0.635000X0.635000*%
G04 #@! TD*
G04 #@! TA.AperFunction,ComponentPad*
%ADD16C,0.635000*%
G04 #@! TD*
G04 #@! TA.AperFunction,ComponentPad*
%ADD17C,6.400000*%
G04 #@! TD*
G04 #@! TA.AperFunction,ComponentPad*
%ADD18C,2.050000*%
G04 #@! TD*
G04 #@! TA.AperFunction,ComponentPad*
%ADD19C,2.250000*%
G04 #@! TD*
G04 #@! TA.AperFunction,ViaPad*
%ADD20C,0.800000*%
G04 #@! TD*
G04 #@! TA.AperFunction,Conductor*
%ADD21C,0.300000*%
G04 #@! TD*
G04 APERTURE END LIST*
D10*
X117029999Y-108329956D03*
X117029999Y-128329956D03*
D11*
X114255000Y-84349999D03*
D12*
X114255000Y-86889999D03*
X111715000Y-84349999D03*
X111715000Y-86889999D03*
X109175000Y-84349999D03*
X109175000Y-86889999D03*
D13*
X101830000Y-127780000D03*
X98830000Y-127780000D03*
X95830000Y-127780000D03*
D14*
X104630000Y-127780000D03*
X93030000Y-127780000D03*
D15*
X112960000Y-91420000D03*
D16*
X110419999Y-92690000D03*
D11*
X95429998Y-93130003D03*
D12*
X95429998Y-90590003D03*
X95429998Y-88050003D03*
D11*
X81895000Y-118160000D03*
D12*
X84435000Y-118160000D03*
D17*
X84170000Y-129670000D03*
D18*
X74340000Y-86110000D03*
D19*
X71800000Y-83570000D03*
X71800000Y-88650000D03*
X76880000Y-83570000D03*
X76880000Y-88650000D03*
D17*
X84150000Y-81730000D03*
X125690000Y-81710000D03*
D18*
X74340000Y-106110000D03*
D19*
X71800000Y-103570000D03*
X71800000Y-108650000D03*
X76880000Y-103570000D03*
X76880000Y-108650000D03*
D18*
X74340000Y-126110000D03*
D19*
X71800000Y-123570000D03*
X71800000Y-128650000D03*
X76880000Y-123570000D03*
X76880000Y-128650000D03*
D17*
X125710000Y-129690000D03*
D20*
X105220000Y-100220000D03*
X72670000Y-93595000D03*
X98250000Y-95610000D03*
X97835000Y-107740000D03*
X99685000Y-105450000D03*
X86510000Y-111810000D03*
X102130000Y-100220000D03*
X90404998Y-83330002D03*
X88400000Y-109590000D03*
X102470000Y-92850000D03*
X106130000Y-82110000D03*
X76205000Y-112750000D03*
X101730000Y-105396666D03*
X72840000Y-118760000D03*
X91810000Y-110833332D03*
X109020000Y-82110000D03*
X102460000Y-88310000D03*
X91800000Y-108456666D03*
X101710000Y-103200000D03*
X98270000Y-84200000D03*
X88800000Y-102225000D03*
X107450000Y-85640000D03*
X90420000Y-85710000D03*
X101730000Y-107593332D03*
X78335706Y-114821618D03*
X72830000Y-121310000D03*
X81920000Y-100770000D03*
X104040000Y-87330000D03*
X76103334Y-99263334D03*
X79943334Y-98993334D03*
X82020000Y-108420000D03*
X76020000Y-90940000D03*
X102460000Y-94900000D03*
X90520000Y-103680000D03*
X99625000Y-100220000D03*
X104010000Y-102290000D03*
X77887500Y-111020000D03*
X93920000Y-97310000D03*
X97610000Y-109830000D03*
X95700000Y-107770000D03*
X79536666Y-102456668D03*
X91830000Y-113210000D03*
X106430000Y-98150000D03*
X76590000Y-116580000D03*
X107810000Y-92690000D03*
X90880000Y-100810000D03*
X98250000Y-93460000D03*
X99280000Y-103230000D03*
X76500000Y-95800000D03*
X74386666Y-97666668D03*
X84500000Y-100780000D03*
X84170000Y-111220000D03*
X92670000Y-94120000D03*
X102470000Y-90590000D03*
X96650000Y-85630000D03*
X107240000Y-88370000D03*
X85670000Y-104234999D03*
X77820000Y-100860000D03*
X80081412Y-113063236D03*
X75840000Y-118760000D03*
X72670000Y-90940000D03*
X101690000Y-109790000D03*
X87080000Y-100770000D03*
X105870000Y-83940000D03*
X81253334Y-104053334D03*
X85670000Y-107904998D03*
X115900000Y-89570000D03*
X105860000Y-87330000D03*
X106410000Y-95820000D03*
X98270000Y-87110000D03*
X97560000Y-111800000D03*
X92570000Y-90120000D03*
X87290000Y-105450000D03*
X96850000Y-103230000D03*
X75830000Y-121310000D03*
X76020000Y-93595000D03*
X111910000Y-82110000D03*
X81827118Y-111304854D03*
X72840000Y-116210000D03*
X79570000Y-109290000D03*
X74522500Y-114480000D03*
X88050000Y-113320000D03*
X95700000Y-104890000D03*
X72670000Y-96070000D03*
X94932500Y-116340000D03*
X98270000Y-97940000D03*
X97120000Y-100220000D03*
X99737500Y-109830000D03*
X78226666Y-97396668D03*
X107200000Y-89940000D03*
D21*
X96799995Y-89420000D02*
X95429998Y-88050003D01*
X107200000Y-89940000D02*
X106680000Y-89420000D01*
X106680000Y-89420000D02*
X96799995Y-89420000D01*
G04 #@! TA.AperFunction,Conductor*
G36*
X126417789Y-77760888D02*
G01*
X126548604Y-77767744D01*
X126560251Y-77768911D01*
X126724408Y-77793261D01*
X126725510Y-77793431D01*
X126894817Y-77820247D01*
X126905498Y-77822425D01*
X127069287Y-77863452D01*
X127070950Y-77863883D01*
X127233884Y-77907541D01*
X127243544Y-77910558D01*
X127403601Y-77967827D01*
X127406109Y-77968757D01*
X127562349Y-78028732D01*
X127570877Y-78032379D01*
X127725102Y-78105322D01*
X127728264Y-78106875D01*
X127876815Y-78182565D01*
X127884240Y-78186676D01*
X127967930Y-78236838D01*
X128030802Y-78274522D01*
X128034588Y-78276885D01*
X128174036Y-78367444D01*
X128180367Y-78371841D01*
X128317780Y-78473753D01*
X128321909Y-78476954D01*
X128451025Y-78581509D01*
X128456253Y-78585990D01*
X128583066Y-78700927D01*
X128587474Y-78705124D01*
X128704873Y-78822523D01*
X128709070Y-78826931D01*
X128812542Y-78941095D01*
X128824007Y-78953744D01*
X128828495Y-78958981D01*
X128933028Y-79088068D01*
X128936260Y-79092238D01*
X129038156Y-79229630D01*
X129042553Y-79235961D01*
X129133112Y-79375409D01*
X129135475Y-79379195D01*
X129223314Y-79525745D01*
X129227441Y-79533199D01*
X129303085Y-79681659D01*
X129304695Y-79684937D01*
X129377610Y-79839102D01*
X129381279Y-79847681D01*
X129441217Y-80003824D01*
X129442178Y-80006417D01*
X129491697Y-80144812D01*
X129499437Y-80166443D01*
X129502460Y-80176123D01*
X129546064Y-80338854D01*
X129546573Y-80340818D01*
X129587567Y-80504474D01*
X129589756Y-80515206D01*
X129616573Y-80684518D01*
X129616758Y-80685722D01*
X129641082Y-80849703D01*
X129642254Y-80861408D01*
X129652024Y-81047844D01*
X129652045Y-81048249D01*
X129659348Y-81196904D01*
X129659497Y-81202988D01*
X129659499Y-129618481D01*
X129639814Y-129685520D01*
X129632653Y-129691724D01*
X129656141Y-129732858D01*
X129659499Y-129761518D01*
X129659499Y-130186947D01*
X129659350Y-130193031D01*
X129652014Y-130342361D01*
X129651993Y-130342766D01*
X129642256Y-130528576D01*
X129641084Y-130540282D01*
X129616746Y-130704347D01*
X129616561Y-130705550D01*
X129589756Y-130874791D01*
X129587567Y-130885523D01*
X129546580Y-131049152D01*
X129546071Y-131051116D01*
X129502461Y-131213870D01*
X129499438Y-131223550D01*
X129442193Y-131383541D01*
X129441205Y-131386205D01*
X129381280Y-131542315D01*
X129377611Y-131550894D01*
X129304691Y-131705070D01*
X129303081Y-131708348D01*
X129227448Y-131856785D01*
X129223322Y-131864238D01*
X129135472Y-132010809D01*
X129133108Y-132014597D01*
X129042550Y-132154043D01*
X129038153Y-132160373D01*
X128936264Y-132297756D01*
X128933032Y-132301926D01*
X128828494Y-132431019D01*
X128824006Y-132436256D01*
X128709070Y-132563068D01*
X128704873Y-132567476D01*
X128587476Y-132684873D01*
X128583068Y-132689070D01*
X128456256Y-132804006D01*
X128451019Y-132808494D01*
X128321926Y-132913032D01*
X128317756Y-132916264D01*
X128180373Y-133018153D01*
X128174043Y-133022550D01*
X128034597Y-133113108D01*
X128030809Y-133115472D01*
X127884238Y-133203322D01*
X127876785Y-133207448D01*
X127728348Y-133283081D01*
X127725070Y-133284691D01*
X127570894Y-133357611D01*
X127562315Y-133361280D01*
X127406205Y-133421205D01*
X127403541Y-133422193D01*
X127243550Y-133479438D01*
X127233870Y-133482461D01*
X127071116Y-133526071D01*
X127069152Y-133526580D01*
X126905523Y-133567567D01*
X126894791Y-133569756D01*
X126725536Y-133596564D01*
X126724332Y-133596749D01*
X126560282Y-133621083D01*
X126548577Y-133622255D01*
X126362739Y-133631994D01*
X126362334Y-133632015D01*
X126233836Y-133638327D01*
X126227697Y-133638476D01*
X125804569Y-133638289D01*
X125737538Y-133618575D01*
X125710063Y-133586839D01*
X125703095Y-133600200D01*
X125642420Y-133634846D01*
X125613705Y-133638204D01*
X87424967Y-133621270D01*
X87424966Y-133621270D01*
X84560000Y-133620000D01*
X84559952Y-133354357D01*
X84940323Y-133294113D01*
X84940330Y-133294112D01*
X85314936Y-133193737D01*
X85676994Y-133054755D01*
X86022543Y-132878689D01*
X86347783Y-132667476D01*
X86347785Y-132667475D01*
X86605349Y-132458902D01*
X85114180Y-130967733D01*
X85304870Y-130804870D01*
X85467733Y-130614180D01*
X86958902Y-132105349D01*
X87167475Y-131847785D01*
X87167476Y-131847783D01*
X87378689Y-131522543D01*
X87554755Y-131176994D01*
X87693737Y-130814936D01*
X87794112Y-130440330D01*
X87794113Y-130440323D01*
X87854780Y-130057287D01*
X87875078Y-129670000D01*
X87875078Y-129669999D01*
X87854780Y-129282712D01*
X87794113Y-128899676D01*
X87794112Y-128899669D01*
X87693737Y-128525063D01*
X87554755Y-128163005D01*
X87378689Y-127817456D01*
X87354368Y-127780005D01*
X91524859Y-127780005D01*
X91545385Y-128027729D01*
X91545387Y-128027738D01*
X91606412Y-128268717D01*
X91706266Y-128496364D01*
X91806564Y-128649882D01*
X92352804Y-128103642D01*
X92376059Y-128157553D01*
X92480756Y-128298185D01*
X92615062Y-128410882D01*
X92706665Y-128456886D01*
X92159942Y-129003609D01*
X92206768Y-129040055D01*
X92206770Y-129040056D01*
X92425385Y-129158364D01*
X92425396Y-129158369D01*
X92660506Y-129239083D01*
X92905707Y-129280000D01*
X93154293Y-129280000D01*
X93399493Y-129239083D01*
X93634603Y-129158369D01*
X93634614Y-129158364D01*
X93853228Y-129040057D01*
X93853231Y-129040055D01*
X93900056Y-129003609D01*
X93355945Y-128459498D01*
X93368891Y-128454787D01*
X93515373Y-128358445D01*
X93635688Y-128230918D01*
X93708446Y-128104894D01*
X94253434Y-128649882D01*
X94353731Y-128496369D01*
X94445901Y-128286241D01*
X94490857Y-128232755D01*
X94557592Y-128212065D01*
X94624920Y-128230739D01*
X94671464Y-128282849D01*
X94671816Y-128283597D01*
X94706718Y-128358445D01*
X94732466Y-128413662D01*
X94732468Y-128413666D01*
X94859170Y-128594615D01*
X94859175Y-128594621D01*
X95015378Y-128750824D01*
X95015384Y-128750829D01*
X95196333Y-128877531D01*
X95196335Y-128877532D01*
X95196338Y-128877534D01*
X95396550Y-128970894D01*
X95609932Y-129028070D01*
X95767123Y-129041822D01*
X95829998Y-129047323D01*
X95830000Y-129047323D01*
X95830002Y-129047323D01*
X95885017Y-129042509D01*
X96050068Y-129028070D01*
X96263450Y-128970894D01*
X96463662Y-128877534D01*
X96644620Y-128750826D01*
X96800826Y-128594620D01*
X96927534Y-128413662D01*
X97020894Y-128213450D01*
X97078070Y-128000068D01*
X97097323Y-127780002D01*
X97562677Y-127780002D01*
X97581929Y-128000062D01*
X97581930Y-128000070D01*
X97639104Y-128213445D01*
X97639105Y-128213447D01*
X97639106Y-128213450D01*
X97706718Y-128358445D01*
X97732466Y-128413662D01*
X97732468Y-128413666D01*
X97859170Y-128594615D01*
X97859175Y-128594621D01*
X98015378Y-128750824D01*
X98015384Y-128750829D01*
X98196333Y-128877531D01*
X98196335Y-128877532D01*
X98196338Y-128877534D01*
X98396550Y-128970894D01*
X98609932Y-129028070D01*
X98767123Y-129041822D01*
X98829998Y-129047323D01*
X98830000Y-129047323D01*
X98830002Y-129047323D01*
X98885017Y-129042509D01*
X99050068Y-129028070D01*
X99263450Y-128970894D01*
X99463662Y-128877534D01*
X99644620Y-128750826D01*
X99800826Y-128594620D01*
X99927534Y-128413662D01*
X100020894Y-128213450D01*
X100078070Y-128000068D01*
X100097323Y-127780002D01*
X100562677Y-127780002D01*
X100581929Y-128000062D01*
X100581930Y-128000070D01*
X100639104Y-128213445D01*
X100639105Y-128213447D01*
X100639106Y-128213450D01*
X100706718Y-128358445D01*
X100732466Y-128413662D01*
X100732468Y-128413666D01*
X100859170Y-128594615D01*
X100859175Y-128594621D01*
X101015378Y-128750824D01*
X101015384Y-128750829D01*
X101196333Y-128877531D01*
X101196335Y-128877532D01*
X101196338Y-128877534D01*
X101396550Y-128970894D01*
X101609932Y-129028070D01*
X101767123Y-129041822D01*
X101829998Y-129047323D01*
X101830000Y-129047323D01*
X101830002Y-129047323D01*
X101885017Y-129042509D01*
X102050068Y-129028070D01*
X102263450Y-128970894D01*
X102463662Y-128877534D01*
X102644620Y-128750826D01*
X102800826Y-128594620D01*
X102927534Y-128413662D01*
X102988162Y-128283642D01*
X103034331Y-128231207D01*
X103101525Y-128212055D01*
X103168406Y-128232270D01*
X103213741Y-128285435D01*
X103214098Y-128286241D01*
X103306266Y-128496364D01*
X103406564Y-128649882D01*
X103952804Y-128103642D01*
X103976059Y-128157553D01*
X104080756Y-128298185D01*
X104215062Y-128410882D01*
X104306665Y-128456886D01*
X103759942Y-129003609D01*
X103806768Y-129040055D01*
X103806770Y-129040056D01*
X104025385Y-129158364D01*
X104025396Y-129158369D01*
X104260506Y-129239083D01*
X104505707Y-129280000D01*
X104754293Y-129280000D01*
X104999493Y-129239083D01*
X105234603Y-129158369D01*
X105234614Y-129158364D01*
X105453228Y-129040057D01*
X105453231Y-129040055D01*
X105500056Y-129003609D01*
X104955945Y-128459498D01*
X104968891Y-128454787D01*
X105115373Y-128358445D01*
X105235688Y-128230918D01*
X105308446Y-128104894D01*
X105853434Y-128649882D01*
X105953731Y-128496369D01*
X106026725Y-128329956D01*
X115384426Y-128329956D01*
X115404686Y-128587383D01*
X115464963Y-128838456D01*
X115464967Y-128838468D01*
X115563780Y-129077026D01*
X115563782Y-129077030D01*
X115563783Y-129077031D01*
X115698702Y-129297200D01*
X115866403Y-129493552D01*
X116062755Y-129661253D01*
X116282924Y-129796172D01*
X116282926Y-129796172D01*
X116282928Y-129796174D01*
X116357311Y-129826984D01*
X116521489Y-129894989D01*
X116772575Y-129955269D01*
X117029999Y-129975529D01*
X117287423Y-129955269D01*
X117538509Y-129894989D01*
X117777074Y-129796172D01*
X117950332Y-129690000D01*
X122004922Y-129690000D01*
X122025219Y-130077287D01*
X122085886Y-130460323D01*
X122085887Y-130460330D01*
X122186262Y-130834936D01*
X122325244Y-131196994D01*
X122501310Y-131542543D01*
X122712531Y-131867793D01*
X122921095Y-132125350D01*
X122921096Y-132125350D01*
X124412266Y-130634180D01*
X124575130Y-130824870D01*
X124765819Y-130987733D01*
X123274648Y-132478903D01*
X123274649Y-132478904D01*
X123532206Y-132687468D01*
X123857456Y-132898689D01*
X124203005Y-133074755D01*
X124565063Y-133213737D01*
X124939669Y-133314112D01*
X124939676Y-133314113D01*
X125322712Y-133374780D01*
X125620250Y-133390374D01*
X125686167Y-133413540D01*
X125707399Y-133440804D01*
X125710947Y-133433045D01*
X125769742Y-133395296D01*
X125798134Y-133390459D01*
X126097287Y-133374780D01*
X126480323Y-133314113D01*
X126480330Y-133314112D01*
X126854936Y-133213737D01*
X127216994Y-133074755D01*
X127562543Y-132898689D01*
X127887783Y-132687476D01*
X127887785Y-132687475D01*
X128145349Y-132478902D01*
X126654180Y-130987733D01*
X126844870Y-130824870D01*
X127007733Y-130634180D01*
X128498902Y-132125349D01*
X128707475Y-131867785D01*
X128707476Y-131867783D01*
X128918689Y-131542543D01*
X129094755Y-131196994D01*
X129233737Y-130834936D01*
X129334112Y-130460330D01*
X129334113Y-130460323D01*
X129394780Y-130077287D01*
X129411669Y-129755029D01*
X129434835Y-129689111D01*
X129437918Y-129686709D01*
X129416522Y-129653416D01*
X129411669Y-129624970D01*
X129394780Y-129302712D01*
X129334113Y-128919676D01*
X129334112Y-128919669D01*
X129233737Y-128545063D01*
X129094755Y-128183005D01*
X128918689Y-127837456D01*
X128707468Y-127512206D01*
X128498904Y-127254649D01*
X128498903Y-127254648D01*
X127007732Y-128745818D01*
X126844870Y-128555130D01*
X126654180Y-128392266D01*
X128145350Y-126901096D01*
X128145350Y-126901095D01*
X127887793Y-126692531D01*
X127562543Y-126481310D01*
X127216994Y-126305244D01*
X126854936Y-126166262D01*
X126480330Y-126065887D01*
X126480323Y-126065886D01*
X126097287Y-126005219D01*
X125710001Y-125984922D01*
X125709999Y-125984922D01*
X125322712Y-126005219D01*
X124939676Y-126065886D01*
X124939669Y-126065887D01*
X124565063Y-126166262D01*
X124203005Y-126305244D01*
X123857456Y-126481310D01*
X123532206Y-126692531D01*
X123274648Y-126901095D01*
X123274648Y-126901096D01*
X124765819Y-128392266D01*
X124575130Y-128555130D01*
X124412266Y-128745818D01*
X122921096Y-127254648D01*
X122921095Y-127254648D01*
X122712531Y-127512206D01*
X122501310Y-127837456D01*
X122325244Y-128183005D01*
X122186262Y-128545063D01*
X122085887Y-128919669D01*
X122085886Y-128919676D01*
X122025219Y-129302712D01*
X122004922Y-129689999D01*
X122004922Y-129690000D01*
X117950332Y-129690000D01*
X117997243Y-129661253D01*
X118193595Y-129493552D01*
X118361296Y-129297200D01*
X118496215Y-129077031D01*
X118595032Y-128838466D01*
X118655312Y-128587380D01*
X118675572Y-128329956D01*
X118655312Y-128072532D01*
X118595032Y-127821446D01*
X118527027Y-127657268D01*
X118496217Y-127582885D01*
X118482151Y-127559932D01*
X118361296Y-127362712D01*
X118193595Y-127166360D01*
X117997243Y-126998659D01*
X117777074Y-126863740D01*
X117777073Y-126863739D01*
X117777069Y-126863737D01*
X117538511Y-126764924D01*
X117538513Y-126764924D01*
X117538509Y-126764923D01*
X117538505Y-126764922D01*
X117538499Y-126764920D01*
X117287426Y-126704643D01*
X117029999Y-126684383D01*
X116772571Y-126704643D01*
X116521498Y-126764920D01*
X116521486Y-126764924D01*
X116282928Y-126863737D01*
X116062754Y-126998659D01*
X115866403Y-127166360D01*
X115698702Y-127362711D01*
X115563780Y-127582885D01*
X115464967Y-127821443D01*
X115464963Y-127821455D01*
X115404686Y-128072528D01*
X115384426Y-128329956D01*
X106026725Y-128329956D01*
X106053587Y-128268717D01*
X106114612Y-128027738D01*
X106114614Y-128027729D01*
X106135141Y-127780005D01*
X106135141Y-127779994D01*
X106114614Y-127532270D01*
X106114612Y-127532261D01*
X106053587Y-127291282D01*
X105953731Y-127063630D01*
X105853434Y-126910116D01*
X105307195Y-127456356D01*
X105283941Y-127402447D01*
X105179244Y-127261815D01*
X105044938Y-127149118D01*
X104953334Y-127103113D01*
X105500057Y-126556390D01*
X105500056Y-126556389D01*
X105453229Y-126519943D01*
X105234614Y-126401635D01*
X105234603Y-126401630D01*
X104999493Y-126320916D01*
X104754293Y-126280000D01*
X104505707Y-126280000D01*
X104260506Y-126320916D01*
X104025396Y-126401630D01*
X104025390Y-126401632D01*
X103806761Y-126519949D01*
X103759942Y-126556388D01*
X103759942Y-126556390D01*
X104304054Y-127100501D01*
X104291109Y-127105213D01*
X104144627Y-127201555D01*
X104024312Y-127329082D01*
X103951553Y-127455105D01*
X103406564Y-126910116D01*
X103306267Y-127063632D01*
X103214098Y-127273758D01*
X103169142Y-127327244D01*
X103102406Y-127347934D01*
X103035078Y-127329259D01*
X102988535Y-127277149D01*
X102988216Y-127276472D01*
X102927534Y-127146339D01*
X102800826Y-126965380D01*
X102644620Y-126809174D01*
X102644616Y-126809171D01*
X102644615Y-126809170D01*
X102463666Y-126682468D01*
X102463662Y-126682466D01*
X102442356Y-126672531D01*
X102263450Y-126589106D01*
X102263447Y-126589105D01*
X102263445Y-126589104D01*
X102050070Y-126531930D01*
X102050062Y-126531929D01*
X101830002Y-126512677D01*
X101829998Y-126512677D01*
X101609937Y-126531929D01*
X101609929Y-126531930D01*
X101396554Y-126589104D01*
X101396548Y-126589107D01*
X101196340Y-126682465D01*
X101196338Y-126682466D01*
X101015377Y-126809175D01*
X100859175Y-126965377D01*
X100732466Y-127146338D01*
X100732465Y-127146340D01*
X100639107Y-127346548D01*
X100639104Y-127346554D01*
X100581930Y-127559929D01*
X100581929Y-127559937D01*
X100562677Y-127779997D01*
X100562677Y-127780002D01*
X100097323Y-127780002D01*
X100097323Y-127780000D01*
X100097322Y-127779994D01*
X100080078Y-127582885D01*
X100078070Y-127559932D01*
X100020894Y-127346550D01*
X99927534Y-127146339D01*
X99800826Y-126965380D01*
X99644620Y-126809174D01*
X99644616Y-126809171D01*
X99644615Y-126809170D01*
X99463666Y-126682468D01*
X99463662Y-126682466D01*
X99442356Y-126672531D01*
X99263450Y-126589106D01*
X99263447Y-126589105D01*
X99263445Y-126589104D01*
X99050070Y-126531930D01*
X99050062Y-126531929D01*
X98830002Y-126512677D01*
X98829998Y-126512677D01*
X98609937Y-126531929D01*
X98609929Y-126531930D01*
X98396554Y-126589104D01*
X98396548Y-126589107D01*
X98196340Y-126682465D01*
X98196338Y-126682466D01*
X98015377Y-126809175D01*
X97859175Y-126965377D01*
X97732466Y-127146338D01*
X97732465Y-127146340D01*
X97639107Y-127346548D01*
X97639104Y-127346554D01*
X97581930Y-127559929D01*
X97581929Y-127559937D01*
X97562677Y-127779997D01*
X97562677Y-127780002D01*
X97097323Y-127780002D01*
X97097323Y-127780000D01*
X97097322Y-127779994D01*
X97080078Y-127582885D01*
X97078070Y-127559932D01*
X97020894Y-127346550D01*
X96927534Y-127146339D01*
X96800826Y-126965380D01*
X96644620Y-126809174D01*
X96644616Y-126809171D01*
X96644615Y-126809170D01*
X96463666Y-126682468D01*
X96463662Y-126682466D01*
X96442356Y-126672531D01*
X96263450Y-126589106D01*
X96263447Y-126589105D01*
X96263445Y-126589104D01*
X96050070Y-126531930D01*
X96050062Y-126531929D01*
X95830002Y-126512677D01*
X95829998Y-126512677D01*
X95609937Y-126531929D01*
X95609929Y-126531930D01*
X95396554Y-126589104D01*
X95396548Y-126589107D01*
X95196340Y-126682465D01*
X95196338Y-126682466D01*
X95015377Y-126809175D01*
X94859175Y-126965377D01*
X94732466Y-127146338D01*
X94732465Y-127146340D01*
X94671839Y-127276353D01*
X94625666Y-127328792D01*
X94558473Y-127347944D01*
X94491592Y-127327728D01*
X94446257Y-127274562D01*
X94445901Y-127273758D01*
X94353731Y-127063630D01*
X94253434Y-126910116D01*
X93707195Y-127456356D01*
X93683941Y-127402447D01*
X93579244Y-127261815D01*
X93444938Y-127149118D01*
X93353334Y-127103113D01*
X93900057Y-126556390D01*
X93900056Y-126556389D01*
X93853229Y-126519943D01*
X93634614Y-126401635D01*
X93634603Y-126401630D01*
X93399493Y-126320916D01*
X93154293Y-126280000D01*
X92905707Y-126280000D01*
X92660506Y-126320916D01*
X92425396Y-126401630D01*
X92425390Y-126401632D01*
X92206761Y-126519949D01*
X92159942Y-126556388D01*
X92159942Y-126556390D01*
X92704054Y-127100501D01*
X92691109Y-127105213D01*
X92544627Y-127201555D01*
X92424312Y-127329082D01*
X92351553Y-127455105D01*
X91806564Y-126910116D01*
X91706267Y-127063632D01*
X91606412Y-127291282D01*
X91545387Y-127532261D01*
X91545385Y-127532270D01*
X91524859Y-127779994D01*
X91524859Y-127780005D01*
X87354368Y-127780005D01*
X87167468Y-127492206D01*
X86958904Y-127234649D01*
X86958903Y-127234648D01*
X85467732Y-128725818D01*
X85304870Y-128535130D01*
X85114179Y-128372265D01*
X86605350Y-126881096D01*
X86605350Y-126881095D01*
X86347793Y-126672531D01*
X86022543Y-126461310D01*
X85676994Y-126285244D01*
X85314936Y-126146262D01*
X84940330Y-126045887D01*
X84940323Y-126045886D01*
X84558633Y-125985432D01*
X84557319Y-118647555D01*
X84577315Y-118644680D01*
X84685000Y-118595501D01*
X84685000Y-119490633D01*
X84898483Y-119433433D01*
X84898492Y-119433429D01*
X85112578Y-119333600D01*
X85306082Y-119198105D01*
X85473105Y-119031082D01*
X85608600Y-118837578D01*
X85708429Y-118623492D01*
X85708432Y-118623486D01*
X85765636Y-118410000D01*
X84868686Y-118410000D01*
X84894493Y-118369844D01*
X84935000Y-118231889D01*
X84935000Y-118088111D01*
X84894493Y-117950156D01*
X84868686Y-117910000D01*
X85765636Y-117910000D01*
X85765635Y-117909999D01*
X85708432Y-117696513D01*
X85708429Y-117696507D01*
X85608600Y-117482422D01*
X85608599Y-117482420D01*
X85473113Y-117288926D01*
X85473108Y-117288920D01*
X85306082Y-117121894D01*
X85112578Y-116986399D01*
X84898492Y-116886570D01*
X84898486Y-116886567D01*
X84685000Y-116829364D01*
X84685000Y-117724498D01*
X84577315Y-117675320D01*
X84557144Y-117672419D01*
X84555471Y-108329956D01*
X115384928Y-108329956D01*
X115405182Y-108587305D01*
X115465443Y-108838311D01*
X115465443Y-108838312D01*
X115564227Y-109076799D01*
X115564229Y-109076802D01*
X115699110Y-109296907D01*
X115703894Y-109302507D01*
X116345194Y-108661206D01*
X116367339Y-108712543D01*
X116473432Y-108855050D01*
X116609529Y-108969250D01*
X116699215Y-109014291D01*
X116057446Y-109656059D01*
X116057446Y-109656060D01*
X116063045Y-109660841D01*
X116063051Y-109660846D01*
X116283152Y-109795725D01*
X116283155Y-109795727D01*
X116521643Y-109894511D01*
X116772649Y-109954772D01*
X117029999Y-109975026D01*
X117287348Y-109954772D01*
X117538354Y-109894511D01*
X117538355Y-109894511D01*
X117776842Y-109795727D01*
X117776845Y-109795725D01*
X117996941Y-109660850D01*
X118002549Y-109656059D01*
X117363746Y-109017256D01*
X117373408Y-109013740D01*
X117521843Y-108916113D01*
X117643763Y-108786886D01*
X117715767Y-108662171D01*
X118356102Y-109302506D01*
X118360893Y-109296898D01*
X118495768Y-109076802D01*
X118495770Y-109076799D01*
X118594554Y-108838312D01*
X118594554Y-108838311D01*
X118654815Y-108587305D01*
X118675069Y-108329956D01*
X118654815Y-108072606D01*
X118594554Y-107821600D01*
X118594554Y-107821599D01*
X118495770Y-107583112D01*
X118495768Y-107583109D01*
X118360889Y-107363008D01*
X118360884Y-107363002D01*
X118356102Y-107357403D01*
X117714802Y-107998703D01*
X117692659Y-107947369D01*
X117586566Y-107804862D01*
X117450469Y-107690662D01*
X117360782Y-107645620D01*
X118002550Y-107003851D01*
X118002550Y-107003850D01*
X117996950Y-106999067D01*
X117776845Y-106864186D01*
X117776842Y-106864184D01*
X117538354Y-106765400D01*
X117287348Y-106705139D01*
X117029999Y-106684885D01*
X116772649Y-106705139D01*
X116521643Y-106765400D01*
X116521642Y-106765400D01*
X116283155Y-106864184D01*
X116283152Y-106864186D01*
X116063056Y-106999061D01*
X116063051Y-106999065D01*
X116057446Y-107003850D01*
X116696251Y-107642655D01*
X116686590Y-107646172D01*
X116538155Y-107743799D01*
X116416235Y-107873026D01*
X116344230Y-107997740D01*
X115703893Y-107357403D01*
X115699108Y-107363008D01*
X115699104Y-107363013D01*
X115564229Y-107583109D01*
X115564227Y-107583112D01*
X115465443Y-107821599D01*
X115465443Y-107821600D01*
X115405182Y-108072606D01*
X115384928Y-108329956D01*
X84555471Y-108329956D01*
X84552295Y-90590003D01*
X94074339Y-90590003D01*
X94094934Y-90825406D01*
X94094936Y-90825416D01*
X94156092Y-91053658D01*
X94156094Y-91053662D01*
X94156095Y-91053666D01*
X94156547Y-91054635D01*
X94255963Y-91267833D01*
X94255965Y-91267837D01*
X94364279Y-91422524D01*
X94391499Y-91461399D01*
X94391504Y-91461405D01*
X94513428Y-91583329D01*
X94546913Y-91644652D01*
X94541929Y-91714344D01*
X94500057Y-91770277D01*
X94469081Y-91787192D01*
X94337667Y-91836206D01*
X94337662Y-91836209D01*
X94222453Y-91922455D01*
X94222450Y-91922458D01*
X94136204Y-92037667D01*
X94136200Y-92037674D01*
X94085906Y-92172520D01*
X94079556Y-92231589D01*
X94079499Y-92232126D01*
X94079498Y-92232138D01*
X94079498Y-94027873D01*
X94079499Y-94027879D01*
X94085906Y-94087486D01*
X94136200Y-94222331D01*
X94136204Y-94222338D01*
X94222450Y-94337547D01*
X94222453Y-94337550D01*
X94337662Y-94423796D01*
X94337669Y-94423800D01*
X94472515Y-94474094D01*
X94472514Y-94474094D01*
X94479442Y-94474838D01*
X94532125Y-94480503D01*
X96327870Y-94480502D01*
X96387481Y-94474094D01*
X96522329Y-94423799D01*
X96637544Y-94337549D01*
X96723794Y-94222334D01*
X96774089Y-94087486D01*
X96780498Y-94027876D01*
X96780498Y-93419354D01*
X110044196Y-93419354D01*
X110063053Y-93431202D01*
X110236940Y-93492047D01*
X110236945Y-93492048D01*
X110419995Y-93512673D01*
X110420003Y-93512673D01*
X110603052Y-93492048D01*
X110603054Y-93492048D01*
X110776947Y-93431200D01*
X110795800Y-93419353D01*
X110420000Y-93043553D01*
X110419999Y-93043553D01*
X110044196Y-93419353D01*
X110044196Y-93419354D01*
X96780498Y-93419354D01*
X96780497Y-92690003D01*
X109597326Y-92690003D01*
X109617950Y-92873053D01*
X109617951Y-92873058D01*
X109678796Y-93046945D01*
X109690643Y-93065800D01*
X109690644Y-93065800D01*
X110066446Y-92690000D01*
X110264708Y-92690000D01*
X110285513Y-92767645D01*
X110342354Y-92824486D01*
X110400253Y-92840000D01*
X110439745Y-92840000D01*
X110497644Y-92824486D01*
X110554485Y-92767646D01*
X110575290Y-92690001D01*
X110773552Y-92690001D01*
X111149352Y-93065801D01*
X111161199Y-93046948D01*
X111222047Y-92873055D01*
X111222047Y-92873053D01*
X111242672Y-92690003D01*
X111242672Y-92689996D01*
X111222047Y-92506946D01*
X111222046Y-92506941D01*
X111161201Y-92333054D01*
X111149352Y-92314197D01*
X110773552Y-92689999D01*
X110773552Y-92690001D01*
X110575290Y-92690001D01*
X110575290Y-92690000D01*
X110554485Y-92612355D01*
X110497644Y-92555514D01*
X110439745Y-92540000D01*
X110400253Y-92540000D01*
X110342354Y-92555514D01*
X110285513Y-92612354D01*
X110264708Y-92690000D01*
X110066446Y-92690000D01*
X110066446Y-92689999D01*
X109690644Y-92314197D01*
X109678796Y-92333055D01*
X109617951Y-92506941D01*
X109617950Y-92506946D01*
X109597326Y-92689996D01*
X109597326Y-92690003D01*
X96780497Y-92690003D01*
X96780497Y-92232131D01*
X96774089Y-92172520D01*
X96745193Y-92095047D01*
X96723795Y-92037674D01*
X96723791Y-92037667D01*
X96666132Y-91960645D01*
X110044196Y-91960645D01*
X110419999Y-92336447D01*
X110420000Y-92336447D01*
X110795799Y-91960645D01*
X110795799Y-91960644D01*
X110776944Y-91948797D01*
X110603057Y-91887952D01*
X110603052Y-91887951D01*
X110420003Y-91867327D01*
X110419995Y-91867327D01*
X110236945Y-91887951D01*
X110236940Y-91887952D01*
X110063054Y-91948797D01*
X110044196Y-91960645D01*
X96666132Y-91960645D01*
X96637545Y-91922458D01*
X96637542Y-91922455D01*
X96522333Y-91836209D01*
X96522326Y-91836205D01*
X96390915Y-91787192D01*
X96388481Y-91785370D01*
X112142000Y-91785370D01*
X112142001Y-91785376D01*
X112148408Y-91844983D01*
X112198702Y-91979828D01*
X112198706Y-91979835D01*
X112284952Y-92095044D01*
X112284955Y-92095047D01*
X112400164Y-92181293D01*
X112400171Y-92181297D01*
X112445118Y-92198061D01*
X112535017Y-92231591D01*
X112594627Y-92238000D01*
X113325372Y-92237999D01*
X113384983Y-92231591D01*
X113519831Y-92181296D01*
X113635046Y-92095046D01*
X113721296Y-91979831D01*
X113771591Y-91844983D01*
X113778000Y-91785373D01*
X113777999Y-91054628D01*
X113771591Y-90995017D01*
X113721296Y-90860169D01*
X113721295Y-90860168D01*
X113721293Y-90860164D01*
X113635047Y-90744955D01*
X113635044Y-90744952D01*
X113519835Y-90658706D01*
X113519828Y-90658702D01*
X113384986Y-90608410D01*
X113384985Y-90608409D01*
X113384983Y-90608409D01*
X113325373Y-90602000D01*
X113325363Y-90602000D01*
X112594629Y-90602000D01*
X112594623Y-90602001D01*
X112535016Y-90608408D01*
X112400171Y-90658702D01*
X112400164Y-90658706D01*
X112284955Y-90744952D01*
X112284952Y-90744955D01*
X112198706Y-90860164D01*
X112198702Y-90860171D01*
X112148410Y-90995013D01*
X112148409Y-90995017D01*
X112142000Y-91054627D01*
X112142000Y-91054634D01*
X112142000Y-91054635D01*
X112142000Y-91785370D01*
X96388481Y-91785370D01*
X96334981Y-91745321D01*
X96310564Y-91679856D01*
X96325416Y-91611583D01*
X96346561Y-91583335D01*
X96468493Y-91461404D01*
X96604033Y-91267833D01*
X96703901Y-91053666D01*
X96765061Y-90825411D01*
X96785657Y-90590003D01*
X96765061Y-90354595D01*
X96751714Y-90304783D01*
X96730764Y-90226593D01*
X96732427Y-90156743D01*
X96771590Y-90098881D01*
X96835819Y-90071377D01*
X96850539Y-90070500D01*
X106205469Y-90070500D01*
X106272508Y-90090185D01*
X106318263Y-90142989D01*
X106323400Y-90156182D01*
X106372818Y-90308278D01*
X106372821Y-90308284D01*
X106467467Y-90472216D01*
X106573522Y-90590002D01*
X106594129Y-90612888D01*
X106747265Y-90724148D01*
X106747270Y-90724151D01*
X106920192Y-90801142D01*
X106920197Y-90801144D01*
X107105354Y-90840500D01*
X107105355Y-90840500D01*
X107294644Y-90840500D01*
X107294646Y-90840500D01*
X107479803Y-90801144D01*
X107652730Y-90724151D01*
X107805871Y-90612888D01*
X107932533Y-90472216D01*
X108027179Y-90308284D01*
X108085674Y-90128256D01*
X108105460Y-89940000D01*
X108085674Y-89751744D01*
X108027179Y-89571716D01*
X107932533Y-89407784D01*
X107805871Y-89267112D01*
X107805870Y-89267111D01*
X107652734Y-89155851D01*
X107652729Y-89155848D01*
X107479807Y-89078857D01*
X107479802Y-89078855D01*
X107334001Y-89047865D01*
X107294646Y-89039500D01*
X107294645Y-89039500D01*
X107274167Y-89039500D01*
X107207128Y-89019815D01*
X107189283Y-89005892D01*
X107134166Y-88954134D01*
X107131369Y-88951423D01*
X107111035Y-88931089D01*
X107107548Y-88928384D01*
X107098669Y-88920800D01*
X107065396Y-88889554D01*
X107065388Y-88889548D01*
X107046792Y-88879325D01*
X107030531Y-88868644D01*
X107013763Y-88855637D01*
X106997409Y-88848560D01*
X106971853Y-88837501D01*
X106961394Y-88832377D01*
X106921368Y-88810373D01*
X106921365Y-88810372D01*
X106900801Y-88805092D01*
X106882396Y-88798790D01*
X106862927Y-88790365D01*
X106862921Y-88790363D01*
X106817837Y-88783223D01*
X106806398Y-88780854D01*
X106762180Y-88769500D01*
X106762177Y-88769500D01*
X106740955Y-88769500D01*
X106721555Y-88767973D01*
X106700596Y-88764653D01*
X106700595Y-88764653D01*
X106665475Y-88767973D01*
X106655140Y-88768950D01*
X106643470Y-88769500D01*
X97120803Y-88769500D01*
X97053764Y-88749815D01*
X97033122Y-88733181D01*
X96777707Y-88477766D01*
X96744222Y-88416443D01*
X96745613Y-88357992D01*
X96746543Y-88354520D01*
X96765061Y-88285411D01*
X96785657Y-88050003D01*
X96765061Y-87814595D01*
X96703901Y-87586340D01*
X96604033Y-87372174D01*
X96591066Y-87353654D01*
X96468492Y-87178600D01*
X96301400Y-87011509D01*
X96301393Y-87011504D01*
X96107832Y-86875970D01*
X96107828Y-86875968D01*
X95983751Y-86818110D01*
X95893661Y-86776100D01*
X95893657Y-86776099D01*
X95893653Y-86776097D01*
X95665411Y-86714941D01*
X95665401Y-86714939D01*
X95429999Y-86694344D01*
X95429997Y-86694344D01*
X95194594Y-86714939D01*
X95194584Y-86714941D01*
X94966342Y-86776097D01*
X94966333Y-86776101D01*
X94752169Y-86875967D01*
X94752167Y-86875968D01*
X94558595Y-87011508D01*
X94391503Y-87178600D01*
X94255963Y-87372172D01*
X94255962Y-87372174D01*
X94156096Y-87586338D01*
X94156092Y-87586347D01*
X94094936Y-87814589D01*
X94094934Y-87814599D01*
X94074339Y-88050002D01*
X94074339Y-88050003D01*
X94094934Y-88285406D01*
X94094936Y-88285416D01*
X94156092Y-88513658D01*
X94156094Y-88513662D01*
X94156095Y-88513666D01*
X94255963Y-88727833D01*
X94255965Y-88727837D01*
X94391499Y-88921398D01*
X94391504Y-88921405D01*
X94558595Y-89088496D01*
X94558601Y-89088501D01*
X94744156Y-89218428D01*
X94787781Y-89273005D01*
X94794975Y-89342503D01*
X94763452Y-89404858D01*
X94744156Y-89421578D01*
X94558595Y-89551508D01*
X94391503Y-89718600D01*
X94255963Y-89912172D01*
X94255962Y-89912174D01*
X94156096Y-90126338D01*
X94156092Y-90126347D01*
X94094936Y-90354589D01*
X94094934Y-90354599D01*
X94074339Y-90590002D01*
X94074339Y-90590003D01*
X84552295Y-90590003D01*
X84551368Y-85412549D01*
X84920323Y-85354113D01*
X84920330Y-85354112D01*
X85294936Y-85253737D01*
X85656994Y-85114755D01*
X86002543Y-84938689D01*
X86327783Y-84727476D01*
X86327785Y-84727475D01*
X86585349Y-84518902D01*
X86416446Y-84349999D01*
X107819341Y-84349999D01*
X107839936Y-84585402D01*
X107839938Y-84585412D01*
X107901094Y-84813654D01*
X107901096Y-84813658D01*
X107901097Y-84813662D01*
X107905000Y-84822031D01*
X108000965Y-85027829D01*
X108000967Y-85027833D01*
X108047827Y-85094755D01*
X108136501Y-85221395D01*
X108136506Y-85221401D01*
X108303597Y-85388492D01*
X108303603Y-85388497D01*
X108489594Y-85518729D01*
X108533219Y-85573306D01*
X108540413Y-85642804D01*
X108508890Y-85705159D01*
X108489595Y-85721879D01*
X108303922Y-85851889D01*
X108303920Y-85851890D01*
X108136891Y-86018919D01*
X108136886Y-86018925D01*
X108001400Y-86212419D01*
X108001399Y-86212421D01*
X107901570Y-86426506D01*
X107901567Y-86426512D01*
X107844364Y-86639998D01*
X107844364Y-86639999D01*
X108741314Y-86639999D01*
X108715507Y-86680155D01*
X108675000Y-86818110D01*
X108675000Y-86961888D01*
X108715507Y-87099843D01*
X108741314Y-87139999D01*
X107844364Y-87139999D01*
X107901567Y-87353485D01*
X107901570Y-87353491D01*
X108001399Y-87567577D01*
X108136894Y-87761081D01*
X108303917Y-87928104D01*
X108497421Y-88063599D01*
X108711507Y-88163428D01*
X108711516Y-88163432D01*
X108925000Y-88220633D01*
X108925000Y-87325500D01*
X109032685Y-87374679D01*
X109139237Y-87389999D01*
X109210763Y-87389999D01*
X109317315Y-87374679D01*
X109425000Y-87325500D01*
X109425000Y-88220632D01*
X109638483Y-88163432D01*
X109638492Y-88163428D01*
X109852578Y-88063599D01*
X110046082Y-87928104D01*
X110213105Y-87761081D01*
X110343119Y-87575404D01*
X110397696Y-87531780D01*
X110467195Y-87524587D01*
X110529549Y-87556109D01*
X110546269Y-87575404D01*
X110676505Y-87761400D01*
X110843599Y-87928494D01*
X110940384Y-87996264D01*
X111037165Y-88064031D01*
X111037167Y-88064032D01*
X111037170Y-88064034D01*
X111251337Y-88163902D01*
X111479592Y-88225062D01*
X111667918Y-88241538D01*
X111714999Y-88245658D01*
X111715000Y-88245658D01*
X111715001Y-88245658D01*
X111754234Y-88242225D01*
X111950408Y-88225062D01*
X112178663Y-88163902D01*
X112392830Y-88064034D01*
X112586401Y-87928494D01*
X112753495Y-87761400D01*
X112883425Y-87575841D01*
X112938002Y-87532216D01*
X113007500Y-87525022D01*
X113069855Y-87556545D01*
X113086575Y-87575841D01*
X113216500Y-87761394D01*
X113216505Y-87761400D01*
X113383599Y-87928494D01*
X113480384Y-87996264D01*
X113577165Y-88064031D01*
X113577167Y-88064032D01*
X113577170Y-88064034D01*
X113791337Y-88163902D01*
X114019592Y-88225062D01*
X114207918Y-88241538D01*
X114254999Y-88245658D01*
X114255000Y-88245658D01*
X114255001Y-88245658D01*
X114294234Y-88242225D01*
X114490408Y-88225062D01*
X114718663Y-88163902D01*
X114932830Y-88064034D01*
X115126401Y-87928494D01*
X115293495Y-87761400D01*
X115429035Y-87567829D01*
X115528903Y-87353662D01*
X115590063Y-87125407D01*
X115610659Y-86889999D01*
X115590063Y-86654591D01*
X115528903Y-86426336D01*
X115429035Y-86212170D01*
X115423730Y-86204594D01*
X115293496Y-86018599D01*
X115293490Y-86018593D01*
X115171567Y-85896670D01*
X115138084Y-85835350D01*
X115143068Y-85765658D01*
X115184939Y-85709724D01*
X115215915Y-85692809D01*
X115347331Y-85643795D01*
X115462546Y-85557545D01*
X115548796Y-85442330D01*
X115599091Y-85307482D01*
X115605500Y-85247872D01*
X115605499Y-83452127D01*
X115599091Y-83392516D01*
X115597810Y-83389082D01*
X115548797Y-83257670D01*
X115548793Y-83257663D01*
X115462547Y-83142454D01*
X115462544Y-83142451D01*
X115347335Y-83056205D01*
X115347328Y-83056201D01*
X115212482Y-83005907D01*
X115212483Y-83005907D01*
X115152883Y-82999500D01*
X115152881Y-82999499D01*
X115152873Y-82999499D01*
X115152864Y-82999499D01*
X113357129Y-82999499D01*
X113357123Y-82999500D01*
X113297516Y-83005907D01*
X113162671Y-83056201D01*
X113162664Y-83056205D01*
X113047455Y-83142451D01*
X113047452Y-83142454D01*
X112961206Y-83257663D01*
X112961203Y-83257668D01*
X112912189Y-83389082D01*
X112870317Y-83445015D01*
X112804853Y-83469432D01*
X112736580Y-83454580D01*
X112708326Y-83433429D01*
X112586402Y-83311505D01*
X112586395Y-83311500D01*
X112392834Y-83175966D01*
X112392830Y-83175964D01*
X112358636Y-83160019D01*
X112178663Y-83076096D01*
X112178659Y-83076095D01*
X112178655Y-83076093D01*
X111950413Y-83014937D01*
X111950403Y-83014935D01*
X111715001Y-82994340D01*
X111714999Y-82994340D01*
X111479596Y-83014935D01*
X111479586Y-83014937D01*
X111251344Y-83076093D01*
X111251335Y-83076097D01*
X111037171Y-83175963D01*
X111037169Y-83175964D01*
X110843597Y-83311504D01*
X110676505Y-83478596D01*
X110546575Y-83664157D01*
X110491998Y-83707782D01*
X110422500Y-83714976D01*
X110360145Y-83683453D01*
X110343425Y-83664157D01*
X110213494Y-83478596D01*
X110046402Y-83311505D01*
X110046395Y-83311500D01*
X109852834Y-83175966D01*
X109852830Y-83175964D01*
X109818636Y-83160019D01*
X109638663Y-83076096D01*
X109638659Y-83076095D01*
X109638655Y-83076093D01*
X109410413Y-83014937D01*
X109410403Y-83014935D01*
X109175001Y-82994340D01*
X109174999Y-82994340D01*
X108939596Y-83014935D01*
X108939586Y-83014937D01*
X108711344Y-83076093D01*
X108711335Y-83076097D01*
X108497171Y-83175963D01*
X108497169Y-83175964D01*
X108303597Y-83311504D01*
X108136505Y-83478596D01*
X108000965Y-83672168D01*
X108000964Y-83672170D01*
X107901098Y-83886334D01*
X107901094Y-83886343D01*
X107839938Y-84114585D01*
X107839936Y-84114595D01*
X107819341Y-84349998D01*
X107819341Y-84349999D01*
X86416446Y-84349999D01*
X85094180Y-83027733D01*
X85284870Y-82864870D01*
X85447733Y-82674180D01*
X86938902Y-84165349D01*
X87147475Y-83907785D01*
X87147476Y-83907783D01*
X87358689Y-83582543D01*
X87534755Y-83236994D01*
X87673737Y-82874936D01*
X87774112Y-82500330D01*
X87774113Y-82500323D01*
X87834780Y-82117287D01*
X87855078Y-81730000D01*
X87855078Y-81729999D01*
X87854030Y-81710000D01*
X121984922Y-81710000D01*
X122005219Y-82097287D01*
X122065886Y-82480323D01*
X122065887Y-82480330D01*
X122166262Y-82854936D01*
X122305244Y-83216994D01*
X122481310Y-83562543D01*
X122692531Y-83887793D01*
X122901095Y-84145350D01*
X122901096Y-84145350D01*
X124392266Y-82654180D01*
X124555130Y-82844870D01*
X124745819Y-83007733D01*
X123254648Y-84498903D01*
X123254649Y-84498904D01*
X123512206Y-84707468D01*
X123837456Y-84918689D01*
X124183005Y-85094755D01*
X124545063Y-85233737D01*
X124919669Y-85334112D01*
X124919676Y-85334113D01*
X125302712Y-85394780D01*
X125689999Y-85415078D01*
X125690001Y-85415078D01*
X126077287Y-85394780D01*
X126460323Y-85334113D01*
X126460330Y-85334112D01*
X126834936Y-85233737D01*
X127196994Y-85094755D01*
X127542543Y-84918689D01*
X127867783Y-84707476D01*
X127867785Y-84707475D01*
X128125349Y-84498902D01*
X126634180Y-83007733D01*
X126824870Y-82844870D01*
X126987733Y-82654180D01*
X128478902Y-84145349D01*
X128687475Y-83887785D01*
X128687476Y-83887783D01*
X128898689Y-83562543D01*
X129074755Y-83216994D01*
X129213737Y-82854936D01*
X129314112Y-82480330D01*
X129314113Y-82480323D01*
X129374780Y-82097287D01*
X129395078Y-81710000D01*
X129395078Y-81709999D01*
X129374780Y-81322712D01*
X129314113Y-80939676D01*
X129314112Y-80939669D01*
X129213737Y-80565063D01*
X129074755Y-80203005D01*
X128898689Y-79857456D01*
X128687468Y-79532206D01*
X128478904Y-79274649D01*
X128478903Y-79274648D01*
X126987732Y-80765818D01*
X126824870Y-80575130D01*
X126634180Y-80412266D01*
X128125350Y-78921096D01*
X128125350Y-78921095D01*
X127867793Y-78712531D01*
X127542543Y-78501310D01*
X127196994Y-78325244D01*
X126834936Y-78186262D01*
X126460330Y-78085887D01*
X126460323Y-78085886D01*
X126077287Y-78025219D01*
X125761939Y-78008692D01*
X125696022Y-77985526D01*
X125688803Y-77976257D01*
X125645864Y-78003866D01*
X125617393Y-78008727D01*
X125302712Y-78025219D01*
X124919676Y-78085886D01*
X124919669Y-78085887D01*
X124545063Y-78186262D01*
X124183005Y-78325244D01*
X123837456Y-78501310D01*
X123512206Y-78712531D01*
X123254648Y-78921095D01*
X123254648Y-78921096D01*
X124745819Y-80412266D01*
X124555130Y-80575130D01*
X124392266Y-80765818D01*
X122901096Y-79274648D01*
X122901095Y-79274648D01*
X122692531Y-79532206D01*
X122481310Y-79857456D01*
X122305244Y-80203005D01*
X122166262Y-80565063D01*
X122065887Y-80939669D01*
X122065886Y-80939676D01*
X122005219Y-81322712D01*
X121984922Y-81709999D01*
X121984922Y-81710000D01*
X87854030Y-81710000D01*
X87834780Y-81342712D01*
X87774113Y-80959676D01*
X87774112Y-80959669D01*
X87673737Y-80585063D01*
X87534755Y-80223005D01*
X87358689Y-79877456D01*
X87147468Y-79552206D01*
X86938904Y-79294649D01*
X86938903Y-79294648D01*
X85447732Y-80785818D01*
X85284870Y-80595130D01*
X85094179Y-80432266D01*
X86585350Y-78941096D01*
X86585350Y-78941095D01*
X86327793Y-78732531D01*
X86002543Y-78521310D01*
X85656994Y-78345244D01*
X85294936Y-78206262D01*
X84920330Y-78105887D01*
X84920323Y-78105886D01*
X84550049Y-78047240D01*
X84550000Y-77770000D01*
X125610876Y-77760897D01*
X125677919Y-77780567D01*
X125688918Y-77793255D01*
X125739769Y-77764220D01*
X125768398Y-77760862D01*
X126411310Y-77760719D01*
X126417789Y-77760888D01*
G37*
G04 #@! TD.AperFunction*
G04 #@! TA.AperFunction,Conductor*
G36*
X87440000Y-77770000D02*
G01*
X87440000Y-80037037D01*
X87358689Y-79877456D01*
X87147468Y-79552206D01*
X86938904Y-79294649D01*
X86938903Y-79294648D01*
X85447732Y-80785818D01*
X85284870Y-80595130D01*
X85094180Y-80432266D01*
X86585350Y-78941096D01*
X86585350Y-78941095D01*
X86327793Y-78732531D01*
X86002543Y-78521310D01*
X85656994Y-78345244D01*
X85294936Y-78206262D01*
X84920330Y-78105887D01*
X84920323Y-78105886D01*
X84537287Y-78045219D01*
X84150001Y-78024922D01*
X84149999Y-78024922D01*
X83762712Y-78045219D01*
X83379676Y-78105886D01*
X83379669Y-78105887D01*
X83005063Y-78206262D01*
X82643005Y-78345244D01*
X82297456Y-78521310D01*
X81972206Y-78732531D01*
X81714648Y-78941095D01*
X81714648Y-78941096D01*
X83205819Y-80432266D01*
X83015130Y-80595130D01*
X82852266Y-80785818D01*
X81361096Y-79294648D01*
X81361095Y-79294648D01*
X81152531Y-79552206D01*
X80941310Y-79877456D01*
X80765244Y-80223005D01*
X80626262Y-80585063D01*
X80525887Y-80959669D01*
X80525886Y-80959676D01*
X80465219Y-81342712D01*
X80444922Y-81729999D01*
X80444922Y-81730000D01*
X80465219Y-82117287D01*
X80525886Y-82500323D01*
X80525887Y-82500330D01*
X80626262Y-82874936D01*
X80765244Y-83236994D01*
X80941310Y-83582543D01*
X81152531Y-83907793D01*
X81361095Y-84165350D01*
X81361096Y-84165350D01*
X82852266Y-82674180D01*
X83015130Y-82864870D01*
X83205819Y-83027733D01*
X81714648Y-84518903D01*
X81714649Y-84518904D01*
X81972206Y-84727468D01*
X82297456Y-84938689D01*
X82643005Y-85114755D01*
X83005063Y-85253737D01*
X83379669Y-85354112D01*
X83379676Y-85354113D01*
X83762712Y-85414780D01*
X84149999Y-85435078D01*
X84150001Y-85435078D01*
X84537287Y-85414780D01*
X84920323Y-85354113D01*
X84920330Y-85354112D01*
X85294936Y-85253737D01*
X85656994Y-85114755D01*
X86002543Y-84938689D01*
X86327783Y-84727476D01*
X86327785Y-84727475D01*
X86585349Y-84518902D01*
X85094180Y-83027733D01*
X85284870Y-82864870D01*
X85447733Y-82674180D01*
X86938902Y-84165349D01*
X87147475Y-83907785D01*
X87147476Y-83907783D01*
X87358689Y-83582543D01*
X87440000Y-83422961D01*
X87440000Y-127937785D01*
X87378689Y-127817456D01*
X87167468Y-127492206D01*
X86958904Y-127234649D01*
X86958903Y-127234648D01*
X85467732Y-128725818D01*
X85304870Y-128535130D01*
X85114180Y-128372266D01*
X86605350Y-126881096D01*
X86605350Y-126881095D01*
X86347793Y-126672531D01*
X86022543Y-126461310D01*
X85676994Y-126285244D01*
X85314936Y-126146262D01*
X84940330Y-126045887D01*
X84940323Y-126045886D01*
X84557287Y-125985219D01*
X84170001Y-125964922D01*
X84169999Y-125964922D01*
X83782712Y-125985219D01*
X83399676Y-126045886D01*
X83399669Y-126045887D01*
X83025063Y-126146262D01*
X82663005Y-126285244D01*
X82317456Y-126461310D01*
X81992206Y-126672531D01*
X81734648Y-126881095D01*
X81734648Y-126881096D01*
X83225819Y-128372266D01*
X83035130Y-128535130D01*
X82872266Y-128725818D01*
X81381096Y-127234648D01*
X81381095Y-127234648D01*
X81172531Y-127492206D01*
X80961310Y-127817456D01*
X80785244Y-128163005D01*
X80646262Y-128525063D01*
X80545887Y-128899669D01*
X80545886Y-128899676D01*
X80485219Y-129282712D01*
X80464922Y-129669999D01*
X80464922Y-129670000D01*
X80485219Y-130057287D01*
X80545886Y-130440323D01*
X80545887Y-130440330D01*
X80646262Y-130814936D01*
X80785244Y-131176994D01*
X80961310Y-131522543D01*
X81172531Y-131847793D01*
X81381095Y-132105350D01*
X81381096Y-132105350D01*
X82872266Y-130614180D01*
X83035130Y-130804870D01*
X83225819Y-130967733D01*
X81734648Y-132458903D01*
X81734649Y-132458904D01*
X81992206Y-132667468D01*
X82317456Y-132878689D01*
X82663005Y-133054755D01*
X83025063Y-133193737D01*
X83399669Y-133294112D01*
X83399676Y-133294113D01*
X83782712Y-133354780D01*
X84169999Y-133375078D01*
X84170001Y-133375078D01*
X84557287Y-133354780D01*
X84940323Y-133294113D01*
X84940330Y-133294112D01*
X85314936Y-133193737D01*
X85676994Y-133054755D01*
X86022543Y-132878689D01*
X86347783Y-132667476D01*
X86347785Y-132667475D01*
X86605349Y-132458902D01*
X85114180Y-130967733D01*
X85304870Y-130804870D01*
X85467733Y-130614180D01*
X86958902Y-132105349D01*
X87167475Y-131847785D01*
X87167476Y-131847783D01*
X87378691Y-131522541D01*
X87378692Y-131522538D01*
X87440000Y-131402214D01*
X87440000Y-133621275D01*
X87424970Y-133621269D01*
X87396754Y-133636668D01*
X87370426Y-133639495D01*
X82884232Y-133639495D01*
X73171779Y-133617103D01*
X73153871Y-133615761D01*
X73025687Y-133596747D01*
X73024482Y-133596562D01*
X72855192Y-133569748D01*
X72844461Y-133567559D01*
X72680825Y-133526569D01*
X72678861Y-133526060D01*
X72516109Y-133482450D01*
X72506428Y-133479426D01*
X72346496Y-133422201D01*
X72343833Y-133421214D01*
X72187650Y-133361260D01*
X72179071Y-133357591D01*
X72084722Y-133312967D01*
X72024943Y-133284693D01*
X72021693Y-133283097D01*
X71873190Y-133207430D01*
X71865736Y-133203303D01*
X71719205Y-133115475D01*
X71715419Y-133113112D01*
X71575954Y-133022542D01*
X71569622Y-133018145D01*
X71432228Y-132916246D01*
X71428059Y-132913014D01*
X71298971Y-132808480D01*
X71293734Y-132803992D01*
X71166933Y-132689066D01*
X71162525Y-132684869D01*
X71145124Y-132667468D01*
X71045116Y-132567459D01*
X71040948Y-132563082D01*
X70925979Y-132436233D01*
X70921492Y-132430996D01*
X70816968Y-132301919D01*
X70813736Y-132297749D01*
X70711844Y-132160362D01*
X70707447Y-132154031D01*
X70616888Y-132014583D01*
X70614537Y-132010817D01*
X70526680Y-131864236D01*
X70522555Y-131856784D01*
X70517969Y-131847783D01*
X70446881Y-131708265D01*
X70445325Y-131705096D01*
X70372389Y-131550884D01*
X70368726Y-131542321D01*
X70308773Y-131386137D01*
X70307832Y-131383599D01*
X70250555Y-131223519D01*
X70247542Y-131213871D01*
X70203926Y-131051091D01*
X70203431Y-131049182D01*
X70162431Y-130885502D01*
X70160249Y-130874805D01*
X70133386Y-130705197D01*
X70133303Y-130704657D01*
X70108915Y-130540243D01*
X70107748Y-130528602D01*
X70098156Y-130345746D01*
X70091460Y-130209439D01*
X70090635Y-130192641D01*
X70090486Y-130186558D01*
X70090486Y-129392589D01*
X70110171Y-129325550D01*
X70162975Y-129279795D01*
X70232133Y-129269851D01*
X70295689Y-129298876D01*
X70329047Y-129345137D01*
X70347634Y-129390012D01*
X70347636Y-129390015D01*
X70481277Y-129608098D01*
X70481284Y-129608107D01*
X70484533Y-129611912D01*
X71048766Y-129047678D01*
X71092316Y-129129822D01*
X71212009Y-129270735D01*
X71359195Y-129382623D01*
X71401402Y-129402150D01*
X70838087Y-129965465D01*
X70841897Y-129968719D01*
X71059984Y-130102363D01*
X71059987Y-130102365D01*
X71296297Y-130200247D01*
X71545011Y-130259957D01*
X71545010Y-130259957D01*
X71800000Y-130280024D01*
X72054989Y-130259957D01*
X72303702Y-130200247D01*
X72540012Y-130102365D01*
X72540015Y-130102363D01*
X72758095Y-129968724D01*
X72758110Y-129968713D01*
X72761911Y-129965466D01*
X72761911Y-129965464D01*
X72198609Y-129402161D01*
X72317431Y-129330669D01*
X72451658Y-129203523D01*
X72554861Y-129051308D01*
X73115464Y-129611911D01*
X73115466Y-129611911D01*
X73118713Y-129608110D01*
X73118724Y-129608095D01*
X73252363Y-129390015D01*
X73252365Y-129390012D01*
X73350247Y-129153702D01*
X73409957Y-128904989D01*
X73430024Y-128650000D01*
X75249975Y-128650000D01*
X75270042Y-128904989D01*
X75329752Y-129153702D01*
X75427634Y-129390012D01*
X75427636Y-129390015D01*
X75561277Y-129608098D01*
X75561284Y-129608107D01*
X75564533Y-129611912D01*
X76128766Y-129047678D01*
X76172316Y-129129822D01*
X76292009Y-129270735D01*
X76439195Y-129382623D01*
X76481402Y-129402150D01*
X75918087Y-129965465D01*
X75921897Y-129968719D01*
X76139984Y-130102363D01*
X76139987Y-130102365D01*
X76376297Y-130200247D01*
X76625011Y-130259957D01*
X76625010Y-130259957D01*
X76880000Y-130280024D01*
X77134989Y-130259957D01*
X77383702Y-130200247D01*
X77620012Y-130102365D01*
X77620015Y-130102363D01*
X77838095Y-129968724D01*
X77838110Y-129968713D01*
X77841911Y-129965466D01*
X77841911Y-129965464D01*
X77278609Y-129402161D01*
X77397431Y-129330669D01*
X77531658Y-129203523D01*
X77634861Y-129051308D01*
X78195464Y-129611911D01*
X78195466Y-129611911D01*
X78198713Y-129608110D01*
X78198724Y-129608095D01*
X78332363Y-129390015D01*
X78332365Y-129390012D01*
X78430247Y-129153702D01*
X78489957Y-128904989D01*
X78510024Y-128650000D01*
X78489957Y-128395010D01*
X78430247Y-128146297D01*
X78332365Y-127909987D01*
X78332363Y-127909984D01*
X78198719Y-127691897D01*
X78195465Y-127688087D01*
X77631232Y-128252319D01*
X77587684Y-128170178D01*
X77467991Y-128029265D01*
X77320805Y-127917377D01*
X77278596Y-127897849D01*
X77841912Y-127334533D01*
X77838107Y-127331284D01*
X77838098Y-127331277D01*
X77620015Y-127197636D01*
X77620012Y-127197634D01*
X77383702Y-127099752D01*
X77134988Y-127040042D01*
X77134989Y-127040042D01*
X76880000Y-127019975D01*
X76625010Y-127040042D01*
X76376297Y-127099752D01*
X76139987Y-127197634D01*
X76139984Y-127197636D01*
X75921893Y-127331282D01*
X75918086Y-127334532D01*
X76481391Y-127897837D01*
X76362569Y-127969331D01*
X76228342Y-128096477D01*
X76125138Y-128248692D01*
X75564532Y-127688086D01*
X75561282Y-127691893D01*
X75427636Y-127909984D01*
X75427634Y-127909987D01*
X75329752Y-128146297D01*
X75270042Y-128395010D01*
X75249975Y-128650000D01*
X73430024Y-128650000D01*
X73409957Y-128395010D01*
X73350247Y-128146297D01*
X73252365Y-127909987D01*
X73252363Y-127909984D01*
X73118719Y-127691897D01*
X73115465Y-127688087D01*
X72551232Y-128252319D01*
X72507684Y-128170178D01*
X72387991Y-128029265D01*
X72240805Y-127917377D01*
X72198596Y-127897849D01*
X72761912Y-127334533D01*
X72758107Y-127331284D01*
X72758098Y-127331277D01*
X72540015Y-127197636D01*
X72540012Y-127197634D01*
X72303702Y-127099752D01*
X72054988Y-127040042D01*
X72054989Y-127040042D01*
X71800000Y-127019975D01*
X71545010Y-127040042D01*
X71296297Y-127099752D01*
X71059987Y-127197634D01*
X71059984Y-127197636D01*
X70841893Y-127331282D01*
X70838086Y-127334532D01*
X71401391Y-127897837D01*
X71282569Y-127969331D01*
X71148342Y-128096477D01*
X71045138Y-128248692D01*
X70484532Y-127688086D01*
X70481282Y-127691893D01*
X70347637Y-127909981D01*
X70329047Y-127954863D01*
X70285205Y-128009266D01*
X70218911Y-128031330D01*
X70151212Y-128014050D01*
X70103602Y-127962912D01*
X70090486Y-127907411D01*
X70090487Y-126110000D01*
X72809783Y-126110000D01*
X72828623Y-126349382D01*
X72884674Y-126582853D01*
X72884678Y-126582865D01*
X72976565Y-126804702D01*
X73102026Y-127009436D01*
X73102028Y-127009439D01*
X73257973Y-127192027D01*
X73440561Y-127347972D01*
X73440563Y-127347973D01*
X73645297Y-127473434D01*
X73742047Y-127513508D01*
X73867137Y-127565323D01*
X74100621Y-127621377D01*
X74340000Y-127640217D01*
X74579379Y-127621377D01*
X74812863Y-127565323D01*
X75034704Y-127473433D01*
X75239439Y-127347972D01*
X75422027Y-127192027D01*
X75577972Y-127009439D01*
X75703433Y-126804704D01*
X75795323Y-126582863D01*
X75851377Y-126349379D01*
X75870217Y-126110000D01*
X75851377Y-125870621D01*
X75795323Y-125637137D01*
X75743508Y-125512047D01*
X75703434Y-125415297D01*
X75577973Y-125210563D01*
X75577972Y-125210561D01*
X75422027Y-125027973D01*
X75239439Y-124872028D01*
X75239436Y-124872026D01*
X75034702Y-124746565D01*
X74812865Y-124654678D01*
X74812867Y-124654678D01*
X74812863Y-124654677D01*
X74812859Y-124654676D01*
X74812853Y-124654674D01*
X74579382Y-124598623D01*
X74340000Y-124579783D01*
X74100617Y-124598623D01*
X73867146Y-124654674D01*
X73867134Y-124654678D01*
X73645297Y-124746565D01*
X73440563Y-124872026D01*
X73257973Y-125027973D01*
X73102026Y-125210563D01*
X72976565Y-125415297D01*
X72884678Y-125637134D01*
X72884674Y-125637146D01*
X72828623Y-125870617D01*
X72809783Y-126110000D01*
X70090487Y-126110000D01*
X70090487Y-124312590D01*
X70110172Y-124245554D01*
X70162976Y-124199799D01*
X70232134Y-124189855D01*
X70295690Y-124218880D01*
X70329048Y-124265140D01*
X70347636Y-124310016D01*
X70481277Y-124528098D01*
X70481284Y-124528107D01*
X70484533Y-124531912D01*
X71048766Y-123967678D01*
X71092316Y-124049822D01*
X71212009Y-124190735D01*
X71359195Y-124302623D01*
X71401402Y-124322150D01*
X70838087Y-124885465D01*
X70841897Y-124888719D01*
X71059984Y-125022363D01*
X71059987Y-125022365D01*
X71296297Y-125120247D01*
X71545011Y-125179957D01*
X71545010Y-125179957D01*
X71800000Y-125200024D01*
X72054989Y-125179957D01*
X72303702Y-125120247D01*
X72540012Y-125022365D01*
X72540015Y-125022363D01*
X72758095Y-124888724D01*
X72758110Y-124888713D01*
X72761911Y-124885466D01*
X72761911Y-124885464D01*
X72198609Y-124322161D01*
X72317431Y-124250669D01*
X72451658Y-124123523D01*
X72554861Y-123971308D01*
X73115464Y-124531911D01*
X73115466Y-124531911D01*
X73118713Y-124528110D01*
X73118724Y-124528095D01*
X73252363Y-124310015D01*
X73252365Y-124310012D01*
X73350247Y-124073702D01*
X73409957Y-123824989D01*
X73430024Y-123570000D01*
X75249975Y-123570000D01*
X75270042Y-123824989D01*
X75329752Y-124073702D01*
X75427634Y-124310012D01*
X75427636Y-124310015D01*
X75561277Y-124528098D01*
X75561284Y-124528107D01*
X75564533Y-124531912D01*
X76128766Y-123967678D01*
X76172316Y-124049822D01*
X76292009Y-124190735D01*
X76439195Y-124302623D01*
X76481402Y-124322150D01*
X75918087Y-124885465D01*
X75921897Y-124888719D01*
X76139984Y-125022363D01*
X76139987Y-125022365D01*
X76376297Y-125120247D01*
X76625011Y-125179957D01*
X76625010Y-125179957D01*
X76880000Y-125200024D01*
X77134989Y-125179957D01*
X77383702Y-125120247D01*
X77620012Y-125022365D01*
X77620015Y-125022363D01*
X77838095Y-124888724D01*
X77838110Y-124888713D01*
X77841911Y-124885466D01*
X77841911Y-124885464D01*
X77278609Y-124322161D01*
X77397431Y-124250669D01*
X77531658Y-124123523D01*
X77634861Y-123971308D01*
X78195464Y-124531911D01*
X78195466Y-124531911D01*
X78198713Y-124528110D01*
X78198724Y-124528095D01*
X78332363Y-124310015D01*
X78332365Y-124310012D01*
X78430247Y-124073702D01*
X78489957Y-123824989D01*
X78510024Y-123570000D01*
X78489957Y-123315010D01*
X78430247Y-123066297D01*
X78332365Y-122829987D01*
X78332363Y-122829984D01*
X78198719Y-122611897D01*
X78195465Y-122608087D01*
X77631232Y-123172319D01*
X77587684Y-123090178D01*
X77467991Y-122949265D01*
X77320805Y-122837377D01*
X77278596Y-122817849D01*
X77841912Y-122254533D01*
X77838107Y-122251284D01*
X77838098Y-122251277D01*
X77620015Y-122117636D01*
X77620012Y-122117634D01*
X77383702Y-122019752D01*
X77134988Y-121960042D01*
X77134989Y-121960042D01*
X76880000Y-121939975D01*
X76625010Y-121960042D01*
X76376297Y-122019752D01*
X76139987Y-122117634D01*
X76139984Y-122117636D01*
X75921893Y-122251282D01*
X75918086Y-122254532D01*
X76481391Y-122817837D01*
X76362569Y-122889331D01*
X76228342Y-123016477D01*
X76125138Y-123168692D01*
X75564532Y-122608086D01*
X75561282Y-122611893D01*
X75427636Y-122829984D01*
X75427634Y-122829987D01*
X75329752Y-123066297D01*
X75270042Y-123315010D01*
X75249975Y-123570000D01*
X73430024Y-123570000D01*
X73409957Y-123315010D01*
X73350247Y-123066297D01*
X73252365Y-122829987D01*
X73252363Y-122829984D01*
X73118719Y-122611897D01*
X73115465Y-122608087D01*
X72551232Y-123172319D01*
X72507684Y-123090178D01*
X72387991Y-122949265D01*
X72240805Y-122837377D01*
X72198596Y-122817849D01*
X72761912Y-122254533D01*
X72758107Y-122251284D01*
X72758098Y-122251277D01*
X72540015Y-122117636D01*
X72540012Y-122117634D01*
X72303702Y-122019752D01*
X72054988Y-121960042D01*
X72054989Y-121960042D01*
X71800000Y-121939975D01*
X71545010Y-121960042D01*
X71296297Y-122019752D01*
X71059987Y-122117634D01*
X71059984Y-122117636D01*
X70841893Y-122251282D01*
X70838086Y-122254532D01*
X71401391Y-122817837D01*
X71282569Y-122889331D01*
X71148342Y-123016477D01*
X71045138Y-123168692D01*
X70484532Y-122608086D01*
X70481282Y-122611893D01*
X70347636Y-122829983D01*
X70329049Y-122874858D01*
X70285208Y-122929261D01*
X70218913Y-122951326D01*
X70151214Y-122934047D01*
X70103604Y-122882909D01*
X70090488Y-122827405D01*
X70090488Y-122117634D01*
X70090489Y-119057870D01*
X80544500Y-119057870D01*
X80544501Y-119057876D01*
X80550908Y-119117483D01*
X80601202Y-119252328D01*
X80601206Y-119252335D01*
X80687452Y-119367544D01*
X80687455Y-119367547D01*
X80802664Y-119453793D01*
X80802671Y-119453797D01*
X80937517Y-119504091D01*
X80937516Y-119504091D01*
X80944444Y-119504835D01*
X80997127Y-119510500D01*
X82792872Y-119510499D01*
X82852483Y-119504091D01*
X82987331Y-119453796D01*
X83102546Y-119367546D01*
X83188796Y-119252331D01*
X83238002Y-119120401D01*
X83279872Y-119064468D01*
X83345337Y-119040050D01*
X83413610Y-119054901D01*
X83441865Y-119076053D01*
X83563917Y-119198105D01*
X83757421Y-119333600D01*
X83971507Y-119433429D01*
X83971516Y-119433433D01*
X84185000Y-119490634D01*
X84185000Y-118595501D01*
X84292685Y-118644680D01*
X84399237Y-118660000D01*
X84470763Y-118660000D01*
X84577315Y-118644680D01*
X84685000Y-118595501D01*
X84685000Y-119490633D01*
X84898483Y-119433433D01*
X84898492Y-119433429D01*
X85112578Y-119333600D01*
X85306082Y-119198105D01*
X85473105Y-119031082D01*
X85608600Y-118837578D01*
X85708429Y-118623492D01*
X85708432Y-118623486D01*
X85765636Y-118410000D01*
X84868686Y-118410000D01*
X84894493Y-118369844D01*
X84935000Y-118231889D01*
X84935000Y-118088111D01*
X84894493Y-117950156D01*
X84868686Y-117910000D01*
X85765636Y-117910000D01*
X85765635Y-117909999D01*
X85708432Y-117696513D01*
X85708429Y-117696507D01*
X85608600Y-117482422D01*
X85608599Y-117482420D01*
X85473113Y-117288926D01*
X85473108Y-117288920D01*
X85306082Y-117121894D01*
X85112578Y-116986399D01*
X84898492Y-116886570D01*
X84898486Y-116886567D01*
X84685000Y-116829364D01*
X84685000Y-117724498D01*
X84577315Y-117675320D01*
X84470763Y-117660000D01*
X84399237Y-117660000D01*
X84292685Y-117675320D01*
X84185000Y-117724498D01*
X84185000Y-116829364D01*
X84184999Y-116829364D01*
X83971513Y-116886567D01*
X83971507Y-116886570D01*
X83757422Y-116986399D01*
X83757420Y-116986400D01*
X83563926Y-117121886D01*
X83441865Y-117243947D01*
X83380542Y-117277431D01*
X83310850Y-117272447D01*
X83254917Y-117230575D01*
X83238002Y-117199598D01*
X83188797Y-117067671D01*
X83188793Y-117067664D01*
X83102547Y-116952455D01*
X83102544Y-116952452D01*
X82987335Y-116866206D01*
X82987328Y-116866202D01*
X82852482Y-116815908D01*
X82852483Y-116815908D01*
X82792883Y-116809501D01*
X82792881Y-116809500D01*
X82792873Y-116809500D01*
X82792864Y-116809500D01*
X80997129Y-116809500D01*
X80997123Y-116809501D01*
X80937516Y-116815908D01*
X80802671Y-116866202D01*
X80802664Y-116866206D01*
X80687455Y-116952452D01*
X80687452Y-116952455D01*
X80601206Y-117067664D01*
X80601202Y-117067671D01*
X80550908Y-117202517D01*
X80544501Y-117262116D01*
X80544500Y-117262135D01*
X80544500Y-119057870D01*
X70090489Y-119057870D01*
X70090492Y-109392602D01*
X70110177Y-109325565D01*
X70162981Y-109279810D01*
X70232139Y-109269866D01*
X70295695Y-109298891D01*
X70329053Y-109345151D01*
X70347636Y-109390016D01*
X70481277Y-109608098D01*
X70481284Y-109608107D01*
X70484533Y-109611912D01*
X71048766Y-109047678D01*
X71092316Y-109129822D01*
X71212009Y-109270735D01*
X71359195Y-109382623D01*
X71401402Y-109402150D01*
X70838087Y-109965465D01*
X70841897Y-109968719D01*
X71059984Y-110102363D01*
X71059987Y-110102365D01*
X71296297Y-110200247D01*
X71545011Y-110259957D01*
X71545010Y-110259957D01*
X71800000Y-110280024D01*
X72054989Y-110259957D01*
X72303702Y-110200247D01*
X72540012Y-110102365D01*
X72540015Y-110102363D01*
X72758095Y-109968724D01*
X72758110Y-109968713D01*
X72761911Y-109965466D01*
X72761911Y-109965464D01*
X72198609Y-109402161D01*
X72317431Y-109330669D01*
X72451658Y-109203523D01*
X72554861Y-109051308D01*
X73115464Y-109611911D01*
X73115466Y-109611911D01*
X73118713Y-109608110D01*
X73118724Y-109608095D01*
X73252363Y-109390015D01*
X73252365Y-109390012D01*
X73350247Y-109153702D01*
X73409957Y-108904989D01*
X73430024Y-108650000D01*
X75249975Y-108650000D01*
X75270042Y-108904989D01*
X75329752Y-109153702D01*
X75427634Y-109390012D01*
X75427636Y-109390015D01*
X75561277Y-109608098D01*
X75561284Y-109608107D01*
X75564533Y-109611912D01*
X76128766Y-109047678D01*
X76172316Y-109129822D01*
X76292009Y-109270735D01*
X76439195Y-109382623D01*
X76481402Y-109402150D01*
X75918087Y-109965465D01*
X75921897Y-109968719D01*
X76139984Y-110102363D01*
X76139987Y-110102365D01*
X76376297Y-110200247D01*
X76625011Y-110259957D01*
X76625010Y-110259957D01*
X76880000Y-110280024D01*
X77134989Y-110259957D01*
X77383702Y-110200247D01*
X77620012Y-110102365D01*
X77620015Y-110102363D01*
X77838095Y-109968724D01*
X77838110Y-109968713D01*
X77841911Y-109965466D01*
X77841911Y-109965464D01*
X77278609Y-109402161D01*
X77397431Y-109330669D01*
X77531658Y-109203523D01*
X77634861Y-109051308D01*
X78195464Y-109611911D01*
X78195466Y-109611911D01*
X78198713Y-109608110D01*
X78198724Y-109608095D01*
X78332363Y-109390015D01*
X78332365Y-109390012D01*
X78430247Y-109153702D01*
X78489957Y-108904989D01*
X78510024Y-108650000D01*
X78489957Y-108395010D01*
X78430247Y-108146297D01*
X78332365Y-107909987D01*
X78332363Y-107909984D01*
X78198719Y-107691897D01*
X78195465Y-107688087D01*
X77631232Y-108252319D01*
X77587684Y-108170178D01*
X77467991Y-108029265D01*
X77320805Y-107917377D01*
X77278596Y-107897849D01*
X77841912Y-107334533D01*
X77838107Y-107331284D01*
X77838098Y-107331277D01*
X77620015Y-107197636D01*
X77620012Y-107197634D01*
X77383702Y-107099752D01*
X77134988Y-107040042D01*
X77134989Y-107040042D01*
X76880000Y-107019975D01*
X76625010Y-107040042D01*
X76376297Y-107099752D01*
X76139987Y-107197634D01*
X76139984Y-107197636D01*
X75921893Y-107331282D01*
X75918086Y-107334532D01*
X76481391Y-107897837D01*
X76362569Y-107969331D01*
X76228342Y-108096477D01*
X76125138Y-108248692D01*
X75564532Y-107688086D01*
X75561282Y-107691893D01*
X75427636Y-107909984D01*
X75427634Y-107909987D01*
X75329752Y-108146297D01*
X75270042Y-108395010D01*
X75249975Y-108650000D01*
X73430024Y-108650000D01*
X73409957Y-108395010D01*
X73350247Y-108146297D01*
X73252365Y-107909987D01*
X73252363Y-107909984D01*
X73118719Y-107691897D01*
X73115465Y-107688087D01*
X72551232Y-108252319D01*
X72507684Y-108170178D01*
X72387991Y-108029265D01*
X72240805Y-107917377D01*
X72198596Y-107897849D01*
X72761912Y-107334533D01*
X72758107Y-107331284D01*
X72758098Y-107331277D01*
X72540015Y-107197636D01*
X72540012Y-107197634D01*
X72303702Y-107099752D01*
X72054988Y-107040042D01*
X72054989Y-107040042D01*
X71800000Y-107019975D01*
X71545010Y-107040042D01*
X71296297Y-107099752D01*
X71059987Y-107197634D01*
X71059984Y-107197636D01*
X70841893Y-107331282D01*
X70838086Y-107334532D01*
X71401391Y-107897837D01*
X71282569Y-107969331D01*
X71148342Y-108096477D01*
X71045138Y-108248692D01*
X70484532Y-107688086D01*
X70481282Y-107691893D01*
X70347636Y-107909984D01*
X70347633Y-107909989D01*
X70329052Y-107954848D01*
X70285211Y-108009251D01*
X70218916Y-108031315D01*
X70151217Y-108014035D01*
X70103607Y-107962897D01*
X70090492Y-107907397D01*
X70090493Y-106110000D01*
X72809783Y-106110000D01*
X72828623Y-106349382D01*
X72884674Y-106582853D01*
X72884678Y-106582865D01*
X72976565Y-106804702D01*
X73102026Y-107009436D01*
X73102028Y-107009439D01*
X73257973Y-107192027D01*
X73440561Y-107347972D01*
X73440563Y-107347973D01*
X73645297Y-107473434D01*
X73742047Y-107513508D01*
X73867137Y-107565323D01*
X74100621Y-107621377D01*
X74340000Y-107640217D01*
X74579379Y-107621377D01*
X74812863Y-107565323D01*
X75034704Y-107473433D01*
X75239439Y-107347972D01*
X75422027Y-107192027D01*
X75577972Y-107009439D01*
X75703433Y-106804704D01*
X75795323Y-106582863D01*
X75851377Y-106349379D01*
X75870217Y-106110000D01*
X75851377Y-105870621D01*
X75795323Y-105637137D01*
X75743508Y-105512047D01*
X75703434Y-105415297D01*
X75577973Y-105210563D01*
X75577972Y-105210561D01*
X75422027Y-105027973D01*
X75239439Y-104872028D01*
X75239436Y-104872026D01*
X75034702Y-104746565D01*
X74812865Y-104654678D01*
X74812867Y-104654678D01*
X74812863Y-104654677D01*
X74812859Y-104654676D01*
X74812853Y-104654674D01*
X74579382Y-104598623D01*
X74340000Y-104579783D01*
X74100617Y-104598623D01*
X73867146Y-104654674D01*
X73867134Y-104654678D01*
X73645297Y-104746565D01*
X73440563Y-104872026D01*
X73257973Y-105027973D01*
X73102026Y-105210563D01*
X72976565Y-105415297D01*
X72884678Y-105637134D01*
X72884674Y-105637146D01*
X72828623Y-105870617D01*
X72809783Y-106110000D01*
X70090493Y-106110000D01*
X70090493Y-104312604D01*
X70110178Y-104245569D01*
X70162982Y-104199814D01*
X70232140Y-104189870D01*
X70295696Y-104218895D01*
X70329054Y-104265154D01*
X70347637Y-104310018D01*
X70481277Y-104528098D01*
X70481284Y-104528107D01*
X70484533Y-104531912D01*
X71048766Y-103967678D01*
X71092316Y-104049822D01*
X71212009Y-104190735D01*
X71359195Y-104302623D01*
X71401402Y-104322150D01*
X70838087Y-104885465D01*
X70841897Y-104888719D01*
X71059984Y-105022363D01*
X71059987Y-105022365D01*
X71296297Y-105120247D01*
X71545011Y-105179957D01*
X71545010Y-105179957D01*
X71800000Y-105200024D01*
X72054989Y-105179957D01*
X72303702Y-105120247D01*
X72540012Y-105022365D01*
X72540015Y-105022363D01*
X72758095Y-104888724D01*
X72758110Y-104888713D01*
X72761911Y-104885466D01*
X72761911Y-104885464D01*
X72198609Y-104322161D01*
X72317431Y-104250669D01*
X72451658Y-104123523D01*
X72554861Y-103971308D01*
X73115464Y-104531911D01*
X73115466Y-104531911D01*
X73118713Y-104528110D01*
X73118724Y-104528095D01*
X73252363Y-104310015D01*
X73252365Y-104310012D01*
X73350247Y-104073702D01*
X73409957Y-103824989D01*
X73430024Y-103570000D01*
X75249975Y-103570000D01*
X75270042Y-103824989D01*
X75329752Y-104073702D01*
X75427634Y-104310012D01*
X75427636Y-104310015D01*
X75561277Y-104528098D01*
X75561284Y-104528107D01*
X75564533Y-104531912D01*
X76128766Y-103967678D01*
X76172316Y-104049822D01*
X76292009Y-104190735D01*
X76439195Y-104302623D01*
X76481402Y-104322150D01*
X75918087Y-104885465D01*
X75921897Y-104888719D01*
X76139984Y-105022363D01*
X76139987Y-105022365D01*
X76376297Y-105120247D01*
X76625011Y-105179957D01*
X76625010Y-105179957D01*
X76880000Y-105200024D01*
X77134989Y-105179957D01*
X77383702Y-105120247D01*
X77620012Y-105022365D01*
X77620015Y-105022363D01*
X77838095Y-104888724D01*
X77838110Y-104888713D01*
X77841911Y-104885466D01*
X77841911Y-104885464D01*
X77278609Y-104322161D01*
X77397431Y-104250669D01*
X77531658Y-104123523D01*
X77634861Y-103971308D01*
X78195464Y-104531911D01*
X78195466Y-104531911D01*
X78198713Y-104528110D01*
X78198724Y-104528095D01*
X78332363Y-104310015D01*
X78332365Y-104310012D01*
X78430247Y-104073702D01*
X78489957Y-103824989D01*
X78510024Y-103570000D01*
X78489957Y-103315010D01*
X78430247Y-103066297D01*
X78332365Y-102829987D01*
X78332363Y-102829984D01*
X78198719Y-102611897D01*
X78195465Y-102608087D01*
X77631232Y-103172319D01*
X77587684Y-103090178D01*
X77467991Y-102949265D01*
X77320805Y-102837377D01*
X77278596Y-102817849D01*
X77841912Y-102254533D01*
X77838107Y-102251284D01*
X77838098Y-102251277D01*
X77620015Y-102117636D01*
X77620012Y-102117634D01*
X77383702Y-102019752D01*
X77134988Y-101960042D01*
X77134989Y-101960042D01*
X76880000Y-101939975D01*
X76625010Y-101960042D01*
X76376297Y-102019752D01*
X76139987Y-102117634D01*
X76139984Y-102117636D01*
X75921893Y-102251282D01*
X75918086Y-102254532D01*
X76481391Y-102817837D01*
X76362569Y-102889331D01*
X76228342Y-103016477D01*
X76125138Y-103168692D01*
X75564532Y-102608086D01*
X75561282Y-102611893D01*
X75427636Y-102829984D01*
X75427634Y-102829987D01*
X75329752Y-103066297D01*
X75270042Y-103315010D01*
X75249975Y-103570000D01*
X73430024Y-103570000D01*
X73409957Y-103315010D01*
X73350247Y-103066297D01*
X73252365Y-102829987D01*
X73252363Y-102829984D01*
X73118719Y-102611897D01*
X73115465Y-102608087D01*
X72551232Y-103172319D01*
X72507684Y-103090178D01*
X72387991Y-102949265D01*
X72240805Y-102837377D01*
X72198596Y-102817849D01*
X72761912Y-102254533D01*
X72758107Y-102251284D01*
X72758098Y-102251277D01*
X72540015Y-102117636D01*
X72540012Y-102117634D01*
X72303702Y-102019752D01*
X72054988Y-101960042D01*
X72054989Y-101960042D01*
X71800000Y-101939975D01*
X71545010Y-101960042D01*
X71296297Y-102019752D01*
X71059987Y-102117634D01*
X71059984Y-102117636D01*
X70841893Y-102251282D01*
X70838086Y-102254532D01*
X71401391Y-102817837D01*
X71282569Y-102889331D01*
X71148342Y-103016477D01*
X71045138Y-103168692D01*
X70484532Y-102608086D01*
X70481282Y-102611893D01*
X70347637Y-102829981D01*
X70329055Y-102874844D01*
X70285213Y-102929247D01*
X70218919Y-102951311D01*
X70151220Y-102934031D01*
X70103610Y-102882894D01*
X70090494Y-102827390D01*
X70090494Y-102608086D01*
X70090498Y-89392617D01*
X70110183Y-89325580D01*
X70162987Y-89279825D01*
X70232145Y-89269881D01*
X70295701Y-89298906D01*
X70329059Y-89345166D01*
X70347636Y-89390016D01*
X70481277Y-89608098D01*
X70481284Y-89608107D01*
X70484533Y-89611912D01*
X71048766Y-89047678D01*
X71092316Y-89129822D01*
X71212009Y-89270735D01*
X71359195Y-89382623D01*
X71401402Y-89402150D01*
X70838087Y-89965465D01*
X70841897Y-89968719D01*
X71059984Y-90102363D01*
X71059987Y-90102365D01*
X71296297Y-90200247D01*
X71545011Y-90259957D01*
X71545010Y-90259957D01*
X71800000Y-90280024D01*
X72054989Y-90259957D01*
X72303702Y-90200247D01*
X72540012Y-90102365D01*
X72540015Y-90102363D01*
X72758095Y-89968724D01*
X72758110Y-89968713D01*
X72761911Y-89965466D01*
X72761911Y-89965464D01*
X72198609Y-89402161D01*
X72317431Y-89330669D01*
X72451658Y-89203523D01*
X72554861Y-89051308D01*
X73115464Y-89611911D01*
X73115466Y-89611911D01*
X73118713Y-89608110D01*
X73118724Y-89608095D01*
X73252363Y-89390015D01*
X73252365Y-89390012D01*
X73350247Y-89153702D01*
X73409957Y-88904989D01*
X73430024Y-88650000D01*
X75249975Y-88650000D01*
X75270042Y-88904989D01*
X75329752Y-89153702D01*
X75427634Y-89390012D01*
X75427636Y-89390015D01*
X75561277Y-89608098D01*
X75561284Y-89608107D01*
X75564533Y-89611912D01*
X76128766Y-89047678D01*
X76172316Y-89129822D01*
X76292009Y-89270735D01*
X76439195Y-89382623D01*
X76481402Y-89402150D01*
X75918087Y-89965465D01*
X75921897Y-89968719D01*
X76139984Y-90102363D01*
X76139987Y-90102365D01*
X76376297Y-90200247D01*
X76625011Y-90259957D01*
X76625010Y-90259957D01*
X76880000Y-90280024D01*
X77134989Y-90259957D01*
X77383702Y-90200247D01*
X77620012Y-90102365D01*
X77620015Y-90102363D01*
X77838095Y-89968724D01*
X77838110Y-89968713D01*
X77841911Y-89965466D01*
X77841911Y-89965464D01*
X77278609Y-89402161D01*
X77397431Y-89330669D01*
X77531658Y-89203523D01*
X77634861Y-89051308D01*
X78195464Y-89611911D01*
X78195466Y-89611911D01*
X78198713Y-89608110D01*
X78198724Y-89608095D01*
X78332363Y-89390015D01*
X78332365Y-89390012D01*
X78430247Y-89153702D01*
X78489957Y-88904989D01*
X78510024Y-88650000D01*
X78489957Y-88395010D01*
X78430247Y-88146297D01*
X78332365Y-87909987D01*
X78332363Y-87909984D01*
X78198719Y-87691897D01*
X78195465Y-87688087D01*
X77631232Y-88252319D01*
X77587684Y-88170178D01*
X77467991Y-88029265D01*
X77320805Y-87917377D01*
X77278596Y-87897849D01*
X77841912Y-87334533D01*
X77838107Y-87331284D01*
X77838098Y-87331277D01*
X77620015Y-87197636D01*
X77620012Y-87197634D01*
X77383702Y-87099752D01*
X77134988Y-87040042D01*
X77134989Y-87040042D01*
X76880000Y-87019975D01*
X76625010Y-87040042D01*
X76376297Y-87099752D01*
X76139987Y-87197634D01*
X76139984Y-87197636D01*
X75921893Y-87331282D01*
X75918086Y-87334532D01*
X76481391Y-87897837D01*
X76362569Y-87969331D01*
X76228342Y-88096477D01*
X76125138Y-88248692D01*
X75564532Y-87688086D01*
X75561282Y-87691893D01*
X75427636Y-87909984D01*
X75427634Y-87909987D01*
X75329752Y-88146297D01*
X75270042Y-88395010D01*
X75249975Y-88650000D01*
X73430024Y-88650000D01*
X73409957Y-88395010D01*
X73350247Y-88146297D01*
X73252365Y-87909987D01*
X73252363Y-87909984D01*
X73118719Y-87691897D01*
X73115465Y-87688087D01*
X72551232Y-88252319D01*
X72507684Y-88170178D01*
X72387991Y-88029265D01*
X72240805Y-87917377D01*
X72198596Y-87897849D01*
X72761912Y-87334533D01*
X72758107Y-87331284D01*
X72758098Y-87331277D01*
X72540015Y-87197636D01*
X72540012Y-87197634D01*
X72303702Y-87099752D01*
X72054988Y-87040042D01*
X72054989Y-87040042D01*
X71800000Y-87019975D01*
X71545010Y-87040042D01*
X71296297Y-87099752D01*
X71059987Y-87197634D01*
X71059984Y-87197636D01*
X70841893Y-87331282D01*
X70838086Y-87334532D01*
X71401391Y-87897837D01*
X71282569Y-87969331D01*
X71148342Y-88096477D01*
X71045138Y-88248692D01*
X70484532Y-87688086D01*
X70481282Y-87691893D01*
X70347636Y-87909984D01*
X70347635Y-87909985D01*
X70329058Y-87954834D01*
X70285216Y-88009236D01*
X70218922Y-88031300D01*
X70151223Y-88014020D01*
X70103613Y-87962882D01*
X70090498Y-87907383D01*
X70090499Y-86110000D01*
X72809783Y-86110000D01*
X72828623Y-86349382D01*
X72884674Y-86582853D01*
X72884678Y-86582865D01*
X72976565Y-86804702D01*
X73102026Y-87009436D01*
X73102028Y-87009439D01*
X73257973Y-87192027D01*
X73440561Y-87347972D01*
X73440563Y-87347973D01*
X73645297Y-87473434D01*
X73742047Y-87513508D01*
X73867137Y-87565323D01*
X74100621Y-87621377D01*
X74340000Y-87640217D01*
X74579379Y-87621377D01*
X74812863Y-87565323D01*
X75034704Y-87473433D01*
X75239439Y-87347972D01*
X75422027Y-87192027D01*
X75577972Y-87009439D01*
X75703433Y-86804704D01*
X75795323Y-86582863D01*
X75851377Y-86349379D01*
X75870217Y-86110000D01*
X75851377Y-85870621D01*
X75795323Y-85637137D01*
X75711627Y-85435078D01*
X75703434Y-85415297D01*
X75577973Y-85210563D01*
X75577972Y-85210561D01*
X75422027Y-85027973D01*
X75239439Y-84872028D01*
X75239436Y-84872026D01*
X75034702Y-84746565D01*
X74812865Y-84654678D01*
X74812867Y-84654678D01*
X74812863Y-84654677D01*
X74812859Y-84654676D01*
X74812853Y-84654674D01*
X74579382Y-84598623D01*
X74340000Y-84579783D01*
X74100617Y-84598623D01*
X73867146Y-84654674D01*
X73867134Y-84654678D01*
X73645297Y-84746565D01*
X73440563Y-84872026D01*
X73257973Y-85027973D01*
X73102026Y-85210563D01*
X72976565Y-85415297D01*
X72884678Y-85637134D01*
X72884674Y-85637146D01*
X72828623Y-85870617D01*
X72809783Y-86110000D01*
X70090499Y-86110000D01*
X70090500Y-84312622D01*
X70110185Y-84245583D01*
X70162989Y-84199829D01*
X70232147Y-84189885D01*
X70295703Y-84218910D01*
X70329061Y-84265171D01*
X70347634Y-84310012D01*
X70347636Y-84310015D01*
X70481277Y-84528098D01*
X70481284Y-84528107D01*
X70484533Y-84531912D01*
X71048766Y-83967678D01*
X71092316Y-84049822D01*
X71212009Y-84190735D01*
X71359195Y-84302623D01*
X71401402Y-84322150D01*
X70838087Y-84885465D01*
X70841897Y-84888719D01*
X71059984Y-85022363D01*
X71059987Y-85022365D01*
X71296297Y-85120247D01*
X71545011Y-85179957D01*
X71545010Y-85179957D01*
X71800000Y-85200024D01*
X72054989Y-85179957D01*
X72303702Y-85120247D01*
X72540012Y-85022365D01*
X72540015Y-85022363D01*
X72758095Y-84888724D01*
X72758110Y-84888713D01*
X72761911Y-84885466D01*
X72761911Y-84885464D01*
X72198609Y-84322161D01*
X72317431Y-84250669D01*
X72451658Y-84123523D01*
X72554861Y-83971308D01*
X73115464Y-84531911D01*
X73115466Y-84531911D01*
X73118713Y-84528110D01*
X73118724Y-84528095D01*
X73252363Y-84310015D01*
X73252365Y-84310012D01*
X73350247Y-84073702D01*
X73409957Y-83824989D01*
X73430024Y-83570000D01*
X75249975Y-83570000D01*
X75270042Y-83824989D01*
X75329752Y-84073702D01*
X75427634Y-84310012D01*
X75427636Y-84310015D01*
X75561277Y-84528098D01*
X75561284Y-84528107D01*
X75564533Y-84531912D01*
X76128766Y-83967678D01*
X76172316Y-84049822D01*
X76292009Y-84190735D01*
X76439195Y-84302623D01*
X76481402Y-84322150D01*
X75918087Y-84885465D01*
X75921897Y-84888719D01*
X76139984Y-85022363D01*
X76139987Y-85022365D01*
X76376297Y-85120247D01*
X76625011Y-85179957D01*
X76625010Y-85179957D01*
X76880000Y-85200024D01*
X77134989Y-85179957D01*
X77383702Y-85120247D01*
X77620012Y-85022365D01*
X77620015Y-85022363D01*
X77838095Y-84888724D01*
X77838110Y-84888713D01*
X77841911Y-84885466D01*
X77841911Y-84885464D01*
X77278609Y-84322161D01*
X77397431Y-84250669D01*
X77531658Y-84123523D01*
X77634861Y-83971308D01*
X78195464Y-84531911D01*
X78195466Y-84531911D01*
X78198713Y-84528110D01*
X78198724Y-84528095D01*
X78332363Y-84310015D01*
X78332365Y-84310012D01*
X78430247Y-84073702D01*
X78489957Y-83824989D01*
X78510024Y-83570000D01*
X78489957Y-83315010D01*
X78430247Y-83066297D01*
X78332365Y-82829987D01*
X78332363Y-82829984D01*
X78198719Y-82611897D01*
X78195465Y-82608087D01*
X77631232Y-83172319D01*
X77587684Y-83090178D01*
X77467991Y-82949265D01*
X77320805Y-82837377D01*
X77278596Y-82817849D01*
X77841912Y-82254533D01*
X77838107Y-82251284D01*
X77838098Y-82251277D01*
X77620015Y-82117636D01*
X77620012Y-82117634D01*
X77383702Y-82019752D01*
X77134988Y-81960042D01*
X77134989Y-81960042D01*
X76880000Y-81939975D01*
X76625010Y-81960042D01*
X76376297Y-82019752D01*
X76139987Y-82117634D01*
X76139984Y-82117636D01*
X75921893Y-82251282D01*
X75918086Y-82254532D01*
X76481391Y-82817837D01*
X76362569Y-82889331D01*
X76228342Y-83016477D01*
X76125138Y-83168692D01*
X75564532Y-82608086D01*
X75561282Y-82611893D01*
X75427636Y-82829984D01*
X75427634Y-82829987D01*
X75329752Y-83066297D01*
X75270042Y-83315010D01*
X75249975Y-83570000D01*
X73430024Y-83570000D01*
X73409957Y-83315010D01*
X73350247Y-83066297D01*
X73252365Y-82829987D01*
X73252363Y-82829984D01*
X73118719Y-82611897D01*
X73115465Y-82608087D01*
X72551232Y-83172319D01*
X72507684Y-83090178D01*
X72387991Y-82949265D01*
X72240805Y-82837377D01*
X72198596Y-82817849D01*
X72761912Y-82254533D01*
X72758107Y-82251284D01*
X72758098Y-82251277D01*
X72540015Y-82117636D01*
X72540012Y-82117634D01*
X72303702Y-82019752D01*
X72054988Y-81960042D01*
X72054989Y-81960042D01*
X71800000Y-81939975D01*
X71545010Y-81960042D01*
X71296297Y-82019752D01*
X71059987Y-82117634D01*
X71059984Y-82117636D01*
X70841893Y-82251282D01*
X70838086Y-82254532D01*
X71401391Y-82817837D01*
X71282569Y-82889331D01*
X71148342Y-83016477D01*
X71045138Y-83168692D01*
X70484532Y-82608086D01*
X70481282Y-82611893D01*
X70347637Y-82829981D01*
X70329061Y-82874829D01*
X70285219Y-82929232D01*
X70218924Y-82951296D01*
X70151225Y-82934016D01*
X70103615Y-82882878D01*
X70090500Y-82827377D01*
X70090500Y-81203007D01*
X70090647Y-81197007D01*
X70097987Y-81047603D01*
X70098003Y-81047306D01*
X70107747Y-80861385D01*
X70108914Y-80849731D01*
X70133258Y-80685615D01*
X70133431Y-80684495D01*
X70160246Y-80515191D01*
X70162428Y-80504493D01*
X70203466Y-80340663D01*
X70203904Y-80338972D01*
X70247544Y-80176105D01*
X70250546Y-80166491D01*
X70307872Y-80006276D01*
X70308728Y-80003968D01*
X70368741Y-79847631D01*
X70372375Y-79839133D01*
X70445338Y-79684866D01*
X70446857Y-79681773D01*
X70522576Y-79533166D01*
X70526674Y-79525766D01*
X70614550Y-79379154D01*
X70616845Y-79375475D01*
X70707468Y-79235929D01*
X70711819Y-79229663D01*
X70813777Y-79092189D01*
X70816958Y-79088086D01*
X70921527Y-78958954D01*
X70925955Y-78953786D01*
X71040968Y-78826889D01*
X71045086Y-78822564D01*
X71162564Y-78705086D01*
X71166890Y-78700967D01*
X71293781Y-78585959D01*
X71298958Y-78581524D01*
X71428087Y-78476958D01*
X71432193Y-78473774D01*
X71569646Y-78371831D01*
X71575936Y-78367462D01*
X71715493Y-78276833D01*
X71719116Y-78274572D01*
X71865795Y-78186656D01*
X71873176Y-78182570D01*
X72021749Y-78106869D01*
X72024828Y-78105356D01*
X72179150Y-78032367D01*
X72187645Y-78028735D01*
X72343896Y-77968756D01*
X72346372Y-77967838D01*
X72506478Y-77910551D01*
X72516085Y-77907550D01*
X72679080Y-77863875D01*
X72680639Y-77863471D01*
X72844505Y-77822425D01*
X72855179Y-77820248D01*
X73024597Y-77793415D01*
X73025582Y-77793263D01*
X73189730Y-77768914D01*
X73201390Y-77767747D01*
X73310406Y-77762032D01*
X73316926Y-77761863D01*
X87440000Y-77770000D01*
G37*
G04 #@! TD.AperFunction*
M02*
