G04 #@! TF.GenerationSoftware,KiCad,Pcbnew,7.0.10*
G04 #@! TF.CreationDate,2024-07-16T21:32:39-04:00*
G04 #@! TF.ProjectId,button_transmitter,62757474-6f6e-45f7-9472-616e736d6974,1.0*
G04 #@! TF.SameCoordinates,Original*
G04 #@! TF.FileFunction,Soldermask,Bot*
G04 #@! TF.FilePolarity,Negative*
%FSLAX46Y46*%
G04 Gerber Fmt 4.6, Leading zero omitted, Abs format (unit mm)*
G04 Created by KiCad (PCBNEW 7.0.10) date 2024-07-16 21:32:39*
%MOMM*%
%LPD*%
G01*
G04 APERTURE LIST*
%ADD10C,2.484000*%
%ADD11R,1.700000X1.700000*%
%ADD12O,1.700000X1.700000*%
%ADD13C,1.524000*%
%ADD14C,2.000000*%
%ADD15R,0.635000X0.635000*%
%ADD16C,0.635000*%
%ADD17C,6.400000*%
%ADD18C,2.050000*%
%ADD19C,2.250000*%
%ADD20C,0.800000*%
G04 APERTURE END LIST*
D10*
X117029999Y-108329956D03*
X117029999Y-128329956D03*
D11*
X114255000Y-84349999D03*
D12*
X114255000Y-86889999D03*
X111715000Y-84349999D03*
X111715000Y-86889999D03*
X109175000Y-84349999D03*
X109175000Y-86889999D03*
D13*
X101830000Y-127780000D03*
X98830000Y-127780000D03*
X95830000Y-127780000D03*
D14*
X104630000Y-127780000D03*
X93030000Y-127780000D03*
D15*
X112960000Y-91420000D03*
D16*
X110419999Y-92690000D03*
D11*
X95429998Y-93130003D03*
D12*
X95429998Y-90590003D03*
X95429998Y-88050003D03*
D11*
X81895000Y-118160000D03*
D12*
X84435000Y-118160000D03*
D17*
X84170000Y-129670000D03*
D18*
X74340000Y-86110000D03*
D19*
X71800000Y-83570000D03*
X71800000Y-88650000D03*
X76880000Y-83570000D03*
X76880000Y-88650000D03*
D17*
X84150000Y-81730000D03*
X125690000Y-81710000D03*
D18*
X74340000Y-106110000D03*
D19*
X71800000Y-103570000D03*
X71800000Y-108650000D03*
X76880000Y-103570000D03*
X76880000Y-108650000D03*
D18*
X74340000Y-126110000D03*
D19*
X71800000Y-123570000D03*
X71800000Y-128650000D03*
X76880000Y-123570000D03*
X76880000Y-128650000D03*
D17*
X125710000Y-129690000D03*
D20*
X105220000Y-100220000D03*
X72670000Y-93595000D03*
X98250000Y-95610000D03*
X97835000Y-107740000D03*
X99685000Y-105450000D03*
X86510000Y-111810000D03*
X102130000Y-100220000D03*
X90404998Y-83330002D03*
X88400000Y-109590000D03*
X102470000Y-92850000D03*
X106130000Y-82110000D03*
X76205000Y-112750000D03*
X101730000Y-105396666D03*
X72840000Y-118760000D03*
X91810000Y-110833332D03*
X109020000Y-82110000D03*
X102460000Y-88310000D03*
X91800000Y-108456666D03*
X101710000Y-103200000D03*
X98270000Y-84200000D03*
X88800000Y-102225000D03*
X107450000Y-85640000D03*
X90420000Y-85710000D03*
X101730000Y-107593332D03*
X78335706Y-114821618D03*
X72830000Y-121310000D03*
X81920000Y-100770000D03*
X104040000Y-87330000D03*
X76103334Y-99263334D03*
X79943334Y-98993334D03*
X82020000Y-108420000D03*
X76020000Y-90940000D03*
X102460000Y-94900000D03*
X90520000Y-103680000D03*
X99625000Y-100220000D03*
X104010000Y-102290000D03*
X77887500Y-111020000D03*
X93920000Y-97310000D03*
X97610000Y-109830000D03*
X95700000Y-107770000D03*
X79536666Y-102456668D03*
X91830000Y-113210000D03*
X106430000Y-98150000D03*
X76590000Y-116580000D03*
X107810000Y-92690000D03*
X90880000Y-100810000D03*
X98250000Y-93460000D03*
X99280000Y-103230000D03*
X76500000Y-95800000D03*
X74386666Y-97666668D03*
X84500000Y-100780000D03*
X84170000Y-111220000D03*
X92670000Y-94120000D03*
X102470000Y-90590000D03*
X96650000Y-85630000D03*
X107240000Y-88370000D03*
X85670000Y-104234999D03*
X77820000Y-100860000D03*
X80081412Y-113063236D03*
X75840000Y-118760000D03*
X72670000Y-90940000D03*
X101690000Y-109790000D03*
X87080000Y-100770000D03*
X105870000Y-83940000D03*
X81253334Y-104053334D03*
X85670000Y-107904998D03*
X115900000Y-89570000D03*
X105860000Y-87330000D03*
X106410000Y-95820000D03*
X98270000Y-87110000D03*
X97560000Y-111800000D03*
X92570000Y-90120000D03*
X87290000Y-105450000D03*
X96850000Y-103230000D03*
X75830000Y-121310000D03*
X76020000Y-93595000D03*
X111910000Y-82110000D03*
X81827118Y-111304854D03*
X72840000Y-116210000D03*
X79570000Y-109290000D03*
X74522500Y-114480000D03*
X88050000Y-113320000D03*
X95700000Y-104890000D03*
X72670000Y-96070000D03*
X94932500Y-116340000D03*
X98270000Y-97940000D03*
X97120000Y-100220000D03*
X99737500Y-109830000D03*
X78226666Y-97396668D03*
X107200000Y-89940000D03*
M02*
