G04 #@! TF.GenerationSoftware,KiCad,Pcbnew,7.0.10*
G04 #@! TF.CreationDate,2024-07-16T21:42:12-04:00*
G04 #@! TF.ProjectId,button_transmitter,62757474-6f6e-45f7-9472-616e736d6974,1.0*
G04 #@! TF.SameCoordinates,PX42d7d10PY7f6ba10*
G04 #@! TF.FileFunction,Copper,L2,Bot*
G04 #@! TF.FilePolarity,Positive*
%FSLAX46Y46*%
G04 Gerber Fmt 4.6, Leading zero omitted, Abs format (unit mm)*
G04 Created by KiCad (PCBNEW 7.0.10) date 2024-07-16 21:42:12*
%MOMM*%
%LPD*%
G01*
G04 APERTURE LIST*
G04 #@! TA.AperFunction,ComponentPad*
%ADD10R,1.700000X1.700000*%
G04 #@! TD*
G04 #@! TA.AperFunction,ComponentPad*
%ADD11O,1.700000X1.700000*%
G04 #@! TD*
G04 #@! TA.AperFunction,ComponentPad*
%ADD12C,1.524000*%
G04 #@! TD*
G04 #@! TA.AperFunction,ComponentPad*
%ADD13C,2.000000*%
G04 #@! TD*
G04 #@! TA.AperFunction,ComponentPad*
%ADD14R,0.635000X0.635000*%
G04 #@! TD*
G04 #@! TA.AperFunction,ComponentPad*
%ADD15C,0.635000*%
G04 #@! TD*
G04 #@! TA.AperFunction,ComponentPad*
%ADD16C,6.400000*%
G04 #@! TD*
G04 #@! TA.AperFunction,ComponentPad*
%ADD17C,2.050000*%
G04 #@! TD*
G04 #@! TA.AperFunction,ComponentPad*
%ADD18C,2.250000*%
G04 #@! TD*
G04 #@! TA.AperFunction,ComponentPad*
%ADD19C,2.280000*%
G04 #@! TD*
G04 #@! TA.AperFunction,ViaPad*
%ADD20C,0.800000*%
G04 #@! TD*
G04 #@! TA.AperFunction,Conductor*
%ADD21C,0.300000*%
G04 #@! TD*
G04 APERTURE END LIST*
D10*
X44165000Y49260001D03*
D11*
X44165000Y46720001D03*
X41625000Y49260001D03*
X41625000Y46720001D03*
X39085000Y49260001D03*
X39085000Y46720001D03*
D12*
X31740000Y5830000D03*
X28740000Y5830000D03*
X25740000Y5830000D03*
D13*
X34540000Y5830000D03*
X22940000Y5830000D03*
D14*
X42870000Y42190000D03*
D15*
X40329999Y40920000D03*
D10*
X25339998Y40479997D03*
D11*
X25339998Y43019997D03*
X25339998Y45559997D03*
D10*
X11805000Y15450000D03*
D11*
X14345000Y15450000D03*
D16*
X14080000Y3940000D03*
D17*
X4250000Y47500000D03*
D18*
X1710000Y50040000D03*
X1710000Y44960000D03*
X6790000Y50040000D03*
X6790000Y44960000D03*
D16*
X14060000Y51880000D03*
X55600000Y51900000D03*
D17*
X4250000Y27500000D03*
D18*
X1710000Y30040000D03*
X1710000Y24960000D03*
X6790000Y30040000D03*
X6790000Y24960000D03*
D19*
X46939999Y25280044D03*
X46939999Y5280044D03*
D17*
X4250000Y7500000D03*
D18*
X1710000Y10040000D03*
X1710000Y4960000D03*
X6790000Y10040000D03*
X6790000Y4960000D03*
D16*
X55620000Y3920000D03*
D20*
X35130000Y33390000D03*
X2580000Y40015000D03*
X28160000Y38000000D03*
X27745000Y25870000D03*
X29595000Y28160000D03*
X16420000Y21800000D03*
X32040000Y33390000D03*
X20314998Y50279998D03*
X18310000Y24020000D03*
X32380000Y40760000D03*
X36040000Y51500000D03*
X6115000Y20860000D03*
X31640000Y28213334D03*
X2750000Y14850000D03*
X21720000Y22776668D03*
X38930000Y51500000D03*
X32370000Y45300000D03*
X21710000Y25153334D03*
X31620000Y30410000D03*
X28180000Y49410000D03*
X18710000Y31385000D03*
X37360000Y47970000D03*
X20330000Y47900000D03*
X31640000Y26016668D03*
X8245706Y18788382D03*
X2740000Y12300000D03*
X11830000Y32840000D03*
X33950000Y46280000D03*
X6013334Y34346666D03*
X9853334Y34616666D03*
X11930000Y25190000D03*
X5930000Y42670000D03*
X32370000Y38710000D03*
X20430000Y29930000D03*
X29535000Y33390000D03*
X33920000Y31320000D03*
X7797500Y22590000D03*
X23830000Y36300000D03*
X27520000Y23780000D03*
X25610000Y25840000D03*
X9446666Y31153332D03*
X21740000Y20400000D03*
X36340000Y35460000D03*
X6500000Y17030000D03*
X37720000Y40920000D03*
X20790000Y32800000D03*
X28160000Y40150000D03*
X29190000Y30380000D03*
X6410000Y37810000D03*
X4296666Y35943332D03*
X14410000Y32830000D03*
X14080000Y22390000D03*
X22580000Y39490000D03*
X32380000Y43020000D03*
X26560000Y47980000D03*
X37150000Y45240000D03*
X15580000Y29375001D03*
X7730000Y32750000D03*
X9991412Y20546764D03*
X5750000Y14850000D03*
X2580000Y42670000D03*
X31600000Y23820000D03*
X16990000Y32840000D03*
X35780000Y49670000D03*
X11163334Y29556666D03*
X15580000Y25705002D03*
X45810000Y44040000D03*
X35770000Y46280000D03*
X36320000Y37790000D03*
X28180000Y46500000D03*
X27470000Y21810000D03*
X22480000Y43490000D03*
X17200000Y28160000D03*
X26760000Y30380000D03*
X5740000Y12300000D03*
X5930000Y40015000D03*
X41820000Y51500000D03*
X11737118Y22305146D03*
X2750000Y17400000D03*
X9480000Y24320000D03*
X4432500Y19130000D03*
X17960000Y20290000D03*
X25610000Y28720000D03*
X2580000Y37540000D03*
X24842500Y17270000D03*
X28180000Y35670000D03*
X27030000Y33390000D03*
X29647500Y23780000D03*
X8136666Y36213332D03*
X37110000Y43670000D03*
D21*
X26709995Y44190000D02*
X25339998Y45559997D01*
X37110000Y43670000D02*
X36590000Y44190000D01*
X36590000Y44190000D02*
X26709995Y44190000D01*
G04 #@! TA.AperFunction,Conductor*
G36*
X56327789Y55849112D02*
G01*
X56458604Y55842256D01*
X56470251Y55841089D01*
X56634408Y55816739D01*
X56635510Y55816569D01*
X56804817Y55789753D01*
X56815498Y55787575D01*
X56979287Y55746548D01*
X56980950Y55746117D01*
X57143884Y55702459D01*
X57153544Y55699442D01*
X57313601Y55642173D01*
X57316109Y55641243D01*
X57472349Y55581268D01*
X57480877Y55577621D01*
X57635102Y55504678D01*
X57638264Y55503125D01*
X57786815Y55427435D01*
X57794240Y55423324D01*
X57877930Y55373162D01*
X57940802Y55335478D01*
X57944588Y55333115D01*
X58084036Y55242556D01*
X58090367Y55238159D01*
X58227780Y55136247D01*
X58231909Y55133046D01*
X58361025Y55028491D01*
X58366253Y55024010D01*
X58493066Y54909073D01*
X58497474Y54904876D01*
X58614873Y54787477D01*
X58619070Y54783069D01*
X58722542Y54668905D01*
X58734007Y54656256D01*
X58738495Y54651019D01*
X58843028Y54521932D01*
X58846260Y54517762D01*
X58948156Y54380370D01*
X58952553Y54374039D01*
X59043112Y54234591D01*
X59045475Y54230805D01*
X59133314Y54084255D01*
X59137441Y54076801D01*
X59213085Y53928341D01*
X59214695Y53925063D01*
X59287610Y53770898D01*
X59291279Y53762319D01*
X59351217Y53606176D01*
X59352178Y53603583D01*
X59401697Y53465188D01*
X59409437Y53443557D01*
X59412460Y53433877D01*
X59456064Y53271146D01*
X59456573Y53269182D01*
X59497567Y53105526D01*
X59499756Y53094794D01*
X59526573Y52925482D01*
X59526758Y52924278D01*
X59551082Y52760297D01*
X59552254Y52748592D01*
X59562024Y52562156D01*
X59562045Y52561751D01*
X59569348Y52413096D01*
X59569497Y52407012D01*
X59569499Y3991519D01*
X59549814Y3924480D01*
X59542653Y3918276D01*
X59566141Y3877142D01*
X59569499Y3848482D01*
X59569499Y3423053D01*
X59569350Y3416969D01*
X59562014Y3267639D01*
X59561993Y3267234D01*
X59552256Y3081424D01*
X59551084Y3069718D01*
X59526746Y2905653D01*
X59526561Y2904450D01*
X59499756Y2735209D01*
X59497567Y2724477D01*
X59456580Y2560848D01*
X59456071Y2558884D01*
X59412461Y2396130D01*
X59409438Y2386450D01*
X59352193Y2226459D01*
X59351205Y2223795D01*
X59291280Y2067685D01*
X59287611Y2059106D01*
X59214691Y1904930D01*
X59213081Y1901652D01*
X59137448Y1753215D01*
X59133322Y1745762D01*
X59045472Y1599191D01*
X59043108Y1595403D01*
X58952550Y1455957D01*
X58948153Y1449627D01*
X58846264Y1312244D01*
X58843032Y1308074D01*
X58738494Y1178981D01*
X58734006Y1173744D01*
X58619070Y1046932D01*
X58614873Y1042524D01*
X58497476Y925127D01*
X58493068Y920930D01*
X58366256Y805994D01*
X58361019Y801506D01*
X58231926Y696968D01*
X58227756Y693736D01*
X58090373Y591847D01*
X58084043Y587450D01*
X57944597Y496892D01*
X57940809Y494528D01*
X57794238Y406678D01*
X57786785Y402552D01*
X57638348Y326919D01*
X57635070Y325309D01*
X57480894Y252389D01*
X57472315Y248720D01*
X57316205Y188795D01*
X57313541Y187807D01*
X57153550Y130562D01*
X57143870Y127539D01*
X56981116Y83929D01*
X56979152Y83420D01*
X56815523Y42433D01*
X56804791Y40244D01*
X56635536Y13436D01*
X56634332Y13251D01*
X56470282Y-11083D01*
X56458577Y-12255D01*
X56272739Y-21994D01*
X56272334Y-22015D01*
X56143836Y-28327D01*
X56137697Y-28476D01*
X55714569Y-28289D01*
X55647538Y-8575D01*
X55620063Y23161D01*
X55613095Y9800D01*
X55552420Y-24846D01*
X55523705Y-28204D01*
X17334967Y-11270D01*
X17334966Y-11270D01*
X14470000Y-10000D01*
X14469952Y255643D01*
X14850323Y315887D01*
X14850330Y315888D01*
X15224936Y416263D01*
X15586994Y555245D01*
X15932543Y731311D01*
X16257783Y942524D01*
X16257785Y942525D01*
X16515349Y1151098D01*
X15024180Y2642267D01*
X15214870Y2805130D01*
X15377733Y2995820D01*
X16868902Y1504651D01*
X17077475Y1762215D01*
X17077476Y1762217D01*
X17288689Y2087457D01*
X17464755Y2433006D01*
X17603737Y2795064D01*
X17704112Y3169670D01*
X17704113Y3169677D01*
X17764780Y3552713D01*
X17785078Y3940000D01*
X17785078Y3940001D01*
X17764780Y4327288D01*
X17704113Y4710324D01*
X17704112Y4710331D01*
X17603737Y5084937D01*
X17464755Y5446995D01*
X17288689Y5792544D01*
X17264368Y5829995D01*
X21434859Y5829995D01*
X21455385Y5582271D01*
X21455387Y5582262D01*
X21516412Y5341283D01*
X21616266Y5113636D01*
X21716564Y4960118D01*
X22262804Y5506358D01*
X22286059Y5452447D01*
X22390756Y5311815D01*
X22525062Y5199118D01*
X22616665Y5153114D01*
X22069942Y4606391D01*
X22116768Y4569945D01*
X22116770Y4569944D01*
X22335385Y4451636D01*
X22335396Y4451631D01*
X22570506Y4370917D01*
X22815707Y4330000D01*
X23064293Y4330000D01*
X23309493Y4370917D01*
X23544603Y4451631D01*
X23544614Y4451636D01*
X23763228Y4569943D01*
X23763231Y4569945D01*
X23810056Y4606391D01*
X23265945Y5150502D01*
X23278891Y5155213D01*
X23425373Y5251555D01*
X23545688Y5379082D01*
X23618446Y5505106D01*
X24163434Y4960118D01*
X24263731Y5113631D01*
X24355901Y5323759D01*
X24400857Y5377245D01*
X24467592Y5397935D01*
X24534920Y5379261D01*
X24581464Y5327151D01*
X24581816Y5326403D01*
X24616718Y5251555D01*
X24642466Y5196338D01*
X24642468Y5196334D01*
X24769170Y5015385D01*
X24769175Y5015379D01*
X24925378Y4859176D01*
X24925384Y4859171D01*
X25106333Y4732469D01*
X25106335Y4732468D01*
X25106338Y4732466D01*
X25306550Y4639106D01*
X25519932Y4581930D01*
X25677123Y4568178D01*
X25739998Y4562677D01*
X25740000Y4562677D01*
X25740002Y4562677D01*
X25795017Y4567491D01*
X25960068Y4581930D01*
X26173450Y4639106D01*
X26373662Y4732466D01*
X26554620Y4859174D01*
X26710826Y5015380D01*
X26837534Y5196338D01*
X26930894Y5396550D01*
X26988070Y5609932D01*
X27007323Y5829998D01*
X27472677Y5829998D01*
X27491929Y5609938D01*
X27491930Y5609930D01*
X27549104Y5396555D01*
X27549105Y5396553D01*
X27549106Y5396550D01*
X27616718Y5251555D01*
X27642466Y5196338D01*
X27642468Y5196334D01*
X27769170Y5015385D01*
X27769175Y5015379D01*
X27925378Y4859176D01*
X27925384Y4859171D01*
X28106333Y4732469D01*
X28106335Y4732468D01*
X28106338Y4732466D01*
X28306550Y4639106D01*
X28519932Y4581930D01*
X28677123Y4568178D01*
X28739998Y4562677D01*
X28740000Y4562677D01*
X28740002Y4562677D01*
X28795017Y4567491D01*
X28960068Y4581930D01*
X29173450Y4639106D01*
X29373662Y4732466D01*
X29554620Y4859174D01*
X29710826Y5015380D01*
X29837534Y5196338D01*
X29930894Y5396550D01*
X29988070Y5609932D01*
X30007323Y5829998D01*
X30472677Y5829998D01*
X30491929Y5609938D01*
X30491930Y5609930D01*
X30549104Y5396555D01*
X30549105Y5396553D01*
X30549106Y5396550D01*
X30616718Y5251555D01*
X30642466Y5196338D01*
X30642468Y5196334D01*
X30769170Y5015385D01*
X30769175Y5015379D01*
X30925378Y4859176D01*
X30925384Y4859171D01*
X31106333Y4732469D01*
X31106335Y4732468D01*
X31106338Y4732466D01*
X31306550Y4639106D01*
X31519932Y4581930D01*
X31677123Y4568178D01*
X31739998Y4562677D01*
X31740000Y4562677D01*
X31740002Y4562677D01*
X31795017Y4567491D01*
X31960068Y4581930D01*
X32173450Y4639106D01*
X32373662Y4732466D01*
X32554620Y4859174D01*
X32710826Y5015380D01*
X32837534Y5196338D01*
X32898162Y5326358D01*
X32944331Y5378793D01*
X33011525Y5397945D01*
X33078406Y5377730D01*
X33123741Y5324565D01*
X33124098Y5323759D01*
X33216266Y5113636D01*
X33316564Y4960118D01*
X33862804Y5506358D01*
X33886059Y5452447D01*
X33990756Y5311815D01*
X34125062Y5199118D01*
X34216665Y5153114D01*
X33669942Y4606391D01*
X33716768Y4569945D01*
X33716770Y4569944D01*
X33935385Y4451636D01*
X33935396Y4451631D01*
X34170506Y4370917D01*
X34415707Y4330000D01*
X34664293Y4330000D01*
X34909493Y4370917D01*
X35144603Y4451631D01*
X35144614Y4451636D01*
X35363228Y4569943D01*
X35363231Y4569945D01*
X35410056Y4606391D01*
X34865945Y5150502D01*
X34878891Y5155213D01*
X35025373Y5251555D01*
X35145688Y5379082D01*
X35218446Y5505106D01*
X35763434Y4960118D01*
X35863731Y5113631D01*
X35936725Y5280044D01*
X45294426Y5280044D01*
X45314686Y5022617D01*
X45374963Y4771544D01*
X45374967Y4771532D01*
X45473780Y4532974D01*
X45473782Y4532970D01*
X45473783Y4532969D01*
X45608702Y4312800D01*
X45776403Y4116448D01*
X45972755Y3948747D01*
X46192924Y3813828D01*
X46192926Y3813828D01*
X46192928Y3813826D01*
X46267311Y3783016D01*
X46431489Y3715011D01*
X46682575Y3654731D01*
X46939999Y3634471D01*
X47197423Y3654731D01*
X47448509Y3715011D01*
X47687074Y3813828D01*
X47860332Y3920000D01*
X51914922Y3920000D01*
X51935219Y3532713D01*
X51995886Y3149677D01*
X51995887Y3149670D01*
X52096262Y2775064D01*
X52235244Y2413006D01*
X52411310Y2067457D01*
X52622531Y1742207D01*
X52831095Y1484650D01*
X52831096Y1484650D01*
X54322266Y2975820D01*
X54485130Y2785130D01*
X54675819Y2622267D01*
X53184648Y1131097D01*
X53184649Y1131096D01*
X53442206Y922532D01*
X53767456Y711311D01*
X54113005Y535245D01*
X54475063Y396263D01*
X54849669Y295888D01*
X54849676Y295887D01*
X55232712Y235220D01*
X55530250Y219626D01*
X55596167Y196460D01*
X55617399Y169196D01*
X55620947Y176955D01*
X55679742Y214704D01*
X55708134Y219541D01*
X56007287Y235220D01*
X56390323Y295887D01*
X56390330Y295888D01*
X56764936Y396263D01*
X57126994Y535245D01*
X57472543Y711311D01*
X57797783Y922524D01*
X57797785Y922525D01*
X58055349Y1131098D01*
X56564180Y2622267D01*
X56754870Y2785130D01*
X56917733Y2975820D01*
X58408902Y1484651D01*
X58617475Y1742215D01*
X58617476Y1742217D01*
X58828689Y2067457D01*
X59004755Y2413006D01*
X59143737Y2775064D01*
X59244112Y3149670D01*
X59244113Y3149677D01*
X59304780Y3532713D01*
X59321669Y3854971D01*
X59344835Y3920889D01*
X59347918Y3923291D01*
X59326522Y3956584D01*
X59321669Y3985030D01*
X59304780Y4307288D01*
X59244113Y4690324D01*
X59244112Y4690331D01*
X59143737Y5064937D01*
X59004755Y5426995D01*
X58828689Y5772544D01*
X58617468Y6097794D01*
X58408904Y6355351D01*
X58408903Y6355352D01*
X56917732Y4864182D01*
X56754870Y5054870D01*
X56564180Y5217734D01*
X58055350Y6708904D01*
X58055350Y6708905D01*
X57797793Y6917469D01*
X57472543Y7128690D01*
X57126994Y7304756D01*
X56764936Y7443738D01*
X56390330Y7544113D01*
X56390323Y7544114D01*
X56007287Y7604781D01*
X55620001Y7625078D01*
X55619999Y7625078D01*
X55232712Y7604781D01*
X54849676Y7544114D01*
X54849669Y7544113D01*
X54475063Y7443738D01*
X54113005Y7304756D01*
X53767456Y7128690D01*
X53442206Y6917469D01*
X53184648Y6708905D01*
X53184648Y6708904D01*
X54675819Y5217734D01*
X54485130Y5054870D01*
X54322266Y4864182D01*
X52831096Y6355352D01*
X52831095Y6355352D01*
X52622531Y6097794D01*
X52411310Y5772544D01*
X52235244Y5426995D01*
X52096262Y5064937D01*
X51995887Y4690331D01*
X51995886Y4690324D01*
X51935219Y4307288D01*
X51914922Y3920001D01*
X51914922Y3920000D01*
X47860332Y3920000D01*
X47907243Y3948747D01*
X48103595Y4116448D01*
X48271296Y4312800D01*
X48406215Y4532969D01*
X48505032Y4771534D01*
X48565312Y5022620D01*
X48585572Y5280044D01*
X48565312Y5537468D01*
X48505032Y5788554D01*
X48437027Y5952732D01*
X48406217Y6027115D01*
X48392151Y6050068D01*
X48271296Y6247288D01*
X48103595Y6443640D01*
X47907243Y6611341D01*
X47687074Y6746260D01*
X47687073Y6746261D01*
X47687069Y6746263D01*
X47448511Y6845076D01*
X47448513Y6845076D01*
X47448509Y6845077D01*
X47448505Y6845078D01*
X47448499Y6845080D01*
X47197426Y6905357D01*
X46939999Y6925617D01*
X46682571Y6905357D01*
X46431498Y6845080D01*
X46431486Y6845076D01*
X46192928Y6746263D01*
X45972754Y6611341D01*
X45776403Y6443640D01*
X45608702Y6247289D01*
X45473780Y6027115D01*
X45374967Y5788557D01*
X45374963Y5788545D01*
X45314686Y5537472D01*
X45294426Y5280044D01*
X35936725Y5280044D01*
X35963587Y5341283D01*
X36024612Y5582262D01*
X36024614Y5582271D01*
X36045141Y5829995D01*
X36045141Y5830006D01*
X36024614Y6077730D01*
X36024612Y6077739D01*
X35963587Y6318718D01*
X35863731Y6546370D01*
X35763434Y6699884D01*
X35217195Y6153644D01*
X35193941Y6207553D01*
X35089244Y6348185D01*
X34954938Y6460882D01*
X34863334Y6506887D01*
X35410057Y7053610D01*
X35410056Y7053611D01*
X35363229Y7090057D01*
X35144614Y7208365D01*
X35144603Y7208370D01*
X34909493Y7289084D01*
X34664293Y7330000D01*
X34415707Y7330000D01*
X34170506Y7289084D01*
X33935396Y7208370D01*
X33935390Y7208368D01*
X33716761Y7090051D01*
X33669942Y7053612D01*
X33669942Y7053610D01*
X34214054Y6509499D01*
X34201109Y6504787D01*
X34054627Y6408445D01*
X33934312Y6280918D01*
X33861553Y6154895D01*
X33316564Y6699884D01*
X33216267Y6546368D01*
X33124098Y6336242D01*
X33079142Y6282756D01*
X33012406Y6262066D01*
X32945078Y6280741D01*
X32898535Y6332851D01*
X32898216Y6333528D01*
X32837534Y6463661D01*
X32710826Y6644620D01*
X32554620Y6800826D01*
X32554616Y6800829D01*
X32554615Y6800830D01*
X32373666Y6927532D01*
X32373662Y6927534D01*
X32352356Y6937469D01*
X32173450Y7020894D01*
X32173447Y7020895D01*
X32173445Y7020896D01*
X31960070Y7078070D01*
X31960062Y7078071D01*
X31740002Y7097323D01*
X31739998Y7097323D01*
X31519937Y7078071D01*
X31519929Y7078070D01*
X31306554Y7020896D01*
X31306548Y7020893D01*
X31106340Y6927535D01*
X31106338Y6927534D01*
X30925377Y6800825D01*
X30769175Y6644623D01*
X30642466Y6463662D01*
X30642465Y6463660D01*
X30549107Y6263452D01*
X30549104Y6263446D01*
X30491930Y6050071D01*
X30491929Y6050063D01*
X30472677Y5830003D01*
X30472677Y5829998D01*
X30007323Y5829998D01*
X30007323Y5830000D01*
X30007322Y5830006D01*
X29990078Y6027115D01*
X29988070Y6050068D01*
X29930894Y6263450D01*
X29837534Y6463661D01*
X29710826Y6644620D01*
X29554620Y6800826D01*
X29554616Y6800829D01*
X29554615Y6800830D01*
X29373666Y6927532D01*
X29373662Y6927534D01*
X29352356Y6937469D01*
X29173450Y7020894D01*
X29173447Y7020895D01*
X29173445Y7020896D01*
X28960070Y7078070D01*
X28960062Y7078071D01*
X28740002Y7097323D01*
X28739998Y7097323D01*
X28519937Y7078071D01*
X28519929Y7078070D01*
X28306554Y7020896D01*
X28306548Y7020893D01*
X28106340Y6927535D01*
X28106338Y6927534D01*
X27925377Y6800825D01*
X27769175Y6644623D01*
X27642466Y6463662D01*
X27642465Y6463660D01*
X27549107Y6263452D01*
X27549104Y6263446D01*
X27491930Y6050071D01*
X27491929Y6050063D01*
X27472677Y5830003D01*
X27472677Y5829998D01*
X27007323Y5829998D01*
X27007323Y5830000D01*
X27007322Y5830006D01*
X26990078Y6027115D01*
X26988070Y6050068D01*
X26930894Y6263450D01*
X26837534Y6463661D01*
X26710826Y6644620D01*
X26554620Y6800826D01*
X26554616Y6800829D01*
X26554615Y6800830D01*
X26373666Y6927532D01*
X26373662Y6927534D01*
X26352356Y6937469D01*
X26173450Y7020894D01*
X26173447Y7020895D01*
X26173445Y7020896D01*
X25960070Y7078070D01*
X25960062Y7078071D01*
X25740002Y7097323D01*
X25739998Y7097323D01*
X25519937Y7078071D01*
X25519929Y7078070D01*
X25306554Y7020896D01*
X25306548Y7020893D01*
X25106340Y6927535D01*
X25106338Y6927534D01*
X24925377Y6800825D01*
X24769175Y6644623D01*
X24642466Y6463662D01*
X24642465Y6463660D01*
X24581839Y6333647D01*
X24535666Y6281208D01*
X24468473Y6262056D01*
X24401592Y6282272D01*
X24356257Y6335438D01*
X24355901Y6336242D01*
X24263731Y6546370D01*
X24163434Y6699884D01*
X23617195Y6153644D01*
X23593941Y6207553D01*
X23489244Y6348185D01*
X23354938Y6460882D01*
X23263334Y6506887D01*
X23810057Y7053610D01*
X23810056Y7053611D01*
X23763229Y7090057D01*
X23544614Y7208365D01*
X23544603Y7208370D01*
X23309493Y7289084D01*
X23064293Y7330000D01*
X22815707Y7330000D01*
X22570506Y7289084D01*
X22335396Y7208370D01*
X22335390Y7208368D01*
X22116761Y7090051D01*
X22069942Y7053612D01*
X22069942Y7053610D01*
X22614054Y6509499D01*
X22601109Y6504787D01*
X22454627Y6408445D01*
X22334312Y6280918D01*
X22261553Y6154895D01*
X21716564Y6699884D01*
X21616267Y6546368D01*
X21516412Y6318718D01*
X21455387Y6077739D01*
X21455385Y6077730D01*
X21434859Y5830006D01*
X21434859Y5829995D01*
X17264368Y5829995D01*
X17077468Y6117794D01*
X16868904Y6375351D01*
X16868903Y6375352D01*
X15377732Y4884182D01*
X15214870Y5074870D01*
X15024179Y5237735D01*
X16515350Y6728904D01*
X16515350Y6728905D01*
X16257793Y6937469D01*
X15932543Y7148690D01*
X15586994Y7324756D01*
X15224936Y7463738D01*
X14850330Y7564113D01*
X14850323Y7564114D01*
X14468633Y7624568D01*
X14467319Y14962445D01*
X14487315Y14965320D01*
X14595000Y15014499D01*
X14595000Y14119367D01*
X14808483Y14176567D01*
X14808492Y14176571D01*
X15022578Y14276400D01*
X15216082Y14411895D01*
X15383105Y14578918D01*
X15518600Y14772422D01*
X15618429Y14986508D01*
X15618432Y14986514D01*
X15675636Y15200000D01*
X14778686Y15200000D01*
X14804493Y15240156D01*
X14845000Y15378111D01*
X14845000Y15521889D01*
X14804493Y15659844D01*
X14778686Y15700000D01*
X15675636Y15700000D01*
X15675635Y15700001D01*
X15618432Y15913487D01*
X15618429Y15913493D01*
X15518600Y16127578D01*
X15518599Y16127580D01*
X15383113Y16321074D01*
X15383108Y16321080D01*
X15216082Y16488106D01*
X15022578Y16623601D01*
X14808492Y16723430D01*
X14808486Y16723433D01*
X14595000Y16780636D01*
X14595000Y15885502D01*
X14487315Y15934680D01*
X14467144Y15937581D01*
X14465471Y25280044D01*
X45294928Y25280044D01*
X45315182Y25022695D01*
X45375443Y24771689D01*
X45375443Y24771688D01*
X45474227Y24533201D01*
X45474229Y24533198D01*
X45609110Y24313093D01*
X45613894Y24307493D01*
X46255194Y24948794D01*
X46277339Y24897457D01*
X46383432Y24754950D01*
X46519529Y24640750D01*
X46609215Y24595709D01*
X45967446Y23953941D01*
X45967446Y23953940D01*
X45973045Y23949159D01*
X45973051Y23949154D01*
X46193152Y23814275D01*
X46193155Y23814273D01*
X46431643Y23715489D01*
X46682649Y23655228D01*
X46939999Y23634974D01*
X47197348Y23655228D01*
X47448354Y23715489D01*
X47448355Y23715489D01*
X47686842Y23814273D01*
X47686845Y23814275D01*
X47906941Y23949150D01*
X47912549Y23953941D01*
X47273746Y24592744D01*
X47283408Y24596260D01*
X47431843Y24693887D01*
X47553763Y24823114D01*
X47625767Y24947829D01*
X48266102Y24307494D01*
X48270893Y24313102D01*
X48405768Y24533198D01*
X48405770Y24533201D01*
X48504554Y24771688D01*
X48504554Y24771689D01*
X48564815Y25022695D01*
X48585069Y25280044D01*
X48564815Y25537394D01*
X48504554Y25788400D01*
X48504554Y25788401D01*
X48405770Y26026888D01*
X48405768Y26026891D01*
X48270889Y26246992D01*
X48270884Y26246998D01*
X48266102Y26252597D01*
X47624802Y25611297D01*
X47602659Y25662631D01*
X47496566Y25805138D01*
X47360469Y25919338D01*
X47270782Y25964380D01*
X47912550Y26606149D01*
X47912550Y26606150D01*
X47906950Y26610933D01*
X47686845Y26745814D01*
X47686842Y26745816D01*
X47448354Y26844600D01*
X47197348Y26904861D01*
X46939999Y26925115D01*
X46682649Y26904861D01*
X46431643Y26844600D01*
X46431642Y26844600D01*
X46193155Y26745816D01*
X46193152Y26745814D01*
X45973056Y26610939D01*
X45973051Y26610935D01*
X45967446Y26606150D01*
X46606251Y25967345D01*
X46596590Y25963828D01*
X46448155Y25866201D01*
X46326235Y25736974D01*
X46254230Y25612260D01*
X45613893Y26252597D01*
X45609108Y26246992D01*
X45609104Y26246987D01*
X45474229Y26026891D01*
X45474227Y26026888D01*
X45375443Y25788401D01*
X45375443Y25788400D01*
X45315182Y25537394D01*
X45294928Y25280044D01*
X14465471Y25280044D01*
X14462295Y43019997D01*
X23984339Y43019997D01*
X24004934Y42784594D01*
X24004936Y42784584D01*
X24066092Y42556342D01*
X24066094Y42556338D01*
X24066095Y42556334D01*
X24066547Y42555365D01*
X24165963Y42342167D01*
X24165965Y42342163D01*
X24274279Y42187476D01*
X24301499Y42148601D01*
X24301504Y42148595D01*
X24423428Y42026671D01*
X24456913Y41965348D01*
X24451929Y41895656D01*
X24410057Y41839723D01*
X24379081Y41822808D01*
X24247667Y41773794D01*
X24247662Y41773791D01*
X24132453Y41687545D01*
X24132450Y41687542D01*
X24046204Y41572333D01*
X24046200Y41572326D01*
X23995906Y41437480D01*
X23989556Y41378411D01*
X23989499Y41377874D01*
X23989498Y41377862D01*
X23989498Y39582127D01*
X23989499Y39582121D01*
X23995906Y39522514D01*
X24046200Y39387669D01*
X24046204Y39387662D01*
X24132450Y39272453D01*
X24132453Y39272450D01*
X24247662Y39186204D01*
X24247669Y39186200D01*
X24382515Y39135906D01*
X24382514Y39135906D01*
X24389442Y39135162D01*
X24442125Y39129497D01*
X26237870Y39129498D01*
X26297481Y39135906D01*
X26432329Y39186201D01*
X26547544Y39272451D01*
X26633794Y39387666D01*
X26684089Y39522514D01*
X26690498Y39582124D01*
X26690498Y40190646D01*
X39954196Y40190646D01*
X39973053Y40178798D01*
X40146940Y40117953D01*
X40146945Y40117952D01*
X40329995Y40097327D01*
X40330003Y40097327D01*
X40513052Y40117952D01*
X40513054Y40117952D01*
X40686947Y40178800D01*
X40705800Y40190647D01*
X40330000Y40566447D01*
X40329999Y40566447D01*
X39954196Y40190647D01*
X39954196Y40190646D01*
X26690498Y40190646D01*
X26690497Y40919997D01*
X39507326Y40919997D01*
X39527950Y40736947D01*
X39527951Y40736942D01*
X39588796Y40563055D01*
X39600643Y40544200D01*
X39600644Y40544200D01*
X39976446Y40920000D01*
X40174708Y40920000D01*
X40195513Y40842355D01*
X40252354Y40785514D01*
X40310253Y40770000D01*
X40349745Y40770000D01*
X40407644Y40785514D01*
X40464485Y40842354D01*
X40485290Y40919999D01*
X40683552Y40919999D01*
X41059352Y40544199D01*
X41071199Y40563052D01*
X41132047Y40736945D01*
X41132047Y40736947D01*
X41152672Y40919997D01*
X41152672Y40920004D01*
X41132047Y41103054D01*
X41132046Y41103059D01*
X41071201Y41276946D01*
X41059352Y41295803D01*
X40683552Y40920001D01*
X40683552Y40919999D01*
X40485290Y40919999D01*
X40485290Y40920000D01*
X40464485Y40997645D01*
X40407644Y41054486D01*
X40349745Y41070000D01*
X40310253Y41070000D01*
X40252354Y41054486D01*
X40195513Y40997646D01*
X40174708Y40920000D01*
X39976446Y40920000D01*
X39976446Y40920001D01*
X39600644Y41295803D01*
X39588796Y41276945D01*
X39527951Y41103059D01*
X39527950Y41103054D01*
X39507326Y40920004D01*
X39507326Y40919997D01*
X26690497Y40919997D01*
X26690497Y41377869D01*
X26684089Y41437480D01*
X26655193Y41514953D01*
X26633795Y41572326D01*
X26633791Y41572333D01*
X26576132Y41649355D01*
X39954196Y41649355D01*
X40329999Y41273553D01*
X40330000Y41273553D01*
X40705799Y41649355D01*
X40705799Y41649356D01*
X40686944Y41661203D01*
X40513057Y41722048D01*
X40513052Y41722049D01*
X40330003Y41742673D01*
X40329995Y41742673D01*
X40146945Y41722049D01*
X40146940Y41722048D01*
X39973054Y41661203D01*
X39954196Y41649355D01*
X26576132Y41649355D01*
X26547545Y41687542D01*
X26547542Y41687545D01*
X26432333Y41773791D01*
X26432326Y41773795D01*
X26300915Y41822808D01*
X26298481Y41824630D01*
X42052000Y41824630D01*
X42052001Y41824624D01*
X42058408Y41765017D01*
X42108702Y41630172D01*
X42108706Y41630165D01*
X42194952Y41514956D01*
X42194955Y41514953D01*
X42310164Y41428707D01*
X42310171Y41428703D01*
X42355118Y41411939D01*
X42445017Y41378409D01*
X42504627Y41372000D01*
X43235372Y41372001D01*
X43294983Y41378409D01*
X43429831Y41428704D01*
X43545046Y41514954D01*
X43631296Y41630169D01*
X43681591Y41765017D01*
X43688000Y41824627D01*
X43687999Y42555372D01*
X43681591Y42614983D01*
X43631296Y42749831D01*
X43631295Y42749832D01*
X43631293Y42749836D01*
X43545047Y42865045D01*
X43545044Y42865048D01*
X43429835Y42951294D01*
X43429828Y42951298D01*
X43294986Y43001590D01*
X43294985Y43001591D01*
X43294983Y43001591D01*
X43235373Y43008000D01*
X43235363Y43008000D01*
X42504629Y43008000D01*
X42504623Y43007999D01*
X42445016Y43001592D01*
X42310171Y42951298D01*
X42310164Y42951294D01*
X42194955Y42865048D01*
X42194952Y42865045D01*
X42108706Y42749836D01*
X42108702Y42749829D01*
X42058410Y42614987D01*
X42058409Y42614983D01*
X42052000Y42555373D01*
X42052000Y42555366D01*
X42052000Y42555365D01*
X42052000Y41824630D01*
X26298481Y41824630D01*
X26244981Y41864679D01*
X26220564Y41930144D01*
X26235416Y41998417D01*
X26256561Y42026665D01*
X26378493Y42148596D01*
X26514033Y42342167D01*
X26613901Y42556334D01*
X26675061Y42784589D01*
X26695657Y43019997D01*
X26675061Y43255405D01*
X26661714Y43305217D01*
X26640764Y43383407D01*
X26642427Y43453257D01*
X26681590Y43511119D01*
X26745819Y43538623D01*
X26760539Y43539500D01*
X36115469Y43539500D01*
X36182508Y43519815D01*
X36228263Y43467011D01*
X36233400Y43453818D01*
X36282818Y43301722D01*
X36282821Y43301716D01*
X36377467Y43137784D01*
X36483522Y43019998D01*
X36504129Y42997112D01*
X36657265Y42885852D01*
X36657270Y42885849D01*
X36830192Y42808858D01*
X36830197Y42808856D01*
X37015354Y42769500D01*
X37015355Y42769500D01*
X37204644Y42769500D01*
X37204646Y42769500D01*
X37389803Y42808856D01*
X37562730Y42885849D01*
X37715871Y42997112D01*
X37842533Y43137784D01*
X37937179Y43301716D01*
X37995674Y43481744D01*
X38015460Y43670000D01*
X37995674Y43858256D01*
X37937179Y44038284D01*
X37842533Y44202216D01*
X37715871Y44342888D01*
X37715870Y44342889D01*
X37562734Y44454149D01*
X37562729Y44454152D01*
X37389807Y44531143D01*
X37389802Y44531145D01*
X37244001Y44562135D01*
X37204646Y44570500D01*
X37204645Y44570500D01*
X37184167Y44570500D01*
X37117128Y44590185D01*
X37099283Y44604108D01*
X37044166Y44655866D01*
X37041369Y44658577D01*
X37021035Y44678911D01*
X37017548Y44681616D01*
X37008669Y44689200D01*
X36975396Y44720446D01*
X36975388Y44720452D01*
X36956792Y44730675D01*
X36940531Y44741356D01*
X36923763Y44754363D01*
X36907409Y44761440D01*
X36881853Y44772499D01*
X36871394Y44777623D01*
X36831368Y44799627D01*
X36831365Y44799628D01*
X36810801Y44804908D01*
X36792396Y44811210D01*
X36772927Y44819635D01*
X36772921Y44819637D01*
X36727837Y44826777D01*
X36716398Y44829146D01*
X36672180Y44840500D01*
X36672177Y44840500D01*
X36650955Y44840500D01*
X36631555Y44842027D01*
X36610596Y44845347D01*
X36610595Y44845347D01*
X36575475Y44842027D01*
X36565140Y44841050D01*
X36553470Y44840500D01*
X27030803Y44840500D01*
X26963764Y44860185D01*
X26943122Y44876819D01*
X26687707Y45132234D01*
X26654222Y45193557D01*
X26655613Y45252008D01*
X26656543Y45255480D01*
X26675061Y45324589D01*
X26695657Y45559997D01*
X26675061Y45795405D01*
X26613901Y46023660D01*
X26514033Y46237826D01*
X26501066Y46256346D01*
X26378492Y46431400D01*
X26211400Y46598491D01*
X26211393Y46598496D01*
X26017832Y46734030D01*
X26017828Y46734032D01*
X25893751Y46791890D01*
X25803661Y46833900D01*
X25803657Y46833901D01*
X25803653Y46833903D01*
X25575411Y46895059D01*
X25575401Y46895061D01*
X25339999Y46915656D01*
X25339997Y46915656D01*
X25104594Y46895061D01*
X25104584Y46895059D01*
X24876342Y46833903D01*
X24876333Y46833899D01*
X24662169Y46734033D01*
X24662167Y46734032D01*
X24468595Y46598492D01*
X24301503Y46431400D01*
X24165963Y46237828D01*
X24165962Y46237826D01*
X24066096Y46023662D01*
X24066092Y46023653D01*
X24004936Y45795411D01*
X24004934Y45795401D01*
X23984339Y45559998D01*
X23984339Y45559997D01*
X24004934Y45324594D01*
X24004936Y45324584D01*
X24066092Y45096342D01*
X24066094Y45096338D01*
X24066095Y45096334D01*
X24165963Y44882167D01*
X24165965Y44882163D01*
X24301499Y44688602D01*
X24301504Y44688595D01*
X24468595Y44521504D01*
X24468601Y44521499D01*
X24654156Y44391572D01*
X24697781Y44336995D01*
X24704975Y44267497D01*
X24673452Y44205142D01*
X24654156Y44188422D01*
X24468595Y44058492D01*
X24301503Y43891400D01*
X24165963Y43697828D01*
X24165962Y43697826D01*
X24066096Y43483662D01*
X24066092Y43483653D01*
X24004936Y43255411D01*
X24004934Y43255401D01*
X23984339Y43019998D01*
X23984339Y43019997D01*
X14462295Y43019997D01*
X14461368Y48197451D01*
X14830323Y48255887D01*
X14830330Y48255888D01*
X15204936Y48356263D01*
X15566994Y48495245D01*
X15912543Y48671311D01*
X16237783Y48882524D01*
X16237785Y48882525D01*
X16495349Y49091098D01*
X16326446Y49260001D01*
X37729341Y49260001D01*
X37749936Y49024598D01*
X37749938Y49024588D01*
X37811094Y48796346D01*
X37811096Y48796342D01*
X37811097Y48796338D01*
X37815000Y48787969D01*
X37910965Y48582171D01*
X37910967Y48582167D01*
X37957827Y48515245D01*
X38046501Y48388605D01*
X38046506Y48388599D01*
X38213597Y48221508D01*
X38213603Y48221503D01*
X38399594Y48091271D01*
X38443219Y48036694D01*
X38450413Y47967196D01*
X38418890Y47904841D01*
X38399595Y47888121D01*
X38213922Y47758111D01*
X38213920Y47758110D01*
X38046891Y47591081D01*
X38046886Y47591075D01*
X37911400Y47397581D01*
X37911399Y47397579D01*
X37811570Y47183494D01*
X37811567Y47183488D01*
X37754364Y46970002D01*
X37754364Y46970001D01*
X38651314Y46970001D01*
X38625507Y46929845D01*
X38585000Y46791890D01*
X38585000Y46648112D01*
X38625507Y46510157D01*
X38651314Y46470001D01*
X37754364Y46470001D01*
X37811567Y46256515D01*
X37811570Y46256509D01*
X37911399Y46042423D01*
X38046894Y45848919D01*
X38213917Y45681896D01*
X38407421Y45546401D01*
X38621507Y45446572D01*
X38621516Y45446568D01*
X38835000Y45389367D01*
X38835000Y46284500D01*
X38942685Y46235321D01*
X39049237Y46220001D01*
X39120763Y46220001D01*
X39227315Y46235321D01*
X39335000Y46284500D01*
X39335000Y45389368D01*
X39548483Y45446568D01*
X39548492Y45446572D01*
X39762578Y45546401D01*
X39956082Y45681896D01*
X40123105Y45848919D01*
X40253119Y46034596D01*
X40307696Y46078220D01*
X40377195Y46085413D01*
X40439549Y46053891D01*
X40456269Y46034596D01*
X40586505Y45848600D01*
X40753599Y45681506D01*
X40850384Y45613736D01*
X40947165Y45545969D01*
X40947167Y45545968D01*
X40947170Y45545966D01*
X41161337Y45446098D01*
X41389592Y45384938D01*
X41577918Y45368462D01*
X41624999Y45364342D01*
X41625000Y45364342D01*
X41625001Y45364342D01*
X41664234Y45367775D01*
X41860408Y45384938D01*
X42088663Y45446098D01*
X42302830Y45545966D01*
X42496401Y45681506D01*
X42663495Y45848600D01*
X42793425Y46034159D01*
X42848002Y46077784D01*
X42917500Y46084978D01*
X42979855Y46053455D01*
X42996575Y46034159D01*
X43126500Y45848606D01*
X43126505Y45848600D01*
X43293599Y45681506D01*
X43390384Y45613736D01*
X43487165Y45545969D01*
X43487167Y45545968D01*
X43487170Y45545966D01*
X43701337Y45446098D01*
X43929592Y45384938D01*
X44117918Y45368462D01*
X44164999Y45364342D01*
X44165000Y45364342D01*
X44165001Y45364342D01*
X44204234Y45367775D01*
X44400408Y45384938D01*
X44628663Y45446098D01*
X44842830Y45545966D01*
X45036401Y45681506D01*
X45203495Y45848600D01*
X45339035Y46042171D01*
X45438903Y46256338D01*
X45500063Y46484593D01*
X45520659Y46720001D01*
X45500063Y46955409D01*
X45438903Y47183664D01*
X45339035Y47397830D01*
X45333730Y47405406D01*
X45203496Y47591401D01*
X45203490Y47591407D01*
X45081567Y47713330D01*
X45048084Y47774650D01*
X45053068Y47844342D01*
X45094939Y47900276D01*
X45125915Y47917191D01*
X45257331Y47966205D01*
X45372546Y48052455D01*
X45458796Y48167670D01*
X45509091Y48302518D01*
X45515500Y48362128D01*
X45515499Y50157873D01*
X45509091Y50217484D01*
X45507810Y50220918D01*
X45458797Y50352330D01*
X45458793Y50352337D01*
X45372547Y50467546D01*
X45372544Y50467549D01*
X45257335Y50553795D01*
X45257328Y50553799D01*
X45122482Y50604093D01*
X45122483Y50604093D01*
X45062883Y50610500D01*
X45062881Y50610501D01*
X45062873Y50610501D01*
X45062864Y50610501D01*
X43267129Y50610501D01*
X43267123Y50610500D01*
X43207516Y50604093D01*
X43072671Y50553799D01*
X43072664Y50553795D01*
X42957455Y50467549D01*
X42957452Y50467546D01*
X42871206Y50352337D01*
X42871203Y50352332D01*
X42822189Y50220918D01*
X42780317Y50164985D01*
X42714853Y50140568D01*
X42646580Y50155420D01*
X42618326Y50176571D01*
X42496402Y50298495D01*
X42496395Y50298500D01*
X42302834Y50434034D01*
X42302830Y50434036D01*
X42268636Y50449981D01*
X42088663Y50533904D01*
X42088659Y50533905D01*
X42088655Y50533907D01*
X41860413Y50595063D01*
X41860403Y50595065D01*
X41625001Y50615660D01*
X41624999Y50615660D01*
X41389596Y50595065D01*
X41389586Y50595063D01*
X41161344Y50533907D01*
X41161335Y50533903D01*
X40947171Y50434037D01*
X40947169Y50434036D01*
X40753597Y50298496D01*
X40586505Y50131404D01*
X40456575Y49945843D01*
X40401998Y49902218D01*
X40332500Y49895024D01*
X40270145Y49926547D01*
X40253425Y49945843D01*
X40123494Y50131404D01*
X39956402Y50298495D01*
X39956395Y50298500D01*
X39762834Y50434034D01*
X39762830Y50434036D01*
X39728636Y50449981D01*
X39548663Y50533904D01*
X39548659Y50533905D01*
X39548655Y50533907D01*
X39320413Y50595063D01*
X39320403Y50595065D01*
X39085001Y50615660D01*
X39084999Y50615660D01*
X38849596Y50595065D01*
X38849586Y50595063D01*
X38621344Y50533907D01*
X38621335Y50533903D01*
X38407171Y50434037D01*
X38407169Y50434036D01*
X38213597Y50298496D01*
X38046505Y50131404D01*
X37910965Y49937832D01*
X37910964Y49937830D01*
X37811098Y49723666D01*
X37811094Y49723657D01*
X37749938Y49495415D01*
X37749936Y49495405D01*
X37729341Y49260002D01*
X37729341Y49260001D01*
X16326446Y49260001D01*
X15004180Y50582267D01*
X15194870Y50745130D01*
X15357733Y50935820D01*
X16848902Y49444651D01*
X17057475Y49702215D01*
X17057476Y49702217D01*
X17268689Y50027457D01*
X17444755Y50373006D01*
X17583737Y50735064D01*
X17684112Y51109670D01*
X17684113Y51109677D01*
X17744780Y51492713D01*
X17765078Y51880000D01*
X17765078Y51880001D01*
X17764030Y51900000D01*
X51894922Y51900000D01*
X51915219Y51512713D01*
X51975886Y51129677D01*
X51975887Y51129670D01*
X52076262Y50755064D01*
X52215244Y50393006D01*
X52391310Y50047457D01*
X52602531Y49722207D01*
X52811095Y49464650D01*
X52811096Y49464650D01*
X54302266Y50955820D01*
X54465130Y50765130D01*
X54655819Y50602267D01*
X53164648Y49111097D01*
X53164649Y49111096D01*
X53422206Y48902532D01*
X53747456Y48691311D01*
X54093005Y48515245D01*
X54455063Y48376263D01*
X54829669Y48275888D01*
X54829676Y48275887D01*
X55212712Y48215220D01*
X55599999Y48194922D01*
X55600001Y48194922D01*
X55987287Y48215220D01*
X56370323Y48275887D01*
X56370330Y48275888D01*
X56744936Y48376263D01*
X57106994Y48515245D01*
X57452543Y48691311D01*
X57777783Y48902524D01*
X57777785Y48902525D01*
X58035349Y49111098D01*
X56544180Y50602267D01*
X56734870Y50765130D01*
X56897733Y50955820D01*
X58388902Y49464651D01*
X58597475Y49722215D01*
X58597476Y49722217D01*
X58808689Y50047457D01*
X58984755Y50393006D01*
X59123737Y50755064D01*
X59224112Y51129670D01*
X59224113Y51129677D01*
X59284780Y51512713D01*
X59305078Y51900000D01*
X59305078Y51900001D01*
X59284780Y52287288D01*
X59224113Y52670324D01*
X59224112Y52670331D01*
X59123737Y53044937D01*
X58984755Y53406995D01*
X58808689Y53752544D01*
X58597468Y54077794D01*
X58388904Y54335351D01*
X58388903Y54335352D01*
X56897732Y52844182D01*
X56734870Y53034870D01*
X56544180Y53197734D01*
X58035350Y54688904D01*
X58035350Y54688905D01*
X57777793Y54897469D01*
X57452543Y55108690D01*
X57106994Y55284756D01*
X56744936Y55423738D01*
X56370330Y55524113D01*
X56370323Y55524114D01*
X55987287Y55584781D01*
X55671939Y55601308D01*
X55606022Y55624474D01*
X55598803Y55633743D01*
X55555864Y55606134D01*
X55527393Y55601273D01*
X55212712Y55584781D01*
X54829676Y55524114D01*
X54829669Y55524113D01*
X54455063Y55423738D01*
X54093005Y55284756D01*
X53747456Y55108690D01*
X53422206Y54897469D01*
X53164648Y54688905D01*
X53164648Y54688904D01*
X54655819Y53197734D01*
X54465130Y53034870D01*
X54302266Y52844182D01*
X52811096Y54335352D01*
X52811095Y54335352D01*
X52602531Y54077794D01*
X52391310Y53752544D01*
X52215244Y53406995D01*
X52076262Y53044937D01*
X51975887Y52670331D01*
X51975886Y52670324D01*
X51915219Y52287288D01*
X51894922Y51900001D01*
X51894922Y51900000D01*
X17764030Y51900000D01*
X17744780Y52267288D01*
X17684113Y52650324D01*
X17684112Y52650331D01*
X17583737Y53024937D01*
X17444755Y53386995D01*
X17268689Y53732544D01*
X17057468Y54057794D01*
X16848904Y54315351D01*
X16848903Y54315352D01*
X15357732Y52824182D01*
X15194870Y53014870D01*
X15004179Y53177734D01*
X16495350Y54668904D01*
X16495350Y54668905D01*
X16237793Y54877469D01*
X15912543Y55088690D01*
X15566994Y55264756D01*
X15204936Y55403738D01*
X14830330Y55504113D01*
X14830323Y55504114D01*
X14460049Y55562760D01*
X14460000Y55840000D01*
X55520876Y55849103D01*
X55587919Y55829433D01*
X55598918Y55816745D01*
X55649769Y55845780D01*
X55678398Y55849138D01*
X56321310Y55849281D01*
X56327789Y55849112D01*
G37*
G04 #@! TD.AperFunction*
G04 #@! TA.AperFunction,Conductor*
G36*
X17350000Y55840000D02*
G01*
X17350000Y53572963D01*
X17268689Y53732544D01*
X17057468Y54057794D01*
X16848904Y54315351D01*
X16848903Y54315352D01*
X15357732Y52824182D01*
X15194870Y53014870D01*
X15004180Y53177734D01*
X16495350Y54668904D01*
X16495350Y54668905D01*
X16237793Y54877469D01*
X15912543Y55088690D01*
X15566994Y55264756D01*
X15204936Y55403738D01*
X14830330Y55504113D01*
X14830323Y55504114D01*
X14447287Y55564781D01*
X14060001Y55585078D01*
X14059999Y55585078D01*
X13672712Y55564781D01*
X13289676Y55504114D01*
X13289669Y55504113D01*
X12915063Y55403738D01*
X12553005Y55264756D01*
X12207456Y55088690D01*
X11882206Y54877469D01*
X11624648Y54668905D01*
X11624648Y54668904D01*
X13115819Y53177734D01*
X12925130Y53014870D01*
X12762266Y52824182D01*
X11271096Y54315352D01*
X11271095Y54315352D01*
X11062531Y54057794D01*
X10851310Y53732544D01*
X10675244Y53386995D01*
X10536262Y53024937D01*
X10435887Y52650331D01*
X10435886Y52650324D01*
X10375219Y52267288D01*
X10354922Y51880001D01*
X10354922Y51880000D01*
X10375219Y51492713D01*
X10435886Y51109677D01*
X10435887Y51109670D01*
X10536262Y50735064D01*
X10675244Y50373006D01*
X10851310Y50027457D01*
X11062531Y49702207D01*
X11271095Y49444650D01*
X11271096Y49444650D01*
X12762266Y50935820D01*
X12925130Y50745130D01*
X13115819Y50582267D01*
X11624648Y49091097D01*
X11624649Y49091096D01*
X11882206Y48882532D01*
X12207456Y48671311D01*
X12553005Y48495245D01*
X12915063Y48356263D01*
X13289669Y48255888D01*
X13289676Y48255887D01*
X13672712Y48195220D01*
X14059999Y48174922D01*
X14060001Y48174922D01*
X14447287Y48195220D01*
X14830323Y48255887D01*
X14830330Y48255888D01*
X15204936Y48356263D01*
X15566994Y48495245D01*
X15912543Y48671311D01*
X16237783Y48882524D01*
X16237785Y48882525D01*
X16495349Y49091098D01*
X15004180Y50582267D01*
X15194870Y50745130D01*
X15357733Y50935820D01*
X16848902Y49444651D01*
X17057475Y49702215D01*
X17057476Y49702217D01*
X17268689Y50027457D01*
X17350000Y50187039D01*
X17350000Y5672215D01*
X17288689Y5792544D01*
X17077468Y6117794D01*
X16868904Y6375351D01*
X16868903Y6375352D01*
X15377732Y4884182D01*
X15214870Y5074870D01*
X15024180Y5237734D01*
X16515350Y6728904D01*
X16515350Y6728905D01*
X16257793Y6937469D01*
X15932543Y7148690D01*
X15586994Y7324756D01*
X15224936Y7463738D01*
X14850330Y7564113D01*
X14850323Y7564114D01*
X14467287Y7624781D01*
X14080001Y7645078D01*
X14079999Y7645078D01*
X13692712Y7624781D01*
X13309676Y7564114D01*
X13309669Y7564113D01*
X12935063Y7463738D01*
X12573005Y7324756D01*
X12227456Y7148690D01*
X11902206Y6937469D01*
X11644648Y6728905D01*
X11644648Y6728904D01*
X13135819Y5237734D01*
X12945130Y5074870D01*
X12782266Y4884182D01*
X11291096Y6375352D01*
X11291095Y6375352D01*
X11082531Y6117794D01*
X10871310Y5792544D01*
X10695244Y5446995D01*
X10556262Y5084937D01*
X10455887Y4710331D01*
X10455886Y4710324D01*
X10395219Y4327288D01*
X10374922Y3940001D01*
X10374922Y3940000D01*
X10395219Y3552713D01*
X10455886Y3169677D01*
X10455887Y3169670D01*
X10556262Y2795064D01*
X10695244Y2433006D01*
X10871310Y2087457D01*
X11082531Y1762207D01*
X11291095Y1504650D01*
X11291096Y1504650D01*
X12782266Y2995820D01*
X12945130Y2805130D01*
X13135819Y2642267D01*
X11644648Y1151097D01*
X11644649Y1151096D01*
X11902206Y942532D01*
X12227456Y731311D01*
X12573005Y555245D01*
X12935063Y416263D01*
X13309669Y315888D01*
X13309676Y315887D01*
X13692712Y255220D01*
X14079999Y234922D01*
X14080001Y234922D01*
X14467287Y255220D01*
X14850323Y315887D01*
X14850330Y315888D01*
X15224936Y416263D01*
X15586994Y555245D01*
X15932543Y731311D01*
X16257783Y942524D01*
X16257785Y942525D01*
X16515349Y1151098D01*
X15024180Y2642267D01*
X15214870Y2805130D01*
X15377733Y2995820D01*
X16868902Y1504651D01*
X17077475Y1762215D01*
X17077476Y1762217D01*
X17288691Y2087459D01*
X17288692Y2087462D01*
X17350000Y2207786D01*
X17350000Y-11275D01*
X17334970Y-11269D01*
X17306754Y-26668D01*
X17280426Y-29495D01*
X12794232Y-29495D01*
X3081779Y-7103D01*
X3063871Y-5761D01*
X2935687Y13253D01*
X2934482Y13438D01*
X2765192Y40252D01*
X2754461Y42441D01*
X2590825Y83431D01*
X2588861Y83940D01*
X2426109Y127550D01*
X2416428Y130574D01*
X2256496Y187799D01*
X2253833Y188786D01*
X2097650Y248740D01*
X2089071Y252409D01*
X1994722Y297033D01*
X1934943Y325307D01*
X1931693Y326903D01*
X1783190Y402570D01*
X1775736Y406697D01*
X1629205Y494525D01*
X1625419Y496888D01*
X1485954Y587458D01*
X1479622Y591855D01*
X1342228Y693754D01*
X1338059Y696986D01*
X1208971Y801520D01*
X1203734Y806008D01*
X1076933Y920934D01*
X1072525Y925131D01*
X1055124Y942532D01*
X955116Y1042541D01*
X950948Y1046918D01*
X835979Y1173767D01*
X831492Y1179004D01*
X726968Y1308081D01*
X723736Y1312251D01*
X621844Y1449638D01*
X617447Y1455969D01*
X526888Y1595417D01*
X524537Y1599183D01*
X436680Y1745764D01*
X432555Y1753216D01*
X427969Y1762217D01*
X356881Y1901735D01*
X355325Y1904904D01*
X282389Y2059116D01*
X278726Y2067679D01*
X218773Y2223863D01*
X217832Y2226401D01*
X160555Y2386481D01*
X157542Y2396129D01*
X113926Y2558909D01*
X113431Y2560818D01*
X72431Y2724498D01*
X70249Y2735195D01*
X43386Y2904803D01*
X43303Y2905343D01*
X18915Y3069757D01*
X17748Y3081398D01*
X8156Y3264254D01*
X1460Y3400561D01*
X635Y3417359D01*
X486Y3423442D01*
X486Y4217411D01*
X20171Y4284450D01*
X72975Y4330205D01*
X142133Y4340149D01*
X205689Y4311124D01*
X239047Y4264863D01*
X257634Y4219988D01*
X257636Y4219985D01*
X391277Y4001902D01*
X391284Y4001893D01*
X394533Y3998088D01*
X958766Y4562322D01*
X1002316Y4480178D01*
X1122009Y4339265D01*
X1269195Y4227377D01*
X1311402Y4207850D01*
X748087Y3644535D01*
X751897Y3641281D01*
X969984Y3507637D01*
X969987Y3507635D01*
X1206297Y3409753D01*
X1455011Y3350043D01*
X1455010Y3350043D01*
X1710000Y3329976D01*
X1964989Y3350043D01*
X2213702Y3409753D01*
X2450012Y3507635D01*
X2450015Y3507637D01*
X2668095Y3641276D01*
X2668110Y3641287D01*
X2671911Y3644534D01*
X2671911Y3644536D01*
X2108609Y4207839D01*
X2227431Y4279331D01*
X2361658Y4406477D01*
X2464861Y4558692D01*
X3025464Y3998089D01*
X3025466Y3998089D01*
X3028713Y4001890D01*
X3028724Y4001905D01*
X3162363Y4219985D01*
X3162365Y4219988D01*
X3260247Y4456298D01*
X3319957Y4705011D01*
X3340024Y4960000D01*
X5159975Y4960000D01*
X5180042Y4705011D01*
X5239752Y4456298D01*
X5337634Y4219988D01*
X5337636Y4219985D01*
X5471277Y4001902D01*
X5471284Y4001893D01*
X5474533Y3998088D01*
X6038766Y4562322D01*
X6082316Y4480178D01*
X6202009Y4339265D01*
X6349195Y4227377D01*
X6391402Y4207850D01*
X5828087Y3644535D01*
X5831897Y3641281D01*
X6049984Y3507637D01*
X6049987Y3507635D01*
X6286297Y3409753D01*
X6535011Y3350043D01*
X6535010Y3350043D01*
X6790000Y3329976D01*
X7044989Y3350043D01*
X7293702Y3409753D01*
X7530012Y3507635D01*
X7530015Y3507637D01*
X7748095Y3641276D01*
X7748110Y3641287D01*
X7751911Y3644534D01*
X7751911Y3644536D01*
X7188609Y4207839D01*
X7307431Y4279331D01*
X7441658Y4406477D01*
X7544861Y4558692D01*
X8105464Y3998089D01*
X8105466Y3998089D01*
X8108713Y4001890D01*
X8108724Y4001905D01*
X8242363Y4219985D01*
X8242365Y4219988D01*
X8340247Y4456298D01*
X8399957Y4705011D01*
X8420024Y4960000D01*
X8399957Y5214990D01*
X8340247Y5463703D01*
X8242365Y5700013D01*
X8242363Y5700016D01*
X8108719Y5918103D01*
X8105465Y5921913D01*
X7541232Y5357681D01*
X7497684Y5439822D01*
X7377991Y5580735D01*
X7230805Y5692623D01*
X7188596Y5712151D01*
X7751912Y6275467D01*
X7748107Y6278716D01*
X7748098Y6278723D01*
X7530015Y6412364D01*
X7530012Y6412366D01*
X7293702Y6510248D01*
X7044988Y6569958D01*
X7044989Y6569958D01*
X6790000Y6590025D01*
X6535010Y6569958D01*
X6286297Y6510248D01*
X6049987Y6412366D01*
X6049984Y6412364D01*
X5831893Y6278718D01*
X5828086Y6275468D01*
X6391391Y5712163D01*
X6272569Y5640669D01*
X6138342Y5513523D01*
X6035138Y5361308D01*
X5474532Y5921914D01*
X5471282Y5918107D01*
X5337636Y5700016D01*
X5337634Y5700013D01*
X5239752Y5463703D01*
X5180042Y5214990D01*
X5159975Y4960000D01*
X3340024Y4960000D01*
X3319957Y5214990D01*
X3260247Y5463703D01*
X3162365Y5700013D01*
X3162363Y5700016D01*
X3028719Y5918103D01*
X3025465Y5921913D01*
X2461232Y5357681D01*
X2417684Y5439822D01*
X2297991Y5580735D01*
X2150805Y5692623D01*
X2108596Y5712151D01*
X2671912Y6275467D01*
X2668107Y6278716D01*
X2668098Y6278723D01*
X2450015Y6412364D01*
X2450012Y6412366D01*
X2213702Y6510248D01*
X1964988Y6569958D01*
X1964989Y6569958D01*
X1710000Y6590025D01*
X1455010Y6569958D01*
X1206297Y6510248D01*
X969987Y6412366D01*
X969984Y6412364D01*
X751893Y6278718D01*
X748086Y6275468D01*
X1311391Y5712163D01*
X1192569Y5640669D01*
X1058342Y5513523D01*
X955138Y5361308D01*
X394532Y5921914D01*
X391282Y5918107D01*
X257637Y5700019D01*
X239047Y5655137D01*
X195205Y5600734D01*
X128911Y5578670D01*
X61212Y5595950D01*
X13602Y5647088D01*
X486Y5702589D01*
X487Y7500000D01*
X2719783Y7500000D01*
X2738623Y7260618D01*
X2794674Y7027147D01*
X2794678Y7027135D01*
X2886565Y6805298D01*
X3012026Y6600564D01*
X3012028Y6600561D01*
X3167973Y6417973D01*
X3350561Y6262028D01*
X3350563Y6262027D01*
X3555297Y6136566D01*
X3652047Y6096492D01*
X3777137Y6044677D01*
X4010621Y5988623D01*
X4250000Y5969783D01*
X4489379Y5988623D01*
X4722863Y6044677D01*
X4944704Y6136567D01*
X5149439Y6262028D01*
X5332027Y6417973D01*
X5487972Y6600561D01*
X5613433Y6805296D01*
X5705323Y7027137D01*
X5761377Y7260621D01*
X5780217Y7500000D01*
X5761377Y7739379D01*
X5705323Y7972863D01*
X5653508Y8097953D01*
X5613434Y8194703D01*
X5487973Y8399437D01*
X5487972Y8399439D01*
X5332027Y8582027D01*
X5149439Y8737972D01*
X5149436Y8737974D01*
X4944702Y8863435D01*
X4722865Y8955322D01*
X4722867Y8955322D01*
X4722863Y8955323D01*
X4722859Y8955324D01*
X4722853Y8955326D01*
X4489382Y9011377D01*
X4250000Y9030217D01*
X4010617Y9011377D01*
X3777146Y8955326D01*
X3777134Y8955322D01*
X3555297Y8863435D01*
X3350563Y8737974D01*
X3167973Y8582027D01*
X3012026Y8399437D01*
X2886565Y8194703D01*
X2794678Y7972866D01*
X2794674Y7972854D01*
X2738623Y7739383D01*
X2719783Y7500000D01*
X487Y7500000D01*
X487Y9297410D01*
X20172Y9364446D01*
X72976Y9410201D01*
X142134Y9420145D01*
X205690Y9391120D01*
X239048Y9344860D01*
X257636Y9299984D01*
X391277Y9081902D01*
X391284Y9081893D01*
X394533Y9078088D01*
X958766Y9642322D01*
X1002316Y9560178D01*
X1122009Y9419265D01*
X1269195Y9307377D01*
X1311402Y9287850D01*
X748087Y8724535D01*
X751897Y8721281D01*
X969984Y8587637D01*
X969987Y8587635D01*
X1206297Y8489753D01*
X1455011Y8430043D01*
X1455010Y8430043D01*
X1710000Y8409976D01*
X1964989Y8430043D01*
X2213702Y8489753D01*
X2450012Y8587635D01*
X2450015Y8587637D01*
X2668095Y8721276D01*
X2668110Y8721287D01*
X2671911Y8724534D01*
X2671911Y8724536D01*
X2108609Y9287839D01*
X2227431Y9359331D01*
X2361658Y9486477D01*
X2464861Y9638692D01*
X3025464Y9078089D01*
X3025466Y9078089D01*
X3028713Y9081890D01*
X3028724Y9081905D01*
X3162363Y9299985D01*
X3162365Y9299988D01*
X3260247Y9536298D01*
X3319957Y9785011D01*
X3340024Y10040000D01*
X5159975Y10040000D01*
X5180042Y9785011D01*
X5239752Y9536298D01*
X5337634Y9299988D01*
X5337636Y9299985D01*
X5471277Y9081902D01*
X5471284Y9081893D01*
X5474533Y9078088D01*
X6038766Y9642322D01*
X6082316Y9560178D01*
X6202009Y9419265D01*
X6349195Y9307377D01*
X6391402Y9287850D01*
X5828087Y8724535D01*
X5831897Y8721281D01*
X6049984Y8587637D01*
X6049987Y8587635D01*
X6286297Y8489753D01*
X6535011Y8430043D01*
X6535010Y8430043D01*
X6790000Y8409976D01*
X7044989Y8430043D01*
X7293702Y8489753D01*
X7530012Y8587635D01*
X7530015Y8587637D01*
X7748095Y8721276D01*
X7748110Y8721287D01*
X7751911Y8724534D01*
X7751911Y8724536D01*
X7188609Y9287839D01*
X7307431Y9359331D01*
X7441658Y9486477D01*
X7544861Y9638692D01*
X8105464Y9078089D01*
X8105466Y9078089D01*
X8108713Y9081890D01*
X8108724Y9081905D01*
X8242363Y9299985D01*
X8242365Y9299988D01*
X8340247Y9536298D01*
X8399957Y9785011D01*
X8420024Y10040000D01*
X8399957Y10294990D01*
X8340247Y10543703D01*
X8242365Y10780013D01*
X8242363Y10780016D01*
X8108719Y10998103D01*
X8105465Y11001913D01*
X7541232Y10437681D01*
X7497684Y10519822D01*
X7377991Y10660735D01*
X7230805Y10772623D01*
X7188596Y10792151D01*
X7751912Y11355467D01*
X7748107Y11358716D01*
X7748098Y11358723D01*
X7530015Y11492364D01*
X7530012Y11492366D01*
X7293702Y11590248D01*
X7044988Y11649958D01*
X7044989Y11649958D01*
X6790000Y11670025D01*
X6535010Y11649958D01*
X6286297Y11590248D01*
X6049987Y11492366D01*
X6049984Y11492364D01*
X5831893Y11358718D01*
X5828086Y11355468D01*
X6391391Y10792163D01*
X6272569Y10720669D01*
X6138342Y10593523D01*
X6035138Y10441308D01*
X5474532Y11001914D01*
X5471282Y10998107D01*
X5337636Y10780016D01*
X5337634Y10780013D01*
X5239752Y10543703D01*
X5180042Y10294990D01*
X5159975Y10040000D01*
X3340024Y10040000D01*
X3319957Y10294990D01*
X3260247Y10543703D01*
X3162365Y10780013D01*
X3162363Y10780016D01*
X3028719Y10998103D01*
X3025465Y11001913D01*
X2461232Y10437681D01*
X2417684Y10519822D01*
X2297991Y10660735D01*
X2150805Y10772623D01*
X2108596Y10792151D01*
X2671912Y11355467D01*
X2668107Y11358716D01*
X2668098Y11358723D01*
X2450015Y11492364D01*
X2450012Y11492366D01*
X2213702Y11590248D01*
X1964988Y11649958D01*
X1964989Y11649958D01*
X1710000Y11670025D01*
X1455010Y11649958D01*
X1206297Y11590248D01*
X969987Y11492366D01*
X969984Y11492364D01*
X751893Y11358718D01*
X748086Y11355468D01*
X1311391Y10792163D01*
X1192569Y10720669D01*
X1058342Y10593523D01*
X955138Y10441308D01*
X394532Y11001914D01*
X391282Y10998107D01*
X257636Y10780017D01*
X239049Y10735142D01*
X195208Y10680739D01*
X128913Y10658674D01*
X61214Y10675953D01*
X13604Y10727091D01*
X488Y10782595D01*
X488Y11492366D01*
X489Y14552130D01*
X10454500Y14552130D01*
X10454501Y14552124D01*
X10460908Y14492517D01*
X10511202Y14357672D01*
X10511206Y14357665D01*
X10597452Y14242456D01*
X10597455Y14242453D01*
X10712664Y14156207D01*
X10712671Y14156203D01*
X10847517Y14105909D01*
X10847516Y14105909D01*
X10854444Y14105165D01*
X10907127Y14099500D01*
X12702872Y14099501D01*
X12762483Y14105909D01*
X12897331Y14156204D01*
X13012546Y14242454D01*
X13098796Y14357669D01*
X13148002Y14489599D01*
X13189872Y14545532D01*
X13255337Y14569950D01*
X13323610Y14555099D01*
X13351865Y14533947D01*
X13473917Y14411895D01*
X13667421Y14276400D01*
X13881507Y14176571D01*
X13881516Y14176567D01*
X14095000Y14119366D01*
X14095000Y15014499D01*
X14202685Y14965320D01*
X14309237Y14950000D01*
X14380763Y14950000D01*
X14487315Y14965320D01*
X14595000Y15014499D01*
X14595000Y14119367D01*
X14808483Y14176567D01*
X14808492Y14176571D01*
X15022578Y14276400D01*
X15216082Y14411895D01*
X15383105Y14578918D01*
X15518600Y14772422D01*
X15618429Y14986508D01*
X15618432Y14986514D01*
X15675636Y15200000D01*
X14778686Y15200000D01*
X14804493Y15240156D01*
X14845000Y15378111D01*
X14845000Y15521889D01*
X14804493Y15659844D01*
X14778686Y15700000D01*
X15675636Y15700000D01*
X15675635Y15700001D01*
X15618432Y15913487D01*
X15618429Y15913493D01*
X15518600Y16127578D01*
X15518599Y16127580D01*
X15383113Y16321074D01*
X15383108Y16321080D01*
X15216082Y16488106D01*
X15022578Y16623601D01*
X14808492Y16723430D01*
X14808486Y16723433D01*
X14595000Y16780636D01*
X14595000Y15885502D01*
X14487315Y15934680D01*
X14380763Y15950000D01*
X14309237Y15950000D01*
X14202685Y15934680D01*
X14095000Y15885502D01*
X14095000Y16780636D01*
X14094999Y16780636D01*
X13881513Y16723433D01*
X13881507Y16723430D01*
X13667422Y16623601D01*
X13667420Y16623600D01*
X13473926Y16488114D01*
X13351865Y16366053D01*
X13290542Y16332569D01*
X13220850Y16337553D01*
X13164917Y16379425D01*
X13148002Y16410402D01*
X13098797Y16542329D01*
X13098793Y16542336D01*
X13012547Y16657545D01*
X13012544Y16657548D01*
X12897335Y16743794D01*
X12897328Y16743798D01*
X12762482Y16794092D01*
X12762483Y16794092D01*
X12702883Y16800499D01*
X12702881Y16800500D01*
X12702873Y16800500D01*
X12702864Y16800500D01*
X10907129Y16800500D01*
X10907123Y16800499D01*
X10847516Y16794092D01*
X10712671Y16743798D01*
X10712664Y16743794D01*
X10597455Y16657548D01*
X10597452Y16657545D01*
X10511206Y16542336D01*
X10511202Y16542329D01*
X10460908Y16407483D01*
X10454501Y16347884D01*
X10454500Y16347865D01*
X10454500Y14552130D01*
X489Y14552130D01*
X492Y24217398D01*
X20177Y24284435D01*
X72981Y24330190D01*
X142139Y24340134D01*
X205695Y24311109D01*
X239053Y24264849D01*
X257636Y24219984D01*
X391277Y24001902D01*
X391284Y24001893D01*
X394533Y23998088D01*
X958766Y24562322D01*
X1002316Y24480178D01*
X1122009Y24339265D01*
X1269195Y24227377D01*
X1311402Y24207850D01*
X748087Y23644535D01*
X751897Y23641281D01*
X969984Y23507637D01*
X969987Y23507635D01*
X1206297Y23409753D01*
X1455011Y23350043D01*
X1455010Y23350043D01*
X1710000Y23329976D01*
X1964989Y23350043D01*
X2213702Y23409753D01*
X2450012Y23507635D01*
X2450015Y23507637D01*
X2668095Y23641276D01*
X2668110Y23641287D01*
X2671911Y23644534D01*
X2671911Y23644536D01*
X2108609Y24207839D01*
X2227431Y24279331D01*
X2361658Y24406477D01*
X2464861Y24558692D01*
X3025464Y23998089D01*
X3025466Y23998089D01*
X3028713Y24001890D01*
X3028724Y24001905D01*
X3162363Y24219985D01*
X3162365Y24219988D01*
X3260247Y24456298D01*
X3319957Y24705011D01*
X3340024Y24960000D01*
X5159975Y24960000D01*
X5180042Y24705011D01*
X5239752Y24456298D01*
X5337634Y24219988D01*
X5337636Y24219985D01*
X5471277Y24001902D01*
X5471284Y24001893D01*
X5474533Y23998088D01*
X6038766Y24562322D01*
X6082316Y24480178D01*
X6202009Y24339265D01*
X6349195Y24227377D01*
X6391402Y24207850D01*
X5828087Y23644535D01*
X5831897Y23641281D01*
X6049984Y23507637D01*
X6049987Y23507635D01*
X6286297Y23409753D01*
X6535011Y23350043D01*
X6535010Y23350043D01*
X6790000Y23329976D01*
X7044989Y23350043D01*
X7293702Y23409753D01*
X7530012Y23507635D01*
X7530015Y23507637D01*
X7748095Y23641276D01*
X7748110Y23641287D01*
X7751911Y23644534D01*
X7751911Y23644536D01*
X7188609Y24207839D01*
X7307431Y24279331D01*
X7441658Y24406477D01*
X7544861Y24558692D01*
X8105464Y23998089D01*
X8105466Y23998089D01*
X8108713Y24001890D01*
X8108724Y24001905D01*
X8242363Y24219985D01*
X8242365Y24219988D01*
X8340247Y24456298D01*
X8399957Y24705011D01*
X8420024Y24960000D01*
X8399957Y25214990D01*
X8340247Y25463703D01*
X8242365Y25700013D01*
X8242363Y25700016D01*
X8108719Y25918103D01*
X8105465Y25921913D01*
X7541232Y25357681D01*
X7497684Y25439822D01*
X7377991Y25580735D01*
X7230805Y25692623D01*
X7188596Y25712151D01*
X7751912Y26275467D01*
X7748107Y26278716D01*
X7748098Y26278723D01*
X7530015Y26412364D01*
X7530012Y26412366D01*
X7293702Y26510248D01*
X7044988Y26569958D01*
X7044989Y26569958D01*
X6790000Y26590025D01*
X6535010Y26569958D01*
X6286297Y26510248D01*
X6049987Y26412366D01*
X6049984Y26412364D01*
X5831893Y26278718D01*
X5828086Y26275468D01*
X6391391Y25712163D01*
X6272569Y25640669D01*
X6138342Y25513523D01*
X6035138Y25361308D01*
X5474532Y25921914D01*
X5471282Y25918107D01*
X5337636Y25700016D01*
X5337634Y25700013D01*
X5239752Y25463703D01*
X5180042Y25214990D01*
X5159975Y24960000D01*
X3340024Y24960000D01*
X3319957Y25214990D01*
X3260247Y25463703D01*
X3162365Y25700013D01*
X3162363Y25700016D01*
X3028719Y25918103D01*
X3025465Y25921913D01*
X2461232Y25357681D01*
X2417684Y25439822D01*
X2297991Y25580735D01*
X2150805Y25692623D01*
X2108596Y25712151D01*
X2671912Y26275467D01*
X2668107Y26278716D01*
X2668098Y26278723D01*
X2450015Y26412364D01*
X2450012Y26412366D01*
X2213702Y26510248D01*
X1964988Y26569958D01*
X1964989Y26569958D01*
X1710000Y26590025D01*
X1455010Y26569958D01*
X1206297Y26510248D01*
X969987Y26412366D01*
X969984Y26412364D01*
X751893Y26278718D01*
X748086Y26275468D01*
X1311391Y25712163D01*
X1192569Y25640669D01*
X1058342Y25513523D01*
X955138Y25361308D01*
X394532Y25921914D01*
X391282Y25918107D01*
X257636Y25700016D01*
X257633Y25700011D01*
X239052Y25655152D01*
X195211Y25600749D01*
X128916Y25578685D01*
X61217Y25595965D01*
X13607Y25647103D01*
X492Y25702603D01*
X493Y27500000D01*
X2719783Y27500000D01*
X2738623Y27260618D01*
X2794674Y27027147D01*
X2794678Y27027135D01*
X2886565Y26805298D01*
X3012026Y26600564D01*
X3012028Y26600561D01*
X3167973Y26417973D01*
X3350561Y26262028D01*
X3350563Y26262027D01*
X3555297Y26136566D01*
X3652047Y26096492D01*
X3777137Y26044677D01*
X4010621Y25988623D01*
X4250000Y25969783D01*
X4489379Y25988623D01*
X4722863Y26044677D01*
X4944704Y26136567D01*
X5149439Y26262028D01*
X5332027Y26417973D01*
X5487972Y26600561D01*
X5613433Y26805296D01*
X5705323Y27027137D01*
X5761377Y27260621D01*
X5780217Y27500000D01*
X5761377Y27739379D01*
X5705323Y27972863D01*
X5653508Y28097953D01*
X5613434Y28194703D01*
X5487973Y28399437D01*
X5487972Y28399439D01*
X5332027Y28582027D01*
X5149439Y28737972D01*
X5149436Y28737974D01*
X4944702Y28863435D01*
X4722865Y28955322D01*
X4722867Y28955322D01*
X4722863Y28955323D01*
X4722859Y28955324D01*
X4722853Y28955326D01*
X4489382Y29011377D01*
X4250000Y29030217D01*
X4010617Y29011377D01*
X3777146Y28955326D01*
X3777134Y28955322D01*
X3555297Y28863435D01*
X3350563Y28737974D01*
X3167973Y28582027D01*
X3012026Y28399437D01*
X2886565Y28194703D01*
X2794678Y27972866D01*
X2794674Y27972854D01*
X2738623Y27739383D01*
X2719783Y27500000D01*
X493Y27500000D01*
X493Y29297396D01*
X20178Y29364431D01*
X72982Y29410186D01*
X142140Y29420130D01*
X205696Y29391105D01*
X239054Y29344846D01*
X257637Y29299982D01*
X391277Y29081902D01*
X391284Y29081893D01*
X394533Y29078088D01*
X958766Y29642322D01*
X1002316Y29560178D01*
X1122009Y29419265D01*
X1269195Y29307377D01*
X1311402Y29287850D01*
X748087Y28724535D01*
X751897Y28721281D01*
X969984Y28587637D01*
X969987Y28587635D01*
X1206297Y28489753D01*
X1455011Y28430043D01*
X1455010Y28430043D01*
X1710000Y28409976D01*
X1964989Y28430043D01*
X2213702Y28489753D01*
X2450012Y28587635D01*
X2450015Y28587637D01*
X2668095Y28721276D01*
X2668110Y28721287D01*
X2671911Y28724534D01*
X2671911Y28724536D01*
X2108609Y29287839D01*
X2227431Y29359331D01*
X2361658Y29486477D01*
X2464861Y29638692D01*
X3025464Y29078089D01*
X3025466Y29078089D01*
X3028713Y29081890D01*
X3028724Y29081905D01*
X3162363Y29299985D01*
X3162365Y29299988D01*
X3260247Y29536298D01*
X3319957Y29785011D01*
X3340024Y30040000D01*
X5159975Y30040000D01*
X5180042Y29785011D01*
X5239752Y29536298D01*
X5337634Y29299988D01*
X5337636Y29299985D01*
X5471277Y29081902D01*
X5471284Y29081893D01*
X5474533Y29078088D01*
X6038766Y29642322D01*
X6082316Y29560178D01*
X6202009Y29419265D01*
X6349195Y29307377D01*
X6391402Y29287850D01*
X5828087Y28724535D01*
X5831897Y28721281D01*
X6049984Y28587637D01*
X6049987Y28587635D01*
X6286297Y28489753D01*
X6535011Y28430043D01*
X6535010Y28430043D01*
X6790000Y28409976D01*
X7044989Y28430043D01*
X7293702Y28489753D01*
X7530012Y28587635D01*
X7530015Y28587637D01*
X7748095Y28721276D01*
X7748110Y28721287D01*
X7751911Y28724534D01*
X7751911Y28724536D01*
X7188609Y29287839D01*
X7307431Y29359331D01*
X7441658Y29486477D01*
X7544861Y29638692D01*
X8105464Y29078089D01*
X8105466Y29078089D01*
X8108713Y29081890D01*
X8108724Y29081905D01*
X8242363Y29299985D01*
X8242365Y29299988D01*
X8340247Y29536298D01*
X8399957Y29785011D01*
X8420024Y30040000D01*
X8399957Y30294990D01*
X8340247Y30543703D01*
X8242365Y30780013D01*
X8242363Y30780016D01*
X8108719Y30998103D01*
X8105465Y31001913D01*
X7541232Y30437681D01*
X7497684Y30519822D01*
X7377991Y30660735D01*
X7230805Y30772623D01*
X7188596Y30792151D01*
X7751912Y31355467D01*
X7748107Y31358716D01*
X7748098Y31358723D01*
X7530015Y31492364D01*
X7530012Y31492366D01*
X7293702Y31590248D01*
X7044988Y31649958D01*
X7044989Y31649958D01*
X6790000Y31670025D01*
X6535010Y31649958D01*
X6286297Y31590248D01*
X6049987Y31492366D01*
X6049984Y31492364D01*
X5831893Y31358718D01*
X5828086Y31355468D01*
X6391391Y30792163D01*
X6272569Y30720669D01*
X6138342Y30593523D01*
X6035138Y30441308D01*
X5474532Y31001914D01*
X5471282Y30998107D01*
X5337636Y30780016D01*
X5337634Y30780013D01*
X5239752Y30543703D01*
X5180042Y30294990D01*
X5159975Y30040000D01*
X3340024Y30040000D01*
X3319957Y30294990D01*
X3260247Y30543703D01*
X3162365Y30780013D01*
X3162363Y30780016D01*
X3028719Y30998103D01*
X3025465Y31001913D01*
X2461232Y30437681D01*
X2417684Y30519822D01*
X2297991Y30660735D01*
X2150805Y30772623D01*
X2108596Y30792151D01*
X2671912Y31355467D01*
X2668107Y31358716D01*
X2668098Y31358723D01*
X2450015Y31492364D01*
X2450012Y31492366D01*
X2213702Y31590248D01*
X1964988Y31649958D01*
X1964989Y31649958D01*
X1710000Y31670025D01*
X1455010Y31649958D01*
X1206297Y31590248D01*
X969987Y31492366D01*
X969984Y31492364D01*
X751893Y31358718D01*
X748086Y31355468D01*
X1311391Y30792163D01*
X1192569Y30720669D01*
X1058342Y30593523D01*
X955138Y30441308D01*
X394532Y31001914D01*
X391282Y30998107D01*
X257637Y30780019D01*
X239055Y30735156D01*
X195213Y30680753D01*
X128919Y30658689D01*
X61220Y30675969D01*
X13610Y30727106D01*
X494Y30782610D01*
X494Y31001914D01*
X498Y44217383D01*
X20183Y44284420D01*
X72987Y44330175D01*
X142145Y44340119D01*
X205701Y44311094D01*
X239059Y44264834D01*
X257636Y44219984D01*
X391277Y44001902D01*
X391284Y44001893D01*
X394533Y43998088D01*
X958766Y44562322D01*
X1002316Y44480178D01*
X1122009Y44339265D01*
X1269195Y44227377D01*
X1311402Y44207850D01*
X748087Y43644535D01*
X751897Y43641281D01*
X969984Y43507637D01*
X969987Y43507635D01*
X1206297Y43409753D01*
X1455011Y43350043D01*
X1455010Y43350043D01*
X1710000Y43329976D01*
X1964989Y43350043D01*
X2213702Y43409753D01*
X2450012Y43507635D01*
X2450015Y43507637D01*
X2668095Y43641276D01*
X2668110Y43641287D01*
X2671911Y43644534D01*
X2671911Y43644536D01*
X2108609Y44207839D01*
X2227431Y44279331D01*
X2361658Y44406477D01*
X2464861Y44558692D01*
X3025464Y43998089D01*
X3025466Y43998089D01*
X3028713Y44001890D01*
X3028724Y44001905D01*
X3162363Y44219985D01*
X3162365Y44219988D01*
X3260247Y44456298D01*
X3319957Y44705011D01*
X3340024Y44960000D01*
X5159975Y44960000D01*
X5180042Y44705011D01*
X5239752Y44456298D01*
X5337634Y44219988D01*
X5337636Y44219985D01*
X5471277Y44001902D01*
X5471284Y44001893D01*
X5474533Y43998088D01*
X6038766Y44562322D01*
X6082316Y44480178D01*
X6202009Y44339265D01*
X6349195Y44227377D01*
X6391402Y44207850D01*
X5828087Y43644535D01*
X5831897Y43641281D01*
X6049984Y43507637D01*
X6049987Y43507635D01*
X6286297Y43409753D01*
X6535011Y43350043D01*
X6535010Y43350043D01*
X6790000Y43329976D01*
X7044989Y43350043D01*
X7293702Y43409753D01*
X7530012Y43507635D01*
X7530015Y43507637D01*
X7748095Y43641276D01*
X7748110Y43641287D01*
X7751911Y43644534D01*
X7751911Y43644536D01*
X7188609Y44207839D01*
X7307431Y44279331D01*
X7441658Y44406477D01*
X7544861Y44558692D01*
X8105464Y43998089D01*
X8105466Y43998089D01*
X8108713Y44001890D01*
X8108724Y44001905D01*
X8242363Y44219985D01*
X8242365Y44219988D01*
X8340247Y44456298D01*
X8399957Y44705011D01*
X8420024Y44960000D01*
X8399957Y45214990D01*
X8340247Y45463703D01*
X8242365Y45700013D01*
X8242363Y45700016D01*
X8108719Y45918103D01*
X8105465Y45921913D01*
X7541232Y45357681D01*
X7497684Y45439822D01*
X7377991Y45580735D01*
X7230805Y45692623D01*
X7188596Y45712151D01*
X7751912Y46275467D01*
X7748107Y46278716D01*
X7748098Y46278723D01*
X7530015Y46412364D01*
X7530012Y46412366D01*
X7293702Y46510248D01*
X7044988Y46569958D01*
X7044989Y46569958D01*
X6790000Y46590025D01*
X6535010Y46569958D01*
X6286297Y46510248D01*
X6049987Y46412366D01*
X6049984Y46412364D01*
X5831893Y46278718D01*
X5828086Y46275468D01*
X6391391Y45712163D01*
X6272569Y45640669D01*
X6138342Y45513523D01*
X6035138Y45361308D01*
X5474532Y45921914D01*
X5471282Y45918107D01*
X5337636Y45700016D01*
X5337634Y45700013D01*
X5239752Y45463703D01*
X5180042Y45214990D01*
X5159975Y44960000D01*
X3340024Y44960000D01*
X3319957Y45214990D01*
X3260247Y45463703D01*
X3162365Y45700013D01*
X3162363Y45700016D01*
X3028719Y45918103D01*
X3025465Y45921913D01*
X2461232Y45357681D01*
X2417684Y45439822D01*
X2297991Y45580735D01*
X2150805Y45692623D01*
X2108596Y45712151D01*
X2671912Y46275467D01*
X2668107Y46278716D01*
X2668098Y46278723D01*
X2450015Y46412364D01*
X2450012Y46412366D01*
X2213702Y46510248D01*
X1964988Y46569958D01*
X1964989Y46569958D01*
X1710000Y46590025D01*
X1455010Y46569958D01*
X1206297Y46510248D01*
X969987Y46412366D01*
X969984Y46412364D01*
X751893Y46278718D01*
X748086Y46275468D01*
X1311391Y45712163D01*
X1192569Y45640669D01*
X1058342Y45513523D01*
X955138Y45361308D01*
X394532Y45921914D01*
X391282Y45918107D01*
X257636Y45700016D01*
X257635Y45700015D01*
X239058Y45655166D01*
X195216Y45600764D01*
X128922Y45578700D01*
X61223Y45595980D01*
X13613Y45647118D01*
X498Y45702617D01*
X499Y47500000D01*
X2719783Y47500000D01*
X2738623Y47260618D01*
X2794674Y47027147D01*
X2794678Y47027135D01*
X2886565Y46805298D01*
X3012026Y46600564D01*
X3012028Y46600561D01*
X3167973Y46417973D01*
X3350561Y46262028D01*
X3350563Y46262027D01*
X3555297Y46136566D01*
X3652047Y46096492D01*
X3777137Y46044677D01*
X4010621Y45988623D01*
X4250000Y45969783D01*
X4489379Y45988623D01*
X4722863Y46044677D01*
X4944704Y46136567D01*
X5149439Y46262028D01*
X5332027Y46417973D01*
X5487972Y46600561D01*
X5613433Y46805296D01*
X5705323Y47027137D01*
X5761377Y47260621D01*
X5780217Y47500000D01*
X5761377Y47739379D01*
X5705323Y47972863D01*
X5621627Y48174922D01*
X5613434Y48194703D01*
X5487973Y48399437D01*
X5487972Y48399439D01*
X5332027Y48582027D01*
X5149439Y48737972D01*
X5149436Y48737974D01*
X4944702Y48863435D01*
X4722865Y48955322D01*
X4722867Y48955322D01*
X4722863Y48955323D01*
X4722859Y48955324D01*
X4722853Y48955326D01*
X4489382Y49011377D01*
X4250000Y49030217D01*
X4010617Y49011377D01*
X3777146Y48955326D01*
X3777134Y48955322D01*
X3555297Y48863435D01*
X3350563Y48737974D01*
X3167973Y48582027D01*
X3012026Y48399437D01*
X2886565Y48194703D01*
X2794678Y47972866D01*
X2794674Y47972854D01*
X2738623Y47739383D01*
X2719783Y47500000D01*
X499Y47500000D01*
X500Y49297378D01*
X20185Y49364417D01*
X72989Y49410171D01*
X142147Y49420115D01*
X205703Y49391090D01*
X239061Y49344829D01*
X257634Y49299988D01*
X257636Y49299985D01*
X391277Y49081902D01*
X391284Y49081893D01*
X394533Y49078088D01*
X958766Y49642322D01*
X1002316Y49560178D01*
X1122009Y49419265D01*
X1269195Y49307377D01*
X1311402Y49287850D01*
X748087Y48724535D01*
X751897Y48721281D01*
X969984Y48587637D01*
X969987Y48587635D01*
X1206297Y48489753D01*
X1455011Y48430043D01*
X1455010Y48430043D01*
X1710000Y48409976D01*
X1964989Y48430043D01*
X2213702Y48489753D01*
X2450012Y48587635D01*
X2450015Y48587637D01*
X2668095Y48721276D01*
X2668110Y48721287D01*
X2671911Y48724534D01*
X2671911Y48724536D01*
X2108609Y49287839D01*
X2227431Y49359331D01*
X2361658Y49486477D01*
X2464861Y49638692D01*
X3025464Y49078089D01*
X3025466Y49078089D01*
X3028713Y49081890D01*
X3028724Y49081905D01*
X3162363Y49299985D01*
X3162365Y49299988D01*
X3260247Y49536298D01*
X3319957Y49785011D01*
X3340024Y50040000D01*
X5159975Y50040000D01*
X5180042Y49785011D01*
X5239752Y49536298D01*
X5337634Y49299988D01*
X5337636Y49299985D01*
X5471277Y49081902D01*
X5471284Y49081893D01*
X5474533Y49078088D01*
X6038766Y49642322D01*
X6082316Y49560178D01*
X6202009Y49419265D01*
X6349195Y49307377D01*
X6391402Y49287850D01*
X5828087Y48724535D01*
X5831897Y48721281D01*
X6049984Y48587637D01*
X6049987Y48587635D01*
X6286297Y48489753D01*
X6535011Y48430043D01*
X6535010Y48430043D01*
X6790000Y48409976D01*
X7044989Y48430043D01*
X7293702Y48489753D01*
X7530012Y48587635D01*
X7530015Y48587637D01*
X7748095Y48721276D01*
X7748110Y48721287D01*
X7751911Y48724534D01*
X7751911Y48724536D01*
X7188609Y49287839D01*
X7307431Y49359331D01*
X7441658Y49486477D01*
X7544861Y49638692D01*
X8105464Y49078089D01*
X8105466Y49078089D01*
X8108713Y49081890D01*
X8108724Y49081905D01*
X8242363Y49299985D01*
X8242365Y49299988D01*
X8340247Y49536298D01*
X8399957Y49785011D01*
X8420024Y50040000D01*
X8399957Y50294990D01*
X8340247Y50543703D01*
X8242365Y50780013D01*
X8242363Y50780016D01*
X8108719Y50998103D01*
X8105465Y51001913D01*
X7541232Y50437681D01*
X7497684Y50519822D01*
X7377991Y50660735D01*
X7230805Y50772623D01*
X7188596Y50792151D01*
X7751912Y51355467D01*
X7748107Y51358716D01*
X7748098Y51358723D01*
X7530015Y51492364D01*
X7530012Y51492366D01*
X7293702Y51590248D01*
X7044988Y51649958D01*
X7044989Y51649958D01*
X6790000Y51670025D01*
X6535010Y51649958D01*
X6286297Y51590248D01*
X6049987Y51492366D01*
X6049984Y51492364D01*
X5831893Y51358718D01*
X5828086Y51355468D01*
X6391391Y50792163D01*
X6272569Y50720669D01*
X6138342Y50593523D01*
X6035138Y50441308D01*
X5474532Y51001914D01*
X5471282Y50998107D01*
X5337636Y50780016D01*
X5337634Y50780013D01*
X5239752Y50543703D01*
X5180042Y50294990D01*
X5159975Y50040000D01*
X3340024Y50040000D01*
X3319957Y50294990D01*
X3260247Y50543703D01*
X3162365Y50780013D01*
X3162363Y50780016D01*
X3028719Y50998103D01*
X3025465Y51001913D01*
X2461232Y50437681D01*
X2417684Y50519822D01*
X2297991Y50660735D01*
X2150805Y50772623D01*
X2108596Y50792151D01*
X2671912Y51355467D01*
X2668107Y51358716D01*
X2668098Y51358723D01*
X2450015Y51492364D01*
X2450012Y51492366D01*
X2213702Y51590248D01*
X1964988Y51649958D01*
X1964989Y51649958D01*
X1710000Y51670025D01*
X1455010Y51649958D01*
X1206297Y51590248D01*
X969987Y51492366D01*
X969984Y51492364D01*
X751893Y51358718D01*
X748086Y51355468D01*
X1311391Y50792163D01*
X1192569Y50720669D01*
X1058342Y50593523D01*
X955138Y50441308D01*
X394532Y51001914D01*
X391282Y50998107D01*
X257637Y50780019D01*
X239061Y50735171D01*
X195219Y50680768D01*
X128924Y50658704D01*
X61225Y50675984D01*
X13615Y50727122D01*
X500Y50782623D01*
X500Y52406993D01*
X647Y52412993D01*
X7987Y52562397D01*
X8003Y52562694D01*
X17747Y52748615D01*
X18914Y52760269D01*
X43258Y52924385D01*
X43431Y52925505D01*
X70246Y53094809D01*
X72428Y53105507D01*
X113466Y53269337D01*
X113904Y53271028D01*
X157544Y53433895D01*
X160546Y53443509D01*
X217872Y53603724D01*
X218728Y53606032D01*
X278741Y53762369D01*
X282375Y53770867D01*
X355338Y53925134D01*
X356857Y53928227D01*
X432576Y54076834D01*
X436674Y54084234D01*
X524550Y54230846D01*
X526845Y54234525D01*
X617468Y54374071D01*
X621819Y54380337D01*
X723777Y54517811D01*
X726958Y54521914D01*
X831527Y54651046D01*
X835955Y54656214D01*
X950968Y54783111D01*
X955086Y54787436D01*
X1072564Y54904914D01*
X1076890Y54909033D01*
X1203781Y55024041D01*
X1208958Y55028476D01*
X1338087Y55133042D01*
X1342193Y55136226D01*
X1479646Y55238169D01*
X1485936Y55242538D01*
X1625493Y55333167D01*
X1629116Y55335428D01*
X1775795Y55423344D01*
X1783176Y55427430D01*
X1931749Y55503131D01*
X1934828Y55504644D01*
X2089150Y55577633D01*
X2097645Y55581265D01*
X2253896Y55641244D01*
X2256372Y55642162D01*
X2416478Y55699449D01*
X2426085Y55702450D01*
X2589080Y55746125D01*
X2590639Y55746529D01*
X2754505Y55787575D01*
X2765179Y55789752D01*
X2934597Y55816585D01*
X2935582Y55816737D01*
X3099730Y55841086D01*
X3111390Y55842253D01*
X3220406Y55847968D01*
X3226926Y55848137D01*
X17350000Y55840000D01*
G37*
G04 #@! TD.AperFunction*
M02*
