G04 #@! TF.GenerationSoftware,KiCad,Pcbnew,7.0.10*
G04 #@! TF.CreationDate,2024-07-16T21:32:39-04:00*
G04 #@! TF.ProjectId,button_transmitter,62757474-6f6e-45f7-9472-616e736d6974,1.0*
G04 #@! TF.SameCoordinates,Original*
G04 #@! TF.FileFunction,Paste,Top*
G04 #@! TF.FilePolarity,Positive*
%FSLAX46Y46*%
G04 Gerber Fmt 4.6, Leading zero omitted, Abs format (unit mm)*
G04 Created by KiCad (PCBNEW 7.0.10) date 2024-07-16 21:32:39*
%MOMM*%
%LPD*%
G01*
G04 APERTURE LIST*
G04 Aperture macros list*
%AMRoundRect*
0 Rectangle with rounded corners*
0 $1 Rounding radius*
0 $2 $3 $4 $5 $6 $7 $8 $9 X,Y pos of 4 corners*
0 Add a 4 corners polygon primitive as box body*
4,1,4,$2,$3,$4,$5,$6,$7,$8,$9,$2,$3,0*
0 Add four circle primitives for the rounded corners*
1,1,$1+$1,$2,$3*
1,1,$1+$1,$4,$5*
1,1,$1+$1,$6,$7*
1,1,$1+$1,$8,$9*
0 Add four rect primitives between the rounded corners*
20,1,$1+$1,$2,$3,$4,$5,0*
20,1,$1+$1,$4,$5,$6,$7,0*
20,1,$1+$1,$6,$7,$8,$9,0*
20,1,$1+$1,$8,$9,$2,$3,0*%
G04 Aperture macros list end*
%ADD10C,0.635000*%
%ADD11RoundRect,0.237500X0.287500X0.237500X-0.287500X0.237500X-0.287500X-0.237500X0.287500X-0.237500X0*%
%ADD12RoundRect,0.237500X0.250000X0.237500X-0.250000X0.237500X-0.250000X-0.237500X0.250000X-0.237500X0*%
%ADD13RoundRect,0.237500X-0.300000X-0.237500X0.300000X-0.237500X0.300000X0.237500X-0.300000X0.237500X0*%
%ADD14RoundRect,0.150000X-0.825000X-0.150000X0.825000X-0.150000X0.825000X0.150000X-0.825000X0.150000X0*%
%ADD15RoundRect,0.250000X-0.337500X-0.475000X0.337500X-0.475000X0.337500X0.475000X-0.337500X0.475000X0*%
%ADD16RoundRect,0.237500X-0.250000X-0.237500X0.250000X-0.237500X0.250000X0.237500X-0.250000X0.237500X0*%
%ADD17RoundRect,0.237500X0.300000X0.237500X-0.300000X0.237500X-0.300000X-0.237500X0.300000X-0.237500X0*%
%ADD18RoundRect,0.237500X-0.287500X-0.237500X0.287500X-0.237500X0.287500X0.237500X-0.287500X0.237500X0*%
%ADD19RoundRect,0.250000X0.312500X0.625000X-0.312500X0.625000X-0.312500X-0.625000X0.312500X-0.625000X0*%
%ADD20R,1.400000X0.300000*%
%ADD21R,1.200000X1.400000*%
G04 APERTURE END LIST*
D10*
X112960000Y-92690001D03*
X111689999Y-91420000D03*
X111690002Y-92690000D03*
X110419999Y-91420001D03*
D11*
X95915000Y-84270000D03*
X94165000Y-84270000D03*
D12*
X85772500Y-106060000D03*
X83947500Y-106060000D03*
X90437498Y-92937496D03*
X88612498Y-92937496D03*
D11*
X90402496Y-95110001D03*
X88652496Y-95110001D03*
D13*
X93845000Y-109830000D03*
X95570000Y-109830000D03*
D14*
X99995000Y-88685000D03*
X99995000Y-89955000D03*
X99995000Y-91225000D03*
X99995000Y-92495000D03*
X104945000Y-92495000D03*
X104945000Y-91225000D03*
X104945000Y-89955000D03*
X104945000Y-88685000D03*
D15*
X93890000Y-111800000D03*
X95965000Y-111800000D03*
D16*
X96410000Y-114320000D03*
X98235000Y-114320000D03*
D12*
X86572500Y-102410000D03*
X84747500Y-102410000D03*
X90437494Y-88970001D03*
X88612494Y-88970001D03*
D17*
X99992496Y-85624998D03*
X98267496Y-85624998D03*
D11*
X90377498Y-91097496D03*
X88627498Y-91097496D03*
D18*
X96452500Y-116340000D03*
X98202500Y-116340000D03*
D12*
X90444993Y-97130001D03*
X88619993Y-97130001D03*
D19*
X95402500Y-101460000D03*
X92477500Y-101460000D03*
X95402500Y-98980000D03*
X92477500Y-98980000D03*
D20*
X93550000Y-107090000D03*
X93550000Y-106590000D03*
X93550000Y-106090000D03*
X93550000Y-105590000D03*
X93550000Y-105090000D03*
X89150000Y-105090000D03*
X89150000Y-105590000D03*
X89150000Y-106090000D03*
X89150000Y-106590000D03*
X89150000Y-107090000D03*
D12*
X95952500Y-82370000D03*
X94127500Y-82370000D03*
D17*
X89780000Y-111800000D03*
X88055000Y-111800000D03*
D15*
X103792497Y-85624999D03*
X105867497Y-85624999D03*
D11*
X90400000Y-87130000D03*
X88650000Y-87130000D03*
D12*
X86582500Y-109740000D03*
X84757500Y-109740000D03*
D21*
X97835000Y-105440000D03*
X97835000Y-107740000D03*
X99685000Y-107740000D03*
X99685000Y-105440000D03*
M02*
